<?xml version="1.0" standalone="no"?><!-- Generator: Gravit.io --><svg xmlns="http://www.w3.org/2000/svg" xmlns:xlink="http://www.w3.org/1999/xlink" style="isolation:isolate" viewBox="0 0 15 30" width="15" height="30"><defs><clipPath id="_clipPath_AX8EfqhtWd9RLHJUEBmJOiICId4COe39"><rect width="15" height="30"/></clipPath></defs><g clip-path="url(#_clipPath_AX8EfqhtWd9RLHJUEBmJOiICId4COe39)"><line x1="0.5" y1="14.5" x2="14.5" y2="14.5" vector-effect="non-scaling-stroke" stroke-width="1" stroke="rgb(178,178,178)" stroke-linejoin="miter" stroke-linecap="square" stroke-miterlimit="3"/><path d=" M 0 0 L 15 0 L 15 14 L 0 14 L 0 0 Z  M 4 7.5 C 4 5.568 5.568 4 7.5 4 C 9.432 4 11 5.568 11 7.5 C 11 9.432 9.432 11 7.5 11 C 5.568 11 4 9.432 4 7.5 Z " fill-rule="evenodd" fill="rgb(216,216,216)"/><line x1="0.5" y1="29.5" x2="14.5" y2="29.5" vector-effect="non-scaling-stroke" stroke-width="1" stroke="rgb(178,178,178)" stroke-linejoin="miter" stroke-linecap="square" stroke-miterlimit="3"/><path d=" M 0 15 L 15 15 L 15 29 L 0 29 L 0 15 Z  M 4 22.5 C 4 20.568 5.568 19 7.5 19 C 9.432 19 11 20.568 11 22.5 C 11 24.432 9.432 26 7.5 26 C 5.568 26 4 24.432 4 22.5 Z " fill-rule="evenodd" fill="rgb(216,216,216)"/></g></svg>