<?xml version="1.0" standalone="no"?><!-- Generator: Gravit.io --><svg xmlns="http://www.w3.org/2000/svg" xmlns:xlink="http://www.w3.org/1999/xlink" style="isolation:isolate" viewBox="0 0 120 380" width="120" height="380"><defs><clipPath id="_clipPath_0bOxgxJUGS5M3OYoDUAqsJNHDyCmAuAD"><rect width="120" height="380"/></clipPath></defs><g clip-path="url(#_clipPath_0bOxgxJUGS5M3OYoDUAqsJNHDyCmAuAD)"><g id="bg"><rect x="0" y="0" width="120" height="380" transform="matrix(1,0,0,1,0,0)" fill="rgb(240,240,240)"/><path d=" M 54.082 369.599 C 53.927 369.747 53.783 369.851 53.65 369.909 C 53.517 369.968 53.375 369.998 53.224 369.998 C 53.072 369.998 52.93 369.97 52.797 369.914 C 52.664 369.858 52.548 369.781 52.449 369.682 C 52.233 369.466 52.124 369.209 52.124 368.912 L 52.124 363.385 C 52.124 363.082 52.202 362.847 52.356 362.68 C 52.622 362.408 52.874 362.272 53.112 362.272 C 53.35 362.272 53.528 362.296 53.646 362.346 C 53.763 362.395 53.862 362.457 53.942 362.531 C 54.048 362.624 54.126 362.723 54.179 362.828 C 54.232 362.933 54.275 363.011 54.309 363.06 C 54.343 363.11 54.399 363.134 54.476 363.134 C 54.553 363.134 54.62 363.11 54.675 363.06 L 54.833 362.902 C 55.284 362.482 55.736 362.272 56.187 362.272 C 56.985 362.272 57.643 362.599 58.163 363.255 C 58.212 363.323 58.274 363.357 58.348 363.357 C 58.478 363.357 58.61 363.256 58.743 363.055 C 58.876 362.854 59.09 362.674 59.387 362.513 C 59.684 362.352 60.03 362.272 60.426 362.272 C 60.822 362.272 61.182 362.344 61.507 362.49 C 61.831 362.635 62.114 362.834 62.355 363.088 C 62.862 363.62 63.116 364.263 63.116 365.017 L 63.116 368.912 C 63.116 369.382 62.893 369.713 62.448 369.905 C 62.312 369.967 62.168 369.998 62.017 369.998 C 61.865 369.998 61.723 369.97 61.59 369.914 C 61.457 369.858 61.341 369.781 61.242 369.682 C 61.032 369.46 60.927 369.203 60.927 368.912 L 60.927 365.045 C 60.927 364.736 60.85 364.504 60.695 364.349 C 60.423 364.077 60.173 363.941 59.944 363.941 C 59.715 363.941 59.536 363.971 59.406 364.029 C 59.276 364.088 59.158 364.17 59.053 364.275 C 58.837 364.492 58.729 364.742 58.729 365.026 L 58.729 368.912 C 58.729 369.382 58.509 369.713 58.07 369.905 C 57.934 369.967 57.79 369.998 57.639 369.998 C 57.487 369.998 57.344 369.97 57.207 369.914 C 57.071 369.858 56.954 369.781 56.855 369.682 C 56.639 369.466 56.53 369.209 56.53 368.912 L 56.53 365.045 C 56.53 364.736 56.453 364.504 56.298 364.349 C 56.026 364.077 55.742 363.941 55.445 363.941 C 54.95 363.941 54.607 364.133 54.416 364.516 C 54.354 364.64 54.323 364.779 54.323 364.934 L 54.323 368.912 C 54.323 369.215 54.242 369.444 54.082 369.599 Z  M 65.343 363.387 C 65.343 363.084 65.42 362.849 65.575 362.682 C 65.84 362.41 66.134 362.274 66.456 362.274 C 66.765 362.274 66.994 362.355 67.142 362.515 C 67.414 362.794 67.55 363.084 67.55 363.387 L 67.55 368.915 C 67.55 369.212 67.473 369.437 67.318 369.592 C 67.046 369.864 66.796 370 66.567 370 C 66.338 370 66.156 369.971 66.02 369.912 C 65.884 369.853 65.766 369.777 65.667 369.685 C 65.451 369.474 65.343 369.218 65.343 368.915 L 65.343 363.387 Z  M 66.451 359.9 C 66.189 359.9 65.976 359.687 65.976 359.425 C 65.976 359.162 66.189 358.95 66.451 358.95 C 66.713 358.95 66.926 359.162 66.926 359.425 C 66.926 359.687 66.713 359.9 66.451 359.9 Z  M 66.451 358 C 66.838 358 67.172 358.142 67.453 358.425 C 67.735 358.709 67.876 358.996 67.876 359.287 C 67.876 359.577 67.837 359.807 67.759 359.978 C 67.682 360.148 67.58 360.297 67.453 360.424 C 67.172 360.708 66.838 360.849 66.451 360.849 C 66.064 360.849 65.73 360.708 65.448 360.424 C 65.167 360.141 65.026 359.857 65.026 359.574 C 65.026 359.092 65.167 358.709 65.448 358.425 C 65.73 358.142 66.064 358 66.451 358 Z " fill-rule="evenodd" fill="rgb(10,118,187)"/><path d=" M 0 174 L 120 60 L 120 80 L 0 194 L 0 174 Z  M 0 214 L 120 100 L 120 120 L 0 234 L 0 214 Z  M 0 134 L 120 20 L 120 40 L 0 154 L 0 134 Z " fill-rule="evenodd" fill="rgb(0,0,0)" fill-opacity="0.02"/><path d=" M 74.162 28.31 L 74.162 28.31 Q 71.852 28.31 70.613 27.008 L 70.613 27.008 L 70.613 27.008 Q 69.374 25.706 69.374 23.34 L 69.374 23.34 L 69.374 23.34 Q 69.374 20.974 70.613 19.672 L 70.613 19.672 L 70.613 19.672 Q 71.852 18.37 74.162 18.37 L 74.162 18.37 L 74.162 18.37 Q 76.458 18.37 77.704 19.672 L 77.704 19.672 L 77.704 19.672 Q 78.95 20.974 78.95 23.34 L 78.95 23.34 L 78.95 23.34 Q 78.95 25.706 77.704 27.008 L 77.704 27.008 L 77.704 27.008 Q 76.458 28.31 74.162 28.31 L 74.162 28.31 L 74.162 28.31 Z  M 74.162 26.994 L 74.162 26.994 Q 75.632 26.994 76.402 26.063 L 76.402 26.063 L 76.402 26.063 Q 77.172 25.132 77.172 23.34 L 77.172 23.34 L 77.172 23.34 Q 77.172 21.548 76.402 20.624 L 76.402 20.624 L 76.402 20.624 Q 75.632 19.7 74.162 19.7 L 74.162 19.7 L 74.162 19.7 Q 72.692 19.7 71.915 20.624 L 71.915 20.624 L 71.915 20.624 Q 71.138 21.548 71.138 23.34 L 71.138 23.34 L 71.138 23.34 Q 71.138 25.132 71.915 26.063 L 71.915 26.063 L 71.915 26.063 Q 72.692 26.994 74.162 26.994 L 74.162 26.994 L 74.162 26.994 Z  M 82.8 28.31 L 82.8 28.31 Q 81.652 28.31 80.952 27.673 L 80.952 27.673 L 80.952 27.673 Q 80.252 27.036 80.252 25.776 L 80.252 25.776 L 80.252 21.898 L 80.252 21.898 Q 80.252 21.632 80.371 21.506 L 80.371 21.506 L 80.371 21.506 Q 80.49 21.38 80.77 21.38 L 80.77 21.38 L 81.512 21.38 L 81.512 21.38 Q 81.792 21.38 81.918 21.506 L 81.918 21.506 L 81.918 21.506 Q 82.044 21.632 82.044 21.898 L 82.044 21.898 L 82.044 25.734 L 82.044 25.734 Q 82.044 26.406 82.394 26.721 L 82.394 26.721 L 82.394 26.721 Q 82.744 27.036 83.43 27.036 L 83.43 27.036 L 83.43 27.036 Q 84.158 27.036 84.648 26.63 L 84.648 26.63 L 84.648 26.63 Q 85.138 26.224 85.138 25.58 L 85.138 25.58 L 85.138 21.898 L 85.138 21.898 Q 85.138 21.632 85.264 21.506 L 85.264 21.506 L 85.264 21.506 Q 85.39 21.38 85.67 21.38 L 85.67 21.38 L 86.398 21.38 L 86.398 21.38 Q 86.678 21.38 86.804 21.506 L 86.804 21.506 L 86.804 21.506 Q 86.93 21.632 86.93 21.898 L 86.93 21.898 L 86.93 27.722 L 86.93 27.722 Q 86.93 27.946 86.86 28.023 L 86.86 28.023 L 86.86 28.023 Q 86.79 28.1 86.566 28.1 L 86.566 28.1 L 85.782 28.1 L 85.782 28.1 Q 85.628 28.1 85.558 28.037 L 85.558 28.037 L 85.558 28.037 Q 85.488 27.974 85.474 27.834 L 85.474 27.834 L 85.418 27.246 L 85.418 27.246 Q 84.466 28.31 82.8 28.31 L 82.8 28.31 L 82.8 28.31 Z  M 91.676 28.31 L 91.676 28.31 Q 90.486 28.31 89.884 27.652 L 89.884 27.652 L 89.884 27.652 Q 89.282 26.994 89.282 25.832 L 89.282 25.832 L 89.282 22.696 L 88.484 22.696 L 88.484 22.696 Q 88.204 22.696 88.113 22.598 L 88.113 22.598 L 88.113 22.598 Q 88.022 22.5 88.022 22.234 L 88.022 22.234 L 88.022 21.856 L 88.022 21.856 Q 88.022 21.59 88.113 21.485 L 88.113 21.485 L 88.113 21.485 Q 88.204 21.38 88.484 21.38 L 88.484 21.38 L 89.282 21.38 L 89.282 20.61 L 89.282 20.61 Q 89.282 20.316 89.387 20.057 L 89.387 20.057 L 89.387 20.057 Q 89.492 19.798 89.716 19.406 L 89.716 19.406 L 89.716 19.406 Q 89.8 19.238 89.877 19.189 L 89.877 19.189 L 89.877 19.189 Q 89.954 19.14 90.15 19.14 L 90.15 19.14 L 90.612 19.14 L 90.612 19.14 Q 90.864 19.14 90.969 19.259 L 90.969 19.259 L 90.969 19.259 Q 91.074 19.378 91.074 19.616 L 91.074 19.616 L 91.074 21.38 L 92.726 21.38 L 92.726 21.38 Q 93.006 21.38 93.097 21.485 L 93.097 21.485 L 93.097 21.485 Q 93.188 21.59 93.188 21.856 L 93.188 21.856 L 93.188 22.234 L 93.188 22.234 Q 93.188 22.5 93.097 22.598 L 93.097 22.598 L 93.097 22.598 Q 93.006 22.696 92.726 22.696 L 92.726 22.696 L 91.074 22.696 L 91.074 25.776 L 91.074 25.776 Q 91.074 26.42 91.298 26.707 L 91.298 26.707 L 91.298 26.707 Q 91.522 26.994 92.068 26.994 L 92.068 26.994 L 92.068 26.994 Q 92.39 26.994 92.614 26.917 L 92.614 26.917 L 92.614 26.917 Q 92.838 26.84 93.104 26.658 L 93.104 26.658 L 93.104 26.658 Q 93.174 26.602 93.258 26.602 L 93.258 26.602 L 93.258 26.602 Q 93.342 26.602 93.426 26.728 L 93.426 26.728 L 93.832 27.4 L 93.832 27.4 Q 93.888 27.47 93.888 27.554 L 93.888 27.554 L 93.888 27.554 Q 93.888 27.652 93.748 27.75 L 93.748 27.75 L 93.748 27.75 Q 92.88 28.31 91.676 28.31 L 91.676 28.31 L 91.676 28.31 Z  M 24.63 28.1 L 24.63 28.1 Q 24.392 28.1 24.392 27.89 L 24.392 27.89 L 24.392 27.89 Q 24.392 27.806 24.434 27.708 L 24.434 27.708 L 28.13 18.944 L 28.13 18.944 Q 28.214 18.734 28.312 18.657 L 28.312 18.657 L 28.312 18.657 Q 28.41 18.58 28.592 18.58 L 28.592 18.58 L 29.362 18.58 L 29.362 18.58 Q 29.558 18.58 29.649 18.657 L 29.649 18.657 L 29.649 18.657 Q 29.74 18.734 29.824 18.944 L 29.824 18.944 L 33.52 27.708 L 33.52 27.708 Q 33.562 27.806 33.562 27.89 L 33.562 27.89 L 33.562 27.89 Q 33.562 28.1 33.324 28.1 L 33.324 28.1 L 32.106 28.1 L 32.106 28.1 Q 31.924 28.1 31.847 28.051 L 31.847 28.051 L 31.847 28.051 Q 31.77 28.002 31.7 27.848 L 31.7 27.848 L 30.902 25.888 L 27.038 25.888 L 26.254 27.848 L 26.254 27.848 Q 26.184 28.002 26.107 28.051 L 26.107 28.051 L 26.107 28.051 Q 26.03 28.1 25.848 28.1 L 25.848 28.1 L 24.63 28.1 L 24.63 28.1 Z  M 27.486 24.586 L 30.454 24.586 L 28.97 20.918 L 27.486 24.586 L 27.486 24.586 Z  M 37.412 28.31 L 37.412 28.31 Q 36.264 28.31 35.564 27.673 L 35.564 27.673 L 35.564 27.673 Q 34.864 27.036 34.864 25.776 L 34.864 25.776 L 34.864 21.898 L 34.864 21.898 Q 34.864 21.632 34.983 21.506 L 34.983 21.506 L 34.983 21.506 Q 35.102 21.38 35.382 21.38 L 35.382 21.38 L 36.124 21.38 L 36.124 21.38 Q 36.404 21.38 36.53 21.506 L 36.53 21.506 L 36.53 21.506 Q 36.656 21.632 36.656 21.898 L 36.656 21.898 L 36.656 25.734 L 36.656 25.734 Q 36.656 26.406 37.006 26.721 L 37.006 26.721 L 37.006 26.721 Q 37.356 27.036 38.042 27.036 L 38.042 27.036 L 38.042 27.036 Q 38.77 27.036 39.26 26.63 L 39.26 26.63 L 39.26 26.63 Q 39.75 26.224 39.75 25.58 L 39.75 25.58 L 39.75 21.898 L 39.75 21.898 Q 39.75 21.632 39.876 21.506 L 39.876 21.506 L 39.876 21.506 Q 40.002 21.38 40.282 21.38 L 40.282 21.38 L 41.01 21.38 L 41.01 21.38 Q 41.29 21.38 41.416 21.506 L 41.416 21.506 L 41.416 21.506 Q 41.542 21.632 41.542 21.898 L 41.542 21.898 L 41.542 27.722 L 41.542 27.722 Q 41.542 27.946 41.472 28.023 L 41.472 28.023 L 41.472 28.023 Q 41.402 28.1 41.178 28.1 L 41.178 28.1 L 40.394 28.1 L 40.394 28.1 Q 40.24 28.1 40.17 28.037 L 40.17 28.037 L 40.17 28.037 Q 40.1 27.974 40.086 27.834 L 40.086 27.834 L 40.03 27.246 L 40.03 27.246 Q 39.078 28.31 37.412 28.31 L 37.412 28.31 L 37.412 28.31 Z  M 46.89 28.31 L 46.89 28.31 Q 42.914 28.31 42.914 24.726 L 42.914 24.726 L 42.914 24.726 Q 42.914 23.676 43.32 22.871 L 43.32 22.871 L 43.32 22.871 Q 43.726 22.066 44.489 21.618 L 44.489 21.618 L 44.489 21.618 Q 45.252 21.17 46.288 21.17 L 46.288 21.17 L 46.288 21.17 Q 47.758 21.17 48.416 21.828 L 48.416 21.828 L 48.416 19.098 L 48.416 19.098 Q 48.416 18.832 48.542 18.706 L 48.542 18.706 L 48.542 18.706 Q 48.668 18.58 48.948 18.58 L 48.948 18.58 L 49.648 18.58 L 49.648 18.58 Q 49.928 18.58 50.054 18.706 L 50.054 18.706 L 50.054 18.706 Q 50.18 18.832 50.18 19.098 L 50.18 19.098 L 50.18 27.4 L 50.18 27.4 Q 49.648 27.792 48.752 28.051 L 48.752 28.051 L 48.752 28.051 Q 47.856 28.31 46.89 28.31 L 46.89 28.31 L 46.89 28.31 Z  M 46.932 27.036 L 46.932 27.036 Q 47.87 27.036 48.416 26.7 L 48.416 26.7 L 48.416 23.844 L 48.416 23.844 Q 48.416 23.158 47.94 22.808 L 47.94 22.808 L 47.94 22.808 Q 47.464 22.458 46.708 22.458 L 46.708 22.458 L 46.708 22.458 Q 45.686 22.458 45.182 23.074 L 45.182 23.074 L 45.182 23.074 Q 44.678 23.69 44.678 24.768 L 44.678 24.768 L 44.678 24.768 Q 44.678 25.972 45.238 26.504 L 45.238 26.504 L 45.238 26.504 Q 45.798 27.036 46.932 27.036 L 46.932 27.036 L 46.932 27.036 Z  M 52.532 20.218 L 52.532 20.218 Q 52.196 20.218 52.014 20.022 L 52.014 20.022 L 52.014 20.022 Q 51.832 19.826 51.832 19.546 L 51.832 19.546 L 51.832 19.252 L 51.832 19.252 Q 51.832 18.972 52.014 18.776 L 52.014 18.776 L 52.014 18.776 Q 52.196 18.58 52.532 18.58 L 52.532 18.58 L 53.134 18.58 L 53.134 18.58 Q 53.47 18.58 53.659 18.776 L 53.659 18.776 L 53.659 18.776 Q 53.848 18.972 53.848 19.252 L 53.848 19.252 L 53.848 19.546 L 53.848 19.546 Q 53.848 19.826 53.659 20.022 L 53.659 20.022 L 53.659 20.022 Q 53.47 20.218 53.134 20.218 L 53.134 20.218 L 52.532 20.218 L 52.532 20.218 Z  M 52.476 28.1 L 52.476 28.1 Q 52.196 28.1 52.07 27.974 L 52.07 27.974 L 52.07 27.974 Q 51.944 27.848 51.944 27.596 L 51.944 27.596 L 51.944 21.898 L 51.944 21.898 Q 51.944 21.632 52.07 21.506 L 52.07 21.506 L 52.07 21.506 Q 52.196 21.38 52.476 21.38 L 52.476 21.38 L 53.204 21.38 L 53.204 21.38 Q 53.484 21.38 53.61 21.506 L 53.61 21.506 L 53.61 21.506 Q 53.736 21.632 53.736 21.898 L 53.736 21.898 L 53.736 27.596 L 53.736 27.596 Q 53.736 27.848 53.617 27.974 L 53.617 27.974 L 53.617 27.974 Q 53.498 28.1 53.204 28.1 L 53.204 28.1 L 52.476 28.1 L 52.476 28.1 Z  M 59.014 28.31 L 59.014 28.31 Q 57.194 28.31 56.207 27.351 L 56.207 27.351 L 56.207 27.351 Q 55.22 26.392 55.22 24.74 L 55.22 24.74 L 55.22 24.74 Q 55.22 23.088 56.207 22.129 L 56.207 22.129 L 56.207 22.129 Q 57.194 21.17 59.014 21.17 L 59.014 21.17 L 59.014 21.17 Q 60.834 21.17 61.828 22.129 L 61.828 22.129 L 61.828 22.129 Q 62.822 23.088 62.822 24.74 L 62.822 24.74 L 62.822 24.74 Q 62.822 26.392 61.828 27.351 L 61.828 27.351 L 61.828 27.351 Q 60.834 28.31 59.014 28.31 L 59.014 28.31 L 59.014 28.31 Z  M 59.014 26.994 L 59.014 26.994 Q 60.008 26.994 60.526 26.42 L 60.526 26.42 L 60.526 26.42 Q 61.044 25.846 61.044 24.74 L 61.044 24.74 L 61.044 24.74 Q 61.044 23.648 60.526 23.081 L 60.526 23.081 L 60.526 23.081 Q 60.008 22.514 59.014 22.514 L 59.014 22.514 L 59.014 22.514 Q 58.034 22.514 57.509 23.081 L 57.509 23.081 L 57.509 23.081 Q 56.984 23.648 56.984 24.74 L 56.984 24.74 L 56.984 24.74 Q 56.984 25.832 57.509 26.413 L 57.509 26.413 L 57.509 26.413 Q 58.034 26.994 59.014 26.994 L 59.014 26.994 L 59.014 26.994 Z " fill-rule="evenodd" fill="rgb(0,0,0)"/></g><g id="Group-2"><path d=" M 16 185 L 27 169 L 41 172 L 72 169 L 98 176 L 104 192 L 98 217 L 93 220 L 82.693 226.568 L 74 220 L 58 226 L 44 226.568 L 33 220 L 18 220 L 16 208 L 18 195 L 16 189 L 16 185 Z " fill="rgb(0,0,0)" vector-effect="non-scaling-stroke" stroke-width="1" stroke="rgb(0,0,0)" stroke-linejoin="miter" stroke-linecap="square" stroke-miterlimit="3"/><path d=" M 79.068 185.792 C 78.941 185.792 78.852 185.764 78.798 185.707 C 78.744 185.65 78.717 185.565 78.717 185.451 L 78.717 179.705 C 78.717 179.585 78.744 179.497 78.798 179.44 C 78.852 179.383 78.941 179.355 79.068 179.355 L 81.538 179.355 C 82.271 179.355 82.827 179.525 83.209 179.866 C 83.591 180.207 83.782 180.712 83.782 181.381 C 83.782 181.822 83.678 182.2 83.47 182.512 C 83.261 182.824 82.958 183.059 82.561 183.217 L 83.612 185.546 C 83.631 185.584 83.64 185.619 83.64 185.65 C 83.64 185.745 83.583 185.792 83.47 185.792 L 82.693 185.792 C 82.611 185.792 82.551 185.781 82.513 185.759 C 82.476 185.737 82.441 185.691 82.409 185.622 L 81.453 183.378 L 79.929 183.378 L 79.929 185.451 C 79.929 185.565 79.902 185.65 79.849 185.707 C 79.795 185.764 79.702 185.792 79.569 185.792 L 79.068 185.792 Z  M 81.292 182.469 C 81.734 182.469 82.059 182.384 82.267 182.214 C 82.476 182.043 82.58 181.766 82.58 181.381 C 82.58 181.002 82.485 180.724 82.296 180.548 C 82.106 180.371 81.819 180.283 81.434 180.283 L 79.929 180.283 L 79.929 182.469 L 81.292 182.469 Z " fill-rule="evenodd" fill="rgb(255,255,255)"/><path d=" M 35.982 185.429 C 35.855 185.429 35.765 185.401 35.711 185.344 C 35.658 185.287 35.631 185.202 35.631 185.088 L 35.631 179.328 C 35.631 179.208 35.658 179.119 35.711 179.062 C 35.765 179.005 35.855 178.977 35.982 178.977 L 36.485 178.977 C 36.611 178.977 36.703 179.005 36.76 179.062 C 36.817 179.119 36.845 179.208 36.845 179.328 L 36.845 184.509 L 39.749 184.509 C 39.876 184.509 39.964 184.536 40.015 184.59 C 40.065 184.643 40.091 184.73 40.091 184.851 L 40.091 185.107 C 40.091 185.221 40.065 185.303 40.015 185.354 C 39.964 185.404 39.876 185.429 39.749 185.429 L 35.982 185.429 Z " fill-rule="evenodd" fill="rgb(255,255,255)"/></g></g></svg>