<?xml version="1.0" standalone="no"?><!-- Generator: Gravit.io --><svg xmlns="http://www.w3.org/2000/svg" xmlns:xlink="http://www.w3.org/1999/xlink" style="isolation:isolate" viewBox="0 0 120 380" width="120" height="380"><defs><clipPath id="_clipPath_fLyC6d8NhIY48NDFaNtuiJbqtD8N9G6l"><rect width="120" height="380"/></clipPath></defs><g clip-path="url(#_clipPath_fLyC6d8NhIY48NDFaNtuiJbqtD8N9G6l)"><g id="bg"><rect x="0" y="0" width="120" height="380" transform="matrix(1,0,0,1,0,0)" fill="rgb(240,240,240)"/><path d=" M 54.081618 369.598705 C 53.927026 369.747088 53.783257 369.850659 53.650311 369.909418 C 53.51736 369.968177 53.375138 369.997539 53.223635 369.997539 C 53.072137 369.997539 52.929914 369.969715 52.796964 369.914067 C 52.664013 369.858419 52.548073 369.781099 52.449133 369.682177 C 52.232702 369.465737 52.12449 369.209133 52.12449 368.912298 L 52.12449 363.384743 C 52.12449 363.08172 52.201784 362.846754 52.356376 362.67981 C 52.622277 362.407722 52.874258 362.271678 53.11233 362.271678 C 53.350403 362.271678 53.528179 362.296391 53.64567 362.345887 C 53.763162 362.395348 53.862097 362.457183 53.942485 362.531392 C 54.047611 362.624127 54.126452 362.723084 54.179011 362.828193 C 54.231574 362.933337 54.274857 363.010622 54.308868 363.060083 C 54.342879 363.109544 54.398531 363.134292 54.475829 363.134292 C 54.553123 363.134292 54.619598 363.109544 54.675251 363.060083 L 54.832932 362.902402 C 55.284342 362.481931 55.735744 362.271678 56.187154 362.271678 C 56.984853 362.271678 57.643406 362.599414 58.162834 363.254886 C 58.212304 363.322908 58.274139 363.356919 58.348343 363.356919 C 58.4782 363.356919 58.609604 363.256424 58.742555 363.055434 C 58.875501 362.854479 59.090381 362.673623 59.3872 362.512831 C 59.684018 362.352074 60.030298 362.271678 60.426056 362.271678 C 60.82181 362.271678 61.182006 362.344314 61.506648 362.489656 C 61.831291 362.634963 62.114193 362.83438 62.355355 363.087907 C 62.862418 363.619709 63.115945 364.262808 63.115945 365.017202 L 63.115945 368.912298 C 63.115945 369.382265 62.893335 369.713077 62.448112 369.904769 C 62.312068 369.966604 62.168303 369.997539 62.0168 369.997539 C 61.865302 369.997539 61.723075 369.969715 61.590129 369.914067 C 61.457179 369.858419 61.341238 369.781099 61.242298 369.682177 C 61.03205 369.45955 60.926932 369.202946 60.926932 368.912298 L 60.926932 365.04506 C 60.926932 364.735851 60.849634 364.503961 60.695042 364.34939 C 60.422963 364.077302 60.172525 363.941258 59.943728 363.941258 C 59.714932 363.941258 59.535609 363.970621 59.405752 364.029379 C 59.275891 364.088138 59.158403 364.170072 59.053281 364.275181 C 58.836854 364.491621 58.728638 364.742038 58.728638 365.0265 L 58.728638 368.912298 C 58.728638 369.382265 58.509122 369.713077 58.070081 369.904769 C 57.934037 369.966604 57.790268 369.997539 57.63877 369.997539 C 57.487267 369.997539 57.343502 369.969715 57.207458 369.914067 C 57.071419 369.858419 56.953931 369.781099 56.854992 369.682177 C 56.638561 369.465737 56.530349 369.209133 56.530349 368.912298 L 56.530349 365.04506 C 56.530349 364.735851 56.453051 364.503961 56.298459 364.34939 C 56.02638 364.077302 55.741935 363.941258 55.445117 363.941258 C 54.950419 363.941258 54.607233 364.13295 54.415537 364.516335 C 54.353701 364.640005 54.32278 364.779159 54.32278 364.93373 L 54.32278 368.912298 C 54.32278 369.21532 54.242397 369.4441 54.081618 369.598705 Z  M 65.342682 363.387204 C 65.342682 363.084216 65.419976 362.849215 65.574568 362.682271 C 65.840469 362.410183 66.13419 362.274139 66.455739 362.274139 C 66.764923 362.274139 66.993719 362.354535 67.142128 362.515292 C 67.414208 362.793567 67.550252 363.084216 67.550252 363.387204 L 67.550252 368.914793 C 67.550252 369.211595 67.472958 369.437298 67.318362 369.591902 C 67.046282 369.863956 66.79584 370 66.567044 370 C 66.338247 370 66.155835 369.970638 66.019791 369.911879 C 65.883752 369.853155 65.766264 369.777407 65.667325 369.684638 C 65.450893 369.474385 65.342682 369.217781 65.342682 368.914793 L 65.342682 363.387204 Z  M 66.450791 359.899625 C 66.188513 359.899625 65.975889 359.687013 65.975889 359.424702 C 65.975889 359.162424 66.188513 358.949812 66.450791 358.949812 C 66.713077 358.949812 66.925697 359.162424 66.925697 359.424702 C 66.925697 359.687013 66.713077 359.899625 66.450791 359.899625 Z  M 66.450791 358 C 66.837756 358 67.171943 358.141752 67.453372 358.425291 C 67.7348 358.70883 67.87551 358.99589 67.87551 359.286504 C 67.87551 359.577119 67.836816 359.80747 67.759419 359.977594 C 67.682031 360.147717 67.580016 360.296545 67.453372 360.424146 C 67.171943 360.707685 66.837756 360.849437 66.450791 360.849437 C 66.063835 360.849437 65.729643 360.707685 65.448219 360.424146 C 65.166791 360.140607 65.026081 359.857103 65.026081 359.573564 C 65.026081 359.091565 65.166791 358.70883 65.448219 358.425291 C 65.729643 358.141752 66.063835 358 66.450791 358 Z " fill-rule="evenodd" fill="rgb(10,118,187)"/><g id="stripes"><path d=" M -180 305 L 120 20 L 120 40 L -180 325 L -180 305 Z " fill="rgb(116,127,134)" fill-opacity="0.05"/><path d=" M -180 345 L 120 60 L 120 80 L -180 365 L -180 345 Z " fill="rgb(116,127,134)" fill-opacity="0.05"/><path d=" M -180 385 L 120 100 L 120 120 L -180 405 L -180 385 Z " fill="rgb(116,127,134)" fill-opacity="0.05"/></g><path d=" M 74.071 28.31 L 74.071 28.31 Q 71.691 28.31 70.438 27.008 L 70.438 27.008 L 70.438 27.008 Q 69.185 25.706 69.185 23.34 L 69.185 23.34 L 69.185 23.34 Q 69.185 20.974 70.438 19.672 L 70.438 19.672 L 70.438 19.672 Q 71.691 18.37 74.071 18.37 L 74.071 18.37 L 74.071 18.37 Q 76.437 18.37 77.69 19.672 L 77.69 19.672 L 77.69 19.672 Q 78.943 20.974 78.943 23.34 L 78.943 23.34 L 78.943 23.34 Q 78.943 25.706 77.69 27.008 L 77.69 27.008 L 77.69 27.008 Q 76.437 28.31 74.071 28.31 L 74.071 28.31 L 74.071 28.31 Z  M 74.071 26.644 L 74.071 26.644 Q 75.345 26.644 75.996 25.811 L 75.996 25.811 L 75.996 25.811 Q 76.647 24.978 76.647 23.34 L 76.647 23.34 L 76.647 23.34 Q 76.647 21.702 75.996 20.869 L 75.996 20.869 L 75.996 20.869 Q 75.345 20.036 74.071 20.036 L 74.071 20.036 L 74.071 20.036 Q 72.783 20.036 72.132 20.869 L 72.132 20.869 L 72.132 20.869 Q 71.481 21.702 71.481 23.34 L 71.481 23.34 L 71.481 23.34 Q 71.481 24.978 72.132 25.811 L 72.132 25.811 L 72.132 25.811 Q 72.783 26.644 74.071 26.644 L 74.071 26.644 L 74.071 26.644 Z  M 82.555 28.31 L 82.555 28.31 Q 81.407 28.31 80.714 27.666 L 80.714 27.666 L 80.714 27.666 Q 80.021 27.022 80.021 25.748 L 80.021 25.748 L 80.021 21.996 L 80.021 21.996 Q 80.021 21.688 80.168 21.534 L 80.168 21.534 L 80.168 21.534 Q 80.315 21.38 80.651 21.38 L 80.651 21.38 L 81.701 21.38 L 81.701 21.38 Q 82.051 21.38 82.191 21.527 L 82.191 21.527 L 82.191 21.527 Q 82.331 21.674 82.331 21.996 L 82.331 21.996 L 82.331 25.664 L 82.331 25.664 Q 82.331 26.21 82.604 26.462 L 82.604 26.462 L 82.604 26.462 Q 82.877 26.714 83.409 26.714 L 83.409 26.714 L 83.409 26.714 Q 83.983 26.714 84.34 26.406 L 84.34 26.406 L 84.34 26.406 Q 84.697 26.098 84.697 25.566 L 84.697 25.566 L 84.697 21.996 L 84.697 21.996 Q 84.697 21.688 84.844 21.534 L 84.844 21.534 L 84.844 21.534 Q 84.991 21.38 85.341 21.38 L 85.341 21.38 L 86.377 21.38 L 86.377 21.38 Q 86.727 21.38 86.874 21.534 L 86.874 21.534 L 86.874 21.534 Q 87.021 21.688 87.021 21.996 L 87.021 21.996 L 87.021 27.694 L 87.021 27.694 Q 87.021 27.932 86.937 28.016 L 86.937 28.016 L 86.937 28.016 Q 86.853 28.1 86.601 28.1 L 86.601 28.1 L 85.481 28.1 L 85.481 28.1 Q 85.159 28.1 85.145 27.862 L 85.145 27.862 L 85.089 27.344 L 85.089 27.344 Q 84.165 28.31 82.555 28.31 L 82.555 28.31 L 82.555 28.31 Z  M 91.739 28.31 L 91.739 28.31 Q 90.465 28.31 89.807 27.61 L 89.807 27.61 L 89.807 27.61 Q 89.149 26.91 89.149 25.678 L 89.149 25.678 L 89.149 23.004 L 88.463 23.004 L 88.463 23.004 Q 88.127 23.004 88.015 22.878 L 88.015 22.878 L 88.015 22.878 Q 87.903 22.752 87.903 22.43 L 87.903 22.43 L 87.903 21.968 L 87.903 21.968 Q 87.903 21.646 88.015 21.513 L 88.015 21.513 L 88.015 21.513 Q 88.127 21.38 88.463 21.38 L 88.463 21.38 L 89.149 21.38 L 89.149 20.82 L 89.149 20.82 Q 89.149 20.512 89.282 20.211 L 89.282 20.211 L 89.282 20.211 Q 89.415 19.91 89.667 19.462 L 89.667 19.462 L 89.667 19.462 Q 89.779 19.266 89.877 19.203 L 89.877 19.203 L 89.877 19.203 Q 89.975 19.14 90.227 19.14 L 90.227 19.14 L 90.871 19.14 L 90.871 19.14 Q 91.193 19.14 91.326 19.28 L 91.326 19.28 L 91.326 19.28 Q 91.459 19.42 91.459 19.728 L 91.459 19.728 L 91.459 21.38 L 92.845 21.38 L 92.845 21.38 Q 93.181 21.38 93.293 21.513 L 93.293 21.513 L 93.293 21.513 Q 93.405 21.646 93.405 21.968 L 93.405 21.968 L 93.405 22.43 L 93.405 22.43 Q 93.405 22.752 93.293 22.878 L 93.293 22.878 L 93.293 22.878 Q 93.181 23.004 92.845 23.004 L 92.845 23.004 L 91.459 23.004 L 91.459 25.622 L 91.459 25.622 Q 91.459 26.168 91.655 26.406 L 91.655 26.406 L 91.655 26.406 Q 91.851 26.644 92.313 26.644 L 92.313 26.644 L 92.313 26.644 Q 92.593 26.644 92.782 26.574 L 92.782 26.574 L 92.782 26.574 Q 92.971 26.504 93.209 26.35 L 93.209 26.35 L 93.209 26.35 Q 93.321 26.28 93.377 26.28 L 93.377 26.28 L 93.377 26.28 Q 93.503 26.28 93.587 26.434 L 93.587 26.434 L 94.105 27.316 L 94.105 27.316 Q 94.175 27.428 94.175 27.498 L 94.175 27.498 L 94.175 27.498 Q 94.175 27.596 94.007 27.708 L 94.007 27.708 L 94.007 27.708 Q 93.125 28.31 91.739 28.31 L 91.739 28.31 L 91.739 28.31 Z  M 24.357 28.1 L 24.357 28.1 Q 24.105 28.1 24.105 27.862 L 24.105 27.862 L 24.105 27.862 Q 24.105 27.764 24.147 27.638 L 24.147 27.638 L 27.773 19 L 27.773 19 Q 27.871 18.762 27.99 18.671 L 27.99 18.671 L 27.99 18.671 Q 28.109 18.58 28.333 18.58 L 28.333 18.58 L 29.355 18.58 L 29.355 18.58 Q 29.579 18.58 29.691 18.671 L 29.691 18.671 L 29.691 18.671 Q 29.803 18.762 29.901 19 L 29.901 19 L 33.527 27.638 L 33.527 27.638 Q 33.569 27.764 33.569 27.862 L 33.569 27.862 L 33.569 27.862 Q 33.569 28.1 33.317 28.1 L 33.317 28.1 L 31.623 28.1 L 31.623 28.1 Q 31.427 28.1 31.336 28.037 L 31.336 28.037 L 31.336 28.037 Q 31.245 27.974 31.175 27.806 L 31.175 27.806 L 30.531 26.154 L 27.129 26.154 L 26.499 27.806 L 26.499 27.806 Q 26.429 27.974 26.338 28.037 L 26.338 28.037 L 26.338 28.037 Q 26.247 28.1 26.051 28.1 L 26.051 28.1 L 24.357 28.1 L 24.357 28.1 Z  M 27.661 24.544 L 29.999 24.544 L 28.837 21.52 L 27.661 24.544 L 27.661 24.544 Z  M 37.195 28.31 L 37.195 28.31 Q 36.047 28.31 35.354 27.666 L 35.354 27.666 L 35.354 27.666 Q 34.661 27.022 34.661 25.748 L 34.661 25.748 L 34.661 21.996 L 34.661 21.996 Q 34.661 21.688 34.808 21.534 L 34.808 21.534 L 34.808 21.534 Q 34.955 21.38 35.291 21.38 L 35.291 21.38 L 36.341 21.38 L 36.341 21.38 Q 36.691 21.38 36.831 21.527 L 36.831 21.527 L 36.831 21.527 Q 36.971 21.674 36.971 21.996 L 36.971 21.996 L 36.971 25.664 L 36.971 25.664 Q 36.971 26.21 37.244 26.462 L 37.244 26.462 L 37.244 26.462 Q 37.517 26.714 38.049 26.714 L 38.049 26.714 L 38.049 26.714 Q 38.623 26.714 38.98 26.406 L 38.98 26.406 L 38.98 26.406 Q 39.337 26.098 39.337 25.566 L 39.337 25.566 L 39.337 21.996 L 39.337 21.996 Q 39.337 21.688 39.484 21.534 L 39.484 21.534 L 39.484 21.534 Q 39.631 21.38 39.981 21.38 L 39.981 21.38 L 41.017 21.38 L 41.017 21.38 Q 41.367 21.38 41.514 21.534 L 41.514 21.534 L 41.514 21.534 Q 41.661 21.688 41.661 21.996 L 41.661 21.996 L 41.661 27.694 L 41.661 27.694 Q 41.661 27.932 41.577 28.016 L 41.577 28.016 L 41.577 28.016 Q 41.493 28.1 41.241 28.1 L 41.241 28.1 L 40.121 28.1 L 40.121 28.1 Q 39.799 28.1 39.785 27.862 L 39.785 27.862 L 39.729 27.344 L 39.729 27.344 Q 38.805 28.31 37.195 28.31 L 37.195 28.31 L 37.195 28.31 Z  M 46.897 28.31 L 46.897 28.31 Q 42.809 28.31 42.809 24.712 L 42.809 24.712 L 42.809 24.712 Q 42.809 23.662 43.208 22.857 L 43.208 22.857 L 43.208 22.857 Q 43.607 22.052 44.377 21.611 L 44.377 21.611 L 44.377 21.611 Q 45.147 21.17 46.211 21.17 L 46.211 21.17 L 46.211 21.17 Q 46.813 21.17 47.296 21.303 L 47.296 21.303 L 47.296 21.303 Q 47.779 21.436 48.073 21.688 L 48.073 21.688 L 48.073 19.196 L 48.073 19.196 Q 48.073 18.874 48.213 18.727 L 48.213 18.727 L 48.213 18.727 Q 48.353 18.58 48.703 18.58 L 48.703 18.58 L 49.711 18.58 L 49.711 18.58 Q 50.047 18.58 50.194 18.734 L 50.194 18.734 L 50.194 18.734 Q 50.341 18.888 50.341 19.196 L 50.341 19.196 L 50.341 27.358 L 50.341 27.358 Q 49.767 27.778 48.843 28.044 L 48.843 28.044 L 48.843 28.044 Q 47.919 28.31 46.897 28.31 L 46.897 28.31 L 46.897 28.31 Z  M 46.953 26.714 L 46.953 26.714 Q 47.639 26.714 48.073 26.476 L 48.073 26.476 L 48.073 23.914 L 48.073 23.914 Q 48.073 23.34 47.709 23.053 L 47.709 23.053 L 47.709 23.053 Q 47.345 22.766 46.729 22.766 L 46.729 22.766 L 46.729 22.766 Q 45.903 22.766 45.504 23.291 L 45.504 23.291 L 45.504 23.291 Q 45.105 23.816 45.105 24.74 L 45.105 24.74 L 45.105 24.74 Q 45.105 25.804 45.567 26.259 L 45.567 26.259 L 45.567 26.259 Q 46.029 26.714 46.953 26.714 L 46.953 26.714 L 46.953 26.714 Z  M 52.609 20.442 L 52.609 20.442 Q 52.217 20.442 51.993 20.218 L 51.993 20.218 L 51.993 20.218 Q 51.769 19.994 51.769 19.672 L 51.769 19.672 L 51.769 19.35 L 51.769 19.35 Q 51.769 19.028 51.993 18.804 L 51.993 18.804 L 51.993 18.804 Q 52.217 18.58 52.609 18.58 L 52.609 18.58 L 53.421 18.58 L 53.421 18.58 Q 53.827 18.58 54.051 18.804 L 54.051 18.804 L 54.051 18.804 Q 54.275 19.028 54.275 19.35 L 54.275 19.35 L 54.275 19.672 L 54.275 19.672 Q 54.275 19.994 54.051 20.218 L 54.051 20.218 L 54.051 20.218 Q 53.827 20.442 53.421 20.442 L 53.421 20.442 L 52.609 20.442 L 52.609 20.442 Z  M 52.497 28.1 L 52.497 28.1 Q 52.147 28.1 52.007 27.953 L 52.007 27.953 L 52.007 27.953 Q 51.867 27.806 51.867 27.498 L 51.867 27.498 L 51.867 21.996 L 51.867 21.996 Q 51.867 21.674 52.007 21.527 L 52.007 21.527 L 52.007 21.527 Q 52.147 21.38 52.497 21.38 L 52.497 21.38 L 53.533 21.38 L 53.533 21.38 Q 53.883 21.38 54.03 21.534 L 54.03 21.534 L 54.03 21.534 Q 54.177 21.688 54.177 21.996 L 54.177 21.996 L 54.177 27.498 L 54.177 27.498 Q 54.177 27.806 54.03 27.953 L 54.03 27.953 L 54.03 27.953 Q 53.883 28.1 53.533 28.1 L 53.533 28.1 L 52.497 28.1 L 52.497 28.1 Z  M 59.343 28.31 L 59.343 28.31 Q 57.481 28.31 56.452 27.351 L 56.452 27.351 L 56.452 27.351 Q 55.423 26.392 55.423 24.74 L 55.423 24.74 L 55.423 24.74 Q 55.423 23.088 56.452 22.129 L 56.452 22.129 L 56.452 22.129 Q 57.481 21.17 59.343 21.17 L 59.343 21.17 L 59.343 21.17 Q 61.219 21.17 62.248 22.129 L 62.248 22.129 L 62.248 22.129 Q 63.277 23.088 63.277 24.74 L 63.277 24.74 L 63.277 24.74 Q 63.277 26.392 62.248 27.351 L 62.248 27.351 L 62.248 27.351 Q 61.219 28.31 59.343 28.31 L 59.343 28.31 L 59.343 28.31 Z  M 59.343 26.644 L 59.343 26.644 Q 60.141 26.644 60.561 26.168 L 60.561 26.168 L 60.561 26.168 Q 60.981 25.692 60.981 24.74 L 60.981 24.74 L 60.981 24.74 Q 60.981 23.802 60.561 23.326 L 60.561 23.326 L 60.561 23.326 Q 60.141 22.85 59.343 22.85 L 59.343 22.85 L 59.343 22.85 Q 58.559 22.85 58.139 23.326 L 58.139 23.326 L 58.139 23.326 Q 57.719 23.802 57.719 24.74 L 57.719 24.74 L 57.719 24.74 Q 57.719 25.678 58.139 26.161 L 58.139 26.161 L 58.139 26.161 Q 58.559 26.644 59.343 26.644 L 59.343 26.644 L 59.343 26.644 Z " fill-rule="evenodd" fill="rgb(23,34,41)"/></g><g id="Group-2"><path d=" M 16 185 L 27 169 L 41 172 L 72 169 L 98 176 L 104 192 L 98 217 L 93 220 L 82.693359 226.567688 L 74 220 L 58 226 L 44 226.567688 L 33 220 L 18 220 L 16 208 L 18 195 L 16 189 L 16 185 Z " fill="rgb(23,34,41)" vector-effect="non-scaling-stroke" stroke-width="1" stroke="rgb(0,0,0)" stroke-linejoin="miter" stroke-linecap="square" stroke-miterlimit="3"/><path d=" M 79.067695 185.792057 C 78.941475 185.792057 78.851544 185.763658 78.797903 185.706858 C 78.744261 185.65006 78.717437 185.564862 78.717437 185.451264 L 78.717437 179.70511 C 78.717437 179.585201 78.744261 179.496848 78.797903 179.440048 C 78.851544 179.38325 78.941475 179.35485 79.067695 179.35485 L 81.538451 179.35485 C 82.270527 179.35485 82.827463 179.525246 83.209281 179.86604 C 83.591099 180.206835 83.782005 180.71171 83.782005 181.380677 C 83.782005 181.822449 83.677872 182.199526 83.469608 182.511922 C 83.261343 182.824317 82.958419 183.059399 82.560828 183.217175 L 83.611608 185.545928 C 83.630539 185.583795 83.640004 185.618505 83.640004 185.65006 C 83.640004 185.744725 83.583205 185.792057 83.469608 185.792057 L 82.693356 185.792057 C 82.611319 185.792057 82.551363 185.781013 82.513495 185.758924 C 82.475626 185.736836 82.440923 185.691082 82.409362 185.62166 L 81.453249 183.378105 L 79.929148 183.378105 L 79.929148 185.451264 C 79.929148 185.564862 79.902324 185.65006 79.848683 185.706858 C 79.795034 185.763658 79.701953 185.792057 79.569418 185.792057 L 79.067695 185.792057 Z  M 81.292318 182.469322 C 81.734092 182.469322 82.059105 182.384125 82.267369 182.213728 C 82.475634 182.04333 82.579759 181.765649 82.579759 181.380677 C 82.579759 181.002016 82.485099 180.724335 82.295765 180.547627 C 82.106438 180.370918 81.819287 180.282565 81.434318 180.282565 L 79.929148 180.282565 L 79.929148 182.469322 L 81.292318 182.469322 Z " fill-rule="evenodd" fill="rgb(255,255,255)"/><path d=" M 35.981918 185.429441 C 35.855397 185.429441 35.765252 185.400974 35.711481 185.34404 C 35.65771 185.287105 35.630824 185.201705 35.630824 185.087837 L 35.630824 179.327997 C 35.630824 179.207803 35.65771 179.119239 35.711481 179.062304 C 35.765252 179.00537 35.855397 178.976903 35.981918 178.976903 L 36.484836 178.976903 C 36.611358 178.976903 36.703083 179.00537 36.760019 179.062304 C 36.816953 179.119239 36.845419 179.207803 36.845419 179.327997 L 36.845419 184.509005 L 39.749061 184.509005 C 39.875582 184.509005 39.964147 184.535891 40.014755 184.589663 C 40.065363 184.643434 40.090666 184.730416 40.090666 184.85061 L 40.090666 185.106814 C 40.090666 185.220684 40.065363 185.302921 40.014755 185.353529 C 39.964147 185.404138 39.875582 185.429441 39.749061 185.429441 L 35.981918 185.429441 Z " fill-rule="evenodd" fill="rgb(255,255,255)"/></g></g></svg>