<?xml version="1.0" standalone="no"?><!-- Generator: Gravit.io --><svg xmlns="http://www.w3.org/2000/svg" xmlns:xlink="http://www.w3.org/1999/xlink" style="isolation:isolate" viewBox="0 0 150 380" width="150" height="380"><defs><clipPath id="_clipPath_Atry96VZtxB4nILMBk9AGPMGzlT24R1j"><rect width="150" height="380"/></clipPath></defs><g clip-path="url(#_clipPath_Atry96VZtxB4nILMBk9AGPMGzlT24R1j)"><g id="bg"><rect x="0" y="0" width="150" height="380" transform="matrix(1,0,0,1,0,0)" fill="rgb(240,240,240)"/><path d=" M 69.082 369.599 C 68.927 369.747 68.783 369.851 68.65 369.909 C 68.517 369.968 68.375 369.998 68.224 369.998 C 68.072 369.998 67.93 369.97 67.797 369.914 C 67.664 369.858 67.548 369.781 67.449 369.682 C 67.233 369.466 67.124 369.209 67.124 368.912 L 67.124 363.385 C 67.124 363.082 67.202 362.847 67.356 362.68 C 67.622 362.408 67.874 362.272 68.112 362.272 C 68.35 362.272 68.528 362.296 68.646 362.346 C 68.763 362.395 68.862 362.457 68.942 362.531 C 69.048 362.624 69.126 362.723 69.179 362.828 C 69.232 362.933 69.275 363.011 69.309 363.06 C 69.343 363.11 69.399 363.134 69.476 363.134 C 69.553 363.134 69.62 363.11 69.675 363.06 L 69.833 362.902 C 70.284 362.482 70.736 362.272 71.187 362.272 C 71.985 362.272 72.643 362.599 73.163 363.255 C 73.212 363.323 73.274 363.357 73.348 363.357 C 73.478 363.357 73.61 363.256 73.743 363.055 C 73.876 362.854 74.09 362.674 74.387 362.513 C 74.684 362.352 75.03 362.272 75.426 362.272 C 75.822 362.272 76.182 362.344 76.507 362.49 C 76.831 362.635 77.114 362.834 77.355 363.088 C 77.862 363.62 78.116 364.263 78.116 365.017 L 78.116 368.912 C 78.116 369.382 77.893 369.713 77.448 369.905 C 77.312 369.967 77.168 369.998 77.017 369.998 C 76.865 369.998 76.723 369.97 76.59 369.914 C 76.457 369.858 76.341 369.781 76.242 369.682 C 76.032 369.46 75.927 369.203 75.927 368.912 L 75.927 365.045 C 75.927 364.736 75.85 364.504 75.695 364.349 C 75.423 364.077 75.173 363.941 74.944 363.941 C 74.715 363.941 74.536 363.971 74.406 364.029 C 74.276 364.088 74.158 364.17 74.053 364.275 C 73.837 364.492 73.729 364.742 73.729 365.026 L 73.729 368.912 C 73.729 369.382 73.509 369.713 73.07 369.905 C 72.934 369.967 72.79 369.998 72.639 369.998 C 72.487 369.998 72.344 369.97 72.207 369.914 C 72.071 369.858 71.954 369.781 71.855 369.682 C 71.639 369.466 71.53 369.209 71.53 368.912 L 71.53 365.045 C 71.53 364.736 71.453 364.504 71.298 364.349 C 71.026 364.077 70.742 363.941 70.445 363.941 C 69.95 363.941 69.607 364.133 69.416 364.516 C 69.354 364.64 69.323 364.779 69.323 364.934 L 69.323 368.912 C 69.323 369.215 69.242 369.444 69.082 369.599 Z  M 80.343 363.387 C 80.343 363.084 80.42 362.849 80.575 362.682 C 80.84 362.41 81.134 362.274 81.456 362.274 C 81.765 362.274 81.994 362.355 82.142 362.515 C 82.414 362.794 82.55 363.084 82.55 363.387 L 82.55 368.915 C 82.55 369.212 82.473 369.437 82.318 369.592 C 82.046 369.864 81.796 370 81.567 370 C 81.338 370 81.156 369.971 81.02 369.912 C 80.884 369.853 80.766 369.777 80.667 369.685 C 80.451 369.474 80.343 369.218 80.343 368.915 L 80.343 363.387 Z  M 81.451 359.9 C 81.189 359.9 80.976 359.687 80.976 359.425 C 80.976 359.162 81.189 358.95 81.451 358.95 C 81.713 358.95 81.926 359.162 81.926 359.425 C 81.926 359.687 81.713 359.9 81.451 359.9 Z  M 81.451 358 C 81.838 358 82.172 358.142 82.453 358.425 C 82.735 358.709 82.876 358.996 82.876 359.287 C 82.876 359.577 82.837 359.807 82.759 359.978 C 82.682 360.148 82.58 360.297 82.453 360.424 C 82.172 360.708 81.838 360.849 81.451 360.849 C 81.064 360.849 80.73 360.708 80.448 360.424 C 80.167 360.141 80.026 359.857 80.026 359.574 C 80.026 359.092 80.167 358.709 80.448 358.425 C 80.73 358.142 81.064 358 81.451 358 Z " fill-rule="evenodd" fill="rgb(10,118,187)"/><path d=" M 0 174 L 150 60 L 150 80 L 0 194 L 0 174 Z  M 0 214 L 150 100 L 150 120 L 0 234 L 0 214 Z  M 0 134 L 150 20 L 150 40 L 0 154 L 0 134 Z " fill-rule="evenodd" fill="rgb(0,0,0)" fill-opacity="0.02"/><path d=" M 91.328 25.64 L 91.328 25.64 Q 88.688 25.64 87.272 24.152 L 87.272 24.152 L 87.272 24.152 Q 85.856 22.664 85.856 19.96 L 85.856 19.96 L 85.856 19.96 Q 85.856 17.256 87.272 15.768 L 87.272 15.768 L 87.272 15.768 Q 88.688 14.28 91.328 14.28 L 91.328 14.28 L 91.328 14.28 Q 93.952 14.28 95.376 15.768 L 95.376 15.768 L 95.376 15.768 Q 96.8 17.256 96.8 19.96 L 96.8 19.96 L 96.8 19.96 Q 96.8 22.664 95.376 24.152 L 95.376 24.152 L 95.376 24.152 Q 93.952 25.64 91.328 25.64 L 91.328 25.64 L 91.328 25.64 Z  M 91.328 24.136 L 91.328 24.136 Q 93.008 24.136 93.888 23.072 L 93.888 23.072 L 93.888 23.072 Q 94.768 22.008 94.768 19.96 L 94.768 19.96 L 94.768 19.96 Q 94.768 17.912 93.888 16.856 L 93.888 16.856 L 93.888 16.856 Q 93.008 15.8 91.328 15.8 L 91.328 15.8 L 91.328 15.8 Q 89.648 15.8 88.76 16.856 L 88.76 16.856 L 88.76 16.856 Q 87.872 17.912 87.872 19.96 L 87.872 19.96 L 87.872 19.96 Q 87.872 22.008 88.76 23.072 L 88.76 23.072 L 88.76 23.072 Q 89.648 24.136 91.328 24.136 L 91.328 24.136 L 91.328 24.136 Z  M 101.2 25.64 L 101.2 25.64 Q 99.888 25.64 99.088 24.912 L 99.088 24.912 L 99.088 24.912 Q 98.288 24.184 98.288 22.744 L 98.288 22.744 L 98.288 18.312 L 98.288 18.312 Q 98.288 18.008 98.424 17.864 L 98.424 17.864 L 98.424 17.864 Q 98.56 17.72 98.88 17.72 L 98.88 17.72 L 99.728 17.72 L 99.728 17.72 Q 100.048 17.72 100.192 17.864 L 100.192 17.864 L 100.192 17.864 Q 100.336 18.008 100.336 18.312 L 100.336 18.312 L 100.336 22.696 L 100.336 22.696 Q 100.336 23.464 100.736 23.824 L 100.736 23.824 L 100.736 23.824 Q 101.136 24.184 101.92 24.184 L 101.92 24.184 L 101.92 24.184 Q 102.752 24.184 103.312 23.72 L 103.312 23.72 L 103.312 23.72 Q 103.872 23.256 103.872 22.52 L 103.872 22.52 L 103.872 18.312 L 103.872 18.312 Q 103.872 18.008 104.016 17.864 L 104.016 17.864 L 104.016 17.864 Q 104.16 17.72 104.48 17.72 L 104.48 17.72 L 105.312 17.72 L 105.312 17.72 Q 105.632 17.72 105.776 17.864 L 105.776 17.864 L 105.776 17.864 Q 105.92 18.008 105.92 18.312 L 105.92 18.312 L 105.92 24.968 L 105.92 24.968 Q 105.92 25.224 105.84 25.312 L 105.84 25.312 L 105.84 25.312 Q 105.76 25.4 105.504 25.4 L 105.504 25.4 L 104.608 25.4 L 104.608 25.4 Q 104.432 25.4 104.352 25.328 L 104.352 25.328 L 104.352 25.328 Q 104.272 25.256 104.256 25.096 L 104.256 25.096 L 104.192 24.424 L 104.192 24.424 Q 103.104 25.64 101.2 25.64 L 101.2 25.64 L 101.2 25.64 Z  M 111.344 25.64 L 111.344 25.64 Q 109.984 25.64 109.296 24.888 L 109.296 24.888 L 109.296 24.888 Q 108.608 24.136 108.608 22.808 L 108.608 22.808 L 108.608 19.224 L 107.696 19.224 L 107.696 19.224 Q 107.376 19.224 107.272 19.112 L 107.272 19.112 L 107.272 19.112 Q 107.168 19 107.168 18.696 L 107.168 18.696 L 107.168 18.264 L 107.168 18.264 Q 107.168 17.96 107.272 17.84 L 107.272 17.84 L 107.272 17.84 Q 107.376 17.72 107.696 17.72 L 107.696 17.72 L 108.608 17.72 L 108.608 16.84 L 108.608 16.84 Q 108.608 16.504 108.728 16.208 L 108.728 16.208 L 108.728 16.208 Q 108.848 15.912 109.104 15.464 L 109.104 15.464 L 109.104 15.464 Q 109.2 15.272 109.288 15.216 L 109.288 15.216 L 109.288 15.216 Q 109.376 15.16 109.6 15.16 L 109.6 15.16 L 110.128 15.16 L 110.128 15.16 Q 110.416 15.16 110.536 15.296 L 110.536 15.296 L 110.536 15.296 Q 110.656 15.432 110.656 15.704 L 110.656 15.704 L 110.656 17.72 L 112.544 17.72 L 112.544 17.72 Q 112.864 17.72 112.968 17.84 L 112.968 17.84 L 112.968 17.84 Q 113.072 17.96 113.072 18.264 L 113.072 18.264 L 113.072 18.696 L 113.072 18.696 Q 113.072 19 112.968 19.112 L 112.968 19.112 L 112.968 19.112 Q 112.864 19.224 112.544 19.224 L 112.544 19.224 L 110.656 19.224 L 110.656 22.744 L 110.656 22.744 Q 110.656 23.48 110.912 23.808 L 110.912 23.808 L 110.912 23.808 Q 111.168 24.136 111.792 24.136 L 111.792 24.136 L 111.792 24.136 Q 112.16 24.136 112.416 24.048 L 112.416 24.048 L 112.416 24.048 Q 112.672 23.96 112.976 23.752 L 112.976 23.752 L 112.976 23.752 Q 113.056 23.688 113.152 23.688 L 113.152 23.688 L 113.152 23.688 Q 113.248 23.688 113.344 23.832 L 113.344 23.832 L 113.808 24.6 L 113.808 24.6 Q 113.872 24.68 113.872 24.776 L 113.872 24.776 L 113.872 24.776 Q 113.872 24.888 113.712 25 L 113.712 25 L 113.712 25 Q 112.72 25.64 111.344 25.64 L 111.344 25.64 L 111.344 25.64 Z  M 34.72 25.4 L 34.72 25.4 Q 34.448 25.4 34.448 25.16 L 34.448 25.16 L 34.448 25.16 Q 34.448 25.064 34.496 24.952 L 34.496 24.952 L 38.72 14.936 L 38.72 14.936 Q 38.816 14.696 38.928 14.608 L 38.928 14.608 L 38.928 14.608 Q 39.04 14.52 39.248 14.52 L 39.248 14.52 L 40.128 14.52 L 40.128 14.52 Q 40.352 14.52 40.456 14.608 L 40.456 14.608 L 40.456 14.608 Q 40.56 14.696 40.656 14.936 L 40.656 14.936 L 44.88 24.952 L 44.88 24.952 Q 44.928 25.064 44.928 25.16 L 44.928 25.16 L 44.928 25.16 Q 44.928 25.4 44.656 25.4 L 44.656 25.4 L 43.264 25.4 L 43.264 25.4 Q 43.056 25.4 42.968 25.344 L 42.968 25.344 L 42.968 25.344 Q 42.88 25.288 42.8 25.112 L 42.8 25.112 L 41.888 22.872 L 37.472 22.872 L 36.576 25.112 L 36.576 25.112 Q 36.496 25.288 36.408 25.344 L 36.408 25.344 L 36.408 25.344 Q 36.32 25.4 36.112 25.4 L 36.112 25.4 L 34.72 25.4 L 34.72 25.4 Z  M 37.984 21.384 L 41.376 21.384 L 39.68 17.192 L 37.984 21.384 L 37.984 21.384 Z  M 49.328 25.64 L 49.328 25.64 Q 48.016 25.64 47.216 24.912 L 47.216 24.912 L 47.216 24.912 Q 46.416 24.184 46.416 22.744 L 46.416 22.744 L 46.416 18.312 L 46.416 18.312 Q 46.416 18.008 46.552 17.864 L 46.552 17.864 L 46.552 17.864 Q 46.688 17.72 47.008 17.72 L 47.008 17.72 L 47.856 17.72 L 47.856 17.72 Q 48.176 17.72 48.32 17.864 L 48.32 17.864 L 48.32 17.864 Q 48.464 18.008 48.464 18.312 L 48.464 18.312 L 48.464 22.696 L 48.464 22.696 Q 48.464 23.464 48.864 23.824 L 48.864 23.824 L 48.864 23.824 Q 49.264 24.184 50.048 24.184 L 50.048 24.184 L 50.048 24.184 Q 50.88 24.184 51.44 23.72 L 51.44 23.72 L 51.44 23.72 Q 52 23.256 52 22.52 L 52 22.52 L 52 18.312 L 52 18.312 Q 52 18.008 52.144 17.864 L 52.144 17.864 L 52.144 17.864 Q 52.288 17.72 52.608 17.72 L 52.608 17.72 L 53.44 17.72 L 53.44 17.72 Q 53.76 17.72 53.904 17.864 L 53.904 17.864 L 53.904 17.864 Q 54.048 18.008 54.048 18.312 L 54.048 18.312 L 54.048 24.968 L 54.048 24.968 Q 54.048 25.224 53.968 25.312 L 53.968 25.312 L 53.968 25.312 Q 53.888 25.4 53.632 25.4 L 53.632 25.4 L 52.736 25.4 L 52.736 25.4 Q 52.56 25.4 52.48 25.328 L 52.48 25.328 L 52.48 25.328 Q 52.4 25.256 52.384 25.096 L 52.384 25.096 L 52.32 24.424 L 52.32 24.424 Q 51.232 25.64 49.328 25.64 L 49.328 25.64 L 49.328 25.64 Z  M 60.16 25.64 L 60.16 25.64 Q 55.616 25.64 55.616 21.544 L 55.616 21.544 L 55.616 21.544 Q 55.616 20.344 56.08 19.424 L 56.08 19.424 L 56.08 19.424 Q 56.544 18.504 57.416 17.992 L 57.416 17.992 L 57.416 17.992 Q 58.288 17.48 59.472 17.48 L 59.472 17.48 L 59.472 17.48 Q 61.152 17.48 61.904 18.232 L 61.904 18.232 L 61.904 15.112 L 61.904 15.112 Q 61.904 14.808 62.048 14.664 L 62.048 14.664 L 62.048 14.664 Q 62.192 14.52 62.512 14.52 L 62.512 14.52 L 63.312 14.52 L 63.312 14.52 Q 63.632 14.52 63.776 14.664 L 63.776 14.664 L 63.776 14.664 Q 63.92 14.808 63.92 15.112 L 63.92 15.112 L 63.92 24.6 L 63.92 24.6 Q 63.312 25.048 62.288 25.344 L 62.288 25.344 L 62.288 25.344 Q 61.264 25.64 60.16 25.64 L 60.16 25.64 L 60.16 25.64 Z  M 60.208 24.184 L 60.208 24.184 Q 61.28 24.184 61.904 23.8 L 61.904 23.8 L 61.904 20.536 L 61.904 20.536 Q 61.904 19.752 61.36 19.352 L 61.36 19.352 L 61.36 19.352 Q 60.816 18.952 59.952 18.952 L 59.952 18.952 L 59.952 18.952 Q 58.784 18.952 58.208 19.656 L 58.208 19.656 L 58.208 19.656 Q 57.632 20.36 57.632 21.592 L 57.632 21.592 L 57.632 21.592 Q 57.632 22.968 58.272 23.576 L 58.272 23.576 L 58.272 23.576 Q 58.912 24.184 60.208 24.184 L 60.208 24.184 L 60.208 24.184 Z  M 66.608 16.392 L 66.608 16.392 Q 66.224 16.392 66.016 16.168 L 66.016 16.168 L 66.016 16.168 Q 65.808 15.944 65.808 15.624 L 65.808 15.624 L 65.808 15.288 L 65.808 15.288 Q 65.808 14.968 66.016 14.744 L 66.016 14.744 L 66.016 14.744 Q 66.224 14.52 66.608 14.52 L 66.608 14.52 L 67.296 14.52 L 67.296 14.52 Q 67.68 14.52 67.896 14.744 L 67.896 14.744 L 67.896 14.744 Q 68.112 14.968 68.112 15.288 L 68.112 15.288 L 68.112 15.624 L 68.112 15.624 Q 68.112 15.944 67.896 16.168 L 67.896 16.168 L 67.896 16.168 Q 67.68 16.392 67.296 16.392 L 67.296 16.392 L 66.608 16.392 L 66.608 16.392 Z  M 66.544 25.4 L 66.544 25.4 Q 66.224 25.4 66.08 25.256 L 66.08 25.256 L 66.08 25.256 Q 65.936 25.112 65.936 24.824 L 65.936 24.824 L 65.936 18.312 L 65.936 18.312 Q 65.936 18.008 66.08 17.864 L 66.08 17.864 L 66.08 17.864 Q 66.224 17.72 66.544 17.72 L 66.544 17.72 L 67.376 17.72 L 67.376 17.72 Q 67.696 17.72 67.84 17.864 L 67.84 17.864 L 67.84 17.864 Q 67.984 18.008 67.984 18.312 L 67.984 18.312 L 67.984 24.824 L 67.984 24.824 Q 67.984 25.112 67.848 25.256 L 67.848 25.256 L 67.848 25.256 Q 67.712 25.4 67.376 25.4 L 67.376 25.4 L 66.544 25.4 L 66.544 25.4 Z  M 74.016 25.64 L 74.016 25.64 Q 71.936 25.64 70.808 24.544 L 70.808 24.544 L 70.808 24.544 Q 69.68 23.448 69.68 21.56 L 69.68 21.56 L 69.68 21.56 Q 69.68 19.672 70.808 18.576 L 70.808 18.576 L 70.808 18.576 Q 71.936 17.48 74.016 17.48 L 74.016 17.48 L 74.016 17.48 Q 76.096 17.48 77.232 18.576 L 77.232 18.576 L 77.232 18.576 Q 78.368 19.672 78.368 21.56 L 78.368 21.56 L 78.368 21.56 Q 78.368 23.448 77.232 24.544 L 77.232 24.544 L 77.232 24.544 Q 76.096 25.64 74.016 25.64 L 74.016 25.64 L 74.016 25.64 Z  M 74.016 24.136 L 74.016 24.136 Q 75.152 24.136 75.744 23.48 L 75.744 23.48 L 75.744 23.48 Q 76.336 22.824 76.336 21.56 L 76.336 21.56 L 76.336 21.56 Q 76.336 20.312 75.744 19.664 L 75.744 19.664 L 75.744 19.664 Q 75.152 19.016 74.016 19.016 L 74.016 19.016 L 74.016 19.016 Q 72.896 19.016 72.296 19.664 L 72.296 19.664 L 72.296 19.664 Q 71.696 20.312 71.696 21.56 L 71.696 21.56 L 71.696 21.56 Q 71.696 22.808 72.296 23.472 L 72.296 23.472 L 72.296 23.472 Q 72.896 24.136 74.016 24.136 L 74.016 24.136 L 74.016 24.136 Z " fill-rule="evenodd" fill="rgb(0,0,0)"/></g><g id="Group-2"><path d=" M 32 185 L 43 169 L 57 172 L 88 169 L 114 176 L 120 192 L 114 217 L 109 220 L 98.693 226.568 L 90 220 L 74 226 L 60 226.568 L 49 220 L 34 220 L 32 208 L 34 195 L 32 189 L 32 185 Z " fill="rgb(0,0,0)" vector-effect="non-scaling-stroke" stroke-width="1" stroke="rgb(0,0,0)" stroke-linejoin="miter" stroke-linecap="square" stroke-miterlimit="3"/><path d=" M 95.068 185.792 C 94.941 185.792 94.852 185.764 94.798 185.707 C 94.744 185.65 94.717 185.565 94.717 185.451 L 94.717 179.705 C 94.717 179.585 94.744 179.497 94.798 179.44 C 94.852 179.383 94.941 179.355 95.068 179.355 L 97.538 179.355 C 98.271 179.355 98.827 179.525 99.209 179.866 C 99.591 180.207 99.782 180.712 99.782 181.381 C 99.782 181.822 99.678 182.2 99.47 182.512 C 99.261 182.824 98.958 183.059 98.561 183.217 L 99.612 185.546 C 99.631 185.584 99.64 185.619 99.64 185.65 C 99.64 185.745 99.583 185.792 99.47 185.792 L 98.693 185.792 C 98.611 185.792 98.551 185.781 98.513 185.759 C 98.476 185.737 98.441 185.691 98.409 185.622 L 97.453 183.378 L 95.929 183.378 L 95.929 185.451 C 95.929 185.565 95.902 185.65 95.849 185.707 C 95.795 185.764 95.702 185.792 95.569 185.792 L 95.068 185.792 Z  M 97.292 182.469 C 97.734 182.469 98.059 182.384 98.267 182.214 C 98.476 182.043 98.58 181.766 98.58 181.381 C 98.58 181.002 98.485 180.724 98.296 180.548 C 98.106 180.371 97.819 180.283 97.434 180.283 L 95.929 180.283 L 95.929 182.469 L 97.292 182.469 Z " fill-rule="evenodd" fill="rgb(255,255,255)"/><path d=" M 51.982 185.429 C 51.855 185.429 51.765 185.401 51.711 185.344 C 51.658 185.287 51.631 185.202 51.631 185.088 L 51.631 179.328 C 51.631 179.208 51.658 179.119 51.711 179.062 C 51.765 179.005 51.855 178.977 51.982 178.977 L 52.485 178.977 C 52.611 178.977 52.703 179.005 52.76 179.062 C 52.817 179.119 52.845 179.208 52.845 179.328 L 52.845 184.509 L 55.749 184.509 C 55.876 184.509 55.964 184.536 56.015 184.59 C 56.065 184.643 56.091 184.73 56.091 184.851 L 56.091 185.107 C 56.091 185.221 56.065 185.303 56.015 185.354 C 55.964 185.404 55.876 185.429 55.749 185.429 L 51.982 185.429 Z " fill-rule="evenodd" fill="rgb(255,255,255)"/></g></g></svg>