<?xml version="1.0" standalone="no"?><!-- Generator: Gravit.io --><svg xmlns="http://www.w3.org/2000/svg" xmlns:xlink="http://www.w3.org/1999/xlink" style="isolation:isolate" viewBox="0 0 150 380" width="150" height="380"><defs><clipPath id="_clipPath_KLlPQLHpBH8WIk1OwGz6gcqyO5B3CaOJ"><rect width="150" height="380"/></clipPath></defs><g clip-path="url(#_clipPath_KLlPQLHpBH8WIk1OwGz6gcqyO5B3CaOJ)"><g id="bg"><rect x="0" y="0" width="150" height="380" transform="matrix(1,0,0,1,0,0)" fill="rgb(240,240,240)"/><path d=" M 69.082 369.599 C 68.927 369.747 68.783 369.851 68.65 369.909 C 68.517 369.968 68.375 369.998 68.224 369.998 C 68.072 369.998 67.93 369.97 67.797 369.914 C 67.664 369.858 67.548 369.781 67.449 369.682 C 67.233 369.466 67.124 369.209 67.124 368.912 L 67.124 363.385 C 67.124 363.082 67.202 362.847 67.356 362.68 C 67.622 362.408 67.874 362.272 68.112 362.272 C 68.35 362.272 68.528 362.296 68.646 362.346 C 68.763 362.395 68.862 362.457 68.942 362.531 C 69.048 362.624 69.126 362.723 69.179 362.828 C 69.232 362.933 69.275 363.011 69.309 363.06 C 69.343 363.11 69.399 363.134 69.476 363.134 C 69.553 363.134 69.62 363.11 69.675 363.06 L 69.833 362.902 C 70.284 362.482 70.736 362.272 71.187 362.272 C 71.985 362.272 72.643 362.599 73.163 363.255 C 73.212 363.323 73.274 363.357 73.348 363.357 C 73.478 363.357 73.61 363.256 73.743 363.055 C 73.876 362.854 74.09 362.674 74.387 362.513 C 74.684 362.352 75.03 362.272 75.426 362.272 C 75.822 362.272 76.182 362.344 76.507 362.49 C 76.831 362.635 77.114 362.834 77.355 363.088 C 77.862 363.62 78.116 364.263 78.116 365.017 L 78.116 368.912 C 78.116 369.382 77.893 369.713 77.448 369.905 C 77.312 369.967 77.168 369.998 77.017 369.998 C 76.865 369.998 76.723 369.97 76.59 369.914 C 76.457 369.858 76.341 369.781 76.242 369.682 C 76.032 369.46 75.927 369.203 75.927 368.912 L 75.927 365.045 C 75.927 364.736 75.85 364.504 75.695 364.349 C 75.423 364.077 75.173 363.941 74.944 363.941 C 74.715 363.941 74.536 363.971 74.406 364.029 C 74.276 364.088 74.158 364.17 74.053 364.275 C 73.837 364.492 73.729 364.742 73.729 365.026 L 73.729 368.912 C 73.729 369.382 73.509 369.713 73.07 369.905 C 72.934 369.967 72.79 369.998 72.639 369.998 C 72.487 369.998 72.344 369.97 72.207 369.914 C 72.071 369.858 71.954 369.781 71.855 369.682 C 71.639 369.466 71.53 369.209 71.53 368.912 L 71.53 365.045 C 71.53 364.736 71.453 364.504 71.298 364.349 C 71.026 364.077 70.742 363.941 70.445 363.941 C 69.95 363.941 69.607 364.133 69.416 364.516 C 69.354 364.64 69.323 364.779 69.323 364.934 L 69.323 368.912 C 69.323 369.215 69.242 369.444 69.082 369.599 Z  M 80.343 363.387 C 80.343 363.084 80.42 362.849 80.575 362.682 C 80.84 362.41 81.134 362.274 81.456 362.274 C 81.765 362.274 81.994 362.355 82.142 362.515 C 82.414 362.794 82.55 363.084 82.55 363.387 L 82.55 368.915 C 82.55 369.212 82.473 369.437 82.318 369.592 C 82.046 369.864 81.796 370 81.567 370 C 81.338 370 81.156 369.971 81.02 369.912 C 80.884 369.853 80.766 369.777 80.667 369.685 C 80.451 369.474 80.343 369.218 80.343 368.915 L 80.343 363.387 Z  M 81.451 359.9 C 81.189 359.9 80.976 359.687 80.976 359.425 C 80.976 359.162 81.189 358.95 81.451 358.95 C 81.713 358.95 81.926 359.162 81.926 359.425 C 81.926 359.687 81.713 359.9 81.451 359.9 Z  M 81.451 358 C 81.838 358 82.172 358.142 82.453 358.425 C 82.735 358.709 82.876 358.996 82.876 359.287 C 82.876 359.577 82.837 359.807 82.759 359.978 C 82.682 360.148 82.58 360.297 82.453 360.424 C 82.172 360.708 81.838 360.849 81.451 360.849 C 81.064 360.849 80.73 360.708 80.448 360.424 C 80.167 360.141 80.026 359.857 80.026 359.574 C 80.026 359.092 80.167 358.709 80.448 358.425 C 80.73 358.142 81.064 358 81.451 358 Z " fill-rule="evenodd" fill="rgb(10,118,187)"/><path d=" M 0 174 L 150 60 L 150 80 L 0 194 L 0 174 Z  M 0 214 L 150 100 L 150 120 L 0 234 L 0 214 Z  M 0 134 L 150 20 L 150 40 L 0 154 L 0 134 Z " fill-rule="evenodd" fill="rgb(0,0,0)" fill-opacity="0.02"/><path d=" M 95.152 25.64 L 95.152 25.64 Q 92.432 25.64 90.944 24.168 L 90.944 24.168 L 90.944 24.168 Q 89.456 22.696 89.456 19.96 L 89.456 19.96 L 89.456 19.96 Q 89.456 17.224 90.92 15.752 L 90.92 15.752 L 90.92 15.752 Q 92.384 14.28 95.104 14.28 L 95.104 14.28 L 95.104 14.28 Q 96.192 14.28 97.12 14.504 L 97.12 14.504 L 97.12 14.504 Q 98.048 14.728 98.688 15.144 L 98.688 15.144 L 98.688 15.144 Q 98.832 15.24 98.832 15.352 L 98.832 15.352 L 98.832 15.352 Q 98.832 15.448 98.752 15.576 L 98.752 15.576 L 98.304 16.344 L 98.304 16.344 Q 98.208 16.488 98.128 16.488 L 98.128 16.488 L 98.128 16.488 Q 98.064 16.488 97.904 16.408 L 97.904 16.408 L 97.904 16.408 Q 96.896 15.8 95.328 15.8 L 95.328 15.8 L 95.328 15.8 Q 93.52 15.8 92.496 16.84 L 92.496 16.84 L 92.496 16.84 Q 91.472 17.88 91.472 19.96 L 91.472 19.96 L 91.472 19.96 Q 91.472 22.072 92.528 23.104 L 92.528 23.104 L 92.528 23.104 Q 93.584 24.136 95.376 24.136 L 95.376 24.136 L 95.376 24.136 Q 97.04 24.136 98.112 23.512 L 98.112 23.512 L 98.112 23.512 Q 98.272 23.432 98.32 23.432 L 98.32 23.432 L 98.32 23.432 Q 98.416 23.432 98.512 23.576 L 98.512 23.576 L 99.008 24.408 L 99.008 24.408 Q 99.056 24.504 99.056 24.568 L 99.056 24.568 L 99.056 24.568 Q 99.056 24.664 98.88 24.776 L 98.88 24.776 L 98.88 24.776 Q 97.648 25.64 95.152 25.64 L 95.152 25.64 L 95.152 25.64 Z  M 105.984 25.64 L 105.984 25.64 Q 103.264 25.64 101.776 24.168 L 101.776 24.168 L 101.776 24.168 Q 100.288 22.696 100.288 19.96 L 100.288 19.96 L 100.288 19.96 Q 100.288 17.224 101.752 15.752 L 101.752 15.752 L 101.752 15.752 Q 103.216 14.28 105.936 14.28 L 105.936 14.28 L 105.936 14.28 Q 107.024 14.28 107.952 14.504 L 107.952 14.504 L 107.952 14.504 Q 108.88 14.728 109.52 15.144 L 109.52 15.144 L 109.52 15.144 Q 109.664 15.24 109.664 15.352 L 109.664 15.352 L 109.664 15.352 Q 109.664 15.448 109.584 15.576 L 109.584 15.576 L 109.136 16.344 L 109.136 16.344 Q 109.04 16.488 108.96 16.488 L 108.96 16.488 L 108.96 16.488 Q 108.896 16.488 108.736 16.408 L 108.736 16.408 L 108.736 16.408 Q 107.728 15.8 106.16 15.8 L 106.16 15.8 L 106.16 15.8 Q 104.352 15.8 103.328 16.84 L 103.328 16.84 L 103.328 16.84 Q 102.304 17.88 102.304 19.96 L 102.304 19.96 L 102.304 19.96 Q 102.304 22.072 103.36 23.104 L 103.36 23.104 L 103.36 23.104 Q 104.416 24.136 106.208 24.136 L 106.208 24.136 L 106.208 24.136 Q 107.872 24.136 108.944 23.512 L 108.944 23.512 L 108.944 23.512 Q 109.104 23.432 109.152 23.432 L 109.152 23.432 L 109.152 23.432 Q 109.248 23.432 109.344 23.576 L 109.344 23.576 L 109.84 24.408 L 109.84 24.408 Q 109.888 24.504 109.888 24.568 L 109.888 24.568 L 109.888 24.568 Q 109.888 24.664 109.712 24.776 L 109.712 24.776 L 109.712 24.776 Q 108.48 25.64 105.984 25.64 L 105.984 25.64 L 105.984 25.64 Z  M 76.144 21.4 L 76.144 21.4 Q 75.888 21.4 75.784 21.288 L 75.784 21.288 L 75.784 21.288 Q 75.68 21.176 75.68 20.92 L 75.68 20.92 L 75.68 20.328 L 75.68 20.328 Q 75.68 20.072 75.784 19.96 L 75.784 19.96 L 75.784 19.96 Q 75.888 19.848 76.144 19.848 L 76.144 19.848 L 81.504 19.848 L 81.504 19.848 Q 81.744 19.848 81.856 19.968 L 81.856 19.968 L 81.856 19.968 Q 81.968 20.088 81.968 20.328 L 81.968 20.328 L 81.968 20.92 L 81.968 20.92 Q 81.968 21.16 81.856 21.28 L 81.856 21.28 L 81.856 21.28 Q 81.744 21.4 81.504 21.4 L 81.504 21.4 L 76.144 21.4 L 76.144 21.4 Z  M 39.04 25.4 L 39.04 25.4 Q 38.72 25.4 38.584 25.256 L 38.584 25.256 L 38.584 25.256 Q 38.448 25.112 38.448 24.824 L 38.448 24.824 L 38.448 15.112 L 38.448 15.112 Q 38.448 14.808 38.584 14.664 L 38.584 14.664 L 38.584 14.664 Q 38.72 14.52 39.056 14.52 L 39.056 14.52 L 39.92 14.52 L 39.92 14.52 Q 40.176 14.52 40.312 14.584 L 40.312 14.584 L 40.312 14.584 Q 40.448 14.648 40.528 14.84 L 40.528 14.84 L 43.76 22.28 L 46.992 14.84 L 46.992 14.84 Q 47.072 14.648 47.208 14.584 L 47.208 14.584 L 47.208 14.584 Q 47.344 14.52 47.6 14.52 L 47.6 14.52 L 48.464 14.52 L 48.464 14.52 Q 48.8 14.52 48.936 14.664 L 48.936 14.664 L 48.936 14.664 Q 49.072 14.808 49.072 15.112 L 49.072 15.112 L 49.072 24.824 L 49.072 24.824 Q 49.072 25.112 48.936 25.256 L 48.936 25.256 L 48.936 25.256 Q 48.8 25.4 48.48 25.4 L 48.48 25.4 L 47.776 25.4 L 47.776 25.4 Q 47.456 25.4 47.312 25.256 L 47.312 25.256 L 47.312 25.256 Q 47.168 25.112 47.168 24.824 L 47.168 24.824 L 47.168 17.928 L 44.432 24.024 L 44.432 24.024 Q 44.304 24.28 44.176 24.392 L 44.176 24.392 L 44.176 24.392 Q 44.048 24.504 43.76 24.504 L 43.76 24.504 L 43.76 24.504 Q 43.472 24.504 43.336 24.392 L 43.336 24.392 L 43.336 24.392 Q 43.2 24.28 43.088 24.024 L 43.088 24.024 L 40.352 17.928 L 40.352 24.824 L 40.352 24.824 Q 40.352 25.112 40.216 25.256 L 40.216 25.256 L 40.216 25.256 Q 40.08 25.4 39.744 25.4 L 39.744 25.4 L 39.04 25.4 L 39.04 25.4 Z  M 51.552 25.4 L 51.552 25.4 Q 51.232 25.4 51.096 25.256 L 51.096 25.256 L 51.096 25.256 Q 50.96 25.112 50.96 24.824 L 50.96 24.824 L 50.96 15.112 L 50.96 15.112 Q 50.96 14.808 51.096 14.664 L 51.096 14.664 L 51.096 14.664 Q 51.232 14.52 51.552 14.52 L 51.552 14.52 L 52.4 14.52 L 52.4 14.52 Q 52.72 14.52 52.864 14.664 L 52.864 14.664 L 52.864 14.664 Q 53.008 14.808 53.008 15.112 L 53.008 15.112 L 53.008 24.824 L 53.008 24.824 Q 53.008 25.112 52.872 25.256 L 52.872 25.256 L 52.872 25.256 Q 52.736 25.4 52.4 25.4 L 52.4 25.4 L 51.552 25.4 L 51.552 25.4 Z  M 55.488 25.4 L 55.488 25.4 Q 55.168 25.4 55.032 25.256 L 55.032 25.256 L 55.032 25.256 Q 54.896 25.112 54.896 24.824 L 54.896 24.824 L 54.896 15.112 L 54.896 15.112 Q 54.896 14.808 55.032 14.664 L 55.032 14.664 L 55.032 14.664 Q 55.168 14.52 55.488 14.52 L 55.488 14.52 L 58.688 14.52 L 58.688 14.52 Q 61.392 14.52 62.824 15.816 L 62.824 15.816 L 62.824 15.816 Q 64.256 17.112 64.256 19.96 L 64.256 19.96 L 64.256 19.96 Q 64.256 25.4 58.688 25.4 L 58.688 25.4 L 55.488 25.4 L 55.488 25.4 Z  M 56.944 23.848 L 58.816 23.848 L 58.816 23.848 Q 60.512 23.848 61.368 22.968 L 61.368 22.968 L 61.368 22.968 Q 62.224 22.088 62.224 19.96 L 62.224 19.96 L 62.224 19.96 Q 62.224 17.832 61.368 16.96 L 61.368 16.96 L 61.368 16.96 Q 60.512 16.088 58.816 16.088 L 58.816 16.088 L 56.944 16.088 L 56.944 23.848 L 56.944 23.848 Z  M 66.416 25.4 L 66.416 25.4 Q 66.096 25.4 65.96 25.256 L 65.96 25.256 L 65.96 25.256 Q 65.824 25.112 65.824 24.824 L 65.824 24.824 L 65.824 15.112 L 65.824 15.112 Q 65.824 14.808 65.96 14.664 L 65.96 14.664 L 65.96 14.664 Q 66.096 14.52 66.416 14.52 L 66.416 14.52 L 67.264 14.52 L 67.264 14.52 Q 67.584 14.52 67.728 14.664 L 67.728 14.664 L 67.728 14.664 Q 67.872 14.808 67.872 15.112 L 67.872 15.112 L 67.872 24.824 L 67.872 24.824 Q 67.872 25.112 67.736 25.256 L 67.736 25.256 L 67.736 25.256 Q 67.6 25.4 67.264 25.4 L 67.264 25.4 L 66.416 25.4 L 66.416 25.4 Z " fill-rule="evenodd" fill="rgb(0,0,0)"/></g><path d=" M 21.167 214 L 26.5 217.333 L 32.833 214.667 L 35.833 218.333 L 38.833 222 L 36.5 227.333 L 37.833 232.333 L 36.833 240 L 37.5 243.667 L 29.5 242.667 L 24.167 244.667 L 20.5 241.667 L 14.833 243.667 L 8.167 238.333 L 9.5 232.333 L 9.167 225.333 L 11.833 220 L 7.167 215 L 15.5 213.333 L 21.167 214 Z " fill="rgb(0,0,0)"/><path d=" M 48.833 215 L 54.5 213 L 60.167 216 L 67.5 213.333 L 68.5 219 L 73.833 224.667 L 71.5 228.667 L 71.833 235.333 L 67.833 239.333 L 70.5 244.333 L 61.833 243.333 L 58.167 239.333 L 47.167 246 L 46.5 241.333 L 42.167 236 L 46.167 231 L 41.167 223 L 43.167 214.667 L 48.833 215 Z " fill="rgb(0,0,0)"/><path d=" M 87.5 212 L 90.833 216.333 L 98.833 214 L 102.833 218 L 107.5 222.333 L 103.833 228 L 106.167 238.667 L 100.5 241.667 L 92.167 244.667 L 88.5 238.667 L 82.167 243.667 L 76.5 238.333 L 81.167 234 L 76.167 226.333 L 78.167 220 L 77.5 215.333 L 87.5 212 Z " fill="rgb(0,0,0)"/><path d=" M 122.167 213.333 L 128.5 215.667 L 132.167 213.333 L 138.167 215 L 140.833 225 L 138.167 228.333 L 139.5 235 L 138.167 242.333 L 131.833 243.333 L 123.167 241.333 L 116.5 242.333 L 112.833 239.333 L 111.833 231.333 L 113.5 223.667 L 111.167 221.667 L 113.833 214 L 122.167 213.333 Z " fill="rgb(0,0,0)"/><path d=" M 114.5 250.667 L 123.5 248 L 129.167 250 L 135.167 249.667 L 139.167 252 L 142.833 258 L 139.833 261.667 L 139.833 267.667 L 140.833 274 L 136.167 277 L 128.167 277 L 124.5 280 L 116.833 276 L 111.833 275.667 L 111.5 268.333 L 112.167 264.667 L 110.5 257.333 L 114.5 250.667 Z " fill="rgb(0,0,0)"/><path d=" M 114.167 284.333 L 120.833 283 L 122.833 283.667 L 129.833 283.667 L 136.833 286 L 140.5 286 L 141.5 296.667 L 139.5 300.333 L 139.5 310.333 L 131.833 309.333 L 126.833 312.333 L 118.167 312.333 L 117.167 310 L 111.833 306 L 111.833 297 L 110.5 289.667 L 114.167 284.333 Z " fill="rgb(0,0,0)"/><path d=" M 115.833 317.333 L 122.833 316.667 L 129.833 318.333 L 139.5 318.667 L 139.5 324.333 L 142.5 330.333 L 139.167 339 L 138.167 347 L 131.5 345 L 126.833 346.333 L 119.167 345.667 L 113.167 343 L 112.167 336.667 L 113.167 332.333 L 111.5 325.667 L 112.5 320.667 L 115.833 317.333 Z " fill="rgb(0,0,0)"/><path d=" M 82.833 284.667 L 88.833 283.333 L 97.5 283 L 103.833 286.333 L 107.833 292.333 L 105.167 296.667 L 106.833 306.667 L 104.5 311.333 L 96.167 311.667 L 87.167 311.333 L 84.167 312.667 L 76.5 305.333 L 77.833 300.333 L 77.833 291.667 L 82.833 284.667 Z " fill="rgb(0,0,0)"/><path d=" M 81.167 249.667 L 88.5 248.333 L 91.5 249.333 L 101.5 250 L 104.167 249.667 L 105.5 258 L 105.5 264.333 L 106.5 270.667 L 102.833 276 L 95.167 276.667 L 86.833 277 L 80.833 275 L 79.833 271.333 L 77.167 265.667 L 77.833 257.333 L 81.167 249.667 Z " fill="rgb(0,0,0)"/><path d=" M 49.167 250.667 L 53.5 249.333 L 61.5 251 L 65.833 248.667 L 71.833 255 L 70.167 259.667 L 73.167 270.667 L 70.833 275.333 L 61.833 277.333 L 52.5 274 L 46.5 276.667 L 45.167 269 L 41.5 264.333 L 43.833 255 L 49.167 250.667 Z " fill="rgb(0,0,0)"/><path d=" M 15.167 248.667 L 25.167 248.667 L 28.167 250.667 L 32.5 252.333 L 37.167 253 L 37.833 260 L 36.167 268 L 37.5 275.333 L 30.833 275.667 L 17.167 277.333 L 11.5 278.333 L 10.5 268.333 L 7.833 259 L 9.833 254 L 15.167 248.667 Z " fill="rgb(0,0,0)"/><path d=" M 46.5 283.667 L 54.5 281.667 L 60.833 283 L 71.167 285.333 L 70.833 294.333 L 72.833 301 L 70.167 306.667 L 70.167 312.333 L 61.5 311 L 52.5 311.333 L 45.5 307.333 L 41.833 300 L 43.5 296.333 L 43.5 290 L 46.5 283.667 Z " fill="rgb(0,0,0)"/><path d=" M 84.167 318 L 92.167 315.667 L 99.167 318.667 L 107.5 319 L 106.167 327 L 106.167 334.333 L 105.167 337.667 L 105.833 345.333 L 100.5 345.333 L 95.833 346.667 L 90.833 342.333 L 85.833 346.667 L 76.833 342.667 L 78.5 333.667 L 76.167 329.667 L 79.5 320.667 L 84.167 318 Z " fill="rgb(0,0,0)"/><path d=" M 18.833 316.667 L 23.833 318.333 L 27.833 316.667 L 31.833 318.667 L 38.5 318.667 L 35.833 324.333 L 37.5 331.667 L 35.167 335.667 L 36.167 342 L 31.833 348.333 L 26.833 346.333 L 17.5 346 L 15.167 343.333 L 10.5 344.333 L 9.833 336.667 L 7.833 332.333 L 10.167 328.333 L 8.833 321 L 10.833 319 L 18.833 316.667 Z " fill="rgb(0,0,0)"/><path d=" M 16.833 284.333 L 21.833 283.333 L 29.5 283.333 L 33.5 282.333 L 35.5 287.333 L 34.833 293.333 L 35.5 296 L 38.5 303.333 L 36.5 312 L 31.167 310.667 L 20.833 311.333 L 12.167 308.333 L 8.5 310.333 L 8.5 297.667 L 10.5 295.333 L 8.5 287 L 11.5 283.667 L 16.833 284.333 Z " fill="rgb(0,0,0)"/><path d=" M 55.5 319 L 61.167 318.333 L 69.167 320.667 L 71.833 325.667 L 69.833 333.333 L 72.5 338.667 L 70.5 345 L 64.167 345 L 60.167 346.667 L 52.833 344.667 L 47.5 346 L 42.167 339 L 44.167 332.333 L 42.833 326 L 44.5 322.667 L 44.167 317 L 53.167 315.667 L 55.5 319 Z " fill="rgb(0,0,0)"/></g></svg>