<?xml version="1.0" standalone="no"?><!-- Generator: Gravit.io --><svg xmlns="http://www.w3.org/2000/svg" xmlns:xlink="http://www.w3.org/1999/xlink" style="isolation:isolate" viewBox="0 0 150 380" width="150" height="380"><defs><clipPath id="_clipPath_1NrEGeWXSUsErqY9F4FwJhBdcT6B7v5t"><rect width="150" height="380"/></clipPath></defs><g clip-path="url(#_clipPath_1NrEGeWXSUsErqY9F4FwJhBdcT6B7v5t)"><g id="bg"><rect x="0" y="0" width="150" height="380" transform="matrix(1,0,0,1,0,0)" fill="rgb(240,240,240)"/><path d=" M 69.081618 369.598705 C 68.927026 369.747088 68.783257 369.850659 68.650311 369.909418 C 68.51736 369.968177 68.375138 369.997539 68.223635 369.997539 C 68.072137 369.997539 67.929914 369.969715 67.796964 369.914067 C 67.664013 369.858419 67.548073 369.781099 67.449133 369.682177 C 67.232702 369.465737 67.12449 369.209133 67.12449 368.912298 L 67.12449 363.384743 C 67.12449 363.08172 67.201784 362.846754 67.356376 362.67981 C 67.622277 362.407722 67.874258 362.271678 68.11233 362.271678 C 68.350403 362.271678 68.528179 362.296391 68.64567 362.345887 C 68.763162 362.395348 68.862097 362.457183 68.942485 362.531392 C 69.047611 362.624127 69.126452 362.723084 69.179011 362.828193 C 69.231574 362.933337 69.274857 363.010622 69.308868 363.060083 C 69.342879 363.109544 69.398531 363.134292 69.475829 363.134292 C 69.553123 363.134292 69.619598 363.109544 69.675251 363.060083 L 69.832932 362.902402 C 70.284342 362.481931 70.735744 362.271678 71.187154 362.271678 C 71.984853 362.271678 72.643406 362.599414 73.162834 363.254886 C 73.212304 363.322908 73.274139 363.356919 73.348343 363.356919 C 73.4782 363.356919 73.609604 363.256424 73.742555 363.055434 C 73.875501 362.854479 74.090381 362.673623 74.3872 362.512831 C 74.684018 362.352074 75.030298 362.271678 75.426056 362.271678 C 75.82181 362.271678 76.182006 362.344314 76.506648 362.489656 C 76.831291 362.634963 77.114193 362.83438 77.355355 363.087907 C 77.862418 363.619709 78.115945 364.262808 78.115945 365.017202 L 78.115945 368.912298 C 78.115945 369.382265 77.893335 369.713077 77.448112 369.904769 C 77.312068 369.966604 77.168303 369.997539 77.0168 369.997539 C 76.865302 369.997539 76.723075 369.969715 76.590129 369.914067 C 76.457179 369.858419 76.341238 369.781099 76.242298 369.682177 C 76.03205 369.45955 75.926932 369.202946 75.926932 368.912298 L 75.926932 365.04506 C 75.926932 364.735851 75.849634 364.503961 75.695042 364.34939 C 75.422963 364.077302 75.172525 363.941258 74.943728 363.941258 C 74.714932 363.941258 74.535609 363.970621 74.405752 364.029379 C 74.275891 364.088138 74.158403 364.170072 74.053281 364.275181 C 73.836854 364.491621 73.728638 364.742038 73.728638 365.0265 L 73.728638 368.912298 C 73.728638 369.382265 73.509122 369.713077 73.070081 369.904769 C 72.934037 369.966604 72.790268 369.997539 72.63877 369.997539 C 72.487267 369.997539 72.343502 369.969715 72.207458 369.914067 C 72.071419 369.858419 71.953931 369.781099 71.854992 369.682177 C 71.638561 369.465737 71.530349 369.209133 71.530349 368.912298 L 71.530349 365.04506 C 71.530349 364.735851 71.453051 364.503961 71.298459 364.34939 C 71.02638 364.077302 70.741935 363.941258 70.445117 363.941258 C 69.950419 363.941258 69.607233 364.13295 69.415537 364.516335 C 69.353701 364.640005 69.32278 364.779159 69.32278 364.93373 L 69.32278 368.912298 C 69.32278 369.21532 69.242397 369.4441 69.081618 369.598705 Z  M 80.342682 363.387204 C 80.342682 363.084216 80.419976 362.849215 80.574568 362.682271 C 80.840469 362.410183 81.13419 362.274139 81.455739 362.274139 C 81.764923 362.274139 81.993719 362.354535 82.142128 362.515292 C 82.414208 362.793567 82.550252 363.084216 82.550252 363.387204 L 82.550252 368.914793 C 82.550252 369.211595 82.472958 369.437298 82.318362 369.591902 C 82.046282 369.863956 81.79584 370 81.567044 370 C 81.338247 370 81.155835 369.970638 81.019791 369.911879 C 80.883752 369.853155 80.766264 369.777407 80.667325 369.684638 C 80.450893 369.474385 80.342682 369.217781 80.342682 368.914793 L 80.342682 363.387204 Z  M 81.450791 359.899625 C 81.188513 359.899625 80.975889 359.687013 80.975889 359.424702 C 80.975889 359.162424 81.188513 358.949812 81.450791 358.949812 C 81.713077 358.949812 81.925697 359.162424 81.925697 359.424702 C 81.925697 359.687013 81.713077 359.899625 81.450791 359.899625 Z  M 81.450791 358 C 81.837756 358 82.171943 358.141752 82.453372 358.425291 C 82.7348 358.70883 82.87551 358.99589 82.87551 359.286504 C 82.87551 359.577119 82.836816 359.80747 82.759419 359.977594 C 82.682031 360.147717 82.580016 360.296545 82.453372 360.424146 C 82.171943 360.707685 81.837756 360.849437 81.450791 360.849437 C 81.063835 360.849437 80.729643 360.707685 80.448219 360.424146 C 80.166791 360.140607 80.026081 359.857103 80.026081 359.573564 C 80.026081 359.091565 80.166791 358.70883 80.448219 358.425291 C 80.729643 358.141752 81.063835 358 81.450791 358 Z " fill-rule="evenodd" fill="rgb(10,118,187)"/><g id="stripes"><path d=" M -150 305 L 150 20 L 150 40 L -150 325 L -150 305 Z " fill="rgb(116,127,134)" fill-opacity="0.05"/><path d=" M -150 345 L 150 60 L 150 80 L -150 365 L -150 345 Z " fill="rgb(116,127,134)" fill-opacity="0.05"/><path d=" M -150 385 L 150 100 L 150 120 L -150 405 L -150 385 Z " fill="rgb(116,127,134)" fill-opacity="0.05"/></g><path d=" M 68.076 28.1 L 68.076 28.1 Q 67.726 28.1 67.579 27.953 L 67.579 27.953 L 67.579 27.953 Q 67.432 27.806 67.432 27.498 L 67.432 27.498 L 67.432 20.288 L 65.136 20.288 L 65.136 20.288 Q 64.8 20.288 64.674 20.155 L 64.674 20.155 L 64.674 20.155 Q 64.548 20.022 64.548 19.7 L 64.548 19.7 L 64.548 19.182 L 64.548 19.182 Q 64.548 18.86 64.674 18.72 L 64.674 18.72 L 64.674 18.72 Q 64.8 18.58 65.136 18.58 L 65.136 18.58 L 72.052 18.58 L 72.052 18.58 Q 72.388 18.58 72.521 18.72 L 72.521 18.72 L 72.521 18.72 Q 72.654 18.86 72.654 19.182 L 72.654 19.182 L 72.654 19.7 L 72.654 19.7 Q 72.654 20.008 72.521 20.148 L 72.521 20.148 L 72.521 20.148 Q 72.388 20.288 72.052 20.288 L 72.052 20.288 L 69.756 20.288 L 69.756 27.498 L 69.756 27.498 Q 69.756 27.806 69.609 27.953 L 69.609 27.953 L 69.609 27.953 Q 69.462 28.1 69.112 28.1 L 69.112 28.1 L 68.076 28.1 L 68.076 28.1 Z  M 74.166 28.1 L 74.166 28.1 Q 73.816 28.1 73.669 27.953 L 73.669 27.953 L 73.669 27.953 Q 73.522 27.806 73.522 27.498 L 73.522 27.498 L 73.522 21.786 L 73.522 21.786 Q 73.522 21.548 73.606 21.464 L 73.606 21.464 L 73.606 21.464 Q 73.69 21.38 73.942 21.38 L 73.942 21.38 L 75.062 21.38 L 75.062 21.38 Q 75.23 21.38 75.307 21.436 L 75.307 21.436 L 75.307 21.436 Q 75.384 21.492 75.398 21.632 L 75.398 21.632 L 75.454 22.08 L 75.454 22.08 Q 76.294 21.17 77.554 21.17 L 77.554 21.17 L 77.554 21.17 Q 77.96 21.17 78.219 21.233 L 78.219 21.233 L 78.219 21.233 Q 78.478 21.296 78.674 21.436 L 78.674 21.436 L 78.674 21.436 Q 78.8 21.534 78.8 21.632 L 78.8 21.632 L 78.8 21.632 Q 78.8 21.674 78.772 21.758 L 78.772 21.758 L 78.422 22.808 L 78.422 22.808 Q 78.366 22.976 78.24 22.976 L 78.24 22.976 L 78.24 22.976 Q 78.184 22.976 78.1 22.934 L 78.1 22.934 L 78.1 22.934 Q 77.736 22.752 77.26 22.752 L 77.26 22.752 L 77.26 22.752 Q 76.644 22.752 76.238 23.102 L 76.238 23.102 L 76.238 23.102 Q 75.832 23.452 75.832 24.04 L 75.832 24.04 L 75.832 27.498 L 75.832 27.498 Q 75.832 27.806 75.692 27.953 L 75.692 27.953 L 75.692 27.953 Q 75.552 28.1 75.202 28.1 L 75.202 28.1 L 74.166 28.1 L 74.166 28.1 Z  M 80.508 20.442 L 80.508 20.442 Q 80.116 20.442 79.892 20.218 L 79.892 20.218 L 79.892 20.218 Q 79.668 19.994 79.668 19.672 L 79.668 19.672 L 79.668 19.35 L 79.668 19.35 Q 79.668 19.028 79.892 18.804 L 79.892 18.804 L 79.892 18.804 Q 80.116 18.58 80.508 18.58 L 80.508 18.58 L 81.32 18.58 L 81.32 18.58 Q 81.726 18.58 81.95 18.804 L 81.95 18.804 L 81.95 18.804 Q 82.174 19.028 82.174 19.35 L 82.174 19.35 L 82.174 19.672 L 82.174 19.672 Q 82.174 19.994 81.95 20.218 L 81.95 20.218 L 81.95 20.218 Q 81.726 20.442 81.32 20.442 L 81.32 20.442 L 80.508 20.442 L 80.508 20.442 Z  M 80.396 28.1 L 80.396 28.1 Q 80.046 28.1 79.906 27.953 L 79.906 27.953 L 79.906 27.953 Q 79.766 27.806 79.766 27.498 L 79.766 27.498 L 79.766 21.996 L 79.766 21.996 Q 79.766 21.674 79.906 21.527 L 79.906 21.527 L 79.906 21.527 Q 80.046 21.38 80.396 21.38 L 80.396 21.38 L 81.432 21.38 L 81.432 21.38 Q 81.782 21.38 81.929 21.534 L 81.929 21.534 L 81.929 21.534 Q 82.076 21.688 82.076 21.996 L 82.076 21.996 L 82.076 27.498 L 82.076 27.498 Q 82.076 27.806 81.929 27.953 L 81.929 27.953 L 81.929 27.953 Q 81.782 28.1 81.432 28.1 L 81.432 28.1 L 80.396 28.1 L 80.396 28.1 Z  M 87.228 30.48 L 87.228 30.48 Q 86.374 30.48 85.576 30.312 L 85.576 30.312 L 85.576 30.312 Q 84.778 30.144 84.344 29.864 L 84.344 29.864 L 84.344 29.864 Q 84.246 29.78 84.246 29.682 L 84.246 29.682 L 84.246 29.682 Q 84.246 29.612 84.288 29.542 L 84.288 29.542 L 84.792 28.688 L 84.792 28.688 Q 84.834 28.618 84.883 28.569 L 84.883 28.569 L 84.883 28.569 Q 84.932 28.52 84.988 28.52 L 84.988 28.52 L 84.988 28.52 Q 85.016 28.52 85.156 28.576 L 85.156 28.576 L 85.156 28.576 Q 85.814 28.912 87.018 28.912 L 87.018 28.912 L 87.018 28.912 Q 87.816 28.912 88.201 28.548 L 88.201 28.548 L 88.201 28.548 Q 88.586 28.184 88.586 27.33 L 88.586 27.33 L 88.586 27.33 Q 87.914 27.96 86.696 27.96 L 86.696 27.96 L 86.696 27.96 Q 85.072 27.96 84.197 27.12 L 84.197 27.12 L 84.197 27.12 Q 83.322 26.28 83.322 24.726 L 83.322 24.726 L 83.322 24.726 Q 83.322 22.99 84.379 22.08 L 84.379 22.08 L 84.379 22.08 Q 85.436 21.17 87.466 21.17 L 87.466 21.17 L 87.466 21.17 Q 88.446 21.17 89.356 21.443 L 89.356 21.443 L 89.356 21.443 Q 90.266 21.716 90.854 22.122 L 90.854 22.122 L 90.854 26.686 L 90.854 26.686 Q 90.854 28.408 89.986 29.444 L 89.986 29.444 L 89.986 29.444 Q 89.118 30.48 87.228 30.48 L 87.228 30.48 L 87.228 30.48 Z  M 87.2 26.322 L 87.2 26.322 Q 87.844 26.322 88.215 25.993 L 88.215 25.993 L 88.215 25.993 Q 88.586 25.664 88.586 25.062 L 88.586 25.062 L 88.586 22.962 L 88.586 22.962 Q 88.11 22.766 87.34 22.766 L 87.34 22.766 L 87.34 22.766 Q 86.486 22.78 86.052 23.2 L 86.052 23.2 L 86.052 23.2 Q 85.618 23.62 85.618 24.6 L 85.618 24.6 L 85.618 24.6 Q 85.618 25.482 86.003 25.902 L 86.003 25.902 L 86.003 25.902 Q 86.388 26.322 87.2 26.322 L 87.2 26.322 L 87.2 26.322 Z  M 95.908 30.48 L 95.908 30.48 Q 95.054 30.48 94.256 30.312 L 94.256 30.312 L 94.256 30.312 Q 93.458 30.144 93.024 29.864 L 93.024 29.864 L 93.024 29.864 Q 92.926 29.78 92.926 29.682 L 92.926 29.682 L 92.926 29.682 Q 92.926 29.612 92.968 29.542 L 92.968 29.542 L 93.472 28.688 L 93.472 28.688 Q 93.514 28.618 93.563 28.569 L 93.563 28.569 L 93.563 28.569 Q 93.612 28.52 93.668 28.52 L 93.668 28.52 L 93.668 28.52 Q 93.696 28.52 93.836 28.576 L 93.836 28.576 L 93.836 28.576 Q 94.494 28.912 95.698 28.912 L 95.698 28.912 L 95.698 28.912 Q 96.496 28.912 96.881 28.548 L 96.881 28.548 L 96.881 28.548 Q 97.266 28.184 97.266 27.33 L 97.266 27.33 L 97.266 27.33 Q 96.594 27.96 95.376 27.96 L 95.376 27.96 L 95.376 27.96 Q 93.752 27.96 92.877 27.12 L 92.877 27.12 L 92.877 27.12 Q 92.002 26.28 92.002 24.726 L 92.002 24.726 L 92.002 24.726 Q 92.002 22.99 93.059 22.08 L 93.059 22.08 L 93.059 22.08 Q 94.116 21.17 96.146 21.17 L 96.146 21.17 L 96.146 21.17 Q 97.126 21.17 98.036 21.443 L 98.036 21.443 L 98.036 21.443 Q 98.946 21.716 99.534 22.122 L 99.534 22.122 L 99.534 26.686 L 99.534 26.686 Q 99.534 28.408 98.666 29.444 L 98.666 29.444 L 98.666 29.444 Q 97.798 30.48 95.908 30.48 L 95.908 30.48 L 95.908 30.48 Z  M 95.88 26.322 L 95.88 26.322 Q 96.524 26.322 96.895 25.993 L 96.895 25.993 L 96.895 25.993 Q 97.266 25.664 97.266 25.062 L 97.266 25.062 L 97.266 22.962 L 97.266 22.962 Q 96.79 22.766 96.02 22.766 L 96.02 22.766 L 96.02 22.766 Q 95.166 22.78 94.732 23.2 L 94.732 23.2 L 94.732 23.2 Q 94.298 23.62 94.298 24.6 L 94.298 24.6 L 94.298 24.6 Q 94.298 25.482 94.683 25.902 L 94.683 25.902 L 94.683 25.902 Q 95.068 26.322 95.88 26.322 L 95.88 26.322 L 95.88 26.322 Z  M 104.672 28.31 L 104.672 28.31 Q 103.538 28.31 102.635 27.925 L 102.635 27.925 L 102.635 27.925 Q 101.732 27.54 101.207 26.763 L 101.207 26.763 L 101.207 26.763 Q 100.682 25.986 100.682 24.838 L 100.682 24.838 L 100.682 24.838 Q 100.682 23.046 101.669 22.108 L 101.669 22.108 L 101.669 22.108 Q 102.656 21.17 104.49 21.17 L 104.49 21.17 L 104.49 21.17 Q 106.296 21.17 107.227 22.08 L 107.227 22.08 L 107.227 22.08 Q 108.158 22.99 108.158 24.67 L 108.158 24.67 L 108.158 24.67 Q 108.158 25.258 107.626 25.258 L 107.626 25.258 L 102.866 25.258 L 102.866 25.258 Q 102.866 26.014 103.433 26.427 L 103.433 26.427 L 103.433 26.427 Q 104 26.84 104.994 26.84 L 104.994 26.84 L 104.994 26.84 Q 105.582 26.84 106.016 26.721 L 106.016 26.721 L 106.016 26.721 Q 106.45 26.602 106.856 26.378 L 106.856 26.378 L 106.856 26.378 Q 106.996 26.308 107.052 26.308 L 107.052 26.308 L 107.052 26.308 Q 107.15 26.308 107.234 26.462 L 107.234 26.462 L 107.64 27.218 L 107.64 27.218 Q 107.696 27.316 107.696 27.386 L 107.696 27.386 L 107.696 27.386 Q 107.696 27.498 107.542 27.61 L 107.542 27.61 L 107.542 27.61 Q 106.982 27.974 106.282 28.142 L 106.282 28.142 L 106.282 28.142 Q 105.582 28.31 104.672 28.31 L 104.672 28.31 L 104.672 28.31 Z  M 102.866 24.054 L 106.086 24.054 L 106.086 24.054 Q 106.086 23.354 105.694 22.962 L 105.694 22.962 L 105.694 22.962 Q 105.302 22.57 104.504 22.57 L 104.504 22.57 L 104.504 22.57 Q 103.706 22.57 103.286 22.969 L 103.286 22.969 L 103.286 22.969 Q 102.866 23.368 102.866 24.054 L 102.866 24.054 L 102.866 24.054 Z  M 109.95 28.1 L 109.95 28.1 Q 109.6 28.1 109.453 27.953 L 109.453 27.953 L 109.453 27.953 Q 109.306 27.806 109.306 27.498 L 109.306 27.498 L 109.306 21.786 L 109.306 21.786 Q 109.306 21.548 109.39 21.464 L 109.39 21.464 L 109.39 21.464 Q 109.474 21.38 109.726 21.38 L 109.726 21.38 L 110.846 21.38 L 110.846 21.38 Q 111.014 21.38 111.091 21.436 L 111.091 21.436 L 111.091 21.436 Q 111.168 21.492 111.182 21.632 L 111.182 21.632 L 111.238 22.08 L 111.238 22.08 Q 112.078 21.17 113.338 21.17 L 113.338 21.17 L 113.338 21.17 Q 113.744 21.17 114.003 21.233 L 114.003 21.233 L 114.003 21.233 Q 114.262 21.296 114.458 21.436 L 114.458 21.436 L 114.458 21.436 Q 114.584 21.534 114.584 21.632 L 114.584 21.632 L 114.584 21.632 Q 114.584 21.674 114.556 21.758 L 114.556 21.758 L 114.206 22.808 L 114.206 22.808 Q 114.15 22.976 114.024 22.976 L 114.024 22.976 L 114.024 22.976 Q 113.968 22.976 113.884 22.934 L 113.884 22.934 L 113.884 22.934 Q 113.52 22.752 113.044 22.752 L 113.044 22.752 L 113.044 22.752 Q 112.428 22.752 112.022 23.102 L 112.022 23.102 L 112.022 23.102 Q 111.616 23.452 111.616 24.04 L 111.616 24.04 L 111.616 27.498 L 111.616 27.498 Q 111.616 27.806 111.476 27.953 L 111.476 27.953 L 111.476 27.953 Q 111.336 28.1 110.986 28.1 L 110.986 28.1 L 109.95 28.1 L 109.95 28.1 Z  M 118.532 28.31 L 118.532 28.31 Q 117.636 28.31 116.824 28.128 L 116.824 28.128 L 116.824 28.128 Q 116.012 27.946 115.396 27.596 L 115.396 27.596 L 115.396 27.596 Q 115.172 27.47 115.172 27.344 L 115.172 27.344 L 115.172 27.344 Q 115.172 27.274 115.242 27.162 L 115.242 27.162 L 115.732 26.294 L 115.732 26.294 Q 115.816 26.154 115.9 26.154 L 115.9 26.154 L 115.9 26.154 Q 115.998 26.154 116.11 26.224 L 116.11 26.224 L 116.11 26.224 Q 116.516 26.462 117.125 26.63 L 117.125 26.63 L 117.125 26.63 Q 117.734 26.798 118.238 26.798 L 118.238 26.798 L 118.238 26.798 Q 118.854 26.798 119.127 26.665 L 119.127 26.665 L 119.127 26.665 Q 119.4 26.532 119.4 26.21 L 119.4 26.21 L 119.4 26.21 Q 119.4 26 119.225 25.853 L 119.225 25.853 L 119.225 25.853 Q 119.05 25.706 118.742 25.601 L 118.742 25.601 L 118.742 25.601 Q 118.434 25.496 117.678 25.272 L 117.678 25.272 L 117.678 25.272 Q 116.516 24.922 115.984 24.474 L 115.984 24.474 L 115.984 24.474 Q 115.452 24.026 115.452 23.2 L 115.452 23.2 L 115.452 23.2 Q 115.452 22.206 116.285 21.688 L 116.285 21.688 L 116.285 21.688 Q 117.118 21.17 118.518 21.17 L 118.518 21.17 L 118.518 21.17 Q 120.17 21.17 121.332 21.842 L 121.332 21.842 L 121.332 21.842 Q 121.556 21.968 121.556 22.108 L 121.556 22.108 L 121.556 22.108 Q 121.556 22.192 121.472 22.318 L 121.472 22.318 L 120.996 23.074 L 120.996 23.074 Q 120.912 23.214 120.828 23.214 L 120.828 23.214 L 120.828 23.214 Q 120.758 23.214 120.632 23.13 L 120.632 23.13 L 120.632 23.13 Q 120.282 22.934 119.806 22.808 L 119.806 22.808 L 119.806 22.808 Q 119.33 22.682 118.854 22.682 L 118.854 22.682 L 118.854 22.682 Q 118.266 22.682 117.972 22.815 L 117.972 22.815 L 117.972 22.815 Q 117.678 22.948 117.678 23.284 L 117.678 23.284 L 117.678 23.284 Q 117.678 23.564 118.007 23.725 L 118.007 23.725 L 118.007 23.725 Q 118.336 23.886 119.106 24.096 L 119.106 24.096 L 119.876 24.32 L 119.876 24.32 Q 120.59 24.558 120.982 24.81 L 120.982 24.81 L 120.982 24.81 Q 121.374 25.062 121.542 25.398 L 121.542 25.398 L 121.542 25.398 Q 121.71 25.734 121.71 26.252 L 121.71 26.252 L 121.71 26.252 Q 121.71 27.148 120.898 27.729 L 120.898 27.729 L 120.898 27.729 Q 120.086 28.31 118.532 28.31 L 118.532 28.31 L 118.532 28.31 Z  M 51.42 28.1 L 51.42 28.1 Q 51.084 28.1 50.937 27.953 L 50.937 27.953 L 50.937 27.953 Q 50.79 27.806 50.79 27.498 L 50.79 27.498 L 50.79 19.196 L 50.79 19.196 Q 50.79 18.888 50.937 18.734 L 50.937 18.734 L 50.937 18.734 Q 51.084 18.58 51.42 18.58 L 51.42 18.58 L 52.47 18.58 L 52.47 18.58 Q 52.82 18.58 52.96 18.727 L 52.96 18.727 L 52.96 18.727 Q 53.1 18.874 53.1 19.196 L 53.1 19.196 L 53.1 27.498 L 53.1 27.498 Q 53.1 27.806 52.96 27.953 L 52.96 27.953 L 52.96 27.953 Q 52.82 28.1 52.47 28.1 L 52.47 28.1 L 51.42 28.1 L 51.42 28.1 Z  M 56.78 24.74 L 56.78 24.74 Q 56.472 24.74 56.36 24.607 L 56.36 24.607 L 56.36 24.607 Q 56.248 24.474 56.248 24.194 L 56.248 24.194 L 56.248 23.578 L 56.248 23.578 Q 56.248 23.298 56.36 23.165 L 56.36 23.165 L 56.36 23.165 Q 56.472 23.032 56.78 23.032 L 56.78 23.032 L 61.428 23.032 L 61.428 23.032 Q 61.722 23.032 61.841 23.165 L 61.841 23.165 L 61.841 23.165 Q 61.96 23.298 61.96 23.578 L 61.96 23.578 L 61.96 24.194 L 61.96 24.194 Q 61.96 24.474 61.841 24.607 L 61.841 24.607 L 61.841 24.607 Q 61.722 24.74 61.428 24.74 L 61.428 24.74 L 56.78 24.74 L 56.78 24.74 Z  M 27.2 28.1 L 27.2 28.1 Q 26.864 28.1 26.717 27.953 L 26.717 27.953 L 26.717 27.953 Q 26.57 27.806 26.57 27.498 L 26.57 27.498 L 26.57 19.182 L 26.57 19.182 Q 26.57 18.874 26.717 18.727 L 26.717 18.727 L 26.717 18.727 Q 26.864 18.58 27.214 18.58 L 27.214 18.58 L 28.25 18.58 L 28.25 18.58 Q 28.502 18.58 28.642 18.643 L 28.642 18.643 L 28.642 18.643 Q 28.782 18.706 28.866 18.888 L 28.866 18.888 L 31.288 24.6 L 33.724 18.888 L 33.724 18.888 Q 33.808 18.706 33.948 18.643 L 33.948 18.643 L 33.948 18.643 Q 34.088 18.58 34.34 18.58 L 34.34 18.58 L 35.376 18.58 L 35.376 18.58 Q 35.726 18.58 35.873 18.727 L 35.873 18.727 L 35.873 18.727 Q 36.02 18.874 36.02 19.182 L 36.02 19.182 L 36.02 27.498 L 36.02 27.498 Q 36.02 27.806 35.873 27.953 L 35.873 27.953 L 35.873 27.953 Q 35.726 28.1 35.39 28.1 L 35.39 28.1 L 34.536 28.1 L 34.536 28.1 Q 34.186 28.1 34.039 27.953 L 34.039 27.953 L 34.039 27.953 Q 33.892 27.806 33.892 27.498 L 33.892 27.498 L 33.892 22.206 L 32.016 26.392 L 32.016 26.392 Q 31.876 26.686 31.743 26.805 L 31.743 26.805 L 31.743 26.805 Q 31.61 26.924 31.288 26.924 L 31.288 26.924 L 31.288 26.924 Q 30.98 26.924 30.833 26.805 L 30.833 26.805 L 30.833 26.805 Q 30.686 26.686 30.56 26.392 L 30.56 26.392 L 28.698 22.206 L 28.698 27.498 L 28.698 27.498 Q 28.698 27.806 28.551 27.953 L 28.551 27.953 L 28.551 27.953 Q 28.404 28.1 28.054 28.1 L 28.054 28.1 L 27.2 28.1 L 27.2 28.1 Z  M 38.078 28.1 L 38.078 28.1 Q 37.742 28.1 37.595 27.953 L 37.595 27.953 L 37.595 27.953 Q 37.448 27.806 37.448 27.498 L 37.448 27.498 L 37.448 19.196 L 37.448 19.196 Q 37.448 18.888 37.595 18.734 L 37.595 18.734 L 37.595 18.734 Q 37.742 18.58 38.078 18.58 L 38.078 18.58 L 39.128 18.58 L 39.128 18.58 Q 39.478 18.58 39.618 18.727 L 39.618 18.727 L 39.618 18.727 Q 39.758 18.874 39.758 19.196 L 39.758 19.196 L 39.758 27.498 L 39.758 27.498 Q 39.758 27.806 39.618 27.953 L 39.618 27.953 L 39.618 27.953 Q 39.478 28.1 39.128 28.1 L 39.128 28.1 L 38.078 28.1 L 38.078 28.1 Z  M 41.816 28.1 L 41.816 28.1 Q 41.48 28.1 41.333 27.953 L 41.333 27.953 L 41.333 27.953 Q 41.186 27.806 41.186 27.498 L 41.186 27.498 L 41.186 19.196 L 41.186 19.196 Q 41.186 18.888 41.333 18.734 L 41.333 18.734 L 41.333 18.734 Q 41.48 18.58 41.816 18.58 L 41.816 18.58 L 44.756 18.58 L 44.756 18.58 Q 47.15 18.58 48.396 19.728 L 48.396 19.728 L 48.396 19.728 Q 49.642 20.876 49.642 23.34 L 49.642 23.34 L 49.642 23.34 Q 49.642 25.776 48.382 26.938 L 48.382 26.938 L 48.382 26.938 Q 47.122 28.1 44.756 28.1 L 44.756 28.1 L 41.816 28.1 L 41.816 28.1 Z  M 43.496 26.406 L 44.868 26.406 L 44.868 26.406 Q 46.114 26.406 46.73 25.713 L 46.73 25.713 L 46.73 25.713 Q 47.346 25.02 47.346 23.34 L 47.346 23.34 L 47.346 23.34 Q 47.346 21.66 46.73 20.974 L 46.73 20.974 L 46.73 20.974 Q 46.114 20.288 44.868 20.288 L 44.868 20.288 L 43.496 20.288 L 43.496 26.406 L 43.496 26.406 Z " fill-rule="evenodd" fill="rgb(23,34,41)"/></g><path d=" M 21.166666 214 L 26.5 217.333328 L 32.833332 214.666672 L 35.833332 218.333328 L 38.833332 222 L 36.5 227.333328 L 37.833332 232.333328 L 36.833332 240 L 37.5 243.666672 L 29.5 242.666672 L 24.166666 244.666672 L 20.5 241.666672 L 14.833333 243.666672 L 8.166667 238.333328 L 9.5 232.333328 L 9.166667 225.333328 L 11.833333 220 L 7.166667 215 L 15.5 213.333328 L 21.166666 214 Z " fill="rgb(23,34,41)"/><path d=" M 48.833332 215 L 54.5 213 L 60.166668 216 L 67.5 213.333328 L 68.5 219 L 73.833336 224.666672 L 71.5 228.666672 L 71.833336 235.333328 L 67.833336 239.333328 L 70.5 244.333328 L 61.833332 243.333328 L 58.166668 239.333328 L 47.166668 246 L 46.5 241.333328 L 42.166668 236 L 46.166668 231 L 41.166668 223 L 43.166668 214.666672 L 48.833332 215 Z " fill="rgb(23,34,41)"/><path d=" M 87.5 212 L 90.833336 216.333328 L 98.833336 214 L 102.833336 218 L 107.5 222.333328 L 103.833336 228 L 106.166664 238.666672 L 100.5 241.666672 L 92.166664 244.666672 L 88.5 238.666672 L 82.166664 243.666672 L 76.5 238.333328 L 81.166664 234 L 76.166664 226.333328 L 78.166664 220 L 77.5 215.333328 L 87.5 212 Z " fill="rgb(23,34,41)"/><path d=" M 122.166664 213.333328 L 128.5 215.666672 L 132.166672 213.333328 L 138.166672 215 L 140.833328 225 L 138.166672 228.333328 L 139.5 235 L 138.166672 242.333328 L 131.833328 243.333328 L 123.166664 241.333328 L 116.5 242.333328 L 112.833336 239.333328 L 111.833336 231.333328 L 113.5 223.666672 L 111.166664 221.666672 L 113.833336 214 L 122.166664 213.333328 Z " fill="rgb(23,34,41)"/><path d=" M 114.5 250.666672 L 123.5 248 L 129.166672 250 L 135.166672 249.666672 L 139.166672 252 L 142.833328 258 L 139.833328 261.666656 L 139.833328 267.666656 L 140.833328 274 L 136.166672 277 L 128.166672 277 L 124.5 280 L 116.833336 276 L 111.833336 275.666656 L 111.5 268.333344 L 112.166664 264.666656 L 110.5 257.333344 L 114.5 250.666672 Z " fill="rgb(23,34,41)"/><path d=" M 114.166664 284.333344 L 120.833336 283 L 122.833336 283.666656 L 129.833328 283.666656 L 136.833328 286 L 140.5 286 L 141.5 296.666656 L 139.5 300.333344 L 139.5 310.333344 L 131.833328 309.333344 L 126.833336 312.333344 L 118.166664 312.333344 L 117.166664 310 L 111.833336 306 L 111.833336 297 L 110.5 289.666656 L 114.166664 284.333344 Z " fill="rgb(23,34,41)"/><path d=" M 115.833336 317.333344 L 122.833336 316.666656 L 129.833328 318.333344 L 139.5 318.666656 L 139.5 324.333344 L 142.5 330.333344 L 139.166672 339 L 138.166672 347 L 131.5 345 L 126.833336 346.333344 L 119.166664 345.666656 L 113.166664 343 L 112.166664 336.666656 L 113.166664 332.333344 L 111.5 325.666656 L 112.5 320.666656 L 115.833336 317.333344 Z " fill="rgb(23,34,41)"/><path d=" M 82.833336 284.666656 L 88.833336 283.333344 L 97.5 283 L 103.833336 286.333344 L 107.833336 292.333344 L 105.166664 296.666656 L 106.833336 306.666656 L 104.5 311.333344 L 96.166664 311.666656 L 87.166664 311.333344 L 84.166664 312.666656 L 76.5 305.333344 L 77.833336 300.333344 L 77.833336 291.666656 L 82.833336 284.666656 Z " fill="rgb(23,34,41)"/><path d=" M 81.166664 249.666672 L 88.5 248.333328 L 91.5 249.333328 L 101.5 250 L 104.166664 249.666672 L 105.5 258 L 105.5 264.333344 L 106.5 270.666656 L 102.833336 276 L 95.166664 276.666656 L 86.833336 277 L 80.833336 275 L 79.833336 271.333344 L 77.166664 265.666656 L 77.833336 257.333344 L 81.166664 249.666672 Z " fill="rgb(23,34,41)"/><path d=" M 49.166668 250.666672 L 53.5 249.333328 L 61.5 251 L 65.833336 248.666672 L 71.833336 255 L 70.166664 259.666656 L 73.166664 270.666656 L 70.833336 275.333344 L 61.833332 277.333344 L 52.5 274 L 46.5 276.666656 L 45.166668 269 L 41.5 264.333344 L 43.833332 255 L 49.166668 250.666672 Z " fill="rgb(23,34,41)"/><path d=" M 15.166667 248.666672 L 25.166666 248.666672 L 28.166666 250.666672 L 32.5 252.333328 L 37.166668 253 L 37.833332 260 L 36.166668 268 L 37.5 275.333344 L 30.833334 275.666656 L 17.166666 277.333344 L 11.5 278.333344 L 10.5 268.333344 L 7.833333 259 L 9.833333 254 L 15.166667 248.666672 Z " fill="rgb(23,34,41)"/><path d=" M 46.5 283.666656 L 54.5 281.666656 L 60.833332 283 L 71.166664 285.333344 L 70.833336 294.333344 L 72.833336 301 L 70.166664 306.666656 L 70.166664 312.333344 L 61.5 311 L 52.5 311.333344 L 45.5 307.333344 L 41.833332 300 L 43.5 296.333344 L 43.5 290 L 46.5 283.666656 Z " fill="rgb(23,34,41)"/><path d=" M 84.166664 318 L 92.166664 315.666656 L 99.166664 318.666656 L 107.5 319 L 106.166664 327 L 106.166664 334.333344 L 105.166664 337.666656 L 105.833336 345.333344 L 100.5 345.333344 L 95.833336 346.666656 L 90.833336 342.333344 L 85.833336 346.666656 L 76.833336 342.666656 L 78.5 333.666656 L 76.166664 329.666656 L 79.5 320.666656 L 84.166664 318 Z " fill="rgb(23,34,41)"/><path d=" M 18.833334 316.666656 L 23.833334 318.333344 L 27.833334 316.666656 L 31.833334 318.666656 L 38.5 318.666656 L 35.833332 324.333344 L 37.5 331.666656 L 35.166668 335.666656 L 36.166668 342 L 31.833334 348.333344 L 26.833334 346.333344 L 17.5 346 L 15.166667 343.333344 L 10.5 344.333344 L 9.833333 336.666656 L 7.833333 332.333344 L 10.166667 328.333344 L 8.833333 321 L 10.833333 319 L 18.833334 316.666656 Z " fill="rgb(23,34,41)"/><path d=" M 16.833334 284.333344 L 21.833334 283.333344 L 29.5 283.333344 L 33.5 282.333344 L 35.5 287.333344 L 34.833332 293.333344 L 35.5 296 L 38.5 303.333344 L 36.5 312 L 31.166666 310.666656 L 20.833334 311.333344 L 12.166667 308.333344 L 8.5 310.333344 L 8.5 297.666656 L 10.5 295.333344 L 8.5 287 L 11.5 283.666656 L 16.833334 284.333344 Z " fill="rgb(23,34,41)"/><path d=" M 55.5 319 L 61.166668 318.333344 L 69.166664 320.666656 L 71.833336 325.666656 L 69.833336 333.333344 L 72.5 338.666656 L 70.5 345 L 64.166664 345 L 60.166668 346.666656 L 52.833332 344.666656 L 47.5 346 L 42.166668 339 L 44.166668 332.333344 L 42.833332 326 L 44.5 322.666656 L 44.166668 317 L 53.166668 315.666656 L 55.5 319 Z " fill="rgb(23,34,41)"/></g></svg>