<?xml version="1.0" standalone="no"?><!-- Generator: Gravit.io --><svg xmlns="http://www.w3.org/2000/svg" xmlns:xlink="http://www.w3.org/1999/xlink" style="isolation:isolate" viewBox="0 0 150 380" width="150" height="380"><defs><clipPath id="_clipPath_KwzFMvklqNQLI0SrRtpdVb7R1x33Gjni"><rect width="150" height="380"/></clipPath></defs><g clip-path="url(#_clipPath_KwzFMvklqNQLI0SrRtpdVb7R1x33Gjni)"><g id="bg"><rect x="0" y="0" width="150" height="380" transform="matrix(1,0,0,1,0,0)" fill="rgb(240,240,240)"/><path d=" M 69.082 369.599 C 68.927 369.747 68.783 369.851 68.65 369.909 C 68.517 369.968 68.375 369.998 68.224 369.998 C 68.072 369.998 67.93 369.97 67.797 369.914 C 67.664 369.858 67.548 369.781 67.449 369.682 C 67.233 369.466 67.124 369.209 67.124 368.912 L 67.124 363.385 C 67.124 363.082 67.202 362.847 67.356 362.68 C 67.622 362.408 67.874 362.272 68.112 362.272 C 68.35 362.272 68.528 362.296 68.646 362.346 C 68.763 362.395 68.862 362.457 68.942 362.531 C 69.048 362.624 69.126 362.723 69.179 362.828 C 69.232 362.933 69.275 363.011 69.309 363.06 C 69.343 363.11 69.399 363.134 69.476 363.134 C 69.553 363.134 69.62 363.11 69.675 363.06 L 69.833 362.902 C 70.284 362.482 70.736 362.272 71.187 362.272 C 71.985 362.272 72.643 362.599 73.163 363.255 C 73.212 363.323 73.274 363.357 73.348 363.357 C 73.478 363.357 73.61 363.256 73.743 363.055 C 73.876 362.854 74.09 362.674 74.387 362.513 C 74.684 362.352 75.03 362.272 75.426 362.272 C 75.822 362.272 76.182 362.344 76.507 362.49 C 76.831 362.635 77.114 362.834 77.355 363.088 C 77.862 363.62 78.116 364.263 78.116 365.017 L 78.116 368.912 C 78.116 369.382 77.893 369.713 77.448 369.905 C 77.312 369.967 77.168 369.998 77.017 369.998 C 76.865 369.998 76.723 369.97 76.59 369.914 C 76.457 369.858 76.341 369.781 76.242 369.682 C 76.032 369.46 75.927 369.203 75.927 368.912 L 75.927 365.045 C 75.927 364.736 75.85 364.504 75.695 364.349 C 75.423 364.077 75.173 363.941 74.944 363.941 C 74.715 363.941 74.536 363.971 74.406 364.029 C 74.276 364.088 74.158 364.17 74.053 364.275 C 73.837 364.492 73.729 364.742 73.729 365.026 L 73.729 368.912 C 73.729 369.382 73.509 369.713 73.07 369.905 C 72.934 369.967 72.79 369.998 72.639 369.998 C 72.487 369.998 72.344 369.97 72.207 369.914 C 72.071 369.858 71.954 369.781 71.855 369.682 C 71.639 369.466 71.53 369.209 71.53 368.912 L 71.53 365.045 C 71.53 364.736 71.453 364.504 71.298 364.349 C 71.026 364.077 70.742 363.941 70.445 363.941 C 69.95 363.941 69.607 364.133 69.416 364.516 C 69.354 364.64 69.323 364.779 69.323 364.934 L 69.323 368.912 C 69.323 369.215 69.242 369.444 69.082 369.599 Z  M 80.343 363.387 C 80.343 363.084 80.42 362.849 80.575 362.682 C 80.84 362.41 81.134 362.274 81.456 362.274 C 81.765 362.274 81.994 362.355 82.142 362.515 C 82.414 362.794 82.55 363.084 82.55 363.387 L 82.55 368.915 C 82.55 369.212 82.473 369.437 82.318 369.592 C 82.046 369.864 81.796 370 81.567 370 C 81.338 370 81.156 369.971 81.02 369.912 C 80.884 369.853 80.766 369.777 80.667 369.685 C 80.451 369.474 80.343 369.218 80.343 368.915 L 80.343 363.387 Z  M 81.451 359.9 C 81.189 359.9 80.976 359.687 80.976 359.425 C 80.976 359.162 81.189 358.95 81.451 358.95 C 81.713 358.95 81.926 359.162 81.926 359.425 C 81.926 359.687 81.713 359.9 81.451 359.9 Z  M 81.451 358 C 81.838 358 82.172 358.142 82.453 358.425 C 82.735 358.709 82.876 358.996 82.876 359.287 C 82.876 359.577 82.837 359.807 82.759 359.978 C 82.682 360.148 82.58 360.297 82.453 360.424 C 82.172 360.708 81.838 360.849 81.451 360.849 C 81.064 360.849 80.73 360.708 80.448 360.424 C 80.167 360.141 80.026 359.857 80.026 359.574 C 80.026 359.092 80.167 358.709 80.448 358.425 C 80.73 358.142 81.064 358 81.451 358 Z " fill-rule="evenodd" fill="rgb(10,118,187)"/><path d=" M 0 174 L 150 60 L 150 80 L 0 194 L 0 174 Z  M 0 214 L 150 100 L 150 120 L 0 234 L 0 214 Z  M 0 134 L 150 20 L 150 40 L 0 154 L 0 134 Z " fill-rule="evenodd" fill="rgb(0,0,0)" fill-opacity="0.02"/><path d=" M 95.152 25.64 L 95.152 25.64 Q 92.432 25.64 90.944 24.168 L 90.944 24.168 L 90.944 24.168 Q 89.456 22.696 89.456 19.96 L 89.456 19.96 L 89.456 19.96 Q 89.456 17.224 90.92 15.752 L 90.92 15.752 L 90.92 15.752 Q 92.384 14.28 95.104 14.28 L 95.104 14.28 L 95.104 14.28 Q 96.192 14.28 97.12 14.504 L 97.12 14.504 L 97.12 14.504 Q 98.048 14.728 98.688 15.144 L 98.688 15.144 L 98.688 15.144 Q 98.832 15.24 98.832 15.352 L 98.832 15.352 L 98.832 15.352 Q 98.832 15.448 98.752 15.576 L 98.752 15.576 L 98.304 16.344 L 98.304 16.344 Q 98.208 16.488 98.128 16.488 L 98.128 16.488 L 98.128 16.488 Q 98.064 16.488 97.904 16.408 L 97.904 16.408 L 97.904 16.408 Q 96.896 15.8 95.328 15.8 L 95.328 15.8 L 95.328 15.8 Q 93.52 15.8 92.496 16.84 L 92.496 16.84 L 92.496 16.84 Q 91.472 17.88 91.472 19.96 L 91.472 19.96 L 91.472 19.96 Q 91.472 22.072 92.528 23.104 L 92.528 23.104 L 92.528 23.104 Q 93.584 24.136 95.376 24.136 L 95.376 24.136 L 95.376 24.136 Q 97.04 24.136 98.112 23.512 L 98.112 23.512 L 98.112 23.512 Q 98.272 23.432 98.32 23.432 L 98.32 23.432 L 98.32 23.432 Q 98.416 23.432 98.512 23.576 L 98.512 23.576 L 99.008 24.408 L 99.008 24.408 Q 99.056 24.504 99.056 24.568 L 99.056 24.568 L 99.056 24.568 Q 99.056 24.664 98.88 24.776 L 98.88 24.776 L 98.88 24.776 Q 97.648 25.64 95.152 25.64 L 95.152 25.64 L 95.152 25.64 Z  M 105.984 25.64 L 105.984 25.64 Q 103.264 25.64 101.776 24.168 L 101.776 24.168 L 101.776 24.168 Q 100.288 22.696 100.288 19.96 L 100.288 19.96 L 100.288 19.96 Q 100.288 17.224 101.752 15.752 L 101.752 15.752 L 101.752 15.752 Q 103.216 14.28 105.936 14.28 L 105.936 14.28 L 105.936 14.28 Q 107.024 14.28 107.952 14.504 L 107.952 14.504 L 107.952 14.504 Q 108.88 14.728 109.52 15.144 L 109.52 15.144 L 109.52 15.144 Q 109.664 15.24 109.664 15.352 L 109.664 15.352 L 109.664 15.352 Q 109.664 15.448 109.584 15.576 L 109.584 15.576 L 109.136 16.344 L 109.136 16.344 Q 109.04 16.488 108.96 16.488 L 108.96 16.488 L 108.96 16.488 Q 108.896 16.488 108.736 16.408 L 108.736 16.408 L 108.736 16.408 Q 107.728 15.8 106.16 15.8 L 106.16 15.8 L 106.16 15.8 Q 104.352 15.8 103.328 16.84 L 103.328 16.84 L 103.328 16.84 Q 102.304 17.88 102.304 19.96 L 102.304 19.96 L 102.304 19.96 Q 102.304 22.072 103.36 23.104 L 103.36 23.104 L 103.36 23.104 Q 104.416 24.136 106.208 24.136 L 106.208 24.136 L 106.208 24.136 Q 107.872 24.136 108.944 23.512 L 108.944 23.512 L 108.944 23.512 Q 109.104 23.432 109.152 23.432 L 109.152 23.432 L 109.152 23.432 Q 109.248 23.432 109.344 23.576 L 109.344 23.576 L 109.84 24.408 L 109.84 24.408 Q 109.888 24.504 109.888 24.568 L 109.888 24.568 L 109.888 24.568 Q 109.888 24.664 109.712 24.776 L 109.712 24.776 L 109.712 24.776 Q 108.48 25.64 105.984 25.64 L 105.984 25.64 L 105.984 25.64 Z  M 76.144 21.4 L 76.144 21.4 Q 75.888 21.4 75.784 21.288 L 75.784 21.288 L 75.784 21.288 Q 75.68 21.176 75.68 20.92 L 75.68 20.92 L 75.68 20.328 L 75.68 20.328 Q 75.68 20.072 75.784 19.96 L 75.784 19.96 L 75.784 19.96 Q 75.888 19.848 76.144 19.848 L 76.144 19.848 L 81.504 19.848 L 81.504 19.848 Q 81.744 19.848 81.856 19.968 L 81.856 19.968 L 81.856 19.968 Q 81.968 20.088 81.968 20.328 L 81.968 20.328 L 81.968 20.92 L 81.968 20.92 Q 81.968 21.16 81.856 21.28 L 81.856 21.28 L 81.856 21.28 Q 81.744 21.4 81.504 21.4 L 81.504 21.4 L 76.144 21.4 L 76.144 21.4 Z  M 39.04 25.4 L 39.04 25.4 Q 38.72 25.4 38.584 25.256 L 38.584 25.256 L 38.584 25.256 Q 38.448 25.112 38.448 24.824 L 38.448 24.824 L 38.448 15.112 L 38.448 15.112 Q 38.448 14.808 38.584 14.664 L 38.584 14.664 L 38.584 14.664 Q 38.72 14.52 39.056 14.52 L 39.056 14.52 L 39.92 14.52 L 39.92 14.52 Q 40.176 14.52 40.312 14.584 L 40.312 14.584 L 40.312 14.584 Q 40.448 14.648 40.528 14.84 L 40.528 14.84 L 43.76 22.28 L 46.992 14.84 L 46.992 14.84 Q 47.072 14.648 47.208 14.584 L 47.208 14.584 L 47.208 14.584 Q 47.344 14.52 47.6 14.52 L 47.6 14.52 L 48.464 14.52 L 48.464 14.52 Q 48.8 14.52 48.936 14.664 L 48.936 14.664 L 48.936 14.664 Q 49.072 14.808 49.072 15.112 L 49.072 15.112 L 49.072 24.824 L 49.072 24.824 Q 49.072 25.112 48.936 25.256 L 48.936 25.256 L 48.936 25.256 Q 48.8 25.4 48.48 25.4 L 48.48 25.4 L 47.776 25.4 L 47.776 25.4 Q 47.456 25.4 47.312 25.256 L 47.312 25.256 L 47.312 25.256 Q 47.168 25.112 47.168 24.824 L 47.168 24.824 L 47.168 17.928 L 44.432 24.024 L 44.432 24.024 Q 44.304 24.28 44.176 24.392 L 44.176 24.392 L 44.176 24.392 Q 44.048 24.504 43.76 24.504 L 43.76 24.504 L 43.76 24.504 Q 43.472 24.504 43.336 24.392 L 43.336 24.392 L 43.336 24.392 Q 43.2 24.28 43.088 24.024 L 43.088 24.024 L 40.352 17.928 L 40.352 24.824 L 40.352 24.824 Q 40.352 25.112 40.216 25.256 L 40.216 25.256 L 40.216 25.256 Q 40.08 25.4 39.744 25.4 L 39.744 25.4 L 39.04 25.4 L 39.04 25.4 Z  M 51.552 25.4 L 51.552 25.4 Q 51.232 25.4 51.096 25.256 L 51.096 25.256 L 51.096 25.256 Q 50.96 25.112 50.96 24.824 L 50.96 24.824 L 50.96 15.112 L 50.96 15.112 Q 50.96 14.808 51.096 14.664 L 51.096 14.664 L 51.096 14.664 Q 51.232 14.52 51.552 14.52 L 51.552 14.52 L 52.4 14.52 L 52.4 14.52 Q 52.72 14.52 52.864 14.664 L 52.864 14.664 L 52.864 14.664 Q 53.008 14.808 53.008 15.112 L 53.008 15.112 L 53.008 24.824 L 53.008 24.824 Q 53.008 25.112 52.872 25.256 L 52.872 25.256 L 52.872 25.256 Q 52.736 25.4 52.4 25.4 L 52.4 25.4 L 51.552 25.4 L 51.552 25.4 Z  M 55.488 25.4 L 55.488 25.4 Q 55.168 25.4 55.032 25.256 L 55.032 25.256 L 55.032 25.256 Q 54.896 25.112 54.896 24.824 L 54.896 24.824 L 54.896 15.112 L 54.896 15.112 Q 54.896 14.808 55.032 14.664 L 55.032 14.664 L 55.032 14.664 Q 55.168 14.52 55.488 14.52 L 55.488 14.52 L 58.688 14.52 L 58.688 14.52 Q 61.392 14.52 62.824 15.816 L 62.824 15.816 L 62.824 15.816 Q 64.256 17.112 64.256 19.96 L 64.256 19.96 L 64.256 19.96 Q 64.256 25.4 58.688 25.4 L 58.688 25.4 L 55.488 25.4 L 55.488 25.4 Z  M 56.944 23.848 L 58.816 23.848 L 58.816 23.848 Q 60.512 23.848 61.368 22.968 L 61.368 22.968 L 61.368 22.968 Q 62.224 22.088 62.224 19.96 L 62.224 19.96 L 62.224 19.96 Q 62.224 17.832 61.368 16.96 L 61.368 16.96 L 61.368 16.96 Q 60.512 16.088 58.816 16.088 L 58.816 16.088 L 56.944 16.088 L 56.944 23.848 L 56.944 23.848 Z  M 66.416 25.4 L 66.416 25.4 Q 66.096 25.4 65.96 25.256 L 65.96 25.256 L 65.96 25.256 Q 65.824 25.112 65.824 24.824 L 65.824 24.824 L 65.824 15.112 L 65.824 15.112 Q 65.824 14.808 65.96 14.664 L 65.96 14.664 L 65.96 14.664 Q 66.096 14.52 66.416 14.52 L 66.416 14.52 L 67.264 14.52 L 67.264 14.52 Q 67.584 14.52 67.728 14.664 L 67.728 14.664 L 67.728 14.664 Q 67.872 14.808 67.872 15.112 L 67.872 15.112 L 67.872 24.824 L 67.872 24.824 Q 67.872 25.112 67.736 25.256 L 67.736 25.256 L 67.736 25.256 Q 67.6 25.4 67.264 25.4 L 67.264 25.4 L 66.416 25.4 L 66.416 25.4 Z " fill-rule="evenodd" fill="rgb(0,0,0)"/></g><g id="layer1"><path d=" M 72.168 320.075 C 72.168 318.73 71.069 317.634 69.727 317.634 L 46.021 317.634 C 44.678 317.634 43.579 318.73 43.579 320.075 L 43.579 343.821 C 43.579 345.166 44.678 346.266 46.021 346.266 L 69.727 346.266 C 71.069 346.266 72.168 345.166 72.168 343.821 L 72.168 320.075 Z " fill="rgb(0,0,0)"/><path d=" M 106.421 320.075 C 106.421 318.73 105.322 317.634 103.979 317.634 L 80.273 317.634 C 78.931 317.634 77.832 318.73 77.832 320.075 L 77.832 343.821 C 77.832 345.166 78.931 346.266 80.273 346.266 L 103.979 346.266 C 105.322 346.266 106.421 345.166 106.421 343.821 L 106.421 320.075 Z " fill="rgb(0,0,0)"/><path d=" M 140.674 320.075 C 140.674 318.73 139.575 317.634 138.232 317.634 L 114.522 317.634 C 113.184 317.634 112.085 318.73 112.085 320.075 L 112.085 343.821 C 112.085 345.166 113.184 346.266 114.522 346.266 L 138.232 346.266 C 139.575 346.266 140.674 345.166 140.674 343.821 L 140.674 320.075 Z " fill="rgb(0,0,0)"/><path d=" M 37.915 320.075 C 37.915 318.73 36.82 317.634 35.478 317.634 L 11.768 317.634 C 10.425 317.634 9.326 318.73 9.326 320.075 L 9.326 343.821 C 9.326 345.166 10.425 346.266 11.768 346.266 L 35.478 346.266 C 36.82 346.266 37.915 345.166 37.915 343.821 L 37.915 320.075 Z " fill="rgb(0,0,0)"/><path d=" M 35.433 298.721 C 35.433 305.848 30.147 311.627 23.621 311.627 C 17.098 311.627 11.812 305.848 11.812 298.721 C 11.812 291.594 17.098 285.815 23.621 285.815 C 30.147 285.815 35.433 291.594 35.433 298.721 Z " fill="rgb(0,0,0)"/><path d=" M 72.168 285.774 C 72.168 284.43 71.069 283.329 69.727 283.329 L 46.021 283.329 C 44.678 283.329 43.579 284.43 43.579 285.774 L 43.579 309.516 C 43.579 310.861 44.678 311.961 46.021 311.961 L 69.727 311.961 C 71.069 311.961 72.168 310.861 72.168 309.516 L 72.168 285.774 Z " fill="rgb(0,0,0)"/><path d=" M 106.421 285.774 C 106.421 284.43 105.322 283.329 103.979 283.329 L 80.273 283.329 C 78.931 283.329 77.832 284.43 77.832 285.774 L 77.832 309.516 C 77.832 310.861 78.931 311.961 80.273 311.961 L 103.979 311.961 C 105.322 311.961 106.421 310.861 106.421 309.516 L 106.421 285.774 Z " fill="rgb(0,0,0)"/><path d=" M 140.674 285.774 C 140.674 284.43 139.575 283.329 138.232 283.329 L 114.522 283.329 C 113.184 283.329 112.085 284.43 112.085 285.774 L 112.085 309.516 C 112.085 310.861 113.184 311.961 114.522 311.961 L 138.232 311.961 C 139.575 311.961 140.674 310.861 140.674 309.516 L 140.674 285.774 Z " fill="rgb(0,0,0)"/><path d=" M 37.915 285.774 C 37.915 284.43 36.82 283.329 35.478 283.329 L 11.768 283.329 C 10.425 283.329 9.326 284.43 9.326 285.774 L 9.326 309.516 C 9.326 310.861 10.425 311.961 11.768 311.961 L 35.478 311.961 C 36.82 311.961 37.915 310.861 37.915 309.516 L 37.915 285.774 Z " fill="rgb(0,0,0)"/><path d=" M 35.433 298.721 C 35.433 305.848 30.147 311.627 23.621 311.627 C 17.098 311.627 11.812 305.848 11.812 298.721 C 11.812 291.594 17.098 285.815 23.621 285.815 C 30.147 285.815 35.433 291.594 35.433 298.721 Z " fill="rgb(0,0,0)"/><path d=" M 138.188 298.721 C 138.188 305.848 132.902 311.627 126.379 311.627 C 119.857 311.627 114.567 305.848 114.567 298.721 C 114.567 291.594 119.857 285.815 126.379 285.815 C 132.902 285.815 138.188 291.594 138.188 298.721 Z " fill="rgb(0,0,0)"/><path d=" M 72.168 251.47 C 72.168 250.125 71.069 249.025 69.727 249.025 L 46.021 249.025 C 44.678 249.025 43.579 250.125 43.579 251.47 L 43.579 275.212 C 43.579 276.556 44.678 277.657 46.021 277.657 L 69.727 277.657 C 71.069 277.657 72.168 276.556 72.168 275.212 L 72.168 251.47 Z " fill="rgb(0,0,0)"/><path d=" M 106.421 251.47 C 106.421 250.125 105.322 249.025 103.979 249.025 L 80.273 249.025 C 78.931 249.025 77.832 250.125 77.832 251.47 L 77.832 275.212 C 77.832 276.556 78.931 277.657 80.273 277.657 L 103.979 277.657 C 105.322 277.657 106.421 276.556 106.421 275.212 L 106.421 251.47 Z " fill="rgb(0,0,0)"/><path d=" M 140.674 251.47 C 140.674 250.125 139.575 249.025 138.232 249.025 L 114.522 249.025 C 113.184 249.025 112.085 250.125 112.085 251.47 L 112.085 275.212 C 112.085 276.556 113.184 277.657 114.522 277.657 L 138.232 277.657 C 139.575 277.657 140.674 276.556 140.674 275.212 L 140.674 251.47 Z " fill="rgb(0,0,0)"/><path d=" M 37.915 251.47 C 37.915 250.125 36.82 249.025 35.478 249.025 L 11.768 249.025 C 10.425 249.025 9.326 250.125 9.326 251.47 L 9.326 275.212 C 9.326 276.556 10.425 277.657 11.768 277.657 L 35.478 277.657 C 36.82 277.657 37.915 276.556 37.915 275.212 L 37.915 251.47 Z " fill="rgb(0,0,0)"/><path d=" M 72.168 217.165 C 72.168 215.82 71.069 214.72 69.727 214.72 L 46.021 214.72 C 44.678 214.72 43.579 215.82 43.579 217.165 L 43.579 240.911 C 43.579 242.256 44.678 243.356 46.021 243.356 L 69.727 243.356 C 71.069 243.356 72.168 242.256 72.168 240.911 L 72.168 217.165 Z " fill="rgb(0,0,0)"/><path d=" M 106.421 217.165 C 106.421 215.82 105.322 214.72 103.979 214.72 L 80.273 214.72 C 78.931 214.72 77.832 215.82 77.832 217.165 L 77.832 240.911 C 77.832 242.256 78.931 243.356 80.273 243.356 L 103.979 243.356 C 105.322 243.356 106.421 242.256 106.421 240.911 L 106.421 217.165 Z " fill="rgb(0,0,0)"/><path d=" M 140.674 217.165 C 140.674 215.82 139.575 214.72 138.232 214.72 L 114.522 214.72 C 113.184 214.72 112.085 215.82 112.085 217.165 L 112.085 240.911 C 112.085 242.256 113.184 243.356 114.522 243.356 L 138.232 243.356 C 139.575 243.356 140.674 242.256 140.674 240.911 L 140.674 217.165 Z " fill="rgb(0,0,0)"/><path d=" M 37.915 217.165 C 37.915 215.82 36.82 214.72 35.478 214.72 L 11.768 214.72 C 10.425 214.72 9.326 215.82 9.326 217.165 L 9.326 240.911 C 9.326 242.256 10.425 243.356 11.768 243.356 L 35.478 243.356 C 36.82 243.356 37.915 242.256 37.915 240.911 L 37.915 217.165 Z " fill="rgb(0,0,0)"/></g></g></svg>