<?xml version="1.0" standalone="no"?><!-- Generator: Gravit.io --><svg xmlns="http://www.w3.org/2000/svg" xmlns:xlink="http://www.w3.org/1999/xlink" style="isolation:isolate" viewBox="0 0 150 380" width="150" height="380"><defs><clipPath id="_clipPath_epCXOId8LbMSfPEaPUfeINixnxRNy47H"><rect width="150" height="380"/></clipPath></defs><g clip-path="url(#_clipPath_epCXOId8LbMSfPEaPUfeINixnxRNy47H)"><g id="bg"><rect x="0" y="0" width="150" height="380" transform="matrix(1,0,0,1,0,0)" fill="rgb(240,240,240)"/><path d=" M 69.082 369.599 C 68.927 369.747 68.783 369.851 68.65 369.909 C 68.517 369.968 68.375 369.998 68.224 369.998 C 68.072 369.998 67.93 369.97 67.797 369.914 C 67.664 369.858 67.548 369.781 67.449 369.682 C 67.233 369.466 67.124 369.209 67.124 368.912 L 67.124 363.385 C 67.124 363.082 67.202 362.847 67.356 362.68 C 67.622 362.408 67.874 362.272 68.112 362.272 C 68.35 362.272 68.528 362.296 68.646 362.346 C 68.763 362.395 68.862 362.457 68.942 362.531 C 69.048 362.624 69.126 362.723 69.179 362.828 C 69.232 362.933 69.275 363.011 69.309 363.06 C 69.343 363.11 69.399 363.134 69.476 363.134 C 69.553 363.134 69.62 363.11 69.675 363.06 L 69.833 362.902 C 70.284 362.482 70.736 362.272 71.187 362.272 C 71.985 362.272 72.643 362.599 73.163 363.255 C 73.212 363.323 73.274 363.357 73.348 363.357 C 73.478 363.357 73.61 363.256 73.743 363.055 C 73.876 362.854 74.09 362.674 74.387 362.513 C 74.684 362.352 75.03 362.272 75.426 362.272 C 75.822 362.272 76.182 362.344 76.507 362.49 C 76.831 362.635 77.114 362.834 77.355 363.088 C 77.862 363.62 78.116 364.263 78.116 365.017 L 78.116 368.912 C 78.116 369.382 77.893 369.713 77.448 369.905 C 77.312 369.967 77.168 369.998 77.017 369.998 C 76.865 369.998 76.723 369.97 76.59 369.914 C 76.457 369.858 76.341 369.781 76.242 369.682 C 76.032 369.46 75.927 369.203 75.927 368.912 L 75.927 365.045 C 75.927 364.736 75.85 364.504 75.695 364.349 C 75.423 364.077 75.173 363.941 74.944 363.941 C 74.715 363.941 74.536 363.971 74.406 364.029 C 74.276 364.088 74.158 364.17 74.053 364.275 C 73.837 364.492 73.729 364.742 73.729 365.026 L 73.729 368.912 C 73.729 369.382 73.509 369.713 73.07 369.905 C 72.934 369.967 72.79 369.998 72.639 369.998 C 72.487 369.998 72.344 369.97 72.207 369.914 C 72.071 369.858 71.954 369.781 71.855 369.682 C 71.639 369.466 71.53 369.209 71.53 368.912 L 71.53 365.045 C 71.53 364.736 71.453 364.504 71.298 364.349 C 71.026 364.077 70.742 363.941 70.445 363.941 C 69.95 363.941 69.607 364.133 69.416 364.516 C 69.354 364.64 69.323 364.779 69.323 364.934 L 69.323 368.912 C 69.323 369.215 69.242 369.444 69.082 369.599 Z  M 80.343 363.387 C 80.343 363.084 80.42 362.849 80.575 362.682 C 80.84 362.41 81.134 362.274 81.456 362.274 C 81.765 362.274 81.994 362.355 82.142 362.515 C 82.414 362.794 82.55 363.084 82.55 363.387 L 82.55 368.915 C 82.55 369.212 82.473 369.437 82.318 369.592 C 82.046 369.864 81.796 370 81.567 370 C 81.338 370 81.156 369.971 81.02 369.912 C 80.884 369.853 80.766 369.777 80.667 369.685 C 80.451 369.474 80.343 369.218 80.343 368.915 L 80.343 363.387 Z  M 81.451 359.9 C 81.189 359.9 80.976 359.687 80.976 359.425 C 80.976 359.162 81.189 358.95 81.451 358.95 C 81.713 358.95 81.926 359.162 81.926 359.425 C 81.926 359.687 81.713 359.9 81.451 359.9 Z  M 81.451 358 C 81.838 358 82.172 358.142 82.453 358.425 C 82.735 358.709 82.876 358.996 82.876 359.287 C 82.876 359.577 82.837 359.807 82.759 359.978 C 82.682 360.148 82.58 360.297 82.453 360.424 C 82.172 360.708 81.838 360.849 81.451 360.849 C 81.064 360.849 80.73 360.708 80.448 360.424 C 80.167 360.141 80.026 359.857 80.026 359.574 C 80.026 359.092 80.167 358.709 80.448 358.425 C 80.73 358.142 81.064 358 81.451 358 Z " fill-rule="evenodd" fill="rgb(10,118,187)"/><g id="stripes"><path d=" M -150 305 L 150 20 L 150 40 L -150 325 L -150 305 Z " fill="rgb(116,127,134)" fill-opacity="0.05"/><path d=" M -150 345 L 150 60 L 150 80 L -150 365 L -150 345 Z " fill="rgb(116,127,134)" fill-opacity="0.05"/><path d=" M -150 385 L 150 100 L 150 120 L -150 405 L -150 385 Z " fill="rgb(116,127,134)" fill-opacity="0.05"/></g><path d=" M 71.956 28.1 L 71.956 28.1 Q 71.676 28.1 71.55 27.974 L 71.55 27.974 L 71.55 27.974 Q 71.424 27.848 71.424 27.596 L 71.424 27.596 L 71.424 19.952 L 68.974 19.952 L 68.974 19.952 Q 68.694 19.952 68.589 19.84 L 68.589 19.84 L 68.589 19.84 Q 68.484 19.728 68.484 19.462 L 68.484 19.462 L 68.484 19.084 L 68.484 19.084 Q 68.484 18.818 68.589 18.699 L 68.589 18.699 L 68.589 18.699 Q 68.694 18.58 68.974 18.58 L 68.974 18.58 L 75.666 18.58 L 75.666 18.58 Q 75.946 18.58 76.058 18.699 L 76.058 18.699 L 76.058 18.699 Q 76.17 18.818 76.17 19.084 L 76.17 19.084 L 76.17 19.462 L 76.17 19.462 Q 76.17 19.728 76.058 19.84 L 76.058 19.84 L 76.058 19.84 Q 75.946 19.952 75.666 19.952 L 75.666 19.952 L 73.216 19.952 L 73.216 27.596 L 73.216 27.596 Q 73.216 27.848 73.097 27.974 L 73.097 27.974 L 73.097 27.974 Q 72.978 28.1 72.684 28.1 L 72.684 28.1 L 71.956 28.1 L 71.956 28.1 Z  M 77.794 28.1 L 77.794 28.1 Q 77.514 28.1 77.388 27.974 L 77.388 27.974 L 77.388 27.974 Q 77.262 27.848 77.262 27.596 L 77.262 27.596 L 77.262 21.758 L 77.262 21.758 Q 77.262 21.548 77.332 21.464 L 77.332 21.464 L 77.332 21.464 Q 77.402 21.38 77.626 21.38 L 77.626 21.38 L 78.424 21.38 L 78.424 21.38 Q 78.578 21.38 78.648 21.443 L 78.648 21.443 L 78.648 21.443 Q 78.718 21.506 78.732 21.66 L 78.732 21.66 L 78.774 22.164 L 78.774 22.164 Q 79.6 21.17 80.944 21.17 L 80.944 21.17 L 80.944 21.17 Q 81.56 21.17 81.882 21.38 L 81.882 21.38 L 81.882 21.38 Q 81.966 21.436 81.987 21.499 L 81.987 21.499 L 81.987 21.499 Q 82.008 21.562 81.98 21.646 L 81.98 21.646 L 81.728 22.486 L 81.728 22.486 Q 81.686 22.626 81.574 22.626 L 81.574 22.626 L 81.462 22.598 L 81.462 22.598 Q 81.126 22.444 80.692 22.444 L 80.692 22.444 L 80.692 22.444 Q 79.978 22.444 79.516 22.843 L 79.516 22.843 L 79.516 22.843 Q 79.054 23.242 79.054 23.928 L 79.054 23.928 L 79.054 27.596 L 79.054 27.596 Q 79.054 27.848 78.935 27.974 L 78.935 27.974 L 78.935 27.974 Q 78.816 28.1 78.522 28.1 L 78.522 28.1 L 77.794 28.1 L 77.794 28.1 Z  M 83.786 20.218 L 83.786 20.218 Q 83.45 20.218 83.268 20.022 L 83.268 20.022 L 83.268 20.022 Q 83.086 19.826 83.086 19.546 L 83.086 19.546 L 83.086 19.252 L 83.086 19.252 Q 83.086 18.972 83.268 18.776 L 83.268 18.776 L 83.268 18.776 Q 83.45 18.58 83.786 18.58 L 83.786 18.58 L 84.388 18.58 L 84.388 18.58 Q 84.724 18.58 84.913 18.776 L 84.913 18.776 L 84.913 18.776 Q 85.102 18.972 85.102 19.252 L 85.102 19.252 L 85.102 19.546 L 85.102 19.546 Q 85.102 19.826 84.913 20.022 L 84.913 20.022 L 84.913 20.022 Q 84.724 20.218 84.388 20.218 L 84.388 20.218 L 83.786 20.218 L 83.786 20.218 Z  M 83.73 28.1 L 83.73 28.1 Q 83.45 28.1 83.324 27.974 L 83.324 27.974 L 83.324 27.974 Q 83.198 27.848 83.198 27.596 L 83.198 27.596 L 83.198 21.898 L 83.198 21.898 Q 83.198 21.632 83.324 21.506 L 83.324 21.506 L 83.324 21.506 Q 83.45 21.38 83.73 21.38 L 83.73 21.38 L 84.458 21.38 L 84.458 21.38 Q 84.738 21.38 84.864 21.506 L 84.864 21.506 L 84.864 21.506 Q 84.99 21.632 84.99 21.898 L 84.99 21.898 L 84.99 27.596 L 84.99 27.596 Q 84.99 27.848 84.871 27.974 L 84.871 27.974 L 84.871 27.974 Q 84.752 28.1 84.458 28.1 L 84.458 28.1 L 83.73 28.1 L 83.73 28.1 Z  M 90.324 30.48 L 90.324 30.48 Q 89.512 30.48 88.742 30.326 L 88.742 30.326 L 88.742 30.326 Q 87.972 30.172 87.566 29.92 L 87.566 29.92 L 87.566 29.92 Q 87.342 29.794 87.454 29.612 L 87.454 29.612 L 87.86 28.926 L 87.86 28.926 Q 87.944 28.786 88.028 28.786 L 88.028 28.786 L 88.028 28.786 Q 88.084 28.786 88.168 28.828 L 88.168 28.828 L 88.168 28.828 Q 88.938 29.22 90.17 29.22 L 90.17 29.22 L 90.17 29.22 Q 91.108 29.22 91.542 28.772 L 91.542 28.772 L 91.542 28.772 Q 91.976 28.324 91.976 27.26 L 91.976 27.26 L 91.976 27.26 Q 91.584 27.68 91.059 27.883 L 91.059 27.883 L 91.059 27.883 Q 90.534 28.086 89.792 28.086 L 89.792 28.086 L 89.792 28.086 Q 88.224 28.086 87.349 27.232 L 87.349 27.232 L 87.349 27.232 Q 86.474 26.378 86.474 24.824 L 86.474 24.824 L 86.474 24.824 Q 86.474 23.06 87.517 22.115 L 87.517 22.115 L 87.517 22.115 Q 88.56 21.17 90.534 21.17 L 90.534 21.17 L 90.534 21.17 Q 91.444 21.17 92.319 21.422 L 92.319 21.422 L 92.319 21.422 Q 93.194 21.674 93.74 22.052 L 93.74 22.052 L 93.74 26.854 L 93.74 26.854 Q 93.74 28.548 92.914 29.514 L 92.914 29.514 L 92.914 29.514 Q 92.088 30.48 90.324 30.48 L 90.324 30.48 L 90.324 30.48 Z  M 90.212 26.77 L 90.212 26.77 Q 90.996 26.77 91.486 26.357 L 91.486 26.357 L 91.486 26.357 Q 91.976 25.944 91.976 25.216 L 91.976 25.216 L 91.976 22.724 L 91.976 22.724 Q 91.71 22.598 91.304 22.528 L 91.304 22.528 L 91.304 22.528 Q 90.898 22.458 90.45 22.458 L 90.45 22.458 L 90.45 22.458 Q 88.238 22.458 88.238 24.712 L 88.238 24.712 L 88.238 24.712 Q 88.238 25.748 88.728 26.259 L 88.728 26.259 L 88.728 26.259 Q 89.218 26.77 90.212 26.77 L 90.212 26.77 L 90.212 26.77 Z  M 98.962 30.48 L 98.962 30.48 Q 98.15 30.48 97.38 30.326 L 97.38 30.326 L 97.38 30.326 Q 96.61 30.172 96.204 29.92 L 96.204 29.92 L 96.204 29.92 Q 95.98 29.794 96.092 29.612 L 96.092 29.612 L 96.498 28.926 L 96.498 28.926 Q 96.582 28.786 96.666 28.786 L 96.666 28.786 L 96.666 28.786 Q 96.722 28.786 96.806 28.828 L 96.806 28.828 L 96.806 28.828 Q 97.576 29.22 98.808 29.22 L 98.808 29.22 L 98.808 29.22 Q 99.746 29.22 100.18 28.772 L 100.18 28.772 L 100.18 28.772 Q 100.614 28.324 100.614 27.26 L 100.614 27.26 L 100.614 27.26 Q 100.222 27.68 99.697 27.883 L 99.697 27.883 L 99.697 27.883 Q 99.172 28.086 98.43 28.086 L 98.43 28.086 L 98.43 28.086 Q 96.862 28.086 95.987 27.232 L 95.987 27.232 L 95.987 27.232 Q 95.112 26.378 95.112 24.824 L 95.112 24.824 L 95.112 24.824 Q 95.112 23.06 96.155 22.115 L 96.155 22.115 L 96.155 22.115 Q 97.198 21.17 99.172 21.17 L 99.172 21.17 L 99.172 21.17 Q 100.082 21.17 100.957 21.422 L 100.957 21.422 L 100.957 21.422 Q 101.832 21.674 102.378 22.052 L 102.378 22.052 L 102.378 26.854 L 102.378 26.854 Q 102.378 28.548 101.552 29.514 L 101.552 29.514 L 101.552 29.514 Q 100.726 30.48 98.962 30.48 L 98.962 30.48 L 98.962 30.48 Z  M 98.85 26.77 L 98.85 26.77 Q 99.634 26.77 100.124 26.357 L 100.124 26.357 L 100.124 26.357 Q 100.614 25.944 100.614 25.216 L 100.614 25.216 L 100.614 22.724 L 100.614 22.724 Q 100.348 22.598 99.942 22.528 L 99.942 22.528 L 99.942 22.528 Q 99.536 22.458 99.088 22.458 L 99.088 22.458 L 99.088 22.458 Q 96.876 22.458 96.876 24.712 L 96.876 24.712 L 96.876 24.712 Q 96.876 25.748 97.366 26.259 L 97.366 26.259 L 97.366 26.259 Q 97.856 26.77 98.85 26.77 L 98.85 26.77 L 98.85 26.77 Z  M 107.656 28.31 L 107.656 28.31 Q 106.564 28.31 105.682 27.939 L 105.682 27.939 L 105.682 27.939 Q 104.8 27.568 104.275 26.791 L 104.275 26.791 L 104.275 26.791 Q 103.75 26.014 103.75 24.852 L 103.75 24.852 L 103.75 24.852 Q 103.75 23.046 104.716 22.108 L 104.716 22.108 L 104.716 22.108 Q 105.682 21.17 107.46 21.17 L 107.46 21.17 L 107.46 21.17 Q 109.224 21.17 110.127 22.08 L 110.127 22.08 L 110.127 22.08 Q 111.03 22.99 111.03 24.712 L 111.03 24.712 L 111.03 24.712 Q 111.03 25.202 110.582 25.202 L 110.582 25.202 L 105.444 25.202 L 105.444 25.202 Q 105.444 26.126 106.088 26.623 L 106.088 26.623 L 106.088 26.623 Q 106.732 27.12 107.88 27.12 L 107.88 27.12 L 107.88 27.12 Q 108.986 27.12 109.868 26.616 L 109.868 26.616 L 109.868 26.616 Q 109.966 26.56 110.022 26.56 L 110.022 26.56 L 110.022 26.56 Q 110.12 26.56 110.176 26.686 L 110.176 26.686 L 110.512 27.288 L 110.512 27.288 Q 110.554 27.372 110.554 27.442 L 110.554 27.442 L 110.554 27.442 Q 110.554 27.54 110.428 27.624 L 110.428 27.624 L 110.428 27.624 Q 109.854 27.974 109.189 28.142 L 109.189 28.142 L 109.189 28.142 Q 108.524 28.31 107.656 28.31 L 107.656 28.31 L 107.656 28.31 Z  M 105.444 24.166 L 109.406 24.166 L 109.406 24.166 Q 109.406 23.298 108.923 22.808 L 108.923 22.808 L 108.923 22.808 Q 108.44 22.318 107.474 22.318 L 107.474 22.318 L 107.474 22.318 Q 106.494 22.318 105.969 22.822 L 105.969 22.822 L 105.969 22.822 Q 105.444 23.326 105.444 24.166 L 105.444 24.166 L 105.444 24.166 Z  M 112.934 28.1 L 112.934 28.1 Q 112.654 28.1 112.528 27.974 L 112.528 27.974 L 112.528 27.974 Q 112.402 27.848 112.402 27.596 L 112.402 27.596 L 112.402 21.758 L 112.402 21.758 Q 112.402 21.548 112.472 21.464 L 112.472 21.464 L 112.472 21.464 Q 112.542 21.38 112.766 21.38 L 112.766 21.38 L 113.564 21.38 L 113.564 21.38 Q 113.718 21.38 113.788 21.443 L 113.788 21.443 L 113.788 21.443 Q 113.858 21.506 113.872 21.66 L 113.872 21.66 L 113.914 22.164 L 113.914 22.164 Q 114.74 21.17 116.084 21.17 L 116.084 21.17 L 116.084 21.17 Q 116.7 21.17 117.022 21.38 L 117.022 21.38 L 117.022 21.38 Q 117.106 21.436 117.127 21.499 L 117.127 21.499 L 117.127 21.499 Q 117.148 21.562 117.12 21.646 L 117.12 21.646 L 116.868 22.486 L 116.868 22.486 Q 116.826 22.626 116.714 22.626 L 116.714 22.626 L 116.602 22.598 L 116.602 22.598 Q 116.266 22.444 115.832 22.444 L 115.832 22.444 L 115.832 22.444 Q 115.118 22.444 114.656 22.843 L 114.656 22.843 L 114.656 22.843 Q 114.194 23.242 114.194 23.928 L 114.194 23.928 L 114.194 27.596 L 114.194 27.596 Q 114.194 27.848 114.075 27.974 L 114.075 27.974 L 114.075 27.974 Q 113.956 28.1 113.662 28.1 L 113.662 28.1 L 112.934 28.1 L 112.934 28.1 Z  M 121.138 28.31 L 121.138 28.31 Q 120.298 28.31 119.5 28.135 L 119.5 28.135 L 119.5 28.135 Q 118.702 27.96 118.128 27.61 L 118.128 27.61 L 118.128 27.61 Q 117.946 27.512 117.946 27.4 L 117.946 27.4 L 117.946 27.4 Q 117.946 27.316 118.002 27.246 L 118.002 27.246 L 118.394 26.56 L 118.394 26.56 Q 118.464 26.434 118.534 26.434 L 118.534 26.434 L 118.534 26.434 Q 118.604 26.434 118.716 26.504 L 118.716 26.504 L 118.716 26.504 Q 119.136 26.756 119.752 26.924 L 119.752 26.924 L 119.752 26.924 Q 120.368 27.092 120.886 27.092 L 120.886 27.092 L 120.886 27.092 Q 121.684 27.092 122.027 26.931 L 122.027 26.931 L 122.027 26.931 Q 122.37 26.77 122.37 26.35 L 122.37 26.35 L 122.37 26.35 Q 122.37 26.112 122.237 25.965 L 122.237 25.965 L 122.237 25.965 Q 122.104 25.818 121.838 25.706 L 121.838 25.706 L 121.838 25.706 Q 121.572 25.594 120.956 25.398 L 120.956 25.398 L 120.956 25.398 Q 120.956 25.398 120.494 25.244 L 120.494 25.244 L 120.494 25.244 Q 119.696 24.978 119.22 24.726 L 119.22 24.726 L 119.22 24.726 Q 118.744 24.474 118.485 24.089 L 118.485 24.089 L 118.485 24.089 Q 118.226 23.704 118.226 23.116 L 118.226 23.116 L 118.226 23.116 Q 118.226 22.164 119.031 21.667 L 119.031 21.667 L 119.031 21.667 Q 119.836 21.17 121.124 21.17 L 121.124 21.17 L 121.124 21.17 Q 122.692 21.17 123.826 21.842 L 123.826 21.842 L 123.826 21.842 Q 124.008 21.94 124.008 22.052 L 124.008 22.052 L 124.008 22.052 Q 124.008 22.122 123.938 22.234 L 123.938 22.234 L 123.56 22.836 L 123.56 22.836 Q 123.476 22.962 123.42 22.962 L 123.42 22.962 L 123.42 22.962 Q 123.364 22.962 123.252 22.892 L 123.252 22.892 L 123.252 22.892 Q 122.888 22.668 122.377 22.535 L 122.377 22.535 L 122.377 22.535 Q 121.866 22.402 121.348 22.402 L 121.348 22.402 L 121.348 22.402 Q 120.648 22.402 120.319 22.549 L 120.319 22.549 L 120.319 22.549 Q 119.99 22.696 119.99 23.116 L 119.99 23.116 L 119.99 23.116 Q 119.99 23.48 120.375 23.69 L 120.375 23.69 L 120.375 23.69 Q 120.76 23.9 121.712 24.194 L 121.712 24.194 L 122.174 24.334 L 122.174 24.334 Q 123.266 24.684 123.707 25.16 L 123.707 25.16 L 123.707 25.16 Q 124.148 25.636 124.148 26.35 L 124.148 26.35 L 124.148 26.35 Q 124.148 27.218 123.385 27.764 L 123.385 27.764 L 123.385 27.764 Q 122.622 28.31 121.138 28.31 L 121.138 28.31 L 121.138 28.31 Z  M 57.116 24.6 L 57.116 24.6 Q 56.892 24.6 56.801 24.502 L 56.801 24.502 L 56.801 24.502 Q 56.71 24.404 56.71 24.18 L 56.71 24.18 L 56.71 23.662 L 56.71 23.662 Q 56.71 23.438 56.801 23.34 L 56.801 23.34 L 56.801 23.34 Q 56.892 23.242 57.116 23.242 L 57.116 23.242 L 61.806 23.242 L 61.806 23.242 Q 62.016 23.242 62.114 23.347 L 62.114 23.347 L 62.114 23.347 Q 62.212 23.452 62.212 23.662 L 62.212 23.662 L 62.212 24.18 L 62.212 24.18 Q 62.212 24.39 62.114 24.495 L 62.114 24.495 L 62.114 24.495 Q 62.016 24.6 61.806 24.6 L 61.806 24.6 L 57.116 24.6 L 57.116 24.6 Z  M 24.65 28.1 L 24.65 28.1 Q 24.37 28.1 24.251 27.974 L 24.251 27.974 L 24.251 27.974 Q 24.132 27.848 24.132 27.596 L 24.132 27.596 L 24.132 19.098 L 24.132 19.098 Q 24.132 18.832 24.251 18.706 L 24.251 18.706 L 24.251 18.706 Q 24.37 18.58 24.664 18.58 L 24.664 18.58 L 25.42 18.58 L 25.42 18.58 Q 25.644 18.58 25.763 18.636 L 25.763 18.636 L 25.763 18.636 Q 25.882 18.692 25.952 18.86 L 25.952 18.86 L 28.78 25.37 L 31.608 18.86 L 31.608 18.86 Q 31.678 18.692 31.797 18.636 L 31.797 18.636 L 31.797 18.636 Q 31.916 18.58 32.14 18.58 L 32.14 18.58 L 32.896 18.58 L 32.896 18.58 Q 33.19 18.58 33.309 18.706 L 33.309 18.706 L 33.309 18.706 Q 33.428 18.832 33.428 19.098 L 33.428 19.098 L 33.428 27.596 L 33.428 27.596 Q 33.428 27.848 33.309 27.974 L 33.309 27.974 L 33.309 27.974 Q 33.19 28.1 32.91 28.1 L 32.91 28.1 L 32.294 28.1 L 32.294 28.1 Q 32.014 28.1 31.888 27.974 L 31.888 27.974 L 31.888 27.974 Q 31.762 27.848 31.762 27.596 L 31.762 27.596 L 31.762 21.562 L 29.368 26.896 L 29.368 26.896 Q 29.256 27.12 29.144 27.218 L 29.144 27.218 L 29.144 27.218 Q 29.032 27.316 28.78 27.316 L 28.78 27.316 L 28.78 27.316 Q 28.528 27.316 28.409 27.218 L 28.409 27.218 L 28.409 27.218 Q 28.29 27.12 28.192 26.896 L 28.192 26.896 L 25.798 21.562 L 25.798 27.596 L 25.798 27.596 Q 25.798 27.848 25.679 27.974 L 25.679 27.974 L 25.679 27.974 Q 25.56 28.1 25.266 28.1 L 25.266 28.1 L 24.65 28.1 L 24.65 28.1 Z  M 35.598 28.1 L 35.598 28.1 Q 35.318 28.1 35.199 27.974 L 35.199 27.974 L 35.199 27.974 Q 35.08 27.848 35.08 27.596 L 35.08 27.596 L 35.08 19.098 L 35.08 19.098 Q 35.08 18.832 35.199 18.706 L 35.199 18.706 L 35.199 18.706 Q 35.318 18.58 35.598 18.58 L 35.598 18.58 L 36.34 18.58 L 36.34 18.58 Q 36.62 18.58 36.746 18.706 L 36.746 18.706 L 36.746 18.706 Q 36.872 18.832 36.872 19.098 L 36.872 19.098 L 36.872 27.596 L 36.872 27.596 Q 36.872 27.848 36.753 27.974 L 36.753 27.974 L 36.753 27.974 Q 36.634 28.1 36.34 28.1 L 36.34 28.1 L 35.598 28.1 L 35.598 28.1 Z  M 39.042 28.1 L 39.042 28.1 Q 38.762 28.1 38.643 27.974 L 38.643 27.974 L 38.643 27.974 Q 38.524 27.848 38.524 27.596 L 38.524 27.596 L 38.524 19.098 L 38.524 19.098 Q 38.524 18.832 38.643 18.706 L 38.643 18.706 L 38.643 18.706 Q 38.762 18.58 39.042 18.58 L 39.042 18.58 L 41.842 18.58 L 41.842 18.58 Q 44.208 18.58 45.461 19.714 L 45.461 19.714 L 45.461 19.714 Q 46.714 20.848 46.714 23.34 L 46.714 23.34 L 46.714 23.34 Q 46.714 28.1 41.842 28.1 L 41.842 28.1 L 39.042 28.1 L 39.042 28.1 Z  M 40.316 26.742 L 41.954 26.742 L 41.954 26.742 Q 43.438 26.742 44.187 25.972 L 44.187 25.972 L 44.187 25.972 Q 44.936 25.202 44.936 23.34 L 44.936 23.34 L 44.936 23.34 Q 44.936 21.478 44.187 20.715 L 44.187 20.715 L 44.187 20.715 Q 43.438 19.952 41.954 19.952 L 41.954 19.952 L 40.316 19.952 L 40.316 26.742 L 40.316 26.742 Z  M 48.604 28.1 L 48.604 28.1 Q 48.324 28.1 48.205 27.974 L 48.205 27.974 L 48.205 27.974 Q 48.086 27.848 48.086 27.596 L 48.086 27.596 L 48.086 19.098 L 48.086 19.098 Q 48.086 18.832 48.205 18.706 L 48.205 18.706 L 48.205 18.706 Q 48.324 18.58 48.604 18.58 L 48.604 18.58 L 49.346 18.58 L 49.346 18.58 Q 49.626 18.58 49.752 18.706 L 49.752 18.706 L 49.752 18.706 Q 49.878 18.832 49.878 19.098 L 49.878 19.098 L 49.878 27.596 L 49.878 27.596 Q 49.878 27.848 49.759 27.974 L 49.759 27.974 L 49.759 27.974 Q 49.64 28.1 49.346 28.1 L 49.346 28.1 L 48.604 28.1 L 48.604 28.1 Z " fill-rule="evenodd" fill="rgb(0,0,0)"/></g><path d=" M 21.167 214 L 26.5 217.333 L 32.833 214.667 L 35.833 218.333 L 38.833 222 L 36.5 227.333 L 37.833 232.333 L 36.833 240 L 37.5 243.667 L 29.5 242.667 L 24.167 244.667 L 20.5 241.667 L 14.833 243.667 L 8.167 238.333 L 9.5 232.333 L 9.167 225.333 L 11.833 220 L 7.167 215 L 15.5 213.333 L 21.167 214 Z " fill="rgb(23,34,41)"/><path d=" M 48.833 215 L 54.5 213 L 60.167 216 L 67.5 213.333 L 68.5 219 L 73.833 224.667 L 71.5 228.667 L 71.833 235.333 L 67.833 239.333 L 70.5 244.333 L 61.833 243.333 L 58.167 239.333 L 47.167 246 L 46.5 241.333 L 42.167 236 L 46.167 231 L 41.167 223 L 43.167 214.667 L 48.833 215 Z " fill="rgb(23,34,41)"/><path d=" M 87.5 212 L 90.833 216.333 L 98.833 214 L 102.833 218 L 107.5 222.333 L 103.833 228 L 106.167 238.667 L 100.5 241.667 L 92.167 244.667 L 88.5 238.667 L 82.167 243.667 L 76.5 238.333 L 81.167 234 L 76.167 226.333 L 78.167 220 L 77.5 215.333 L 87.5 212 Z " fill="rgb(23,34,41)"/><path d=" M 122.167 213.333 L 128.5 215.667 L 132.167 213.333 L 138.167 215 L 140.833 225 L 138.167 228.333 L 139.5 235 L 138.167 242.333 L 131.833 243.333 L 123.167 241.333 L 116.5 242.333 L 112.833 239.333 L 111.833 231.333 L 113.5 223.667 L 111.167 221.667 L 113.833 214 L 122.167 213.333 Z " fill="rgb(23,34,41)"/><path d=" M 114.5 250.667 L 123.5 248 L 129.167 250 L 135.167 249.667 L 139.167 252 L 142.833 258 L 139.833 261.667 L 139.833 267.667 L 140.833 274 L 136.167 277 L 128.167 277 L 124.5 280 L 116.833 276 L 111.833 275.667 L 111.5 268.333 L 112.167 264.667 L 110.5 257.333 L 114.5 250.667 Z " fill="rgb(23,34,41)"/><path d=" M 114.167 284.333 L 120.833 283 L 122.833 283.667 L 129.833 283.667 L 136.833 286 L 140.5 286 L 141.5 296.667 L 139.5 300.333 L 139.5 310.333 L 131.833 309.333 L 126.833 312.333 L 118.167 312.333 L 117.167 310 L 111.833 306 L 111.833 297 L 110.5 289.667 L 114.167 284.333 Z " fill="rgb(23,34,41)"/><path d=" M 115.833 317.333 L 122.833 316.667 L 129.833 318.333 L 139.5 318.667 L 139.5 324.333 L 142.5 330.333 L 139.167 339 L 138.167 347 L 131.5 345 L 126.833 346.333 L 119.167 345.667 L 113.167 343 L 112.167 336.667 L 113.167 332.333 L 111.5 325.667 L 112.5 320.667 L 115.833 317.333 Z " fill="rgb(23,34,41)"/><path d=" M 82.833 284.667 L 88.833 283.333 L 97.5 283 L 103.833 286.333 L 107.833 292.333 L 105.167 296.667 L 106.833 306.667 L 104.5 311.333 L 96.167 311.667 L 87.167 311.333 L 84.167 312.667 L 76.5 305.333 L 77.833 300.333 L 77.833 291.667 L 82.833 284.667 Z " fill="rgb(23,34,41)"/><path d=" M 81.167 249.667 L 88.5 248.333 L 91.5 249.333 L 101.5 250 L 104.167 249.667 L 105.5 258 L 105.5 264.333 L 106.5 270.667 L 102.833 276 L 95.167 276.667 L 86.833 277 L 80.833 275 L 79.833 271.333 L 77.167 265.667 L 77.833 257.333 L 81.167 249.667 Z " fill="rgb(23,34,41)"/><path d=" M 49.167 250.667 L 53.5 249.333 L 61.5 251 L 65.833 248.667 L 71.833 255 L 70.167 259.667 L 73.167 270.667 L 70.833 275.333 L 61.833 277.333 L 52.5 274 L 46.5 276.667 L 45.167 269 L 41.5 264.333 L 43.833 255 L 49.167 250.667 Z " fill="rgb(23,34,41)"/><path d=" M 15.167 248.667 L 25.167 248.667 L 28.167 250.667 L 32.5 252.333 L 37.167 253 L 37.833 260 L 36.167 268 L 37.5 275.333 L 30.833 275.667 L 17.167 277.333 L 11.5 278.333 L 10.5 268.333 L 7.833 259 L 9.833 254 L 15.167 248.667 Z " fill="rgb(23,34,41)"/><path d=" M 46.5 283.667 L 54.5 281.667 L 60.833 283 L 71.167 285.333 L 70.833 294.333 L 72.833 301 L 70.167 306.667 L 70.167 312.333 L 61.5 311 L 52.5 311.333 L 45.5 307.333 L 41.833 300 L 43.5 296.333 L 43.5 290 L 46.5 283.667 Z " fill="rgb(23,34,41)"/><path d=" M 84.167 318 L 92.167 315.667 L 99.167 318.667 L 107.5 319 L 106.167 327 L 106.167 334.333 L 105.167 337.667 L 105.833 345.333 L 100.5 345.333 L 95.833 346.667 L 90.833 342.333 L 85.833 346.667 L 76.833 342.667 L 78.5 333.667 L 76.167 329.667 L 79.5 320.667 L 84.167 318 Z " fill="rgb(23,34,41)"/><path d=" M 18.833 316.667 L 23.833 318.333 L 27.833 316.667 L 31.833 318.667 L 38.5 318.667 L 35.833 324.333 L 37.5 331.667 L 35.167 335.667 L 36.167 342 L 31.833 348.333 L 26.833 346.333 L 17.5 346 L 15.167 343.333 L 10.5 344.333 L 9.833 336.667 L 7.833 332.333 L 10.167 328.333 L 8.833 321 L 10.833 319 L 18.833 316.667 Z " fill="rgb(23,34,41)"/><path d=" M 16.833 284.333 L 21.833 283.333 L 29.5 283.333 L 33.5 282.333 L 35.5 287.333 L 34.833 293.333 L 35.5 296 L 38.5 303.333 L 36.5 312 L 31.167 310.667 L 20.833 311.333 L 12.167 308.333 L 8.5 310.333 L 8.5 297.667 L 10.5 295.333 L 8.5 287 L 11.5 283.667 L 16.833 284.333 Z " fill="rgb(23,34,41)"/><path d=" M 55.5 319 L 61.167 318.333 L 69.167 320.667 L 71.833 325.667 L 69.833 333.333 L 72.5 338.667 L 70.5 345 L 64.167 345 L 60.167 346.667 L 52.833 344.667 L 47.5 346 L 42.167 339 L 44.167 332.333 L 42.833 326 L 44.5 322.667 L 44.167 317 L 53.167 315.667 L 55.5 319 Z " fill="rgb(23,34,41)"/></g></svg>