<?xml version="1.0" standalone="no"?><!-- Generator: Gravit.io --><svg xmlns="http://www.w3.org/2000/svg" xmlns:xlink="http://www.w3.org/1999/xlink" style="isolation:isolate" viewBox="0 0 120 380" width="120" height="380"><defs><clipPath id="_clipPath_ANrb2flqhAKoS6H8dUDZh2bwxP0Iy9l8"><rect width="120" height="380"/></clipPath></defs><g clip-path="url(#_clipPath_ANrb2flqhAKoS6H8dUDZh2bwxP0Iy9l8)"><g id="bg"><rect x="0" y="0" width="120" height="380" transform="matrix(1,0,0,1,0,0)" fill="rgb(240,240,240)"/><path d=" M 54.081618 369.598705 C 53.927026 369.747088 53.783257 369.850659 53.650311 369.909418 C 53.51736 369.968177 53.375138 369.997539 53.223635 369.997539 C 53.072137 369.997539 52.929914 369.969715 52.796964 369.914067 C 52.664013 369.858419 52.548073 369.781099 52.449133 369.682177 C 52.232702 369.465737 52.12449 369.209133 52.12449 368.912298 L 52.12449 363.384743 C 52.12449 363.08172 52.201784 362.846754 52.356376 362.67981 C 52.622277 362.407722 52.874258 362.271678 53.11233 362.271678 C 53.350403 362.271678 53.528179 362.296391 53.64567 362.345887 C 53.763162 362.395348 53.862097 362.457183 53.942485 362.531392 C 54.047611 362.624127 54.126452 362.723084 54.179011 362.828193 C 54.231574 362.933337 54.274857 363.010622 54.308868 363.060083 C 54.342879 363.109544 54.398531 363.134292 54.475829 363.134292 C 54.553123 363.134292 54.619598 363.109544 54.675251 363.060083 L 54.832932 362.902402 C 55.284342 362.481931 55.735744 362.271678 56.187154 362.271678 C 56.984853 362.271678 57.643406 362.599414 58.162834 363.254886 C 58.212304 363.322908 58.274139 363.356919 58.348343 363.356919 C 58.4782 363.356919 58.609604 363.256424 58.742555 363.055434 C 58.875501 362.854479 59.090381 362.673623 59.3872 362.512831 C 59.684018 362.352074 60.030298 362.271678 60.426056 362.271678 C 60.82181 362.271678 61.182006 362.344314 61.506648 362.489656 C 61.831291 362.634963 62.114193 362.83438 62.355355 363.087907 C 62.862418 363.619709 63.115945 364.262808 63.115945 365.017202 L 63.115945 368.912298 C 63.115945 369.382265 62.893335 369.713077 62.448112 369.904769 C 62.312068 369.966604 62.168303 369.997539 62.0168 369.997539 C 61.865302 369.997539 61.723075 369.969715 61.590129 369.914067 C 61.457179 369.858419 61.341238 369.781099 61.242298 369.682177 C 61.03205 369.45955 60.926932 369.202946 60.926932 368.912298 L 60.926932 365.04506 C 60.926932 364.735851 60.849634 364.503961 60.695042 364.34939 C 60.422963 364.077302 60.172525 363.941258 59.943728 363.941258 C 59.714932 363.941258 59.535609 363.970621 59.405752 364.029379 C 59.275891 364.088138 59.158403 364.170072 59.053281 364.275181 C 58.836854 364.491621 58.728638 364.742038 58.728638 365.0265 L 58.728638 368.912298 C 58.728638 369.382265 58.509122 369.713077 58.070081 369.904769 C 57.934037 369.966604 57.790268 369.997539 57.63877 369.997539 C 57.487267 369.997539 57.343502 369.969715 57.207458 369.914067 C 57.071419 369.858419 56.953931 369.781099 56.854992 369.682177 C 56.638561 369.465737 56.530349 369.209133 56.530349 368.912298 L 56.530349 365.04506 C 56.530349 364.735851 56.453051 364.503961 56.298459 364.34939 C 56.02638 364.077302 55.741935 363.941258 55.445117 363.941258 C 54.950419 363.941258 54.607233 364.13295 54.415537 364.516335 C 54.353701 364.640005 54.32278 364.779159 54.32278 364.93373 L 54.32278 368.912298 C 54.32278 369.21532 54.242397 369.4441 54.081618 369.598705 Z  M 65.342682 363.387204 C 65.342682 363.084216 65.419976 362.849215 65.574568 362.682271 C 65.840469 362.410183 66.13419 362.274139 66.455739 362.274139 C 66.764923 362.274139 66.993719 362.354535 67.142128 362.515292 C 67.414208 362.793567 67.550252 363.084216 67.550252 363.387204 L 67.550252 368.914793 C 67.550252 369.211595 67.472958 369.437298 67.318362 369.591902 C 67.046282 369.863956 66.79584 370 66.567044 370 C 66.338247 370 66.155835 369.970638 66.019791 369.911879 C 65.883752 369.853155 65.766264 369.777407 65.667325 369.684638 C 65.450893 369.474385 65.342682 369.217781 65.342682 368.914793 L 65.342682 363.387204 Z  M 66.450791 359.899625 C 66.188513 359.899625 65.975889 359.687013 65.975889 359.424702 C 65.975889 359.162424 66.188513 358.949812 66.450791 358.949812 C 66.713077 358.949812 66.925697 359.162424 66.925697 359.424702 C 66.925697 359.687013 66.713077 359.899625 66.450791 359.899625 Z  M 66.450791 358 C 66.837756 358 67.171943 358.141752 67.453372 358.425291 C 67.7348 358.70883 67.87551 358.99589 67.87551 359.286504 C 67.87551 359.577119 67.836816 359.80747 67.759419 359.977594 C 67.682031 360.147717 67.580016 360.296545 67.453372 360.424146 C 67.171943 360.707685 66.837756 360.849437 66.450791 360.849437 C 66.063835 360.849437 65.729643 360.707685 65.448219 360.424146 C 65.166791 360.140607 65.026081 359.857103 65.026081 359.573564 C 65.026081 359.091565 65.166791 358.70883 65.448219 358.425291 C 65.729643 358.141752 66.063835 358 66.450791 358 Z " fill-rule="evenodd" fill="rgb(10,118,187)"/><path d=" M 76.197 28.1 L 76.197 28.1 Q 75.861 28.1 75.728 27.967 L 75.728 27.967 L 75.728 27.967 Q 75.595 27.834 75.595 27.526 L 75.595 27.526 L 75.595 26.994 L 75.595 26.994 Q 75.595 26.686 75.728 26.546 L 75.728 26.546 L 75.728 26.546 Q 75.861 26.406 76.197 26.406 L 76.197 26.406 L 77.401 26.406 L 77.401 21.044 L 76.407 21.66 L 76.407 21.66 Q 76.337 21.716 76.225 21.716 L 76.225 21.716 L 76.225 21.716 Q 76.085 21.716 76.015 21.59 L 76.015 21.59 L 75.357 20.582 L 75.357 20.582 Q 75.301 20.484 75.301 20.4 L 75.301 20.4 L 75.301 20.4 Q 75.301 20.26 75.455 20.176 L 75.455 20.176 L 77.877 18.72 L 77.877 18.72 Q 78.003 18.636 78.115 18.608 L 78.115 18.608 L 78.115 18.608 Q 78.227 18.58 78.437 18.58 L 78.437 18.58 L 79.095 18.58 L 79.095 18.58 Q 79.431 18.58 79.578 18.734 L 79.578 18.734 L 79.578 18.734 Q 79.725 18.888 79.725 19.196 L 79.725 19.196 L 79.725 26.406 L 80.943 26.406 L 80.943 26.406 Q 81.279 26.406 81.405 26.539 L 81.405 26.539 L 81.405 26.539 Q 81.531 26.672 81.531 26.994 L 81.531 26.994 L 81.531 27.526 L 81.531 27.526 Q 81.531 27.834 81.405 27.967 L 81.405 27.967 L 81.405 27.967 Q 81.279 28.1 80.943 28.1 L 80.943 28.1 L 76.197 28.1 L 76.197 28.1 Z  M 61.879 28.1 L 61.879 28.1 Q 61.543 28.1 61.396 27.953 L 61.396 27.953 L 61.396 27.953 Q 61.249 27.806 61.249 27.498 L 61.249 27.498 L 61.249 19.196 L 61.249 19.196 Q 61.249 18.888 61.396 18.734 L 61.396 18.734 L 61.396 18.734 Q 61.543 18.58 61.879 18.58 L 61.879 18.58 L 62.929 18.58 L 62.929 18.58 Q 63.279 18.58 63.419 18.727 L 63.419 18.727 L 63.419 18.727 Q 63.559 18.874 63.559 19.196 L 63.559 19.196 L 63.559 27.498 L 63.559 27.498 Q 63.559 27.806 63.419 27.953 L 63.419 27.953 L 63.419 27.953 Q 63.279 28.1 62.929 28.1 L 62.929 28.1 L 61.879 28.1 L 61.879 28.1 Z  M 67.239 24.74 L 67.239 24.74 Q 66.931 24.74 66.819 24.607 L 66.819 24.607 L 66.819 24.607 Q 66.707 24.474 66.707 24.194 L 66.707 24.194 L 66.707 23.578 L 66.707 23.578 Q 66.707 23.298 66.819 23.165 L 66.819 23.165 L 66.819 23.165 Q 66.931 23.032 67.239 23.032 L 67.239 23.032 L 71.887 23.032 L 71.887 23.032 Q 72.181 23.032 72.3 23.165 L 72.3 23.165 L 72.3 23.165 Q 72.419 23.298 72.419 23.578 L 72.419 23.578 L 72.419 24.194 L 72.419 24.194 Q 72.419 24.474 72.3 24.607 L 72.3 24.607 L 72.3 24.607 Q 72.181 24.74 71.887 24.74 L 71.887 24.74 L 67.239 24.74 L 67.239 24.74 Z  M 37.659 28.1 L 37.659 28.1 Q 37.323 28.1 37.176 27.953 L 37.176 27.953 L 37.176 27.953 Q 37.029 27.806 37.029 27.498 L 37.029 27.498 L 37.029 19.182 L 37.029 19.182 Q 37.029 18.874 37.176 18.727 L 37.176 18.727 L 37.176 18.727 Q 37.323 18.58 37.673 18.58 L 37.673 18.58 L 38.709 18.58 L 38.709 18.58 Q 38.961 18.58 39.101 18.643 L 39.101 18.643 L 39.101 18.643 Q 39.241 18.706 39.325 18.888 L 39.325 18.888 L 41.747 24.6 L 44.183 18.888 L 44.183 18.888 Q 44.267 18.706 44.407 18.643 L 44.407 18.643 L 44.407 18.643 Q 44.547 18.58 44.799 18.58 L 44.799 18.58 L 45.835 18.58 L 45.835 18.58 Q 46.185 18.58 46.332 18.727 L 46.332 18.727 L 46.332 18.727 Q 46.479 18.874 46.479 19.182 L 46.479 19.182 L 46.479 27.498 L 46.479 27.498 Q 46.479 27.806 46.332 27.953 L 46.332 27.953 L 46.332 27.953 Q 46.185 28.1 45.849 28.1 L 45.849 28.1 L 44.995 28.1 L 44.995 28.1 Q 44.645 28.1 44.498 27.953 L 44.498 27.953 L 44.498 27.953 Q 44.351 27.806 44.351 27.498 L 44.351 27.498 L 44.351 22.206 L 42.475 26.392 L 42.475 26.392 Q 42.335 26.686 42.202 26.805 L 42.202 26.805 L 42.202 26.805 Q 42.069 26.924 41.747 26.924 L 41.747 26.924 L 41.747 26.924 Q 41.439 26.924 41.292 26.805 L 41.292 26.805 L 41.292 26.805 Q 41.145 26.686 41.019 26.392 L 41.019 26.392 L 39.157 22.206 L 39.157 27.498 L 39.157 27.498 Q 39.157 27.806 39.01 27.953 L 39.01 27.953 L 39.01 27.953 Q 38.863 28.1 38.513 28.1 L 38.513 28.1 L 37.659 28.1 L 37.659 28.1 Z  M 48.537 28.1 L 48.537 28.1 Q 48.201 28.1 48.054 27.953 L 48.054 27.953 L 48.054 27.953 Q 47.907 27.806 47.907 27.498 L 47.907 27.498 L 47.907 19.196 L 47.907 19.196 Q 47.907 18.888 48.054 18.734 L 48.054 18.734 L 48.054 18.734 Q 48.201 18.58 48.537 18.58 L 48.537 18.58 L 49.587 18.58 L 49.587 18.58 Q 49.937 18.58 50.077 18.727 L 50.077 18.727 L 50.077 18.727 Q 50.217 18.874 50.217 19.196 L 50.217 19.196 L 50.217 27.498 L 50.217 27.498 Q 50.217 27.806 50.077 27.953 L 50.077 27.953 L 50.077 27.953 Q 49.937 28.1 49.587 28.1 L 49.587 28.1 L 48.537 28.1 L 48.537 28.1 Z  M 52.275 28.1 L 52.275 28.1 Q 51.939 28.1 51.792 27.953 L 51.792 27.953 L 51.792 27.953 Q 51.645 27.806 51.645 27.498 L 51.645 27.498 L 51.645 19.196 L 51.645 19.196 Q 51.645 18.888 51.792 18.734 L 51.792 18.734 L 51.792 18.734 Q 51.939 18.58 52.275 18.58 L 52.275 18.58 L 55.215 18.58 L 55.215 18.58 Q 57.609 18.58 58.855 19.728 L 58.855 19.728 L 58.855 19.728 Q 60.101 20.876 60.101 23.34 L 60.101 23.34 L 60.101 23.34 Q 60.101 25.776 58.841 26.938 L 58.841 26.938 L 58.841 26.938 Q 57.581 28.1 55.215 28.1 L 55.215 28.1 L 52.275 28.1 L 52.275 28.1 Z  M 53.955 26.406 L 55.327 26.406 L 55.327 26.406 Q 56.573 26.406 57.189 25.713 L 57.189 25.713 L 57.189 25.713 Q 57.805 25.02 57.805 23.34 L 57.805 23.34 L 57.805 23.34 Q 57.805 21.66 57.189 20.974 L 57.189 20.974 L 57.189 20.974 Q 56.573 20.288 55.327 20.288 L 55.327 20.288 L 53.955 20.288 L 53.955 26.406 L 53.955 26.406 Z " fill-rule="evenodd" fill="rgb(23,34,41)"/><g id="stripes"><path d=" M -180 305 L 120 20 L 120 40 L -180 325 L -180 305 Z " fill="rgb(116,127,134)" fill-opacity="0.05"/><path d=" M -180 345 L 120 60 L 120 80 L -180 365 L -180 345 Z " fill="rgb(116,127,134)" fill-opacity="0.05"/><path d=" M -180 385 L 120 100 L 120 120 L -180 405 L -180 385 Z " fill="rgb(116,127,134)" fill-opacity="0.05"/></g></g><path d=" M 10 170.25 L 14 160.75 L 21.5 161.25 L 25 164.75 L 36.5 162.75 L 38 169.75 L 40.5 182.25 L 37 187.75 L 38 201.25 L 34 204.25 L 27.5 204.75 L 23.5 202.25 L 11.5 202.75 L 11.5 196.75 L 10 183.25 L 12.5 182.75 L 10 170.25 Z " fill="rgb(23,34,41)"/><path d=" M 82 165.25 L 89 162.25 L 94 163.75 L 104.5 161.75 L 105.5 168.25 L 109.5 178.75 L 108.5 188.75 L 110 196.25 L 106 199.25 L 107 206.25 L 99.5 205.75 L 97 200.75 L 90 205.25 L 81 199.75 L 81.5 193.75 L 78 186.25 L 81 177.75 L 82 165.25 Z " fill="rgb(23,34,41)"/><path d=" M 11 216.25 L 15.5 210.75 L 27.5 209.25 L 30 209.75 L 33.5 213.75 L 40.5 211.75 L 38.5 225.75 L 41.5 235.25 L 39 237.75 L 38.5 244.25 L 38.5 250.75 L 30.5 254.75 L 25.5 248.75 L 19.5 253.25 L 15 248.25 L 9.5 239.75 L 12.5 229.25 L 11 216.25 Z " fill="rgb(23,34,41)"/><path d=" M 46 167.75 L 51.5 161.25 L 60.5 165.25 L 65.5 162.75 L 71.5 164.25 L 75.5 172.25 L 75 179.25 L 74.5 188.25 L 70.5 192.25 L 74 200.25 L 66 204.75 L 55 205.75 L 55 201.75 L 44 197.25 L 45 183.75 L 46 167.75 Z " fill="rgb(23,34,41)"/><path d=" M 51 210.25 L 56 208.25 L 60.5 210.75 L 70 213.25 L 75.5 224.75 L 76 237.75 L 71.5 241.25 L 67 251.25 L 60.5 253.25 L 53 249.25 L 45.5 245.75 L 44 237.25 L 44 218.75 L 51 210.25 Z " fill="rgb(23,34,41)"/><path d=" M 11.375 264.375 L 15.375 258.875 L 25.375 257.375 L 29.125 260.625 L 35.875 262.625 L 40.375 259.875 L 40.625 273.375 L 37.125 274.375 L 37.125 283.875 L 42.625 292.625 L 38.625 297.375 L 33.125 301.125 L 23.625 296.625 L 13.875 300.625 L 10.625 291.625 L 11.875 280.875 L 10.375 273.875 L 11.375 264.375 Z " fill="rgb(23,34,41)"/><path d=" M 46.375 261.125 L 52.375 258.625 L 58.375 259.375 L 66.125 257.875 L 70.125 262.625 L 76.125 263.625 L 74.375 271.375 L 74.875 286.375 L 71.875 286.875 L 71.625 297.125 L 72.375 301.375 L 66.625 300.875 L 62.375 298.125 L 55.125 301.375 L 50.375 299.375 L 46.625 301.125 L 48.625 289.375 L 44.625 284.875 L 48.625 275.125 L 46.375 261.125 Z " fill="rgb(23,34,41)"/><path d=" M 84.125 260.625 L 87.125 258.125 L 92.125 257.375 L 97.875 260.875 L 103.875 257.125 L 107.375 260.125 L 108.125 268.625 L 107.875 277.125 L 107.375 282.125 L 109.375 290.375 L 107.125 293.125 L 107.375 301.625 L 100.625 299.875 L 96.125 298.125 L 91.875 301.875 L 88.625 298.625 L 78.625 300.125 L 80.625 291.125 L 79.625 276.875 L 81.625 274.625 L 78.875 267.125 L 80.625 262.875 L 84.125 260.625 Z " fill="rgb(23,34,41)"/><path d=" M 12.25 307.5 L 16 304.75 L 20.25 306.75 L 23.5 304.75 L 29 306.5 L 36 307.5 L 40.75 312 L 38.75 320.75 L 39.5 329 L 36.25 332.25 L 38.75 341 L 40.25 349.5 L 34.5 346.75 L 26.25 345.75 L 23 349.25 L 21 346 L 14.25 348 L 13.25 343.75 L 9 340.75 L 13.25 335.25 L 10 326 L 13.5 321.75 L 10.25 316.25 L 12.25 310 L 12.25 307.5 Z " fill="rgb(23,34,41)"/><path d=" M 51.25 306 L 55.25 304 L 56.5 305.5 L 64.5 306.5 L 71.25 307.75 L 74.75 316.5 L 72 320.5 L 75 327.75 L 73.25 336.25 L 74.25 348 L 70.75 347.75 L 62.5 344.5 L 59 346.5 L 52.75 349.75 L 49 343.75 L 44.25 343.5 L 46.5 338.25 L 44.75 330.75 L 48.5 325 L 45 319 L 45.5 315.5 L 44.25 308.5 L 47.5 306.25 L 51.25 306 Z " fill="rgb(23,34,41)"/><path d=" M 87.5 305.5 L 91.25 305.5 L 100.5 302.75 L 102.5 306.25 L 111.5 310.5 L 107 318.5 L 107.5 328.5 L 106 330 L 107.25 334.25 L 110.5 344.5 L 106.5 344.5 L 102.25 350.25 L 98.75 347 L 91.75 345.25 L 86.25 348.25 L 82.5 347.75 L 80.5 339 L 82.5 335.5 L 78.25 330.25 L 81.5 323.5 L 78 315.5 L 80.5 313.5 L 82 306.75 L 87.5 305.5 Z " fill="rgb(23,34,41)"/><path d=" M 83.125 212.5 L 87.375 209 L 90.875 212.75 L 101.375 214 L 106.625 211.25 L 109.375 222.25 L 105.625 228.75 L 107.625 244.25 L 103.625 246.75 L 106.875 252.25 L 95.875 252.5 L 93.125 245.5 L 83.875 252 L 82.375 242.5 L 80.125 232 L 79.125 226.25 L 82.125 222.25 L 79.625 214 L 83.125 212.5 Z " fill="rgb(23,34,41)"/><path d=" M 19.928 314.400139 L 19.928 314.400139 Q 19.826 314.400139 19.826 314.310139 L 19.826 314.310139 L 19.826 314.310139 Q 19.826 314.274139 19.844 314.232139 L 19.844 314.232139 L 21.428 310.476139 L 21.428 310.476139 Q 21.464 310.386139 21.506 310.353139 L 21.506 310.353139 L 21.506 310.353139 Q 21.548 310.320139 21.626 310.320139 L 21.626 310.320139 L 21.956 310.320139 L 21.956 310.320139 Q 22.04 310.320139 22.079 310.353139 L 22.079 310.353139 L 22.079 310.353139 Q 22.118 310.386139 22.154 310.476139 L 22.154 310.476139 L 23.738 314.232139 L 23.738 314.232139 Q 23.756 314.274139 23.756 314.310139 L 23.756 314.310139 L 23.756 314.310139 Q 23.756 314.400139 23.654 314.400139 L 23.654 314.400139 L 23.132 314.400139 L 23.132 314.400139 Q 23.054 314.400139 23.021 314.379139 L 23.021 314.379139 L 23.021 314.379139 Q 22.988 314.358139 22.958 314.292139 L 22.958 314.292139 L 22.616 313.452139 L 20.96 313.452139 L 20.624 314.292139 L 20.624 314.292139 Q 20.594 314.358139 20.561 314.379139 L 20.561 314.379139 L 20.561 314.379139 Q 20.528 314.400139 20.45 314.400139 L 20.45 314.400139 L 19.928 314.400139 L 19.928 314.400139 Z  M 21.152 312.894139 L 22.424 312.894139 L 21.788 311.322139 L 21.152 312.894139 L 21.152 312.894139 Z  M 25.066 314.400139 L 25.066 314.400139 Q 24.946 314.400139 24.895 314.346139 L 24.895 314.346139 L 24.895 314.346139 Q 24.844 314.292139 24.844 314.184139 L 24.844 314.184139 L 24.844 310.542139 L 24.844 310.542139 Q 24.844 310.428139 24.895 310.374139 L 24.895 310.374139 L 24.895 310.374139 Q 24.946 310.320139 25.066 310.320139 L 25.066 310.320139 L 27.562 310.320139 L 27.562 310.320139 Q 27.682 310.320139 27.727 310.368139 L 27.727 310.368139 L 27.727 310.368139 Q 27.772 310.416139 27.772 310.530139 L 27.772 310.530139 L 27.772 310.692139 L 27.772 310.692139 Q 27.772 310.806139 27.727 310.857139 L 27.727 310.857139 L 27.727 310.857139 Q 27.682 310.908139 27.562 310.908139 L 27.562 310.908139 L 25.612 310.908139 L 25.612 312.066139 L 27.028 312.066139 L 27.028 312.066139 Q 27.148 312.066139 27.196 312.114139 L 27.196 312.114139 L 27.196 312.114139 Q 27.244 312.162139 27.244 312.276139 L 27.244 312.276139 L 27.244 312.438139 L 27.244 312.438139 Q 27.244 312.552139 27.196 312.603139 L 27.196 312.603139 L 27.196 312.603139 Q 27.148 312.654139 27.028 312.654139 L 27.028 312.654139 L 25.612 312.654139 L 25.612 314.184139 L 25.612 314.184139 Q 25.612 314.292139 25.561 314.346139 L 25.561 314.346139 L 25.561 314.346139 Q 25.51 314.400139 25.384 314.400139 L 25.384 314.400139 L 25.066 314.400139 L 25.066 314.400139 Z  M 29.988 314.400139 L 29.988 314.400139 Q 29.868 314.400139 29.814 314.346139 L 29.814 314.346139 L 29.814 314.346139 Q 29.76 314.292139 29.76 314.184139 L 29.76 314.184139 L 29.76 310.908139 L 28.71 310.908139 L 28.71 310.908139 Q 28.59 310.908139 28.545 310.860139 L 28.545 310.860139 L 28.545 310.860139 Q 28.5 310.812139 28.5 310.698139 L 28.5 310.698139 L 28.5 310.536139 L 28.5 310.536139 Q 28.5 310.422139 28.545 310.371139 L 28.545 310.371139 L 28.545 310.371139 Q 28.59 310.320139 28.71 310.320139 L 28.71 310.320139 L 31.578 310.320139 L 31.578 310.320139 Q 31.698 310.320139 31.746 310.371139 L 31.746 310.371139 L 31.746 310.371139 Q 31.794 310.422139 31.794 310.536139 L 31.794 310.536139 L 31.794 310.698139 L 31.794 310.698139 Q 31.794 310.812139 31.746 310.860139 L 31.746 310.860139 L 31.746 310.860139 Q 31.698 310.908139 31.578 310.908139 L 31.578 310.908139 L 30.528 310.908139 L 30.528 314.184139 L 30.528 314.184139 Q 30.528 314.292139 30.477 314.346139 L 30.477 314.346139 L 30.477 314.346139 Q 30.426 314.400139 30.3 314.400139 L 30.3 314.400139 L 29.988 314.400139 L 29.988 314.400139 Z " fill-rule="evenodd" fill="rgb(255,255,255)"/><path d=" M 53.948 314.490139 L 53.948 314.490139 Q 52.928 314.490139 52.37 313.938139 L 52.37 313.938139 L 52.37 313.938139 Q 51.812 313.386139 51.812 312.360139 L 51.812 312.360139 L 51.812 312.360139 Q 51.812 311.334139 52.361 310.782139 L 52.361 310.782139 L 52.361 310.782139 Q 52.91 310.230139 53.93 310.230139 L 53.93 310.230139 L 53.93 310.230139 Q 54.338 310.230139 54.686 310.314139 L 54.686 310.314139 L 54.686 310.314139 Q 55.034 310.398139 55.274 310.554139 L 55.274 310.554139 L 55.274 310.554139 Q 55.328 310.590139 55.328 310.632139 L 55.328 310.632139 L 55.328 310.632139 Q 55.328 310.668139 55.298 310.716139 L 55.298 310.716139 L 55.13 311.004139 L 55.13 311.004139 Q 55.094 311.058139 55.064 311.058139 L 55.064 311.058139 L 55.064 311.058139 Q 55.04 311.058139 54.98 311.028139 L 54.98 311.028139 L 54.98 311.028139 Q 54.602 310.800139 54.014 310.800139 L 54.014 310.800139 L 54.014 310.800139 Q 53.336 310.800139 52.952 311.190139 L 52.952 311.190139 L 52.952 311.190139 Q 52.568 311.580139 52.568 312.360139 L 52.568 312.360139 L 52.568 312.360139 Q 52.568 313.152139 52.964 313.539139 L 52.964 313.539139 L 52.964 313.539139 Q 53.36 313.926139 54.032 313.926139 L 54.032 313.926139 L 54.032 313.926139 Q 54.656 313.926139 55.058 313.692139 L 55.058 313.692139 L 55.058 313.692139 Q 55.118 313.662139 55.136 313.662139 L 55.136 313.662139 L 55.136 313.662139 Q 55.172 313.662139 55.208 313.716139 L 55.208 313.716139 L 55.394 314.028139 L 55.394 314.028139 Q 55.412 314.064139 55.412 314.088139 L 55.412 314.088139 L 55.412 314.088139 Q 55.412 314.124139 55.346 314.166139 L 55.346 314.166139 L 55.346 314.166139 Q 54.884 314.490139 53.948 314.490139 L 53.948 314.490139 L 53.948 314.490139 Z  M 58.426 314.490139 L 58.426 314.490139 Q 57.436 314.490139 56.905 313.932139 L 56.905 313.932139 L 56.905 313.932139 Q 56.374 313.374139 56.374 312.360139 L 56.374 312.360139 L 56.374 312.360139 Q 56.374 311.346139 56.905 310.788139 L 56.905 310.788139 L 56.905 310.788139 Q 57.436 310.230139 58.426 310.230139 L 58.426 310.230139 L 58.426 310.230139 Q 59.41 310.230139 59.944 310.788139 L 59.944 310.788139 L 59.944 310.788139 Q 60.478 311.346139 60.478 312.360139 L 60.478 312.360139 L 60.478 312.360139 Q 60.478 313.374139 59.944 313.932139 L 59.944 313.932139 L 59.944 313.932139 Q 59.41 314.490139 58.426 314.490139 L 58.426 314.490139 L 58.426 314.490139 Z  M 58.426 313.926139 L 58.426 313.926139 Q 59.056 313.926139 59.386 313.527139 L 59.386 313.527139 L 59.386 313.527139 Q 59.716 313.128139 59.716 312.360139 L 59.716 312.360139 L 59.716 312.360139 Q 59.716 311.592139 59.386 311.196139 L 59.386 311.196139 L 59.386 311.196139 Q 59.056 310.800139 58.426 310.800139 L 58.426 310.800139 L 58.426 310.800139 Q 57.796 310.800139 57.463 311.196139 L 57.463 311.196139 L 57.463 311.196139 Q 57.13 311.592139 57.13 312.360139 L 57.13 312.360139 L 57.13 312.360139 Q 57.13 313.128139 57.463 313.527139 L 57.463 313.527139 L 57.463 313.527139 Q 57.796 313.926139 58.426 313.926139 L 58.426 313.926139 L 58.426 313.926139 Z  M 61.788 314.400139 L 61.788 314.400139 Q 61.668 314.400139 61.617 314.346139 L 61.617 314.346139 L 61.617 314.346139 Q 61.566 314.292139 61.566 314.184139 L 61.566 314.184139 L 61.566 310.542139 L 61.566 310.542139 Q 61.566 310.428139 61.617 310.374139 L 61.617 310.374139 L 61.617 310.374139 Q 61.668 310.320139 61.794 310.320139 L 61.794 310.320139 L 62.07 310.320139 L 62.07 310.320139 Q 62.154 310.320139 62.202 310.344139 L 62.202 310.344139 L 62.202 310.344139 Q 62.25 310.368139 62.298 310.440139 L 62.298 310.440139 L 64.278 313.188139 L 64.278 310.542139 L 64.278 310.542139 Q 64.278 310.428139 64.329 310.374139 L 64.329 310.374139 L 64.329 310.374139 Q 64.38 310.320139 64.5 310.320139 L 64.5 310.320139 L 64.818 310.320139 L 64.818 310.320139 Q 64.938 310.320139 64.992 310.374139 L 64.992 310.374139 L 64.992 310.374139 Q 65.046 310.428139 65.046 310.542139 L 65.046 310.542139 L 65.046 314.184139 L 65.046 314.184139 Q 65.046 314.292139 64.995 314.346139 L 64.995 314.346139 L 64.995 314.346139 Q 64.944 314.400139 64.818 314.400139 L 64.818 314.400139 L 64.536 314.400139 L 64.536 314.400139 Q 64.452 314.400139 64.41 314.379139 L 64.41 314.379139 L 64.41 314.379139 Q 64.368 314.358139 64.314 314.286139 L 64.314 314.286139 L 62.334 311.544139 L 62.334 314.184139 L 62.334 314.184139 Q 62.334 314.292139 62.283 314.346139 L 62.283 314.346139 L 62.283 314.346139 Q 62.232 314.400139 62.106 314.400139 L 62.106 314.400139 L 61.788 314.400139 L 61.788 314.400139 Z  M 67.502 314.400139 L 67.502 314.400139 Q 67.382 314.400139 67.328 314.346139 L 67.328 314.346139 L 67.328 314.346139 Q 67.274 314.292139 67.274 314.184139 L 67.274 314.184139 L 67.274 310.908139 L 66.224 310.908139 L 66.224 310.908139 Q 66.104 310.908139 66.059 310.860139 L 66.059 310.860139 L 66.059 310.860139 Q 66.014 310.812139 66.014 310.698139 L 66.014 310.698139 L 66.014 310.536139 L 66.014 310.536139 Q 66.014 310.422139 66.059 310.371139 L 66.059 310.371139 L 66.059 310.371139 Q 66.104 310.320139 66.224 310.320139 L 66.224 310.320139 L 69.092 310.320139 L 69.092 310.320139 Q 69.212 310.320139 69.26 310.371139 L 69.26 310.371139 L 69.26 310.371139 Q 69.308 310.422139 69.308 310.536139 L 69.308 310.536139 L 69.308 310.698139 L 69.308 310.698139 Q 69.308 310.812139 69.26 310.860139 L 69.26 310.860139 L 69.26 310.860139 Q 69.212 310.908139 69.092 310.908139 L 69.092 310.908139 L 68.042 310.908139 L 68.042 314.184139 L 68.042 314.184139 Q 68.042 314.292139 67.991 314.346139 L 67.991 314.346139 L 67.991 314.346139 Q 67.94 314.400139 67.814 314.400139 L 67.814 314.400139 L 67.502 314.400139 L 67.502 314.400139 Z " fill-rule="evenodd" fill="rgb(255,255,255)"/><path d=" M 102.091 314.400139 L 102.091 314.400139 Q 101.893 314.400139 101.893 314.196139 L 101.893 314.196139 L 101.893 313.962139 L 101.893 313.962139 Q 101.893 313.578139 102.19 313.206139 L 102.19 313.206139 L 102.19 313.206139 Q 102.487 312.834139 103.081 312.498139 L 103.081 312.498139 L 103.081 312.498139 Q 103.507 312.258139 103.705 312.117139 L 103.705 312.117139 L 103.705 312.117139 Q 103.903 311.976139 103.996 311.817139 L 103.996 311.817139 L 103.996 311.817139 Q 104.089 311.658139 104.089 311.424139 L 104.089 311.424139 L 104.089 311.424139 Q 104.089 311.118139 103.873 310.959139 L 103.873 310.959139 L 103.873 310.959139 Q 103.657 310.800139 103.267 310.800139 L 103.267 310.800139 L 103.267 310.800139 Q 102.985 310.800139 102.736 310.869139 L 102.736 310.869139 L 102.736 310.869139 Q 102.487 310.938139 102.307 311.040139 L 102.307 311.040139 L 102.307 311.040139 Q 102.247 311.070139 102.229 311.070139 L 102.229 311.070139 L 102.229 311.070139 Q 102.193 311.070139 102.157 311.016139 L 102.157 311.016139 L 101.989 310.722139 L 101.989 310.722139 Q 101.959 310.674139 101.959 310.638139 L 101.959 310.638139 L 101.959 310.638139 Q 101.959 310.590139 102.013 310.554139 L 102.013 310.554139 L 102.013 310.554139 Q 102.223 310.404139 102.583 310.317139 L 102.583 310.317139 L 102.583 310.317139 Q 102.943 310.230139 103.369 310.230139 L 103.369 310.230139 L 103.369 310.230139 Q 104.035 310.230139 104.443 310.533139 L 104.443 310.533139 L 104.443 310.533139 Q 104.851 310.836139 104.851 311.388139 L 104.851 311.388139 L 104.851 311.388139 Q 104.851 311.850139 104.566 312.168139 L 104.566 312.168139 L 104.566 312.168139 Q 104.281 312.486139 103.669 312.822139 L 103.669 312.822139 L 103.669 312.822139 Q 103.219 313.056139 102.955 313.314139 L 102.955 313.314139 L 102.955 313.314139 Q 102.691 313.572139 102.673 313.818139 L 102.673 313.818139 L 104.617 313.818139 L 104.617 313.818139 Q 104.737 313.818139 104.785 313.869139 L 104.785 313.869139 L 104.785 313.869139 Q 104.833 313.920139 104.833 314.034139 L 104.833 314.034139 L 104.833 314.196139 L 104.833 314.196139 Q 104.833 314.304139 104.785 314.352139 L 104.785 314.352139 L 104.785 314.352139 Q 104.737 314.400139 104.617 314.400139 L 104.617 314.400139 L 102.091 314.400139 L 102.091 314.400139 Z  M 88.523 314.490139 L 88.523 314.490139 Q 87.503 314.490139 86.945 313.938139 L 86.945 313.938139 L 86.945 313.938139 Q 86.387 313.386139 86.387 312.360139 L 86.387 312.360139 L 86.387 312.360139 Q 86.387 311.334139 86.936 310.782139 L 86.936 310.782139 L 86.936 310.782139 Q 87.485 310.230139 88.505 310.230139 L 88.505 310.230139 L 88.505 310.230139 Q 88.913 310.230139 89.261 310.314139 L 89.261 310.314139 L 89.261 310.314139 Q 89.609 310.398139 89.849 310.554139 L 89.849 310.554139 L 89.849 310.554139 Q 89.903 310.590139 89.903 310.632139 L 89.903 310.632139 L 89.903 310.632139 Q 89.903 310.668139 89.873 310.716139 L 89.873 310.716139 L 89.705 311.004139 L 89.705 311.004139 Q 89.669 311.058139 89.639 311.058139 L 89.639 311.058139 L 89.639 311.058139 Q 89.615 311.058139 89.555 311.028139 L 89.555 311.028139 L 89.555 311.028139 Q 89.177 310.800139 88.589 310.800139 L 88.589 310.800139 L 88.589 310.800139 Q 87.911 310.800139 87.527 311.190139 L 87.527 311.190139 L 87.527 311.190139 Q 87.143 311.580139 87.143 312.360139 L 87.143 312.360139 L 87.143 312.360139 Q 87.143 313.152139 87.539 313.539139 L 87.539 313.539139 L 87.539 313.539139 Q 87.935 313.926139 88.607 313.926139 L 88.607 313.926139 L 88.607 313.926139 Q 89.231 313.926139 89.633 313.692139 L 89.633 313.692139 L 89.633 313.692139 Q 89.693 313.662139 89.711 313.662139 L 89.711 313.662139 L 89.711 313.662139 Q 89.747 313.662139 89.783 313.716139 L 89.783 313.716139 L 89.969 314.028139 L 89.969 314.028139 Q 89.987 314.064139 89.987 314.088139 L 89.987 314.088139 L 89.987 314.088139 Q 89.987 314.124139 89.921 314.166139 L 89.921 314.166139 L 89.921 314.166139 Q 89.459 314.490139 88.523 314.490139 L 88.523 314.490139 L 88.523 314.490139 Z  M 91.291 314.400139 L 91.291 314.400139 Q 91.171 314.400139 91.12 314.346139 L 91.12 314.346139 L 91.12 314.346139 Q 91.069 314.292139 91.069 314.184139 L 91.069 314.184139 L 91.069 310.542139 L 91.069 310.542139 Q 91.069 310.428139 91.12 310.374139 L 91.12 310.374139 L 91.12 310.374139 Q 91.171 310.320139 91.291 310.320139 L 91.291 310.320139 L 91.609 310.320139 L 91.609 310.320139 Q 91.729 310.320139 91.783 310.374139 L 91.783 310.374139 L 91.783 310.374139 Q 91.837 310.428139 91.837 310.542139 L 91.837 310.542139 L 91.837 313.818139 L 93.673 313.818139 L 93.673 313.818139 Q 93.793 313.818139 93.841 313.869139 L 93.841 313.869139 L 93.841 313.869139 Q 93.889 313.920139 93.889 314.034139 L 93.889 314.034139 L 93.889 314.196139 L 93.889 314.196139 Q 93.889 314.304139 93.841 314.352139 L 93.841 314.352139 L 93.841 314.352139 Q 93.793 314.400139 93.673 314.400139 L 93.673 314.400139 L 91.291 314.400139 L 91.291 314.400139 Z  M 95.079 314.400139 L 95.079 314.400139 Q 94.959 314.400139 94.908 314.346139 L 94.908 314.346139 L 94.908 314.346139 Q 94.857 314.292139 94.857 314.184139 L 94.857 314.184139 L 94.857 310.542139 L 94.857 310.542139 Q 94.857 310.428139 94.908 310.374139 L 94.908 310.374139 L 94.908 310.374139 Q 94.959 310.320139 95.079 310.320139 L 95.079 310.320139 L 95.397 310.320139 L 95.397 310.320139 Q 95.517 310.320139 95.571 310.374139 L 95.571 310.374139 L 95.571 310.374139 Q 95.625 310.428139 95.625 310.542139 L 95.625 310.542139 L 95.625 314.184139 L 95.625 314.184139 Q 95.625 314.292139 95.574 314.346139 L 95.574 314.346139 L 95.574 314.346139 Q 95.523 314.400139 95.397 314.400139 L 95.397 314.400139 L 95.079 314.400139 L 95.079 314.400139 Z  M 97.425 314.400139 L 97.425 314.400139 Q 97.359 314.400139 97.326 314.388139 L 97.326 314.388139 L 97.326 314.388139 Q 97.293 314.376139 97.257 314.334139 L 97.257 314.334139 L 95.811 312.594139 L 95.811 312.594139 Q 95.757 312.528139 95.733 312.480139 L 95.733 312.480139 L 95.733 312.480139 Q 95.709 312.432139 95.709 312.354139 L 95.709 312.354139 L 95.709 312.354139 Q 95.709 312.276139 95.73 312.234139 L 95.73 312.234139 L 95.73 312.234139 Q 95.751 312.192139 95.811 312.114139 L 95.811 312.114139 L 97.221 310.392139 L 97.221 310.392139 Q 97.257 310.344139 97.293 310.332139 L 97.293 310.332139 L 97.293 310.332139 Q 97.329 310.320139 97.407 310.320139 L 97.407 310.320139 L 97.959 310.320139 L 97.959 310.320139 Q 98.001 310.320139 98.025 310.344139 L 98.025 310.344139 L 98.025 310.344139 Q 98.049 310.368139 98.049 310.404139 L 98.049 310.404139 L 98.049 310.404139 Q 98.049 310.452139 98.013 310.488139 L 98.013 310.488139 L 96.459 312.354139 L 98.049 314.232139 L 98.049 314.232139 Q 98.085 314.268139 98.085 314.316139 L 98.085 314.316139 L 98.085 314.316139 Q 98.085 314.352139 98.061 314.376139 L 98.061 314.376139 L 98.061 314.376139 Q 98.037 314.400139 97.995 314.400139 L 97.995 314.400139 L 97.425 314.400139 L 97.425 314.400139 Z " fill-rule="evenodd" fill="rgb(255,255,255)"/><path d=" M 102.011 267.400139 L 102.011 267.400139 Q 101.891 267.400139 101.843 267.355139 L 101.843 267.355139 L 101.843 267.355139 Q 101.795 267.310139 101.795 267.202139 L 101.795 267.202139 L 101.795 267.028139 L 101.795 267.028139 Q 101.795 266.914139 101.843 266.866139 L 101.843 266.866139 L 101.843 266.866139 Q 101.891 266.818139 102.011 266.818139 L 102.011 266.818139 L 102.599 266.818139 L 102.599 264.160139 L 102.083 264.472139 L 102.083 264.472139 Q 102.035 264.502139 101.999 264.502139 L 101.999 264.502139 L 101.999 264.502139 Q 101.945 264.502139 101.909 264.442139 L 101.909 264.442139 L 101.717 264.142139 L 101.717 264.142139 Q 101.693 264.100139 101.693 264.064139 L 101.693 264.064139 L 101.693 264.064139 Q 101.693 264.004139 101.759 263.968139 L 101.759 263.968139 L 102.749 263.374139 L 102.749 263.374139 Q 102.791 263.344139 102.833 263.332139 L 102.833 263.332139 L 102.833 263.332139 Q 102.875 263.320139 102.947 263.320139 L 102.947 263.320139 L 103.145 263.320139 L 103.145 263.320139 Q 103.373 263.320139 103.373 263.542139 L 103.373 263.542139 L 103.373 266.818139 L 103.961 266.818139 L 103.961 266.818139 Q 104.081 266.818139 104.129 266.866139 L 104.129 266.866139 L 104.129 266.866139 Q 104.177 266.914139 104.177 267.028139 L 104.177 267.028139 L 104.177 267.202139 L 104.177 267.202139 Q 104.177 267.310139 104.129 267.355139 L 104.129 267.355139 L 104.129 267.355139 Q 104.081 267.400139 103.961 267.400139 L 103.961 267.400139 L 102.011 267.400139 L 102.011 267.400139 Z  M 88.329 267.490139 L 88.329 267.490139 Q 87.309 267.490139 86.751 266.938139 L 86.751 266.938139 L 86.751 266.938139 Q 86.193 266.386139 86.193 265.360139 L 86.193 265.360139 L 86.193 265.360139 Q 86.193 264.334139 86.742 263.782139 L 86.742 263.782139 L 86.742 263.782139 Q 87.291 263.230139 88.311 263.230139 L 88.311 263.230139 L 88.311 263.230139 Q 88.719 263.230139 89.067 263.314139 L 89.067 263.314139 L 89.067 263.314139 Q 89.415 263.398139 89.655 263.554139 L 89.655 263.554139 L 89.655 263.554139 Q 89.709 263.590139 89.709 263.632139 L 89.709 263.632139 L 89.709 263.632139 Q 89.709 263.668139 89.679 263.716139 L 89.679 263.716139 L 89.511 264.004139 L 89.511 264.004139 Q 89.475 264.058139 89.445 264.058139 L 89.445 264.058139 L 89.445 264.058139 Q 89.421 264.058139 89.361 264.028139 L 89.361 264.028139 L 89.361 264.028139 Q 88.983 263.800139 88.395 263.800139 L 88.395 263.800139 L 88.395 263.800139 Q 87.717 263.800139 87.333 264.190139 L 87.333 264.190139 L 87.333 264.190139 Q 86.949 264.580139 86.949 265.360139 L 86.949 265.360139 L 86.949 265.360139 Q 86.949 266.152139 87.345 266.539139 L 87.345 266.539139 L 87.345 266.539139 Q 87.741 266.926139 88.413 266.926139 L 88.413 266.926139 L 88.413 266.926139 Q 89.037 266.926139 89.439 266.692139 L 89.439 266.692139 L 89.439 266.692139 Q 89.499 266.662139 89.517 266.662139 L 89.517 266.662139 L 89.517 266.662139 Q 89.553 266.662139 89.589 266.716139 L 89.589 266.716139 L 89.775 267.028139 L 89.775 267.028139 Q 89.793 267.064139 89.793 267.088139 L 89.793 267.088139 L 89.793 267.088139 Q 89.793 267.124139 89.727 267.166139 L 89.727 267.166139 L 89.727 267.166139 Q 89.265 267.490139 88.329 267.490139 L 88.329 267.490139 L 88.329 267.490139 Z  M 91.097 267.400139 L 91.097 267.400139 Q 90.977 267.400139 90.926 267.346139 L 90.926 267.346139 L 90.926 267.346139 Q 90.875 267.292139 90.875 267.184139 L 90.875 267.184139 L 90.875 263.542139 L 90.875 263.542139 Q 90.875 263.428139 90.926 263.374139 L 90.926 263.374139 L 90.926 263.374139 Q 90.977 263.320139 91.097 263.320139 L 91.097 263.320139 L 91.415 263.320139 L 91.415 263.320139 Q 91.535 263.320139 91.589 263.374139 L 91.589 263.374139 L 91.589 263.374139 Q 91.643 263.428139 91.643 263.542139 L 91.643 263.542139 L 91.643 266.818139 L 93.479 266.818139 L 93.479 266.818139 Q 93.599 266.818139 93.647 266.869139 L 93.647 266.869139 L 93.647 266.869139 Q 93.695 266.920139 93.695 267.034139 L 93.695 267.034139 L 93.695 267.196139 L 93.695 267.196139 Q 93.695 267.304139 93.647 267.352139 L 93.647 267.352139 L 93.647 267.352139 Q 93.599 267.400139 93.479 267.400139 L 93.479 267.400139 L 91.097 267.400139 L 91.097 267.400139 Z  M 94.885 267.400139 L 94.885 267.400139 Q 94.765 267.400139 94.714 267.346139 L 94.714 267.346139 L 94.714 267.346139 Q 94.663 267.292139 94.663 267.184139 L 94.663 267.184139 L 94.663 263.542139 L 94.663 263.542139 Q 94.663 263.428139 94.714 263.374139 L 94.714 263.374139 L 94.714 263.374139 Q 94.765 263.320139 94.885 263.320139 L 94.885 263.320139 L 95.203 263.320139 L 95.203 263.320139 Q 95.323 263.320139 95.377 263.374139 L 95.377 263.374139 L 95.377 263.374139 Q 95.431 263.428139 95.431 263.542139 L 95.431 263.542139 L 95.431 267.184139 L 95.431 267.184139 Q 95.431 267.292139 95.38 267.346139 L 95.38 267.346139 L 95.38 267.346139 Q 95.329 267.400139 95.203 267.400139 L 95.203 267.400139 L 94.885 267.400139 L 94.885 267.400139 Z  M 97.231 267.400139 L 97.231 267.400139 Q 97.165 267.400139 97.132 267.388139 L 97.132 267.388139 L 97.132 267.388139 Q 97.099 267.376139 97.063 267.334139 L 97.063 267.334139 L 95.617 265.594139 L 95.617 265.594139 Q 95.563 265.528139 95.539 265.480139 L 95.539 265.480139 L 95.539 265.480139 Q 95.515 265.432139 95.515 265.354139 L 95.515 265.354139 L 95.515 265.354139 Q 95.515 265.276139 95.536 265.234139 L 95.536 265.234139 L 95.536 265.234139 Q 95.557 265.192139 95.617 265.114139 L 95.617 265.114139 L 97.027 263.392139 L 97.027 263.392139 Q 97.063 263.344139 97.099 263.332139 L 97.099 263.332139 L 97.099 263.332139 Q 97.135 263.320139 97.213 263.320139 L 97.213 263.320139 L 97.765 263.320139 L 97.765 263.320139 Q 97.807 263.320139 97.831 263.344139 L 97.831 263.344139 L 97.831 263.344139 Q 97.855 263.368139 97.855 263.404139 L 97.855 263.404139 L 97.855 263.404139 Q 97.855 263.452139 97.819 263.488139 L 97.819 263.488139 L 96.265 265.354139 L 97.855 267.232139 L 97.855 267.232139 Q 97.891 267.268139 97.891 267.316139 L 97.891 267.316139 L 97.891 267.316139 Q 97.891 267.352139 97.867 267.376139 L 97.867 267.376139 L 97.867 267.376139 Q 97.843 267.400139 97.801 267.400139 L 97.801 267.400139 L 97.231 267.400139 L 97.231 267.400139 Z " fill-rule="evenodd" fill="rgb(255,255,255)"/><path d=" M 53.909 267.490139 L 53.909 267.490139 Q 53.483 267.490139 53.072 267.397139 L 53.072 267.397139 L 53.072 267.397139 Q 52.661 267.304139 52.415 267.136139 L 52.415 267.136139 L 52.415 267.136139 Q 52.337 267.082139 52.337 267.040139 L 52.337 267.040139 L 52.337 267.040139 Q 52.337 266.998139 52.361 266.968139 L 52.361 266.968139 L 52.559 266.656139 L 52.559 266.656139 Q 52.595 266.602139 52.625 266.602139 L 52.625 266.602139 L 52.625 266.602139 Q 52.655 266.602139 52.703 266.632139 L 52.703 266.632139 L 52.703 266.632139 Q 52.925 266.764139 53.219 266.845139 L 53.219 266.845139 L 53.219 266.845139 Q 53.513 266.926139 53.813 266.926139 L 53.813 266.926139 L 53.813 266.926139 Q 54.221 266.926139 54.428 266.791139 L 54.428 266.791139 L 54.428 266.791139 Q 54.635 266.656139 54.635 266.356139 L 54.635 266.356139 L 54.635 266.356139 Q 54.635 266.176139 54.557 266.068139 L 54.557 266.068139 L 54.557 266.068139 Q 54.479 265.960139 54.329 265.882139 L 54.329 265.882139 L 54.329 265.882139 Q 54.179 265.804139 53.843 265.672139 L 53.843 265.672139 L 53.705 265.618139 L 53.705 265.618139 Q 53.315 265.462139 53.06 265.318139 L 53.06 265.318139 L 53.06 265.318139 Q 52.805 265.174139 52.637 264.940139 L 52.637 264.940139 L 52.637 264.940139 Q 52.469 264.706139 52.469 264.370139 L 52.469 264.370139 L 52.469 264.370139 Q 52.469 263.824139 52.886 263.527139 L 52.886 263.527139 L 52.886 263.527139 Q 53.303 263.230139 53.981 263.230139 L 53.981 263.230139 L 53.981 263.230139 Q 54.395 263.230139 54.698 263.308139 L 54.698 263.308139 L 54.698 263.308139 Q 55.001 263.386139 55.223 263.548139 L 55.223 263.548139 L 55.223 263.548139 Q 55.295 263.602139 55.295 263.650139 L 55.295 263.650139 L 55.295 263.650139 Q 55.295 263.686139 55.271 263.716139 L 55.271 263.716139 L 55.079 264.028139 L 55.079 264.028139 Q 55.043 264.082139 55.019 264.082139 L 55.019 264.082139 L 55.019 264.082139 Q 54.995 264.082139 54.941 264.046139 L 54.941 264.046139 L 54.941 264.046139 Q 54.557 263.800139 53.987 263.800139 L 53.987 263.800139 L 53.987 263.800139 Q 53.609 263.800139 53.417 263.938139 L 53.417 263.938139 L 53.417 263.938139 Q 53.225 264.076139 53.225 264.376139 L 53.225 264.376139 L 53.225 264.376139 Q 53.225 264.562139 53.306 264.673139 L 53.306 264.673139 L 53.306 264.673139 Q 53.387 264.784139 53.543 264.862139 L 53.543 264.862139 L 53.543 264.862139 Q 53.699 264.940139 54.047 265.072139 L 54.047 265.072139 L 54.197 265.132139 L 54.197 265.132139 Q 54.635 265.306139 54.881 265.453139 L 54.881 265.453139 L 54.881 265.453139 Q 55.127 265.600139 55.262 265.819139 L 55.262 265.819139 L 55.262 265.819139 Q 55.397 266.038139 55.397 266.380139 L 55.397 266.380139 L 55.397 266.380139 Q 55.397 266.896139 55.01 267.193139 L 55.01 267.193139 L 55.01 267.193139 Q 54.623 267.490139 53.909 267.490139 L 53.909 267.490139 L 53.909 267.490139 Z  M 57.733 267.400139 L 57.733 267.400139 Q 57.613 267.400139 57.559 267.346139 L 57.559 267.346139 L 57.559 267.346139 Q 57.505 267.292139 57.505 267.184139 L 57.505 267.184139 L 57.505 263.908139 L 56.455 263.908139 L 56.455 263.908139 Q 56.335 263.908139 56.29 263.860139 L 56.29 263.860139 L 56.29 263.860139 Q 56.245 263.812139 56.245 263.698139 L 56.245 263.698139 L 56.245 263.536139 L 56.245 263.536139 Q 56.245 263.422139 56.29 263.371139 L 56.29 263.371139 L 56.29 263.371139 Q 56.335 263.320139 56.455 263.320139 L 56.455 263.320139 L 59.323 263.320139 L 59.323 263.320139 Q 59.443 263.320139 59.491 263.371139 L 59.491 263.371139 L 59.491 263.371139 Q 59.539 263.422139 59.539 263.536139 L 59.539 263.536139 L 59.539 263.698139 L 59.539 263.698139 Q 59.539 263.812139 59.491 263.860139 L 59.491 263.860139 L 59.491 263.860139 Q 59.443 263.908139 59.323 263.908139 L 59.323 263.908139 L 58.273 263.908139 L 58.273 267.184139 L 58.273 267.184139 Q 58.273 267.292139 58.222 267.346139 L 58.222 267.346139 L 58.222 267.346139 Q 58.171 267.400139 58.045 267.400139 L 58.045 267.400139 L 57.733 267.400139 L 57.733 267.400139 Z  M 62.439 267.490139 L 62.439 267.490139 Q 61.449 267.490139 60.918 266.932139 L 60.918 266.932139 L 60.918 266.932139 Q 60.387 266.374139 60.387 265.360139 L 60.387 265.360139 L 60.387 265.360139 Q 60.387 264.346139 60.918 263.788139 L 60.918 263.788139 L 60.918 263.788139 Q 61.449 263.230139 62.439 263.230139 L 62.439 263.230139 L 62.439 263.230139 Q 63.423 263.230139 63.957 263.788139 L 63.957 263.788139 L 63.957 263.788139 Q 64.491 264.346139 64.491 265.360139 L 64.491 265.360139 L 64.491 265.360139 Q 64.491 266.374139 63.957 266.932139 L 63.957 266.932139 L 63.957 266.932139 Q 63.423 267.490139 62.439 267.490139 L 62.439 267.490139 L 62.439 267.490139 Z  M 62.439 266.926139 L 62.439 266.926139 Q 63.069 266.926139 63.399 266.527139 L 63.399 266.527139 L 63.399 266.527139 Q 63.729 266.128139 63.729 265.360139 L 63.729 265.360139 L 63.729 265.360139 Q 63.729 264.592139 63.399 264.196139 L 63.399 264.196139 L 63.399 264.196139 Q 63.069 263.800139 62.439 263.800139 L 62.439 263.800139 L 62.439 263.800139 Q 61.809 263.800139 61.476 264.196139 L 61.476 264.196139 L 61.476 264.196139 Q 61.143 264.592139 61.143 265.360139 L 61.143 265.360139 L 61.143 265.360139 Q 61.143 266.128139 61.476 266.527139 L 61.476 266.527139 L 61.476 266.527139 Q 61.809 266.926139 62.439 266.926139 L 62.439 266.926139 L 62.439 266.926139 Z  M 65.801 267.400139 L 65.801 267.400139 Q 65.681 267.400139 65.63 267.346139 L 65.63 267.346139 L 65.63 267.346139 Q 65.579 267.292139 65.579 267.184139 L 65.579 267.184139 L 65.579 263.542139 L 65.579 263.542139 Q 65.579 263.428139 65.63 263.374139 L 65.63 263.374139 L 65.63 263.374139 Q 65.681 263.320139 65.801 263.320139 L 65.801 263.320139 L 67.337 263.320139 L 67.337 263.320139 Q 68.075 263.320139 68.432 263.671139 L 68.432 263.671139 L 68.432 263.671139 Q 68.789 264.022139 68.789 264.676139 L 68.789 264.676139 L 68.789 264.676139 Q 68.789 265.324139 68.432 265.672139 L 68.432 265.672139 L 68.432 265.672139 Q 68.075 266.020139 67.337 266.020139 L 67.337 266.020139 L 66.347 266.020139 L 66.347 267.184139 L 66.347 267.184139 Q 66.347 267.292139 66.296 267.346139 L 66.296 267.346139 L 66.296 267.346139 Q 66.245 267.400139 66.119 267.400139 L 66.119 267.400139 L 65.801 267.400139 L 65.801 267.400139 Z  M 66.347 265.438139 L 67.301 265.438139 L 67.301 265.438139 Q 67.667 265.438139 67.847 265.249139 L 67.847 265.249139 L 67.847 265.249139 Q 68.027 265.060139 68.027 264.676139 L 68.027 264.676139 L 68.027 264.676139 Q 68.027 264.286139 67.847 264.097139 L 67.847 264.097139 L 67.847 264.097139 Q 67.667 263.908139 67.301 263.908139 L 67.301 263.908139 L 66.347 263.908139 L 66.347 265.438139 L 66.347 265.438139 Z " fill-rule="evenodd" fill="rgb(255,255,255)"/><path d=" M 21.716 267.400139 L 21.716 267.400139 Q 21.632 267.400139 21.593 267.370139 L 21.593 267.370139 L 21.593 267.370139 Q 21.554 267.340139 21.518 267.250139 L 21.518 267.250139 L 19.958 263.488139 L 19.958 263.488139 Q 19.94 263.452139 19.94 263.416139 L 19.94 263.416139 L 19.94 263.416139 Q 19.94 263.374139 19.967 263.347139 L 19.967 263.347139 L 19.967 263.347139 Q 19.994 263.320139 20.042 263.320139 L 20.042 263.320139 L 20.558 263.320139 L 20.558 263.320139 Q 20.636 263.320139 20.678 263.350139 L 20.678 263.350139 L 20.678 263.350139 Q 20.72 263.380139 20.744 263.446139 L 20.744 263.446139 L 21.878 266.326139 L 23.012 263.446139 L 23.012 263.446139 Q 23.036 263.380139 23.078 263.350139 L 23.078 263.350139 L 23.078 263.350139 Q 23.12 263.320139 23.198 263.320139 L 23.198 263.320139 L 23.714 263.320139 L 23.714 263.320139 Q 23.762 263.320139 23.789 263.347139 L 23.789 263.347139 L 23.789 263.347139 Q 23.816 263.374139 23.816 263.416139 L 23.816 263.416139 L 23.816 263.416139 Q 23.816 263.452139 23.798 263.488139 L 23.798 263.488139 L 22.244 267.250139 L 22.244 267.250139 Q 22.208 267.340139 22.166 267.370139 L 22.166 267.370139 L 22.166 267.370139 Q 22.124 267.400139 22.04 267.400139 L 22.04 267.400139 L 21.716 267.400139 L 21.716 267.400139 Z  M 25.126 267.400139 L 25.126 267.400139 Q 25.006 267.400139 24.955 267.346139 L 24.955 267.346139 L 24.955 267.346139 Q 24.904 267.292139 24.904 267.184139 L 24.904 267.184139 L 24.904 263.542139 L 24.904 263.542139 Q 24.904 263.428139 24.955 263.374139 L 24.955 263.374139 L 24.955 263.374139 Q 25.006 263.320139 25.126 263.320139 L 25.126 263.320139 L 27.622 263.320139 L 27.622 263.320139 Q 27.742 263.320139 27.787 263.368139 L 27.787 263.368139 L 27.787 263.368139 Q 27.832 263.416139 27.832 263.530139 L 27.832 263.530139 L 27.832 263.692139 L 27.832 263.692139 Q 27.832 263.806139 27.787 263.857139 L 27.787 263.857139 L 27.787 263.857139 Q 27.742 263.908139 27.622 263.908139 L 27.622 263.908139 L 25.672 263.908139 L 25.672 265.072139 L 27.088 265.072139 L 27.088 265.072139 Q 27.208 265.072139 27.256 265.120139 L 27.256 265.120139 L 27.256 265.120139 Q 27.304 265.168139 27.304 265.282139 L 27.304 265.282139 L 27.304 265.432139 L 27.304 265.432139 Q 27.304 265.546139 27.256 265.597139 L 27.256 265.597139 L 27.256 265.597139 Q 27.208 265.648139 27.088 265.648139 L 27.088 265.648139 L 25.672 265.648139 L 25.672 266.818139 L 27.616 266.818139 L 27.616 266.818139 Q 27.736 266.818139 27.784 266.869139 L 27.784 266.869139 L 27.784 266.869139 Q 27.832 266.920139 27.832 267.034139 L 27.832 267.034139 L 27.832 267.196139 L 27.832 267.196139 Q 27.832 267.304139 27.784 267.352139 L 27.784 267.352139 L 27.784 267.352139 Q 27.736 267.400139 27.616 267.400139 L 27.616 267.400139 L 25.126 267.400139 L 25.126 267.400139 Z  M 29.082 267.400139 L 29.082 267.400139 Q 28.962 267.400139 28.911 267.346139 L 28.911 267.346139 L 28.911 267.346139 Q 28.86 267.292139 28.86 267.184139 L 28.86 267.184139 L 28.86 263.542139 L 28.86 263.542139 Q 28.86 263.428139 28.911 263.374139 L 28.911 263.374139 L 28.911 263.374139 Q 28.962 263.320139 29.082 263.320139 L 29.082 263.320139 L 29.4 263.320139 L 29.4 263.320139 Q 29.52 263.320139 29.574 263.374139 L 29.574 263.374139 L 29.574 263.374139 Q 29.628 263.428139 29.628 263.542139 L 29.628 263.542139 L 29.628 266.818139 L 31.464 266.818139 L 31.464 266.818139 Q 31.584 266.818139 31.632 266.869139 L 31.632 266.869139 L 31.632 266.869139 Q 31.68 266.920139 31.68 267.034139 L 31.68 267.034139 L 31.68 267.196139 L 31.68 267.196139 Q 31.68 267.304139 31.632 267.352139 L 31.632 267.352139 L 31.632 267.352139 Q 31.584 267.400139 31.464 267.400139 L 31.464 267.400139 L 29.082 267.400139 L 29.082 267.400139 Z " fill-rule="evenodd" fill="rgb(255,255,255)"/><path d=" M 89.962 220.400139 L 89.962 220.400139 Q 89.842 220.400139 89.791 220.346139 L 89.791 220.346139 L 89.791 220.346139 Q 89.74 220.292139 89.74 220.184139 L 89.74 220.184139 L 89.74 216.542139 L 89.74 216.542139 Q 89.74 216.428139 89.791 216.374139 L 89.791 216.374139 L 89.791 216.374139 Q 89.842 216.320139 89.968 216.320139 L 89.968 216.320139 L 90.292 216.320139 L 90.292 216.320139 Q 90.388 216.320139 90.439 216.344139 L 90.439 216.344139 L 90.439 216.344139 Q 90.49 216.368139 90.52 216.440139 L 90.52 216.440139 L 91.732 219.230139 L 92.944 216.440139 L 92.944 216.440139 Q 92.974 216.368139 93.025 216.344139 L 93.025 216.344139 L 93.025 216.344139 Q 93.076 216.320139 93.172 216.320139 L 93.172 216.320139 L 93.496 216.320139 L 93.496 216.320139 Q 93.622 216.320139 93.673 216.374139 L 93.673 216.374139 L 93.673 216.374139 Q 93.724 216.428139 93.724 216.542139 L 93.724 216.542139 L 93.724 220.184139 L 93.724 220.184139 Q 93.724 220.292139 93.673 220.346139 L 93.673 220.346139 L 93.673 220.346139 Q 93.622 220.400139 93.502 220.400139 L 93.502 220.400139 L 93.238 220.400139 L 93.238 220.400139 Q 93.118 220.400139 93.064 220.346139 L 93.064 220.346139 L 93.064 220.346139 Q 93.01 220.292139 93.01 220.184139 L 93.01 220.184139 L 93.01 217.598139 L 91.984 219.884139 L 91.984 219.884139 Q 91.936 219.980139 91.888 220.022139 L 91.888 220.022139 L 91.888 220.022139 Q 91.84 220.064139 91.732 220.064139 L 91.732 220.064139 L 91.732 220.064139 Q 91.624 220.064139 91.573 220.022139 L 91.573 220.022139 L 91.573 220.022139 Q 91.522 219.980139 91.48 219.884139 L 91.48 219.884139 L 90.454 217.598139 L 90.454 220.184139 L 90.454 220.184139 Q 90.454 220.292139 90.403 220.346139 L 90.403 220.346139 L 90.403 220.346139 Q 90.352 220.400139 90.226 220.400139 L 90.226 220.400139 L 89.962 220.400139 L 89.962 220.400139 Z  M 95.97 220.400139 L 95.97 220.400139 Q 95.88 220.400139 95.835 220.367139 L 95.835 220.367139 L 95.835 220.367139 Q 95.79 220.334139 95.772 220.250139 L 95.772 220.250139 L 94.824 216.464139 L 94.824 216.464139 Q 94.818 216.446139 94.818 216.410139 L 94.818 216.410139 L 94.818 216.410139 Q 94.818 216.320139 94.932 216.320139 L 94.932 216.320139 L 95.418 216.320139 L 95.418 216.320139 Q 95.508 216.320139 95.544 216.350139 L 95.544 216.350139 L 95.544 216.350139 Q 95.58 216.380139 95.592 216.446139 L 95.592 216.446139 L 96.192 219.086139 L 96.912 216.758139 L 96.912 216.758139 Q 96.936 216.686139 96.969 216.659139 L 96.969 216.659139 L 96.969 216.659139 Q 97.002 216.632139 97.08 216.632139 L 97.08 216.632139 L 97.356 216.632139 L 97.356 216.632139 Q 97.434 216.632139 97.467 216.659139 L 97.467 216.659139 L 97.467 216.659139 Q 97.5 216.686139 97.524 216.758139 L 97.524 216.758139 L 98.25 219.086139 L 98.844 216.446139 L 98.844 216.446139 Q 98.856 216.380139 98.895 216.350139 L 98.895 216.350139 L 98.895 216.350139 Q 98.934 216.320139 99.018 216.320139 L 99.018 216.320139 L 99.51 216.320139 L 99.51 216.320139 Q 99.624 216.320139 99.624 216.410139 L 99.624 216.410139 L 99.624 216.410139 Q 99.624 216.446139 99.618 216.464139 L 99.618 216.464139 L 98.664 220.250139 L 98.664 220.250139 Q 98.64 220.334139 98.595 220.367139 L 98.595 220.367139 L 98.595 220.367139 Q 98.55 220.400139 98.466 220.400139 L 98.466 220.400139 L 98.142 220.400139 L 98.142 220.400139 Q 98.058 220.400139 98.013 220.367139 L 98.013 220.367139 L 98.013 220.367139 Q 97.968 220.334139 97.944 220.250139 L 97.944 220.250139 L 97.218 217.850139 L 96.498 220.250139 L 96.498 220.250139 Q 96.474 220.334139 96.429 220.367139 L 96.429 220.367139 L 96.429 220.367139 Q 96.384 220.400139 96.3 220.400139 L 96.3 220.400139 L 95.97 220.400139 L 95.97 220.400139 Z " fill-rule="evenodd" fill="rgb(255,255,255)"/><path d=" M 54.374 220.490139 L 54.374 220.490139 Q 53.948 220.490139 53.537 220.397139 L 53.537 220.397139 L 53.537 220.397139 Q 53.126 220.304139 52.88 220.136139 L 52.88 220.136139 L 52.88 220.136139 Q 52.802 220.082139 52.802 220.040139 L 52.802 220.040139 L 52.802 220.040139 Q 52.802 219.998139 52.826 219.968139 L 52.826 219.968139 L 53.024 219.656139 L 53.024 219.656139 Q 53.06 219.602139 53.09 219.602139 L 53.09 219.602139 L 53.09 219.602139 Q 53.12 219.602139 53.168 219.632139 L 53.168 219.632139 L 53.168 219.632139 Q 53.39 219.764139 53.684 219.845139 L 53.684 219.845139 L 53.684 219.845139 Q 53.978 219.926139 54.278 219.926139 L 54.278 219.926139 L 54.278 219.926139 Q 54.686 219.926139 54.893 219.791139 L 54.893 219.791139 L 54.893 219.791139 Q 55.1 219.656139 55.1 219.356139 L 55.1 219.356139 L 55.1 219.356139 Q 55.1 219.176139 55.022 219.068139 L 55.022 219.068139 L 55.022 219.068139 Q 54.944 218.960139 54.794 218.882139 L 54.794 218.882139 L 54.794 218.882139 Q 54.644 218.804139 54.308 218.672139 L 54.308 218.672139 L 54.17 218.618139 L 54.17 218.618139 Q 53.78 218.462139 53.525 218.318139 L 53.525 218.318139 L 53.525 218.318139 Q 53.27 218.174139 53.102 217.940139 L 53.102 217.940139 L 53.102 217.940139 Q 52.934 217.706139 52.934 217.370139 L 52.934 217.370139 L 52.934 217.370139 Q 52.934 216.824139 53.351 216.527139 L 53.351 216.527139 L 53.351 216.527139 Q 53.768 216.230139 54.446 216.230139 L 54.446 216.230139 L 54.446 216.230139 Q 54.86 216.230139 55.163 216.308139 L 55.163 216.308139 L 55.163 216.308139 Q 55.466 216.386139 55.688 216.548139 L 55.688 216.548139 L 55.688 216.548139 Q 55.76 216.602139 55.76 216.650139 L 55.76 216.650139 L 55.76 216.650139 Q 55.76 216.686139 55.736 216.716139 L 55.736 216.716139 L 55.544 217.028139 L 55.544 217.028139 Q 55.508 217.082139 55.484 217.082139 L 55.484 217.082139 L 55.484 217.082139 Q 55.46 217.082139 55.406 217.046139 L 55.406 217.046139 L 55.406 217.046139 Q 55.022 216.800139 54.452 216.800139 L 54.452 216.800139 L 54.452 216.800139 Q 54.074 216.800139 53.882 216.938139 L 53.882 216.938139 L 53.882 216.938139 Q 53.69 217.076139 53.69 217.376139 L 53.69 217.376139 L 53.69 217.376139 Q 53.69 217.562139 53.771 217.673139 L 53.771 217.673139 L 53.771 217.673139 Q 53.852 217.784139 54.008 217.862139 L 54.008 217.862139 L 54.008 217.862139 Q 54.164 217.940139 54.512 218.072139 L 54.512 218.072139 L 54.662 218.132139 L 54.662 218.132139 Q 55.1 218.306139 55.346 218.453139 L 55.346 218.453139 L 55.346 218.453139 Q 55.592 218.600139 55.727 218.819139 L 55.727 218.819139 L 55.727 218.819139 Q 55.862 219.038139 55.862 219.380139 L 55.862 219.380139 L 55.862 219.380139 Q 55.862 219.896139 55.475 220.193139 L 55.475 220.193139 L 55.475 220.193139 Q 55.088 220.490139 54.374 220.490139 L 54.374 220.490139 L 54.374 220.490139 Z  M 58.198 220.400139 L 58.198 220.400139 Q 58.078 220.400139 58.024 220.346139 L 58.024 220.346139 L 58.024 220.346139 Q 57.97 220.292139 57.97 220.184139 L 57.97 220.184139 L 57.97 216.908139 L 56.92 216.908139 L 56.92 216.908139 Q 56.8 216.908139 56.755 216.860139 L 56.755 216.860139 L 56.755 216.860139 Q 56.71 216.812139 56.71 216.698139 L 56.71 216.698139 L 56.71 216.536139 L 56.71 216.536139 Q 56.71 216.422139 56.755 216.371139 L 56.755 216.371139 L 56.755 216.371139 Q 56.8 216.320139 56.92 216.320139 L 56.92 216.320139 L 59.788 216.320139 L 59.788 216.320139 Q 59.908 216.320139 59.956 216.371139 L 59.956 216.371139 L 59.956 216.371139 Q 60.004 216.422139 60.004 216.536139 L 60.004 216.536139 L 60.004 216.698139 L 60.004 216.698139 Q 60.004 216.812139 59.956 216.860139 L 59.956 216.860139 L 59.956 216.860139 Q 59.908 216.908139 59.788 216.908139 L 59.788 216.908139 L 58.738 216.908139 L 58.738 220.184139 L 58.738 220.184139 Q 58.738 220.292139 58.687 220.346139 L 58.687 220.346139 L 58.687 220.346139 Q 58.636 220.400139 58.51 220.400139 L 58.51 220.400139 L 58.198 220.400139 L 58.198 220.400139 Z  M 61.194 220.400139 L 61.194 220.400139 Q 61.074 220.400139 61.023 220.346139 L 61.023 220.346139 L 61.023 220.346139 Q 60.972 220.292139 60.972 220.184139 L 60.972 220.184139 L 60.972 216.542139 L 60.972 216.542139 Q 60.972 216.428139 61.023 216.374139 L 61.023 216.374139 L 61.023 216.374139 Q 61.074 216.320139 61.194 216.320139 L 61.194 216.320139 L 62.76 216.320139 L 62.76 216.320139 Q 63.456 216.320139 63.819 216.644139 L 63.819 216.644139 L 63.819 216.644139 Q 64.182 216.968139 64.182 217.604139 L 64.182 217.604139 L 64.182 217.604139 Q 64.182 218.024139 63.984 218.321139 L 63.984 218.321139 L 63.984 218.321139 Q 63.786 218.618139 63.408 218.768139 L 63.408 218.768139 L 64.074 220.244139 L 64.074 220.244139 Q 64.092 220.280139 64.092 220.310139 L 64.092 220.310139 L 64.092 220.310139 Q 64.092 220.400139 63.984 220.400139 L 63.984 220.400139 L 63.492 220.400139 L 63.492 220.400139 Q 63.414 220.400139 63.378 220.379139 L 63.378 220.379139 L 63.378 220.379139 Q 63.342 220.358139 63.312 220.292139 L 63.312 220.292139 L 62.706 218.870139 L 61.74 218.870139 L 61.74 220.184139 L 61.74 220.184139 Q 61.74 220.292139 61.689 220.346139 L 61.689 220.346139 L 61.689 220.346139 Q 61.638 220.400139 61.512 220.400139 L 61.512 220.400139 L 61.194 220.400139 L 61.194 220.400139 Z  M 61.74 218.294139 L 62.604 218.294139 L 62.604 218.294139 Q 63.024 218.294139 63.222 218.132139 L 63.222 218.132139 L 63.222 218.132139 Q 63.42 217.970139 63.42 217.604139 L 63.42 217.604139 L 63.42 217.604139 Q 63.42 217.244139 63.24 217.076139 L 63.24 217.076139 L 63.24 217.076139 Q 63.06 216.908139 62.694 216.908139 L 62.694 216.908139 L 61.74 216.908139 L 61.74 218.294139 L 61.74 218.294139 Z  M 66.518 220.400139 L 66.518 220.400139 Q 66.398 220.400139 66.344 220.346139 L 66.344 220.346139 L 66.344 220.346139 Q 66.29 220.292139 66.29 220.184139 L 66.29 220.184139 L 66.29 216.908139 L 65.24 216.908139 L 65.24 216.908139 Q 65.12 216.908139 65.075 216.860139 L 65.075 216.860139 L 65.075 216.860139 Q 65.03 216.812139 65.03 216.698139 L 65.03 216.698139 L 65.03 216.536139 L 65.03 216.536139 Q 65.03 216.422139 65.075 216.371139 L 65.075 216.371139 L 65.075 216.371139 Q 65.12 216.320139 65.24 216.320139 L 65.24 216.320139 L 68.108 216.320139 L 68.108 216.320139 Q 68.228 216.320139 68.276 216.371139 L 68.276 216.371139 L 68.276 216.371139 Q 68.324 216.422139 68.324 216.536139 L 68.324 216.536139 L 68.324 216.698139 L 68.324 216.698139 Q 68.324 216.812139 68.276 216.860139 L 68.276 216.860139 L 68.276 216.860139 Q 68.228 216.908139 68.108 216.908139 L 68.108 216.908139 L 67.058 216.908139 L 67.058 220.184139 L 67.058 220.184139 Q 67.058 220.292139 67.007 220.346139 L 67.007 220.346139 L 67.007 220.346139 Q 66.956 220.400139 66.83 220.400139 L 66.83 220.400139 L 66.518 220.400139 L 66.518 220.400139 Z " fill-rule="evenodd" fill="rgb(255,255,255)"/><path d=" M 20.082 220.490139 L 20.082 220.490139 Q 19.062 220.490139 18.504 219.938139 L 18.504 219.938139 L 18.504 219.938139 Q 17.946 219.386139 17.946 218.360139 L 17.946 218.360139 L 17.946 218.360139 Q 17.946 217.340139 18.507 216.785139 L 18.507 216.785139 L 18.507 216.785139 Q 19.068 216.230139 20.082 216.230139 L 20.082 216.230139 L 20.082 216.230139 Q 20.49 216.230139 20.844 216.314139 L 20.844 216.314139 L 20.844 216.314139 Q 21.198 216.398139 21.432 216.554139 L 21.432 216.554139 L 21.432 216.554139 Q 21.486 216.590139 21.486 216.632139 L 21.486 216.632139 L 21.486 216.632139 Q 21.486 216.662139 21.462 216.704139 L 21.462 216.704139 L 21.288 217.004139 L 21.288 217.004139 Q 21.252 217.058139 21.216 217.058139 L 21.216 217.058139 L 21.216 217.058139 Q 21.198 217.058139 21.138 217.028139 L 21.138 217.028139 L 21.138 217.028139 Q 20.73 216.800139 20.166 216.800139 L 20.166 216.800139 L 20.166 216.800139 Q 19.482 216.800139 19.092 217.187139 L 19.092 217.187139 L 19.092 217.187139 Q 18.702 217.574139 18.702 218.360139 L 18.702 218.360139 L 18.702 218.360139 Q 18.702 219.152139 19.08 219.536139 L 19.08 219.536139 L 19.08 219.536139 Q 19.458 219.920139 20.118 219.920139 L 20.118 219.920139 L 20.118 219.920139 Q 20.358 219.920139 20.586 219.881139 L 20.586 219.881139 L 20.586 219.881139 Q 20.814 219.842139 20.958 219.770139 L 20.958 219.770139 L 20.958 218.660139 L 20.166 218.660139 L 20.166 218.660139 Q 20.046 218.660139 19.998 218.609139 L 19.998 218.609139 L 19.998 218.609139 Q 19.95 218.558139 19.95 218.444139 L 19.95 218.444139 L 19.95 218.288139 L 19.95 218.288139 Q 19.95 218.174139 19.998 218.129139 L 19.998 218.129139 L 19.998 218.129139 Q 20.046 218.084139 20.166 218.084139 L 20.166 218.084139 L 21.432 218.084139 L 21.432 218.084139 Q 21.564 218.084139 21.621 218.147139 L 21.621 218.147139 L 21.621 218.147139 Q 21.678 218.210139 21.678 218.342139 L 21.678 218.342139 L 21.678 219.926139 L 21.678 219.926139 Q 21.678 220.016139 21.66 220.061139 L 21.66 220.061139 L 21.66 220.061139 Q 21.642 220.106139 21.582 220.142139 L 21.582 220.142139 L 21.582 220.142139 Q 21.03 220.490139 20.082 220.490139 L 20.082 220.490139 L 20.082 220.490139 Z  M 22.748 220.400139 L 22.748 220.400139 Q 22.646 220.400139 22.646 220.310139 L 22.646 220.310139 L 22.646 220.310139 Q 22.646 220.274139 22.664 220.232139 L 22.664 220.232139 L 24.248 216.476139 L 24.248 216.476139 Q 24.284 216.386139 24.326 216.353139 L 24.326 216.353139 L 24.326 216.353139 Q 24.368 216.320139 24.446 216.320139 L 24.446 216.320139 L 24.776 216.320139 L 24.776 216.320139 Q 24.86 216.320139 24.899 216.353139 L 24.899 216.353139 L 24.899 216.353139 Q 24.938 216.386139 24.974 216.476139 L 24.974 216.476139 L 26.558 220.232139 L 26.558 220.232139 Q 26.576 220.274139 26.576 220.310139 L 26.576 220.310139 L 26.576 220.310139 Q 26.576 220.400139 26.474 220.400139 L 26.474 220.400139 L 25.952 220.400139 L 25.952 220.400139 Q 25.874 220.400139 25.841 220.379139 L 25.841 220.379139 L 25.841 220.379139 Q 25.808 220.358139 25.778 220.292139 L 25.778 220.292139 L 25.436 219.452139 L 23.78 219.452139 L 23.444 220.292139 L 23.444 220.292139 Q 23.414 220.358139 23.381 220.379139 L 23.381 220.379139 L 23.381 220.379139 Q 23.348 220.400139 23.27 220.400139 L 23.27 220.400139 L 22.748 220.400139 L 22.748 220.400139 Z  M 23.972 218.894139 L 25.244 218.894139 L 24.608 217.322139 L 23.972 218.894139 L 23.972 218.894139 Z  M 28.912 220.400139 L 28.912 220.400139 Q 28.792 220.400139 28.738 220.346139 L 28.738 220.346139 L 28.738 220.346139 Q 28.684 220.292139 28.684 220.184139 L 28.684 220.184139 L 28.684 216.908139 L 27.634 216.908139 L 27.634 216.908139 Q 27.514 216.908139 27.469 216.860139 L 27.469 216.860139 L 27.469 216.860139 Q 27.424 216.812139 27.424 216.698139 L 27.424 216.698139 L 27.424 216.536139 L 27.424 216.536139 Q 27.424 216.422139 27.469 216.371139 L 27.469 216.371139 L 27.469 216.371139 Q 27.514 216.320139 27.634 216.320139 L 27.634 216.320139 L 30.502 216.320139 L 30.502 216.320139 Q 30.622 216.320139 30.67 216.371139 L 30.67 216.371139 L 30.67 216.371139 Q 30.718 216.422139 30.718 216.536139 L 30.718 216.536139 L 30.718 216.698139 L 30.718 216.698139 Q 30.718 216.812139 30.67 216.860139 L 30.67 216.860139 L 30.67 216.860139 Q 30.622 216.908139 30.502 216.908139 L 30.502 216.908139 L 29.452 216.908139 L 29.452 220.184139 L 29.452 220.184139 Q 29.452 220.292139 29.401 220.346139 L 29.401 220.346139 L 29.401 220.346139 Q 29.35 220.400139 29.224 220.400139 L 29.224 220.400139 L 28.912 220.400139 L 28.912 220.400139 Z  M 31.908 220.400139 L 31.908 220.400139 Q 31.788 220.400139 31.737 220.346139 L 31.737 220.346139 L 31.737 220.346139 Q 31.686 220.292139 31.686 220.184139 L 31.686 220.184139 L 31.686 216.542139 L 31.686 216.542139 Q 31.686 216.428139 31.737 216.374139 L 31.737 216.374139 L 31.737 216.374139 Q 31.788 216.320139 31.908 216.320139 L 31.908 216.320139 L 34.404 216.320139 L 34.404 216.320139 Q 34.524 216.320139 34.569 216.368139 L 34.569 216.368139 L 34.569 216.368139 Q 34.614 216.416139 34.614 216.530139 L 34.614 216.530139 L 34.614 216.692139 L 34.614 216.692139 Q 34.614 216.806139 34.569 216.857139 L 34.569 216.857139 L 34.569 216.857139 Q 34.524 216.908139 34.404 216.908139 L 34.404 216.908139 L 32.454 216.908139 L 32.454 218.072139 L 33.87 218.072139 L 33.87 218.072139 Q 33.99 218.072139 34.038 218.120139 L 34.038 218.120139 L 34.038 218.120139 Q 34.086 218.168139 34.086 218.282139 L 34.086 218.282139 L 34.086 218.432139 L 34.086 218.432139 Q 34.086 218.546139 34.038 218.597139 L 34.038 218.597139 L 34.038 218.597139 Q 33.99 218.648139 33.87 218.648139 L 33.87 218.648139 L 32.454 218.648139 L 32.454 219.818139 L 34.398 219.818139 L 34.398 219.818139 Q 34.518 219.818139 34.566 219.869139 L 34.566 219.869139 L 34.566 219.869139 Q 34.614 219.920139 34.614 220.034139 L 34.614 220.034139 L 34.614 220.196139 L 34.614 220.196139 Q 34.614 220.304139 34.566 220.352139 L 34.566 220.352139 L 34.566 220.352139 Q 34.518 220.400139 34.398 220.400139 L 34.398 220.400139 L 31.908 220.400139 L 31.908 220.400139 Z " fill-rule="evenodd" fill="rgb(255,255,255)"/><path d=" M 23.667 172.490139 L 23.667 172.490139 Q 22.647 172.490139 22.089 171.938139 L 22.089 171.938139 L 22.089 171.938139 Q 21.531 171.386139 21.531 170.360139 L 21.531 170.360139 L 21.531 170.360139 Q 21.531 169.334139 22.08 168.782139 L 22.08 168.782139 L 22.08 168.782139 Q 22.629 168.230139 23.649 168.230139 L 23.649 168.230139 L 23.649 168.230139 Q 24.057 168.230139 24.405 168.314139 L 24.405 168.314139 L 24.405 168.314139 Q 24.753 168.398139 24.993 168.554139 L 24.993 168.554139 L 24.993 168.554139 Q 25.047 168.590139 25.047 168.632139 L 25.047 168.632139 L 25.047 168.632139 Q 25.047 168.668139 25.017 168.716139 L 25.017 168.716139 L 24.849 169.004139 L 24.849 169.004139 Q 24.813 169.058139 24.783 169.058139 L 24.783 169.058139 L 24.783 169.058139 Q 24.759 169.058139 24.699 169.028139 L 24.699 169.028139 L 24.699 169.028139 Q 24.321 168.800139 23.733 168.800139 L 23.733 168.800139 L 23.733 168.800139 Q 23.055 168.800139 22.671 169.190139 L 22.671 169.190139 L 22.671 169.190139 Q 22.287 169.580139 22.287 170.360139 L 22.287 170.360139 L 22.287 170.360139 Q 22.287 171.152139 22.683 171.539139 L 22.683 171.539139 L 22.683 171.539139 Q 23.079 171.926139 23.751 171.926139 L 23.751 171.926139 L 23.751 171.926139 Q 24.375 171.926139 24.777 171.692139 L 24.777 171.692139 L 24.777 171.692139 Q 24.837 171.662139 24.855 171.662139 L 24.855 171.662139 L 24.855 171.662139 Q 24.891 171.662139 24.927 171.716139 L 24.927 171.716139 L 25.113 172.028139 L 25.113 172.028139 Q 25.131 172.064139 25.131 172.088139 L 25.131 172.088139 L 25.131 172.088139 Q 25.131 172.124139 25.065 172.166139 L 25.065 172.166139 L 25.065 172.166139 Q 24.603 172.490139 23.667 172.490139 L 23.667 172.490139 L 23.667 172.490139 Z  M 27.869 172.400139 L 27.869 172.400139 Q 27.785 172.400139 27.746 172.370139 L 27.746 172.370139 L 27.746 172.370139 Q 27.707 172.340139 27.671 172.250139 L 27.671 172.250139 L 26.111 168.488139 L 26.111 168.488139 Q 26.093 168.452139 26.093 168.416139 L 26.093 168.416139 L 26.093 168.416139 Q 26.093 168.374139 26.12 168.347139 L 26.12 168.347139 L 26.12 168.347139 Q 26.147 168.320139 26.195 168.320139 L 26.195 168.320139 L 26.711 168.320139 L 26.711 168.320139 Q 26.789 168.320139 26.831 168.350139 L 26.831 168.350139 L 26.831 168.350139 Q 26.873 168.380139 26.897 168.446139 L 26.897 168.446139 L 28.031 171.326139 L 29.165 168.446139 L 29.165 168.446139 Q 29.189 168.380139 29.231 168.350139 L 29.231 168.350139 L 29.231 168.350139 Q 29.273 168.320139 29.351 168.320139 L 29.351 168.320139 L 29.867 168.320139 L 29.867 168.320139 Q 29.915 168.320139 29.942 168.347139 L 29.942 168.347139 L 29.942 168.347139 Q 29.969 168.374139 29.969 168.416139 L 29.969 168.416139 L 29.969 168.416139 Q 29.969 168.452139 29.951 168.488139 L 29.951 168.488139 L 28.397 172.250139 L 28.397 172.250139 Q 28.361 172.340139 28.319 172.370139 L 28.319 172.370139 L 28.319 172.370139 Q 28.277 172.400139 28.193 172.400139 L 28.193 172.400139 L 27.869 172.400139 L 27.869 172.400139 Z " fill-rule="evenodd" fill="rgb(255,255,255)"/><path d=" M 52.667 172.400139 L 52.667 172.400139 Q 52.547 172.400139 52.496 172.346139 L 52.496 172.346139 L 52.496 172.346139 Q 52.445 172.292139 52.445 172.184139 L 52.445 172.184139 L 52.445 168.542139 L 52.445 168.542139 Q 52.445 168.428139 52.496 168.374139 L 52.496 168.374139 L 52.496 168.374139 Q 52.547 168.320139 52.667 168.320139 L 52.667 168.320139 L 54.233 168.320139 L 54.233 168.320139 Q 54.929 168.320139 55.292 168.644139 L 55.292 168.644139 L 55.292 168.644139 Q 55.655 168.968139 55.655 169.604139 L 55.655 169.604139 L 55.655 169.604139 Q 55.655 170.024139 55.457 170.321139 L 55.457 170.321139 L 55.457 170.321139 Q 55.259 170.618139 54.881 170.768139 L 54.881 170.768139 L 55.547 172.244139 L 55.547 172.244139 Q 55.565 172.280139 55.565 172.310139 L 55.565 172.310139 L 55.565 172.310139 Q 55.565 172.400139 55.457 172.400139 L 55.457 172.400139 L 54.965 172.400139 L 54.965 172.400139 Q 54.887 172.400139 54.851 172.379139 L 54.851 172.379139 L 54.851 172.379139 Q 54.815 172.358139 54.785 172.292139 L 54.785 172.292139 L 54.179 170.870139 L 53.213 170.870139 L 53.213 172.184139 L 53.213 172.184139 Q 53.213 172.292139 53.162 172.346139 L 53.162 172.346139 L 53.162 172.346139 Q 53.111 172.400139 52.985 172.400139 L 52.985 172.400139 L 52.667 172.400139 L 52.667 172.400139 Z  M 53.213 170.294139 L 54.077 170.294139 L 54.077 170.294139 Q 54.497 170.294139 54.695 170.132139 L 54.695 170.132139 L 54.695 170.132139 Q 54.893 169.970139 54.893 169.604139 L 54.893 169.604139 L 54.893 169.604139 Q 54.893 169.244139 54.713 169.076139 L 54.713 169.076139 L 54.713 169.076139 Q 54.533 168.908139 54.167 168.908139 L 54.167 168.908139 L 53.213 168.908139 L 53.213 170.294139 L 53.213 170.294139 Z  M 57.991 172.400139 L 57.991 172.400139 Q 57.871 172.400139 57.817 172.346139 L 57.817 172.346139 L 57.817 172.346139 Q 57.763 172.292139 57.763 172.184139 L 57.763 172.184139 L 57.763 168.908139 L 56.713 168.908139 L 56.713 168.908139 Q 56.593 168.908139 56.548 168.860139 L 56.548 168.860139 L 56.548 168.860139 Q 56.503 168.812139 56.503 168.698139 L 56.503 168.698139 L 56.503 168.536139 L 56.503 168.536139 Q 56.503 168.422139 56.548 168.371139 L 56.548 168.371139 L 56.548 168.371139 Q 56.593 168.320139 56.713 168.320139 L 56.713 168.320139 L 59.581 168.320139 L 59.581 168.320139 Q 59.701 168.320139 59.749 168.371139 L 59.749 168.371139 L 59.749 168.371139 Q 59.797 168.422139 59.797 168.536139 L 59.797 168.536139 L 59.797 168.698139 L 59.797 168.698139 Q 59.797 168.812139 59.749 168.860139 L 59.749 168.860139 L 59.749 168.860139 Q 59.701 168.908139 59.581 168.908139 L 59.581 168.908139 L 58.531 168.908139 L 58.531 172.184139 L 58.531 172.184139 Q 58.531 172.292139 58.48 172.346139 L 58.48 172.346139 L 58.48 172.346139 Q 58.429 172.400139 58.303 172.400139 L 58.303 172.400139 L 57.991 172.400139 L 57.991 172.400139 Z  M 60.987 172.400139 L 60.987 172.400139 Q 60.867 172.400139 60.816 172.346139 L 60.816 172.346139 L 60.816 172.346139 Q 60.765 172.292139 60.765 172.184139 L 60.765 172.184139 L 60.765 168.542139 L 60.765 168.542139 Q 60.765 168.428139 60.816 168.374139 L 60.816 168.374139 L 60.816 168.374139 Q 60.867 168.320139 60.987 168.320139 L 60.987 168.320139 L 62.553 168.320139 L 62.553 168.320139 Q 63.249 168.320139 63.612 168.644139 L 63.612 168.644139 L 63.612 168.644139 Q 63.975 168.968139 63.975 169.604139 L 63.975 169.604139 L 63.975 169.604139 Q 63.975 170.024139 63.777 170.321139 L 63.777 170.321139 L 63.777 170.321139 Q 63.579 170.618139 63.201 170.768139 L 63.201 170.768139 L 63.867 172.244139 L 63.867 172.244139 Q 63.885 172.280139 63.885 172.310139 L 63.885 172.310139 L 63.885 172.310139 Q 63.885 172.400139 63.777 172.400139 L 63.777 172.400139 L 63.285 172.400139 L 63.285 172.400139 Q 63.207 172.400139 63.171 172.379139 L 63.171 172.379139 L 63.171 172.379139 Q 63.135 172.358139 63.105 172.292139 L 63.105 172.292139 L 62.499 170.870139 L 61.533 170.870139 L 61.533 172.184139 L 61.533 172.184139 Q 61.533 172.292139 61.482 172.346139 L 61.482 172.346139 L 61.482 172.346139 Q 61.431 172.400139 61.305 172.400139 L 61.305 172.400139 L 60.987 172.400139 L 60.987 172.400139 Z  M 61.533 170.294139 L 62.397 170.294139 L 62.397 170.294139 Q 62.817 170.294139 63.015 170.132139 L 63.015 170.132139 L 63.015 170.132139 Q 63.213 169.970139 63.213 169.604139 L 63.213 169.604139 L 63.213 169.604139 Q 63.213 169.244139 63.033 169.076139 L 63.033 169.076139 L 63.033 169.076139 Q 62.853 168.908139 62.487 168.908139 L 62.487 168.908139 L 61.533 168.908139 L 61.533 170.294139 L 61.533 170.294139 Z  M 67.079 172.490139 L 67.079 172.490139 Q 66.059 172.490139 65.501 171.938139 L 65.501 171.938139 L 65.501 171.938139 Q 64.943 171.386139 64.943 170.360139 L 64.943 170.360139 L 64.943 170.360139 Q 64.943 169.340139 65.504 168.785139 L 65.504 168.785139 L 65.504 168.785139 Q 66.065 168.230139 67.079 168.230139 L 67.079 168.230139 L 67.079 168.230139 Q 67.487 168.230139 67.841 168.314139 L 67.841 168.314139 L 67.841 168.314139 Q 68.195 168.398139 68.429 168.554139 L 68.429 168.554139 L 68.429 168.554139 Q 68.483 168.590139 68.483 168.632139 L 68.483 168.632139 L 68.483 168.632139 Q 68.483 168.662139 68.459 168.704139 L 68.459 168.704139 L 68.285 169.004139 L 68.285 169.004139 Q 68.249 169.058139 68.213 169.058139 L 68.213 169.058139 L 68.213 169.058139 Q 68.195 169.058139 68.135 169.028139 L 68.135 169.028139 L 68.135 169.028139 Q 67.727 168.800139 67.163 168.800139 L 67.163 168.800139 L 67.163 168.800139 Q 66.479 168.800139 66.089 169.187139 L 66.089 169.187139 L 66.089 169.187139 Q 65.699 169.574139 65.699 170.360139 L 65.699 170.360139 L 65.699 170.360139 Q 65.699 171.152139 66.077 171.536139 L 66.077 171.536139 L 66.077 171.536139 Q 66.455 171.920139 67.115 171.920139 L 67.115 171.920139 L 67.115 171.920139 Q 67.355 171.920139 67.583 171.881139 L 67.583 171.881139 L 67.583 171.881139 Q 67.811 171.842139 67.955 171.770139 L 67.955 171.770139 L 67.955 170.660139 L 67.163 170.660139 L 67.163 170.660139 Q 67.043 170.660139 66.995 170.609139 L 66.995 170.609139 L 66.995 170.609139 Q 66.947 170.558139 66.947 170.444139 L 66.947 170.444139 L 66.947 170.288139 L 66.947 170.288139 Q 66.947 170.174139 66.995 170.129139 L 66.995 170.129139 L 66.995 170.129139 Q 67.043 170.084139 67.163 170.084139 L 67.163 170.084139 L 68.429 170.084139 L 68.429 170.084139 Q 68.561 170.084139 68.618 170.147139 L 68.618 170.147139 L 68.618 170.147139 Q 68.675 170.210139 68.675 170.342139 L 68.675 170.342139 L 68.675 171.926139 L 68.675 171.926139 Q 68.675 172.016139 68.657 172.061139 L 68.657 172.061139 L 68.657 172.061139 Q 68.639 172.106139 68.579 172.142139 L 68.579 172.142139 L 68.579 172.142139 Q 68.027 172.490139 67.079 172.490139 L 67.079 172.490139 L 67.079 172.490139 Z " fill-rule="evenodd" fill="rgb(255,255,255)"/><path d=" M 90.469 172.400139 L 90.469 172.400139 Q 90.349 172.400139 90.298 172.346139 L 90.298 172.346139 L 90.298 172.346139 Q 90.247 172.292139 90.247 172.184139 L 90.247 172.184139 L 90.247 168.542139 L 90.247 168.542139 Q 90.247 168.428139 90.298 168.374139 L 90.298 168.374139 L 90.298 168.374139 Q 90.349 168.320139 90.469 168.320139 L 90.469 168.320139 L 92.005 168.320139 L 92.005 168.320139 Q 92.743 168.320139 93.1 168.671139 L 93.1 168.671139 L 93.1 168.671139 Q 93.457 169.022139 93.457 169.676139 L 93.457 169.676139 L 93.457 169.676139 Q 93.457 170.324139 93.1 170.672139 L 93.1 170.672139 L 93.1 170.672139 Q 92.743 171.020139 92.005 171.020139 L 92.005 171.020139 L 91.015 171.020139 L 91.015 172.184139 L 91.015 172.184139 Q 91.015 172.292139 90.964 172.346139 L 90.964 172.346139 L 90.964 172.346139 Q 90.913 172.400139 90.787 172.400139 L 90.787 172.400139 L 90.469 172.400139 L 90.469 172.400139 Z  M 91.015 170.438139 L 91.969 170.438139 L 91.969 170.438139 Q 92.335 170.438139 92.515 170.249139 L 92.515 170.249139 L 92.515 170.249139 Q 92.695 170.060139 92.695 169.676139 L 92.695 169.676139 L 92.695 169.676139 Q 92.695 169.286139 92.515 169.097139 L 92.515 169.097139 L 92.515 169.097139 Q 92.335 168.908139 91.969 168.908139 L 91.969 168.908139 L 91.015 168.908139 L 91.015 170.438139 L 91.015 170.438139 Z  M 95.463 172.400139 L 95.463 172.400139 Q 95.373 172.400139 95.328 172.367139 L 95.328 172.367139 L 95.328 172.367139 Q 95.283 172.334139 95.265 172.250139 L 95.265 172.250139 L 94.317 168.464139 L 94.317 168.464139 Q 94.311 168.446139 94.311 168.410139 L 94.311 168.410139 L 94.311 168.410139 Q 94.311 168.320139 94.425 168.320139 L 94.425 168.320139 L 94.911 168.320139 L 94.911 168.320139 Q 95.001 168.320139 95.037 168.350139 L 95.037 168.350139 L 95.037 168.350139 Q 95.073 168.380139 95.085 168.446139 L 95.085 168.446139 L 95.685 171.086139 L 96.405 168.758139 L 96.405 168.758139 Q 96.429 168.686139 96.462 168.659139 L 96.462 168.659139 L 96.462 168.659139 Q 96.495 168.632139 96.573 168.632139 L 96.573 168.632139 L 96.849 168.632139 L 96.849 168.632139 Q 96.927 168.632139 96.96 168.659139 L 96.96 168.659139 L 96.96 168.659139 Q 96.993 168.686139 97.017 168.758139 L 97.017 168.758139 L 97.743 171.086139 L 98.337 168.446139 L 98.337 168.446139 Q 98.349 168.380139 98.388 168.350139 L 98.388 168.350139 L 98.388 168.350139 Q 98.427 168.320139 98.511 168.320139 L 98.511 168.320139 L 99.003 168.320139 L 99.003 168.320139 Q 99.117 168.320139 99.117 168.410139 L 99.117 168.410139 L 99.117 168.410139 Q 99.117 168.446139 99.111 168.464139 L 99.111 168.464139 L 98.157 172.250139 L 98.157 172.250139 Q 98.133 172.334139 98.088 172.367139 L 98.088 172.367139 L 98.088 172.367139 Q 98.043 172.400139 97.959 172.400139 L 97.959 172.400139 L 97.635 172.400139 L 97.635 172.400139 Q 97.551 172.400139 97.506 172.367139 L 97.506 172.367139 L 97.506 172.367139 Q 97.461 172.334139 97.437 172.250139 L 97.437 172.250139 L 96.711 169.850139 L 95.991 172.250139 L 95.991 172.250139 Q 95.967 172.334139 95.922 172.367139 L 95.922 172.367139 L 95.922 172.367139 Q 95.877 172.400139 95.793 172.400139 L 95.793 172.400139 L 95.463 172.400139 L 95.463 172.400139 Z " fill-rule="evenodd" fill="rgb(255,255,255)"/></g></svg>