<?xml version="1.0" standalone="no"?><!-- Generator: Gravit.io --><svg xmlns="http://www.w3.org/2000/svg" xmlns:xlink="http://www.w3.org/1999/xlink" style="isolation:isolate" viewBox="0 0 150 380" width="150" height="380"><defs><clipPath id="_clipPath_aEWNIyVOSNacaOBKSu0m4UQpJTOR5D87"><rect width="150" height="380"/></clipPath></defs><g clip-path="url(#_clipPath_aEWNIyVOSNacaOBKSu0m4UQpJTOR5D87)"><g id="bg"><rect x="0" y="0" width="150" height="380" transform="matrix(1,0,0,1,0,0)" fill="rgb(240,240,240)"/><path d=" M 69.081618 369.598705 C 68.927026 369.747088 68.783257 369.850659 68.650311 369.909418 C 68.51736 369.968177 68.375138 369.997539 68.223635 369.997539 C 68.072137 369.997539 67.929914 369.969715 67.796964 369.914067 C 67.664013 369.858419 67.548073 369.781099 67.449133 369.682177 C 67.232702 369.465737 67.12449 369.209133 67.12449 368.912298 L 67.12449 363.384743 C 67.12449 363.08172 67.201784 362.846754 67.356376 362.67981 C 67.622277 362.407722 67.874258 362.271678 68.11233 362.271678 C 68.350403 362.271678 68.528179 362.296391 68.64567 362.345887 C 68.763162 362.395348 68.862097 362.457183 68.942485 362.531392 C 69.047611 362.624127 69.126452 362.723084 69.179011 362.828193 C 69.231574 362.933337 69.274857 363.010622 69.308868 363.060083 C 69.342879 363.109544 69.398531 363.134292 69.475829 363.134292 C 69.553123 363.134292 69.619598 363.109544 69.675251 363.060083 L 69.832932 362.902402 C 70.284342 362.481931 70.735744 362.271678 71.187154 362.271678 C 71.984853 362.271678 72.643406 362.599414 73.162834 363.254886 C 73.212304 363.322908 73.274139 363.356919 73.348343 363.356919 C 73.4782 363.356919 73.609604 363.256424 73.742555 363.055434 C 73.875501 362.854479 74.090381 362.673623 74.3872 362.512831 C 74.684018 362.352074 75.030298 362.271678 75.426056 362.271678 C 75.82181 362.271678 76.182006 362.344314 76.506648 362.489656 C 76.831291 362.634963 77.114193 362.83438 77.355355 363.087907 C 77.862418 363.619709 78.115945 364.262808 78.115945 365.017202 L 78.115945 368.912298 C 78.115945 369.382265 77.893335 369.713077 77.448112 369.904769 C 77.312068 369.966604 77.168303 369.997539 77.0168 369.997539 C 76.865302 369.997539 76.723075 369.969715 76.590129 369.914067 C 76.457179 369.858419 76.341238 369.781099 76.242298 369.682177 C 76.03205 369.45955 75.926932 369.202946 75.926932 368.912298 L 75.926932 365.04506 C 75.926932 364.735851 75.849634 364.503961 75.695042 364.34939 C 75.422963 364.077302 75.172525 363.941258 74.943728 363.941258 C 74.714932 363.941258 74.535609 363.970621 74.405752 364.029379 C 74.275891 364.088138 74.158403 364.170072 74.053281 364.275181 C 73.836854 364.491621 73.728638 364.742038 73.728638 365.0265 L 73.728638 368.912298 C 73.728638 369.382265 73.509122 369.713077 73.070081 369.904769 C 72.934037 369.966604 72.790268 369.997539 72.63877 369.997539 C 72.487267 369.997539 72.343502 369.969715 72.207458 369.914067 C 72.071419 369.858419 71.953931 369.781099 71.854992 369.682177 C 71.638561 369.465737 71.530349 369.209133 71.530349 368.912298 L 71.530349 365.04506 C 71.530349 364.735851 71.453051 364.503961 71.298459 364.34939 C 71.02638 364.077302 70.741935 363.941258 70.445117 363.941258 C 69.950419 363.941258 69.607233 364.13295 69.415537 364.516335 C 69.353701 364.640005 69.32278 364.779159 69.32278 364.93373 L 69.32278 368.912298 C 69.32278 369.21532 69.242397 369.4441 69.081618 369.598705 Z  M 80.342682 363.387204 C 80.342682 363.084216 80.419976 362.849215 80.574568 362.682271 C 80.840469 362.410183 81.13419 362.274139 81.455739 362.274139 C 81.764923 362.274139 81.993719 362.354535 82.142128 362.515292 C 82.414208 362.793567 82.550252 363.084216 82.550252 363.387204 L 82.550252 368.914793 C 82.550252 369.211595 82.472958 369.437298 82.318362 369.591902 C 82.046282 369.863956 81.79584 370 81.567044 370 C 81.338247 370 81.155835 369.970638 81.019791 369.911879 C 80.883752 369.853155 80.766264 369.777407 80.667325 369.684638 C 80.450893 369.474385 80.342682 369.217781 80.342682 368.914793 L 80.342682 363.387204 Z  M 81.450791 359.899625 C 81.188513 359.899625 80.975889 359.687013 80.975889 359.424702 C 80.975889 359.162424 81.188513 358.949812 81.450791 358.949812 C 81.713077 358.949812 81.925697 359.162424 81.925697 359.424702 C 81.925697 359.687013 81.713077 359.899625 81.450791 359.899625 Z  M 81.450791 358 C 81.837756 358 82.171943 358.141752 82.453372 358.425291 C 82.7348 358.70883 82.87551 358.99589 82.87551 359.286504 C 82.87551 359.577119 82.836816 359.80747 82.759419 359.977594 C 82.682031 360.147717 82.580016 360.296545 82.453372 360.424146 C 82.171943 360.707685 81.837756 360.849437 81.450791 360.849437 C 81.063835 360.849437 80.729643 360.707685 80.448219 360.424146 C 80.166791 360.140607 80.026081 359.857103 80.026081 359.573564 C 80.026081 359.091565 80.166791 358.70883 80.448219 358.425291 C 80.729643 358.141752 81.063835 358 81.450791 358 Z " fill-rule="evenodd" fill="rgb(10,118,187)"/><path d=" M 89.321 28.31 L 89.321 28.31 Q 86.885 28.31 85.548 27.029 L 85.548 27.029 L 85.548 27.029 Q 84.211 25.748 84.211 23.34 L 84.211 23.34 L 84.211 23.34 Q 84.211 20.918 85.52 19.644 L 85.52 19.644 L 85.52 19.644 Q 86.829 18.37 89.265 18.37 L 89.265 18.37 L 89.265 18.37 Q 90.287 18.37 91.12 18.573 L 91.12 18.573 L 91.12 18.573 Q 91.953 18.776 92.527 19.154 L 92.527 19.154 L 92.527 19.154 Q 92.667 19.252 92.667 19.378 L 92.667 19.378 L 92.667 19.378 Q 92.667 19.49 92.583 19.616 L 92.583 19.616 L 92.093 20.47 L 92.093 20.47 Q 91.995 20.624 91.897 20.624 L 91.897 20.624 L 91.897 20.624 Q 91.813 20.624 91.659 20.54 L 91.659 20.54 L 91.659 20.54 Q 90.763 20.036 89.545 20.036 L 89.545 20.036 L 89.545 20.036 Q 88.103 20.036 87.305 20.869 L 87.305 20.869 L 87.305 20.869 Q 86.507 21.702 86.507 23.34 L 86.507 23.34 L 86.507 23.34 Q 86.507 24.992 87.34 25.818 L 87.34 25.818 L 87.34 25.818 Q 88.173 26.644 89.615 26.644 L 89.615 26.644 L 89.615 26.644 Q 90.931 26.644 91.827 26.14 L 91.827 26.14 L 91.827 26.14 Q 91.981 26.056 92.065 26.056 L 92.065 26.056 L 92.065 26.056 Q 92.163 26.056 92.261 26.21 L 92.261 26.21 L 92.807 27.148 L 92.807 27.148 Q 92.863 27.246 92.863 27.316 L 92.863 27.316 L 92.863 27.316 Q 92.863 27.4 92.695 27.526 L 92.695 27.526 L 92.695 27.526 Q 91.603 28.31 89.321 28.31 L 89.321 28.31 L 89.321 28.31 Z  M 98.813 28.31 L 98.813 28.31 Q 96.377 28.31 95.04 27.029 L 95.04 27.029 L 95.04 27.029 Q 93.703 25.748 93.703 23.34 L 93.703 23.34 L 93.703 23.34 Q 93.703 20.918 95.012 19.644 L 95.012 19.644 L 95.012 19.644 Q 96.321 18.37 98.757 18.37 L 98.757 18.37 L 98.757 18.37 Q 99.779 18.37 100.612 18.573 L 100.612 18.573 L 100.612 18.573 Q 101.445 18.776 102.019 19.154 L 102.019 19.154 L 102.019 19.154 Q 102.159 19.252 102.159 19.378 L 102.159 19.378 L 102.159 19.378 Q 102.159 19.49 102.075 19.616 L 102.075 19.616 L 101.585 20.47 L 101.585 20.47 Q 101.487 20.624 101.389 20.624 L 101.389 20.624 L 101.389 20.624 Q 101.305 20.624 101.151 20.54 L 101.151 20.54 L 101.151 20.54 Q 100.255 20.036 99.037 20.036 L 99.037 20.036 L 99.037 20.036 Q 97.595 20.036 96.797 20.869 L 96.797 20.869 L 96.797 20.869 Q 95.999 21.702 95.999 23.34 L 95.999 23.34 L 95.999 23.34 Q 95.999 24.992 96.832 25.818 L 96.832 25.818 L 96.832 25.818 Q 97.665 26.644 99.107 26.644 L 99.107 26.644 L 99.107 26.644 Q 100.423 26.644 101.319 26.14 L 101.319 26.14 L 101.319 26.14 Q 101.473 26.056 101.557 26.056 L 101.557 26.056 L 101.557 26.056 Q 101.655 26.056 101.753 26.21 L 101.753 26.21 L 102.299 27.148 L 102.299 27.148 Q 102.355 27.246 102.355 27.316 L 102.355 27.316 L 102.355 27.316 Q 102.355 27.4 102.187 27.526 L 102.187 27.526 L 102.187 27.526 Q 101.095 28.31 98.813 28.31 L 98.813 28.31 L 98.813 28.31 Z  M 70.803 28.1 L 70.803 28.1 Q 70.467 28.1 70.32 27.953 L 70.32 27.953 L 70.32 27.953 Q 70.173 27.806 70.173 27.498 L 70.173 27.498 L 70.173 19.196 L 70.173 19.196 Q 70.173 18.888 70.32 18.734 L 70.32 18.734 L 70.32 18.734 Q 70.467 18.58 70.803 18.58 L 70.803 18.58 L 71.853 18.58 L 71.853 18.58 Q 72.203 18.58 72.343 18.727 L 72.343 18.727 L 72.343 18.727 Q 72.483 18.874 72.483 19.196 L 72.483 19.196 L 72.483 27.498 L 72.483 27.498 Q 72.483 27.806 72.343 27.953 L 72.343 27.953 L 72.343 27.953 Q 72.203 28.1 71.853 28.1 L 71.853 28.1 L 70.803 28.1 L 70.803 28.1 Z  M 76.163 24.74 L 76.163 24.74 Q 75.855 24.74 75.743 24.607 L 75.743 24.607 L 75.743 24.607 Q 75.631 24.474 75.631 24.194 L 75.631 24.194 L 75.631 23.578 L 75.631 23.578 Q 75.631 23.298 75.743 23.165 L 75.743 23.165 L 75.743 23.165 Q 75.855 23.032 76.163 23.032 L 76.163 23.032 L 80.811 23.032 L 80.811 23.032 Q 81.105 23.032 81.224 23.165 L 81.224 23.165 L 81.224 23.165 Q 81.343 23.298 81.343 23.578 L 81.343 23.578 L 81.343 24.194 L 81.343 24.194 Q 81.343 24.474 81.224 24.607 L 81.224 24.607 L 81.224 24.607 Q 81.105 24.74 80.811 24.74 L 80.811 24.74 L 76.163 24.74 L 76.163 24.74 Z  M 46.583 28.1 L 46.583 28.1 Q 46.247 28.1 46.1 27.953 L 46.1 27.953 L 46.1 27.953 Q 45.953 27.806 45.953 27.498 L 45.953 27.498 L 45.953 19.182 L 45.953 19.182 Q 45.953 18.874 46.1 18.727 L 46.1 18.727 L 46.1 18.727 Q 46.247 18.58 46.597 18.58 L 46.597 18.58 L 47.633 18.58 L 47.633 18.58 Q 47.885 18.58 48.025 18.643 L 48.025 18.643 L 48.025 18.643 Q 48.165 18.706 48.249 18.888 L 48.249 18.888 L 50.671 24.6 L 53.107 18.888 L 53.107 18.888 Q 53.191 18.706 53.331 18.643 L 53.331 18.643 L 53.331 18.643 Q 53.471 18.58 53.723 18.58 L 53.723 18.58 L 54.759 18.58 L 54.759 18.58 Q 55.109 18.58 55.256 18.727 L 55.256 18.727 L 55.256 18.727 Q 55.403 18.874 55.403 19.182 L 55.403 19.182 L 55.403 27.498 L 55.403 27.498 Q 55.403 27.806 55.256 27.953 L 55.256 27.953 L 55.256 27.953 Q 55.109 28.1 54.773 28.1 L 54.773 28.1 L 53.919 28.1 L 53.919 28.1 Q 53.569 28.1 53.422 27.953 L 53.422 27.953 L 53.422 27.953 Q 53.275 27.806 53.275 27.498 L 53.275 27.498 L 53.275 22.206 L 51.399 26.392 L 51.399 26.392 Q 51.259 26.686 51.126 26.805 L 51.126 26.805 L 51.126 26.805 Q 50.993 26.924 50.671 26.924 L 50.671 26.924 L 50.671 26.924 Q 50.363 26.924 50.216 26.805 L 50.216 26.805 L 50.216 26.805 Q 50.069 26.686 49.943 26.392 L 49.943 26.392 L 48.081 22.206 L 48.081 27.498 L 48.081 27.498 Q 48.081 27.806 47.934 27.953 L 47.934 27.953 L 47.934 27.953 Q 47.787 28.1 47.437 28.1 L 47.437 28.1 L 46.583 28.1 L 46.583 28.1 Z  M 57.461 28.1 L 57.461 28.1 Q 57.125 28.1 56.978 27.953 L 56.978 27.953 L 56.978 27.953 Q 56.831 27.806 56.831 27.498 L 56.831 27.498 L 56.831 19.196 L 56.831 19.196 Q 56.831 18.888 56.978 18.734 L 56.978 18.734 L 56.978 18.734 Q 57.125 18.58 57.461 18.58 L 57.461 18.58 L 58.511 18.58 L 58.511 18.58 Q 58.861 18.58 59.001 18.727 L 59.001 18.727 L 59.001 18.727 Q 59.141 18.874 59.141 19.196 L 59.141 19.196 L 59.141 27.498 L 59.141 27.498 Q 59.141 27.806 59.001 27.953 L 59.001 27.953 L 59.001 27.953 Q 58.861 28.1 58.511 28.1 L 58.511 28.1 L 57.461 28.1 L 57.461 28.1 Z  M 61.199 28.1 L 61.199 28.1 Q 60.863 28.1 60.716 27.953 L 60.716 27.953 L 60.716 27.953 Q 60.569 27.806 60.569 27.498 L 60.569 27.498 L 60.569 19.196 L 60.569 19.196 Q 60.569 18.888 60.716 18.734 L 60.716 18.734 L 60.716 18.734 Q 60.863 18.58 61.199 18.58 L 61.199 18.58 L 64.139 18.58 L 64.139 18.58 Q 66.533 18.58 67.779 19.728 L 67.779 19.728 L 67.779 19.728 Q 69.025 20.876 69.025 23.34 L 69.025 23.34 L 69.025 23.34 Q 69.025 25.776 67.765 26.938 L 67.765 26.938 L 67.765 26.938 Q 66.505 28.1 64.139 28.1 L 64.139 28.1 L 61.199 28.1 L 61.199 28.1 Z  M 62.879 26.406 L 64.251 26.406 L 64.251 26.406 Q 65.497 26.406 66.113 25.713 L 66.113 25.713 L 66.113 25.713 Q 66.729 25.02 66.729 23.34 L 66.729 23.34 L 66.729 23.34 Q 66.729 21.66 66.113 20.974 L 66.113 20.974 L 66.113 20.974 Q 65.497 20.288 64.251 20.288 L 64.251 20.288 L 62.879 20.288 L 62.879 26.406 L 62.879 26.406 Z " fill-rule="evenodd" fill="rgb(0,0,0)"/><g id="stripes"><path d=" M -150 305 L 150 20 L 150 40 L -150 325 L -150 305 Z " fill="rgb(116,127,134)" fill-opacity="0.05"/><path d=" M -150 345 L 150 60 L 150 80 L -150 365 L -150 345 Z " fill="rgb(116,127,134)" fill-opacity="0.05"/><path d=" M -150 385 L 150 100 L 150 120 L -150 405 L -150 385 Z " fill="rgb(116,127,134)" fill-opacity="0.05"/></g></g><path d=" M 21.166666 214 L 26.5 217.333328 L 32.833332 214.666672 L 35.833332 218.333328 L 38.833332 222 L 36.5 227.333328 L 37.833332 232.333328 L 36.833332 240 L 37.5 243.666672 L 29.5 242.666672 L 24.166666 244.666672 L 20.5 241.666672 L 14.833333 243.666672 L 8.166667 238.333328 L 9.5 232.333328 L 9.166667 225.333328 L 11.833333 220 L 7.166667 215 L 15.5 213.333328 L 21.166666 214 Z " fill="rgb(23,34,41)"/><path d=" M 48.833332 215 L 54.5 213 L 60.166668 216 L 67.5 213.333328 L 68.5 219 L 73.833336 224.666672 L 71.5 228.666672 L 71.833336 235.333328 L 67.833336 239.333328 L 70.5 244.333328 L 61.833332 243.333328 L 58.166668 239.333328 L 47.166668 246 L 46.5 241.333328 L 42.166668 236 L 46.166668 231 L 41.166668 223 L 43.166668 214.666672 L 48.833332 215 Z " fill="rgb(23,34,41)"/><path d=" M 87.5 212 L 90.833336 216.333328 L 98.833336 214 L 102.833336 218 L 107.5 222.333328 L 103.833336 228 L 106.166664 238.666672 L 100.5 241.666672 L 92.166664 244.666672 L 88.5 238.666672 L 82.166664 243.666672 L 76.5 238.333328 L 81.166664 234 L 76.166664 226.333328 L 78.166664 220 L 77.5 215.333328 L 87.5 212 Z " fill="rgb(23,34,41)"/><path d=" M 122.166664 213.333328 L 128.5 215.666672 L 132.166672 213.333328 L 138.166672 215 L 140.833328 225 L 138.166672 228.333328 L 139.5 235 L 138.166672 242.333328 L 131.833328 243.333328 L 123.166664 241.333328 L 116.5 242.333328 L 112.833336 239.333328 L 111.833336 231.333328 L 113.5 223.666672 L 111.166664 221.666672 L 113.833336 214 L 122.166664 213.333328 Z " fill="rgb(23,34,41)"/><path d=" M 114.5 250.666672 L 123.5 248 L 129.166672 250 L 135.166672 249.666672 L 139.166672 252 L 142.833328 258 L 139.833328 261.666656 L 139.833328 267.666656 L 140.833328 274 L 136.166672 277 L 128.166672 277 L 124.5 280 L 116.833336 276 L 111.833336 275.666656 L 111.5 268.333344 L 112.166664 264.666656 L 110.5 257.333344 L 114.5 250.666672 Z " fill="rgb(23,34,41)"/><path d=" M 114.166664 284.333344 L 120.833336 283 L 122.833336 283.666656 L 129.833328 283.666656 L 136.833328 286 L 140.5 286 L 141.5 296.666656 L 139.5 300.333344 L 139.5 310.333344 L 131.833328 309.333344 L 126.833336 312.333344 L 118.166664 312.333344 L 117.166664 310 L 111.833336 306 L 111.833336 297 L 110.5 289.666656 L 114.166664 284.333344 Z " fill="rgb(23,34,41)"/><path d=" M 115.833336 317.333344 L 122.833336 316.666656 L 129.833328 318.333344 L 139.5 318.666656 L 139.5 324.333344 L 142.5 330.333344 L 139.166672 339 L 138.166672 347 L 131.5 345 L 126.833336 346.333344 L 119.166664 345.666656 L 113.166664 343 L 112.166664 336.666656 L 113.166664 332.333344 L 111.5 325.666656 L 112.5 320.666656 L 115.833336 317.333344 Z " fill="rgb(23,34,41)"/><path d=" M 82.833336 284.666656 L 88.833336 283.333344 L 97.5 283 L 103.833336 286.333344 L 107.833336 292.333344 L 105.166664 296.666656 L 106.833336 306.666656 L 104.5 311.333344 L 96.166664 311.666656 L 87.166664 311.333344 L 84.166664 312.666656 L 76.5 305.333344 L 77.833336 300.333344 L 77.833336 291.666656 L 82.833336 284.666656 Z " fill="rgb(23,34,41)"/><path d=" M 81.166664 249.666672 L 88.5 248.333328 L 91.5 249.333328 L 101.5 250 L 104.166664 249.666672 L 105.5 258 L 105.5 264.333344 L 106.5 270.666656 L 102.833336 276 L 95.166664 276.666656 L 86.833336 277 L 80.833336 275 L 79.833336 271.333344 L 77.166664 265.666656 L 77.833336 257.333344 L 81.166664 249.666672 Z " fill="rgb(23,34,41)"/><path d=" M 49.166668 250.666672 L 53.5 249.333328 L 61.5 251 L 65.833336 248.666672 L 71.833336 255 L 70.166664 259.666656 L 73.166664 270.666656 L 70.833336 275.333344 L 61.833332 277.333344 L 52.5 274 L 46.5 276.666656 L 45.166668 269 L 41.5 264.333344 L 43.833332 255 L 49.166668 250.666672 Z " fill="rgb(23,34,41)"/><path d=" M 15.166667 248.666672 L 25.166666 248.666672 L 28.166666 250.666672 L 32.5 252.333328 L 37.166668 253 L 37.833332 260 L 36.166668 268 L 37.5 275.333344 L 30.833334 275.666656 L 17.166666 277.333344 L 11.5 278.333344 L 10.5 268.333344 L 7.833333 259 L 9.833333 254 L 15.166667 248.666672 Z " fill="rgb(23,34,41)"/><path d=" M 46.5 283.666656 L 54.5 281.666656 L 60.833332 283 L 71.166664 285.333344 L 70.833336 294.333344 L 72.833336 301 L 70.166664 306.666656 L 70.166664 312.333344 L 61.5 311 L 52.5 311.333344 L 45.5 307.333344 L 41.833332 300 L 43.5 296.333344 L 43.5 290 L 46.5 283.666656 Z " fill="rgb(23,34,41)"/><path d=" M 84.166664 318 L 92.166664 315.666656 L 99.166664 318.666656 L 107.5 319 L 106.166664 327 L 106.166664 334.333344 L 105.166664 337.666656 L 105.833336 345.333344 L 100.5 345.333344 L 95.833336 346.666656 L 90.833336 342.333344 L 85.833336 346.666656 L 76.833336 342.666656 L 78.5 333.666656 L 76.166664 329.666656 L 79.5 320.666656 L 84.166664 318 Z " fill="rgb(23,34,41)"/><path d=" M 18.833334 316.666656 L 23.833334 318.333344 L 27.833334 316.666656 L 31.833334 318.666656 L 38.5 318.666656 L 35.833332 324.333344 L 37.5 331.666656 L 35.166668 335.666656 L 36.166668 342 L 31.833334 348.333344 L 26.833334 346.333344 L 17.5 346 L 15.166667 343.333344 L 10.5 344.333344 L 9.833333 336.666656 L 7.833333 332.333344 L 10.166667 328.333344 L 8.833333 321 L 10.833333 319 L 18.833334 316.666656 Z " fill="rgb(23,34,41)"/><path d=" M 16.833334 284.333344 L 21.833334 283.333344 L 29.5 283.333344 L 33.5 282.333344 L 35.5 287.333344 L 34.833332 293.333344 L 35.5 296 L 38.5 303.333344 L 36.5 312 L 31.166666 310.666656 L 20.833334 311.333344 L 12.166667 308.333344 L 8.5 310.333344 L 8.5 297.666656 L 10.5 295.333344 L 8.5 287 L 11.5 283.666656 L 16.833334 284.333344 Z " fill="rgb(23,34,41)"/><path d=" M 55.5 319 L 61.166668 318.333344 L 69.166664 320.666656 L 71.833336 325.666656 L 69.833336 333.333344 L 72.5 338.666656 L 70.5 345 L 64.166664 345 L 60.166668 346.666656 L 52.833332 344.666656 L 47.5 346 L 42.166668 339 L 44.166668 332.333344 L 42.833332 326 L 44.5 322.666656 L 44.166668 317 L 53.166668 315.666656 L 55.5 319 Z " fill="rgb(23,34,41)"/></g></svg>