<?xml version="1.0" standalone="no"?><!-- Generator: Gravit.io --><svg xmlns="http://www.w3.org/2000/svg" xmlns:xlink="http://www.w3.org/1999/xlink" style="isolation:isolate" viewBox="0 0 120 380" width="120" height="380"><defs><clipPath id="_clipPath_z4KWFfx7QzxySHv1aA4U4SmlQBVAFXOQ"><rect width="120" height="380"/></clipPath></defs><g clip-path="url(#_clipPath_z4KWFfx7QzxySHv1aA4U4SmlQBVAFXOQ)"><g id="bg"><rect x="0" y="0" width="120" height="380" transform="matrix(1,0,0,1,0,0)" fill="rgb(240,240,240)"/><path d=" M 54.082 369.599 C 53.927 369.747 53.783 369.851 53.65 369.909 C 53.517 369.968 53.375 369.998 53.224 369.998 C 53.072 369.998 52.93 369.97 52.797 369.914 C 52.664 369.858 52.548 369.781 52.449 369.682 C 52.233 369.466 52.124 369.209 52.124 368.912 L 52.124 363.385 C 52.124 363.082 52.202 362.847 52.356 362.68 C 52.622 362.408 52.874 362.272 53.112 362.272 C 53.35 362.272 53.528 362.296 53.646 362.346 C 53.763 362.395 53.862 362.457 53.942 362.531 C 54.048 362.624 54.126 362.723 54.179 362.828 C 54.232 362.933 54.275 363.011 54.309 363.06 C 54.343 363.11 54.399 363.134 54.476 363.134 C 54.553 363.134 54.62 363.11 54.675 363.06 L 54.833 362.902 C 55.284 362.482 55.736 362.272 56.187 362.272 C 56.985 362.272 57.643 362.599 58.163 363.255 C 58.212 363.323 58.274 363.357 58.348 363.357 C 58.478 363.357 58.61 363.256 58.743 363.055 C 58.876 362.854 59.09 362.674 59.387 362.513 C 59.684 362.352 60.03 362.272 60.426 362.272 C 60.822 362.272 61.182 362.344 61.507 362.49 C 61.831 362.635 62.114 362.834 62.355 363.088 C 62.862 363.62 63.116 364.263 63.116 365.017 L 63.116 368.912 C 63.116 369.382 62.893 369.713 62.448 369.905 C 62.312 369.967 62.168 369.998 62.017 369.998 C 61.865 369.998 61.723 369.97 61.59 369.914 C 61.457 369.858 61.341 369.781 61.242 369.682 C 61.032 369.46 60.927 369.203 60.927 368.912 L 60.927 365.045 C 60.927 364.736 60.85 364.504 60.695 364.349 C 60.423 364.077 60.173 363.941 59.944 363.941 C 59.715 363.941 59.536 363.971 59.406 364.029 C 59.276 364.088 59.158 364.17 59.053 364.275 C 58.837 364.492 58.729 364.742 58.729 365.026 L 58.729 368.912 C 58.729 369.382 58.509 369.713 58.07 369.905 C 57.934 369.967 57.79 369.998 57.639 369.998 C 57.487 369.998 57.344 369.97 57.207 369.914 C 57.071 369.858 56.954 369.781 56.855 369.682 C 56.639 369.466 56.53 369.209 56.53 368.912 L 56.53 365.045 C 56.53 364.736 56.453 364.504 56.298 364.349 C 56.026 364.077 55.742 363.941 55.445 363.941 C 54.95 363.941 54.607 364.133 54.416 364.516 C 54.354 364.64 54.323 364.779 54.323 364.934 L 54.323 368.912 C 54.323 369.215 54.242 369.444 54.082 369.599 Z  M 65.343 363.387 C 65.343 363.084 65.42 362.849 65.575 362.682 C 65.84 362.41 66.134 362.274 66.456 362.274 C 66.765 362.274 66.994 362.355 67.142 362.515 C 67.414 362.794 67.55 363.084 67.55 363.387 L 67.55 368.915 C 67.55 369.212 67.473 369.437 67.318 369.592 C 67.046 369.864 66.796 370 66.567 370 C 66.338 370 66.156 369.971 66.02 369.912 C 65.884 369.853 65.766 369.777 65.667 369.685 C 65.451 369.474 65.343 369.218 65.343 368.915 L 65.343 363.387 Z  M 66.451 359.9 C 66.189 359.9 65.976 359.687 65.976 359.425 C 65.976 359.162 66.189 358.95 66.451 358.95 C 66.713 358.95 66.926 359.162 66.926 359.425 C 66.926 359.687 66.713 359.9 66.451 359.9 Z  M 66.451 358 C 66.838 358 67.172 358.142 67.453 358.425 C 67.735 358.709 67.876 358.996 67.876 359.287 C 67.876 359.577 67.837 359.807 67.759 359.978 C 67.682 360.148 67.58 360.297 67.453 360.424 C 67.172 360.708 66.838 360.849 66.451 360.849 C 66.064 360.849 65.73 360.708 65.448 360.424 C 65.167 360.141 65.026 359.857 65.026 359.574 C 65.026 359.092 65.167 358.709 65.448 358.425 C 65.73 358.142 66.064 358 66.451 358 Z " fill-rule="evenodd" fill="rgb(10,118,187)"/><path d=" M 0 174 L 120 60 L 120 80 L 0 194 L 0 174 Z  M 0 214 L 120 100 L 120 120 L 0 234 L 0 214 Z  M 0 134 L 120 20 L 120 40 L 0 154 L 0 134 Z " fill-rule="evenodd" fill="rgb(0,0,0)" fill-opacity="0.02"/><path d=" M 79.447 28.1 L 79.447 28.1 Q 79.167 28.1 79.055 27.995 L 79.055 27.995 L 79.055 27.995 Q 78.943 27.89 78.943 27.638 L 78.943 27.638 L 78.943 27.232 L 78.943 27.232 Q 78.943 26.966 79.055 26.854 L 79.055 26.854 L 79.055 26.854 Q 79.167 26.742 79.447 26.742 L 79.447 26.742 L 80.819 26.742 L 80.819 20.54 L 79.615 21.268 L 79.615 21.268 Q 79.503 21.338 79.419 21.338 L 79.419 21.338 L 79.419 21.338 Q 79.293 21.338 79.209 21.198 L 79.209 21.198 L 78.761 20.498 L 78.761 20.498 Q 78.705 20.4 78.705 20.316 L 78.705 20.316 L 78.705 20.316 Q 78.705 20.176 78.859 20.092 L 78.859 20.092 L 81.169 18.706 L 81.169 18.706 Q 81.267 18.636 81.365 18.608 L 81.365 18.608 L 81.365 18.608 Q 81.463 18.58 81.631 18.58 L 81.631 18.58 L 82.093 18.58 L 82.093 18.58 Q 82.625 18.58 82.625 19.098 L 82.625 19.098 L 82.625 26.742 L 83.997 26.742 L 83.997 26.742 Q 84.277 26.742 84.389 26.854 L 84.389 26.854 L 84.389 26.854 Q 84.501 26.966 84.501 27.232 L 84.501 27.232 L 84.501 27.638 L 84.501 27.638 Q 84.501 27.89 84.389 27.995 L 84.389 27.995 L 84.389 27.995 Q 84.277 28.1 83.997 28.1 L 83.997 28.1 L 79.447 28.1 L 79.447 28.1 Z  M 67.043 24.6 L 67.043 24.6 Q 66.819 24.6 66.728 24.502 L 66.728 24.502 L 66.728 24.502 Q 66.637 24.404 66.637 24.18 L 66.637 24.18 L 66.637 23.662 L 66.637 23.662 Q 66.637 23.438 66.728 23.34 L 66.728 23.34 L 66.728 23.34 Q 66.819 23.242 67.043 23.242 L 67.043 23.242 L 71.733 23.242 L 71.733 23.242 Q 71.943 23.242 72.041 23.347 L 72.041 23.347 L 72.041 23.347 Q 72.139 23.452 72.139 23.662 L 72.139 23.662 L 72.139 24.18 L 72.139 24.18 Q 72.139 24.39 72.041 24.495 L 72.041 24.495 L 72.041 24.495 Q 71.943 24.6 71.733 24.6 L 71.733 24.6 L 67.043 24.6 L 67.043 24.6 Z  M 34.577 28.1 L 34.577 28.1 Q 34.297 28.1 34.178 27.974 L 34.178 27.974 L 34.178 27.974 Q 34.059 27.848 34.059 27.596 L 34.059 27.596 L 34.059 19.098 L 34.059 19.098 Q 34.059 18.832 34.178 18.706 L 34.178 18.706 L 34.178 18.706 Q 34.297 18.58 34.591 18.58 L 34.591 18.58 L 35.347 18.58 L 35.347 18.58 Q 35.571 18.58 35.69 18.636 L 35.69 18.636 L 35.69 18.636 Q 35.809 18.692 35.879 18.86 L 35.879 18.86 L 38.707 25.37 L 41.535 18.86 L 41.535 18.86 Q 41.605 18.692 41.724 18.636 L 41.724 18.636 L 41.724 18.636 Q 41.843 18.58 42.067 18.58 L 42.067 18.58 L 42.823 18.58 L 42.823 18.58 Q 43.117 18.58 43.236 18.706 L 43.236 18.706 L 43.236 18.706 Q 43.355 18.832 43.355 19.098 L 43.355 19.098 L 43.355 27.596 L 43.355 27.596 Q 43.355 27.848 43.236 27.974 L 43.236 27.974 L 43.236 27.974 Q 43.117 28.1 42.837 28.1 L 42.837 28.1 L 42.221 28.1 L 42.221 28.1 Q 41.941 28.1 41.815 27.974 L 41.815 27.974 L 41.815 27.974 Q 41.689 27.848 41.689 27.596 L 41.689 27.596 L 41.689 21.562 L 39.295 26.896 L 39.295 26.896 Q 39.183 27.12 39.071 27.218 L 39.071 27.218 L 39.071 27.218 Q 38.959 27.316 38.707 27.316 L 38.707 27.316 L 38.707 27.316 Q 38.455 27.316 38.336 27.218 L 38.336 27.218 L 38.336 27.218 Q 38.217 27.12 38.119 26.896 L 38.119 26.896 L 35.725 21.562 L 35.725 27.596 L 35.725 27.596 Q 35.725 27.848 35.606 27.974 L 35.606 27.974 L 35.606 27.974 Q 35.487 28.1 35.193 28.1 L 35.193 28.1 L 34.577 28.1 L 34.577 28.1 Z  M 45.525 28.1 L 45.525 28.1 Q 45.245 28.1 45.126 27.974 L 45.126 27.974 L 45.126 27.974 Q 45.007 27.848 45.007 27.596 L 45.007 27.596 L 45.007 19.098 L 45.007 19.098 Q 45.007 18.832 45.126 18.706 L 45.126 18.706 L 45.126 18.706 Q 45.245 18.58 45.525 18.58 L 45.525 18.58 L 46.267 18.58 L 46.267 18.58 Q 46.547 18.58 46.673 18.706 L 46.673 18.706 L 46.673 18.706 Q 46.799 18.832 46.799 19.098 L 46.799 19.098 L 46.799 27.596 L 46.799 27.596 Q 46.799 27.848 46.68 27.974 L 46.68 27.974 L 46.68 27.974 Q 46.561 28.1 46.267 28.1 L 46.267 28.1 L 45.525 28.1 L 45.525 28.1 Z  M 48.969 28.1 L 48.969 28.1 Q 48.689 28.1 48.57 27.974 L 48.57 27.974 L 48.57 27.974 Q 48.451 27.848 48.451 27.596 L 48.451 27.596 L 48.451 19.098 L 48.451 19.098 Q 48.451 18.832 48.57 18.706 L 48.57 18.706 L 48.57 18.706 Q 48.689 18.58 48.969 18.58 L 48.969 18.58 L 51.769 18.58 L 51.769 18.58 Q 54.135 18.58 55.388 19.714 L 55.388 19.714 L 55.388 19.714 Q 56.641 20.848 56.641 23.34 L 56.641 23.34 L 56.641 23.34 Q 56.641 28.1 51.769 28.1 L 51.769 28.1 L 48.969 28.1 L 48.969 28.1 Z  M 50.243 26.742 L 51.881 26.742 L 51.881 26.742 Q 53.365 26.742 54.114 25.972 L 54.114 25.972 L 54.114 25.972 Q 54.863 25.202 54.863 23.34 L 54.863 23.34 L 54.863 23.34 Q 54.863 21.478 54.114 20.715 L 54.114 20.715 L 54.114 20.715 Q 53.365 19.952 51.881 19.952 L 51.881 19.952 L 50.243 19.952 L 50.243 26.742 L 50.243 26.742 Z  M 58.531 28.1 L 58.531 28.1 Q 58.251 28.1 58.132 27.974 L 58.132 27.974 L 58.132 27.974 Q 58.013 27.848 58.013 27.596 L 58.013 27.596 L 58.013 19.098 L 58.013 19.098 Q 58.013 18.832 58.132 18.706 L 58.132 18.706 L 58.132 18.706 Q 58.251 18.58 58.531 18.58 L 58.531 18.58 L 59.273 18.58 L 59.273 18.58 Q 59.553 18.58 59.679 18.706 L 59.679 18.706 L 59.679 18.706 Q 59.805 18.832 59.805 19.098 L 59.805 19.098 L 59.805 27.596 L 59.805 27.596 Q 59.805 27.848 59.686 27.974 L 59.686 27.974 L 59.686 27.974 Q 59.567 28.1 59.273 28.1 L 59.273 28.1 L 58.531 28.1 L 58.531 28.1 Z " fill-rule="evenodd" fill="rgb(0,0,0)"/></g><path d=" M 10 170.25 L 14 160.75 L 21.5 161.25 L 25 164.75 L 36.5 162.75 L 38 169.75 L 40.5 182.25 L 37 187.75 L 38 201.25 L 34 204.25 L 27.5 204.75 L 23.5 202.25 L 11.5 202.75 L 11.5 196.75 L 10 183.25 L 12.5 182.75 L 10 170.25 Z " fill="rgb(0,0,0)"/><path d=" M 82 165.25 L 89 162.25 L 94 163.75 L 104.5 161.75 L 105.5 168.25 L 109.5 178.75 L 108.5 188.75 L 110 196.25 L 106 199.25 L 107 206.25 L 99.5 205.75 L 97 200.75 L 90 205.25 L 81 199.75 L 81.5 193.75 L 78 186.25 L 81 177.75 L 82 165.25 Z " fill="rgb(0,0,0)"/><path d=" M 11 216.25 L 15.5 210.75 L 27.5 209.25 L 30 209.75 L 33.5 213.75 L 40.5 211.75 L 38.5 225.75 L 41.5 235.25 L 39 237.75 L 38.5 244.25 L 38.5 250.75 L 30.5 254.75 L 25.5 248.75 L 19.5 253.25 L 15 248.25 L 9.5 239.75 L 12.5 229.25 L 11 216.25 Z " fill="rgb(0,0,0)"/><path d=" M 46 167.75 L 51.5 161.25 L 60.5 165.25 L 65.5 162.75 L 71.5 164.25 L 75.5 172.25 L 75 179.25 L 74.5 188.25 L 70.5 192.25 L 74 200.25 L 66 204.75 L 55 205.75 L 55 201.75 L 44 197.25 L 45 183.75 L 46 167.75 Z " fill="rgb(0,0,0)"/><path d=" M 51 210.25 L 56 208.25 L 60.5 210.75 L 70 213.25 L 75.5 224.75 L 76 237.75 L 71.5 241.25 L 67 251.25 L 60.5 253.25 L 53 249.25 L 45.5 245.75 L 44 237.25 L 44 218.75 L 51 210.25 Z " fill="rgb(0,0,0)"/><path d=" M 11.375 264.375 L 15.375 258.875 L 25.375 257.375 L 29.125 260.625 L 35.875 262.625 L 40.375 259.875 L 40.625 273.375 L 37.125 274.375 L 37.125 283.875 L 42.625 292.625 L 38.625 297.375 L 33.125 301.125 L 23.625 296.625 L 13.875 300.625 L 10.625 291.625 L 11.875 280.875 L 10.375 273.875 L 11.375 264.375 Z " fill="rgb(0,0,0)"/><path d=" M 46.375 261.125 L 52.375 258.625 L 58.375 259.375 L 66.125 257.875 L 70.125 262.625 L 76.125 263.625 L 74.375 271.375 L 74.875 286.375 L 71.875 286.875 L 71.625 297.125 L 72.375 301.375 L 66.625 300.875 L 62.375 298.125 L 55.125 301.375 L 50.375 299.375 L 46.625 301.125 L 48.625 289.375 L 44.625 284.875 L 48.625 275.125 L 46.375 261.125 Z " fill="rgb(0,0,0)"/><path d=" M 84.125 260.625 L 87.125 258.125 L 92.125 257.375 L 97.875 260.875 L 103.875 257.125 L 107.375 260.125 L 108.125 268.625 L 107.875 277.125 L 107.375 282.125 L 109.375 290.375 L 107.125 293.125 L 107.375 301.625 L 100.625 299.875 L 96.125 298.125 L 91.875 301.875 L 88.625 298.625 L 78.625 300.125 L 80.625 291.125 L 79.625 276.875 L 81.625 274.625 L 78.875 267.125 L 80.625 262.875 L 84.125 260.625 Z " fill="rgb(0,0,0)"/><path d=" M 12.25 307.5 L 16 304.75 L 20.25 306.75 L 23.5 304.75 L 29 306.5 L 36 307.5 L 40.75 312 L 38.75 320.75 L 39.5 329 L 36.25 332.25 L 38.75 341 L 40.25 349.5 L 34.5 346.75 L 26.25 345.75 L 23 349.25 L 21 346 L 14.25 348 L 13.25 343.75 L 9 340.75 L 13.25 335.25 L 10 326 L 13.5 321.75 L 10.25 316.25 L 12.25 310 L 12.25 307.5 Z " fill="rgb(0,0,0)"/><path d=" M 51.25 306 L 55.25 304 L 56.5 305.5 L 64.5 306.5 L 71.25 307.75 L 74.75 316.5 L 72 320.5 L 75 327.75 L 73.25 336.25 L 74.25 348 L 70.75 347.75 L 62.5 344.5 L 59 346.5 L 52.75 349.75 L 49 343.75 L 44.25 343.5 L 46.5 338.25 L 44.75 330.75 L 48.5 325 L 45 319 L 45.5 315.5 L 44.25 308.5 L 47.5 306.25 L 51.25 306 Z " fill="rgb(0,0,0)"/><path d=" M 87.5 305.5 L 91.25 305.5 L 100.5 302.75 L 102.5 306.25 L 111.5 310.5 L 107 318.5 L 107.5 328.5 L 106 330 L 107.25 334.25 L 110.5 344.5 L 106.5 344.5 L 102.25 350.25 L 98.75 347 L 91.75 345.25 L 86.25 348.25 L 82.5 347.75 L 80.5 339 L 82.5 335.5 L 78.25 330.25 L 81.5 323.5 L 78 315.5 L 80.5 313.5 L 82 306.75 L 87.5 305.5 Z " fill="rgb(0,0,0)"/><path d=" M 19.412 314.49 L 19.412 314.49 Q 18.986 314.49 18.575 314.397 L 18.575 314.397 L 18.575 314.397 Q 18.164 314.304 17.918 314.136 L 17.918 314.136 L 17.918 314.136 Q 17.84 314.082 17.84 314.04 L 17.84 314.04 L 17.84 314.04 Q 17.84 313.998 17.864 313.968 L 17.864 313.968 L 18.062 313.656 L 18.062 313.656 Q 18.098 313.602 18.128 313.602 L 18.128 313.602 L 18.128 313.602 Q 18.158 313.602 18.206 313.632 L 18.206 313.632 L 18.206 313.632 Q 18.428 313.764 18.722 313.845 L 18.722 313.845 L 18.722 313.845 Q 19.016 313.926 19.316 313.926 L 19.316 313.926 L 19.316 313.926 Q 19.724 313.926 19.931 313.791 L 19.931 313.791 L 19.931 313.791 Q 20.138 313.656 20.138 313.356 L 20.138 313.356 L 20.138 313.356 Q 20.138 313.176 20.06 313.068 L 20.06 313.068 L 20.06 313.068 Q 19.982 312.96 19.832 312.882 L 19.832 312.882 L 19.832 312.882 Q 19.682 312.804 19.346 312.672 L 19.346 312.672 L 19.208 312.618 L 19.208 312.618 Q 18.818 312.462 18.563 312.318 L 18.563 312.318 L 18.563 312.318 Q 18.308 312.174 18.14 311.94 L 18.14 311.94 L 18.14 311.94 Q 17.972 311.706 17.972 311.37 L 17.972 311.37 L 17.972 311.37 Q 17.972 310.824 18.389 310.527 L 18.389 310.527 L 18.389 310.527 Q 18.806 310.23 19.484 310.23 L 19.484 310.23 L 19.484 310.23 Q 19.898 310.23 20.201 310.308 L 20.201 310.308 L 20.201 310.308 Q 20.504 310.386 20.726 310.548 L 20.726 310.548 L 20.726 310.548 Q 20.798 310.602 20.798 310.65 L 20.798 310.65 L 20.798 310.65 Q 20.798 310.686 20.774 310.716 L 20.774 310.716 L 20.582 311.028 L 20.582 311.028 Q 20.546 311.082 20.522 311.082 L 20.522 311.082 L 20.522 311.082 Q 20.498 311.082 20.444 311.046 L 20.444 311.046 L 20.444 311.046 Q 20.06 310.8 19.49 310.8 L 19.49 310.8 L 19.49 310.8 Q 19.112 310.8 18.92 310.938 L 18.92 310.938 L 18.92 310.938 Q 18.728 311.076 18.728 311.376 L 18.728 311.376 L 18.728 311.376 Q 18.728 311.562 18.809 311.673 L 18.809 311.673 L 18.809 311.673 Q 18.89 311.784 19.046 311.862 L 19.046 311.862 L 19.046 311.862 Q 19.202 311.94 19.55 312.072 L 19.55 312.072 L 19.7 312.132 L 19.7 312.132 Q 20.138 312.306 20.384 312.453 L 20.384 312.453 L 20.384 312.453 Q 20.63 312.6 20.765 312.819 L 20.765 312.819 L 20.765 312.819 Q 20.9 313.038 20.9 313.38 L 20.9 313.38 L 20.9 313.38 Q 20.9 313.896 20.513 314.193 L 20.513 314.193 L 20.513 314.193 Q 20.126 314.49 19.412 314.49 L 19.412 314.49 L 19.412 314.49 Z  M 22.736 314.4 L 22.736 314.4 Q 22.616 314.4 22.562 314.346 L 22.562 314.346 L 22.562 314.346 Q 22.508 314.292 22.508 314.184 L 22.508 314.184 L 22.508 310.908 L 21.458 310.908 L 21.458 310.908 Q 21.338 310.908 21.293 310.86 L 21.293 310.86 L 21.293 310.86 Q 21.248 310.812 21.248 310.698 L 21.248 310.698 L 21.248 310.536 L 21.248 310.536 Q 21.248 310.422 21.293 310.371 L 21.293 310.371 L 21.293 310.371 Q 21.338 310.32 21.458 310.32 L 21.458 310.32 L 24.326 310.32 L 24.326 310.32 Q 24.446 310.32 24.494 310.371 L 24.494 310.371 L 24.494 310.371 Q 24.542 310.422 24.542 310.536 L 24.542 310.536 L 24.542 310.698 L 24.542 310.698 Q 24.542 310.812 24.494 310.86 L 24.494 310.86 L 24.494 310.86 Q 24.446 310.908 24.326 310.908 L 24.326 310.908 L 23.276 310.908 L 23.276 314.184 L 23.276 314.184 Q 23.276 314.292 23.225 314.346 L 23.225 314.346 L 23.225 314.346 Q 23.174 314.4 23.048 314.4 L 23.048 314.4 L 22.736 314.4 L 22.736 314.4 Z  M 25.232 314.4 L 25.232 314.4 Q 25.112 314.4 25.061 314.346 L 25.061 314.346 L 25.061 314.346 Q 25.01 314.292 25.01 314.184 L 25.01 314.184 L 25.01 310.542 L 25.01 310.542 Q 25.01 310.428 25.061 310.374 L 25.061 310.374 L 25.061 310.374 Q 25.112 310.32 25.232 310.32 L 25.232 310.32 L 26.798 310.32 L 26.798 310.32 Q 27.494 310.32 27.857 310.644 L 27.857 310.644 L 27.857 310.644 Q 28.22 310.968 28.22 311.604 L 28.22 311.604 L 28.22 311.604 Q 28.22 312.024 28.022 312.321 L 28.022 312.321 L 28.022 312.321 Q 27.824 312.618 27.446 312.768 L 27.446 312.768 L 28.112 314.244 L 28.112 314.244 Q 28.13 314.28 28.13 314.31 L 28.13 314.31 L 28.13 314.31 Q 28.13 314.4 28.022 314.4 L 28.022 314.4 L 27.53 314.4 L 27.53 314.4 Q 27.452 314.4 27.416 314.379 L 27.416 314.379 L 27.416 314.379 Q 27.38 314.358 27.35 314.292 L 27.35 314.292 L 26.744 312.87 L 25.778 312.87 L 25.778 314.184 L 25.778 314.184 Q 25.778 314.292 25.727 314.346 L 25.727 314.346 L 25.727 314.346 Q 25.676 314.4 25.55 314.4 L 25.55 314.4 L 25.232 314.4 L 25.232 314.4 Z  M 25.778 312.294 L 26.642 312.294 L 26.642 312.294 Q 27.062 312.294 27.26 312.132 L 27.26 312.132 L 27.26 312.132 Q 27.458 311.97 27.458 311.604 L 27.458 311.604 L 27.458 311.604 Q 27.458 311.244 27.278 311.076 L 27.278 311.076 L 27.278 311.076 Q 27.098 310.908 26.732 310.908 L 26.732 310.908 L 25.778 310.908 L 25.778 312.294 L 25.778 312.294 Z  M 30.056 314.4 L 30.056 314.4 Q 29.936 314.4 29.882 314.346 L 29.882 314.346 L 29.882 314.346 Q 29.828 314.292 29.828 314.184 L 29.828 314.184 L 29.828 310.908 L 28.778 310.908 L 28.778 310.908 Q 28.658 310.908 28.613 310.86 L 28.613 310.86 L 28.613 310.86 Q 28.568 310.812 28.568 310.698 L 28.568 310.698 L 28.568 310.536 L 28.568 310.536 Q 28.568 310.422 28.613 310.371 L 28.613 310.371 L 28.613 310.371 Q 28.658 310.32 28.778 310.32 L 28.778 310.32 L 31.646 310.32 L 31.646 310.32 Q 31.766 310.32 31.814 310.371 L 31.814 310.371 L 31.814 310.371 Q 31.862 310.422 31.862 310.536 L 31.862 310.536 L 31.862 310.698 L 31.862 310.698 Q 31.862 310.812 31.814 310.86 L 31.814 310.86 L 31.814 310.86 Q 31.766 310.908 31.646 310.908 L 31.646 310.908 L 30.596 310.908 L 30.596 314.184 L 30.596 314.184 Q 30.596 314.292 30.545 314.346 L 30.545 314.346 L 30.545 314.346 Q 30.494 314.4 30.368 314.4 L 30.368 314.4 L 30.056 314.4 L 30.056 314.4 Z " fill-rule="evenodd" fill="rgb(255,255,255)"/><path d=" M 53.251 314.49 L 53.251 314.49 Q 52.825 314.49 52.414 314.397 L 52.414 314.397 L 52.414 314.397 Q 52.003 314.304 51.757 314.136 L 51.757 314.136 L 51.757 314.136 Q 51.679 314.082 51.679 314.04 L 51.679 314.04 L 51.679 314.04 Q 51.679 313.998 51.703 313.968 L 51.703 313.968 L 51.901 313.656 L 51.901 313.656 Q 51.937 313.602 51.967 313.602 L 51.967 313.602 L 51.967 313.602 Q 51.997 313.602 52.045 313.632 L 52.045 313.632 L 52.045 313.632 Q 52.267 313.764 52.561 313.845 L 52.561 313.845 L 52.561 313.845 Q 52.855 313.926 53.155 313.926 L 53.155 313.926 L 53.155 313.926 Q 53.563 313.926 53.77 313.791 L 53.77 313.791 L 53.77 313.791 Q 53.977 313.656 53.977 313.356 L 53.977 313.356 L 53.977 313.356 Q 53.977 313.176 53.899 313.068 L 53.899 313.068 L 53.899 313.068 Q 53.821 312.96 53.671 312.882 L 53.671 312.882 L 53.671 312.882 Q 53.521 312.804 53.185 312.672 L 53.185 312.672 L 53.047 312.618 L 53.047 312.618 Q 52.657 312.462 52.402 312.318 L 52.402 312.318 L 52.402 312.318 Q 52.147 312.174 51.979 311.94 L 51.979 311.94 L 51.979 311.94 Q 51.811 311.706 51.811 311.37 L 51.811 311.37 L 51.811 311.37 Q 51.811 310.824 52.228 310.527 L 52.228 310.527 L 52.228 310.527 Q 52.645 310.23 53.323 310.23 L 53.323 310.23 L 53.323 310.23 Q 53.737 310.23 54.04 310.308 L 54.04 310.308 L 54.04 310.308 Q 54.343 310.386 54.565 310.548 L 54.565 310.548 L 54.565 310.548 Q 54.637 310.602 54.637 310.65 L 54.637 310.65 L 54.637 310.65 Q 54.637 310.686 54.613 310.716 L 54.613 310.716 L 54.421 311.028 L 54.421 311.028 Q 54.385 311.082 54.361 311.082 L 54.361 311.082 L 54.361 311.082 Q 54.337 311.082 54.283 311.046 L 54.283 311.046 L 54.283 311.046 Q 53.899 310.8 53.329 310.8 L 53.329 310.8 L 53.329 310.8 Q 52.951 310.8 52.759 310.938 L 52.759 310.938 L 52.759 310.938 Q 52.567 311.076 52.567 311.376 L 52.567 311.376 L 52.567 311.376 Q 52.567 311.562 52.648 311.673 L 52.648 311.673 L 52.648 311.673 Q 52.729 311.784 52.885 311.862 L 52.885 311.862 L 52.885 311.862 Q 53.041 311.94 53.389 312.072 L 53.389 312.072 L 53.539 312.132 L 53.539 312.132 Q 53.977 312.306 54.223 312.453 L 54.223 312.453 L 54.223 312.453 Q 54.469 312.6 54.604 312.819 L 54.604 312.819 L 54.604 312.819 Q 54.739 313.038 54.739 313.38 L 54.739 313.38 L 54.739 313.38 Q 54.739 313.896 54.352 314.193 L 54.352 314.193 L 54.352 314.193 Q 53.965 314.49 53.251 314.49 L 53.251 314.49 L 53.251 314.49 Z  M 56.575 314.4 L 56.575 314.4 Q 56.455 314.4 56.401 314.346 L 56.401 314.346 L 56.401 314.346 Q 56.347 314.292 56.347 314.184 L 56.347 314.184 L 56.347 310.908 L 55.297 310.908 L 55.297 310.908 Q 55.177 310.908 55.132 310.86 L 55.132 310.86 L 55.132 310.86 Q 55.087 310.812 55.087 310.698 L 55.087 310.698 L 55.087 310.536 L 55.087 310.536 Q 55.087 310.422 55.132 310.371 L 55.132 310.371 L 55.132 310.371 Q 55.177 310.32 55.297 310.32 L 55.297 310.32 L 58.165 310.32 L 58.165 310.32 Q 58.285 310.32 58.333 310.371 L 58.333 310.371 L 58.333 310.371 Q 58.381 310.422 58.381 310.536 L 58.381 310.536 L 58.381 310.698 L 58.381 310.698 Q 58.381 310.812 58.333 310.86 L 58.333 310.86 L 58.333 310.86 Q 58.285 310.908 58.165 310.908 L 58.165 310.908 L 57.115 310.908 L 57.115 314.184 L 57.115 314.184 Q 57.115 314.292 57.064 314.346 L 57.064 314.346 L 57.064 314.346 Q 57.013 314.4 56.887 314.4 L 56.887 314.4 L 56.575 314.4 L 56.575 314.4 Z  M 60.781 314.49 L 60.781 314.49 Q 59.791 314.49 59.26 313.932 L 59.26 313.932 L 59.26 313.932 Q 58.729 313.374 58.729 312.36 L 58.729 312.36 L 58.729 312.36 Q 58.729 311.346 59.26 310.788 L 59.26 310.788 L 59.26 310.788 Q 59.791 310.23 60.781 310.23 L 60.781 310.23 L 60.781 310.23 Q 61.765 310.23 62.299 310.788 L 62.299 310.788 L 62.299 310.788 Q 62.833 311.346 62.833 312.36 L 62.833 312.36 L 62.833 312.36 Q 62.833 313.374 62.299 313.932 L 62.299 313.932 L 62.299 313.932 Q 61.765 314.49 60.781 314.49 L 60.781 314.49 L 60.781 314.49 Z  M 60.781 313.926 L 60.781 313.926 Q 61.411 313.926 61.741 313.527 L 61.741 313.527 L 61.741 313.527 Q 62.071 313.128 62.071 312.36 L 62.071 312.36 L 62.071 312.36 Q 62.071 311.592 61.741 311.196 L 61.741 311.196 L 61.741 311.196 Q 61.411 310.8 60.781 310.8 L 60.781 310.8 L 60.781 310.8 Q 60.151 310.8 59.818 311.196 L 59.818 311.196 L 59.818 311.196 Q 59.485 311.592 59.485 312.36 L 59.485 312.36 L 59.485 312.36 Q 59.485 313.128 59.818 313.527 L 59.818 313.527 L 59.818 313.527 Q 60.151 313.926 60.781 313.926 L 60.781 313.926 L 60.781 313.926 Z  M 63.643 314.4 L 63.643 314.4 Q 63.523 314.4 63.472 314.346 L 63.472 314.346 L 63.472 314.346 Q 63.421 314.292 63.421 314.184 L 63.421 314.184 L 63.421 310.542 L 63.421 310.542 Q 63.421 310.428 63.472 310.374 L 63.472 310.374 L 63.472 310.374 Q 63.523 310.32 63.643 310.32 L 63.643 310.32 L 65.179 310.32 L 65.179 310.32 Q 65.917 310.32 66.274 310.671 L 66.274 310.671 L 66.274 310.671 Q 66.631 311.022 66.631 311.676 L 66.631 311.676 L 66.631 311.676 Q 66.631 312.324 66.274 312.672 L 66.274 312.672 L 66.274 312.672 Q 65.917 313.02 65.179 313.02 L 65.179 313.02 L 64.189 313.02 L 64.189 314.184 L 64.189 314.184 Q 64.189 314.292 64.138 314.346 L 64.138 314.346 L 64.138 314.346 Q 64.087 314.4 63.961 314.4 L 63.961 314.4 L 63.643 314.4 L 63.643 314.4 Z  M 64.189 312.438 L 65.143 312.438 L 65.143 312.438 Q 65.509 312.438 65.689 312.249 L 65.689 312.249 L 65.689 312.249 Q 65.869 312.06 65.869 311.676 L 65.869 311.676 L 65.869 311.676 Q 65.869 311.286 65.689 311.097 L 65.689 311.097 L 65.689 311.097 Q 65.509 310.908 65.143 310.908 L 65.143 310.908 L 64.189 310.908 L 64.189 312.438 L 64.189 312.438 Z " fill-rule="evenodd" fill="rgb(255,255,255)"/><path d=" M 87.595 314.49 L 87.595 314.49 Q 86.575 314.49 86.017 313.938 L 86.017 313.938 L 86.017 313.938 Q 85.459 313.386 85.459 312.36 L 85.459 312.36 L 85.459 312.36 Q 85.459 311.334 86.008 310.782 L 86.008 310.782 L 86.008 310.782 Q 86.557 310.23 87.577 310.23 L 87.577 310.23 L 87.577 310.23 Q 87.985 310.23 88.333 310.314 L 88.333 310.314 L 88.333 310.314 Q 88.681 310.398 88.921 310.554 L 88.921 310.554 L 88.921 310.554 Q 88.975 310.59 88.975 310.632 L 88.975 310.632 L 88.975 310.632 Q 88.975 310.668 88.945 310.716 L 88.945 310.716 L 88.777 311.004 L 88.777 311.004 Q 88.741 311.058 88.711 311.058 L 88.711 311.058 L 88.711 311.058 Q 88.687 311.058 88.627 311.028 L 88.627 311.028 L 88.627 311.028 Q 88.249 310.8 87.661 310.8 L 87.661 310.8 L 87.661 310.8 Q 86.983 310.8 86.599 311.19 L 86.599 311.19 L 86.599 311.19 Q 86.215 311.58 86.215 312.36 L 86.215 312.36 L 86.215 312.36 Q 86.215 313.152 86.611 313.539 L 86.611 313.539 L 86.611 313.539 Q 87.007 313.926 87.679 313.926 L 87.679 313.926 L 87.679 313.926 Q 88.303 313.926 88.705 313.692 L 88.705 313.692 L 88.705 313.692 Q 88.765 313.662 88.783 313.662 L 88.783 313.662 L 88.783 313.662 Q 88.819 313.662 88.855 313.716 L 88.855 313.716 L 89.041 314.028 L 89.041 314.028 Q 89.059 314.064 89.059 314.088 L 89.059 314.088 L 89.059 314.088 Q 89.059 314.124 88.993 314.166 L 88.993 314.166 L 88.993 314.166 Q 88.531 314.49 87.595 314.49 L 87.595 314.49 L 87.595 314.49 Z  M 91.573 314.49 L 91.573 314.49 Q 90.583 314.49 90.052 313.932 L 90.052 313.932 L 90.052 313.932 Q 89.521 313.374 89.521 312.36 L 89.521 312.36 L 89.521 312.36 Q 89.521 311.346 90.052 310.788 L 90.052 310.788 L 90.052 310.788 Q 90.583 310.23 91.573 310.23 L 91.573 310.23 L 91.573 310.23 Q 92.557 310.23 93.091 310.788 L 93.091 310.788 L 93.091 310.788 Q 93.625 311.346 93.625 312.36 L 93.625 312.36 L 93.625 312.36 Q 93.625 313.374 93.091 313.932 L 93.091 313.932 L 93.091 313.932 Q 92.557 314.49 91.573 314.49 L 91.573 314.49 L 91.573 314.49 Z  M 91.573 313.926 L 91.573 313.926 Q 92.203 313.926 92.533 313.527 L 92.533 313.527 L 92.533 313.527 Q 92.863 313.128 92.863 312.36 L 92.863 312.36 L 92.863 312.36 Q 92.863 311.592 92.533 311.196 L 92.533 311.196 L 92.533 311.196 Q 92.203 310.8 91.573 310.8 L 91.573 310.8 L 91.573 310.8 Q 90.943 310.8 90.61 311.196 L 90.61 311.196 L 90.61 311.196 Q 90.277 311.592 90.277 312.36 L 90.277 312.36 L 90.277 312.36 Q 90.277 313.128 90.61 313.527 L 90.61 313.527 L 90.61 313.527 Q 90.943 313.926 91.573 313.926 L 91.573 313.926 L 91.573 313.926 Z  M 94.435 314.4 L 94.435 314.4 Q 94.315 314.4 94.264 314.346 L 94.264 314.346 L 94.264 314.346 Q 94.213 314.292 94.213 314.184 L 94.213 314.184 L 94.213 310.542 L 94.213 310.542 Q 94.213 310.428 94.264 310.374 L 94.264 310.374 L 94.264 310.374 Q 94.315 310.32 94.441 310.32 L 94.441 310.32 L 94.717 310.32 L 94.717 310.32 Q 94.801 310.32 94.849 310.344 L 94.849 310.344 L 94.849 310.344 Q 94.897 310.368 94.945 310.44 L 94.945 310.44 L 96.925 313.188 L 96.925 310.542 L 96.925 310.542 Q 96.925 310.428 96.976 310.374 L 96.976 310.374 L 96.976 310.374 Q 97.027 310.32 97.147 310.32 L 97.147 310.32 L 97.465 310.32 L 97.465 310.32 Q 97.585 310.32 97.639 310.374 L 97.639 310.374 L 97.639 310.374 Q 97.693 310.428 97.693 310.542 L 97.693 310.542 L 97.693 314.184 L 97.693 314.184 Q 97.693 314.292 97.642 314.346 L 97.642 314.346 L 97.642 314.346 Q 97.591 314.4 97.465 314.4 L 97.465 314.4 L 97.183 314.4 L 97.183 314.4 Q 97.099 314.4 97.057 314.379 L 97.057 314.379 L 97.057 314.379 Q 97.015 314.358 96.961 314.286 L 96.961 314.286 L 94.981 311.544 L 94.981 314.184 L 94.981 314.184 Q 94.981 314.292 94.93 314.346 L 94.93 314.346 L 94.93 314.346 Q 94.879 314.4 94.753 314.4 L 94.753 314.4 L 94.435 314.4 L 94.435 314.4 Z  M 99.649 314.4 L 99.649 314.4 Q 99.529 314.4 99.475 314.346 L 99.475 314.346 L 99.475 314.346 Q 99.421 314.292 99.421 314.184 L 99.421 314.184 L 99.421 310.908 L 98.371 310.908 L 98.371 310.908 Q 98.251 310.908 98.206 310.86 L 98.206 310.86 L 98.206 310.86 Q 98.161 310.812 98.161 310.698 L 98.161 310.698 L 98.161 310.536 L 98.161 310.536 Q 98.161 310.422 98.206 310.371 L 98.206 310.371 L 98.206 310.371 Q 98.251 310.32 98.371 310.32 L 98.371 310.32 L 101.239 310.32 L 101.239 310.32 Q 101.359 310.32 101.407 310.371 L 101.407 310.371 L 101.407 310.371 Q 101.455 310.422 101.455 310.536 L 101.455 310.536 L 101.455 310.698 L 101.455 310.698 Q 101.455 310.812 101.407 310.86 L 101.407 310.86 L 101.407 310.86 Q 101.359 310.908 101.239 310.908 L 101.239 310.908 L 100.189 310.908 L 100.189 314.184 L 100.189 314.184 Q 100.189 314.292 100.138 314.346 L 100.138 314.346 L 100.138 314.346 Q 100.087 314.4 99.961 314.4 L 99.961 314.4 L 99.649 314.4 L 99.649 314.4 Z " fill-rule="evenodd" fill="rgb(255,255,255)"/><path d=" M 98.863 267.4 L 98.863 267.4 Q 98.665 267.4 98.665 267.196 L 98.665 267.196 L 98.665 266.962 L 98.665 266.962 Q 98.665 266.578 98.962 266.206 L 98.962 266.206 L 98.962 266.206 Q 99.259 265.834 99.853 265.498 L 99.853 265.498 L 99.853 265.498 Q 100.279 265.258 100.477 265.117 L 100.477 265.117 L 100.477 265.117 Q 100.675 264.976 100.768 264.817 L 100.768 264.817 L 100.768 264.817 Q 100.861 264.658 100.861 264.424 L 100.861 264.424 L 100.861 264.424 Q 100.861 264.118 100.645 263.959 L 100.645 263.959 L 100.645 263.959 Q 100.429 263.8 100.039 263.8 L 100.039 263.8 L 100.039 263.8 Q 99.757 263.8 99.508 263.869 L 99.508 263.869 L 99.508 263.869 Q 99.259 263.938 99.079 264.04 L 99.079 264.04 L 99.079 264.04 Q 99.019 264.07 99.001 264.07 L 99.001 264.07 L 99.001 264.07 Q 98.965 264.07 98.929 264.016 L 98.929 264.016 L 98.761 263.722 L 98.761 263.722 Q 98.731 263.674 98.731 263.638 L 98.731 263.638 L 98.731 263.638 Q 98.731 263.59 98.785 263.554 L 98.785 263.554 L 98.785 263.554 Q 98.995 263.404 99.355 263.317 L 99.355 263.317 L 99.355 263.317 Q 99.715 263.23 100.141 263.23 L 100.141 263.23 L 100.141 263.23 Q 100.807 263.23 101.215 263.533 L 101.215 263.533 L 101.215 263.533 Q 101.623 263.836 101.623 264.388 L 101.623 264.388 L 101.623 264.388 Q 101.623 264.85 101.338 265.168 L 101.338 265.168 L 101.338 265.168 Q 101.053 265.486 100.441 265.822 L 100.441 265.822 L 100.441 265.822 Q 99.991 266.056 99.727 266.314 L 99.727 266.314 L 99.727 266.314 Q 99.463 266.572 99.445 266.818 L 99.445 266.818 L 101.389 266.818 L 101.389 266.818 Q 101.509 266.818 101.557 266.869 L 101.557 266.869 L 101.557 266.869 Q 101.605 266.92 101.605 267.034 L 101.605 267.034 L 101.605 267.196 L 101.605 267.196 Q 101.605 267.304 101.557 267.352 L 101.557 267.352 L 101.557 267.352 Q 101.509 267.4 101.389 267.4 L 101.389 267.4 L 98.863 267.4 L 98.863 267.4 Z  M 87.295 267.49 L 87.295 267.49 Q 86.275 267.49 85.717 266.938 L 85.717 266.938 L 85.717 266.938 Q 85.159 266.386 85.159 265.36 L 85.159 265.36 L 85.159 265.36 Q 85.159 264.334 85.708 263.782 L 85.708 263.782 L 85.708 263.782 Q 86.257 263.23 87.277 263.23 L 87.277 263.23 L 87.277 263.23 Q 87.685 263.23 88.033 263.314 L 88.033 263.314 L 88.033 263.314 Q 88.381 263.398 88.621 263.554 L 88.621 263.554 L 88.621 263.554 Q 88.675 263.59 88.675 263.632 L 88.675 263.632 L 88.675 263.632 Q 88.675 263.668 88.645 263.716 L 88.645 263.716 L 88.477 264.004 L 88.477 264.004 Q 88.441 264.058 88.411 264.058 L 88.411 264.058 L 88.411 264.058 Q 88.387 264.058 88.327 264.028 L 88.327 264.028 L 88.327 264.028 Q 87.949 263.8 87.361 263.8 L 87.361 263.8 L 87.361 263.8 Q 86.683 263.8 86.299 264.19 L 86.299 264.19 L 86.299 264.19 Q 85.915 264.58 85.915 265.36 L 85.915 265.36 L 85.915 265.36 Q 85.915 266.152 86.311 266.539 L 86.311 266.539 L 86.311 266.539 Q 86.707 266.926 87.379 266.926 L 87.379 266.926 L 87.379 266.926 Q 88.003 266.926 88.405 266.692 L 88.405 266.692 L 88.405 266.692 Q 88.465 266.662 88.483 266.662 L 88.483 266.662 L 88.483 266.662 Q 88.519 266.662 88.555 266.716 L 88.555 266.716 L 88.741 267.028 L 88.741 267.028 Q 88.759 267.064 88.759 267.088 L 88.759 267.088 L 88.759 267.088 Q 88.759 267.124 88.693 267.166 L 88.693 267.166 L 88.693 267.166 Q 88.231 267.49 87.295 267.49 L 87.295 267.49 L 87.295 267.49 Z  M 89.563 267.4 L 89.563 267.4 Q 89.443 267.4 89.392 267.346 L 89.392 267.346 L 89.392 267.346 Q 89.341 267.292 89.341 267.184 L 89.341 267.184 L 89.341 263.542 L 89.341 263.542 Q 89.341 263.428 89.392 263.374 L 89.392 263.374 L 89.392 263.374 Q 89.443 263.32 89.563 263.32 L 89.563 263.32 L 89.881 263.32 L 89.881 263.32 Q 90.001 263.32 90.055 263.374 L 90.055 263.374 L 90.055 263.374 Q 90.109 263.428 90.109 263.542 L 90.109 263.542 L 90.109 266.818 L 91.945 266.818 L 91.945 266.818 Q 92.065 266.818 92.113 266.869 L 92.113 266.869 L 92.113 266.869 Q 92.161 266.92 92.161 267.034 L 92.161 267.034 L 92.161 267.196 L 92.161 267.196 Q 92.161 267.304 92.113 267.352 L 92.113 267.352 L 92.113 267.352 Q 92.065 267.4 91.945 267.4 L 91.945 267.4 L 89.563 267.4 L 89.563 267.4 Z  M 92.851 267.4 L 92.851 267.4 Q 92.731 267.4 92.68 267.346 L 92.68 267.346 L 92.68 267.346 Q 92.629 267.292 92.629 267.184 L 92.629 267.184 L 92.629 263.542 L 92.629 263.542 Q 92.629 263.428 92.68 263.374 L 92.68 263.374 L 92.68 263.374 Q 92.731 263.32 92.851 263.32 L 92.851 263.32 L 93.169 263.32 L 93.169 263.32 Q 93.289 263.32 93.343 263.374 L 93.343 263.374 L 93.343 263.374 Q 93.397 263.428 93.397 263.542 L 93.397 263.542 L 93.397 267.184 L 93.397 267.184 Q 93.397 267.292 93.346 267.346 L 93.346 267.346 L 93.346 267.346 Q 93.295 267.4 93.169 267.4 L 93.169 267.4 L 92.851 267.4 L 92.851 267.4 Z  M 95.197 267.4 L 95.197 267.4 Q 95.131 267.4 95.098 267.388 L 95.098 267.388 L 95.098 267.388 Q 95.065 267.376 95.029 267.334 L 95.029 267.334 L 93.583 265.594 L 93.583 265.594 Q 93.529 265.528 93.505 265.48 L 93.505 265.48 L 93.505 265.48 Q 93.481 265.432 93.481 265.354 L 93.481 265.354 L 93.481 265.354 Q 93.481 265.276 93.502 265.234 L 93.502 265.234 L 93.502 265.234 Q 93.523 265.192 93.583 265.114 L 93.583 265.114 L 94.993 263.392 L 94.993 263.392 Q 95.029 263.344 95.065 263.332 L 95.065 263.332 L 95.065 263.332 Q 95.101 263.32 95.179 263.32 L 95.179 263.32 L 95.731 263.32 L 95.731 263.32 Q 95.773 263.32 95.797 263.344 L 95.797 263.344 L 95.797 263.344 Q 95.821 263.368 95.821 263.404 L 95.821 263.404 L 95.821 263.404 Q 95.821 263.452 95.785 263.488 L 95.785 263.488 L 94.231 265.354 L 95.821 267.232 L 95.821 267.232 Q 95.857 267.268 95.857 267.316 L 95.857 267.316 L 95.857 267.316 Q 95.857 267.352 95.833 267.376 L 95.833 267.376 L 95.833 267.376 Q 95.809 267.4 95.767 267.4 L 95.767 267.4 L 95.197 267.4 L 95.197 267.4 Z " fill-rule="evenodd" fill="rgb(255,255,255)"/><path d=" M 83.125 212.5 L 87.375 209 L 90.875 212.75 L 101.375 214 L 106.625 211.25 L 109.375 222.25 L 105.625 228.75 L 107.625 244.25 L 103.625 246.75 L 106.875 252.25 L 95.875 252.5 L 93.125 245.5 L 83.875 252 L 82.375 242.5 L 80.125 232 L 79.125 226.25 L 82.125 222.25 L 79.625 214 L 83.125 212.5 Z " fill="rgb(0,0,0)"/><path d=" M 64.978 267.4 L 64.978 267.4 Q 64.858 267.4 64.81 267.355 L 64.81 267.355 L 64.81 267.355 Q 64.762 267.31 64.762 267.202 L 64.762 267.202 L 64.762 267.028 L 64.762 267.028 Q 64.762 266.914 64.81 266.866 L 64.81 266.866 L 64.81 266.866 Q 64.858 266.818 64.978 266.818 L 64.978 266.818 L 65.566 266.818 L 65.566 264.16 L 65.05 264.472 L 65.05 264.472 Q 65.002 264.502 64.966 264.502 L 64.966 264.502 L 64.966 264.502 Q 64.912 264.502 64.876 264.442 L 64.876 264.442 L 64.684 264.142 L 64.684 264.142 Q 64.66 264.1 64.66 264.064 L 64.66 264.064 L 64.66 264.064 Q 64.66 264.004 64.726 263.968 L 64.726 263.968 L 65.716 263.374 L 65.716 263.374 Q 65.758 263.344 65.8 263.332 L 65.8 263.332 L 65.8 263.332 Q 65.842 263.32 65.914 263.32 L 65.914 263.32 L 66.112 263.32 L 66.112 263.32 Q 66.34 263.32 66.34 263.542 L 66.34 263.542 L 66.34 266.818 L 66.928 266.818 L 66.928 266.818 Q 67.048 266.818 67.096 266.866 L 67.096 266.866 L 67.096 266.866 Q 67.144 266.914 67.144 267.028 L 67.144 267.028 L 67.144 267.202 L 67.144 267.202 Q 67.144 267.31 67.096 267.355 L 67.096 267.355 L 67.096 267.355 Q 67.048 267.4 66.928 267.4 L 66.928 267.4 L 64.978 267.4 L 64.978 267.4 Z  M 53.296 267.49 L 53.296 267.49 Q 52.276 267.49 51.718 266.938 L 51.718 266.938 L 51.718 266.938 Q 51.16 266.386 51.16 265.36 L 51.16 265.36 L 51.16 265.36 Q 51.16 264.334 51.709 263.782 L 51.709 263.782 L 51.709 263.782 Q 52.258 263.23 53.278 263.23 L 53.278 263.23 L 53.278 263.23 Q 53.686 263.23 54.034 263.314 L 54.034 263.314 L 54.034 263.314 Q 54.382 263.398 54.622 263.554 L 54.622 263.554 L 54.622 263.554 Q 54.676 263.59 54.676 263.632 L 54.676 263.632 L 54.676 263.632 Q 54.676 263.668 54.646 263.716 L 54.646 263.716 L 54.478 264.004 L 54.478 264.004 Q 54.442 264.058 54.412 264.058 L 54.412 264.058 L 54.412 264.058 Q 54.388 264.058 54.328 264.028 L 54.328 264.028 L 54.328 264.028 Q 53.95 263.8 53.362 263.8 L 53.362 263.8 L 53.362 263.8 Q 52.684 263.8 52.3 264.19 L 52.3 264.19 L 52.3 264.19 Q 51.916 264.58 51.916 265.36 L 51.916 265.36 L 51.916 265.36 Q 51.916 266.152 52.312 266.539 L 52.312 266.539 L 52.312 266.539 Q 52.708 266.926 53.38 266.926 L 53.38 266.926 L 53.38 266.926 Q 54.004 266.926 54.406 266.692 L 54.406 266.692 L 54.406 266.692 Q 54.466 266.662 54.484 266.662 L 54.484 266.662 L 54.484 266.662 Q 54.52 266.662 54.556 266.716 L 54.556 266.716 L 54.742 267.028 L 54.742 267.028 Q 54.76 267.064 54.76 267.088 L 54.76 267.088 L 54.76 267.088 Q 54.76 267.124 54.694 267.166 L 54.694 267.166 L 54.694 267.166 Q 54.232 267.49 53.296 267.49 L 53.296 267.49 L 53.296 267.49 Z  M 55.564 267.4 L 55.564 267.4 Q 55.444 267.4 55.393 267.346 L 55.393 267.346 L 55.393 267.346 Q 55.342 267.292 55.342 267.184 L 55.342 267.184 L 55.342 263.542 L 55.342 263.542 Q 55.342 263.428 55.393 263.374 L 55.393 263.374 L 55.393 263.374 Q 55.444 263.32 55.564 263.32 L 55.564 263.32 L 55.882 263.32 L 55.882 263.32 Q 56.002 263.32 56.056 263.374 L 56.056 263.374 L 56.056 263.374 Q 56.11 263.428 56.11 263.542 L 56.11 263.542 L 56.11 266.818 L 57.946 266.818 L 57.946 266.818 Q 58.066 266.818 58.114 266.869 L 58.114 266.869 L 58.114 266.869 Q 58.162 266.92 58.162 267.034 L 58.162 267.034 L 58.162 267.196 L 58.162 267.196 Q 58.162 267.304 58.114 267.352 L 58.114 267.352 L 58.114 267.352 Q 58.066 267.4 57.946 267.4 L 57.946 267.4 L 55.564 267.4 L 55.564 267.4 Z  M 58.852 267.4 L 58.852 267.4 Q 58.732 267.4 58.681 267.346 L 58.681 267.346 L 58.681 267.346 Q 58.63 267.292 58.63 267.184 L 58.63 267.184 L 58.63 263.542 L 58.63 263.542 Q 58.63 263.428 58.681 263.374 L 58.681 263.374 L 58.681 263.374 Q 58.732 263.32 58.852 263.32 L 58.852 263.32 L 59.17 263.32 L 59.17 263.32 Q 59.29 263.32 59.344 263.374 L 59.344 263.374 L 59.344 263.374 Q 59.398 263.428 59.398 263.542 L 59.398 263.542 L 59.398 267.184 L 59.398 267.184 Q 59.398 267.292 59.347 267.346 L 59.347 267.346 L 59.347 267.346 Q 59.296 267.4 59.17 267.4 L 59.17 267.4 L 58.852 267.4 L 58.852 267.4 Z  M 61.198 267.4 L 61.198 267.4 Q 61.132 267.4 61.099 267.388 L 61.099 267.388 L 61.099 267.388 Q 61.066 267.376 61.03 267.334 L 61.03 267.334 L 59.584 265.594 L 59.584 265.594 Q 59.53 265.528 59.506 265.48 L 59.506 265.48 L 59.506 265.48 Q 59.482 265.432 59.482 265.354 L 59.482 265.354 L 59.482 265.354 Q 59.482 265.276 59.503 265.234 L 59.503 265.234 L 59.503 265.234 Q 59.524 265.192 59.584 265.114 L 59.584 265.114 L 60.994 263.392 L 60.994 263.392 Q 61.03 263.344 61.066 263.332 L 61.066 263.332 L 61.066 263.332 Q 61.102 263.32 61.18 263.32 L 61.18 263.32 L 61.732 263.32 L 61.732 263.32 Q 61.774 263.32 61.798 263.344 L 61.798 263.344 L 61.798 263.344 Q 61.822 263.368 61.822 263.404 L 61.822 263.404 L 61.822 263.404 Q 61.822 263.452 61.786 263.488 L 61.786 263.488 L 60.232 265.354 L 61.822 267.232 L 61.822 267.232 Q 61.858 267.268 61.858 267.316 L 61.858 267.316 L 61.858 267.316 Q 61.858 267.352 61.834 267.376 L 61.834 267.376 L 61.834 267.376 Q 61.81 267.4 61.768 267.4 L 61.768 267.4 L 61.198 267.4 L 61.198 267.4 Z " fill-rule="evenodd" fill="rgb(255,255,255)"/><path d=" M 17.705 267.4 L 17.705 267.4 Q 17.585 267.4 17.534 267.346 L 17.534 267.346 L 17.534 267.346 Q 17.483 267.292 17.483 267.184 L 17.483 267.184 L 17.483 263.542 L 17.483 263.542 Q 17.483 263.428 17.534 263.374 L 17.534 263.374 L 17.534 263.374 Q 17.585 263.32 17.705 263.32 L 17.705 263.32 L 19.271 263.32 L 19.271 263.32 Q 19.967 263.32 20.33 263.644 L 20.33 263.644 L 20.33 263.644 Q 20.693 263.968 20.693 264.604 L 20.693 264.604 L 20.693 264.604 Q 20.693 265.024 20.495 265.321 L 20.495 265.321 L 20.495 265.321 Q 20.297 265.618 19.919 265.768 L 19.919 265.768 L 20.585 267.244 L 20.585 267.244 Q 20.603 267.28 20.603 267.31 L 20.603 267.31 L 20.603 267.31 Q 20.603 267.4 20.495 267.4 L 20.495 267.4 L 20.003 267.4 L 20.003 267.4 Q 19.925 267.4 19.889 267.379 L 19.889 267.379 L 19.889 267.379 Q 19.853 267.358 19.823 267.292 L 19.823 267.292 L 19.217 265.87 L 18.251 265.87 L 18.251 267.184 L 18.251 267.184 Q 18.251 267.292 18.2 267.346 L 18.2 267.346 L 18.2 267.346 Q 18.149 267.4 18.023 267.4 L 18.023 267.4 L 17.705 267.4 L 17.705 267.4 Z  M 18.251 265.294 L 19.115 265.294 L 19.115 265.294 Q 19.535 265.294 19.733 265.132 L 19.733 265.132 L 19.733 265.132 Q 19.931 264.97 19.931 264.604 L 19.931 264.604 L 19.931 264.604 Q 19.931 264.244 19.751 264.076 L 19.751 264.076 L 19.751 264.076 Q 19.571 263.908 19.205 263.908 L 19.205 263.908 L 18.251 263.908 L 18.251 265.294 L 18.251 265.294 Z  M 22.529 267.4 L 22.529 267.4 Q 22.409 267.4 22.355 267.346 L 22.355 267.346 L 22.355 267.346 Q 22.301 267.292 22.301 267.184 L 22.301 267.184 L 22.301 263.908 L 21.251 263.908 L 21.251 263.908 Q 21.131 263.908 21.086 263.86 L 21.086 263.86 L 21.086 263.86 Q 21.041 263.812 21.041 263.698 L 21.041 263.698 L 21.041 263.536 L 21.041 263.536 Q 21.041 263.422 21.086 263.371 L 21.086 263.371 L 21.086 263.371 Q 21.131 263.32 21.251 263.32 L 21.251 263.32 L 24.119 263.32 L 24.119 263.32 Q 24.239 263.32 24.287 263.371 L 24.287 263.371 L 24.287 263.371 Q 24.335 263.422 24.335 263.536 L 24.335 263.536 L 24.335 263.698 L 24.335 263.698 Q 24.335 263.812 24.287 263.86 L 24.287 263.86 L 24.287 263.86 Q 24.239 263.908 24.119 263.908 L 24.119 263.908 L 23.069 263.908 L 23.069 267.184 L 23.069 267.184 Q 23.069 267.292 23.018 267.346 L 23.018 267.346 L 23.018 267.346 Q 22.967 267.4 22.841 267.4 L 22.841 267.4 L 22.529 267.4 L 22.529 267.4 Z  M 25.025 267.4 L 25.025 267.4 Q 24.905 267.4 24.854 267.346 L 24.854 267.346 L 24.854 267.346 Q 24.803 267.292 24.803 267.184 L 24.803 267.184 L 24.803 263.542 L 24.803 263.542 Q 24.803 263.428 24.854 263.374 L 24.854 263.374 L 24.854 263.374 Q 24.905 263.32 25.025 263.32 L 25.025 263.32 L 26.591 263.32 L 26.591 263.32 Q 27.287 263.32 27.65 263.644 L 27.65 263.644 L 27.65 263.644 Q 28.013 263.968 28.013 264.604 L 28.013 264.604 L 28.013 264.604 Q 28.013 265.024 27.815 265.321 L 27.815 265.321 L 27.815 265.321 Q 27.617 265.618 27.239 265.768 L 27.239 265.768 L 27.905 267.244 L 27.905 267.244 Q 27.923 267.28 27.923 267.31 L 27.923 267.31 L 27.923 267.31 Q 27.923 267.4 27.815 267.4 L 27.815 267.4 L 27.323 267.4 L 27.323 267.4 Q 27.245 267.4 27.209 267.379 L 27.209 267.379 L 27.209 267.379 Q 27.173 267.358 27.143 267.292 L 27.143 267.292 L 26.537 265.87 L 25.571 265.87 L 25.571 267.184 L 25.571 267.184 Q 25.571 267.292 25.52 267.346 L 25.52 267.346 L 25.52 267.346 Q 25.469 267.4 25.343 267.4 L 25.343 267.4 L 25.025 267.4 L 25.025 267.4 Z  M 25.571 265.294 L 26.435 265.294 L 26.435 265.294 Q 26.855 265.294 27.053 265.132 L 27.053 265.132 L 27.053 265.132 Q 27.251 264.97 27.251 264.604 L 27.251 264.604 L 27.251 264.604 Q 27.251 264.244 27.071 264.076 L 27.071 264.076 L 27.071 264.076 Q 26.891 263.908 26.525 263.908 L 26.525 263.908 L 25.571 263.908 L 25.571 265.294 L 25.571 265.294 Z  M 30.617 267.49 L 30.617 267.49 Q 29.597 267.49 29.039 266.938 L 29.039 266.938 L 29.039 266.938 Q 28.481 266.386 28.481 265.36 L 28.481 265.36 L 28.481 265.36 Q 28.481 264.34 29.042 263.785 L 29.042 263.785 L 29.042 263.785 Q 29.603 263.23 30.617 263.23 L 30.617 263.23 L 30.617 263.23 Q 31.025 263.23 31.379 263.314 L 31.379 263.314 L 31.379 263.314 Q 31.733 263.398 31.967 263.554 L 31.967 263.554 L 31.967 263.554 Q 32.021 263.59 32.021 263.632 L 32.021 263.632 L 32.021 263.632 Q 32.021 263.662 31.997 263.704 L 31.997 263.704 L 31.823 264.004 L 31.823 264.004 Q 31.787 264.058 31.751 264.058 L 31.751 264.058 L 31.751 264.058 Q 31.733 264.058 31.673 264.028 L 31.673 264.028 L 31.673 264.028 Q 31.265 263.8 30.701 263.8 L 30.701 263.8 L 30.701 263.8 Q 30.017 263.8 29.627 264.187 L 29.627 264.187 L 29.627 264.187 Q 29.237 264.574 29.237 265.36 L 29.237 265.36 L 29.237 265.36 Q 29.237 266.152 29.615 266.536 L 29.615 266.536 L 29.615 266.536 Q 29.993 266.92 30.653 266.92 L 30.653 266.92 L 30.653 266.92 Q 30.893 266.92 31.121 266.881 L 31.121 266.881 L 31.121 266.881 Q 31.349 266.842 31.493 266.77 L 31.493 266.77 L 31.493 265.66 L 30.701 265.66 L 30.701 265.66 Q 30.581 265.66 30.533 265.609 L 30.533 265.609 L 30.533 265.609 Q 30.485 265.558 30.485 265.444 L 30.485 265.444 L 30.485 265.288 L 30.485 265.288 Q 30.485 265.174 30.533 265.129 L 30.533 265.129 L 30.533 265.129 Q 30.581 265.084 30.701 265.084 L 30.701 265.084 L 31.967 265.084 L 31.967 265.084 Q 32.099 265.084 32.156 265.147 L 32.156 265.147 L 32.156 265.147 Q 32.213 265.21 32.213 265.342 L 32.213 265.342 L 32.213 266.926 L 32.213 266.926 Q 32.213 267.016 32.195 267.061 L 32.195 267.061 L 32.195 267.061 Q 32.177 267.106 32.117 267.142 L 32.117 267.142 L 32.117 267.142 Q 31.565 267.49 30.617 267.49 L 30.617 267.49 L 30.617 267.49 Z " fill-rule="evenodd" fill="rgb(255,255,255)"/><path d=" M 88.984 220.4 L 88.984 220.4 Q 88.864 220.4 88.813 220.346 L 88.813 220.346 L 88.813 220.346 Q 88.762 220.292 88.762 220.184 L 88.762 220.184 L 88.762 216.542 L 88.762 216.542 Q 88.762 216.428 88.813 216.374 L 88.813 216.374 L 88.813 216.374 Q 88.864 216.32 88.99 216.32 L 88.99 216.32 L 89.314 216.32 L 89.314 216.32 Q 89.41 216.32 89.461 216.344 L 89.461 216.344 L 89.461 216.344 Q 89.512 216.368 89.542 216.44 L 89.542 216.44 L 90.754 219.23 L 91.966 216.44 L 91.966 216.44 Q 91.996 216.368 92.047 216.344 L 92.047 216.344 L 92.047 216.344 Q 92.098 216.32 92.194 216.32 L 92.194 216.32 L 92.518 216.32 L 92.518 216.32 Q 92.644 216.32 92.695 216.374 L 92.695 216.374 L 92.695 216.374 Q 92.746 216.428 92.746 216.542 L 92.746 216.542 L 92.746 220.184 L 92.746 220.184 Q 92.746 220.292 92.695 220.346 L 92.695 220.346 L 92.695 220.346 Q 92.644 220.4 92.524 220.4 L 92.524 220.4 L 92.26 220.4 L 92.26 220.4 Q 92.14 220.4 92.086 220.346 L 92.086 220.346 L 92.086 220.346 Q 92.032 220.292 92.032 220.184 L 92.032 220.184 L 92.032 217.598 L 91.006 219.884 L 91.006 219.884 Q 90.958 219.98 90.91 220.022 L 90.91 220.022 L 90.91 220.022 Q 90.862 220.064 90.754 220.064 L 90.754 220.064 L 90.754 220.064 Q 90.646 220.064 90.595 220.022 L 90.595 220.022 L 90.595 220.022 Q 90.544 219.98 90.502 219.884 L 90.502 219.884 L 89.476 217.598 L 89.476 220.184 L 89.476 220.184 Q 89.476 220.292 89.425 220.346 L 89.425 220.346 L 89.425 220.346 Q 89.374 220.4 89.248 220.4 L 89.248 220.4 L 88.984 220.4 L 88.984 220.4 Z  M 94.492 220.4 L 94.492 220.4 Q 94.402 220.4 94.357 220.367 L 94.357 220.367 L 94.357 220.367 Q 94.312 220.334 94.294 220.25 L 94.294 220.25 L 93.346 216.464 L 93.346 216.464 Q 93.34 216.446 93.34 216.41 L 93.34 216.41 L 93.34 216.41 Q 93.34 216.32 93.454 216.32 L 93.454 216.32 L 93.94 216.32 L 93.94 216.32 Q 94.03 216.32 94.066 216.35 L 94.066 216.35 L 94.066 216.35 Q 94.102 216.38 94.114 216.446 L 94.114 216.446 L 94.714 219.086 L 95.434 216.758 L 95.434 216.758 Q 95.458 216.686 95.491 216.659 L 95.491 216.659 L 95.491 216.659 Q 95.524 216.632 95.602 216.632 L 95.602 216.632 L 95.878 216.632 L 95.878 216.632 Q 95.956 216.632 95.989 216.659 L 95.989 216.659 L 95.989 216.659 Q 96.022 216.686 96.046 216.758 L 96.046 216.758 L 96.772 219.086 L 97.366 216.446 L 97.366 216.446 Q 97.378 216.38 97.417 216.35 L 97.417 216.35 L 97.417 216.35 Q 97.456 216.32 97.54 216.32 L 97.54 216.32 L 98.032 216.32 L 98.032 216.32 Q 98.146 216.32 98.146 216.41 L 98.146 216.41 L 98.146 216.41 Q 98.146 216.446 98.14 216.464 L 98.14 216.464 L 97.186 220.25 L 97.186 220.25 Q 97.162 220.334 97.117 220.367 L 97.117 220.367 L 97.117 220.367 Q 97.072 220.4 96.988 220.4 L 96.988 220.4 L 96.664 220.4 L 96.664 220.4 Q 96.58 220.4 96.535 220.367 L 96.535 220.367 L 96.535 220.367 Q 96.49 220.334 96.466 220.25 L 96.466 220.25 L 95.74 217.85 L 95.02 220.25 L 95.02 220.25 Q 94.996 220.334 94.951 220.367 L 94.951 220.367 L 94.951 220.367 Q 94.906 220.4 94.822 220.4 L 94.822 220.4 L 94.492 220.4 L 94.492 220.4 Z " fill-rule="evenodd" fill="rgb(255,255,255)"/><path d=" M 55.186 220.4 L 55.186 220.4 Q 55.066 220.4 55.015 220.346 L 55.015 220.346 L 55.015 220.346 Q 54.964 220.292 54.964 220.184 L 54.964 220.184 L 54.964 216.542 L 54.964 216.542 Q 54.964 216.428 55.015 216.374 L 55.015 216.374 L 55.015 216.374 Q 55.066 216.32 55.186 216.32 L 55.186 216.32 L 56.722 216.32 L 56.722 216.32 Q 57.46 216.32 57.817 216.671 L 57.817 216.671 L 57.817 216.671 Q 58.174 217.022 58.174 217.676 L 58.174 217.676 L 58.174 217.676 Q 58.174 218.324 57.817 218.672 L 57.817 218.672 L 57.817 218.672 Q 57.46 219.02 56.722 219.02 L 56.722 219.02 L 55.732 219.02 L 55.732 220.184 L 55.732 220.184 Q 55.732 220.292 55.681 220.346 L 55.681 220.346 L 55.681 220.346 Q 55.63 220.4 55.504 220.4 L 55.504 220.4 L 55.186 220.4 L 55.186 220.4 Z  M 55.732 218.438 L 56.686 218.438 L 56.686 218.438 Q 57.052 218.438 57.232 218.249 L 57.232 218.249 L 57.232 218.249 Q 57.412 218.06 57.412 217.676 L 57.412 217.676 L 57.412 217.676 Q 57.412 217.286 57.232 217.097 L 57.232 217.097 L 57.232 217.097 Q 57.052 216.908 56.686 216.908 L 56.686 216.908 L 55.732 216.908 L 55.732 218.438 L 55.732 218.438 Z  M 59.68 220.4 L 59.68 220.4 Q 59.59 220.4 59.545 220.367 L 59.545 220.367 L 59.545 220.367 Q 59.5 220.334 59.482 220.25 L 59.482 220.25 L 58.534 216.464 L 58.534 216.464 Q 58.528 216.446 58.528 216.41 L 58.528 216.41 L 58.528 216.41 Q 58.528 216.32 58.642 216.32 L 58.642 216.32 L 59.128 216.32 L 59.128 216.32 Q 59.218 216.32 59.254 216.35 L 59.254 216.35 L 59.254 216.35 Q 59.29 216.38 59.302 216.446 L 59.302 216.446 L 59.902 219.086 L 60.622 216.758 L 60.622 216.758 Q 60.646 216.686 60.679 216.659 L 60.679 216.659 L 60.679 216.659 Q 60.712 216.632 60.79 216.632 L 60.79 216.632 L 61.066 216.632 L 61.066 216.632 Q 61.144 216.632 61.177 216.659 L 61.177 216.659 L 61.177 216.659 Q 61.21 216.686 61.234 216.758 L 61.234 216.758 L 61.96 219.086 L 62.554 216.446 L 62.554 216.446 Q 62.566 216.38 62.605 216.35 L 62.605 216.35 L 62.605 216.35 Q 62.644 216.32 62.728 216.32 L 62.728 216.32 L 63.22 216.32 L 63.22 216.32 Q 63.334 216.32 63.334 216.41 L 63.334 216.41 L 63.334 216.41 Q 63.334 216.446 63.328 216.464 L 63.328 216.464 L 62.374 220.25 L 62.374 220.25 Q 62.35 220.334 62.305 220.367 L 62.305 220.367 L 62.305 220.367 Q 62.26 220.4 62.176 220.4 L 62.176 220.4 L 61.852 220.4 L 61.852 220.4 Q 61.768 220.4 61.723 220.367 L 61.723 220.367 L 61.723 220.367 Q 61.678 220.334 61.654 220.25 L 61.654 220.25 L 60.928 217.85 L 60.208 220.25 L 60.208 220.25 Q 60.184 220.334 60.139 220.367 L 60.139 220.367 L 60.139 220.367 Q 60.094 220.4 60.01 220.4 L 60.01 220.4 L 59.68 220.4 L 59.68 220.4 Z " fill-rule="evenodd" fill="rgb(255,255,255)"/><path d=" M 19.466 220.4 L 19.466 220.4 Q 19.364 220.4 19.364 220.31 L 19.364 220.31 L 19.364 220.31 Q 19.364 220.274 19.382 220.232 L 19.382 220.232 L 20.966 216.476 L 20.966 216.476 Q 21.002 216.386 21.044 216.353 L 21.044 216.353 L 21.044 216.353 Q 21.086 216.32 21.164 216.32 L 21.164 216.32 L 21.494 216.32 L 21.494 216.32 Q 21.578 216.32 21.617 216.353 L 21.617 216.353 L 21.617 216.353 Q 21.656 216.386 21.692 216.476 L 21.692 216.476 L 23.276 220.232 L 23.276 220.232 Q 23.294 220.274 23.294 220.31 L 23.294 220.31 L 23.294 220.31 Q 23.294 220.4 23.192 220.4 L 23.192 220.4 L 22.67 220.4 L 22.67 220.4 Q 22.592 220.4 22.559 220.379 L 22.559 220.379 L 22.559 220.379 Q 22.526 220.358 22.496 220.292 L 22.496 220.292 L 22.154 219.452 L 20.498 219.452 L 20.162 220.292 L 20.162 220.292 Q 20.132 220.358 20.099 220.379 L 20.099 220.379 L 20.099 220.379 Q 20.066 220.4 19.988 220.4 L 19.988 220.4 L 19.466 220.4 L 19.466 220.4 Z  M 20.69 218.894 L 21.962 218.894 L 21.326 217.322 L 20.69 218.894 L 20.69 218.894 Z  M 24.104 220.4 L 24.104 220.4 Q 23.984 220.4 23.933 220.346 L 23.933 220.346 L 23.933 220.346 Q 23.882 220.292 23.882 220.184 L 23.882 220.184 L 23.882 216.542 L 23.882 216.542 Q 23.882 216.428 23.933 216.374 L 23.933 216.374 L 23.933 216.374 Q 23.984 216.32 24.104 216.32 L 24.104 216.32 L 26.6 216.32 L 26.6 216.32 Q 26.72 216.32 26.765 216.368 L 26.765 216.368 L 26.765 216.368 Q 26.81 216.416 26.81 216.53 L 26.81 216.53 L 26.81 216.692 L 26.81 216.692 Q 26.81 216.806 26.765 216.857 L 26.765 216.857 L 26.765 216.857 Q 26.72 216.908 26.6 216.908 L 26.6 216.908 L 24.65 216.908 L 24.65 218.066 L 26.066 218.066 L 26.066 218.066 Q 26.186 218.066 26.234 218.114 L 26.234 218.114 L 26.234 218.114 Q 26.282 218.162 26.282 218.276 L 26.282 218.276 L 26.282 218.438 L 26.282 218.438 Q 26.282 218.552 26.234 218.603 L 26.234 218.603 L 26.234 218.603 Q 26.186 218.654 26.066 218.654 L 26.066 218.654 L 24.65 218.654 L 24.65 220.184 L 24.65 220.184 Q 24.65 220.292 24.599 220.346 L 24.599 220.346 L 24.599 220.346 Q 24.548 220.4 24.422 220.4 L 24.422 220.4 L 24.104 220.4 L 24.104 220.4 Z  M 28.526 220.4 L 28.526 220.4 Q 28.406 220.4 28.352 220.346 L 28.352 220.346 L 28.352 220.346 Q 28.298 220.292 28.298 220.184 L 28.298 220.184 L 28.298 216.908 L 27.248 216.908 L 27.248 216.908 Q 27.128 216.908 27.083 216.86 L 27.083 216.86 L 27.083 216.86 Q 27.038 216.812 27.038 216.698 L 27.038 216.698 L 27.038 216.536 L 27.038 216.536 Q 27.038 216.422 27.083 216.371 L 27.083 216.371 L 27.083 216.371 Q 27.128 216.32 27.248 216.32 L 27.248 216.32 L 30.116 216.32 L 30.116 216.32 Q 30.236 216.32 30.284 216.371 L 30.284 216.371 L 30.284 216.371 Q 30.332 216.422 30.332 216.536 L 30.332 216.536 L 30.332 216.698 L 30.332 216.698 Q 30.332 216.812 30.284 216.86 L 30.284 216.86 L 30.284 216.86 Q 30.236 216.908 30.116 216.908 L 30.116 216.908 L 29.066 216.908 L 29.066 220.184 L 29.066 220.184 Q 29.066 220.292 29.015 220.346 L 29.015 220.346 L 29.015 220.346 Q 28.964 220.4 28.838 220.4 L 28.838 220.4 L 28.526 220.4 L 28.526 220.4 Z " fill-rule="evenodd" fill="rgb(255,255,255)"/><path d=" M 22.955 172.49 L 22.955 172.49 Q 21.935 172.49 21.377 171.938 L 21.377 171.938 L 21.377 171.938 Q 20.819 171.386 20.819 170.36 L 20.819 170.36 L 20.819 170.36 Q 20.819 169.334 21.368 168.782 L 21.368 168.782 L 21.368 168.782 Q 21.917 168.23 22.937 168.23 L 22.937 168.23 L 22.937 168.23 Q 23.345 168.23 23.693 168.314 L 23.693 168.314 L 23.693 168.314 Q 24.041 168.398 24.281 168.554 L 24.281 168.554 L 24.281 168.554 Q 24.335 168.59 24.335 168.632 L 24.335 168.632 L 24.335 168.632 Q 24.335 168.668 24.305 168.716 L 24.305 168.716 L 24.137 169.004 L 24.137 169.004 Q 24.101 169.058 24.071 169.058 L 24.071 169.058 L 24.071 169.058 Q 24.047 169.058 23.987 169.028 L 23.987 169.028 L 23.987 169.028 Q 23.609 168.8 23.021 168.8 L 23.021 168.8 L 23.021 168.8 Q 22.343 168.8 21.959 169.19 L 21.959 169.19 L 21.959 169.19 Q 21.575 169.58 21.575 170.36 L 21.575 170.36 L 21.575 170.36 Q 21.575 171.152 21.971 171.539 L 21.971 171.539 L 21.971 171.539 Q 22.367 171.926 23.039 171.926 L 23.039 171.926 L 23.039 171.926 Q 23.663 171.926 24.065 171.692 L 24.065 171.692 L 24.065 171.692 Q 24.125 171.662 24.143 171.662 L 24.143 171.662 L 24.143 171.662 Q 24.179 171.662 24.215 171.716 L 24.215 171.716 L 24.401 172.028 L 24.401 172.028 Q 24.419 172.064 24.419 172.088 L 24.419 172.088 L 24.419 172.088 Q 24.419 172.124 24.353 172.166 L 24.353 172.166 L 24.353 172.166 Q 23.891 172.49 22.955 172.49 L 22.955 172.49 L 22.955 172.49 Z  M 26.657 172.4 L 26.657 172.4 Q 26.573 172.4 26.534 172.37 L 26.534 172.37 L 26.534 172.37 Q 26.495 172.34 26.459 172.25 L 26.459 172.25 L 24.899 168.488 L 24.899 168.488 Q 24.881 168.452 24.881 168.416 L 24.881 168.416 L 24.881 168.416 Q 24.881 168.374 24.908 168.347 L 24.908 168.347 L 24.908 168.347 Q 24.935 168.32 24.983 168.32 L 24.983 168.32 L 25.499 168.32 L 25.499 168.32 Q 25.577 168.32 25.619 168.35 L 25.619 168.35 L 25.619 168.35 Q 25.661 168.38 25.685 168.446 L 25.685 168.446 L 26.819 171.326 L 27.953 168.446 L 27.953 168.446 Q 27.977 168.38 28.019 168.35 L 28.019 168.35 L 28.019 168.35 Q 28.061 168.32 28.139 168.32 L 28.139 168.32 L 28.655 168.32 L 28.655 168.32 Q 28.703 168.32 28.73 168.347 L 28.73 168.347 L 28.73 168.347 Q 28.757 168.374 28.757 168.416 L 28.757 168.416 L 28.757 168.416 Q 28.757 168.452 28.739 168.488 L 28.739 168.488 L 27.185 172.25 L 27.185 172.25 Q 27.149 172.34 27.107 172.37 L 27.107 172.37 L 27.107 172.37 Q 27.065 172.4 26.981 172.4 L 26.981 172.4 L 26.657 172.4 L 26.657 172.4 Z " fill-rule="evenodd" fill="rgb(255,255,255)"/><path d=" M 53.674 172.49 L 53.674 172.49 Q 52.654 172.49 52.096 171.938 L 52.096 171.938 L 52.096 171.938 Q 51.538 171.386 51.538 170.36 L 51.538 170.36 L 51.538 170.36 Q 51.538 169.34 52.099 168.785 L 52.099 168.785 L 52.099 168.785 Q 52.66 168.23 53.674 168.23 L 53.674 168.23 L 53.674 168.23 Q 54.082 168.23 54.436 168.314 L 54.436 168.314 L 54.436 168.314 Q 54.79 168.398 55.024 168.554 L 55.024 168.554 L 55.024 168.554 Q 55.078 168.59 55.078 168.632 L 55.078 168.632 L 55.078 168.632 Q 55.078 168.662 55.054 168.704 L 55.054 168.704 L 54.88 169.004 L 54.88 169.004 Q 54.844 169.058 54.808 169.058 L 54.808 169.058 L 54.808 169.058 Q 54.79 169.058 54.73 169.028 L 54.73 169.028 L 54.73 169.028 Q 54.322 168.8 53.758 168.8 L 53.758 168.8 L 53.758 168.8 Q 53.074 168.8 52.684 169.187 L 52.684 169.187 L 52.684 169.187 Q 52.294 169.574 52.294 170.36 L 52.294 170.36 L 52.294 170.36 Q 52.294 171.152 52.672 171.536 L 52.672 171.536 L 52.672 171.536 Q 53.05 171.92 53.71 171.92 L 53.71 171.92 L 53.71 171.92 Q 53.95 171.92 54.178 171.881 L 54.178 171.881 L 54.178 171.881 Q 54.406 171.842 54.55 171.77 L 54.55 171.77 L 54.55 170.66 L 53.758 170.66 L 53.758 170.66 Q 53.638 170.66 53.59 170.609 L 53.59 170.609 L 53.59 170.609 Q 53.542 170.558 53.542 170.444 L 53.542 170.444 L 53.542 170.288 L 53.542 170.288 Q 53.542 170.174 53.59 170.129 L 53.59 170.129 L 53.59 170.129 Q 53.638 170.084 53.758 170.084 L 53.758 170.084 L 55.024 170.084 L 55.024 170.084 Q 55.156 170.084 55.213 170.147 L 55.213 170.147 L 55.213 170.147 Q 55.27 170.21 55.27 170.342 L 55.27 170.342 L 55.27 171.926 L 55.27 171.926 Q 55.27 172.016 55.252 172.061 L 55.252 172.061 L 55.252 172.061 Q 55.234 172.106 55.174 172.142 L 55.174 172.142 L 55.174 172.142 Q 54.622 172.49 53.674 172.49 L 53.674 172.49 L 53.674 172.49 Z  M 55.84 172.4 L 55.84 172.4 Q 55.738 172.4 55.738 172.31 L 55.738 172.31 L 55.738 172.31 Q 55.738 172.274 55.756 172.232 L 55.756 172.232 L 57.34 168.476 L 57.34 168.476 Q 57.376 168.386 57.418 168.353 L 57.418 168.353 L 57.418 168.353 Q 57.46 168.32 57.538 168.32 L 57.538 168.32 L 57.868 168.32 L 57.868 168.32 Q 57.952 168.32 57.991 168.353 L 57.991 168.353 L 57.991 168.353 Q 58.03 168.386 58.066 168.476 L 58.066 168.476 L 59.65 172.232 L 59.65 172.232 Q 59.668 172.274 59.668 172.31 L 59.668 172.31 L 59.668 172.31 Q 59.668 172.4 59.566 172.4 L 59.566 172.4 L 59.044 172.4 L 59.044 172.4 Q 58.966 172.4 58.933 172.379 L 58.933 172.379 L 58.933 172.379 Q 58.9 172.358 58.87 172.292 L 58.87 172.292 L 58.528 171.452 L 56.872 171.452 L 56.536 172.292 L 56.536 172.292 Q 56.506 172.358 56.473 172.379 L 56.473 172.379 L 56.473 172.379 Q 56.44 172.4 56.362 172.4 L 56.362 172.4 L 55.84 172.4 L 55.84 172.4 Z  M 57.064 170.894 L 58.336 170.894 L 57.7 169.322 L 57.064 170.894 L 57.064 170.894 Z  M 61.504 172.4 L 61.504 172.4 Q 61.384 172.4 61.33 172.346 L 61.33 172.346 L 61.33 172.346 Q 61.276 172.292 61.276 172.184 L 61.276 172.184 L 61.276 168.908 L 60.226 168.908 L 60.226 168.908 Q 60.106 168.908 60.061 168.86 L 60.061 168.86 L 60.061 168.86 Q 60.016 168.812 60.016 168.698 L 60.016 168.698 L 60.016 168.536 L 60.016 168.536 Q 60.016 168.422 60.061 168.371 L 60.061 168.371 L 60.061 168.371 Q 60.106 168.32 60.226 168.32 L 60.226 168.32 L 63.094 168.32 L 63.094 168.32 Q 63.214 168.32 63.262 168.371 L 63.262 168.371 L 63.262 168.371 Q 63.31 168.422 63.31 168.536 L 63.31 168.536 L 63.31 168.698 L 63.31 168.698 Q 63.31 168.812 63.262 168.86 L 63.262 168.86 L 63.262 168.86 Q 63.214 168.908 63.094 168.908 L 63.094 168.908 L 62.044 168.908 L 62.044 172.184 L 62.044 172.184 Q 62.044 172.292 61.993 172.346 L 61.993 172.346 L 61.993 172.346 Q 61.942 172.4 61.816 172.4 L 61.816 172.4 L 61.504 172.4 L 61.504 172.4 Z  M 64 172.4 L 64 172.4 Q 63.88 172.4 63.829 172.346 L 63.829 172.346 L 63.829 172.346 Q 63.778 172.292 63.778 172.184 L 63.778 172.184 L 63.778 168.542 L 63.778 168.542 Q 63.778 168.428 63.829 168.374 L 63.829 168.374 L 63.829 168.374 Q 63.88 168.32 64 168.32 L 64 168.32 L 66.496 168.32 L 66.496 168.32 Q 66.616 168.32 66.661 168.368 L 66.661 168.368 L 66.661 168.368 Q 66.706 168.416 66.706 168.53 L 66.706 168.53 L 66.706 168.692 L 66.706 168.692 Q 66.706 168.806 66.661 168.857 L 66.661 168.857 L 66.661 168.857 Q 66.616 168.908 66.496 168.908 L 66.496 168.908 L 64.546 168.908 L 64.546 170.072 L 65.962 170.072 L 65.962 170.072 Q 66.082 170.072 66.13 170.12 L 66.13 170.12 L 66.13 170.12 Q 66.178 170.168 66.178 170.282 L 66.178 170.282 L 66.178 170.432 L 66.178 170.432 Q 66.178 170.546 66.13 170.597 L 66.13 170.597 L 66.13 170.597 Q 66.082 170.648 65.962 170.648 L 65.962 170.648 L 64.546 170.648 L 64.546 171.818 L 66.49 171.818 L 66.49 171.818 Q 66.61 171.818 66.658 171.869 L 66.658 171.869 L 66.658 171.869 Q 66.706 171.92 66.706 172.034 L 66.706 172.034 L 66.706 172.196 L 66.706 172.196 Q 66.706 172.304 66.658 172.352 L 66.658 172.352 L 66.658 172.352 Q 66.61 172.4 66.49 172.4 L 66.49 172.4 L 64 172.4 L 64 172.4 Z " fill-rule="evenodd" fill="rgb(255,255,255)"/><path d=" M 89.863 172.4 L 89.863 172.4 Q 89.779 172.4 89.74 172.37 L 89.74 172.37 L 89.74 172.37 Q 89.701 172.34 89.665 172.25 L 89.665 172.25 L 88.105 168.488 L 88.105 168.488 Q 88.087 168.452 88.087 168.416 L 88.087 168.416 L 88.087 168.416 Q 88.087 168.374 88.114 168.347 L 88.114 168.347 L 88.114 168.347 Q 88.141 168.32 88.189 168.32 L 88.189 168.32 L 88.705 168.32 L 88.705 168.32 Q 88.783 168.32 88.825 168.35 L 88.825 168.35 L 88.825 168.35 Q 88.867 168.38 88.891 168.446 L 88.891 168.446 L 90.025 171.326 L 91.159 168.446 L 91.159 168.446 Q 91.183 168.38 91.225 168.35 L 91.225 168.35 L 91.225 168.35 Q 91.267 168.32 91.345 168.32 L 91.345 168.32 L 91.861 168.32 L 91.861 168.32 Q 91.909 168.32 91.936 168.347 L 91.936 168.347 L 91.936 168.347 Q 91.963 168.374 91.963 168.416 L 91.963 168.416 L 91.963 168.416 Q 91.963 168.452 91.945 168.488 L 91.945 168.488 L 90.391 172.25 L 90.391 172.25 Q 90.355 172.34 90.313 172.37 L 90.313 172.37 L 90.313 172.37 Q 90.271 172.4 90.187 172.4 L 90.187 172.4 L 89.863 172.4 L 89.863 172.4 Z  M 92.773 172.4 L 92.773 172.4 Q 92.653 172.4 92.602 172.346 L 92.602 172.346 L 92.602 172.346 Q 92.551 172.292 92.551 172.184 L 92.551 172.184 L 92.551 168.542 L 92.551 168.542 Q 92.551 168.428 92.602 168.374 L 92.602 168.374 L 92.602 168.374 Q 92.653 168.32 92.773 168.32 L 92.773 168.32 L 95.269 168.32 L 95.269 168.32 Q 95.389 168.32 95.434 168.368 L 95.434 168.368 L 95.434 168.368 Q 95.479 168.416 95.479 168.53 L 95.479 168.53 L 95.479 168.692 L 95.479 168.692 Q 95.479 168.806 95.434 168.857 L 95.434 168.857 L 95.434 168.857 Q 95.389 168.908 95.269 168.908 L 95.269 168.908 L 93.319 168.908 L 93.319 170.072 L 94.735 170.072 L 94.735 170.072 Q 94.855 170.072 94.903 170.12 L 94.903 170.12 L 94.903 170.12 Q 94.951 170.168 94.951 170.282 L 94.951 170.282 L 94.951 170.432 L 94.951 170.432 Q 94.951 170.546 94.903 170.597 L 94.903 170.597 L 94.903 170.597 Q 94.855 170.648 94.735 170.648 L 94.735 170.648 L 93.319 170.648 L 93.319 171.818 L 95.263 171.818 L 95.263 171.818 Q 95.383 171.818 95.431 171.869 L 95.431 171.869 L 95.431 171.869 Q 95.479 171.92 95.479 172.034 L 95.479 172.034 L 95.479 172.196 L 95.479 172.196 Q 95.479 172.304 95.431 172.352 L 95.431 172.352 L 95.431 172.352 Q 95.383 172.4 95.263 172.4 L 95.263 172.4 L 92.773 172.4 L 92.773 172.4 Z  M 96.229 172.4 L 96.229 172.4 Q 96.109 172.4 96.058 172.346 L 96.058 172.346 L 96.058 172.346 Q 96.007 172.292 96.007 172.184 L 96.007 172.184 L 96.007 168.542 L 96.007 168.542 Q 96.007 168.428 96.058 168.374 L 96.058 168.374 L 96.058 168.374 Q 96.109 168.32 96.229 168.32 L 96.229 168.32 L 96.547 168.32 L 96.547 168.32 Q 96.667 168.32 96.721 168.374 L 96.721 168.374 L 96.721 168.374 Q 96.775 168.428 96.775 168.542 L 96.775 168.542 L 96.775 171.818 L 98.611 171.818 L 98.611 171.818 Q 98.731 171.818 98.779 171.869 L 98.779 171.869 L 98.779 171.869 Q 98.827 171.92 98.827 172.034 L 98.827 172.034 L 98.827 172.196 L 98.827 172.196 Q 98.827 172.304 98.779 172.352 L 98.779 172.352 L 98.779 172.352 Q 98.731 172.4 98.611 172.4 L 98.611 172.4 L 96.229 172.4 L 96.229 172.4 Z " fill-rule="evenodd" fill="rgb(255,255,255)"/></g></svg>