<?xml version="1.0" standalone="no"?><!-- Generator: Gravit.io --><svg xmlns="http://www.w3.org/2000/svg" xmlns:xlink="http://www.w3.org/1999/xlink" style="isolation:isolate" viewBox="0 0 120 380" width="120" height="380"><defs><clipPath id="_clipPath_FVh7fWqgjowFpHG9JJ8OGx60lxxwejsq"><rect width="120" height="380"/></clipPath></defs><g clip-path="url(#_clipPath_FVh7fWqgjowFpHG9JJ8OGx60lxxwejsq)"><g id="bg"><rect x="0" y="0" width="120" height="380" transform="matrix(1,0,0,1,0,0)" fill="rgb(240,240,240)"/><path d=" M 54.081618 369.598705 C 53.927026 369.747088 53.783257 369.850659 53.650311 369.909418 C 53.51736 369.968177 53.375138 369.997539 53.223635 369.997539 C 53.072137 369.997539 52.929914 369.969715 52.796964 369.914067 C 52.664013 369.858419 52.548073 369.781099 52.449133 369.682177 C 52.232702 369.465737 52.12449 369.209133 52.12449 368.912298 L 52.12449 363.384743 C 52.12449 363.08172 52.201784 362.846754 52.356376 362.67981 C 52.622277 362.407722 52.874258 362.271678 53.11233 362.271678 C 53.350403 362.271678 53.528179 362.296391 53.64567 362.345887 C 53.763162 362.395348 53.862097 362.457183 53.942485 362.531392 C 54.047611 362.624127 54.126452 362.723084 54.179011 362.828193 C 54.231574 362.933337 54.274857 363.010622 54.308868 363.060083 C 54.342879 363.109544 54.398531 363.134292 54.475829 363.134292 C 54.553123 363.134292 54.619598 363.109544 54.675251 363.060083 L 54.832932 362.902402 C 55.284342 362.481931 55.735744 362.271678 56.187154 362.271678 C 56.984853 362.271678 57.643406 362.599414 58.162834 363.254886 C 58.212304 363.322908 58.274139 363.356919 58.348343 363.356919 C 58.4782 363.356919 58.609604 363.256424 58.742555 363.055434 C 58.875501 362.854479 59.090381 362.673623 59.3872 362.512831 C 59.684018 362.352074 60.030298 362.271678 60.426056 362.271678 C 60.82181 362.271678 61.182006 362.344314 61.506648 362.489656 C 61.831291 362.634963 62.114193 362.83438 62.355355 363.087907 C 62.862418 363.619709 63.115945 364.262808 63.115945 365.017202 L 63.115945 368.912298 C 63.115945 369.382265 62.893335 369.713077 62.448112 369.904769 C 62.312068 369.966604 62.168303 369.997539 62.0168 369.997539 C 61.865302 369.997539 61.723075 369.969715 61.590129 369.914067 C 61.457179 369.858419 61.341238 369.781099 61.242298 369.682177 C 61.03205 369.45955 60.926932 369.202946 60.926932 368.912298 L 60.926932 365.04506 C 60.926932 364.735851 60.849634 364.503961 60.695042 364.34939 C 60.422963 364.077302 60.172525 363.941258 59.943728 363.941258 C 59.714932 363.941258 59.535609 363.970621 59.405752 364.029379 C 59.275891 364.088138 59.158403 364.170072 59.053281 364.275181 C 58.836854 364.491621 58.728638 364.742038 58.728638 365.0265 L 58.728638 368.912298 C 58.728638 369.382265 58.509122 369.713077 58.070081 369.904769 C 57.934037 369.966604 57.790268 369.997539 57.63877 369.997539 C 57.487267 369.997539 57.343502 369.969715 57.207458 369.914067 C 57.071419 369.858419 56.953931 369.781099 56.854992 369.682177 C 56.638561 369.465737 56.530349 369.209133 56.530349 368.912298 L 56.530349 365.04506 C 56.530349 364.735851 56.453051 364.503961 56.298459 364.34939 C 56.02638 364.077302 55.741935 363.941258 55.445117 363.941258 C 54.950419 363.941258 54.607233 364.13295 54.415537 364.516335 C 54.353701 364.640005 54.32278 364.779159 54.32278 364.93373 L 54.32278 368.912298 C 54.32278 369.21532 54.242397 369.4441 54.081618 369.598705 Z  M 65.342682 363.387204 C 65.342682 363.084216 65.419976 362.849215 65.574568 362.682271 C 65.840469 362.410183 66.13419 362.274139 66.455739 362.274139 C 66.764923 362.274139 66.993719 362.354535 67.142128 362.515292 C 67.414208 362.793567 67.550252 363.084216 67.550252 363.387204 L 67.550252 368.914793 C 67.550252 369.211595 67.472958 369.437298 67.318362 369.591902 C 67.046282 369.863956 66.79584 370 66.567044 370 C 66.338247 370 66.155835 369.970638 66.019791 369.911879 C 65.883752 369.853155 65.766264 369.777407 65.667325 369.684638 C 65.450893 369.474385 65.342682 369.217781 65.342682 368.914793 L 65.342682 363.387204 Z  M 66.450791 359.899625 C 66.188513 359.899625 65.975889 359.687013 65.975889 359.424702 C 65.975889 359.162424 66.188513 358.949812 66.450791 358.949812 C 66.713077 358.949812 66.925697 359.162424 66.925697 359.424702 C 66.925697 359.687013 66.713077 359.899625 66.450791 359.899625 Z  M 66.450791 358 C 66.837756 358 67.171943 358.141752 67.453372 358.425291 C 67.7348 358.70883 67.87551 358.99589 67.87551 359.286504 C 67.87551 359.577119 67.836816 359.80747 67.759419 359.977594 C 67.682031 360.147717 67.580016 360.296545 67.453372 360.424146 C 67.171943 360.707685 66.837756 360.849437 66.450791 360.849437 C 66.063835 360.849437 65.729643 360.707685 65.448219 360.424146 C 65.166791 360.140607 65.026081 359.857103 65.026081 359.573564 C 65.026081 359.091565 65.166791 358.70883 65.448219 358.425291 C 65.729643 358.141752 66.063835 358 66.450791 358 Z " fill-rule="evenodd" fill="rgb(10,118,187)"/><path d=" M 76.197 28.1 L 76.197 28.1 Q 75.861 28.1 75.728 27.967 L 75.728 27.967 L 75.728 27.967 Q 75.595 27.834 75.595 27.526 L 75.595 27.526 L 75.595 26.994 L 75.595 26.994 Q 75.595 26.686 75.728 26.546 L 75.728 26.546 L 75.728 26.546 Q 75.861 26.406 76.197 26.406 L 76.197 26.406 L 77.401 26.406 L 77.401 21.044 L 76.407 21.66 L 76.407 21.66 Q 76.337 21.716 76.225 21.716 L 76.225 21.716 L 76.225 21.716 Q 76.085 21.716 76.015 21.59 L 76.015 21.59 L 75.357 20.582 L 75.357 20.582 Q 75.301 20.484 75.301 20.4 L 75.301 20.4 L 75.301 20.4 Q 75.301 20.26 75.455 20.176 L 75.455 20.176 L 77.877 18.72 L 77.877 18.72 Q 78.003 18.636 78.115 18.608 L 78.115 18.608 L 78.115 18.608 Q 78.227 18.58 78.437 18.58 L 78.437 18.58 L 79.095 18.58 L 79.095 18.58 Q 79.431 18.58 79.578 18.734 L 79.578 18.734 L 79.578 18.734 Q 79.725 18.888 79.725 19.196 L 79.725 19.196 L 79.725 26.406 L 80.943 26.406 L 80.943 26.406 Q 81.279 26.406 81.405 26.539 L 81.405 26.539 L 81.405 26.539 Q 81.531 26.672 81.531 26.994 L 81.531 26.994 L 81.531 27.526 L 81.531 27.526 Q 81.531 27.834 81.405 27.967 L 81.405 27.967 L 81.405 27.967 Q 81.279 28.1 80.943 28.1 L 80.943 28.1 L 76.197 28.1 L 76.197 28.1 Z  M 61.879 28.1 L 61.879 28.1 Q 61.543 28.1 61.396 27.953 L 61.396 27.953 L 61.396 27.953 Q 61.249 27.806 61.249 27.498 L 61.249 27.498 L 61.249 19.196 L 61.249 19.196 Q 61.249 18.888 61.396 18.734 L 61.396 18.734 L 61.396 18.734 Q 61.543 18.58 61.879 18.58 L 61.879 18.58 L 62.929 18.58 L 62.929 18.58 Q 63.279 18.58 63.419 18.727 L 63.419 18.727 L 63.419 18.727 Q 63.559 18.874 63.559 19.196 L 63.559 19.196 L 63.559 27.498 L 63.559 27.498 Q 63.559 27.806 63.419 27.953 L 63.419 27.953 L 63.419 27.953 Q 63.279 28.1 62.929 28.1 L 62.929 28.1 L 61.879 28.1 L 61.879 28.1 Z  M 67.239 24.74 L 67.239 24.74 Q 66.931 24.74 66.819 24.607 L 66.819 24.607 L 66.819 24.607 Q 66.707 24.474 66.707 24.194 L 66.707 24.194 L 66.707 23.578 L 66.707 23.578 Q 66.707 23.298 66.819 23.165 L 66.819 23.165 L 66.819 23.165 Q 66.931 23.032 67.239 23.032 L 67.239 23.032 L 71.887 23.032 L 71.887 23.032 Q 72.181 23.032 72.3 23.165 L 72.3 23.165 L 72.3 23.165 Q 72.419 23.298 72.419 23.578 L 72.419 23.578 L 72.419 24.194 L 72.419 24.194 Q 72.419 24.474 72.3 24.607 L 72.3 24.607 L 72.3 24.607 Q 72.181 24.74 71.887 24.74 L 71.887 24.74 L 67.239 24.74 L 67.239 24.74 Z  M 37.659 28.1 L 37.659 28.1 Q 37.323 28.1 37.176 27.953 L 37.176 27.953 L 37.176 27.953 Q 37.029 27.806 37.029 27.498 L 37.029 27.498 L 37.029 19.182 L 37.029 19.182 Q 37.029 18.874 37.176 18.727 L 37.176 18.727 L 37.176 18.727 Q 37.323 18.58 37.673 18.58 L 37.673 18.58 L 38.709 18.58 L 38.709 18.58 Q 38.961 18.58 39.101 18.643 L 39.101 18.643 L 39.101 18.643 Q 39.241 18.706 39.325 18.888 L 39.325 18.888 L 41.747 24.6 L 44.183 18.888 L 44.183 18.888 Q 44.267 18.706 44.407 18.643 L 44.407 18.643 L 44.407 18.643 Q 44.547 18.58 44.799 18.58 L 44.799 18.58 L 45.835 18.58 L 45.835 18.58 Q 46.185 18.58 46.332 18.727 L 46.332 18.727 L 46.332 18.727 Q 46.479 18.874 46.479 19.182 L 46.479 19.182 L 46.479 27.498 L 46.479 27.498 Q 46.479 27.806 46.332 27.953 L 46.332 27.953 L 46.332 27.953 Q 46.185 28.1 45.849 28.1 L 45.849 28.1 L 44.995 28.1 L 44.995 28.1 Q 44.645 28.1 44.498 27.953 L 44.498 27.953 L 44.498 27.953 Q 44.351 27.806 44.351 27.498 L 44.351 27.498 L 44.351 22.206 L 42.475 26.392 L 42.475 26.392 Q 42.335 26.686 42.202 26.805 L 42.202 26.805 L 42.202 26.805 Q 42.069 26.924 41.747 26.924 L 41.747 26.924 L 41.747 26.924 Q 41.439 26.924 41.292 26.805 L 41.292 26.805 L 41.292 26.805 Q 41.145 26.686 41.019 26.392 L 41.019 26.392 L 39.157 22.206 L 39.157 27.498 L 39.157 27.498 Q 39.157 27.806 39.01 27.953 L 39.01 27.953 L 39.01 27.953 Q 38.863 28.1 38.513 28.1 L 38.513 28.1 L 37.659 28.1 L 37.659 28.1 Z  M 48.537 28.1 L 48.537 28.1 Q 48.201 28.1 48.054 27.953 L 48.054 27.953 L 48.054 27.953 Q 47.907 27.806 47.907 27.498 L 47.907 27.498 L 47.907 19.196 L 47.907 19.196 Q 47.907 18.888 48.054 18.734 L 48.054 18.734 L 48.054 18.734 Q 48.201 18.58 48.537 18.58 L 48.537 18.58 L 49.587 18.58 L 49.587 18.58 Q 49.937 18.58 50.077 18.727 L 50.077 18.727 L 50.077 18.727 Q 50.217 18.874 50.217 19.196 L 50.217 19.196 L 50.217 27.498 L 50.217 27.498 Q 50.217 27.806 50.077 27.953 L 50.077 27.953 L 50.077 27.953 Q 49.937 28.1 49.587 28.1 L 49.587 28.1 L 48.537 28.1 L 48.537 28.1 Z  M 52.275 28.1 L 52.275 28.1 Q 51.939 28.1 51.792 27.953 L 51.792 27.953 L 51.792 27.953 Q 51.645 27.806 51.645 27.498 L 51.645 27.498 L 51.645 19.196 L 51.645 19.196 Q 51.645 18.888 51.792 18.734 L 51.792 18.734 L 51.792 18.734 Q 51.939 18.58 52.275 18.58 L 52.275 18.58 L 55.215 18.58 L 55.215 18.58 Q 57.609 18.58 58.855 19.728 L 58.855 19.728 L 58.855 19.728 Q 60.101 20.876 60.101 23.34 L 60.101 23.34 L 60.101 23.34 Q 60.101 25.776 58.841 26.938 L 58.841 26.938 L 58.841 26.938 Q 57.581 28.1 55.215 28.1 L 55.215 28.1 L 52.275 28.1 L 52.275 28.1 Z  M 53.955 26.406 L 55.327 26.406 L 55.327 26.406 Q 56.573 26.406 57.189 25.713 L 57.189 25.713 L 57.189 25.713 Q 57.805 25.02 57.805 23.34 L 57.805 23.34 L 57.805 23.34 Q 57.805 21.66 57.189 20.974 L 57.189 20.974 L 57.189 20.974 Q 56.573 20.288 55.327 20.288 L 55.327 20.288 L 53.955 20.288 L 53.955 26.406 L 53.955 26.406 Z " fill-rule="evenodd" fill="rgb(0,0,0)"/><g id="stripes"><path d=" M -180 305 L 120 20 L 120 40 L -180 325 L -180 305 Z " fill="rgb(116,127,134)" fill-opacity="0.05"/><path d=" M -180 345 L 120 60 L 120 80 L -180 365 L -180 345 Z " fill="rgb(116,127,134)" fill-opacity="0.05"/><path d=" M -180 385 L 120 100 L 120 120 L -180 405 L -180 385 Z " fill="rgb(116,127,134)" fill-opacity="0.05"/></g></g><path d=" M 10 170.25 L 14 160.75 L 21.5 161.25 L 25 164.75 L 36.5 162.75 L 38 169.75 L 40.5 182.25 L 37 187.75 L 38 201.25 L 34 204.25 L 27.5 204.75 L 23.5 202.25 L 11.5 202.75 L 11.5 196.75 L 10 183.25 L 12.5 182.75 L 10 170.25 Z " fill="rgb(23,34,41)"/><path d=" M 82 165.25 L 89 162.25 L 94 163.75 L 104.5 161.75 L 105.5 168.25 L 109.5 178.75 L 108.5 188.75 L 110 196.25 L 106 199.25 L 107 206.25 L 99.5 205.75 L 97 200.75 L 90 205.25 L 81 199.75 L 81.5 193.75 L 78 186.25 L 81 177.75 L 82 165.25 Z " fill="rgb(23,34,41)"/><path d=" M 11 216.25 L 15.5 210.75 L 27.5 209.25 L 30 209.75 L 33.5 213.75 L 40.5 211.75 L 38.5 225.75 L 41.5 235.25 L 39 237.75 L 38.5 244.25 L 38.5 250.75 L 30.5 254.75 L 25.5 248.75 L 19.5 253.25 L 15 248.25 L 9.5 239.75 L 12.5 229.25 L 11 216.25 Z " fill="rgb(23,34,41)"/><path d=" M 46 167.75 L 51.5 161.25 L 60.5 165.25 L 65.5 162.75 L 71.5 164.25 L 75.5 172.25 L 75 179.25 L 74.5 188.25 L 70.5 192.25 L 74 200.25 L 66 204.75 L 55 205.75 L 55 201.75 L 44 197.25 L 45 183.75 L 46 167.75 Z " fill="rgb(23,34,41)"/><path d=" M 51 210.25 L 56 208.25 L 60.5 210.75 L 70 213.25 L 75.5 224.75 L 76 237.75 L 71.5 241.25 L 67 251.25 L 60.5 253.25 L 53 249.25 L 45.5 245.75 L 44 237.25 L 44 218.75 L 51 210.25 Z " fill="rgb(23,34,41)"/><path d=" M 11.375 264.375 L 15.375 258.875 L 25.375 257.375 L 29.125 260.625 L 35.875 262.625 L 40.375 259.875 L 40.625 273.375 L 37.125 274.375 L 37.125 283.875 L 42.625 292.625 L 38.625 297.375 L 33.125 301.125 L 23.625 296.625 L 13.875 300.625 L 10.625 291.625 L 11.875 280.875 L 10.375 273.875 L 11.375 264.375 Z " fill="rgb(23,34,41)"/><path d=" M 46.375 261.125 L 52.375 258.625 L 58.375 259.375 L 66.125 257.875 L 70.125 262.625 L 76.125 263.625 L 74.375 271.375 L 74.875 286.375 L 71.875 286.875 L 71.625 297.125 L 72.375 301.375 L 66.625 300.875 L 62.375 298.125 L 55.125 301.375 L 50.375 299.375 L 46.625 301.125 L 48.625 289.375 L 44.625 284.875 L 48.625 275.125 L 46.375 261.125 Z " fill="rgb(23,34,41)"/><path d=" M 84.125 260.625 L 87.125 258.125 L 92.125 257.375 L 97.875 260.875 L 103.875 257.125 L 107.375 260.125 L 108.125 268.625 L 107.875 277.125 L 107.375 282.125 L 109.375 290.375 L 107.125 293.125 L 107.375 301.625 L 100.625 299.875 L 96.125 298.125 L 91.875 301.875 L 88.625 298.625 L 78.625 300.125 L 80.625 291.125 L 79.625 276.875 L 81.625 274.625 L 78.875 267.125 L 80.625 262.875 L 84.125 260.625 Z " fill="rgb(23,34,41)"/><path d=" M 12.25 307.5 L 16 304.75 L 20.25 306.75 L 23.5 304.75 L 29 306.5 L 36 307.5 L 40.75 312 L 38.75 320.75 L 39.5 329 L 36.25 332.25 L 38.75 341 L 40.25 349.5 L 34.5 346.75 L 26.25 345.75 L 23 349.25 L 21 346 L 14.25 348 L 13.25 343.75 L 9 340.75 L 13.25 335.25 L 10 326 L 13.5 321.75 L 10.25 316.25 L 12.25 310 L 12.25 307.5 Z " fill="rgb(23,34,41)"/><path d=" M 51.25 306 L 55.25 304 L 56.5 305.5 L 64.5 306.5 L 71.25 307.75 L 74.75 316.5 L 72 320.5 L 75 327.75 L 73.25 336.25 L 74.25 348 L 70.75 347.75 L 62.5 344.5 L 59 346.5 L 52.75 349.75 L 49 343.75 L 44.25 343.5 L 46.5 338.25 L 44.75 330.75 L 48.5 325 L 45 319 L 45.5 315.5 L 44.25 308.5 L 47.5 306.25 L 51.25 306 Z " fill="rgb(23,34,41)"/><path d=" M 87.5 305.5 L 91.25 305.5 L 100.5 302.75 L 102.5 306.25 L 111.5 310.5 L 107 318.5 L 107.5 328.5 L 106 330 L 107.25 334.25 L 110.5 344.5 L 106.5 344.5 L 102.25 350.25 L 98.75 347 L 91.75 345.25 L 86.25 348.25 L 82.5 347.75 L 80.5 339 L 82.5 335.5 L 78.25 330.25 L 81.5 323.5 L 78 315.5 L 80.5 313.5 L 82 306.75 L 87.5 305.5 Z " fill="rgb(23,34,41)"/><path d=" M 20.178 314.400139 L 20.178 314.400139 Q 20.076 314.400139 20.076 314.310139 L 20.076 314.310139 L 20.076 314.310139 Q 20.076 314.274139 20.094 314.232139 L 20.094 314.232139 L 21.678 310.476139 L 21.678 310.476139 Q 21.714 310.386139 21.756 310.353139 L 21.756 310.353139 L 21.756 310.353139 Q 21.798 310.320139 21.876 310.320139 L 21.876 310.320139 L 22.206 310.320139 L 22.206 310.320139 Q 22.29 310.320139 22.329 310.353139 L 22.329 310.353139 L 22.329 310.353139 Q 22.368 310.386139 22.404 310.476139 L 22.404 310.476139 L 23.988 314.232139 L 23.988 314.232139 Q 24.006 314.274139 24.006 314.310139 L 24.006 314.310139 L 24.006 314.310139 Q 24.006 314.400139 23.904 314.400139 L 23.904 314.400139 L 23.382 314.400139 L 23.382 314.400139 Q 23.304 314.400139 23.271 314.379139 L 23.271 314.379139 L 23.271 314.379139 Q 23.238 314.358139 23.208 314.292139 L 23.208 314.292139 L 22.866 313.452139 L 21.21 313.452139 L 20.874 314.292139 L 20.874 314.292139 Q 20.844 314.358139 20.811 314.379139 L 20.811 314.379139 L 20.811 314.379139 Q 20.778 314.400139 20.7 314.400139 L 20.7 314.400139 L 20.178 314.400139 L 20.178 314.400139 Z  M 21.402 312.894139 L 22.674 312.894139 L 22.038 311.322139 L 21.402 312.894139 L 21.402 312.894139 Z  M 24.816 314.400139 L 24.816 314.400139 Q 24.696 314.400139 24.645 314.346139 L 24.645 314.346139 L 24.645 314.346139 Q 24.594 314.292139 24.594 314.184139 L 24.594 314.184139 L 24.594 310.542139 L 24.594 310.542139 Q 24.594 310.428139 24.645 310.374139 L 24.645 310.374139 L 24.645 310.374139 Q 24.696 310.320139 24.816 310.320139 L 24.816 310.320139 L 27.312 310.320139 L 27.312 310.320139 Q 27.432 310.320139 27.477 310.368139 L 27.477 310.368139 L 27.477 310.368139 Q 27.522 310.416139 27.522 310.530139 L 27.522 310.530139 L 27.522 310.692139 L 27.522 310.692139 Q 27.522 310.806139 27.477 310.857139 L 27.477 310.857139 L 27.477 310.857139 Q 27.432 310.908139 27.312 310.908139 L 27.312 310.908139 L 25.362 310.908139 L 25.362 312.066139 L 26.778 312.066139 L 26.778 312.066139 Q 26.898 312.066139 26.946 312.114139 L 26.946 312.114139 L 26.946 312.114139 Q 26.994 312.162139 26.994 312.276139 L 26.994 312.276139 L 26.994 312.438139 L 26.994 312.438139 Q 26.994 312.552139 26.946 312.603139 L 26.946 312.603139 L 26.946 312.603139 Q 26.898 312.654139 26.778 312.654139 L 26.778 312.654139 L 25.362 312.654139 L 25.362 314.184139 L 25.362 314.184139 Q 25.362 314.292139 25.311 314.346139 L 25.311 314.346139 L 25.311 314.346139 Q 25.26 314.400139 25.134 314.400139 L 25.134 314.400139 L 24.816 314.400139 L 24.816 314.400139 Z  M 29.238 314.400139 L 29.238 314.400139 Q 29.118 314.400139 29.064 314.346139 L 29.064 314.346139 L 29.064 314.346139 Q 29.01 314.292139 29.01 314.184139 L 29.01 314.184139 L 29.01 310.908139 L 27.96 310.908139 L 27.96 310.908139 Q 27.84 310.908139 27.795 310.860139 L 27.795 310.860139 L 27.795 310.860139 Q 27.75 310.812139 27.75 310.698139 L 27.75 310.698139 L 27.75 310.536139 L 27.75 310.536139 Q 27.75 310.422139 27.795 310.371139 L 27.795 310.371139 L 27.795 310.371139 Q 27.84 310.320139 27.96 310.320139 L 27.96 310.320139 L 30.828 310.320139 L 30.828 310.320139 Q 30.948 310.320139 30.996 310.371139 L 30.996 310.371139 L 30.996 310.371139 Q 31.044 310.422139 31.044 310.536139 L 31.044 310.536139 L 31.044 310.698139 L 31.044 310.698139 Q 31.044 310.812139 30.996 310.860139 L 30.996 310.860139 L 30.996 310.860139 Q 30.948 310.908139 30.828 310.908139 L 30.828 310.908139 L 29.778 310.908139 L 29.778 314.184139 L 29.778 314.184139 Q 29.778 314.292139 29.727 314.346139 L 29.727 314.346139 L 29.727 314.346139 Q 29.676 314.400139 29.55 314.400139 L 29.55 314.400139 L 29.238 314.400139 L 29.238 314.400139 Z " fill-rule="evenodd" fill="rgb(255,255,255)"/><path d=" M 53.948 314.490139 L 53.948 314.490139 Q 52.928 314.490139 52.37 313.938139 L 52.37 313.938139 L 52.37 313.938139 Q 51.812 313.386139 51.812 312.360139 L 51.812 312.360139 L 51.812 312.360139 Q 51.812 311.334139 52.361 310.782139 L 52.361 310.782139 L 52.361 310.782139 Q 52.91 310.230139 53.93 310.230139 L 53.93 310.230139 L 53.93 310.230139 Q 54.338 310.230139 54.686 310.314139 L 54.686 310.314139 L 54.686 310.314139 Q 55.034 310.398139 55.274 310.554139 L 55.274 310.554139 L 55.274 310.554139 Q 55.328 310.590139 55.328 310.632139 L 55.328 310.632139 L 55.328 310.632139 Q 55.328 310.668139 55.298 310.716139 L 55.298 310.716139 L 55.13 311.004139 L 55.13 311.004139 Q 55.094 311.058139 55.064 311.058139 L 55.064 311.058139 L 55.064 311.058139 Q 55.04 311.058139 54.98 311.028139 L 54.98 311.028139 L 54.98 311.028139 Q 54.602 310.800139 54.014 310.800139 L 54.014 310.800139 L 54.014 310.800139 Q 53.336 310.800139 52.952 311.190139 L 52.952 311.190139 L 52.952 311.190139 Q 52.568 311.580139 52.568 312.360139 L 52.568 312.360139 L 52.568 312.360139 Q 52.568 313.152139 52.964 313.539139 L 52.964 313.539139 L 52.964 313.539139 Q 53.36 313.926139 54.032 313.926139 L 54.032 313.926139 L 54.032 313.926139 Q 54.656 313.926139 55.058 313.692139 L 55.058 313.692139 L 55.058 313.692139 Q 55.118 313.662139 55.136 313.662139 L 55.136 313.662139 L 55.136 313.662139 Q 55.172 313.662139 55.208 313.716139 L 55.208 313.716139 L 55.394 314.028139 L 55.394 314.028139 Q 55.412 314.064139 55.412 314.088139 L 55.412 314.088139 L 55.412 314.088139 Q 55.412 314.124139 55.346 314.166139 L 55.346 314.166139 L 55.346 314.166139 Q 54.884 314.490139 53.948 314.490139 L 53.948 314.490139 L 53.948 314.490139 Z  M 57.926 314.490139 L 57.926 314.490139 Q 56.936 314.490139 56.405 313.932139 L 56.405 313.932139 L 56.405 313.932139 Q 55.874 313.374139 55.874 312.360139 L 55.874 312.360139 L 55.874 312.360139 Q 55.874 311.346139 56.405 310.788139 L 56.405 310.788139 L 56.405 310.788139 Q 56.936 310.230139 57.926 310.230139 L 57.926 310.230139 L 57.926 310.230139 Q 58.91 310.230139 59.444 310.788139 L 59.444 310.788139 L 59.444 310.788139 Q 59.978 311.346139 59.978 312.360139 L 59.978 312.360139 L 59.978 312.360139 Q 59.978 313.374139 59.444 313.932139 L 59.444 313.932139 L 59.444 313.932139 Q 58.91 314.490139 57.926 314.490139 L 57.926 314.490139 L 57.926 314.490139 Z  M 57.926 313.926139 L 57.926 313.926139 Q 58.556 313.926139 58.886 313.527139 L 58.886 313.527139 L 58.886 313.527139 Q 59.216 313.128139 59.216 312.360139 L 59.216 312.360139 L 59.216 312.360139 Q 59.216 311.592139 58.886 311.196139 L 58.886 311.196139 L 58.886 311.196139 Q 58.556 310.800139 57.926 310.800139 L 57.926 310.800139 L 57.926 310.800139 Q 57.296 310.800139 56.963 311.196139 L 56.963 311.196139 L 56.963 311.196139 Q 56.63 311.592139 56.63 312.360139 L 56.63 312.360139 L 56.63 312.360139 Q 56.63 313.128139 56.963 313.527139 L 56.963 313.527139 L 56.963 313.527139 Q 57.296 313.926139 57.926 313.926139 L 57.926 313.926139 L 57.926 313.926139 Z  M 60.788 314.400139 L 60.788 314.400139 Q 60.668 314.400139 60.617 314.346139 L 60.617 314.346139 L 60.617 314.346139 Q 60.566 314.292139 60.566 314.184139 L 60.566 314.184139 L 60.566 310.542139 L 60.566 310.542139 Q 60.566 310.428139 60.617 310.374139 L 60.617 310.374139 L 60.617 310.374139 Q 60.668 310.320139 60.794 310.320139 L 60.794 310.320139 L 61.07 310.320139 L 61.07 310.320139 Q 61.154 310.320139 61.202 310.344139 L 61.202 310.344139 L 61.202 310.344139 Q 61.25 310.368139 61.298 310.440139 L 61.298 310.440139 L 63.278 313.188139 L 63.278 310.542139 L 63.278 310.542139 Q 63.278 310.428139 63.329 310.374139 L 63.329 310.374139 L 63.329 310.374139 Q 63.38 310.320139 63.5 310.320139 L 63.5 310.320139 L 63.818 310.320139 L 63.818 310.320139 Q 63.938 310.320139 63.992 310.374139 L 63.992 310.374139 L 63.992 310.374139 Q 64.046 310.428139 64.046 310.542139 L 64.046 310.542139 L 64.046 314.184139 L 64.046 314.184139 Q 64.046 314.292139 63.995 314.346139 L 63.995 314.346139 L 63.995 314.346139 Q 63.944 314.400139 63.818 314.400139 L 63.818 314.400139 L 63.536 314.400139 L 63.536 314.400139 Q 63.452 314.400139 63.41 314.379139 L 63.41 314.379139 L 63.41 314.379139 Q 63.368 314.358139 63.314 314.286139 L 63.314 314.286139 L 61.334 311.544139 L 61.334 314.184139 L 61.334 314.184139 Q 61.334 314.292139 61.283 314.346139 L 61.283 314.346139 L 61.283 314.346139 Q 61.232 314.400139 61.106 314.400139 L 61.106 314.400139 L 60.788 314.400139 L 60.788 314.400139 Z  M 66.002 314.400139 L 66.002 314.400139 Q 65.882 314.400139 65.828 314.346139 L 65.828 314.346139 L 65.828 314.346139 Q 65.774 314.292139 65.774 314.184139 L 65.774 314.184139 L 65.774 310.908139 L 64.724 310.908139 L 64.724 310.908139 Q 64.604 310.908139 64.559 310.860139 L 64.559 310.860139 L 64.559 310.860139 Q 64.514 310.812139 64.514 310.698139 L 64.514 310.698139 L 64.514 310.536139 L 64.514 310.536139 Q 64.514 310.422139 64.559 310.371139 L 64.559 310.371139 L 64.559 310.371139 Q 64.604 310.320139 64.724 310.320139 L 64.724 310.320139 L 67.592 310.320139 L 67.592 310.320139 Q 67.712 310.320139 67.76 310.371139 L 67.76 310.371139 L 67.76 310.371139 Q 67.808 310.422139 67.808 310.536139 L 67.808 310.536139 L 67.808 310.698139 L 67.808 310.698139 Q 67.808 310.812139 67.76 310.860139 L 67.76 310.860139 L 67.76 310.860139 Q 67.712 310.908139 67.592 310.908139 L 67.592 310.908139 L 66.542 310.908139 L 66.542 314.184139 L 66.542 314.184139 Q 66.542 314.292139 66.491 314.346139 L 66.491 314.346139 L 66.491 314.346139 Q 66.44 314.400139 66.314 314.400139 L 66.314 314.400139 L 66.002 314.400139 L 66.002 314.400139 Z " fill-rule="evenodd" fill="rgb(255,255,255)"/><path d=" M 99.841 314.400139 L 99.841 314.400139 Q 99.643 314.400139 99.643 314.196139 L 99.643 314.196139 L 99.643 313.962139 L 99.643 313.962139 Q 99.643 313.578139 99.94 313.206139 L 99.94 313.206139 L 99.94 313.206139 Q 100.237 312.834139 100.831 312.498139 L 100.831 312.498139 L 100.831 312.498139 Q 101.257 312.258139 101.455 312.117139 L 101.455 312.117139 L 101.455 312.117139 Q 101.653 311.976139 101.746 311.817139 L 101.746 311.817139 L 101.746 311.817139 Q 101.839 311.658139 101.839 311.424139 L 101.839 311.424139 L 101.839 311.424139 Q 101.839 311.118139 101.623 310.959139 L 101.623 310.959139 L 101.623 310.959139 Q 101.407 310.800139 101.017 310.800139 L 101.017 310.800139 L 101.017 310.800139 Q 100.735 310.800139 100.486 310.869139 L 100.486 310.869139 L 100.486 310.869139 Q 100.237 310.938139 100.057 311.040139 L 100.057 311.040139 L 100.057 311.040139 Q 99.997 311.070139 99.979 311.070139 L 99.979 311.070139 L 99.979 311.070139 Q 99.943 311.070139 99.907 311.016139 L 99.907 311.016139 L 99.739 310.722139 L 99.739 310.722139 Q 99.709 310.674139 99.709 310.638139 L 99.709 310.638139 L 99.709 310.638139 Q 99.709 310.590139 99.763 310.554139 L 99.763 310.554139 L 99.763 310.554139 Q 99.973 310.404139 100.333 310.317139 L 100.333 310.317139 L 100.333 310.317139 Q 100.693 310.230139 101.119 310.230139 L 101.119 310.230139 L 101.119 310.230139 Q 101.785 310.230139 102.193 310.533139 L 102.193 310.533139 L 102.193 310.533139 Q 102.601 310.836139 102.601 311.388139 L 102.601 311.388139 L 102.601 311.388139 Q 102.601 311.850139 102.316 312.168139 L 102.316 312.168139 L 102.316 312.168139 Q 102.031 312.486139 101.419 312.822139 L 101.419 312.822139 L 101.419 312.822139 Q 100.969 313.056139 100.705 313.314139 L 100.705 313.314139 L 100.705 313.314139 Q 100.441 313.572139 100.423 313.818139 L 100.423 313.818139 L 102.367 313.818139 L 102.367 313.818139 Q 102.487 313.818139 102.535 313.869139 L 102.535 313.869139 L 102.535 313.869139 Q 102.583 313.920139 102.583 314.034139 L 102.583 314.034139 L 102.583 314.196139 L 102.583 314.196139 Q 102.583 314.304139 102.535 314.352139 L 102.535 314.352139 L 102.535 314.352139 Q 102.487 314.400139 102.367 314.400139 L 102.367 314.400139 L 99.841 314.400139 L 99.841 314.400139 Z  M 88.273 314.490139 L 88.273 314.490139 Q 87.253 314.490139 86.695 313.938139 L 86.695 313.938139 L 86.695 313.938139 Q 86.137 313.386139 86.137 312.360139 L 86.137 312.360139 L 86.137 312.360139 Q 86.137 311.334139 86.686 310.782139 L 86.686 310.782139 L 86.686 310.782139 Q 87.235 310.230139 88.255 310.230139 L 88.255 310.230139 L 88.255 310.230139 Q 88.663 310.230139 89.011 310.314139 L 89.011 310.314139 L 89.011 310.314139 Q 89.359 310.398139 89.599 310.554139 L 89.599 310.554139 L 89.599 310.554139 Q 89.653 310.590139 89.653 310.632139 L 89.653 310.632139 L 89.653 310.632139 Q 89.653 310.668139 89.623 310.716139 L 89.623 310.716139 L 89.455 311.004139 L 89.455 311.004139 Q 89.419 311.058139 89.389 311.058139 L 89.389 311.058139 L 89.389 311.058139 Q 89.365 311.058139 89.305 311.028139 L 89.305 311.028139 L 89.305 311.028139 Q 88.927 310.800139 88.339 310.800139 L 88.339 310.800139 L 88.339 310.800139 Q 87.661 310.800139 87.277 311.190139 L 87.277 311.190139 L 87.277 311.190139 Q 86.893 311.580139 86.893 312.360139 L 86.893 312.360139 L 86.893 312.360139 Q 86.893 313.152139 87.289 313.539139 L 87.289 313.539139 L 87.289 313.539139 Q 87.685 313.926139 88.357 313.926139 L 88.357 313.926139 L 88.357 313.926139 Q 88.981 313.926139 89.383 313.692139 L 89.383 313.692139 L 89.383 313.692139 Q 89.443 313.662139 89.461 313.662139 L 89.461 313.662139 L 89.461 313.662139 Q 89.497 313.662139 89.533 313.716139 L 89.533 313.716139 L 89.719 314.028139 L 89.719 314.028139 Q 89.737 314.064139 89.737 314.088139 L 89.737 314.088139 L 89.737 314.088139 Q 89.737 314.124139 89.671 314.166139 L 89.671 314.166139 L 89.671 314.166139 Q 89.209 314.490139 88.273 314.490139 L 88.273 314.490139 L 88.273 314.490139 Z  M 90.541 314.400139 L 90.541 314.400139 Q 90.421 314.400139 90.37 314.346139 L 90.37 314.346139 L 90.37 314.346139 Q 90.319 314.292139 90.319 314.184139 L 90.319 314.184139 L 90.319 310.542139 L 90.319 310.542139 Q 90.319 310.428139 90.37 310.374139 L 90.37 310.374139 L 90.37 310.374139 Q 90.421 310.320139 90.541 310.320139 L 90.541 310.320139 L 90.859 310.320139 L 90.859 310.320139 Q 90.979 310.320139 91.033 310.374139 L 91.033 310.374139 L 91.033 310.374139 Q 91.087 310.428139 91.087 310.542139 L 91.087 310.542139 L 91.087 313.818139 L 92.923 313.818139 L 92.923 313.818139 Q 93.043 313.818139 93.091 313.869139 L 93.091 313.869139 L 93.091 313.869139 Q 93.139 313.920139 93.139 314.034139 L 93.139 314.034139 L 93.139 314.196139 L 93.139 314.196139 Q 93.139 314.304139 93.091 314.352139 L 93.091 314.352139 L 93.091 314.352139 Q 93.043 314.400139 92.923 314.400139 L 92.923 314.400139 L 90.541 314.400139 L 90.541 314.400139 Z  M 93.829 314.400139 L 93.829 314.400139 Q 93.709 314.400139 93.658 314.346139 L 93.658 314.346139 L 93.658 314.346139 Q 93.607 314.292139 93.607 314.184139 L 93.607 314.184139 L 93.607 310.542139 L 93.607 310.542139 Q 93.607 310.428139 93.658 310.374139 L 93.658 310.374139 L 93.658 310.374139 Q 93.709 310.320139 93.829 310.320139 L 93.829 310.320139 L 94.147 310.320139 L 94.147 310.320139 Q 94.267 310.320139 94.321 310.374139 L 94.321 310.374139 L 94.321 310.374139 Q 94.375 310.428139 94.375 310.542139 L 94.375 310.542139 L 94.375 314.184139 L 94.375 314.184139 Q 94.375 314.292139 94.324 314.346139 L 94.324 314.346139 L 94.324 314.346139 Q 94.273 314.400139 94.147 314.400139 L 94.147 314.400139 L 93.829 314.400139 L 93.829 314.400139 Z  M 96.175 314.400139 L 96.175 314.400139 Q 96.109 314.400139 96.076 314.388139 L 96.076 314.388139 L 96.076 314.388139 Q 96.043 314.376139 96.007 314.334139 L 96.007 314.334139 L 94.561 312.594139 L 94.561 312.594139 Q 94.507 312.528139 94.483 312.480139 L 94.483 312.480139 L 94.483 312.480139 Q 94.459 312.432139 94.459 312.354139 L 94.459 312.354139 L 94.459 312.354139 Q 94.459 312.276139 94.48 312.234139 L 94.48 312.234139 L 94.48 312.234139 Q 94.501 312.192139 94.561 312.114139 L 94.561 312.114139 L 95.971 310.392139 L 95.971 310.392139 Q 96.007 310.344139 96.043 310.332139 L 96.043 310.332139 L 96.043 310.332139 Q 96.079 310.320139 96.157 310.320139 L 96.157 310.320139 L 96.709 310.320139 L 96.709 310.320139 Q 96.751 310.320139 96.775 310.344139 L 96.775 310.344139 L 96.775 310.344139 Q 96.799 310.368139 96.799 310.404139 L 96.799 310.404139 L 96.799 310.404139 Q 96.799 310.452139 96.763 310.488139 L 96.763 310.488139 L 95.209 312.354139 L 96.799 314.232139 L 96.799 314.232139 Q 96.835 314.268139 96.835 314.316139 L 96.835 314.316139 L 96.835 314.316139 Q 96.835 314.352139 96.811 314.376139 L 96.811 314.376139 L 96.811 314.376139 Q 96.787 314.400139 96.745 314.400139 L 96.745 314.400139 L 96.175 314.400139 L 96.175 314.400139 Z " fill-rule="evenodd" fill="rgb(255,255,255)"/><path d=" M 100.261 267.400139 L 100.261 267.400139 Q 100.141 267.400139 100.093 267.355139 L 100.093 267.355139 L 100.093 267.355139 Q 100.045 267.310139 100.045 267.202139 L 100.045 267.202139 L 100.045 267.028139 L 100.045 267.028139 Q 100.045 266.914139 100.093 266.866139 L 100.093 266.866139 L 100.093 266.866139 Q 100.141 266.818139 100.261 266.818139 L 100.261 266.818139 L 100.849 266.818139 L 100.849 264.160139 L 100.333 264.472139 L 100.333 264.472139 Q 100.285 264.502139 100.249 264.502139 L 100.249 264.502139 L 100.249 264.502139 Q 100.195 264.502139 100.159 264.442139 L 100.159 264.442139 L 99.967 264.142139 L 99.967 264.142139 Q 99.943 264.100139 99.943 264.064139 L 99.943 264.064139 L 99.943 264.064139 Q 99.943 264.004139 100.009 263.968139 L 100.009 263.968139 L 100.999 263.374139 L 100.999 263.374139 Q 101.041 263.344139 101.083 263.332139 L 101.083 263.332139 L 101.083 263.332139 Q 101.125 263.320139 101.197 263.320139 L 101.197 263.320139 L 101.395 263.320139 L 101.395 263.320139 Q 101.623 263.320139 101.623 263.542139 L 101.623 263.542139 L 101.623 266.818139 L 102.211 266.818139 L 102.211 266.818139 Q 102.331 266.818139 102.379 266.866139 L 102.379 266.866139 L 102.379 266.866139 Q 102.427 266.914139 102.427 267.028139 L 102.427 267.028139 L 102.427 267.202139 L 102.427 267.202139 Q 102.427 267.310139 102.379 267.355139 L 102.379 267.355139 L 102.379 267.355139 Q 102.331 267.400139 102.211 267.400139 L 102.211 267.400139 L 100.261 267.400139 L 100.261 267.400139 Z  M 88.579 267.490139 L 88.579 267.490139 Q 87.559 267.490139 87.001 266.938139 L 87.001 266.938139 L 87.001 266.938139 Q 86.443 266.386139 86.443 265.360139 L 86.443 265.360139 L 86.443 265.360139 Q 86.443 264.334139 86.992 263.782139 L 86.992 263.782139 L 86.992 263.782139 Q 87.541 263.230139 88.561 263.230139 L 88.561 263.230139 L 88.561 263.230139 Q 88.969 263.230139 89.317 263.314139 L 89.317 263.314139 L 89.317 263.314139 Q 89.665 263.398139 89.905 263.554139 L 89.905 263.554139 L 89.905 263.554139 Q 89.959 263.590139 89.959 263.632139 L 89.959 263.632139 L 89.959 263.632139 Q 89.959 263.668139 89.929 263.716139 L 89.929 263.716139 L 89.761 264.004139 L 89.761 264.004139 Q 89.725 264.058139 89.695 264.058139 L 89.695 264.058139 L 89.695 264.058139 Q 89.671 264.058139 89.611 264.028139 L 89.611 264.028139 L 89.611 264.028139 Q 89.233 263.800139 88.645 263.800139 L 88.645 263.800139 L 88.645 263.800139 Q 87.967 263.800139 87.583 264.190139 L 87.583 264.190139 L 87.583 264.190139 Q 87.199 264.580139 87.199 265.360139 L 87.199 265.360139 L 87.199 265.360139 Q 87.199 266.152139 87.595 266.539139 L 87.595 266.539139 L 87.595 266.539139 Q 87.991 266.926139 88.663 266.926139 L 88.663 266.926139 L 88.663 266.926139 Q 89.287 266.926139 89.689 266.692139 L 89.689 266.692139 L 89.689 266.692139 Q 89.749 266.662139 89.767 266.662139 L 89.767 266.662139 L 89.767 266.662139 Q 89.803 266.662139 89.839 266.716139 L 89.839 266.716139 L 90.025 267.028139 L 90.025 267.028139 Q 90.043 267.064139 90.043 267.088139 L 90.043 267.088139 L 90.043 267.088139 Q 90.043 267.124139 89.977 267.166139 L 89.977 267.166139 L 89.977 267.166139 Q 89.515 267.490139 88.579 267.490139 L 88.579 267.490139 L 88.579 267.490139 Z  M 90.847 267.400139 L 90.847 267.400139 Q 90.727 267.400139 90.676 267.346139 L 90.676 267.346139 L 90.676 267.346139 Q 90.625 267.292139 90.625 267.184139 L 90.625 267.184139 L 90.625 263.542139 L 90.625 263.542139 Q 90.625 263.428139 90.676 263.374139 L 90.676 263.374139 L 90.676 263.374139 Q 90.727 263.320139 90.847 263.320139 L 90.847 263.320139 L 91.165 263.320139 L 91.165 263.320139 Q 91.285 263.320139 91.339 263.374139 L 91.339 263.374139 L 91.339 263.374139 Q 91.393 263.428139 91.393 263.542139 L 91.393 263.542139 L 91.393 266.818139 L 93.229 266.818139 L 93.229 266.818139 Q 93.349 266.818139 93.397 266.869139 L 93.397 266.869139 L 93.397 266.869139 Q 93.445 266.920139 93.445 267.034139 L 93.445 267.034139 L 93.445 267.196139 L 93.445 267.196139 Q 93.445 267.304139 93.397 267.352139 L 93.397 267.352139 L 93.397 267.352139 Q 93.349 267.400139 93.229 267.400139 L 93.229 267.400139 L 90.847 267.400139 L 90.847 267.400139 Z  M 94.135 267.400139 L 94.135 267.400139 Q 94.015 267.400139 93.964 267.346139 L 93.964 267.346139 L 93.964 267.346139 Q 93.913 267.292139 93.913 267.184139 L 93.913 267.184139 L 93.913 263.542139 L 93.913 263.542139 Q 93.913 263.428139 93.964 263.374139 L 93.964 263.374139 L 93.964 263.374139 Q 94.015 263.320139 94.135 263.320139 L 94.135 263.320139 L 94.453 263.320139 L 94.453 263.320139 Q 94.573 263.320139 94.627 263.374139 L 94.627 263.374139 L 94.627 263.374139 Q 94.681 263.428139 94.681 263.542139 L 94.681 263.542139 L 94.681 267.184139 L 94.681 267.184139 Q 94.681 267.292139 94.63 267.346139 L 94.63 267.346139 L 94.63 267.346139 Q 94.579 267.400139 94.453 267.400139 L 94.453 267.400139 L 94.135 267.400139 L 94.135 267.400139 Z  M 96.481 267.400139 L 96.481 267.400139 Q 96.415 267.400139 96.382 267.388139 L 96.382 267.388139 L 96.382 267.388139 Q 96.349 267.376139 96.313 267.334139 L 96.313 267.334139 L 94.867 265.594139 L 94.867 265.594139 Q 94.813 265.528139 94.789 265.480139 L 94.789 265.480139 L 94.789 265.480139 Q 94.765 265.432139 94.765 265.354139 L 94.765 265.354139 L 94.765 265.354139 Q 94.765 265.276139 94.786 265.234139 L 94.786 265.234139 L 94.786 265.234139 Q 94.807 265.192139 94.867 265.114139 L 94.867 265.114139 L 96.277 263.392139 L 96.277 263.392139 Q 96.313 263.344139 96.349 263.332139 L 96.349 263.332139 L 96.349 263.332139 Q 96.385 263.320139 96.463 263.320139 L 96.463 263.320139 L 97.015 263.320139 L 97.015 263.320139 Q 97.057 263.320139 97.081 263.344139 L 97.081 263.344139 L 97.081 263.344139 Q 97.105 263.368139 97.105 263.404139 L 97.105 263.404139 L 97.105 263.404139 Q 97.105 263.452139 97.069 263.488139 L 97.069 263.488139 L 95.515 265.354139 L 97.105 267.232139 L 97.105 267.232139 Q 97.141 267.268139 97.141 267.316139 L 97.141 267.316139 L 97.141 267.316139 Q 97.141 267.352139 97.117 267.376139 L 97.117 267.376139 L 97.117 267.376139 Q 97.093 267.400139 97.051 267.400139 L 97.051 267.400139 L 96.481 267.400139 L 96.481 267.400139 Z " fill-rule="evenodd" fill="rgb(255,255,255)"/><path d=" M 83.125 212.5 L 87.375 209 L 90.875 212.75 L 101.375 214 L 106.625 211.25 L 109.375 222.25 L 105.625 228.75 L 107.625 244.25 L 103.625 246.75 L 106.875 252.25 L 95.875 252.5 L 93.125 245.5 L 83.875 252 L 82.375 242.5 L 80.125 232 L 79.125 226.25 L 82.125 222.25 L 79.625 214 L 83.125 212.5 Z " fill="rgb(23,34,41)"/><path d=" M 53.909 267.490139 L 53.909 267.490139 Q 53.483 267.490139 53.072 267.397139 L 53.072 267.397139 L 53.072 267.397139 Q 52.661 267.304139 52.415 267.136139 L 52.415 267.136139 L 52.415 267.136139 Q 52.337 267.082139 52.337 267.040139 L 52.337 267.040139 L 52.337 267.040139 Q 52.337 266.998139 52.361 266.968139 L 52.361 266.968139 L 52.559 266.656139 L 52.559 266.656139 Q 52.595 266.602139 52.625 266.602139 L 52.625 266.602139 L 52.625 266.602139 Q 52.655 266.602139 52.703 266.632139 L 52.703 266.632139 L 52.703 266.632139 Q 52.925 266.764139 53.219 266.845139 L 53.219 266.845139 L 53.219 266.845139 Q 53.513 266.926139 53.813 266.926139 L 53.813 266.926139 L 53.813 266.926139 Q 54.221 266.926139 54.428 266.791139 L 54.428 266.791139 L 54.428 266.791139 Q 54.635 266.656139 54.635 266.356139 L 54.635 266.356139 L 54.635 266.356139 Q 54.635 266.176139 54.557 266.068139 L 54.557 266.068139 L 54.557 266.068139 Q 54.479 265.960139 54.329 265.882139 L 54.329 265.882139 L 54.329 265.882139 Q 54.179 265.804139 53.843 265.672139 L 53.843 265.672139 L 53.705 265.618139 L 53.705 265.618139 Q 53.315 265.462139 53.06 265.318139 L 53.06 265.318139 L 53.06 265.318139 Q 52.805 265.174139 52.637 264.940139 L 52.637 264.940139 L 52.637 264.940139 Q 52.469 264.706139 52.469 264.370139 L 52.469 264.370139 L 52.469 264.370139 Q 52.469 263.824139 52.886 263.527139 L 52.886 263.527139 L 52.886 263.527139 Q 53.303 263.230139 53.981 263.230139 L 53.981 263.230139 L 53.981 263.230139 Q 54.395 263.230139 54.698 263.308139 L 54.698 263.308139 L 54.698 263.308139 Q 55.001 263.386139 55.223 263.548139 L 55.223 263.548139 L 55.223 263.548139 Q 55.295 263.602139 55.295 263.650139 L 55.295 263.650139 L 55.295 263.650139 Q 55.295 263.686139 55.271 263.716139 L 55.271 263.716139 L 55.079 264.028139 L 55.079 264.028139 Q 55.043 264.082139 55.019 264.082139 L 55.019 264.082139 L 55.019 264.082139 Q 54.995 264.082139 54.941 264.046139 L 54.941 264.046139 L 54.941 264.046139 Q 54.557 263.800139 53.987 263.800139 L 53.987 263.800139 L 53.987 263.800139 Q 53.609 263.800139 53.417 263.938139 L 53.417 263.938139 L 53.417 263.938139 Q 53.225 264.076139 53.225 264.376139 L 53.225 264.376139 L 53.225 264.376139 Q 53.225 264.562139 53.306 264.673139 L 53.306 264.673139 L 53.306 264.673139 Q 53.387 264.784139 53.543 264.862139 L 53.543 264.862139 L 53.543 264.862139 Q 53.699 264.940139 54.047 265.072139 L 54.047 265.072139 L 54.197 265.132139 L 54.197 265.132139 Q 54.635 265.306139 54.881 265.453139 L 54.881 265.453139 L 54.881 265.453139 Q 55.127 265.600139 55.262 265.819139 L 55.262 265.819139 L 55.262 265.819139 Q 55.397 266.038139 55.397 266.380139 L 55.397 266.380139 L 55.397 266.380139 Q 55.397 266.896139 55.01 267.193139 L 55.01 267.193139 L 55.01 267.193139 Q 54.623 267.490139 53.909 267.490139 L 53.909 267.490139 L 53.909 267.490139 Z  M 57.233 267.400139 L 57.233 267.400139 Q 57.113 267.400139 57.059 267.346139 L 57.059 267.346139 L 57.059 267.346139 Q 57.005 267.292139 57.005 267.184139 L 57.005 267.184139 L 57.005 263.908139 L 55.955 263.908139 L 55.955 263.908139 Q 55.835 263.908139 55.79 263.860139 L 55.79 263.860139 L 55.79 263.860139 Q 55.745 263.812139 55.745 263.698139 L 55.745 263.698139 L 55.745 263.536139 L 55.745 263.536139 Q 55.745 263.422139 55.79 263.371139 L 55.79 263.371139 L 55.79 263.371139 Q 55.835 263.320139 55.955 263.320139 L 55.955 263.320139 L 58.823 263.320139 L 58.823 263.320139 Q 58.943 263.320139 58.991 263.371139 L 58.991 263.371139 L 58.991 263.371139 Q 59.039 263.422139 59.039 263.536139 L 59.039 263.536139 L 59.039 263.698139 L 59.039 263.698139 Q 59.039 263.812139 58.991 263.860139 L 58.991 263.860139 L 58.991 263.860139 Q 58.943 263.908139 58.823 263.908139 L 58.823 263.908139 L 57.773 263.908139 L 57.773 267.184139 L 57.773 267.184139 Q 57.773 267.292139 57.722 267.346139 L 57.722 267.346139 L 57.722 267.346139 Q 57.671 267.400139 57.545 267.400139 L 57.545 267.400139 L 57.233 267.400139 L 57.233 267.400139 Z  M 61.439 267.490139 L 61.439 267.490139 Q 60.449 267.490139 59.918 266.932139 L 59.918 266.932139 L 59.918 266.932139 Q 59.387 266.374139 59.387 265.360139 L 59.387 265.360139 L 59.387 265.360139 Q 59.387 264.346139 59.918 263.788139 L 59.918 263.788139 L 59.918 263.788139 Q 60.449 263.230139 61.439 263.230139 L 61.439 263.230139 L 61.439 263.230139 Q 62.423 263.230139 62.957 263.788139 L 62.957 263.788139 L 62.957 263.788139 Q 63.491 264.346139 63.491 265.360139 L 63.491 265.360139 L 63.491 265.360139 Q 63.491 266.374139 62.957 266.932139 L 62.957 266.932139 L 62.957 266.932139 Q 62.423 267.490139 61.439 267.490139 L 61.439 267.490139 L 61.439 267.490139 Z  M 61.439 266.926139 L 61.439 266.926139 Q 62.069 266.926139 62.399 266.527139 L 62.399 266.527139 L 62.399 266.527139 Q 62.729 266.128139 62.729 265.360139 L 62.729 265.360139 L 62.729 265.360139 Q 62.729 264.592139 62.399 264.196139 L 62.399 264.196139 L 62.399 264.196139 Q 62.069 263.800139 61.439 263.800139 L 61.439 263.800139 L 61.439 263.800139 Q 60.809 263.800139 60.476 264.196139 L 60.476 264.196139 L 60.476 264.196139 Q 60.143 264.592139 60.143 265.360139 L 60.143 265.360139 L 60.143 265.360139 Q 60.143 266.128139 60.476 266.527139 L 60.476 266.527139 L 60.476 266.527139 Q 60.809 266.926139 61.439 266.926139 L 61.439 266.926139 L 61.439 266.926139 Z  M 64.301 267.400139 L 64.301 267.400139 Q 64.181 267.400139 64.13 267.346139 L 64.13 267.346139 L 64.13 267.346139 Q 64.079 267.292139 64.079 267.184139 L 64.079 267.184139 L 64.079 263.542139 L 64.079 263.542139 Q 64.079 263.428139 64.13 263.374139 L 64.13 263.374139 L 64.13 263.374139 Q 64.181 263.320139 64.301 263.320139 L 64.301 263.320139 L 65.837 263.320139 L 65.837 263.320139 Q 66.575 263.320139 66.932 263.671139 L 66.932 263.671139 L 66.932 263.671139 Q 67.289 264.022139 67.289 264.676139 L 67.289 264.676139 L 67.289 264.676139 Q 67.289 265.324139 66.932 265.672139 L 66.932 265.672139 L 66.932 265.672139 Q 66.575 266.020139 65.837 266.020139 L 65.837 266.020139 L 64.847 266.020139 L 64.847 267.184139 L 64.847 267.184139 Q 64.847 267.292139 64.796 267.346139 L 64.796 267.346139 L 64.796 267.346139 Q 64.745 267.400139 64.619 267.400139 L 64.619 267.400139 L 64.301 267.400139 L 64.301 267.400139 Z  M 64.847 265.438139 L 65.801 265.438139 L 65.801 265.438139 Q 66.167 265.438139 66.347 265.249139 L 66.347 265.249139 L 66.347 265.249139 Q 66.527 265.060139 66.527 264.676139 L 66.527 264.676139 L 66.527 264.676139 Q 66.527 264.286139 66.347 264.097139 L 66.347 264.097139 L 66.347 264.097139 Q 66.167 263.908139 65.801 263.908139 L 65.801 263.908139 L 64.847 263.908139 L 64.847 265.438139 L 64.847 265.438139 Z " fill-rule="evenodd" fill="rgb(255,255,255)"/><path d=" M 21.966 267.400139 L 21.966 267.400139 Q 21.882 267.400139 21.843 267.370139 L 21.843 267.370139 L 21.843 267.370139 Q 21.804 267.340139 21.768 267.250139 L 21.768 267.250139 L 20.208 263.488139 L 20.208 263.488139 Q 20.19 263.452139 20.19 263.416139 L 20.19 263.416139 L 20.19 263.416139 Q 20.19 263.374139 20.217 263.347139 L 20.217 263.347139 L 20.217 263.347139 Q 20.244 263.320139 20.292 263.320139 L 20.292 263.320139 L 20.808 263.320139 L 20.808 263.320139 Q 20.886 263.320139 20.928 263.350139 L 20.928 263.350139 L 20.928 263.350139 Q 20.97 263.380139 20.994 263.446139 L 20.994 263.446139 L 22.128 266.326139 L 23.262 263.446139 L 23.262 263.446139 Q 23.286 263.380139 23.328 263.350139 L 23.328 263.350139 L 23.328 263.350139 Q 23.37 263.320139 23.448 263.320139 L 23.448 263.320139 L 23.964 263.320139 L 23.964 263.320139 Q 24.012 263.320139 24.039 263.347139 L 24.039 263.347139 L 24.039 263.347139 Q 24.066 263.374139 24.066 263.416139 L 24.066 263.416139 L 24.066 263.416139 Q 24.066 263.452139 24.048 263.488139 L 24.048 263.488139 L 22.494 267.250139 L 22.494 267.250139 Q 22.458 267.340139 22.416 267.370139 L 22.416 267.370139 L 22.416 267.370139 Q 22.374 267.400139 22.29 267.400139 L 22.29 267.400139 L 21.966 267.400139 L 21.966 267.400139 Z  M 24.876 267.400139 L 24.876 267.400139 Q 24.756 267.400139 24.705 267.346139 L 24.705 267.346139 L 24.705 267.346139 Q 24.654 267.292139 24.654 267.184139 L 24.654 267.184139 L 24.654 263.542139 L 24.654 263.542139 Q 24.654 263.428139 24.705 263.374139 L 24.705 263.374139 L 24.705 263.374139 Q 24.756 263.320139 24.876 263.320139 L 24.876 263.320139 L 27.372 263.320139 L 27.372 263.320139 Q 27.492 263.320139 27.537 263.368139 L 27.537 263.368139 L 27.537 263.368139 Q 27.582 263.416139 27.582 263.530139 L 27.582 263.530139 L 27.582 263.692139 L 27.582 263.692139 Q 27.582 263.806139 27.537 263.857139 L 27.537 263.857139 L 27.537 263.857139 Q 27.492 263.908139 27.372 263.908139 L 27.372 263.908139 L 25.422 263.908139 L 25.422 265.072139 L 26.838 265.072139 L 26.838 265.072139 Q 26.958 265.072139 27.006 265.120139 L 27.006 265.120139 L 27.006 265.120139 Q 27.054 265.168139 27.054 265.282139 L 27.054 265.282139 L 27.054 265.432139 L 27.054 265.432139 Q 27.054 265.546139 27.006 265.597139 L 27.006 265.597139 L 27.006 265.597139 Q 26.958 265.648139 26.838 265.648139 L 26.838 265.648139 L 25.422 265.648139 L 25.422 266.818139 L 27.366 266.818139 L 27.366 266.818139 Q 27.486 266.818139 27.534 266.869139 L 27.534 266.869139 L 27.534 266.869139 Q 27.582 266.920139 27.582 267.034139 L 27.582 267.034139 L 27.582 267.196139 L 27.582 267.196139 Q 27.582 267.304139 27.534 267.352139 L 27.534 267.352139 L 27.534 267.352139 Q 27.486 267.400139 27.366 267.400139 L 27.366 267.400139 L 24.876 267.400139 L 24.876 267.400139 Z  M 28.332 267.400139 L 28.332 267.400139 Q 28.212 267.400139 28.161 267.346139 L 28.161 267.346139 L 28.161 267.346139 Q 28.11 267.292139 28.11 267.184139 L 28.11 267.184139 L 28.11 263.542139 L 28.11 263.542139 Q 28.11 263.428139 28.161 263.374139 L 28.161 263.374139 L 28.161 263.374139 Q 28.212 263.320139 28.332 263.320139 L 28.332 263.320139 L 28.65 263.320139 L 28.65 263.320139 Q 28.77 263.320139 28.824 263.374139 L 28.824 263.374139 L 28.824 263.374139 Q 28.878 263.428139 28.878 263.542139 L 28.878 263.542139 L 28.878 266.818139 L 30.714 266.818139 L 30.714 266.818139 Q 30.834 266.818139 30.882 266.869139 L 30.882 266.869139 L 30.882 266.869139 Q 30.93 266.920139 30.93 267.034139 L 30.93 267.034139 L 30.93 267.196139 L 30.93 267.196139 Q 30.93 267.304139 30.882 267.352139 L 30.882 267.352139 L 30.882 267.352139 Q 30.834 267.400139 30.714 267.400139 L 30.714 267.400139 L 28.332 267.400139 L 28.332 267.400139 Z " fill-rule="evenodd" fill="rgb(255,255,255)"/><path d=" M 89.962 220.400139 L 89.962 220.400139 Q 89.842 220.400139 89.791 220.346139 L 89.791 220.346139 L 89.791 220.346139 Q 89.74 220.292139 89.74 220.184139 L 89.74 220.184139 L 89.74 216.542139 L 89.74 216.542139 Q 89.74 216.428139 89.791 216.374139 L 89.791 216.374139 L 89.791 216.374139 Q 89.842 216.320139 89.968 216.320139 L 89.968 216.320139 L 90.292 216.320139 L 90.292 216.320139 Q 90.388 216.320139 90.439 216.344139 L 90.439 216.344139 L 90.439 216.344139 Q 90.49 216.368139 90.52 216.440139 L 90.52 216.440139 L 91.732 219.230139 L 92.944 216.440139 L 92.944 216.440139 Q 92.974 216.368139 93.025 216.344139 L 93.025 216.344139 L 93.025 216.344139 Q 93.076 216.320139 93.172 216.320139 L 93.172 216.320139 L 93.496 216.320139 L 93.496 216.320139 Q 93.622 216.320139 93.673 216.374139 L 93.673 216.374139 L 93.673 216.374139 Q 93.724 216.428139 93.724 216.542139 L 93.724 216.542139 L 93.724 220.184139 L 93.724 220.184139 Q 93.724 220.292139 93.673 220.346139 L 93.673 220.346139 L 93.673 220.346139 Q 93.622 220.400139 93.502 220.400139 L 93.502 220.400139 L 93.238 220.400139 L 93.238 220.400139 Q 93.118 220.400139 93.064 220.346139 L 93.064 220.346139 L 93.064 220.346139 Q 93.01 220.292139 93.01 220.184139 L 93.01 220.184139 L 93.01 217.598139 L 91.984 219.884139 L 91.984 219.884139 Q 91.936 219.980139 91.888 220.022139 L 91.888 220.022139 L 91.888 220.022139 Q 91.84 220.064139 91.732 220.064139 L 91.732 220.064139 L 91.732 220.064139 Q 91.624 220.064139 91.573 220.022139 L 91.573 220.022139 L 91.573 220.022139 Q 91.522 219.980139 91.48 219.884139 L 91.48 219.884139 L 90.454 217.598139 L 90.454 220.184139 L 90.454 220.184139 Q 90.454 220.292139 90.403 220.346139 L 90.403 220.346139 L 90.403 220.346139 Q 90.352 220.400139 90.226 220.400139 L 90.226 220.400139 L 89.962 220.400139 L 89.962 220.400139 Z  M 95.47 220.400139 L 95.47 220.400139 Q 95.38 220.400139 95.335 220.367139 L 95.335 220.367139 L 95.335 220.367139 Q 95.29 220.334139 95.272 220.250139 L 95.272 220.250139 L 94.324 216.464139 L 94.324 216.464139 Q 94.318 216.446139 94.318 216.410139 L 94.318 216.410139 L 94.318 216.410139 Q 94.318 216.320139 94.432 216.320139 L 94.432 216.320139 L 94.918 216.320139 L 94.918 216.320139 Q 95.008 216.320139 95.044 216.350139 L 95.044 216.350139 L 95.044 216.350139 Q 95.08 216.380139 95.092 216.446139 L 95.092 216.446139 L 95.692 219.086139 L 96.412 216.758139 L 96.412 216.758139 Q 96.436 216.686139 96.469 216.659139 L 96.469 216.659139 L 96.469 216.659139 Q 96.502 216.632139 96.58 216.632139 L 96.58 216.632139 L 96.856 216.632139 L 96.856 216.632139 Q 96.934 216.632139 96.967 216.659139 L 96.967 216.659139 L 96.967 216.659139 Q 97 216.686139 97.024 216.758139 L 97.024 216.758139 L 97.75 219.086139 L 98.344 216.446139 L 98.344 216.446139 Q 98.356 216.380139 98.395 216.350139 L 98.395 216.350139 L 98.395 216.350139 Q 98.434 216.320139 98.518 216.320139 L 98.518 216.320139 L 99.01 216.320139 L 99.01 216.320139 Q 99.124 216.320139 99.124 216.410139 L 99.124 216.410139 L 99.124 216.410139 Q 99.124 216.446139 99.118 216.464139 L 99.118 216.464139 L 98.164 220.250139 L 98.164 220.250139 Q 98.14 220.334139 98.095 220.367139 L 98.095 220.367139 L 98.095 220.367139 Q 98.05 220.400139 97.966 220.400139 L 97.966 220.400139 L 97.642 220.400139 L 97.642 220.400139 Q 97.558 220.400139 97.513 220.367139 L 97.513 220.367139 L 97.513 220.367139 Q 97.468 220.334139 97.444 220.250139 L 97.444 220.250139 L 96.718 217.850139 L 95.998 220.250139 L 95.998 220.250139 Q 95.974 220.334139 95.929 220.367139 L 95.929 220.367139 L 95.929 220.367139 Q 95.884 220.400139 95.8 220.400139 L 95.8 220.400139 L 95.47 220.400139 L 95.47 220.400139 Z " fill-rule="evenodd" fill="rgb(255,255,255)"/><path d=" M 54.374 220.490139 L 54.374 220.490139 Q 53.948 220.490139 53.537 220.397139 L 53.537 220.397139 L 53.537 220.397139 Q 53.126 220.304139 52.88 220.136139 L 52.88 220.136139 L 52.88 220.136139 Q 52.802 220.082139 52.802 220.040139 L 52.802 220.040139 L 52.802 220.040139 Q 52.802 219.998139 52.826 219.968139 L 52.826 219.968139 L 53.024 219.656139 L 53.024 219.656139 Q 53.06 219.602139 53.09 219.602139 L 53.09 219.602139 L 53.09 219.602139 Q 53.12 219.602139 53.168 219.632139 L 53.168 219.632139 L 53.168 219.632139 Q 53.39 219.764139 53.684 219.845139 L 53.684 219.845139 L 53.684 219.845139 Q 53.978 219.926139 54.278 219.926139 L 54.278 219.926139 L 54.278 219.926139 Q 54.686 219.926139 54.893 219.791139 L 54.893 219.791139 L 54.893 219.791139 Q 55.1 219.656139 55.1 219.356139 L 55.1 219.356139 L 55.1 219.356139 Q 55.1 219.176139 55.022 219.068139 L 55.022 219.068139 L 55.022 219.068139 Q 54.944 218.960139 54.794 218.882139 L 54.794 218.882139 L 54.794 218.882139 Q 54.644 218.804139 54.308 218.672139 L 54.308 218.672139 L 54.17 218.618139 L 54.17 218.618139 Q 53.78 218.462139 53.525 218.318139 L 53.525 218.318139 L 53.525 218.318139 Q 53.27 218.174139 53.102 217.940139 L 53.102 217.940139 L 53.102 217.940139 Q 52.934 217.706139 52.934 217.370139 L 52.934 217.370139 L 52.934 217.370139 Q 52.934 216.824139 53.351 216.527139 L 53.351 216.527139 L 53.351 216.527139 Q 53.768 216.230139 54.446 216.230139 L 54.446 216.230139 L 54.446 216.230139 Q 54.86 216.230139 55.163 216.308139 L 55.163 216.308139 L 55.163 216.308139 Q 55.466 216.386139 55.688 216.548139 L 55.688 216.548139 L 55.688 216.548139 Q 55.76 216.602139 55.76 216.650139 L 55.76 216.650139 L 55.76 216.650139 Q 55.76 216.686139 55.736 216.716139 L 55.736 216.716139 L 55.544 217.028139 L 55.544 217.028139 Q 55.508 217.082139 55.484 217.082139 L 55.484 217.082139 L 55.484 217.082139 Q 55.46 217.082139 55.406 217.046139 L 55.406 217.046139 L 55.406 217.046139 Q 55.022 216.800139 54.452 216.800139 L 54.452 216.800139 L 54.452 216.800139 Q 54.074 216.800139 53.882 216.938139 L 53.882 216.938139 L 53.882 216.938139 Q 53.69 217.076139 53.69 217.376139 L 53.69 217.376139 L 53.69 217.376139 Q 53.69 217.562139 53.771 217.673139 L 53.771 217.673139 L 53.771 217.673139 Q 53.852 217.784139 54.008 217.862139 L 54.008 217.862139 L 54.008 217.862139 Q 54.164 217.940139 54.512 218.072139 L 54.512 218.072139 L 54.662 218.132139 L 54.662 218.132139 Q 55.1 218.306139 55.346 218.453139 L 55.346 218.453139 L 55.346 218.453139 Q 55.592 218.600139 55.727 218.819139 L 55.727 218.819139 L 55.727 218.819139 Q 55.862 219.038139 55.862 219.380139 L 55.862 219.380139 L 55.862 219.380139 Q 55.862 219.896139 55.475 220.193139 L 55.475 220.193139 L 55.475 220.193139 Q 55.088 220.490139 54.374 220.490139 L 54.374 220.490139 L 54.374 220.490139 Z  M 57.698 220.400139 L 57.698 220.400139 Q 57.578 220.400139 57.524 220.346139 L 57.524 220.346139 L 57.524 220.346139 Q 57.47 220.292139 57.47 220.184139 L 57.47 220.184139 L 57.47 216.908139 L 56.42 216.908139 L 56.42 216.908139 Q 56.3 216.908139 56.255 216.860139 L 56.255 216.860139 L 56.255 216.860139 Q 56.21 216.812139 56.21 216.698139 L 56.21 216.698139 L 56.21 216.536139 L 56.21 216.536139 Q 56.21 216.422139 56.255 216.371139 L 56.255 216.371139 L 56.255 216.371139 Q 56.3 216.320139 56.42 216.320139 L 56.42 216.320139 L 59.288 216.320139 L 59.288 216.320139 Q 59.408 216.320139 59.456 216.371139 L 59.456 216.371139 L 59.456 216.371139 Q 59.504 216.422139 59.504 216.536139 L 59.504 216.536139 L 59.504 216.698139 L 59.504 216.698139 Q 59.504 216.812139 59.456 216.860139 L 59.456 216.860139 L 59.456 216.860139 Q 59.408 216.908139 59.288 216.908139 L 59.288 216.908139 L 58.238 216.908139 L 58.238 220.184139 L 58.238 220.184139 Q 58.238 220.292139 58.187 220.346139 L 58.187 220.346139 L 58.187 220.346139 Q 58.136 220.400139 58.01 220.400139 L 58.01 220.400139 L 57.698 220.400139 L 57.698 220.400139 Z  M 60.194 220.400139 L 60.194 220.400139 Q 60.074 220.400139 60.023 220.346139 L 60.023 220.346139 L 60.023 220.346139 Q 59.972 220.292139 59.972 220.184139 L 59.972 220.184139 L 59.972 216.542139 L 59.972 216.542139 Q 59.972 216.428139 60.023 216.374139 L 60.023 216.374139 L 60.023 216.374139 Q 60.074 216.320139 60.194 216.320139 L 60.194 216.320139 L 61.76 216.320139 L 61.76 216.320139 Q 62.456 216.320139 62.819 216.644139 L 62.819 216.644139 L 62.819 216.644139 Q 63.182 216.968139 63.182 217.604139 L 63.182 217.604139 L 63.182 217.604139 Q 63.182 218.024139 62.984 218.321139 L 62.984 218.321139 L 62.984 218.321139 Q 62.786 218.618139 62.408 218.768139 L 62.408 218.768139 L 63.074 220.244139 L 63.074 220.244139 Q 63.092 220.280139 63.092 220.310139 L 63.092 220.310139 L 63.092 220.310139 Q 63.092 220.400139 62.984 220.400139 L 62.984 220.400139 L 62.492 220.400139 L 62.492 220.400139 Q 62.414 220.400139 62.378 220.379139 L 62.378 220.379139 L 62.378 220.379139 Q 62.342 220.358139 62.312 220.292139 L 62.312 220.292139 L 61.706 218.870139 L 60.74 218.870139 L 60.74 220.184139 L 60.74 220.184139 Q 60.74 220.292139 60.689 220.346139 L 60.689 220.346139 L 60.689 220.346139 Q 60.638 220.400139 60.512 220.400139 L 60.512 220.400139 L 60.194 220.400139 L 60.194 220.400139 Z  M 60.74 218.294139 L 61.604 218.294139 L 61.604 218.294139 Q 62.024 218.294139 62.222 218.132139 L 62.222 218.132139 L 62.222 218.132139 Q 62.42 217.970139 62.42 217.604139 L 62.42 217.604139 L 62.42 217.604139 Q 62.42 217.244139 62.24 217.076139 L 62.24 217.076139 L 62.24 217.076139 Q 62.06 216.908139 61.694 216.908139 L 61.694 216.908139 L 60.74 216.908139 L 60.74 218.294139 L 60.74 218.294139 Z  M 65.018 220.400139 L 65.018 220.400139 Q 64.898 220.400139 64.844 220.346139 L 64.844 220.346139 L 64.844 220.346139 Q 64.79 220.292139 64.79 220.184139 L 64.79 220.184139 L 64.79 216.908139 L 63.74 216.908139 L 63.74 216.908139 Q 63.62 216.908139 63.575 216.860139 L 63.575 216.860139 L 63.575 216.860139 Q 63.53 216.812139 63.53 216.698139 L 63.53 216.698139 L 63.53 216.536139 L 63.53 216.536139 Q 63.53 216.422139 63.575 216.371139 L 63.575 216.371139 L 63.575 216.371139 Q 63.62 216.320139 63.74 216.320139 L 63.74 216.320139 L 66.608 216.320139 L 66.608 216.320139 Q 66.728 216.320139 66.776 216.371139 L 66.776 216.371139 L 66.776 216.371139 Q 66.824 216.422139 66.824 216.536139 L 66.824 216.536139 L 66.824 216.698139 L 66.824 216.698139 Q 66.824 216.812139 66.776 216.860139 L 66.776 216.860139 L 66.776 216.860139 Q 66.728 216.908139 66.608 216.908139 L 66.608 216.908139 L 65.558 216.908139 L 65.558 220.184139 L 65.558 220.184139 Q 65.558 220.292139 65.507 220.346139 L 65.507 220.346139 L 65.507 220.346139 Q 65.456 220.400139 65.33 220.400139 L 65.33 220.400139 L 65.018 220.400139 L 65.018 220.400139 Z " fill-rule="evenodd" fill="rgb(255,255,255)"/><path d=" M 20.082 220.490139 L 20.082 220.490139 Q 19.062 220.490139 18.504 219.938139 L 18.504 219.938139 L 18.504 219.938139 Q 17.946 219.386139 17.946 218.360139 L 17.946 218.360139 L 17.946 218.360139 Q 17.946 217.340139 18.507 216.785139 L 18.507 216.785139 L 18.507 216.785139 Q 19.068 216.230139 20.082 216.230139 L 20.082 216.230139 L 20.082 216.230139 Q 20.49 216.230139 20.844 216.314139 L 20.844 216.314139 L 20.844 216.314139 Q 21.198 216.398139 21.432 216.554139 L 21.432 216.554139 L 21.432 216.554139 Q 21.486 216.590139 21.486 216.632139 L 21.486 216.632139 L 21.486 216.632139 Q 21.486 216.662139 21.462 216.704139 L 21.462 216.704139 L 21.288 217.004139 L 21.288 217.004139 Q 21.252 217.058139 21.216 217.058139 L 21.216 217.058139 L 21.216 217.058139 Q 21.198 217.058139 21.138 217.028139 L 21.138 217.028139 L 21.138 217.028139 Q 20.73 216.800139 20.166 216.800139 L 20.166 216.800139 L 20.166 216.800139 Q 19.482 216.800139 19.092 217.187139 L 19.092 217.187139 L 19.092 217.187139 Q 18.702 217.574139 18.702 218.360139 L 18.702 218.360139 L 18.702 218.360139 Q 18.702 219.152139 19.08 219.536139 L 19.08 219.536139 L 19.08 219.536139 Q 19.458 219.920139 20.118 219.920139 L 20.118 219.920139 L 20.118 219.920139 Q 20.358 219.920139 20.586 219.881139 L 20.586 219.881139 L 20.586 219.881139 Q 20.814 219.842139 20.958 219.770139 L 20.958 219.770139 L 20.958 218.660139 L 20.166 218.660139 L 20.166 218.660139 Q 20.046 218.660139 19.998 218.609139 L 19.998 218.609139 L 19.998 218.609139 Q 19.95 218.558139 19.95 218.444139 L 19.95 218.444139 L 19.95 218.288139 L 19.95 218.288139 Q 19.95 218.174139 19.998 218.129139 L 19.998 218.129139 L 19.998 218.129139 Q 20.046 218.084139 20.166 218.084139 L 20.166 218.084139 L 21.432 218.084139 L 21.432 218.084139 Q 21.564 218.084139 21.621 218.147139 L 21.621 218.147139 L 21.621 218.147139 Q 21.678 218.210139 21.678 218.342139 L 21.678 218.342139 L 21.678 219.926139 L 21.678 219.926139 Q 21.678 220.016139 21.66 220.061139 L 21.66 220.061139 L 21.66 220.061139 Q 21.642 220.106139 21.582 220.142139 L 21.582 220.142139 L 21.582 220.142139 Q 21.03 220.490139 20.082 220.490139 L 20.082 220.490139 L 20.082 220.490139 Z  M 22.248 220.400139 L 22.248 220.400139 Q 22.146 220.400139 22.146 220.310139 L 22.146 220.310139 L 22.146 220.310139 Q 22.146 220.274139 22.164 220.232139 L 22.164 220.232139 L 23.748 216.476139 L 23.748 216.476139 Q 23.784 216.386139 23.826 216.353139 L 23.826 216.353139 L 23.826 216.353139 Q 23.868 216.320139 23.946 216.320139 L 23.946 216.320139 L 24.276 216.320139 L 24.276 216.320139 Q 24.36 216.320139 24.399 216.353139 L 24.399 216.353139 L 24.399 216.353139 Q 24.438 216.386139 24.474 216.476139 L 24.474 216.476139 L 26.058 220.232139 L 26.058 220.232139 Q 26.076 220.274139 26.076 220.310139 L 26.076 220.310139 L 26.076 220.310139 Q 26.076 220.400139 25.974 220.400139 L 25.974 220.400139 L 25.452 220.400139 L 25.452 220.400139 Q 25.374 220.400139 25.341 220.379139 L 25.341 220.379139 L 25.341 220.379139 Q 25.308 220.358139 25.278 220.292139 L 25.278 220.292139 L 24.936 219.452139 L 23.28 219.452139 L 22.944 220.292139 L 22.944 220.292139 Q 22.914 220.358139 22.881 220.379139 L 22.881 220.379139 L 22.881 220.379139 Q 22.848 220.400139 22.77 220.400139 L 22.77 220.400139 L 22.248 220.400139 L 22.248 220.400139 Z  M 23.472 218.894139 L 24.744 218.894139 L 24.108 217.322139 L 23.472 218.894139 L 23.472 218.894139 Z  M 27.912 220.400139 L 27.912 220.400139 Q 27.792 220.400139 27.738 220.346139 L 27.738 220.346139 L 27.738 220.346139 Q 27.684 220.292139 27.684 220.184139 L 27.684 220.184139 L 27.684 216.908139 L 26.634 216.908139 L 26.634 216.908139 Q 26.514 216.908139 26.469 216.860139 L 26.469 216.860139 L 26.469 216.860139 Q 26.424 216.812139 26.424 216.698139 L 26.424 216.698139 L 26.424 216.536139 L 26.424 216.536139 Q 26.424 216.422139 26.469 216.371139 L 26.469 216.371139 L 26.469 216.371139 Q 26.514 216.320139 26.634 216.320139 L 26.634 216.320139 L 29.502 216.320139 L 29.502 216.320139 Q 29.622 216.320139 29.67 216.371139 L 29.67 216.371139 L 29.67 216.371139 Q 29.718 216.422139 29.718 216.536139 L 29.718 216.536139 L 29.718 216.698139 L 29.718 216.698139 Q 29.718 216.812139 29.67 216.860139 L 29.67 216.860139 L 29.67 216.860139 Q 29.622 216.908139 29.502 216.908139 L 29.502 216.908139 L 28.452 216.908139 L 28.452 220.184139 L 28.452 220.184139 Q 28.452 220.292139 28.401 220.346139 L 28.401 220.346139 L 28.401 220.346139 Q 28.35 220.400139 28.224 220.400139 L 28.224 220.400139 L 27.912 220.400139 L 27.912 220.400139 Z  M 30.408 220.400139 L 30.408 220.400139 Q 30.288 220.400139 30.237 220.346139 L 30.237 220.346139 L 30.237 220.346139 Q 30.186 220.292139 30.186 220.184139 L 30.186 220.184139 L 30.186 216.542139 L 30.186 216.542139 Q 30.186 216.428139 30.237 216.374139 L 30.237 216.374139 L 30.237 216.374139 Q 30.288 216.320139 30.408 216.320139 L 30.408 216.320139 L 32.904 216.320139 L 32.904 216.320139 Q 33.024 216.320139 33.069 216.368139 L 33.069 216.368139 L 33.069 216.368139 Q 33.114 216.416139 33.114 216.530139 L 33.114 216.530139 L 33.114 216.692139 L 33.114 216.692139 Q 33.114 216.806139 33.069 216.857139 L 33.069 216.857139 L 33.069 216.857139 Q 33.024 216.908139 32.904 216.908139 L 32.904 216.908139 L 30.954 216.908139 L 30.954 218.072139 L 32.37 218.072139 L 32.37 218.072139 Q 32.49 218.072139 32.538 218.120139 L 32.538 218.120139 L 32.538 218.120139 Q 32.586 218.168139 32.586 218.282139 L 32.586 218.282139 L 32.586 218.432139 L 32.586 218.432139 Q 32.586 218.546139 32.538 218.597139 L 32.538 218.597139 L 32.538 218.597139 Q 32.49 218.648139 32.37 218.648139 L 32.37 218.648139 L 30.954 218.648139 L 30.954 219.818139 L 32.898 219.818139 L 32.898 219.818139 Q 33.018 219.818139 33.066 219.869139 L 33.066 219.869139 L 33.066 219.869139 Q 33.114 219.920139 33.114 220.034139 L 33.114 220.034139 L 33.114 220.196139 L 33.114 220.196139 Q 33.114 220.304139 33.066 220.352139 L 33.066 220.352139 L 33.066 220.352139 Q 33.018 220.400139 32.898 220.400139 L 32.898 220.400139 L 30.408 220.400139 L 30.408 220.400139 Z " fill-rule="evenodd" fill="rgb(255,255,255)"/><path d=" M 23.667 172.490139 L 23.667 172.490139 Q 22.647 172.490139 22.089 171.938139 L 22.089 171.938139 L 22.089 171.938139 Q 21.531 171.386139 21.531 170.360139 L 21.531 170.360139 L 21.531 170.360139 Q 21.531 169.334139 22.08 168.782139 L 22.08 168.782139 L 22.08 168.782139 Q 22.629 168.230139 23.649 168.230139 L 23.649 168.230139 L 23.649 168.230139 Q 24.057 168.230139 24.405 168.314139 L 24.405 168.314139 L 24.405 168.314139 Q 24.753 168.398139 24.993 168.554139 L 24.993 168.554139 L 24.993 168.554139 Q 25.047 168.590139 25.047 168.632139 L 25.047 168.632139 L 25.047 168.632139 Q 25.047 168.668139 25.017 168.716139 L 25.017 168.716139 L 24.849 169.004139 L 24.849 169.004139 Q 24.813 169.058139 24.783 169.058139 L 24.783 169.058139 L 24.783 169.058139 Q 24.759 169.058139 24.699 169.028139 L 24.699 169.028139 L 24.699 169.028139 Q 24.321 168.800139 23.733 168.800139 L 23.733 168.800139 L 23.733 168.800139 Q 23.055 168.800139 22.671 169.190139 L 22.671 169.190139 L 22.671 169.190139 Q 22.287 169.580139 22.287 170.360139 L 22.287 170.360139 L 22.287 170.360139 Q 22.287 171.152139 22.683 171.539139 L 22.683 171.539139 L 22.683 171.539139 Q 23.079 171.926139 23.751 171.926139 L 23.751 171.926139 L 23.751 171.926139 Q 24.375 171.926139 24.777 171.692139 L 24.777 171.692139 L 24.777 171.692139 Q 24.837 171.662139 24.855 171.662139 L 24.855 171.662139 L 24.855 171.662139 Q 24.891 171.662139 24.927 171.716139 L 24.927 171.716139 L 25.113 172.028139 L 25.113 172.028139 Q 25.131 172.064139 25.131 172.088139 L 25.131 172.088139 L 25.131 172.088139 Q 25.131 172.124139 25.065 172.166139 L 25.065 172.166139 L 25.065 172.166139 Q 24.603 172.490139 23.667 172.490139 L 23.667 172.490139 L 23.667 172.490139 Z  M 27.369 172.400139 L 27.369 172.400139 Q 27.285 172.400139 27.246 172.370139 L 27.246 172.370139 L 27.246 172.370139 Q 27.207 172.340139 27.171 172.250139 L 27.171 172.250139 L 25.611 168.488139 L 25.611 168.488139 Q 25.593 168.452139 25.593 168.416139 L 25.593 168.416139 L 25.593 168.416139 Q 25.593 168.374139 25.62 168.347139 L 25.62 168.347139 L 25.62 168.347139 Q 25.647 168.320139 25.695 168.320139 L 25.695 168.320139 L 26.211 168.320139 L 26.211 168.320139 Q 26.289 168.320139 26.331 168.350139 L 26.331 168.350139 L 26.331 168.350139 Q 26.373 168.380139 26.397 168.446139 L 26.397 168.446139 L 27.531 171.326139 L 28.665 168.446139 L 28.665 168.446139 Q 28.689 168.380139 28.731 168.350139 L 28.731 168.350139 L 28.731 168.350139 Q 28.773 168.320139 28.851 168.320139 L 28.851 168.320139 L 29.367 168.320139 L 29.367 168.320139 Q 29.415 168.320139 29.442 168.347139 L 29.442 168.347139 L 29.442 168.347139 Q 29.469 168.374139 29.469 168.416139 L 29.469 168.416139 L 29.469 168.416139 Q 29.469 168.452139 29.451 168.488139 L 29.451 168.488139 L 27.897 172.250139 L 27.897 172.250139 Q 27.861 172.340139 27.819 172.370139 L 27.819 172.370139 L 27.819 172.370139 Q 27.777 172.400139 27.693 172.400139 L 27.693 172.400139 L 27.369 172.400139 L 27.369 172.400139 Z " fill-rule="evenodd" fill="rgb(255,255,255)"/><path d=" M 52.667 172.400139 L 52.667 172.400139 Q 52.547 172.400139 52.496 172.346139 L 52.496 172.346139 L 52.496 172.346139 Q 52.445 172.292139 52.445 172.184139 L 52.445 172.184139 L 52.445 168.542139 L 52.445 168.542139 Q 52.445 168.428139 52.496 168.374139 L 52.496 168.374139 L 52.496 168.374139 Q 52.547 168.320139 52.667 168.320139 L 52.667 168.320139 L 54.233 168.320139 L 54.233 168.320139 Q 54.929 168.320139 55.292 168.644139 L 55.292 168.644139 L 55.292 168.644139 Q 55.655 168.968139 55.655 169.604139 L 55.655 169.604139 L 55.655 169.604139 Q 55.655 170.024139 55.457 170.321139 L 55.457 170.321139 L 55.457 170.321139 Q 55.259 170.618139 54.881 170.768139 L 54.881 170.768139 L 55.547 172.244139 L 55.547 172.244139 Q 55.565 172.280139 55.565 172.310139 L 55.565 172.310139 L 55.565 172.310139 Q 55.565 172.400139 55.457 172.400139 L 55.457 172.400139 L 54.965 172.400139 L 54.965 172.400139 Q 54.887 172.400139 54.851 172.379139 L 54.851 172.379139 L 54.851 172.379139 Q 54.815 172.358139 54.785 172.292139 L 54.785 172.292139 L 54.179 170.870139 L 53.213 170.870139 L 53.213 172.184139 L 53.213 172.184139 Q 53.213 172.292139 53.162 172.346139 L 53.162 172.346139 L 53.162 172.346139 Q 53.111 172.400139 52.985 172.400139 L 52.985 172.400139 L 52.667 172.400139 L 52.667 172.400139 Z  M 53.213 170.294139 L 54.077 170.294139 L 54.077 170.294139 Q 54.497 170.294139 54.695 170.132139 L 54.695 170.132139 L 54.695 170.132139 Q 54.893 169.970139 54.893 169.604139 L 54.893 169.604139 L 54.893 169.604139 Q 54.893 169.244139 54.713 169.076139 L 54.713 169.076139 L 54.713 169.076139 Q 54.533 168.908139 54.167 168.908139 L 54.167 168.908139 L 53.213 168.908139 L 53.213 170.294139 L 53.213 170.294139 Z  M 57.491 172.400139 L 57.491 172.400139 Q 57.371 172.400139 57.317 172.346139 L 57.317 172.346139 L 57.317 172.346139 Q 57.263 172.292139 57.263 172.184139 L 57.263 172.184139 L 57.263 168.908139 L 56.213 168.908139 L 56.213 168.908139 Q 56.093 168.908139 56.048 168.860139 L 56.048 168.860139 L 56.048 168.860139 Q 56.003 168.812139 56.003 168.698139 L 56.003 168.698139 L 56.003 168.536139 L 56.003 168.536139 Q 56.003 168.422139 56.048 168.371139 L 56.048 168.371139 L 56.048 168.371139 Q 56.093 168.320139 56.213 168.320139 L 56.213 168.320139 L 59.081 168.320139 L 59.081 168.320139 Q 59.201 168.320139 59.249 168.371139 L 59.249 168.371139 L 59.249 168.371139 Q 59.297 168.422139 59.297 168.536139 L 59.297 168.536139 L 59.297 168.698139 L 59.297 168.698139 Q 59.297 168.812139 59.249 168.860139 L 59.249 168.860139 L 59.249 168.860139 Q 59.201 168.908139 59.081 168.908139 L 59.081 168.908139 L 58.031 168.908139 L 58.031 172.184139 L 58.031 172.184139 Q 58.031 172.292139 57.98 172.346139 L 57.98 172.346139 L 57.98 172.346139 Q 57.929 172.400139 57.803 172.400139 L 57.803 172.400139 L 57.491 172.400139 L 57.491 172.400139 Z  M 59.987 172.400139 L 59.987 172.400139 Q 59.867 172.400139 59.816 172.346139 L 59.816 172.346139 L 59.816 172.346139 Q 59.765 172.292139 59.765 172.184139 L 59.765 172.184139 L 59.765 168.542139 L 59.765 168.542139 Q 59.765 168.428139 59.816 168.374139 L 59.816 168.374139 L 59.816 168.374139 Q 59.867 168.320139 59.987 168.320139 L 59.987 168.320139 L 61.553 168.320139 L 61.553 168.320139 Q 62.249 168.320139 62.612 168.644139 L 62.612 168.644139 L 62.612 168.644139 Q 62.975 168.968139 62.975 169.604139 L 62.975 169.604139 L 62.975 169.604139 Q 62.975 170.024139 62.777 170.321139 L 62.777 170.321139 L 62.777 170.321139 Q 62.579 170.618139 62.201 170.768139 L 62.201 170.768139 L 62.867 172.244139 L 62.867 172.244139 Q 62.885 172.280139 62.885 172.310139 L 62.885 172.310139 L 62.885 172.310139 Q 62.885 172.400139 62.777 172.400139 L 62.777 172.400139 L 62.285 172.400139 L 62.285 172.400139 Q 62.207 172.400139 62.171 172.379139 L 62.171 172.379139 L 62.171 172.379139 Q 62.135 172.358139 62.105 172.292139 L 62.105 172.292139 L 61.499 170.870139 L 60.533 170.870139 L 60.533 172.184139 L 60.533 172.184139 Q 60.533 172.292139 60.482 172.346139 L 60.482 172.346139 L 60.482 172.346139 Q 60.431 172.400139 60.305 172.400139 L 60.305 172.400139 L 59.987 172.400139 L 59.987 172.400139 Z  M 60.533 170.294139 L 61.397 170.294139 L 61.397 170.294139 Q 61.817 170.294139 62.015 170.132139 L 62.015 170.132139 L 62.015 170.132139 Q 62.213 169.970139 62.213 169.604139 L 62.213 169.604139 L 62.213 169.604139 Q 62.213 169.244139 62.033 169.076139 L 62.033 169.076139 L 62.033 169.076139 Q 61.853 168.908139 61.487 168.908139 L 61.487 168.908139 L 60.533 168.908139 L 60.533 170.294139 L 60.533 170.294139 Z  M 65.579 172.490139 L 65.579 172.490139 Q 64.559 172.490139 64.001 171.938139 L 64.001 171.938139 L 64.001 171.938139 Q 63.443 171.386139 63.443 170.360139 L 63.443 170.360139 L 63.443 170.360139 Q 63.443 169.340139 64.004 168.785139 L 64.004 168.785139 L 64.004 168.785139 Q 64.565 168.230139 65.579 168.230139 L 65.579 168.230139 L 65.579 168.230139 Q 65.987 168.230139 66.341 168.314139 L 66.341 168.314139 L 66.341 168.314139 Q 66.695 168.398139 66.929 168.554139 L 66.929 168.554139 L 66.929 168.554139 Q 66.983 168.590139 66.983 168.632139 L 66.983 168.632139 L 66.983 168.632139 Q 66.983 168.662139 66.959 168.704139 L 66.959 168.704139 L 66.785 169.004139 L 66.785 169.004139 Q 66.749 169.058139 66.713 169.058139 L 66.713 169.058139 L 66.713 169.058139 Q 66.695 169.058139 66.635 169.028139 L 66.635 169.028139 L 66.635 169.028139 Q 66.227 168.800139 65.663 168.800139 L 65.663 168.800139 L 65.663 168.800139 Q 64.979 168.800139 64.589 169.187139 L 64.589 169.187139 L 64.589 169.187139 Q 64.199 169.574139 64.199 170.360139 L 64.199 170.360139 L 64.199 170.360139 Q 64.199 171.152139 64.577 171.536139 L 64.577 171.536139 L 64.577 171.536139 Q 64.955 171.920139 65.615 171.920139 L 65.615 171.920139 L 65.615 171.920139 Q 65.855 171.920139 66.083 171.881139 L 66.083 171.881139 L 66.083 171.881139 Q 66.311 171.842139 66.455 171.770139 L 66.455 171.770139 L 66.455 170.660139 L 65.663 170.660139 L 65.663 170.660139 Q 65.543 170.660139 65.495 170.609139 L 65.495 170.609139 L 65.495 170.609139 Q 65.447 170.558139 65.447 170.444139 L 65.447 170.444139 L 65.447 170.288139 L 65.447 170.288139 Q 65.447 170.174139 65.495 170.129139 L 65.495 170.129139 L 65.495 170.129139 Q 65.543 170.084139 65.663 170.084139 L 65.663 170.084139 L 66.929 170.084139 L 66.929 170.084139 Q 67.061 170.084139 67.118 170.147139 L 67.118 170.147139 L 67.118 170.147139 Q 67.175 170.210139 67.175 170.342139 L 67.175 170.342139 L 67.175 171.926139 L 67.175 171.926139 Q 67.175 172.016139 67.157 172.061139 L 67.157 172.061139 L 67.157 172.061139 Q 67.139 172.106139 67.079 172.142139 L 67.079 172.142139 L 67.079 172.142139 Q 66.527 172.490139 65.579 172.490139 L 65.579 172.490139 L 65.579 172.490139 Z " fill-rule="evenodd" fill="rgb(255,255,255)"/><path d=" M 90.469 172.400139 L 90.469 172.400139 Q 90.349 172.400139 90.298 172.346139 L 90.298 172.346139 L 90.298 172.346139 Q 90.247 172.292139 90.247 172.184139 L 90.247 172.184139 L 90.247 168.542139 L 90.247 168.542139 Q 90.247 168.428139 90.298 168.374139 L 90.298 168.374139 L 90.298 168.374139 Q 90.349 168.320139 90.469 168.320139 L 90.469 168.320139 L 92.005 168.320139 L 92.005 168.320139 Q 92.743 168.320139 93.1 168.671139 L 93.1 168.671139 L 93.1 168.671139 Q 93.457 169.022139 93.457 169.676139 L 93.457 169.676139 L 93.457 169.676139 Q 93.457 170.324139 93.1 170.672139 L 93.1 170.672139 L 93.1 170.672139 Q 92.743 171.020139 92.005 171.020139 L 92.005 171.020139 L 91.015 171.020139 L 91.015 172.184139 L 91.015 172.184139 Q 91.015 172.292139 90.964 172.346139 L 90.964 172.346139 L 90.964 172.346139 Q 90.913 172.400139 90.787 172.400139 L 90.787 172.400139 L 90.469 172.400139 L 90.469 172.400139 Z  M 91.015 170.438139 L 91.969 170.438139 L 91.969 170.438139 Q 92.335 170.438139 92.515 170.249139 L 92.515 170.249139 L 92.515 170.249139 Q 92.695 170.060139 92.695 169.676139 L 92.695 169.676139 L 92.695 169.676139 Q 92.695 169.286139 92.515 169.097139 L 92.515 169.097139 L 92.515 169.097139 Q 92.335 168.908139 91.969 168.908139 L 91.969 168.908139 L 91.015 168.908139 L 91.015 170.438139 L 91.015 170.438139 Z  M 94.963 172.400139 L 94.963 172.400139 Q 94.873 172.400139 94.828 172.367139 L 94.828 172.367139 L 94.828 172.367139 Q 94.783 172.334139 94.765 172.250139 L 94.765 172.250139 L 93.817 168.464139 L 93.817 168.464139 Q 93.811 168.446139 93.811 168.410139 L 93.811 168.410139 L 93.811 168.410139 Q 93.811 168.320139 93.925 168.320139 L 93.925 168.320139 L 94.411 168.320139 L 94.411 168.320139 Q 94.501 168.320139 94.537 168.350139 L 94.537 168.350139 L 94.537 168.350139 Q 94.573 168.380139 94.585 168.446139 L 94.585 168.446139 L 95.185 171.086139 L 95.905 168.758139 L 95.905 168.758139 Q 95.929 168.686139 95.962 168.659139 L 95.962 168.659139 L 95.962 168.659139 Q 95.995 168.632139 96.073 168.632139 L 96.073 168.632139 L 96.349 168.632139 L 96.349 168.632139 Q 96.427 168.632139 96.46 168.659139 L 96.46 168.659139 L 96.46 168.659139 Q 96.493 168.686139 96.517 168.758139 L 96.517 168.758139 L 97.243 171.086139 L 97.837 168.446139 L 97.837 168.446139 Q 97.849 168.380139 97.888 168.350139 L 97.888 168.350139 L 97.888 168.350139 Q 97.927 168.320139 98.011 168.320139 L 98.011 168.320139 L 98.503 168.320139 L 98.503 168.320139 Q 98.617 168.320139 98.617 168.410139 L 98.617 168.410139 L 98.617 168.410139 Q 98.617 168.446139 98.611 168.464139 L 98.611 168.464139 L 97.657 172.250139 L 97.657 172.250139 Q 97.633 172.334139 97.588 172.367139 L 97.588 172.367139 L 97.588 172.367139 Q 97.543 172.400139 97.459 172.400139 L 97.459 172.400139 L 97.135 172.400139 L 97.135 172.400139 Q 97.051 172.400139 97.006 172.367139 L 97.006 172.367139 L 97.006 172.367139 Q 96.961 172.334139 96.937 172.250139 L 96.937 172.250139 L 96.211 169.850139 L 95.491 172.250139 L 95.491 172.250139 Q 95.467 172.334139 95.422 172.367139 L 95.422 172.367139 L 95.422 172.367139 Q 95.377 172.400139 95.293 172.400139 L 95.293 172.400139 L 94.963 172.400139 L 94.963 172.400139 Z " fill-rule="evenodd" fill="rgb(255,255,255)"/></g></svg>