<?xml version="1.0" standalone="no"?><!-- Generator: Gravit.io --><svg xmlns="http://www.w3.org/2000/svg" xmlns:xlink="http://www.w3.org/1999/xlink" style="isolation:isolate" viewBox="0 0 150 380" width="150" height="380"><defs><clipPath id="_clipPath_bGB7DeR4aXejQhOu2t4nktkhXenLpAb3"><rect width="150" height="380"/></clipPath></defs><g clip-path="url(#_clipPath_bGB7DeR4aXejQhOu2t4nktkhXenLpAb3)"><g id="bg"><rect x="0" y="0" width="150" height="380" transform="matrix(1,0,0,1,0,0)" fill="rgb(240,240,240)"/><path d=" M 69.082 369.599 C 68.927 369.747 68.783 369.851 68.65 369.909 C 68.517 369.968 68.375 369.998 68.224 369.998 C 68.072 369.998 67.93 369.97 67.797 369.914 C 67.664 369.858 67.548 369.781 67.449 369.682 C 67.233 369.466 67.124 369.209 67.124 368.912 L 67.124 363.385 C 67.124 363.082 67.202 362.847 67.356 362.68 C 67.622 362.408 67.874 362.272 68.112 362.272 C 68.35 362.272 68.528 362.296 68.646 362.346 C 68.763 362.395 68.862 362.457 68.942 362.531 C 69.048 362.624 69.126 362.723 69.179 362.828 C 69.232 362.933 69.275 363.011 69.309 363.06 C 69.343 363.11 69.399 363.134 69.476 363.134 C 69.553 363.134 69.62 363.11 69.675 363.06 L 69.833 362.902 C 70.284 362.482 70.736 362.272 71.187 362.272 C 71.985 362.272 72.643 362.599 73.163 363.255 C 73.212 363.323 73.274 363.357 73.348 363.357 C 73.478 363.357 73.61 363.256 73.743 363.055 C 73.876 362.854 74.09 362.674 74.387 362.513 C 74.684 362.352 75.03 362.272 75.426 362.272 C 75.822 362.272 76.182 362.344 76.507 362.49 C 76.831 362.635 77.114 362.834 77.355 363.088 C 77.862 363.62 78.116 364.263 78.116 365.017 L 78.116 368.912 C 78.116 369.382 77.893 369.713 77.448 369.905 C 77.312 369.967 77.168 369.998 77.017 369.998 C 76.865 369.998 76.723 369.97 76.59 369.914 C 76.457 369.858 76.341 369.781 76.242 369.682 C 76.032 369.46 75.927 369.203 75.927 368.912 L 75.927 365.045 C 75.927 364.736 75.85 364.504 75.695 364.349 C 75.423 364.077 75.173 363.941 74.944 363.941 C 74.715 363.941 74.536 363.971 74.406 364.029 C 74.276 364.088 74.158 364.17 74.053 364.275 C 73.837 364.492 73.729 364.742 73.729 365.026 L 73.729 368.912 C 73.729 369.382 73.509 369.713 73.07 369.905 C 72.934 369.967 72.79 369.998 72.639 369.998 C 72.487 369.998 72.344 369.97 72.207 369.914 C 72.071 369.858 71.954 369.781 71.855 369.682 C 71.639 369.466 71.53 369.209 71.53 368.912 L 71.53 365.045 C 71.53 364.736 71.453 364.504 71.298 364.349 C 71.026 364.077 70.742 363.941 70.445 363.941 C 69.95 363.941 69.607 364.133 69.416 364.516 C 69.354 364.64 69.323 364.779 69.323 364.934 L 69.323 368.912 C 69.323 369.215 69.242 369.444 69.082 369.599 Z  M 80.343 363.387 C 80.343 363.084 80.42 362.849 80.575 362.682 C 80.84 362.41 81.134 362.274 81.456 362.274 C 81.765 362.274 81.994 362.355 82.142 362.515 C 82.414 362.794 82.55 363.084 82.55 363.387 L 82.55 368.915 C 82.55 369.212 82.473 369.437 82.318 369.592 C 82.046 369.864 81.796 370 81.567 370 C 81.338 370 81.156 369.971 81.02 369.912 C 80.884 369.853 80.766 369.777 80.667 369.685 C 80.451 369.474 80.343 369.218 80.343 368.915 L 80.343 363.387 Z  M 81.451 359.9 C 81.189 359.9 80.976 359.687 80.976 359.425 C 80.976 359.162 81.189 358.95 81.451 358.95 C 81.713 358.95 81.926 359.162 81.926 359.425 C 81.926 359.687 81.713 359.9 81.451 359.9 Z  M 81.451 358 C 81.838 358 82.172 358.142 82.453 358.425 C 82.735 358.709 82.876 358.996 82.876 359.287 C 82.876 359.577 82.837 359.807 82.759 359.978 C 82.682 360.148 82.58 360.297 82.453 360.424 C 82.172 360.708 81.838 360.849 81.451 360.849 C 81.064 360.849 80.73 360.708 80.448 360.424 C 80.167 360.141 80.026 359.857 80.026 359.574 C 80.026 359.092 80.167 358.709 80.448 358.425 C 80.73 358.142 81.064 358 81.451 358 Z " fill-rule="evenodd" fill="rgb(10,118,187)"/><path d=" M 0 174 L 150 60 L 150 80 L 0 194 L 0 174 Z  M 0 214 L 150 100 L 150 120 L 0 234 L 0 214 Z  M 0 134 L 150 20 L 150 40 L 0 154 L 0 134 Z " fill-rule="evenodd" fill="rgb(0,0,0)" fill-opacity="0.02"/><path d=" M 92.508 28.31 L 92.508 28.31 Q 90.128 28.31 88.826 27.022 L 88.826 27.022 L 88.826 27.022 Q 87.524 25.734 87.524 23.34 L 87.524 23.34 L 87.524 23.34 Q 87.524 20.946 88.805 19.658 L 88.805 19.658 L 88.805 19.658 Q 90.086 18.37 92.466 18.37 L 92.466 18.37 L 92.466 18.37 Q 93.418 18.37 94.23 18.566 L 94.23 18.566 L 94.23 18.566 Q 95.042 18.762 95.602 19.126 L 95.602 19.126 L 95.602 19.126 Q 95.728 19.21 95.728 19.308 L 95.728 19.308 L 95.728 19.308 Q 95.728 19.392 95.658 19.504 L 95.658 19.504 L 95.266 20.176 L 95.266 20.176 Q 95.182 20.302 95.112 20.302 L 95.112 20.302 L 95.112 20.302 Q 95.056 20.302 94.916 20.232 L 94.916 20.232 L 94.916 20.232 Q 94.034 19.7 92.662 19.7 L 92.662 19.7 L 92.662 19.7 Q 91.08 19.7 90.184 20.61 L 90.184 20.61 L 90.184 20.61 Q 89.288 21.52 89.288 23.34 L 89.288 23.34 L 89.288 23.34 Q 89.288 25.188 90.212 26.091 L 90.212 26.091 L 90.212 26.091 Q 91.136 26.994 92.704 26.994 L 92.704 26.994 L 92.704 26.994 Q 94.16 26.994 95.098 26.448 L 95.098 26.448 L 95.098 26.448 Q 95.238 26.378 95.28 26.378 L 95.28 26.378 L 95.28 26.378 Q 95.364 26.378 95.448 26.504 L 95.448 26.504 L 95.882 27.232 L 95.882 27.232 Q 95.924 27.316 95.924 27.372 L 95.924 27.372 L 95.924 27.372 Q 95.924 27.456 95.77 27.554 L 95.77 27.554 L 95.77 27.554 Q 94.692 28.31 92.508 28.31 L 92.508 28.31 L 92.508 28.31 Z  M 101.986 28.31 L 101.986 28.31 Q 99.606 28.31 98.304 27.022 L 98.304 27.022 L 98.304 27.022 Q 97.002 25.734 97.002 23.34 L 97.002 23.34 L 97.002 23.34 Q 97.002 20.946 98.283 19.658 L 98.283 19.658 L 98.283 19.658 Q 99.564 18.37 101.944 18.37 L 101.944 18.37 L 101.944 18.37 Q 102.896 18.37 103.708 18.566 L 103.708 18.566 L 103.708 18.566 Q 104.52 18.762 105.08 19.126 L 105.08 19.126 L 105.08 19.126 Q 105.206 19.21 105.206 19.308 L 105.206 19.308 L 105.206 19.308 Q 105.206 19.392 105.136 19.504 L 105.136 19.504 L 104.744 20.176 L 104.744 20.176 Q 104.66 20.302 104.59 20.302 L 104.59 20.302 L 104.59 20.302 Q 104.534 20.302 104.394 20.232 L 104.394 20.232 L 104.394 20.232 Q 103.512 19.7 102.14 19.7 L 102.14 19.7 L 102.14 19.7 Q 100.558 19.7 99.662 20.61 L 99.662 20.61 L 99.662 20.61 Q 98.766 21.52 98.766 23.34 L 98.766 23.34 L 98.766 23.34 Q 98.766 25.188 99.69 26.091 L 99.69 26.091 L 99.69 26.091 Q 100.614 26.994 102.182 26.994 L 102.182 26.994 L 102.182 26.994 Q 103.638 26.994 104.576 26.448 L 104.576 26.448 L 104.576 26.448 Q 104.716 26.378 104.758 26.378 L 104.758 26.378 L 104.758 26.378 Q 104.842 26.378 104.926 26.504 L 104.926 26.504 L 105.36 27.232 L 105.36 27.232 Q 105.402 27.316 105.402 27.372 L 105.402 27.372 L 105.402 27.372 Q 105.402 27.456 105.248 27.554 L 105.248 27.554 L 105.248 27.554 Q 104.17 28.31 101.986 28.31 L 101.986 28.31 L 101.986 28.31 Z  M 75.876 24.6 L 75.876 24.6 Q 75.652 24.6 75.561 24.502 L 75.561 24.502 L 75.561 24.502 Q 75.47 24.404 75.47 24.18 L 75.47 24.18 L 75.47 23.662 L 75.47 23.662 Q 75.47 23.438 75.561 23.34 L 75.561 23.34 L 75.561 23.34 Q 75.652 23.242 75.876 23.242 L 75.876 23.242 L 80.566 23.242 L 80.566 23.242 Q 80.776 23.242 80.874 23.347 L 80.874 23.347 L 80.874 23.347 Q 80.972 23.452 80.972 23.662 L 80.972 23.662 L 80.972 24.18 L 80.972 24.18 Q 80.972 24.39 80.874 24.495 L 80.874 24.495 L 80.874 24.495 Q 80.776 24.6 80.566 24.6 L 80.566 24.6 L 75.876 24.6 L 75.876 24.6 Z  M 43.41 28.1 L 43.41 28.1 Q 43.13 28.1 43.011 27.974 L 43.011 27.974 L 43.011 27.974 Q 42.892 27.848 42.892 27.596 L 42.892 27.596 L 42.892 19.098 L 42.892 19.098 Q 42.892 18.832 43.011 18.706 L 43.011 18.706 L 43.011 18.706 Q 43.13 18.58 43.424 18.58 L 43.424 18.58 L 44.18 18.58 L 44.18 18.58 Q 44.404 18.58 44.523 18.636 L 44.523 18.636 L 44.523 18.636 Q 44.642 18.692 44.712 18.86 L 44.712 18.86 L 47.54 25.37 L 50.368 18.86 L 50.368 18.86 Q 50.438 18.692 50.557 18.636 L 50.557 18.636 L 50.557 18.636 Q 50.676 18.58 50.9 18.58 L 50.9 18.58 L 51.656 18.58 L 51.656 18.58 Q 51.95 18.58 52.069 18.706 L 52.069 18.706 L 52.069 18.706 Q 52.188 18.832 52.188 19.098 L 52.188 19.098 L 52.188 27.596 L 52.188 27.596 Q 52.188 27.848 52.069 27.974 L 52.069 27.974 L 52.069 27.974 Q 51.95 28.1 51.67 28.1 L 51.67 28.1 L 51.054 28.1 L 51.054 28.1 Q 50.774 28.1 50.648 27.974 L 50.648 27.974 L 50.648 27.974 Q 50.522 27.848 50.522 27.596 L 50.522 27.596 L 50.522 21.562 L 48.128 26.896 L 48.128 26.896 Q 48.016 27.12 47.904 27.218 L 47.904 27.218 L 47.904 27.218 Q 47.792 27.316 47.54 27.316 L 47.54 27.316 L 47.54 27.316 Q 47.288 27.316 47.169 27.218 L 47.169 27.218 L 47.169 27.218 Q 47.05 27.12 46.952 26.896 L 46.952 26.896 L 44.558 21.562 L 44.558 27.596 L 44.558 27.596 Q 44.558 27.848 44.439 27.974 L 44.439 27.974 L 44.439 27.974 Q 44.32 28.1 44.026 28.1 L 44.026 28.1 L 43.41 28.1 L 43.41 28.1 Z  M 54.358 28.1 L 54.358 28.1 Q 54.078 28.1 53.959 27.974 L 53.959 27.974 L 53.959 27.974 Q 53.84 27.848 53.84 27.596 L 53.84 27.596 L 53.84 19.098 L 53.84 19.098 Q 53.84 18.832 53.959 18.706 L 53.959 18.706 L 53.959 18.706 Q 54.078 18.58 54.358 18.58 L 54.358 18.58 L 55.1 18.58 L 55.1 18.58 Q 55.38 18.58 55.506 18.706 L 55.506 18.706 L 55.506 18.706 Q 55.632 18.832 55.632 19.098 L 55.632 19.098 L 55.632 27.596 L 55.632 27.596 Q 55.632 27.848 55.513 27.974 L 55.513 27.974 L 55.513 27.974 Q 55.394 28.1 55.1 28.1 L 55.1 28.1 L 54.358 28.1 L 54.358 28.1 Z  M 57.802 28.1 L 57.802 28.1 Q 57.522 28.1 57.403 27.974 L 57.403 27.974 L 57.403 27.974 Q 57.284 27.848 57.284 27.596 L 57.284 27.596 L 57.284 19.098 L 57.284 19.098 Q 57.284 18.832 57.403 18.706 L 57.403 18.706 L 57.403 18.706 Q 57.522 18.58 57.802 18.58 L 57.802 18.58 L 60.602 18.58 L 60.602 18.58 Q 62.968 18.58 64.221 19.714 L 64.221 19.714 L 64.221 19.714 Q 65.474 20.848 65.474 23.34 L 65.474 23.34 L 65.474 23.34 Q 65.474 28.1 60.602 28.1 L 60.602 28.1 L 57.802 28.1 L 57.802 28.1 Z  M 59.076 26.742 L 60.714 26.742 L 60.714 26.742 Q 62.198 26.742 62.947 25.972 L 62.947 25.972 L 62.947 25.972 Q 63.696 25.202 63.696 23.34 L 63.696 23.34 L 63.696 23.34 Q 63.696 21.478 62.947 20.715 L 62.947 20.715 L 62.947 20.715 Q 62.198 19.952 60.714 19.952 L 60.714 19.952 L 59.076 19.952 L 59.076 26.742 L 59.076 26.742 Z  M 67.364 28.1 L 67.364 28.1 Q 67.084 28.1 66.965 27.974 L 66.965 27.974 L 66.965 27.974 Q 66.846 27.848 66.846 27.596 L 66.846 27.596 L 66.846 19.098 L 66.846 19.098 Q 66.846 18.832 66.965 18.706 L 66.965 18.706 L 66.965 18.706 Q 67.084 18.58 67.364 18.58 L 67.364 18.58 L 68.106 18.58 L 68.106 18.58 Q 68.386 18.58 68.512 18.706 L 68.512 18.706 L 68.512 18.706 Q 68.638 18.832 68.638 19.098 L 68.638 19.098 L 68.638 27.596 L 68.638 27.596 Q 68.638 27.848 68.519 27.974 L 68.519 27.974 L 68.519 27.974 Q 68.4 28.1 68.106 28.1 L 68.106 28.1 L 67.364 28.1 L 67.364 28.1 Z " fill-rule="evenodd" fill="rgb(0,0,0)"/></g><path d=" M 21.167 214 L 26.5 217.333 L 32.833 214.667 L 35.833 218.333 L 38.833 222 L 36.5 227.333 L 37.833 232.333 L 36.833 240 L 37.5 243.667 L 29.5 242.667 L 24.167 244.667 L 20.5 241.667 L 14.833 243.667 L 8.167 238.333 L 9.5 232.333 L 9.167 225.333 L 11.833 220 L 7.167 215 L 15.5 213.333 L 21.167 214 Z " fill="rgb(0,0,0)"/><path d=" M 48.833 215 L 54.5 213 L 60.167 216 L 67.5 213.333 L 68.5 219 L 73.833 224.667 L 71.5 228.667 L 71.833 235.333 L 67.833 239.333 L 70.5 244.333 L 61.833 243.333 L 58.167 239.333 L 47.167 246 L 46.5 241.333 L 42.167 236 L 46.167 231 L 41.167 223 L 43.167 214.667 L 48.833 215 Z " fill="rgb(0,0,0)"/><path d=" M 87.5 212 L 90.833 216.333 L 98.833 214 L 102.833 218 L 107.5 222.333 L 103.833 228 L 106.167 238.667 L 100.5 241.667 L 92.167 244.667 L 88.5 238.667 L 82.167 243.667 L 76.5 238.333 L 81.167 234 L 76.167 226.333 L 78.167 220 L 77.5 215.333 L 87.5 212 Z " fill="rgb(0,0,0)"/><path d=" M 122.167 213.333 L 128.5 215.667 L 132.167 213.333 L 138.167 215 L 140.833 225 L 138.167 228.333 L 139.5 235 L 138.167 242.333 L 131.833 243.333 L 123.167 241.333 L 116.5 242.333 L 112.833 239.333 L 111.833 231.333 L 113.5 223.667 L 111.167 221.667 L 113.833 214 L 122.167 213.333 Z " fill="rgb(0,0,0)"/><path d=" M 114.5 250.667 L 123.5 248 L 129.167 250 L 135.167 249.667 L 139.167 252 L 142.833 258 L 139.833 261.667 L 139.833 267.667 L 140.833 274 L 136.167 277 L 128.167 277 L 124.5 280 L 116.833 276 L 111.833 275.667 L 111.5 268.333 L 112.167 264.667 L 110.5 257.333 L 114.5 250.667 Z " fill="rgb(0,0,0)"/><path d=" M 114.167 284.333 L 120.833 283 L 122.833 283.667 L 129.833 283.667 L 136.833 286 L 140.5 286 L 141.5 296.667 L 139.5 300.333 L 139.5 310.333 L 131.833 309.333 L 126.833 312.333 L 118.167 312.333 L 117.167 310 L 111.833 306 L 111.833 297 L 110.5 289.667 L 114.167 284.333 Z " fill="rgb(0,0,0)"/><path d=" M 115.833 317.333 L 122.833 316.667 L 129.833 318.333 L 139.5 318.667 L 139.5 324.333 L 142.5 330.333 L 139.167 339 L 138.167 347 L 131.5 345 L 126.833 346.333 L 119.167 345.667 L 113.167 343 L 112.167 336.667 L 113.167 332.333 L 111.5 325.667 L 112.5 320.667 L 115.833 317.333 Z " fill="rgb(0,0,0)"/><path d=" M 82.833 284.667 L 88.833 283.333 L 97.5 283 L 103.833 286.333 L 107.833 292.333 L 105.167 296.667 L 106.833 306.667 L 104.5 311.333 L 96.167 311.667 L 87.167 311.333 L 84.167 312.667 L 76.5 305.333 L 77.833 300.333 L 77.833 291.667 L 82.833 284.667 Z " fill="rgb(0,0,0)"/><path d=" M 81.167 249.667 L 88.5 248.333 L 91.5 249.333 L 101.5 250 L 104.167 249.667 L 105.5 258 L 105.5 264.333 L 106.5 270.667 L 102.833 276 L 95.167 276.667 L 86.833 277 L 80.833 275 L 79.833 271.333 L 77.167 265.667 L 77.833 257.333 L 81.167 249.667 Z " fill="rgb(0,0,0)"/><path d=" M 49.167 250.667 L 53.5 249.333 L 61.5 251 L 65.833 248.667 L 71.833 255 L 70.167 259.667 L 73.167 270.667 L 70.833 275.333 L 61.833 277.333 L 52.5 274 L 46.5 276.667 L 45.167 269 L 41.5 264.333 L 43.833 255 L 49.167 250.667 Z " fill="rgb(0,0,0)"/><path d=" M 15.167 248.667 L 25.167 248.667 L 28.167 250.667 L 32.5 252.333 L 37.167 253 L 37.833 260 L 36.167 268 L 37.5 275.333 L 30.833 275.667 L 17.167 277.333 L 11.5 278.333 L 10.5 268.333 L 7.833 259 L 9.833 254 L 15.167 248.667 Z " fill="rgb(0,0,0)"/><path d=" M 46.5 283.667 L 54.5 281.667 L 60.833 283 L 71.167 285.333 L 70.833 294.333 L 72.833 301 L 70.167 306.667 L 70.167 312.333 L 61.5 311 L 52.5 311.333 L 45.5 307.333 L 41.833 300 L 43.5 296.333 L 43.5 290 L 46.5 283.667 Z " fill="rgb(0,0,0)"/><path d=" M 84.167 318 L 92.167 315.667 L 99.167 318.667 L 107.5 319 L 106.167 327 L 106.167 334.333 L 105.167 337.667 L 105.833 345.333 L 100.5 345.333 L 95.833 346.667 L 90.833 342.333 L 85.833 346.667 L 76.833 342.667 L 78.5 333.667 L 76.167 329.667 L 79.5 320.667 L 84.167 318 Z " fill="rgb(0,0,0)"/><path d=" M 18.833 316.667 L 23.833 318.333 L 27.833 316.667 L 31.833 318.667 L 38.5 318.667 L 35.833 324.333 L 37.5 331.667 L 35.167 335.667 L 36.167 342 L 31.833 348.333 L 26.833 346.333 L 17.5 346 L 15.167 343.333 L 10.5 344.333 L 9.833 336.667 L 7.833 332.333 L 10.167 328.333 L 8.833 321 L 10.833 319 L 18.833 316.667 Z " fill="rgb(0,0,0)"/><path d=" M 16.833 284.333 L 21.833 283.333 L 29.5 283.333 L 33.5 282.333 L 35.5 287.333 L 34.833 293.333 L 35.5 296 L 38.5 303.333 L 36.5 312 L 31.167 310.667 L 20.833 311.333 L 12.167 308.333 L 8.5 310.333 L 8.5 297.667 L 10.5 295.333 L 8.5 287 L 11.5 283.667 L 16.833 284.333 Z " fill="rgb(0,0,0)"/><path d=" M 55.5 319 L 61.167 318.333 L 69.167 320.667 L 71.833 325.667 L 69.833 333.333 L 72.5 338.667 L 70.5 345 L 64.167 345 L 60.167 346.667 L 52.833 344.667 L 47.5 346 L 42.167 339 L 44.167 332.333 L 42.833 326 L 44.5 322.667 L 44.167 317 L 53.167 315.667 L 55.5 319 Z " fill="rgb(0,0,0)"/></g></svg>