<?xml version="1.0" standalone="no"?><!-- Generator: Gravit.io --><svg xmlns="http://www.w3.org/2000/svg" xmlns:xlink="http://www.w3.org/1999/xlink" style="isolation:isolate" viewBox="0 0 240 380" width="240" height="380"><defs><clipPath id="_clipPath_5yqvML2Tv1XtP069pf1zc4vDbePYVenU"><rect width="240" height="380"/></clipPath></defs><g clip-path="url(#_clipPath_5yqvML2Tv1XtP069pf1zc4vDbePYVenU)"><g id="bg"><rect x="0" y="0" width="240" height="380" transform="matrix(1,0,0,1,0,0)" fill="rgb(240,240,240)"/><path d=" M 114.081618 369.598705 C 113.927026 369.747088 113.783257 369.850659 113.650311 369.909418 C 113.51736 369.968177 113.375138 369.997539 113.223635 369.997539 C 113.072137 369.997539 112.929914 369.969715 112.796964 369.914067 C 112.664013 369.858419 112.548073 369.781099 112.449133 369.682177 C 112.232702 369.465737 112.12449 369.209133 112.12449 368.912298 L 112.12449 363.384743 C 112.12449 363.08172 112.201784 362.846754 112.356376 362.67981 C 112.622277 362.407722 112.874258 362.271678 113.11233 362.271678 C 113.350403 362.271678 113.528179 362.296391 113.64567 362.345887 C 113.763162 362.395348 113.862097 362.457183 113.942485 362.531392 C 114.047611 362.624127 114.126452 362.723084 114.179011 362.828193 C 114.231574 362.933337 114.274857 363.010622 114.308868 363.060083 C 114.342879 363.109544 114.398531 363.134292 114.475829 363.134292 C 114.553123 363.134292 114.619598 363.109544 114.675251 363.060083 L 114.832932 362.902402 C 115.284342 362.481931 115.735744 362.271678 116.187154 362.271678 C 116.984853 362.271678 117.643406 362.599414 118.162834 363.254886 C 118.212304 363.322908 118.274139 363.356919 118.348343 363.356919 C 118.4782 363.356919 118.609604 363.256424 118.742555 363.055434 C 118.875501 362.854479 119.090381 362.673623 119.3872 362.512831 C 119.684018 362.352074 120.030298 362.271678 120.426056 362.271678 C 120.82181 362.271678 121.182006 362.344314 121.506648 362.489656 C 121.831291 362.634963 122.114193 362.83438 122.355355 363.087907 C 122.862418 363.619709 123.115945 364.262808 123.115945 365.017202 L 123.115945 368.912298 C 123.115945 369.382265 122.893335 369.713077 122.448112 369.904769 C 122.312068 369.966604 122.168303 369.997539 122.0168 369.997539 C 121.865302 369.997539 121.723075 369.969715 121.590129 369.914067 C 121.457179 369.858419 121.341238 369.781099 121.242298 369.682177 C 121.03205 369.45955 120.926932 369.202946 120.926932 368.912298 L 120.926932 365.04506 C 120.926932 364.735851 120.849634 364.503961 120.695042 364.34939 C 120.422963 364.077302 120.172525 363.941258 119.943728 363.941258 C 119.714932 363.941258 119.535609 363.970621 119.405752 364.029379 C 119.275891 364.088138 119.158403 364.170072 119.053281 364.275181 C 118.836854 364.491621 118.728638 364.742038 118.728638 365.0265 L 118.728638 368.912298 C 118.728638 369.382265 118.509122 369.713077 118.070081 369.904769 C 117.934037 369.966604 117.790268 369.997539 117.63877 369.997539 C 117.487267 369.997539 117.343502 369.969715 117.207458 369.914067 C 117.071419 369.858419 116.953931 369.781099 116.854992 369.682177 C 116.638561 369.465737 116.530349 369.209133 116.530349 368.912298 L 116.530349 365.04506 C 116.530349 364.735851 116.453051 364.503961 116.298459 364.34939 C 116.02638 364.077302 115.741935 363.941258 115.445117 363.941258 C 114.950419 363.941258 114.607233 364.13295 114.415537 364.516335 C 114.353701 364.640005 114.32278 364.779159 114.32278 364.93373 L 114.32278 368.912298 C 114.32278 369.21532 114.242397 369.4441 114.081618 369.598705 Z  M 125.342682 363.387204 C 125.342682 363.084216 125.419976 362.849215 125.574568 362.682271 C 125.840469 362.410183 126.13419 362.274139 126.455739 362.274139 C 126.764923 362.274139 126.993719 362.354535 127.142128 362.515292 C 127.414208 362.793567 127.550252 363.084216 127.550252 363.387204 L 127.550252 368.914793 C 127.550252 369.211595 127.472958 369.437298 127.318362 369.591902 C 127.046282 369.863956 126.79584 370 126.567044 370 C 126.338247 370 126.155835 369.970638 126.019791 369.911879 C 125.883752 369.853155 125.766264 369.777407 125.667325 369.684638 C 125.450893 369.474385 125.342682 369.217781 125.342682 368.914793 L 125.342682 363.387204 Z  M 126.450791 359.899625 C 126.188513 359.899625 125.975889 359.687013 125.975889 359.424702 C 125.975889 359.162424 126.188513 358.949812 126.450791 358.949812 C 126.713077 358.949812 126.925697 359.162424 126.925697 359.424702 C 126.925697 359.687013 126.713077 359.899625 126.450791 359.899625 Z  M 126.450791 358 C 126.837756 358 127.171943 358.141752 127.453372 358.425291 C 127.7348 358.70883 127.87551 358.99589 127.87551 359.286504 C 127.87551 359.577119 127.836816 359.80747 127.759419 359.977594 C 127.682031 360.147717 127.580016 360.296545 127.453372 360.424146 C 127.171943 360.707685 126.837756 360.849437 126.450791 360.849437 C 126.063835 360.849437 125.729643 360.707685 125.448219 360.424146 C 125.166791 360.140607 125.026081 359.857103 125.026081 359.573564 C 125.026081 359.091565 125.166791 358.70883 125.448219 358.425291 C 125.729643 358.141752 126.063835 358 126.450791 358 Z " fill-rule="evenodd" fill="rgb(10,118,187)"/><g id="stripes"><path d=" M -60 305 L 240 20 L 240 40 L -60 325 L -60 305 Z " fill="rgb(116,127,134)" fill-opacity="0.05"/><path d=" M -60 345 L 240 60 L 240 80 L -60 365 L -60 345 Z " fill="rgb(116,127,134)" fill-opacity="0.05"/><path d=" M -60 385 L 240 100 L 240 120 L -60 405 L -60 385 Z " fill="rgb(116,127,134)" fill-opacity="0.05"/></g><path d=" M 99.911 28.1 L 99.911 28.1 Q 99.575 28.1 99.428 27.953 L 99.428 27.953 L 99.428 27.953 Q 99.281 27.806 99.281 27.498 L 99.281 27.498 L 99.281 19.182 L 99.281 19.182 Q 99.281 18.874 99.428 18.727 L 99.428 18.727 L 99.428 18.727 Q 99.575 18.58 99.925 18.58 L 99.925 18.58 L 100.793 18.58 L 100.793 18.58 Q 101.031 18.58 101.15 18.643 L 101.15 18.643 L 101.15 18.643 Q 101.269 18.706 101.409 18.888 L 101.409 18.888 L 105.329 24.418 L 105.329 19.196 L 105.329 19.196 Q 105.329 18.888 105.476 18.734 L 105.476 18.734 L 105.476 18.734 Q 105.623 18.58 105.959 18.58 L 105.959 18.58 L 107.009 18.58 L 107.009 18.58 Q 107.359 18.58 107.499 18.727 L 107.499 18.727 L 107.499 18.727 Q 107.639 18.874 107.639 19.196 L 107.639 19.196 L 107.639 27.498 L 107.639 27.498 Q 107.639 27.806 107.499 27.953 L 107.499 27.953 L 107.499 27.953 Q 107.359 28.1 107.009 28.1 L 107.009 28.1 L 106.127 28.1 L 106.127 28.1 Q 105.903 28.1 105.784 28.037 L 105.784 28.037 L 105.784 28.037 Q 105.665 27.974 105.525 27.792 L 105.525 27.792 L 101.591 22.276 L 101.591 27.498 L 101.591 27.498 Q 101.591 27.806 101.451 27.953 L 101.451 27.953 L 101.451 27.953 Q 101.311 28.1 100.961 28.1 L 100.961 28.1 L 99.911 28.1 L 99.911 28.1 Z  M 112.707 28.31 L 112.707 28.31 Q 110.845 28.31 109.816 27.351 L 109.816 27.351 L 109.816 27.351 Q 108.787 26.392 108.787 24.74 L 108.787 24.74 L 108.787 24.74 Q 108.787 23.088 109.816 22.129 L 109.816 22.129 L 109.816 22.129 Q 110.845 21.17 112.707 21.17 L 112.707 21.17 L 112.707 21.17 Q 114.583 21.17 115.612 22.129 L 115.612 22.129 L 115.612 22.129 Q 116.641 23.088 116.641 24.74 L 116.641 24.74 L 116.641 24.74 Q 116.641 26.392 115.612 27.351 L 115.612 27.351 L 115.612 27.351 Q 114.583 28.31 112.707 28.31 L 112.707 28.31 L 112.707 28.31 Z  M 112.707 26.644 L 112.707 26.644 Q 113.505 26.644 113.925 26.168 L 113.925 26.168 L 113.925 26.168 Q 114.345 25.692 114.345 24.74 L 114.345 24.74 L 114.345 24.74 Q 114.345 23.802 113.925 23.326 L 113.925 23.326 L 113.925 23.326 Q 113.505 22.85 112.707 22.85 L 112.707 22.85 L 112.707 22.85 Q 111.923 22.85 111.503 23.326 L 111.503 23.326 L 111.503 23.326 Q 111.083 23.802 111.083 24.74 L 111.083 24.74 L 111.083 24.74 Q 111.083 25.678 111.503 26.161 L 111.503 26.161 L 111.503 26.161 Q 111.923 26.644 112.707 26.644 L 112.707 26.644 L 112.707 26.644 Z  M 121.079 28.31 L 121.079 28.31 Q 119.805 28.31 119.147 27.61 L 119.147 27.61 L 119.147 27.61 Q 118.489 26.91 118.489 25.678 L 118.489 25.678 L 118.489 23.004 L 117.803 23.004 L 117.803 23.004 Q 117.467 23.004 117.355 22.878 L 117.355 22.878 L 117.355 22.878 Q 117.243 22.752 117.243 22.43 L 117.243 22.43 L 117.243 21.968 L 117.243 21.968 Q 117.243 21.646 117.355 21.513 L 117.355 21.513 L 117.355 21.513 Q 117.467 21.38 117.803 21.38 L 117.803 21.38 L 118.489 21.38 L 118.489 20.82 L 118.489 20.82 Q 118.489 20.512 118.622 20.211 L 118.622 20.211 L 118.622 20.211 Q 118.755 19.91 119.007 19.462 L 119.007 19.462 L 119.007 19.462 Q 119.119 19.266 119.217 19.203 L 119.217 19.203 L 119.217 19.203 Q 119.315 19.14 119.567 19.14 L 119.567 19.14 L 120.211 19.14 L 120.211 19.14 Q 120.533 19.14 120.666 19.28 L 120.666 19.28 L 120.666 19.28 Q 120.799 19.42 120.799 19.728 L 120.799 19.728 L 120.799 21.38 L 122.185 21.38 L 122.185 21.38 Q 122.521 21.38 122.633 21.513 L 122.633 21.513 L 122.633 21.513 Q 122.745 21.646 122.745 21.968 L 122.745 21.968 L 122.745 22.43 L 122.745 22.43 Q 122.745 22.752 122.633 22.878 L 122.633 22.878 L 122.633 22.878 Q 122.521 23.004 122.185 23.004 L 122.185 23.004 L 120.799 23.004 L 120.799 25.622 L 120.799 25.622 Q 120.799 26.168 120.995 26.406 L 120.995 26.406 L 120.995 26.406 Q 121.191 26.644 121.653 26.644 L 121.653 26.644 L 121.653 26.644 Q 121.933 26.644 122.122 26.574 L 122.122 26.574 L 122.122 26.574 Q 122.311 26.504 122.549 26.35 L 122.549 26.35 L 122.549 26.35 Q 122.661 26.28 122.717 26.28 L 122.717 26.28 L 122.717 26.28 Q 122.843 26.28 122.927 26.434 L 122.927 26.434 L 123.445 27.316 L 123.445 27.316 Q 123.515 27.428 123.515 27.498 L 123.515 27.498 L 123.515 27.498 Q 123.515 27.596 123.347 27.708 L 123.347 27.708 L 123.347 27.708 Q 122.465 28.31 121.079 28.31 L 121.079 28.31 L 121.079 28.31 Z  M 128.107 28.31 L 128.107 28.31 Q 126.973 28.31 126.07 27.925 L 126.07 27.925 L 126.07 27.925 Q 125.167 27.54 124.642 26.763 L 124.642 26.763 L 124.642 26.763 Q 124.117 25.986 124.117 24.838 L 124.117 24.838 L 124.117 24.838 Q 124.117 23.046 125.104 22.108 L 125.104 22.108 L 125.104 22.108 Q 126.091 21.17 127.925 21.17 L 127.925 21.17 L 127.925 21.17 Q 129.731 21.17 130.662 22.08 L 130.662 22.08 L 130.662 22.08 Q 131.593 22.99 131.593 24.67 L 131.593 24.67 L 131.593 24.67 Q 131.593 25.258 131.061 25.258 L 131.061 25.258 L 126.301 25.258 L 126.301 25.258 Q 126.301 26.014 126.868 26.427 L 126.868 26.427 L 126.868 26.427 Q 127.435 26.84 128.429 26.84 L 128.429 26.84 L 128.429 26.84 Q 129.017 26.84 129.451 26.721 L 129.451 26.721 L 129.451 26.721 Q 129.885 26.602 130.291 26.378 L 130.291 26.378 L 130.291 26.378 Q 130.431 26.308 130.487 26.308 L 130.487 26.308 L 130.487 26.308 Q 130.585 26.308 130.669 26.462 L 130.669 26.462 L 131.075 27.218 L 131.075 27.218 Q 131.131 27.316 131.131 27.386 L 131.131 27.386 L 131.131 27.386 Q 131.131 27.498 130.977 27.61 L 130.977 27.61 L 130.977 27.61 Q 130.417 27.974 129.717 28.142 L 129.717 28.142 L 129.717 28.142 Q 129.017 28.31 128.107 28.31 L 128.107 28.31 L 128.107 28.31 Z  M 126.301 24.054 L 129.521 24.054 L 129.521 24.054 Q 129.521 23.354 129.129 22.962 L 129.129 22.962 L 129.129 22.962 Q 128.737 22.57 127.939 22.57 L 127.939 22.57 L 127.939 22.57 Q 127.141 22.57 126.721 22.969 L 126.721 22.969 L 126.721 22.969 Q 126.301 23.368 126.301 24.054 L 126.301 24.054 L 126.301 24.054 Z  M 135.821 28.31 L 135.821 28.31 Q 134.925 28.31 134.113 28.128 L 134.113 28.128 L 134.113 28.128 Q 133.301 27.946 132.685 27.596 L 132.685 27.596 L 132.685 27.596 Q 132.461 27.47 132.461 27.344 L 132.461 27.344 L 132.461 27.344 Q 132.461 27.274 132.531 27.162 L 132.531 27.162 L 133.021 26.294 L 133.021 26.294 Q 133.105 26.154 133.189 26.154 L 133.189 26.154 L 133.189 26.154 Q 133.287 26.154 133.399 26.224 L 133.399 26.224 L 133.399 26.224 Q 133.805 26.462 134.414 26.63 L 134.414 26.63 L 134.414 26.63 Q 135.023 26.798 135.527 26.798 L 135.527 26.798 L 135.527 26.798 Q 136.143 26.798 136.416 26.665 L 136.416 26.665 L 136.416 26.665 Q 136.689 26.532 136.689 26.21 L 136.689 26.21 L 136.689 26.21 Q 136.689 26 136.514 25.853 L 136.514 25.853 L 136.514 25.853 Q 136.339 25.706 136.031 25.601 L 136.031 25.601 L 136.031 25.601 Q 135.723 25.496 134.967 25.272 L 134.967 25.272 L 134.967 25.272 Q 133.805 24.922 133.273 24.474 L 133.273 24.474 L 133.273 24.474 Q 132.741 24.026 132.741 23.2 L 132.741 23.2 L 132.741 23.2 Q 132.741 22.206 133.574 21.688 L 133.574 21.688 L 133.574 21.688 Q 134.407 21.17 135.807 21.17 L 135.807 21.17 L 135.807 21.17 Q 137.459 21.17 138.621 21.842 L 138.621 21.842 L 138.621 21.842 Q 138.845 21.968 138.845 22.108 L 138.845 22.108 L 138.845 22.108 Q 138.845 22.192 138.761 22.318 L 138.761 22.318 L 138.285 23.074 L 138.285 23.074 Q 138.201 23.214 138.117 23.214 L 138.117 23.214 L 138.117 23.214 Q 138.047 23.214 137.921 23.13 L 137.921 23.13 L 137.921 23.13 Q 137.571 22.934 137.095 22.808 L 137.095 22.808 L 137.095 22.808 Q 136.619 22.682 136.143 22.682 L 136.143 22.682 L 136.143 22.682 Q 135.555 22.682 135.261 22.815 L 135.261 22.815 L 135.261 22.815 Q 134.967 22.948 134.967 23.284 L 134.967 23.284 L 134.967 23.284 Q 134.967 23.564 135.296 23.725 L 135.296 23.725 L 135.296 23.725 Q 135.625 23.886 136.395 24.096 L 136.395 24.096 L 137.165 24.32 L 137.165 24.32 Q 137.879 24.558 138.271 24.81 L 138.271 24.81 L 138.271 24.81 Q 138.663 25.062 138.831 25.398 L 138.831 25.398 L 138.831 25.398 Q 138.999 25.734 138.999 26.252 L 138.999 26.252 L 138.999 26.252 Q 138.999 27.148 138.187 27.729 L 138.187 27.729 L 138.187 27.729 Q 137.375 28.31 135.821 28.31 L 135.821 28.31 L 135.821 28.31 Z " fill-rule="evenodd" fill="rgb(0,0,0)"/></g></g></svg>