<?xml version="1.0" standalone="no"?><!-- Generator: Gravit.io --><svg xmlns="http://www.w3.org/2000/svg" xmlns:xlink="http://www.w3.org/1999/xlink" style="isolation:isolate" viewBox="0 0 240 380" width="240" height="380"><defs><clipPath id="_clipPath_L92p1snw0z4AFmbfbC341Qe3rb0H9UxX"><rect width="240" height="380"/></clipPath></defs><g clip-path="url(#_clipPath_L92p1snw0z4AFmbfbC341Qe3rb0H9UxX)"><g id="bg"><rect x="0" y="0" width="240" height="380" transform="matrix(1,0,0,1,0,0)" fill="rgb(240,240,240)"/><path d=" M 114.082 369.599 C 113.927 369.747 113.783 369.851 113.65 369.909 C 113.517 369.968 113.375 369.998 113.224 369.998 C 113.072 369.998 112.93 369.97 112.797 369.914 C 112.664 369.858 112.548 369.781 112.449 369.682 C 112.233 369.466 112.124 369.209 112.124 368.912 L 112.124 363.385 C 112.124 363.082 112.202 362.847 112.356 362.68 C 112.622 362.408 112.874 362.272 113.112 362.272 C 113.35 362.272 113.528 362.296 113.646 362.346 C 113.763 362.395 113.862 362.457 113.942 362.531 C 114.048 362.624 114.126 362.723 114.179 362.828 C 114.232 362.933 114.275 363.011 114.309 363.06 C 114.343 363.11 114.399 363.134 114.476 363.134 C 114.553 363.134 114.62 363.11 114.675 363.06 L 114.833 362.902 C 115.284 362.482 115.736 362.272 116.187 362.272 C 116.985 362.272 117.643 362.599 118.163 363.255 C 118.212 363.323 118.274 363.357 118.348 363.357 C 118.478 363.357 118.61 363.256 118.743 363.055 C 118.876 362.854 119.09 362.674 119.387 362.513 C 119.684 362.352 120.03 362.272 120.426 362.272 C 120.822 362.272 121.182 362.344 121.507 362.49 C 121.831 362.635 122.114 362.834 122.355 363.088 C 122.862 363.62 123.116 364.263 123.116 365.017 L 123.116 368.912 C 123.116 369.382 122.893 369.713 122.448 369.905 C 122.312 369.967 122.168 369.998 122.017 369.998 C 121.865 369.998 121.723 369.97 121.59 369.914 C 121.457 369.858 121.341 369.781 121.242 369.682 C 121.032 369.46 120.927 369.203 120.927 368.912 L 120.927 365.045 C 120.927 364.736 120.85 364.504 120.695 364.349 C 120.423 364.077 120.173 363.941 119.944 363.941 C 119.715 363.941 119.536 363.971 119.406 364.029 C 119.276 364.088 119.158 364.17 119.053 364.275 C 118.837 364.492 118.729 364.742 118.729 365.026 L 118.729 368.912 C 118.729 369.382 118.509 369.713 118.07 369.905 C 117.934 369.967 117.79 369.998 117.639 369.998 C 117.487 369.998 117.344 369.97 117.207 369.914 C 117.071 369.858 116.954 369.781 116.855 369.682 C 116.639 369.466 116.53 369.209 116.53 368.912 L 116.53 365.045 C 116.53 364.736 116.453 364.504 116.298 364.349 C 116.026 364.077 115.742 363.941 115.445 363.941 C 114.95 363.941 114.607 364.133 114.416 364.516 C 114.354 364.64 114.323 364.779 114.323 364.934 L 114.323 368.912 C 114.323 369.215 114.242 369.444 114.082 369.599 Z  M 125.343 363.387 C 125.343 363.084 125.42 362.849 125.575 362.682 C 125.84 362.41 126.134 362.274 126.456 362.274 C 126.765 362.274 126.994 362.355 127.142 362.515 C 127.414 362.794 127.55 363.084 127.55 363.387 L 127.55 368.915 C 127.55 369.212 127.473 369.437 127.318 369.592 C 127.046 369.864 126.796 370 126.567 370 C 126.338 370 126.156 369.971 126.02 369.912 C 125.884 369.853 125.766 369.777 125.667 369.685 C 125.451 369.474 125.343 369.218 125.343 368.915 L 125.343 363.387 Z  M 126.451 359.9 C 126.189 359.9 125.976 359.687 125.976 359.425 C 125.976 359.162 126.189 358.95 126.451 358.95 C 126.713 358.95 126.926 359.162 126.926 359.425 C 126.926 359.687 126.713 359.9 126.451 359.9 Z  M 126.451 358 C 126.838 358 127.172 358.142 127.453 358.425 C 127.735 358.709 127.876 358.996 127.876 359.287 C 127.876 359.577 127.837 359.807 127.759 359.978 C 127.682 360.148 127.58 360.297 127.453 360.424 C 127.172 360.708 126.838 360.849 126.451 360.849 C 126.064 360.849 125.73 360.708 125.448 360.424 C 125.167 360.141 125.026 359.857 125.026 359.574 C 125.026 359.092 125.167 358.709 125.448 358.425 C 125.73 358.142 126.064 358 126.451 358 Z " fill-rule="evenodd" fill="rgb(10,118,187)"/><path d=" M 0 174 L 240 60 L 240 80 L 0 194 L 0 174 Z  M 0 214 L 240 100 L 240 120 L 0 234 L 0 214 Z  M 0 134 L 240 20 L 240 40 L 0 154 L 0 134 Z " fill-rule="evenodd" fill="rgb(0,0,0)" fill-opacity="0.02"/><path d=" M 97.376 25.4 L 97.376 25.4 Q 97.056 25.4 96.92 25.256 L 96.92 25.256 L 96.92 25.256 Q 96.784 25.112 96.784 24.824 L 96.784 24.824 L 96.784 15.112 L 96.784 15.112 Q 96.784 14.808 96.92 14.664 L 96.92 14.664 L 96.92 14.664 Q 97.056 14.52 97.392 14.52 L 97.392 14.52 L 98.128 14.52 L 98.128 14.52 Q 98.352 14.52 98.48 14.584 L 98.48 14.584 L 98.48 14.584 Q 98.608 14.648 98.736 14.84 L 98.736 14.84 L 104.016 22.168 L 104.016 15.112 L 104.016 15.112 Q 104.016 14.808 104.152 14.664 L 104.152 14.664 L 104.152 14.664 Q 104.288 14.52 104.608 14.52 L 104.608 14.52 L 105.456 14.52 L 105.456 14.52 Q 105.776 14.52 105.92 14.664 L 105.92 14.664 L 105.92 14.664 Q 106.064 14.808 106.064 15.112 L 106.064 15.112 L 106.064 24.824 L 106.064 24.824 Q 106.064 25.112 105.928 25.256 L 105.928 25.256 L 105.928 25.256 Q 105.792 25.4 105.456 25.4 L 105.456 25.4 L 104.704 25.4 L 104.704 25.4 Q 104.48 25.4 104.368 25.344 L 104.368 25.344 L 104.368 25.344 Q 104.256 25.288 104.112 25.096 L 104.112 25.096 L 98.832 17.784 L 98.832 24.824 L 98.832 24.824 Q 98.832 25.112 98.696 25.256 L 98.696 25.256 L 98.696 25.256 Q 98.56 25.4 98.224 25.4 L 98.224 25.4 L 97.376 25.4 L 97.376 25.4 Z  M 111.968 25.64 L 111.968 25.64 Q 109.888 25.64 108.76 24.544 L 108.76 24.544 L 108.76 24.544 Q 107.632 23.448 107.632 21.56 L 107.632 21.56 L 107.632 21.56 Q 107.632 19.672 108.76 18.576 L 108.76 18.576 L 108.76 18.576 Q 109.888 17.48 111.968 17.48 L 111.968 17.48 L 111.968 17.48 Q 114.048 17.48 115.184 18.576 L 115.184 18.576 L 115.184 18.576 Q 116.32 19.672 116.32 21.56 L 116.32 21.56 L 116.32 21.56 Q 116.32 23.448 115.184 24.544 L 115.184 24.544 L 115.184 24.544 Q 114.048 25.64 111.968 25.64 L 111.968 25.64 L 111.968 25.64 Z  M 111.968 24.136 L 111.968 24.136 Q 113.104 24.136 113.696 23.48 L 113.696 23.48 L 113.696 23.48 Q 114.288 22.824 114.288 21.56 L 114.288 21.56 L 114.288 21.56 Q 114.288 20.312 113.696 19.664 L 113.696 19.664 L 113.696 19.664 Q 113.104 19.016 111.968 19.016 L 111.968 19.016 L 111.968 19.016 Q 110.848 19.016 110.248 19.664 L 110.248 19.664 L 110.248 19.664 Q 109.648 20.312 109.648 21.56 L 109.648 21.56 L 109.648 21.56 Q 109.648 22.808 110.248 23.472 L 110.248 23.472 L 110.248 23.472 Q 110.848 24.136 111.968 24.136 L 111.968 24.136 L 111.968 24.136 Z  M 121.424 25.64 L 121.424 25.64 Q 120.064 25.64 119.376 24.888 L 119.376 24.888 L 119.376 24.888 Q 118.688 24.136 118.688 22.808 L 118.688 22.808 L 118.688 19.224 L 117.776 19.224 L 117.776 19.224 Q 117.456 19.224 117.352 19.112 L 117.352 19.112 L 117.352 19.112 Q 117.248 19 117.248 18.696 L 117.248 18.696 L 117.248 18.264 L 117.248 18.264 Q 117.248 17.96 117.352 17.84 L 117.352 17.84 L 117.352 17.84 Q 117.456 17.72 117.776 17.72 L 117.776 17.72 L 118.688 17.72 L 118.688 16.84 L 118.688 16.84 Q 118.688 16.504 118.808 16.208 L 118.808 16.208 L 118.808 16.208 Q 118.928 15.912 119.184 15.464 L 119.184 15.464 L 119.184 15.464 Q 119.28 15.272 119.368 15.216 L 119.368 15.216 L 119.368 15.216 Q 119.456 15.16 119.68 15.16 L 119.68 15.16 L 120.208 15.16 L 120.208 15.16 Q 120.496 15.16 120.616 15.296 L 120.616 15.296 L 120.616 15.296 Q 120.736 15.432 120.736 15.704 L 120.736 15.704 L 120.736 17.72 L 122.624 17.72 L 122.624 17.72 Q 122.944 17.72 123.048 17.84 L 123.048 17.84 L 123.048 17.84 Q 123.152 17.96 123.152 18.264 L 123.152 18.264 L 123.152 18.696 L 123.152 18.696 Q 123.152 19 123.048 19.112 L 123.048 19.112 L 123.048 19.112 Q 122.944 19.224 122.624 19.224 L 122.624 19.224 L 120.736 19.224 L 120.736 22.744 L 120.736 22.744 Q 120.736 23.48 120.992 23.808 L 120.992 23.808 L 120.992 23.808 Q 121.248 24.136 121.872 24.136 L 121.872 24.136 L 121.872 24.136 Q 122.24 24.136 122.496 24.048 L 122.496 24.048 L 122.496 24.048 Q 122.752 23.96 123.056 23.752 L 123.056 23.752 L 123.056 23.752 Q 123.136 23.688 123.232 23.688 L 123.232 23.688 L 123.232 23.688 Q 123.328 23.688 123.424 23.832 L 123.424 23.832 L 123.888 24.6 L 123.888 24.6 Q 123.952 24.68 123.952 24.776 L 123.952 24.776 L 123.952 24.776 Q 123.952 24.888 123.792 25 L 123.792 25 L 123.792 25 Q 122.8 25.64 121.424 25.64 L 121.424 25.64 L 121.424 25.64 Z  M 129.344 25.64 L 129.344 25.64 Q 128.096 25.64 127.088 25.216 L 127.088 25.216 L 127.088 25.216 Q 126.08 24.792 125.48 23.904 L 125.48 23.904 L 125.48 23.904 Q 124.88 23.016 124.88 21.688 L 124.88 21.688 L 124.88 21.688 Q 124.88 19.624 125.984 18.552 L 125.984 18.552 L 125.984 18.552 Q 127.088 17.48 129.12 17.48 L 129.12 17.48 L 129.12 17.48 Q 131.136 17.48 132.168 18.52 L 132.168 18.52 L 132.168 18.52 Q 133.2 19.56 133.2 21.528 L 133.2 21.528 L 133.2 21.528 Q 133.2 22.088 132.688 22.088 L 132.688 22.088 L 126.816 22.088 L 126.816 22.088 Q 126.816 23.144 127.552 23.712 L 127.552 23.712 L 127.552 23.712 Q 128.288 24.28 129.6 24.28 L 129.6 24.28 L 129.6 24.28 Q 130.864 24.28 131.872 23.704 L 131.872 23.704 L 131.872 23.704 Q 131.984 23.64 132.048 23.64 L 132.048 23.64 L 132.048 23.64 Q 132.16 23.64 132.224 23.784 L 132.224 23.784 L 132.608 24.472 L 132.608 24.472 Q 132.656 24.568 132.656 24.648 L 132.656 24.648 L 132.656 24.648 Q 132.656 24.76 132.512 24.856 L 132.512 24.856 L 132.512 24.856 Q 131.856 25.256 131.096 25.448 L 131.096 25.448 L 131.096 25.448 Q 130.336 25.64 129.344 25.64 L 129.344 25.64 L 129.344 25.64 Z  M 126.816 20.904 L 131.344 20.904 L 131.344 20.904 Q 131.344 19.912 130.792 19.352 L 130.792 19.352 L 130.792 19.352 Q 130.24 18.792 129.136 18.792 L 129.136 18.792 L 129.136 18.792 Q 128.016 18.792 127.416 19.368 L 127.416 19.368 L 127.416 19.368 Q 126.816 19.944 126.816 20.904 L 126.816 20.904 L 126.816 20.904 Z  M 138.096 25.64 L 138.096 25.64 Q 137.136 25.64 136.224 25.44 L 136.224 25.44 L 136.224 25.44 Q 135.312 25.24 134.656 24.84 L 134.656 24.84 L 134.656 24.84 Q 134.448 24.728 134.448 24.6 L 134.448 24.6 L 134.448 24.6 Q 134.448 24.504 134.512 24.424 L 134.512 24.424 L 134.96 23.64 L 134.96 23.64 Q 135.04 23.496 135.12 23.496 L 135.12 23.496 L 135.12 23.496 Q 135.2 23.496 135.328 23.576 L 135.328 23.576 L 135.328 23.576 Q 135.808 23.864 136.512 24.056 L 136.512 24.056 L 136.512 24.056 Q 137.216 24.248 137.808 24.248 L 137.808 24.248 L 137.808 24.248 Q 138.72 24.248 139.112 24.064 L 139.112 24.064 L 139.112 24.064 Q 139.504 23.88 139.504 23.4 L 139.504 23.4 L 139.504 23.4 Q 139.504 23.128 139.352 22.96 L 139.352 22.96 L 139.352 22.96 Q 139.2 22.792 138.896 22.664 L 138.896 22.664 L 138.896 22.664 Q 138.592 22.536 137.888 22.312 L 137.888 22.312 L 137.888 22.312 Q 137.888 22.312 137.36 22.136 L 137.36 22.136 L 137.36 22.136 Q 136.448 21.832 135.904 21.544 L 135.904 21.544 L 135.904 21.544 Q 135.36 21.256 135.064 20.816 L 135.064 20.816 L 135.064 20.816 Q 134.768 20.376 134.768 19.704 L 134.768 19.704 L 134.768 19.704 Q 134.768 18.616 135.688 18.048 L 135.688 18.048 L 135.688 18.048 Q 136.608 17.48 138.08 17.48 L 138.08 17.48 L 138.08 17.48 Q 139.872 17.48 141.168 18.248 L 141.168 18.248 L 141.168 18.248 Q 141.376 18.36 141.376 18.488 L 141.376 18.488 L 141.376 18.488 Q 141.376 18.568 141.296 18.696 L 141.296 18.696 L 140.864 19.384 L 140.864 19.384 Q 140.768 19.528 140.704 19.528 L 140.704 19.528 L 140.704 19.528 Q 140.64 19.528 140.512 19.448 L 140.512 19.448 L 140.512 19.448 Q 140.096 19.192 139.512 19.04 L 139.512 19.04 L 139.512 19.04 Q 138.928 18.888 138.336 18.888 L 138.336 18.888 L 138.336 18.888 Q 137.536 18.888 137.16 19.056 L 137.16 19.056 L 137.16 19.056 Q 136.784 19.224 136.784 19.704 L 136.784 19.704 L 136.784 19.704 Q 136.784 20.12 137.224 20.36 L 137.224 20.36 L 137.224 20.36 Q 137.664 20.6 138.752 20.936 L 138.752 20.936 L 139.28 21.096 L 139.28 21.096 Q 140.528 21.496 141.032 22.04 L 141.032 22.04 L 141.032 22.04 Q 141.536 22.584 141.536 23.4 L 141.536 23.4 L 141.536 23.4 Q 141.536 24.392 140.664 25.016 L 140.664 25.016 L 140.664 25.016 Q 139.792 25.64 138.096 25.64 L 138.096 25.64 L 138.096 25.64 Z " fill-rule="evenodd" fill="rgb(0,0,0)"/></g></g></svg>