<?xml version="1.0" standalone="no"?><!-- Generator: Gravit.io --><svg xmlns="http://www.w3.org/2000/svg" xmlns:xlink="http://www.w3.org/1999/xlink" style="isolation:isolate" viewBox="0 0 240 380" width="240" height="380"><defs><clipPath id="_clipPath_TBUsmQYrX2XsyyWzBsSpNEpNYHeCrbYR"><rect width="240" height="380"/></clipPath></defs><g clip-path="url(#_clipPath_TBUsmQYrX2XsyyWzBsSpNEpNYHeCrbYR)"><g id="bg"><rect x="0" y="0" width="240" height="380" transform="matrix(1,0,0,1,0,0)" fill="rgb(240,240,240)"/><path d=" M 114.082 369.599 C 113.927 369.747 113.783 369.851 113.65 369.909 C 113.517 369.968 113.375 369.998 113.224 369.998 C 113.072 369.998 112.93 369.97 112.797 369.914 C 112.664 369.858 112.548 369.781 112.449 369.682 C 112.233 369.466 112.124 369.209 112.124 368.912 L 112.124 363.385 C 112.124 363.082 112.202 362.847 112.356 362.68 C 112.622 362.408 112.874 362.272 113.112 362.272 C 113.35 362.272 113.528 362.296 113.646 362.346 C 113.763 362.395 113.862 362.457 113.942 362.531 C 114.048 362.624 114.126 362.723 114.179 362.828 C 114.232 362.933 114.275 363.011 114.309 363.06 C 114.343 363.11 114.399 363.134 114.476 363.134 C 114.553 363.134 114.62 363.11 114.675 363.06 L 114.833 362.902 C 115.284 362.482 115.736 362.272 116.187 362.272 C 116.985 362.272 117.643 362.599 118.163 363.255 C 118.212 363.323 118.274 363.357 118.348 363.357 C 118.478 363.357 118.61 363.256 118.743 363.055 C 118.876 362.854 119.09 362.674 119.387 362.513 C 119.684 362.352 120.03 362.272 120.426 362.272 C 120.822 362.272 121.182 362.344 121.507 362.49 C 121.831 362.635 122.114 362.834 122.355 363.088 C 122.862 363.62 123.116 364.263 123.116 365.017 L 123.116 368.912 C 123.116 369.382 122.893 369.713 122.448 369.905 C 122.312 369.967 122.168 369.998 122.017 369.998 C 121.865 369.998 121.723 369.97 121.59 369.914 C 121.457 369.858 121.341 369.781 121.242 369.682 C 121.032 369.46 120.927 369.203 120.927 368.912 L 120.927 365.045 C 120.927 364.736 120.85 364.504 120.695 364.349 C 120.423 364.077 120.173 363.941 119.944 363.941 C 119.715 363.941 119.536 363.971 119.406 364.029 C 119.276 364.088 119.158 364.17 119.053 364.275 C 118.837 364.492 118.729 364.742 118.729 365.026 L 118.729 368.912 C 118.729 369.382 118.509 369.713 118.07 369.905 C 117.934 369.967 117.79 369.998 117.639 369.998 C 117.487 369.998 117.344 369.97 117.207 369.914 C 117.071 369.858 116.954 369.781 116.855 369.682 C 116.639 369.466 116.53 369.209 116.53 368.912 L 116.53 365.045 C 116.53 364.736 116.453 364.504 116.298 364.349 C 116.026 364.077 115.742 363.941 115.445 363.941 C 114.95 363.941 114.607 364.133 114.416 364.516 C 114.354 364.64 114.323 364.779 114.323 364.934 L 114.323 368.912 C 114.323 369.215 114.242 369.444 114.082 369.599 Z  M 125.343 363.387 C 125.343 363.084 125.42 362.849 125.575 362.682 C 125.84 362.41 126.134 362.274 126.456 362.274 C 126.765 362.274 126.994 362.355 127.142 362.515 C 127.414 362.794 127.55 363.084 127.55 363.387 L 127.55 368.915 C 127.55 369.212 127.473 369.437 127.318 369.592 C 127.046 369.864 126.796 370 126.567 370 C 126.338 370 126.156 369.971 126.02 369.912 C 125.884 369.853 125.766 369.777 125.667 369.685 C 125.451 369.474 125.343 369.218 125.343 368.915 L 125.343 363.387 Z  M 126.451 359.9 C 126.189 359.9 125.976 359.687 125.976 359.425 C 125.976 359.162 126.189 358.95 126.451 358.95 C 126.713 358.95 126.926 359.162 126.926 359.425 C 126.926 359.687 126.713 359.9 126.451 359.9 Z  M 126.451 358 C 126.838 358 127.172 358.142 127.453 358.425 C 127.735 358.709 127.876 358.996 127.876 359.287 C 127.876 359.577 127.837 359.807 127.759 359.978 C 127.682 360.148 127.58 360.297 127.453 360.424 C 127.172 360.708 126.838 360.849 126.451 360.849 C 126.064 360.849 125.73 360.708 125.448 360.424 C 125.167 360.141 125.026 359.857 125.026 359.574 C 125.026 359.092 125.167 358.709 125.448 358.425 C 125.73 358.142 126.064 358 126.451 358 Z " fill-rule="evenodd" fill="rgb(10,118,187)"/><path d=" M 0 174 L 240 60 L 240 80 L 0 194 L 0 174 Z  M 0 214 L 240 100 L 240 120 L 0 234 L 0 214 Z  M 0 134 L 240 20 L 240 40 L 0 154 L 0 134 Z " fill-rule="evenodd" fill="rgb(0,0,0)" fill-opacity="0.02"/><path d=" M 100.079 28.1 L 100.079 28.1 Q 99.799 28.1 99.68 27.974 L 99.68 27.974 L 99.68 27.974 Q 99.561 27.848 99.561 27.596 L 99.561 27.596 L 99.561 19.098 L 99.561 19.098 Q 99.561 18.832 99.68 18.706 L 99.68 18.706 L 99.68 18.706 Q 99.799 18.58 100.093 18.58 L 100.093 18.58 L 100.737 18.58 L 100.737 18.58 Q 100.933 18.58 101.045 18.636 L 101.045 18.636 L 101.045 18.636 Q 101.157 18.692 101.269 18.86 L 101.269 18.86 L 105.889 25.272 L 105.889 19.098 L 105.889 19.098 Q 105.889 18.832 106.008 18.706 L 106.008 18.706 L 106.008 18.706 Q 106.127 18.58 106.407 18.58 L 106.407 18.58 L 107.149 18.58 L 107.149 18.58 Q 107.429 18.58 107.555 18.706 L 107.555 18.706 L 107.555 18.706 Q 107.681 18.832 107.681 19.098 L 107.681 19.098 L 107.681 27.596 L 107.681 27.596 Q 107.681 27.848 107.562 27.974 L 107.562 27.974 L 107.562 27.974 Q 107.443 28.1 107.149 28.1 L 107.149 28.1 L 106.491 28.1 L 106.491 28.1 Q 106.295 28.1 106.197 28.051 L 106.197 28.051 L 106.197 28.051 Q 106.099 28.002 105.973 27.834 L 105.973 27.834 L 101.353 21.436 L 101.353 27.596 L 101.353 27.596 Q 101.353 27.848 101.234 27.974 L 101.234 27.974 L 101.234 27.974 Q 101.115 28.1 100.821 28.1 L 100.821 28.1 L 100.079 28.1 L 100.079 28.1 Z  M 112.847 28.31 L 112.847 28.31 Q 111.027 28.31 110.04 27.351 L 110.04 27.351 L 110.04 27.351 Q 109.053 26.392 109.053 24.74 L 109.053 24.74 L 109.053 24.74 Q 109.053 23.088 110.04 22.129 L 110.04 22.129 L 110.04 22.129 Q 111.027 21.17 112.847 21.17 L 112.847 21.17 L 112.847 21.17 Q 114.667 21.17 115.661 22.129 L 115.661 22.129 L 115.661 22.129 Q 116.655 23.088 116.655 24.74 L 116.655 24.74 L 116.655 24.74 Q 116.655 26.392 115.661 27.351 L 115.661 27.351 L 115.661 27.351 Q 114.667 28.31 112.847 28.31 L 112.847 28.31 L 112.847 28.31 Z  M 112.847 26.994 L 112.847 26.994 Q 113.841 26.994 114.359 26.42 L 114.359 26.42 L 114.359 26.42 Q 114.877 25.846 114.877 24.74 L 114.877 24.74 L 114.877 24.74 Q 114.877 23.648 114.359 23.081 L 114.359 23.081 L 114.359 23.081 Q 113.841 22.514 112.847 22.514 L 112.847 22.514 L 112.847 22.514 Q 111.867 22.514 111.342 23.081 L 111.342 23.081 L 111.342 23.081 Q 110.817 23.648 110.817 24.74 L 110.817 24.74 L 110.817 24.74 Q 110.817 25.832 111.342 26.413 L 111.342 26.413 L 111.342 26.413 Q 111.867 26.994 112.847 26.994 L 112.847 26.994 L 112.847 26.994 Z  M 121.121 28.31 L 121.121 28.31 Q 119.931 28.31 119.329 27.652 L 119.329 27.652 L 119.329 27.652 Q 118.727 26.994 118.727 25.832 L 118.727 25.832 L 118.727 22.696 L 117.929 22.696 L 117.929 22.696 Q 117.649 22.696 117.558 22.598 L 117.558 22.598 L 117.558 22.598 Q 117.467 22.5 117.467 22.234 L 117.467 22.234 L 117.467 21.856 L 117.467 21.856 Q 117.467 21.59 117.558 21.485 L 117.558 21.485 L 117.558 21.485 Q 117.649 21.38 117.929 21.38 L 117.929 21.38 L 118.727 21.38 L 118.727 20.61 L 118.727 20.61 Q 118.727 20.316 118.832 20.057 L 118.832 20.057 L 118.832 20.057 Q 118.937 19.798 119.161 19.406 L 119.161 19.406 L 119.161 19.406 Q 119.245 19.238 119.322 19.189 L 119.322 19.189 L 119.322 19.189 Q 119.399 19.14 119.595 19.14 L 119.595 19.14 L 120.057 19.14 L 120.057 19.14 Q 120.309 19.14 120.414 19.259 L 120.414 19.259 L 120.414 19.259 Q 120.519 19.378 120.519 19.616 L 120.519 19.616 L 120.519 21.38 L 122.171 21.38 L 122.171 21.38 Q 122.451 21.38 122.542 21.485 L 122.542 21.485 L 122.542 21.485 Q 122.633 21.59 122.633 21.856 L 122.633 21.856 L 122.633 22.234 L 122.633 22.234 Q 122.633 22.5 122.542 22.598 L 122.542 22.598 L 122.542 22.598 Q 122.451 22.696 122.171 22.696 L 122.171 22.696 L 120.519 22.696 L 120.519 25.776 L 120.519 25.776 Q 120.519 26.42 120.743 26.707 L 120.743 26.707 L 120.743 26.707 Q 120.967 26.994 121.513 26.994 L 121.513 26.994 L 121.513 26.994 Q 121.835 26.994 122.059 26.917 L 122.059 26.917 L 122.059 26.917 Q 122.283 26.84 122.549 26.658 L 122.549 26.658 L 122.549 26.658 Q 122.619 26.602 122.703 26.602 L 122.703 26.602 L 122.703 26.602 Q 122.787 26.602 122.871 26.728 L 122.871 26.728 L 123.277 27.4 L 123.277 27.4 Q 123.333 27.47 123.333 27.554 L 123.333 27.554 L 123.333 27.554 Q 123.333 27.652 123.193 27.75 L 123.193 27.75 L 123.193 27.75 Q 122.325 28.31 121.121 28.31 L 121.121 28.31 L 121.121 28.31 Z  M 128.051 28.31 L 128.051 28.31 Q 126.959 28.31 126.077 27.939 L 126.077 27.939 L 126.077 27.939 Q 125.195 27.568 124.67 26.791 L 124.67 26.791 L 124.67 26.791 Q 124.145 26.014 124.145 24.852 L 124.145 24.852 L 124.145 24.852 Q 124.145 23.046 125.111 22.108 L 125.111 22.108 L 125.111 22.108 Q 126.077 21.17 127.855 21.17 L 127.855 21.17 L 127.855 21.17 Q 129.619 21.17 130.522 22.08 L 130.522 22.08 L 130.522 22.08 Q 131.425 22.99 131.425 24.712 L 131.425 24.712 L 131.425 24.712 Q 131.425 25.202 130.977 25.202 L 130.977 25.202 L 125.839 25.202 L 125.839 25.202 Q 125.839 26.126 126.483 26.623 L 126.483 26.623 L 126.483 26.623 Q 127.127 27.12 128.275 27.12 L 128.275 27.12 L 128.275 27.12 Q 129.381 27.12 130.263 26.616 L 130.263 26.616 L 130.263 26.616 Q 130.361 26.56 130.417 26.56 L 130.417 26.56 L 130.417 26.56 Q 130.515 26.56 130.571 26.686 L 130.571 26.686 L 130.907 27.288 L 130.907 27.288 Q 130.949 27.372 130.949 27.442 L 130.949 27.442 L 130.949 27.442 Q 130.949 27.54 130.823 27.624 L 130.823 27.624 L 130.823 27.624 Q 130.249 27.974 129.584 28.142 L 129.584 28.142 L 129.584 28.142 Q 128.919 28.31 128.051 28.31 L 128.051 28.31 L 128.051 28.31 Z  M 125.839 24.166 L 129.801 24.166 L 129.801 24.166 Q 129.801 23.298 129.318 22.808 L 129.318 22.808 L 129.318 22.808 Q 128.835 22.318 127.869 22.318 L 127.869 22.318 L 127.869 22.318 Q 126.889 22.318 126.364 22.822 L 126.364 22.822 L 126.364 22.822 Q 125.839 23.326 125.839 24.166 L 125.839 24.166 L 125.839 24.166 Z  M 135.709 28.31 L 135.709 28.31 Q 134.869 28.31 134.071 28.135 L 134.071 28.135 L 134.071 28.135 Q 133.273 27.96 132.699 27.61 L 132.699 27.61 L 132.699 27.61 Q 132.517 27.512 132.517 27.4 L 132.517 27.4 L 132.517 27.4 Q 132.517 27.316 132.573 27.246 L 132.573 27.246 L 132.965 26.56 L 132.965 26.56 Q 133.035 26.434 133.105 26.434 L 133.105 26.434 L 133.105 26.434 Q 133.175 26.434 133.287 26.504 L 133.287 26.504 L 133.287 26.504 Q 133.707 26.756 134.323 26.924 L 134.323 26.924 L 134.323 26.924 Q 134.939 27.092 135.457 27.092 L 135.457 27.092 L 135.457 27.092 Q 136.255 27.092 136.598 26.931 L 136.598 26.931 L 136.598 26.931 Q 136.941 26.77 136.941 26.35 L 136.941 26.35 L 136.941 26.35 Q 136.941 26.112 136.808 25.965 L 136.808 25.965 L 136.808 25.965 Q 136.675 25.818 136.409 25.706 L 136.409 25.706 L 136.409 25.706 Q 136.143 25.594 135.527 25.398 L 135.527 25.398 L 135.527 25.398 Q 135.527 25.398 135.065 25.244 L 135.065 25.244 L 135.065 25.244 Q 134.267 24.978 133.791 24.726 L 133.791 24.726 L 133.791 24.726 Q 133.315 24.474 133.056 24.089 L 133.056 24.089 L 133.056 24.089 Q 132.797 23.704 132.797 23.116 L 132.797 23.116 L 132.797 23.116 Q 132.797 22.164 133.602 21.667 L 133.602 21.667 L 133.602 21.667 Q 134.407 21.17 135.695 21.17 L 135.695 21.17 L 135.695 21.17 Q 137.263 21.17 138.397 21.842 L 138.397 21.842 L 138.397 21.842 Q 138.579 21.94 138.579 22.052 L 138.579 22.052 L 138.579 22.052 Q 138.579 22.122 138.509 22.234 L 138.509 22.234 L 138.131 22.836 L 138.131 22.836 Q 138.047 22.962 137.991 22.962 L 137.991 22.962 L 137.991 22.962 Q 137.935 22.962 137.823 22.892 L 137.823 22.892 L 137.823 22.892 Q 137.459 22.668 136.948 22.535 L 136.948 22.535 L 136.948 22.535 Q 136.437 22.402 135.919 22.402 L 135.919 22.402 L 135.919 22.402 Q 135.219 22.402 134.89 22.549 L 134.89 22.549 L 134.89 22.549 Q 134.561 22.696 134.561 23.116 L 134.561 23.116 L 134.561 23.116 Q 134.561 23.48 134.946 23.69 L 134.946 23.69 L 134.946 23.69 Q 135.331 23.9 136.283 24.194 L 136.283 24.194 L 136.745 24.334 L 136.745 24.334 Q 137.837 24.684 138.278 25.16 L 138.278 25.16 L 138.278 25.16 Q 138.719 25.636 138.719 26.35 L 138.719 26.35 L 138.719 26.35 Q 138.719 27.218 137.956 27.764 L 137.956 27.764 L 137.956 27.764 Q 137.193 28.31 135.709 28.31 L 135.709 28.31 L 135.709 28.31 Z " fill-rule="evenodd" fill="rgb(0,0,0)"/></g></g></svg>