<?xml version="1.0" standalone="no"?><!-- Generator: Gravit.io --><svg xmlns="http://www.w3.org/2000/svg" xmlns:xlink="http://www.w3.org/1999/xlink" style="isolation:isolate" viewBox="0 0 150 380" width="150" height="380"><defs><clipPath id="_clipPath_R7g2XpruPFbDPVNPJ0StZMKvxBGVqRC1"><rect width="150" height="380"/></clipPath></defs><g clip-path="url(#_clipPath_R7g2XpruPFbDPVNPJ0StZMKvxBGVqRC1)"><g id="bg"><rect x="0" y="0" width="150" height="380" transform="matrix(1,0,0,1,0,0)" fill="rgb(240,240,240)"/><path d=" M 69.082 369.599 C 68.927 369.747 68.783 369.851 68.65 369.909 C 68.517 369.968 68.375 369.998 68.224 369.998 C 68.072 369.998 67.93 369.97 67.797 369.914 C 67.664 369.858 67.548 369.781 67.449 369.682 C 67.233 369.466 67.124 369.209 67.124 368.912 L 67.124 363.385 C 67.124 363.082 67.202 362.847 67.356 362.68 C 67.622 362.408 67.874 362.272 68.112 362.272 C 68.35 362.272 68.528 362.296 68.646 362.346 C 68.763 362.395 68.862 362.457 68.942 362.531 C 69.048 362.624 69.126 362.723 69.179 362.828 C 69.232 362.933 69.275 363.011 69.309 363.06 C 69.343 363.11 69.399 363.134 69.476 363.134 C 69.553 363.134 69.62 363.11 69.675 363.06 L 69.833 362.902 C 70.284 362.482 70.736 362.272 71.187 362.272 C 71.985 362.272 72.643 362.599 73.163 363.255 C 73.212 363.323 73.274 363.357 73.348 363.357 C 73.478 363.357 73.61 363.256 73.743 363.055 C 73.876 362.854 74.09 362.674 74.387 362.513 C 74.684 362.352 75.03 362.272 75.426 362.272 C 75.822 362.272 76.182 362.344 76.507 362.49 C 76.831 362.635 77.114 362.834 77.355 363.088 C 77.862 363.62 78.116 364.263 78.116 365.017 L 78.116 368.912 C 78.116 369.382 77.893 369.713 77.448 369.905 C 77.312 369.967 77.168 369.998 77.017 369.998 C 76.865 369.998 76.723 369.97 76.59 369.914 C 76.457 369.858 76.341 369.781 76.242 369.682 C 76.032 369.46 75.927 369.203 75.927 368.912 L 75.927 365.045 C 75.927 364.736 75.85 364.504 75.695 364.349 C 75.423 364.077 75.173 363.941 74.944 363.941 C 74.715 363.941 74.536 363.971 74.406 364.029 C 74.276 364.088 74.158 364.17 74.053 364.275 C 73.837 364.492 73.729 364.742 73.729 365.026 L 73.729 368.912 C 73.729 369.382 73.509 369.713 73.07 369.905 C 72.934 369.967 72.79 369.998 72.639 369.998 C 72.487 369.998 72.344 369.97 72.207 369.914 C 72.071 369.858 71.954 369.781 71.855 369.682 C 71.639 369.466 71.53 369.209 71.53 368.912 L 71.53 365.045 C 71.53 364.736 71.453 364.504 71.298 364.349 C 71.026 364.077 70.742 363.941 70.445 363.941 C 69.95 363.941 69.607 364.133 69.416 364.516 C 69.354 364.64 69.323 364.779 69.323 364.934 L 69.323 368.912 C 69.323 369.215 69.242 369.444 69.082 369.599 Z  M 80.343 363.387 C 80.343 363.084 80.42 362.849 80.575 362.682 C 80.84 362.41 81.134 362.274 81.456 362.274 C 81.765 362.274 81.994 362.355 82.142 362.515 C 82.414 362.794 82.55 363.084 82.55 363.387 L 82.55 368.915 C 82.55 369.212 82.473 369.437 82.318 369.592 C 82.046 369.864 81.796 370 81.567 370 C 81.338 370 81.156 369.971 81.02 369.912 C 80.884 369.853 80.766 369.777 80.667 369.685 C 80.451 369.474 80.343 369.218 80.343 368.915 L 80.343 363.387 Z  M 81.451 359.9 C 81.189 359.9 80.976 359.687 80.976 359.425 C 80.976 359.162 81.189 358.95 81.451 358.95 C 81.713 358.95 81.926 359.162 81.926 359.425 C 81.926 359.687 81.713 359.9 81.451 359.9 Z  M 81.451 358 C 81.838 358 82.172 358.142 82.453 358.425 C 82.735 358.709 82.876 358.996 82.876 359.287 C 82.876 359.577 82.837 359.807 82.759 359.978 C 82.682 360.148 82.58 360.297 82.453 360.424 C 82.172 360.708 81.838 360.849 81.451 360.849 C 81.064 360.849 80.73 360.708 80.448 360.424 C 80.167 360.141 80.026 359.857 80.026 359.574 C 80.026 359.092 80.167 358.709 80.448 358.425 C 80.73 358.142 81.064 358 81.451 358 Z " fill-rule="evenodd" fill="rgb(10,118,187)"/><path d=" M 97.737 28.1 L 97.737 28.1 Q 97.457 28.1 97.338 27.988 L 97.338 27.988 L 97.338 27.988 Q 97.219 27.876 97.219 27.624 L 97.219 27.624 L 97.219 26.028 L 92.781 26.028 L 92.781 26.028 Q 92.417 26.028 92.417 25.692 L 92.417 25.692 L 92.417 25.118 L 92.417 25.118 Q 92.417 24.922 92.459 24.817 L 92.459 24.817 L 92.459 24.817 Q 92.501 24.712 92.613 24.558 L 92.613 24.558 L 97.331 18.846 L 97.331 18.846 Q 97.457 18.692 97.555 18.636 L 97.555 18.636 L 97.555 18.636 Q 97.653 18.58 97.863 18.58 L 97.863 18.58 L 98.479 18.58 L 98.479 18.58 Q 98.759 18.58 98.885 18.706 L 98.885 18.706 L 98.885 18.706 Q 99.011 18.832 99.011 19.098 L 99.011 19.098 L 99.011 24.67 L 99.991 24.67 L 99.991 24.67 Q 100.271 24.67 100.383 24.789 L 100.383 24.789 L 100.383 24.789 Q 100.495 24.908 100.495 25.174 L 100.495 25.174 L 100.495 25.552 L 100.495 25.552 Q 100.495 25.804 100.383 25.916 L 100.383 25.916 L 100.383 25.916 Q 100.271 26.028 99.991 26.028 L 99.991 26.028 L 99.011 26.028 L 99.011 27.624 L 99.011 27.624 Q 99.011 27.876 98.892 27.988 L 98.892 27.988 L 98.892 27.988 Q 98.773 28.1 98.479 28.1 L 98.479 28.1 L 97.737 28.1 L 97.737 28.1 Z  M 94.293 24.67 L 97.513 24.67 L 97.513 20.694 L 94.293 24.67 L 94.293 24.67 Z  M 81.049 24.6 L 81.049 24.6 Q 80.825 24.6 80.734 24.502 L 80.734 24.502 L 80.734 24.502 Q 80.643 24.404 80.643 24.18 L 80.643 24.18 L 80.643 23.662 L 80.643 23.662 Q 80.643 23.438 80.734 23.34 L 80.734 23.34 L 80.734 23.34 Q 80.825 23.242 81.049 23.242 L 81.049 23.242 L 85.739 23.242 L 85.739 23.242 Q 85.949 23.242 86.047 23.347 L 86.047 23.347 L 86.047 23.347 Q 86.145 23.452 86.145 23.662 L 86.145 23.662 L 86.145 24.18 L 86.145 24.18 Q 86.145 24.39 86.047 24.495 L 86.047 24.495 L 86.047 24.495 Q 85.949 24.6 85.739 24.6 L 85.739 24.6 L 81.049 24.6 L 81.049 24.6 Z  M 48.583 28.1 L 48.583 28.1 Q 48.303 28.1 48.184 27.974 L 48.184 27.974 L 48.184 27.974 Q 48.065 27.848 48.065 27.596 L 48.065 27.596 L 48.065 19.098 L 48.065 19.098 Q 48.065 18.832 48.184 18.706 L 48.184 18.706 L 48.184 18.706 Q 48.303 18.58 48.597 18.58 L 48.597 18.58 L 49.353 18.58 L 49.353 18.58 Q 49.577 18.58 49.696 18.636 L 49.696 18.636 L 49.696 18.636 Q 49.815 18.692 49.885 18.86 L 49.885 18.86 L 52.713 25.37 L 55.541 18.86 L 55.541 18.86 Q 55.611 18.692 55.73 18.636 L 55.73 18.636 L 55.73 18.636 Q 55.849 18.58 56.073 18.58 L 56.073 18.58 L 56.829 18.58 L 56.829 18.58 Q 57.123 18.58 57.242 18.706 L 57.242 18.706 L 57.242 18.706 Q 57.361 18.832 57.361 19.098 L 57.361 19.098 L 57.361 27.596 L 57.361 27.596 Q 57.361 27.848 57.242 27.974 L 57.242 27.974 L 57.242 27.974 Q 57.123 28.1 56.843 28.1 L 56.843 28.1 L 56.227 28.1 L 56.227 28.1 Q 55.947 28.1 55.821 27.974 L 55.821 27.974 L 55.821 27.974 Q 55.695 27.848 55.695 27.596 L 55.695 27.596 L 55.695 21.562 L 53.301 26.896 L 53.301 26.896 Q 53.189 27.12 53.077 27.218 L 53.077 27.218 L 53.077 27.218 Q 52.965 27.316 52.713 27.316 L 52.713 27.316 L 52.713 27.316 Q 52.461 27.316 52.342 27.218 L 52.342 27.218 L 52.342 27.218 Q 52.223 27.12 52.125 26.896 L 52.125 26.896 L 49.731 21.562 L 49.731 27.596 L 49.731 27.596 Q 49.731 27.848 49.612 27.974 L 49.612 27.974 L 49.612 27.974 Q 49.493 28.1 49.199 28.1 L 49.199 28.1 L 48.583 28.1 L 48.583 28.1 Z  M 59.531 28.1 L 59.531 28.1 Q 59.251 28.1 59.132 27.974 L 59.132 27.974 L 59.132 27.974 Q 59.013 27.848 59.013 27.596 L 59.013 27.596 L 59.013 19.098 L 59.013 19.098 Q 59.013 18.832 59.132 18.706 L 59.132 18.706 L 59.132 18.706 Q 59.251 18.58 59.531 18.58 L 59.531 18.58 L 60.273 18.58 L 60.273 18.58 Q 60.553 18.58 60.679 18.706 L 60.679 18.706 L 60.679 18.706 Q 60.805 18.832 60.805 19.098 L 60.805 19.098 L 60.805 27.596 L 60.805 27.596 Q 60.805 27.848 60.686 27.974 L 60.686 27.974 L 60.686 27.974 Q 60.567 28.1 60.273 28.1 L 60.273 28.1 L 59.531 28.1 L 59.531 28.1 Z  M 62.975 28.1 L 62.975 28.1 Q 62.695 28.1 62.576 27.974 L 62.576 27.974 L 62.576 27.974 Q 62.457 27.848 62.457 27.596 L 62.457 27.596 L 62.457 19.098 L 62.457 19.098 Q 62.457 18.832 62.576 18.706 L 62.576 18.706 L 62.576 18.706 Q 62.695 18.58 62.975 18.58 L 62.975 18.58 L 65.775 18.58 L 65.775 18.58 Q 68.141 18.58 69.394 19.714 L 69.394 19.714 L 69.394 19.714 Q 70.647 20.848 70.647 23.34 L 70.647 23.34 L 70.647 23.34 Q 70.647 28.1 65.775 28.1 L 65.775 28.1 L 62.975 28.1 L 62.975 28.1 Z  M 64.249 26.742 L 65.887 26.742 L 65.887 26.742 Q 67.371 26.742 68.12 25.972 L 68.12 25.972 L 68.12 25.972 Q 68.869 25.202 68.869 23.34 L 68.869 23.34 L 68.869 23.34 Q 68.869 21.478 68.12 20.715 L 68.12 20.715 L 68.12 20.715 Q 67.371 19.952 65.887 19.952 L 65.887 19.952 L 64.249 19.952 L 64.249 26.742 L 64.249 26.742 Z  M 72.537 28.1 L 72.537 28.1 Q 72.257 28.1 72.138 27.974 L 72.138 27.974 L 72.138 27.974 Q 72.019 27.848 72.019 27.596 L 72.019 27.596 L 72.019 19.098 L 72.019 19.098 Q 72.019 18.832 72.138 18.706 L 72.138 18.706 L 72.138 18.706 Q 72.257 18.58 72.537 18.58 L 72.537 18.58 L 73.279 18.58 L 73.279 18.58 Q 73.559 18.58 73.685 18.706 L 73.685 18.706 L 73.685 18.706 Q 73.811 18.832 73.811 19.098 L 73.811 19.098 L 73.811 27.596 L 73.811 27.596 Q 73.811 27.848 73.692 27.974 L 73.692 27.974 L 73.692 27.974 Q 73.573 28.1 73.279 28.1 L 73.279 28.1 L 72.537 28.1 L 72.537 28.1 Z " fill-rule="evenodd" fill="rgb(0,0,0)"/><g id="stripes"><path d=" M -150 305 L 150 20 L 150 40 L -150 325 L -150 305 Z " fill="rgb(116,127,134)" fill-opacity="0.05"/><path d=" M -150 345 L 150 60 L 150 80 L -150 365 L -150 345 Z " fill="rgb(116,127,134)" fill-opacity="0.05"/><path d=" M -150 385 L 150 100 L 150 120 L -150 405 L -150 385 Z " fill="rgb(116,127,134)" fill-opacity="0.05"/></g></g><path d=" M 14.375 164.75 L 22.125 162.25 L 30.375 164.25 L 37.125 167.5 L 35.875 182.75 L 38.125 193 L 35.625 201 L 38.125 215.5 L 38.625 223 L 36.625 237 L 38.875 243.75 L 36.625 254.625 L 39.125 261.875 L 37.125 264.875 L 36.875 281.875 L 38.125 291.375 L 36.625 306.875 L 37.625 311.125 L 36.875 333.625 L 37.625 343.125 L 35.625 348.125 L 27.125 347.375 L 23.875 344.625 L 17.375 345.625 L 9.125 346.125 L 9.375 336.875 L 8.125 326.625 L 10.375 315.875 L 9.875 302.125 L 7.625 297.875 L 9.875 282.125 L 11.375 272.125 L 9.375 265.625 L 8.125 256.625 L 11.875 249.125 L 9.875 239.125 L 9.375 219.375 L 6.125 208.375 L 9.625 202.125 L 8.875 187.625 L 9.875 176.875 L 8.375 168.625 L 14.375 164.75 Z " fill="rgb(23,34,41)"/><path d=" M 21.263 172.727 L 21.263 172.727 Q 20.466 172.727 20.03 172.295 L 20.03 172.295 L 20.03 172.295 Q 19.595 171.864 19.595 171.063 L 19.595 171.063 L 19.595 171.063 Q 19.595 170.261 20.023 169.83 L 20.023 169.83 L 20.023 169.83 Q 20.452 169.398 21.249 169.398 L 21.249 169.398 L 21.249 169.398 Q 21.568 169.398 21.84 169.464 L 21.84 169.464 L 21.84 169.464 Q 22.112 169.53 22.299 169.652 L 22.299 169.652 L 22.299 169.652 Q 22.341 169.68 22.341 169.713 L 22.341 169.713 L 22.341 169.713 Q 22.341 169.741 22.318 169.778 L 22.318 169.778 L 22.187 170.003 L 22.187 170.003 Q 22.159 170.045 22.135 170.045 L 22.135 170.045 L 22.135 170.045 Q 22.116 170.045 22.07 170.022 L 22.07 170.022 L 22.07 170.022 Q 21.774 169.844 21.315 169.844 L 21.315 169.844 L 21.315 169.844 Q 20.785 169.844 20.485 170.148 L 20.485 170.148 L 20.485 170.148 Q 20.185 170.453 20.185 171.063 L 20.185 171.063 L 20.185 171.063 Q 20.185 171.681 20.495 171.984 L 20.495 171.984 L 20.495 171.984 Q 20.804 172.286 21.329 172.286 L 21.329 172.286 L 21.329 172.286 Q 21.816 172.286 22.13 172.103 L 22.13 172.103 L 22.13 172.103 Q 22.177 172.08 22.191 172.08 L 22.191 172.08 L 22.191 172.08 Q 22.22 172.08 22.248 172.122 L 22.248 172.122 L 22.393 172.366 L 22.393 172.366 Q 22.407 172.394 22.407 172.413 L 22.407 172.413 L 22.407 172.413 Q 22.407 172.441 22.355 172.473 L 22.355 172.473 L 22.355 172.473 Q 21.995 172.727 21.263 172.727 L 21.263 172.727 L 21.263 172.727 Z  M 24.155 172.656 L 24.155 172.656 Q 24.09 172.656 24.059 172.633 L 24.059 172.633 L 24.059 172.633 Q 24.029 172.609 24.001 172.539 L 24.001 172.539 L 22.782 169.6 L 22.782 169.6 Q 22.768 169.572 22.768 169.544 L 22.768 169.544 L 22.768 169.544 Q 22.768 169.511 22.789 169.49 L 22.789 169.49 L 22.789 169.49 Q 22.81 169.469 22.848 169.469 L 22.848 169.469 L 23.251 169.469 L 23.251 169.469 Q 23.312 169.469 23.345 169.492 L 23.345 169.492 L 23.345 169.492 Q 23.377 169.516 23.396 169.567 L 23.396 169.567 L 24.282 171.817 L 25.168 169.567 L 25.168 169.567 Q 25.187 169.516 25.22 169.492 L 25.22 169.492 L 25.22 169.492 Q 25.252 169.469 25.313 169.469 L 25.313 169.469 L 25.716 169.469 L 25.716 169.469 Q 25.754 169.469 25.775 169.49 L 25.775 169.49 L 25.775 169.49 Q 25.796 169.511 25.796 169.544 L 25.796 169.544 L 25.796 169.544 Q 25.796 169.572 25.782 169.6 L 25.782 169.6 L 24.568 172.539 L 24.568 172.539 Q 24.54 172.609 24.507 172.633 L 24.507 172.633 L 24.507 172.633 Q 24.474 172.656 24.409 172.656 L 24.409 172.656 L 24.155 172.656 L 24.155 172.656 Z " fill-rule="evenodd" fill="rgb(255,255,255)"/><path d=" M 50.375 163.5 L 59.875 161.75 L 66.875 166.5 L 73.875 174.75 L 71.625 185 L 72.125 196.25 L 69.375 197.75 L 71.875 218 L 70.125 234.5 L 73.375 236.75 L 70.625 269 L 73.125 284 L 69.375 287.25 L 70.375 307.125 L 73.625 312.875 L 71.875 325.625 L 70.875 335.875 L 72.375 346.875 L 65.125 348.375 L 61.125 344.125 L 48.375 348.125 L 45.125 341.875 L 41.375 336.375 L 43.125 323.875 L 45.125 309.375 L 43.375 306.875 L 45.375 293.625 L 42.875 288.875 L 46 262.125 L 41.5 261.375 L 44.75 253.875 L 46.25 245.375 L 41.75 241.125 L 44.5 236.125 L 45.25 223.375 L 42.5 217.625 L 44.5 211.625 L 44.75 199.625 L 42.75 193.375 L 45.25 185.875 L 44.25 178.875 L 42 170.375 L 45.5 164.625 L 50.375 163.5 Z " fill="rgb(23,34,41)"/><path d=" M 88.5 163.375 L 97.75 162.375 L 101 165.625 L 106.5 166.375 L 105.5 173.875 L 104.625 184.625 L 105.625 188.625 L 106.875 197.375 L 105.125 200.875 L 108.125 210.125 L 106.625 213.375 L 104.375 216.375 L 106.625 226.625 L 106.625 231.375 L 105.375 236.625 L 106.875 247.625 L 104.625 254.625 L 105.875 262.875 L 106.875 277 L 105.125 283.5 L 107.625 302.75 L 105.875 305.25 L 105.875 316.25 L 103.125 321.5 L 104.875 329.25 L 105.875 339.75 L 105.375 349.25 L 100.375 349 L 88.875 347 L 84.875 348.25 L 78.375 342.25 L 76.875 333 L 79.875 324.25 L 77.875 317.75 L 77.625 302.75 L 79.125 292.25 L 77.875 284.5 L 80.375 266.25 L 74.875 262.5 L 76.875 249 L 78.875 238.125 L 79.375 225.625 L 76.875 216.875 L 78.375 210.125 L 79.125 199.625 L 76.625 192.625 L 79.625 187.375 L 78 175.5 L 77.5 166.25 L 80.25 161 L 88.5 163.375 Z " fill="rgb(23,34,41)"/><path d=" M 137.5 166.5 L 141 178 L 140.5 187 L 139.25 200.25 L 142.5 205 L 139.125 212.875 L 141.125 221.375 L 139.625 229.125 L 141.375 240.875 L 139.375 248.125 L 138.75 255.625 L 142 258.625 L 139.25 266.625 L 141.75 276.625 L 139.5 286.375 L 139.5 297.375 L 141.5 303.625 L 139.5 311.375 L 139.5 320.375 L 141.25 323.625 L 139.75 337.875 L 139 345.375 L 132.5 348.125 L 124.75 345.625 L 122.25 348.625 L 118.25 344.375 L 110 344.875 L 112.75 335.375 L 114 325.375 L 112.5 315.125 L 111.25 302.875 L 114.5 294.375 L 112.25 288.125 L 112.375 276.875 L 110.625 273.625 L 113.375 263.625 L 111.875 258.625 L 111.375 247.375 L 111.125 239.625 L 113.625 236.375 L 111.875 228.25 L 112.375 217 L 115.667 208.5 L 112.625 202.5 L 114.125 191.75 L 110.875 187.25 L 110.375 178.75 L 114.875 174 L 113.875 167.25 L 111.625 162.75 L 118.875 165 L 126.875 163 L 134.625 162.25 L 137.5 166.5 Z " fill="rgb(23,34,41)"/><path d=" M 55.398 159.245 L 55.398 159.245 Q 55.211 159.245 55.129 159.163 L 55.129 159.163 L 55.129 159.163 Q 55.047 159.081 55.047 158.909 L 55.047 158.909 L 55.047 154.276 L 55.047 154.276 Q 55.047 154.104 55.129 154.018 L 55.129 154.018 L 55.129 154.018 Q 55.211 153.932 55.398 153.932 L 55.398 153.932 L 55.984 153.932 L 55.984 153.932 Q 56.18 153.932 56.258 154.014 L 56.258 154.014 L 56.258 154.014 Q 56.336 154.096 56.336 154.276 L 56.336 154.276 L 56.336 158.909 L 56.336 158.909 Q 56.336 159.081 56.258 159.163 L 56.258 159.163 L 56.258 159.163 Q 56.18 159.245 55.984 159.245 L 55.984 159.245 L 55.398 159.245 L 55.398 159.245 Z  M 57.484 159.245 L 57.484 159.245 Q 57.297 159.245 57.215 159.163 L 57.215 159.163 L 57.215 159.163 Q 57.133 159.081 57.133 158.909 L 57.133 158.909 L 57.133 154.276 L 57.133 154.276 Q 57.133 154.104 57.215 154.018 L 57.215 154.018 L 57.215 154.018 Q 57.297 153.932 57.484 153.932 L 57.484 153.932 L 58.07 153.932 L 58.07 153.932 Q 58.266 153.932 58.344 154.014 L 58.344 154.014 L 58.344 154.014 Q 58.422 154.096 58.422 154.276 L 58.422 154.276 L 58.422 158.909 L 58.422 158.909 Q 58.422 159.081 58.344 159.163 L 58.344 159.163 L 58.344 159.163 Q 58.266 159.245 58.07 159.245 L 58.07 159.245 L 57.484 159.245 L 57.484 159.245 Z " fill-rule="evenodd" fill="rgb(0,0,0)"/><path d=" M 88.445 159.245 L 88.445 159.245 Q 88.258 159.245 88.176 159.163 L 88.176 159.163 L 88.176 159.163 Q 88.094 159.081 88.094 158.909 L 88.094 158.909 L 88.094 154.276 L 88.094 154.276 Q 88.094 154.104 88.176 154.018 L 88.176 154.018 L 88.176 154.018 Q 88.258 153.932 88.445 153.932 L 88.445 153.932 L 89.031 153.932 L 89.031 153.932 Q 89.227 153.932 89.305 154.014 L 89.305 154.014 L 89.305 154.014 Q 89.383 154.096 89.383 154.276 L 89.383 154.276 L 89.383 158.909 L 89.383 158.909 Q 89.383 159.081 89.305 159.163 L 89.305 159.163 L 89.305 159.163 Q 89.227 159.245 89.031 159.245 L 89.031 159.245 L 88.445 159.245 L 88.445 159.245 Z  M 90.531 159.245 L 90.531 159.245 Q 90.344 159.245 90.262 159.163 L 90.262 159.163 L 90.262 159.163 Q 90.18 159.081 90.18 158.909 L 90.18 158.909 L 90.18 154.276 L 90.18 154.276 Q 90.18 154.104 90.262 154.018 L 90.262 154.018 L 90.262 154.018 Q 90.344 153.932 90.531 153.932 L 90.531 153.932 L 91.117 153.932 L 91.117 153.932 Q 91.312 153.932 91.391 154.014 L 91.391 154.014 L 91.391 154.014 Q 91.469 154.096 91.469 154.276 L 91.469 154.276 L 91.469 158.909 L 91.469 158.909 Q 91.469 159.081 91.391 159.163 L 91.391 159.163 L 91.391 159.163 Q 91.312 159.245 91.117 159.245 L 91.117 159.245 L 90.531 159.245 L 90.531 159.245 Z  M 92.617 159.245 L 92.617 159.245 Q 92.43 159.245 92.348 159.163 L 92.348 159.163 L 92.348 159.163 Q 92.266 159.081 92.266 158.909 L 92.266 158.909 L 92.266 154.276 L 92.266 154.276 Q 92.266 154.104 92.348 154.018 L 92.348 154.018 L 92.348 154.018 Q 92.43 153.932 92.617 153.932 L 92.617 153.932 L 93.203 153.932 L 93.203 153.932 Q 93.398 153.932 93.477 154.014 L 93.477 154.014 L 93.477 154.014 Q 93.555 154.096 93.555 154.276 L 93.555 154.276 L 93.555 158.909 L 93.555 158.909 Q 93.555 159.081 93.477 159.163 L 93.477 159.163 L 93.477 159.163 Q 93.398 159.245 93.203 159.245 L 93.203 159.245 L 92.617 159.245 L 92.617 159.245 Z " fill-rule="evenodd" fill="rgb(0,0,0)"/><path d=" M 122.273 159.245 L 122.273 159.245 Q 122.086 159.245 122.004 159.163 L 122.004 159.163 L 122.004 159.163 Q 121.922 159.081 121.922 158.909 L 121.922 158.909 L 121.922 154.276 L 121.922 154.276 Q 121.922 154.104 122.004 154.018 L 122.004 154.018 L 122.004 154.018 Q 122.086 153.932 122.273 153.932 L 122.273 153.932 L 122.859 153.932 L 122.859 153.932 Q 123.055 153.932 123.133 154.014 L 123.133 154.014 L 123.133 154.014 Q 123.211 154.096 123.211 154.276 L 123.211 154.276 L 123.211 158.909 L 123.211 158.909 Q 123.211 159.081 123.133 159.163 L 123.133 159.163 L 123.133 159.163 Q 123.055 159.245 122.859 159.245 L 122.859 159.245 L 122.273 159.245 L 122.273 159.245 Z  M 126.164 159.245 L 126.164 159.245 Q 126.039 159.245 125.977 159.198 L 125.977 159.198 L 125.977 159.198 Q 125.914 159.151 125.859 159.018 L 125.859 159.018 L 123.883 154.19 L 123.883 154.19 Q 123.859 154.12 123.859 154.065 L 123.859 154.065 L 123.859 154.065 Q 123.859 153.932 124 153.932 L 124 153.932 L 124.938 153.932 L 124.938 153.932 Q 125.047 153.932 125.105 153.979 L 125.105 153.979 L 125.105 153.979 Q 125.164 154.026 125.195 154.112 L 125.195 154.112 L 126.445 157.464 L 127.695 154.112 L 127.695 154.112 Q 127.758 153.932 127.961 153.932 L 127.961 153.932 L 128.898 153.932 L 128.898 153.932 Q 129.039 153.932 129.039 154.065 L 129.039 154.065 L 129.039 154.065 Q 129.039 154.12 129.016 154.19 L 129.016 154.19 L 127.047 159.018 L 127.047 159.018 Q 126.992 159.151 126.926 159.198 L 126.926 159.198 L 126.926 159.198 Q 126.859 159.245 126.734 159.245 L 126.734 159.245 L 126.164 159.245 L 126.164 159.245 Z " fill-rule="evenodd" fill="rgb(0,0,0)"/><path d=" M 22.273 159.245 L 22.273 159.245 Q 22.086 159.245 22.004 159.163 L 22.004 159.163 L 22.004 159.163 Q 21.922 159.081 21.922 158.909 L 21.922 158.909 L 21.922 154.276 L 21.922 154.276 Q 21.922 154.104 22.004 154.018 L 22.004 154.018 L 22.004 154.018 Q 22.086 153.932 22.273 153.932 L 22.273 153.932 L 22.859 153.932 L 22.859 153.932 Q 23.055 153.932 23.133 154.014 L 23.133 154.014 L 23.133 154.014 Q 23.211 154.096 23.211 154.276 L 23.211 154.276 L 23.211 158.909 L 23.211 158.909 Q 23.211 159.081 23.133 159.163 L 23.133 159.163 L 23.133 159.163 Q 23.055 159.245 22.859 159.245 L 22.859 159.245 L 22.273 159.245 L 22.273 159.245 Z " fill="rgb(0,0,0)"/><path d=" M 18.462 219.992 L 18.462 219.992 Q 17.666 219.992 17.23 219.561 L 17.23 219.561 L 17.23 219.561 Q 16.794 219.13 16.794 218.328 L 16.794 218.328 L 16.794 218.328 Q 16.794 217.531 17.232 217.098 L 17.232 217.098 L 17.232 217.098 Q 17.67 216.664 18.462 216.664 L 18.462 216.664 L 18.462 216.664 Q 18.781 216.664 19.058 216.73 L 19.058 216.73 L 19.058 216.73 Q 19.334 216.795 19.517 216.917 L 19.517 216.917 L 19.517 216.917 Q 19.559 216.945 19.559 216.978 L 19.559 216.978 L 19.559 216.978 Q 19.559 217.002 19.541 217.034 L 19.541 217.034 L 19.405 217.269 L 19.405 217.269 Q 19.377 217.311 19.348 217.311 L 19.348 217.311 L 19.348 217.311 Q 19.334 217.311 19.287 217.288 L 19.287 217.288 L 19.287 217.288 Q 18.969 217.109 18.528 217.109 L 18.528 217.109 L 18.528 217.109 Q 17.994 217.109 17.689 217.412 L 17.689 217.412 L 17.689 217.412 Q 17.384 217.714 17.384 218.328 L 17.384 218.328 L 17.384 218.328 Q 17.384 218.947 17.68 219.247 L 17.68 219.247 L 17.68 219.247 Q 17.975 219.547 18.491 219.547 L 18.491 219.547 L 18.491 219.547 Q 18.678 219.547 18.856 219.516 L 18.856 219.516 L 18.856 219.516 Q 19.034 219.486 19.147 219.43 L 19.147 219.43 L 19.147 218.563 L 18.528 218.563 L 18.528 218.563 Q 18.434 218.563 18.397 218.523 L 18.397 218.523 L 18.397 218.523 Q 18.359 218.483 18.359 218.394 L 18.359 218.394 L 18.359 218.272 L 18.359 218.272 Q 18.359 218.183 18.397 218.148 L 18.397 218.148 L 18.397 218.148 Q 18.434 218.113 18.528 218.113 L 18.528 218.113 L 19.517 218.113 L 19.517 218.113 Q 19.62 218.113 19.665 218.162 L 19.665 218.162 L 19.665 218.162 Q 19.709 218.211 19.709 218.314 L 19.709 218.314 L 19.709 219.552 L 19.709 219.552 Q 19.709 219.622 19.695 219.657 L 19.695 219.657 L 19.695 219.657 Q 19.681 219.692 19.634 219.72 L 19.634 219.72 L 19.634 219.72 Q 19.203 219.992 18.462 219.992 L 18.462 219.992 L 18.462 219.992 Z  M 20.155 219.922 L 20.155 219.922 Q 20.075 219.922 20.075 219.852 L 20.075 219.852 L 20.075 219.852 Q 20.075 219.823 20.089 219.791 L 20.089 219.791 L 21.327 216.856 L 21.327 216.856 Q 21.355 216.786 21.387 216.76 L 21.387 216.76 L 21.387 216.76 Q 21.42 216.734 21.481 216.734 L 21.481 216.734 L 21.739 216.734 L 21.739 216.734 Q 21.805 216.734 21.835 216.76 L 21.835 216.76 L 21.835 216.76 Q 21.866 216.786 21.894 216.856 L 21.894 216.856 L 23.131 219.791 L 23.131 219.791 Q 23.145 219.823 23.145 219.852 L 23.145 219.852 L 23.145 219.852 Q 23.145 219.922 23.066 219.922 L 23.066 219.922 L 22.658 219.922 L 22.658 219.922 Q 22.597 219.922 22.571 219.905 L 22.571 219.905 L 22.571 219.905 Q 22.545 219.889 22.522 219.838 L 22.522 219.838 L 22.255 219.181 L 20.961 219.181 L 20.698 219.838 L 20.698 219.838 Q 20.675 219.889 20.649 219.905 L 20.649 219.905 L 20.649 219.905 Q 20.623 219.922 20.562 219.922 L 20.562 219.922 L 20.155 219.922 L 20.155 219.922 Z  M 21.111 218.745 L 22.105 218.745 L 21.608 217.517 L 21.111 218.745 L 21.111 218.745 Z  M 24.58 219.922 L 24.58 219.922 Q 24.486 219.922 24.444 219.88 L 24.444 219.88 L 24.444 219.88 Q 24.402 219.838 24.402 219.753 L 24.402 219.753 L 24.402 217.194 L 23.581 217.194 L 23.581 217.194 Q 23.487 217.194 23.452 217.156 L 23.452 217.156 L 23.452 217.156 Q 23.417 217.119 23.417 217.03 L 23.417 217.03 L 23.417 216.903 L 23.417 216.903 Q 23.417 216.814 23.452 216.774 L 23.452 216.774 L 23.452 216.774 Q 23.487 216.734 23.581 216.734 L 23.581 216.734 L 25.822 216.734 L 25.822 216.734 Q 25.916 216.734 25.953 216.774 L 25.953 216.774 L 25.953 216.774 Q 25.991 216.814 25.991 216.903 L 25.991 216.903 L 25.991 217.03 L 25.991 217.03 Q 25.991 217.119 25.953 217.156 L 25.953 217.156 L 25.953 217.156 Q 25.916 217.194 25.822 217.194 L 25.822 217.194 L 25.002 217.194 L 25.002 219.753 L 25.002 219.753 Q 25.002 219.838 24.962 219.88 L 24.962 219.88 L 24.962 219.88 Q 24.922 219.922 24.823 219.922 L 24.823 219.922 L 24.58 219.922 L 24.58 219.922 Z  M 26.53 219.922 L 26.53 219.922 Q 26.436 219.922 26.396 219.88 L 26.396 219.88 L 26.396 219.88 Q 26.356 219.838 26.356 219.753 L 26.356 219.753 L 26.356 216.908 L 26.356 216.908 Q 26.356 216.819 26.396 216.777 L 26.396 216.777 L 26.396 216.777 Q 26.436 216.734 26.53 216.734 L 26.53 216.734 L 28.48 216.734 L 28.48 216.734 Q 28.573 216.734 28.609 216.772 L 28.609 216.772 L 28.609 216.772 Q 28.644 216.809 28.644 216.898 L 28.644 216.898 L 28.644 217.025 L 28.644 217.025 Q 28.644 217.114 28.609 217.154 L 28.609 217.154 L 28.609 217.154 Q 28.573 217.194 28.48 217.194 L 28.48 217.194 L 26.956 217.194 L 26.956 218.103 L 28.062 218.103 L 28.062 218.103 Q 28.156 218.103 28.194 218.141 L 28.194 218.141 L 28.194 218.141 Q 28.231 218.178 28.231 218.267 L 28.231 218.267 L 28.231 218.384 L 28.231 218.384 Q 28.231 218.473 28.194 218.513 L 28.194 218.513 L 28.194 218.513 Q 28.156 218.553 28.062 218.553 L 28.062 218.553 L 26.956 218.553 L 26.956 219.467 L 28.475 219.467 L 28.475 219.467 Q 28.569 219.467 28.606 219.507 L 28.606 219.507 L 28.606 219.507 Q 28.644 219.547 28.644 219.636 L 28.644 219.636 L 28.644 219.763 L 28.644 219.763 Q 28.644 219.847 28.606 219.884 L 28.606 219.884 L 28.606 219.884 Q 28.569 219.922 28.475 219.922 L 28.475 219.922 L 26.53 219.922 L 26.53 219.922 Z " fill-rule="evenodd" fill="rgb(255,255,255)"/><path d=" M 19.934 267.188 L 19.934 267.188 Q 19.869 267.188 19.838 267.164 L 19.838 267.164 L 19.838 267.164 Q 19.808 267.141 19.78 267.07 L 19.78 267.07 L 18.561 264.131 L 18.561 264.131 Q 18.547 264.103 18.547 264.075 L 18.547 264.075 L 18.547 264.075 Q 18.547 264.042 18.568 264.021 L 18.568 264.021 L 18.568 264.021 Q 18.589 264 18.627 264 L 18.627 264 L 19.03 264 L 19.03 264 Q 19.091 264 19.123 264.023 L 19.123 264.023 L 19.123 264.023 Q 19.156 264.047 19.175 264.098 L 19.175 264.098 L 20.061 266.348 L 20.947 264.098 L 20.947 264.098 Q 20.966 264.047 20.998 264.023 L 20.998 264.023 L 20.998 264.023 Q 21.031 264 21.092 264 L 21.092 264 L 21.495 264 L 21.495 264 Q 21.533 264 21.554 264.021 L 21.554 264.021 L 21.554 264.021 Q 21.575 264.042 21.575 264.075 L 21.575 264.075 L 21.575 264.075 Q 21.575 264.103 21.561 264.131 L 21.561 264.131 L 20.347 267.07 L 20.347 267.07 Q 20.319 267.141 20.286 267.164 L 20.286 267.164 L 20.286 267.164 Q 20.253 267.188 20.187 267.188 L 20.187 267.188 L 19.934 267.188 L 19.934 267.188 Z  M 22.208 267.188 L 22.208 267.188 Q 22.114 267.188 22.074 267.145 L 22.074 267.145 L 22.074 267.145 Q 22.034 267.103 22.034 267.019 L 22.034 267.019 L 22.034 264.173 L 22.034 264.173 Q 22.034 264.084 22.074 264.042 L 22.074 264.042 L 22.074 264.042 Q 22.114 264 22.208 264 L 22.208 264 L 24.158 264 L 24.158 264 Q 24.252 264 24.287 264.038 L 24.287 264.038 L 24.287 264.038 Q 24.322 264.075 24.322 264.164 L 24.322 264.164 L 24.322 264.291 L 24.322 264.291 Q 24.322 264.38 24.287 264.42 L 24.287 264.42 L 24.287 264.42 Q 24.252 264.459 24.158 264.459 L 24.158 264.459 L 22.634 264.459 L 22.634 265.369 L 23.741 265.369 L 23.741 265.369 Q 23.834 265.369 23.872 265.406 L 23.872 265.406 L 23.872 265.406 Q 23.909 265.444 23.909 265.533 L 23.909 265.533 L 23.909 265.65 L 23.909 265.65 Q 23.909 265.739 23.872 265.779 L 23.872 265.779 L 23.872 265.779 Q 23.834 265.819 23.741 265.819 L 23.741 265.819 L 22.634 265.819 L 22.634 266.733 L 24.153 266.733 L 24.153 266.733 Q 24.247 266.733 24.284 266.773 L 24.284 266.773 L 24.284 266.773 Q 24.322 266.813 24.322 266.902 L 24.322 266.902 L 24.322 267.028 L 24.322 267.028 Q 24.322 267.113 24.284 267.15 L 24.284 267.15 L 24.284 267.15 Q 24.247 267.188 24.153 267.188 L 24.153 267.188 L 22.208 267.188 L 22.208 267.188 Z  M 24.908 267.188 L 24.908 267.188 Q 24.814 267.188 24.774 267.145 L 24.774 267.145 L 24.774 267.145 Q 24.734 267.103 24.734 267.019 L 24.734 267.019 L 24.734 264.173 L 24.734 264.173 Q 24.734 264.084 24.774 264.042 L 24.774 264.042 L 24.774 264.042 Q 24.814 264 24.908 264 L 24.908 264 L 25.156 264 L 25.156 264 Q 25.25 264 25.292 264.042 L 25.292 264.042 L 25.292 264.042 Q 25.334 264.084 25.334 264.173 L 25.334 264.173 L 25.334 266.733 L 26.769 266.733 L 26.769 266.733 Q 26.862 266.733 26.9 266.773 L 26.9 266.773 L 26.9 266.773 Q 26.937 266.813 26.937 266.902 L 26.937 266.902 L 26.937 267.028 L 26.937 267.028 Q 26.937 267.113 26.9 267.15 L 26.9 267.15 L 26.9 267.15 Q 26.862 267.188 26.769 267.188 L 26.769 267.188 L 24.908 267.188 L 24.908 267.188 Z " fill-rule="evenodd" fill="rgb(255,255,255)"/><path d=" M 18.537 314.375 L 18.537 314.375 Q 18.458 314.375 18.458 314.305 L 18.458 314.305 L 18.458 314.305 Q 18.458 314.277 18.472 314.244 L 18.472 314.244 L 19.709 311.309 L 19.709 311.309 Q 19.737 311.239 19.77 311.213 L 19.77 311.213 L 19.77 311.213 Q 19.803 311.188 19.864 311.188 L 19.864 311.188 L 20.122 311.188 L 20.122 311.188 Q 20.187 311.188 20.218 311.213 L 20.218 311.213 L 20.218 311.213 Q 20.248 311.239 20.277 311.309 L 20.277 311.309 L 21.514 314.244 L 21.514 314.244 Q 21.528 314.277 21.528 314.305 L 21.528 314.305 L 21.528 314.305 Q 21.528 314.375 21.448 314.375 L 21.448 314.375 L 21.041 314.375 L 21.041 314.375 Q 20.98 314.375 20.954 314.359 L 20.954 314.359 L 20.954 314.359 Q 20.928 314.342 20.905 314.291 L 20.905 314.291 L 20.637 313.634 L 19.344 313.634 L 19.081 314.291 L 19.081 314.291 Q 19.058 314.342 19.032 314.359 L 19.032 314.359 L 19.032 314.359 Q 19.006 314.375 18.945 314.375 L 18.945 314.375 L 18.537 314.375 L 18.537 314.375 Z  M 19.494 313.199 L 20.487 313.199 L 19.991 311.97 L 19.494 313.199 L 19.494 313.199 Z  M 22.161 314.375 L 22.161 314.375 Q 22.067 314.375 22.027 314.333 L 22.027 314.333 L 22.027 314.333 Q 21.987 314.291 21.987 314.206 L 21.987 314.206 L 21.987 311.361 L 21.987 311.361 Q 21.987 311.272 22.027 311.23 L 22.027 311.23 L 22.027 311.23 Q 22.067 311.188 22.161 311.188 L 22.161 311.188 L 24.111 311.188 L 24.111 311.188 Q 24.205 311.188 24.24 311.225 L 24.24 311.225 L 24.24 311.225 Q 24.275 311.263 24.275 311.352 L 24.275 311.352 L 24.275 311.478 L 24.275 311.478 Q 24.275 311.567 24.24 311.607 L 24.24 311.607 L 24.24 311.607 Q 24.205 311.647 24.111 311.647 L 24.111 311.647 L 22.587 311.647 L 22.587 312.552 L 23.694 312.552 L 23.694 312.552 Q 23.787 312.552 23.825 312.589 L 23.825 312.589 L 23.825 312.589 Q 23.862 312.627 23.862 312.716 L 23.862 312.716 L 23.862 312.842 L 23.862 312.842 Q 23.862 312.931 23.825 312.971 L 23.825 312.971 L 23.825 312.971 Q 23.787 313.011 23.694 313.011 L 23.694 313.011 L 22.587 313.011 L 22.587 314.206 L 22.587 314.206 Q 22.587 314.291 22.548 314.333 L 22.548 314.333 L 22.548 314.333 Q 22.508 314.375 22.409 314.375 L 22.409 314.375 L 22.161 314.375 L 22.161 314.375 Z  M 25.616 314.375 L 25.616 314.375 Q 25.522 314.375 25.48 314.333 L 25.48 314.333 L 25.48 314.333 Q 25.437 314.291 25.437 314.206 L 25.437 314.206 L 25.437 311.647 L 24.617 311.647 L 24.617 311.647 Q 24.523 311.647 24.488 311.609 L 24.488 311.609 L 24.488 311.609 Q 24.453 311.572 24.453 311.483 L 24.453 311.483 L 24.453 311.356 L 24.453 311.356 Q 24.453 311.267 24.488 311.227 L 24.488 311.227 L 24.488 311.227 Q 24.523 311.188 24.617 311.188 L 24.617 311.188 L 26.858 311.188 L 26.858 311.188 Q 26.952 311.188 26.989 311.227 L 26.989 311.227 L 26.989 311.227 Q 27.027 311.267 27.027 311.356 L 27.027 311.356 L 27.027 311.483 L 27.027 311.483 Q 27.027 311.572 26.989 311.609 L 26.989 311.609 L 26.989 311.609 Q 26.952 311.647 26.858 311.647 L 26.858 311.647 L 26.037 311.647 L 26.037 314.206 L 26.037 314.206 Q 26.037 314.291 25.998 314.333 L 25.998 314.333 L 25.998 314.333 Q 25.958 314.375 25.859 314.375 L 25.859 314.375 L 25.616 314.375 L 25.616 314.375 Z " fill-rule="evenodd" fill="rgb(255,255,255)"/><path d=" M 55.56 172.727 L 55.56 172.727 Q 54.763 172.727 54.327 172.295 L 54.327 172.295 L 54.327 172.295 Q 53.891 171.864 53.891 171.063 L 53.891 171.063 L 53.891 171.063 Q 53.891 170.261 54.32 169.83 L 54.32 169.83 L 54.32 169.83 Q 54.749 169.398 55.546 169.398 L 55.546 169.398 L 55.546 169.398 Q 55.865 169.398 56.137 169.464 L 56.137 169.464 L 56.137 169.464 Q 56.409 169.53 56.596 169.652 L 56.596 169.652 L 56.596 169.652 Q 56.638 169.68 56.638 169.713 L 56.638 169.713 L 56.638 169.713 Q 56.638 169.741 56.615 169.778 L 56.615 169.778 L 56.484 170.003 L 56.484 170.003 Q 56.455 170.045 56.432 170.045 L 56.432 170.045 L 56.432 170.045 Q 56.413 170.045 56.366 170.022 L 56.366 170.022 L 56.366 170.022 Q 56.071 169.844 55.612 169.844 L 55.612 169.844 L 55.612 169.844 Q 55.082 169.844 54.782 170.148 L 54.782 170.148 L 54.782 170.148 Q 54.482 170.453 54.482 171.063 L 54.482 171.063 L 54.482 171.063 Q 54.482 171.681 54.791 171.984 L 54.791 171.984 L 54.791 171.984 Q 55.101 172.286 55.626 172.286 L 55.626 172.286 L 55.626 172.286 Q 56.113 172.286 56.427 172.103 L 56.427 172.103 L 56.427 172.103 Q 56.474 172.08 56.488 172.08 L 56.488 172.08 L 56.488 172.08 Q 56.516 172.08 56.545 172.122 L 56.545 172.122 L 56.69 172.366 L 56.69 172.366 Q 56.704 172.394 56.704 172.413 L 56.704 172.413 L 56.704 172.413 Q 56.704 172.441 56.652 172.473 L 56.652 172.473 L 56.652 172.473 Q 56.291 172.727 55.56 172.727 L 55.56 172.727 L 55.56 172.727 Z  M 58.452 172.656 L 58.452 172.656 Q 58.387 172.656 58.356 172.633 L 58.356 172.633 L 58.356 172.633 Q 58.326 172.609 58.298 172.539 L 58.298 172.539 L 57.079 169.6 L 57.079 169.6 Q 57.065 169.572 57.065 169.544 L 57.065 169.544 L 57.065 169.544 Q 57.065 169.511 57.086 169.49 L 57.086 169.49 L 57.086 169.49 Q 57.107 169.469 57.145 169.469 L 57.145 169.469 L 57.548 169.469 L 57.548 169.469 Q 57.609 169.469 57.641 169.492 L 57.641 169.492 L 57.641 169.492 Q 57.674 169.516 57.693 169.567 L 57.693 169.567 L 58.579 171.817 L 59.465 169.567 L 59.465 169.567 Q 59.484 169.516 59.516 169.492 L 59.516 169.492 L 59.516 169.492 Q 59.549 169.469 59.61 169.469 L 59.61 169.469 L 60.013 169.469 L 60.013 169.469 Q 60.051 169.469 60.072 169.49 L 60.072 169.49 L 60.072 169.49 Q 60.093 169.511 60.093 169.544 L 60.093 169.544 L 60.093 169.544 Q 60.093 169.572 60.079 169.6 L 60.079 169.6 L 58.865 172.539 L 58.865 172.539 Q 58.837 172.609 58.804 172.633 L 58.804 172.633 L 58.804 172.633 Q 58.771 172.656 58.705 172.656 L 58.705 172.656 L 58.452 172.656 L 58.452 172.656 Z " fill-rule="evenodd" fill="rgb(255,255,255)"/><path d=" M 52.759 219.992 L 52.759 219.992 Q 51.963 219.992 51.527 219.561 L 51.527 219.561 L 51.527 219.561 Q 51.091 219.13 51.091 218.328 L 51.091 218.328 L 51.091 218.328 Q 51.091 217.531 51.529 217.098 L 51.529 217.098 L 51.529 217.098 Q 51.967 216.664 52.759 216.664 L 52.759 216.664 L 52.759 216.664 Q 53.078 216.664 53.355 216.73 L 53.355 216.73 L 53.355 216.73 Q 53.631 216.795 53.814 216.917 L 53.814 216.917 L 53.814 216.917 Q 53.856 216.945 53.856 216.978 L 53.856 216.978 L 53.856 216.978 Q 53.856 217.002 53.838 217.034 L 53.838 217.034 L 53.702 217.269 L 53.702 217.269 Q 53.673 217.311 53.645 217.311 L 53.645 217.311 L 53.645 217.311 Q 53.631 217.311 53.584 217.288 L 53.584 217.288 L 53.584 217.288 Q 53.266 217.109 52.825 217.109 L 52.825 217.109 L 52.825 217.109 Q 52.291 217.109 51.986 217.412 L 51.986 217.412 L 51.986 217.412 Q 51.681 217.714 51.681 218.328 L 51.681 218.328 L 51.681 218.328 Q 51.681 218.947 51.977 219.247 L 51.977 219.247 L 51.977 219.247 Q 52.272 219.547 52.788 219.547 L 52.788 219.547 L 52.788 219.547 Q 52.975 219.547 53.153 219.516 L 53.153 219.516 L 53.153 219.516 Q 53.331 219.486 53.444 219.43 L 53.444 219.43 L 53.444 218.563 L 52.825 218.563 L 52.825 218.563 Q 52.731 218.563 52.694 218.523 L 52.694 218.523 L 52.694 218.523 Q 52.656 218.483 52.656 218.394 L 52.656 218.394 L 52.656 218.272 L 52.656 218.272 Q 52.656 218.183 52.694 218.148 L 52.694 218.148 L 52.694 218.148 Q 52.731 218.113 52.825 218.113 L 52.825 218.113 L 53.814 218.113 L 53.814 218.113 Q 53.917 218.113 53.962 218.162 L 53.962 218.162 L 53.962 218.162 Q 54.006 218.211 54.006 218.314 L 54.006 218.314 L 54.006 219.552 L 54.006 219.552 Q 54.006 219.622 53.992 219.657 L 53.992 219.657 L 53.992 219.657 Q 53.978 219.692 53.931 219.72 L 53.931 219.72 L 53.931 219.72 Q 53.5 219.992 52.759 219.992 L 52.759 219.992 L 52.759 219.992 Z  M 54.452 219.922 L 54.452 219.922 Q 54.372 219.922 54.372 219.852 L 54.372 219.852 L 54.372 219.852 Q 54.372 219.823 54.386 219.791 L 54.386 219.791 L 55.623 216.856 L 55.623 216.856 Q 55.652 216.786 55.684 216.76 L 55.684 216.76 L 55.684 216.76 Q 55.717 216.734 55.778 216.734 L 55.778 216.734 L 56.036 216.734 L 56.036 216.734 Q 56.102 216.734 56.132 216.76 L 56.132 216.76 L 56.132 216.76 Q 56.163 216.786 56.191 216.856 L 56.191 216.856 L 57.428 219.791 L 57.428 219.791 Q 57.442 219.823 57.442 219.852 L 57.442 219.852 L 57.442 219.852 Q 57.442 219.922 57.363 219.922 L 57.363 219.922 L 56.955 219.922 L 56.955 219.922 Q 56.894 219.922 56.868 219.905 L 56.868 219.905 L 56.868 219.905 Q 56.842 219.889 56.819 219.838 L 56.819 219.838 L 56.552 219.181 L 55.258 219.181 L 54.995 219.838 L 54.995 219.838 Q 54.972 219.889 54.946 219.905 L 54.946 219.905 L 54.946 219.905 Q 54.92 219.922 54.859 219.922 L 54.859 219.922 L 54.452 219.922 L 54.452 219.922 Z  M 55.408 218.745 L 56.402 218.745 L 55.905 217.517 L 55.408 218.745 L 55.408 218.745 Z  M 58.877 219.922 L 58.877 219.922 Q 58.783 219.922 58.741 219.88 L 58.741 219.88 L 58.741 219.88 Q 58.698 219.838 58.698 219.753 L 58.698 219.753 L 58.698 217.194 L 57.878 217.194 L 57.878 217.194 Q 57.784 217.194 57.749 217.156 L 57.749 217.156 L 57.749 217.156 Q 57.714 217.119 57.714 217.03 L 57.714 217.03 L 57.714 216.903 L 57.714 216.903 Q 57.714 216.814 57.749 216.774 L 57.749 216.774 L 57.749 216.774 Q 57.784 216.734 57.878 216.734 L 57.878 216.734 L 60.119 216.734 L 60.119 216.734 Q 60.213 216.734 60.25 216.774 L 60.25 216.774 L 60.25 216.774 Q 60.288 216.814 60.288 216.903 L 60.288 216.903 L 60.288 217.03 L 60.288 217.03 Q 60.288 217.119 60.25 217.156 L 60.25 217.156 L 60.25 217.156 Q 60.213 217.194 60.119 217.194 L 60.119 217.194 L 59.298 217.194 L 59.298 219.753 L 59.298 219.753 Q 59.298 219.838 59.259 219.88 L 59.259 219.88 L 59.259 219.88 Q 59.219 219.922 59.12 219.922 L 59.12 219.922 L 58.877 219.922 L 58.877 219.922 Z  M 60.827 219.922 L 60.827 219.922 Q 60.733 219.922 60.693 219.88 L 60.693 219.88 L 60.693 219.88 Q 60.653 219.838 60.653 219.753 L 60.653 219.753 L 60.653 216.908 L 60.653 216.908 Q 60.653 216.819 60.693 216.777 L 60.693 216.777 L 60.693 216.777 Q 60.733 216.734 60.827 216.734 L 60.827 216.734 L 62.777 216.734 L 62.777 216.734 Q 62.87 216.734 62.905 216.772 L 62.905 216.772 L 62.905 216.772 Q 62.941 216.809 62.941 216.898 L 62.941 216.898 L 62.941 217.025 L 62.941 217.025 Q 62.941 217.114 62.905 217.154 L 62.905 217.154 L 62.905 217.154 Q 62.87 217.194 62.777 217.194 L 62.777 217.194 L 61.253 217.194 L 61.253 218.103 L 62.359 218.103 L 62.359 218.103 Q 62.453 218.103 62.491 218.141 L 62.491 218.141 L 62.491 218.141 Q 62.528 218.178 62.528 218.267 L 62.528 218.267 L 62.528 218.384 L 62.528 218.384 Q 62.528 218.473 62.491 218.513 L 62.491 218.513 L 62.491 218.513 Q 62.453 218.553 62.359 218.553 L 62.359 218.553 L 61.253 218.553 L 61.253 219.467 L 62.772 219.467 L 62.772 219.467 Q 62.866 219.467 62.903 219.507 L 62.903 219.507 L 62.903 219.507 Q 62.941 219.547 62.941 219.636 L 62.941 219.636 L 62.941 219.763 L 62.941 219.763 Q 62.941 219.847 62.903 219.884 L 62.903 219.884 L 62.903 219.884 Q 62.866 219.922 62.772 219.922 L 62.772 219.922 L 60.827 219.922 L 60.827 219.922 Z " fill-rule="evenodd" fill="rgb(255,255,255)"/><path d=" M 54.231 267.188 L 54.231 267.188 Q 54.166 267.188 54.135 267.164 L 54.135 267.164 L 54.135 267.164 Q 54.105 267.141 54.077 267.07 L 54.077 267.07 L 52.858 264.131 L 52.858 264.131 Q 52.844 264.103 52.844 264.075 L 52.844 264.075 L 52.844 264.075 Q 52.844 264.042 52.865 264.021 L 52.865 264.021 L 52.865 264.021 Q 52.886 264 52.923 264 L 52.923 264 L 53.327 264 L 53.327 264 Q 53.388 264 53.42 264.023 L 53.42 264.023 L 53.42 264.023 Q 53.453 264.047 53.472 264.098 L 53.472 264.098 L 54.358 266.348 L 55.244 264.098 L 55.244 264.098 Q 55.263 264.047 55.295 264.023 L 55.295 264.023 L 55.295 264.023 Q 55.328 264 55.389 264 L 55.389 264 L 55.792 264 L 55.792 264 Q 55.83 264 55.851 264.021 L 55.851 264.021 L 55.851 264.021 Q 55.872 264.042 55.872 264.075 L 55.872 264.075 L 55.872 264.075 Q 55.872 264.103 55.858 264.131 L 55.858 264.131 L 54.644 267.07 L 54.644 267.07 Q 54.616 267.141 54.583 267.164 L 54.583 267.164 L 54.583 267.164 Q 54.55 267.188 54.484 267.188 L 54.484 267.188 L 54.231 267.188 L 54.231 267.188 Z  M 56.505 267.188 L 56.505 267.188 Q 56.411 267.188 56.371 267.145 L 56.371 267.145 L 56.371 267.145 Q 56.331 267.103 56.331 267.019 L 56.331 267.019 L 56.331 264.173 L 56.331 264.173 Q 56.331 264.084 56.371 264.042 L 56.371 264.042 L 56.371 264.042 Q 56.411 264 56.505 264 L 56.505 264 L 58.455 264 L 58.455 264 Q 58.548 264 58.584 264.038 L 58.584 264.038 L 58.584 264.038 Q 58.619 264.075 58.619 264.164 L 58.619 264.164 L 58.619 264.291 L 58.619 264.291 Q 58.619 264.38 58.584 264.42 L 58.584 264.42 L 58.584 264.42 Q 58.548 264.459 58.455 264.459 L 58.455 264.459 L 56.931 264.459 L 56.931 265.369 L 58.038 265.369 L 58.038 265.369 Q 58.131 265.369 58.169 265.406 L 58.169 265.406 L 58.169 265.406 Q 58.206 265.444 58.206 265.533 L 58.206 265.533 L 58.206 265.65 L 58.206 265.65 Q 58.206 265.739 58.169 265.779 L 58.169 265.779 L 58.169 265.779 Q 58.131 265.819 58.038 265.819 L 58.038 265.819 L 56.931 265.819 L 56.931 266.733 L 58.45 266.733 L 58.45 266.733 Q 58.544 266.733 58.581 266.773 L 58.581 266.773 L 58.581 266.773 Q 58.619 266.813 58.619 266.902 L 58.619 266.902 L 58.619 267.028 L 58.619 267.028 Q 58.619 267.113 58.581 267.15 L 58.581 267.15 L 58.581 267.15 Q 58.544 267.188 58.45 267.188 L 58.45 267.188 L 56.505 267.188 L 56.505 267.188 Z  M 59.205 267.188 L 59.205 267.188 Q 59.111 267.188 59.071 267.145 L 59.071 267.145 L 59.071 267.145 Q 59.031 267.103 59.031 267.019 L 59.031 267.019 L 59.031 264.173 L 59.031 264.173 Q 59.031 264.084 59.071 264.042 L 59.071 264.042 L 59.071 264.042 Q 59.111 264 59.205 264 L 59.205 264 L 59.453 264 L 59.453 264 Q 59.547 264 59.589 264.042 L 59.589 264.042 L 59.589 264.042 Q 59.631 264.084 59.631 264.173 L 59.631 264.173 L 59.631 266.733 L 61.066 266.733 L 61.066 266.733 Q 61.159 266.733 61.197 266.773 L 61.197 266.773 L 61.197 266.773 Q 61.234 266.813 61.234 266.902 L 61.234 266.902 L 61.234 267.028 L 61.234 267.028 Q 61.234 267.113 61.197 267.15 L 61.197 267.15 L 61.197 267.15 Q 61.159 267.188 61.066 267.188 L 61.066 267.188 L 59.205 267.188 L 59.205 267.188 Z " fill-rule="evenodd" fill="rgb(255,255,255)"/><path d=" M 52.834 314.375 L 52.834 314.375 Q 52.755 314.375 52.755 314.305 L 52.755 314.305 L 52.755 314.305 Q 52.755 314.277 52.769 314.244 L 52.769 314.244 L 54.006 311.309 L 54.006 311.309 Q 54.034 311.239 54.067 311.213 L 54.067 311.213 L 54.067 311.213 Q 54.1 311.188 54.161 311.188 L 54.161 311.188 L 54.419 311.188 L 54.419 311.188 Q 54.484 311.188 54.515 311.213 L 54.515 311.213 L 54.515 311.213 Q 54.545 311.239 54.573 311.309 L 54.573 311.309 L 55.811 314.244 L 55.811 314.244 Q 55.825 314.277 55.825 314.305 L 55.825 314.305 L 55.825 314.305 Q 55.825 314.375 55.745 314.375 L 55.745 314.375 L 55.338 314.375 L 55.338 314.375 Q 55.277 314.375 55.251 314.359 L 55.251 314.359 L 55.251 314.359 Q 55.225 314.342 55.202 314.291 L 55.202 314.291 L 54.934 313.634 L 53.641 313.634 L 53.378 314.291 L 53.378 314.291 Q 53.355 314.342 53.329 314.359 L 53.329 314.359 L 53.329 314.359 Q 53.303 314.375 53.242 314.375 L 53.242 314.375 L 52.834 314.375 L 52.834 314.375 Z  M 53.791 313.199 L 54.784 313.199 L 54.288 311.97 L 53.791 313.199 L 53.791 313.199 Z  M 56.458 314.375 L 56.458 314.375 Q 56.364 314.375 56.324 314.333 L 56.324 314.333 L 56.324 314.333 Q 56.284 314.291 56.284 314.206 L 56.284 314.206 L 56.284 311.361 L 56.284 311.361 Q 56.284 311.272 56.324 311.23 L 56.324 311.23 L 56.324 311.23 Q 56.364 311.188 56.458 311.188 L 56.458 311.188 L 58.408 311.188 L 58.408 311.188 Q 58.502 311.188 58.537 311.225 L 58.537 311.225 L 58.537 311.225 Q 58.572 311.263 58.572 311.352 L 58.572 311.352 L 58.572 311.478 L 58.572 311.478 Q 58.572 311.567 58.537 311.607 L 58.537 311.607 L 58.537 311.607 Q 58.502 311.647 58.408 311.647 L 58.408 311.647 L 56.884 311.647 L 56.884 312.552 L 57.991 312.552 L 57.991 312.552 Q 58.084 312.552 58.122 312.589 L 58.122 312.589 L 58.122 312.589 Q 58.159 312.627 58.159 312.716 L 58.159 312.716 L 58.159 312.842 L 58.159 312.842 Q 58.159 312.931 58.122 312.971 L 58.122 312.971 L 58.122 312.971 Q 58.084 313.011 57.991 313.011 L 57.991 313.011 L 56.884 313.011 L 56.884 314.206 L 56.884 314.206 Q 56.884 314.291 56.845 314.333 L 56.845 314.333 L 56.845 314.333 Q 56.805 314.375 56.706 314.375 L 56.706 314.375 L 56.458 314.375 L 56.458 314.375 Z  M 59.913 314.375 L 59.913 314.375 Q 59.819 314.375 59.777 314.333 L 59.777 314.333 L 59.777 314.333 Q 59.734 314.291 59.734 314.206 L 59.734 314.206 L 59.734 311.647 L 58.914 311.647 L 58.914 311.647 Q 58.82 311.647 58.785 311.609 L 58.785 311.609 L 58.785 311.609 Q 58.75 311.572 58.75 311.483 L 58.75 311.483 L 58.75 311.356 L 58.75 311.356 Q 58.75 311.267 58.785 311.227 L 58.785 311.227 L 58.785 311.227 Q 58.82 311.188 58.914 311.188 L 58.914 311.188 L 61.155 311.188 L 61.155 311.188 Q 61.248 311.188 61.286 311.227 L 61.286 311.227 L 61.286 311.227 Q 61.323 311.267 61.323 311.356 L 61.323 311.356 L 61.323 311.483 L 61.323 311.483 Q 61.323 311.572 61.286 311.609 L 61.286 311.609 L 61.286 311.609 Q 61.248 311.647 61.155 311.647 L 61.155 311.647 L 60.334 311.647 L 60.334 314.206 L 60.334 314.206 Q 60.334 314.291 60.295 314.333 L 60.295 314.333 L 60.295 314.333 Q 60.255 314.375 60.156 314.375 L 60.156 314.375 L 59.913 314.375 L 59.913 314.375 Z " fill-rule="evenodd" fill="rgb(255,255,255)"/><path d=" M 89.779 172.727 L 89.779 172.727 Q 88.982 172.727 88.546 172.295 L 88.546 172.295 L 88.546 172.295 Q 88.11 171.864 88.11 171.063 L 88.11 171.063 L 88.11 171.063 Q 88.11 170.261 88.539 169.83 L 88.539 169.83 L 88.539 169.83 Q 88.968 169.398 89.765 169.398 L 89.765 169.398 L 89.765 169.398 Q 90.084 169.398 90.355 169.464 L 90.355 169.464 L 90.355 169.464 Q 90.627 169.53 90.815 169.652 L 90.815 169.652 L 90.815 169.652 Q 90.857 169.68 90.857 169.713 L 90.857 169.713 L 90.857 169.713 Q 90.857 169.741 90.834 169.778 L 90.834 169.778 L 90.702 170.003 L 90.702 170.003 Q 90.674 170.045 90.651 170.045 L 90.651 170.045 L 90.651 170.045 Q 90.632 170.045 90.585 170.022 L 90.585 170.022 L 90.585 170.022 Q 90.29 169.844 89.83 169.844 L 89.83 169.844 L 89.83 169.844 Q 89.301 169.844 89.001 170.148 L 89.001 170.148 L 89.001 170.148 Q 88.701 170.453 88.701 171.063 L 88.701 171.063 L 88.701 171.063 Q 88.701 171.681 89.01 171.984 L 89.01 171.984 L 89.01 171.984 Q 89.32 172.286 89.845 172.286 L 89.845 172.286 L 89.845 172.286 Q 90.332 172.286 90.646 172.103 L 90.646 172.103 L 90.646 172.103 Q 90.693 172.08 90.707 172.08 L 90.707 172.08 L 90.707 172.08 Q 90.735 172.08 90.763 172.122 L 90.763 172.122 L 90.909 172.366 L 90.909 172.366 Q 90.923 172.394 90.923 172.413 L 90.923 172.413 L 90.923 172.413 Q 90.923 172.441 90.871 172.473 L 90.871 172.473 L 90.871 172.473 Q 90.51 172.727 89.779 172.727 L 89.779 172.727 L 89.779 172.727 Z  M 92.671 172.656 L 92.671 172.656 Q 92.605 172.656 92.575 172.633 L 92.575 172.633 L 92.575 172.633 Q 92.545 172.609 92.516 172.539 L 92.516 172.539 L 91.298 169.6 L 91.298 169.6 Q 91.284 169.572 91.284 169.544 L 91.284 169.544 L 91.284 169.544 Q 91.284 169.511 91.305 169.49 L 91.305 169.49 L 91.305 169.49 Q 91.326 169.469 91.363 169.469 L 91.363 169.469 L 91.766 169.469 L 91.766 169.469 Q 91.827 169.469 91.86 169.492 L 91.86 169.492 L 91.86 169.492 Q 91.893 169.516 91.912 169.567 L 91.912 169.567 L 92.798 171.817 L 93.684 169.567 L 93.684 169.567 Q 93.702 169.516 93.735 169.492 L 93.735 169.492 L 93.735 169.492 Q 93.768 169.469 93.829 169.469 L 93.829 169.469 L 94.232 169.469 L 94.232 169.469 Q 94.27 169.469 94.291 169.49 L 94.291 169.49 L 94.291 169.49 Q 94.312 169.511 94.312 169.544 L 94.312 169.544 L 94.312 169.544 Q 94.312 169.572 94.298 169.6 L 94.298 169.6 L 93.084 172.539 L 93.084 172.539 Q 93.055 172.609 93.023 172.633 L 93.023 172.633 L 93.023 172.633 Q 92.99 172.656 92.924 172.656 L 92.924 172.656 L 92.671 172.656 L 92.671 172.656 Z " fill-rule="evenodd" fill="rgb(255,255,255)"/><path d=" M 86.978 219.992 L 86.978 219.992 Q 86.181 219.992 85.745 219.561 L 85.745 219.561 L 85.745 219.561 Q 85.309 219.13 85.309 218.328 L 85.309 218.328 L 85.309 218.328 Q 85.309 217.531 85.748 217.098 L 85.748 217.098 L 85.748 217.098 Q 86.186 216.664 86.978 216.664 L 86.978 216.664 L 86.978 216.664 Q 87.297 216.664 87.573 216.73 L 87.573 216.73 L 87.573 216.73 Q 87.85 216.795 88.033 216.917 L 88.033 216.917 L 88.033 216.917 Q 88.075 216.945 88.075 216.978 L 88.075 216.978 L 88.075 216.978 Q 88.075 217.002 88.056 217.034 L 88.056 217.034 L 87.92 217.269 L 87.92 217.269 Q 87.892 217.311 87.864 217.311 L 87.864 217.311 L 87.864 217.311 Q 87.85 217.311 87.803 217.288 L 87.803 217.288 L 87.803 217.288 Q 87.484 217.109 87.044 217.109 L 87.044 217.109 L 87.044 217.109 Q 86.509 217.109 86.205 217.412 L 86.205 217.412 L 86.205 217.412 Q 85.9 217.714 85.9 218.328 L 85.9 218.328 L 85.9 218.328 Q 85.9 218.947 86.195 219.247 L 86.195 219.247 L 86.195 219.247 Q 86.491 219.547 87.006 219.547 L 87.006 219.547 L 87.006 219.547 Q 87.194 219.547 87.372 219.516 L 87.372 219.516 L 87.372 219.516 Q 87.55 219.486 87.662 219.43 L 87.662 219.43 L 87.662 218.563 L 87.044 218.563 L 87.044 218.563 Q 86.95 218.563 86.912 218.523 L 86.912 218.523 L 86.912 218.523 Q 86.875 218.483 86.875 218.394 L 86.875 218.394 L 86.875 218.272 L 86.875 218.272 Q 86.875 218.183 86.912 218.148 L 86.912 218.148 L 86.912 218.148 Q 86.95 218.113 87.044 218.113 L 87.044 218.113 L 88.033 218.113 L 88.033 218.113 Q 88.136 218.113 88.18 218.162 L 88.18 218.162 L 88.18 218.162 Q 88.225 218.211 88.225 218.314 L 88.225 218.314 L 88.225 219.552 L 88.225 219.552 Q 88.225 219.622 88.211 219.657 L 88.211 219.657 L 88.211 219.657 Q 88.197 219.692 88.15 219.72 L 88.15 219.72 L 88.15 219.72 Q 87.719 219.992 86.978 219.992 L 86.978 219.992 L 86.978 219.992 Z  M 88.67 219.922 L 88.67 219.922 Q 88.591 219.922 88.591 219.852 L 88.591 219.852 L 88.591 219.852 Q 88.591 219.823 88.605 219.791 L 88.605 219.791 L 89.842 216.856 L 89.842 216.856 Q 89.87 216.786 89.903 216.76 L 89.903 216.76 L 89.903 216.76 Q 89.936 216.734 89.997 216.734 L 89.997 216.734 L 90.255 216.734 L 90.255 216.734 Q 90.32 216.734 90.351 216.76 L 90.351 216.76 L 90.351 216.76 Q 90.381 216.786 90.409 216.856 L 90.409 216.856 L 91.647 219.791 L 91.647 219.791 Q 91.661 219.823 91.661 219.852 L 91.661 219.852 L 91.661 219.852 Q 91.661 219.922 91.581 219.922 L 91.581 219.922 L 91.173 219.922 L 91.173 219.922 Q 91.112 219.922 91.087 219.905 L 91.087 219.905 L 91.087 219.905 Q 91.061 219.889 91.037 219.838 L 91.037 219.838 L 90.77 219.181 L 89.477 219.181 L 89.214 219.838 L 89.214 219.838 Q 89.191 219.889 89.165 219.905 L 89.165 219.905 L 89.165 219.905 Q 89.139 219.922 89.078 219.922 L 89.078 219.922 L 88.67 219.922 L 88.67 219.922 Z  M 89.627 218.745 L 90.62 218.745 L 90.123 217.517 L 89.627 218.745 L 89.627 218.745 Z  M 93.095 219.922 L 93.095 219.922 Q 93.002 219.922 92.959 219.88 L 92.959 219.88 L 92.959 219.88 Q 92.917 219.838 92.917 219.753 L 92.917 219.753 L 92.917 217.194 L 92.097 217.194 L 92.097 217.194 Q 92.003 217.194 91.968 217.156 L 91.968 217.156 L 91.968 217.156 Q 91.933 217.119 91.933 217.03 L 91.933 217.03 L 91.933 216.903 L 91.933 216.903 Q 91.933 216.814 91.968 216.774 L 91.968 216.774 L 91.968 216.774 Q 92.003 216.734 92.097 216.734 L 92.097 216.734 L 94.337 216.734 L 94.337 216.734 Q 94.431 216.734 94.469 216.774 L 94.469 216.774 L 94.469 216.774 Q 94.506 216.814 94.506 216.903 L 94.506 216.903 L 94.506 217.03 L 94.506 217.03 Q 94.506 217.119 94.469 217.156 L 94.469 217.156 L 94.469 217.156 Q 94.431 217.194 94.337 217.194 L 94.337 217.194 L 93.517 217.194 L 93.517 219.753 L 93.517 219.753 Q 93.517 219.838 93.477 219.88 L 93.477 219.88 L 93.477 219.88 Q 93.437 219.922 93.339 219.922 L 93.339 219.922 L 93.095 219.922 L 93.095 219.922 Z  M 95.045 219.922 L 95.045 219.922 Q 94.952 219.922 94.912 219.88 L 94.912 219.88 L 94.912 219.88 Q 94.872 219.838 94.872 219.753 L 94.872 219.753 L 94.872 216.908 L 94.872 216.908 Q 94.872 216.819 94.912 216.777 L 94.912 216.777 L 94.912 216.777 Q 94.952 216.734 95.045 216.734 L 95.045 216.734 L 96.995 216.734 L 96.995 216.734 Q 97.089 216.734 97.124 216.772 L 97.124 216.772 L 97.124 216.772 Q 97.159 216.809 97.159 216.898 L 97.159 216.898 L 97.159 217.025 L 97.159 217.025 Q 97.159 217.114 97.124 217.154 L 97.124 217.154 L 97.124 217.154 Q 97.089 217.194 96.995 217.194 L 96.995 217.194 L 95.472 217.194 L 95.472 218.103 L 96.578 218.103 L 96.578 218.103 Q 96.672 218.103 96.709 218.141 L 96.709 218.141 L 96.709 218.141 Q 96.747 218.178 96.747 218.267 L 96.747 218.267 L 96.747 218.384 L 96.747 218.384 Q 96.747 218.473 96.709 218.513 L 96.709 218.513 L 96.709 218.513 Q 96.672 218.553 96.578 218.553 L 96.578 218.553 L 95.472 218.553 L 95.472 219.467 L 96.991 219.467 L 96.991 219.467 Q 97.084 219.467 97.122 219.507 L 97.122 219.507 L 97.122 219.507 Q 97.159 219.547 97.159 219.636 L 97.159 219.636 L 97.159 219.763 L 97.159 219.763 Q 97.159 219.847 97.122 219.884 L 97.122 219.884 L 97.122 219.884 Q 97.084 219.922 96.991 219.922 L 96.991 219.922 L 95.045 219.922 L 95.045 219.922 Z " fill-rule="evenodd" fill="rgb(255,255,255)"/><path d=" M 88.45 267.188 L 88.45 267.188 Q 88.384 267.188 88.354 267.164 L 88.354 267.164 L 88.354 267.164 Q 88.323 267.141 88.295 267.07 L 88.295 267.07 L 87.077 264.131 L 87.077 264.131 Q 87.062 264.103 87.062 264.075 L 87.062 264.075 L 87.062 264.075 Q 87.062 264.042 87.084 264.021 L 87.084 264.021 L 87.084 264.021 Q 87.105 264 87.142 264 L 87.142 264 L 87.545 264 L 87.545 264 Q 87.606 264 87.639 264.023 L 87.639 264.023 L 87.639 264.023 Q 87.672 264.047 87.691 264.098 L 87.691 264.098 L 88.577 266.348 L 89.462 264.098 L 89.462 264.098 Q 89.481 264.047 89.514 264.023 L 89.514 264.023 L 89.514 264.023 Q 89.547 264 89.608 264 L 89.608 264 L 90.011 264 L 90.011 264 Q 90.048 264 90.07 264.021 L 90.07 264.021 L 90.07 264.021 Q 90.091 264.042 90.091 264.075 L 90.091 264.075 L 90.091 264.075 Q 90.091 264.103 90.077 264.131 L 90.077 264.131 L 88.862 267.07 L 88.862 267.07 Q 88.834 267.141 88.802 267.164 L 88.802 267.164 L 88.802 267.164 Q 88.769 267.188 88.703 267.188 L 88.703 267.188 L 88.45 267.188 L 88.45 267.188 Z  M 90.723 267.188 L 90.723 267.188 Q 90.63 267.188 90.59 267.145 L 90.59 267.145 L 90.59 267.145 Q 90.55 267.103 90.55 267.019 L 90.55 267.019 L 90.55 264.173 L 90.55 264.173 Q 90.55 264.084 90.59 264.042 L 90.59 264.042 L 90.59 264.042 Q 90.63 264 90.723 264 L 90.723 264 L 92.673 264 L 92.673 264 Q 92.767 264 92.802 264.038 L 92.802 264.038 L 92.802 264.038 Q 92.837 264.075 92.837 264.164 L 92.837 264.164 L 92.837 264.291 L 92.837 264.291 Q 92.837 264.38 92.802 264.42 L 92.802 264.42 L 92.802 264.42 Q 92.767 264.459 92.673 264.459 L 92.673 264.459 L 91.15 264.459 L 91.15 265.369 L 92.256 265.369 L 92.256 265.369 Q 92.35 265.369 92.387 265.406 L 92.387 265.406 L 92.387 265.406 Q 92.425 265.444 92.425 265.533 L 92.425 265.533 L 92.425 265.65 L 92.425 265.65 Q 92.425 265.739 92.387 265.779 L 92.387 265.779 L 92.387 265.779 Q 92.35 265.819 92.256 265.819 L 92.256 265.819 L 91.15 265.819 L 91.15 266.733 L 92.669 266.733 L 92.669 266.733 Q 92.762 266.733 92.8 266.773 L 92.8 266.773 L 92.8 266.773 Q 92.837 266.813 92.837 266.902 L 92.837 266.902 L 92.837 267.028 L 92.837 267.028 Q 92.837 267.113 92.8 267.15 L 92.8 267.15 L 92.8 267.15 Q 92.762 267.188 92.669 267.188 L 92.669 267.188 L 90.723 267.188 L 90.723 267.188 Z  M 93.423 267.188 L 93.423 267.188 Q 93.33 267.188 93.29 267.145 L 93.29 267.145 L 93.29 267.145 Q 93.25 267.103 93.25 267.019 L 93.25 267.019 L 93.25 264.173 L 93.25 264.173 Q 93.25 264.084 93.29 264.042 L 93.29 264.042 L 93.29 264.042 Q 93.33 264 93.423 264 L 93.423 264 L 93.672 264 L 93.672 264 Q 93.766 264 93.808 264.042 L 93.808 264.042 L 93.808 264.042 Q 93.85 264.084 93.85 264.173 L 93.85 264.173 L 93.85 266.733 L 95.284 266.733 L 95.284 266.733 Q 95.378 266.733 95.416 266.773 L 95.416 266.773 L 95.416 266.773 Q 95.453 266.813 95.453 266.902 L 95.453 266.902 L 95.453 267.028 L 95.453 267.028 Q 95.453 267.113 95.416 267.15 L 95.416 267.15 L 95.416 267.15 Q 95.378 267.188 95.284 267.188 L 95.284 267.188 L 93.423 267.188 L 93.423 267.188 Z " fill-rule="evenodd" fill="rgb(255,255,255)"/><path d=" M 87.053 314.375 L 87.053 314.375 Q 86.973 314.375 86.973 314.305 L 86.973 314.305 L 86.973 314.305 Q 86.973 314.277 86.987 314.244 L 86.987 314.244 L 88.225 311.309 L 88.225 311.309 Q 88.253 311.239 88.286 311.213 L 88.286 311.213 L 88.286 311.213 Q 88.319 311.188 88.38 311.188 L 88.38 311.188 L 88.637 311.188 L 88.637 311.188 Q 88.703 311.188 88.734 311.213 L 88.734 311.213 L 88.734 311.213 Q 88.764 311.239 88.792 311.309 L 88.792 311.309 L 90.03 314.244 L 90.03 314.244 Q 90.044 314.277 90.044 314.305 L 90.044 314.305 L 90.044 314.305 Q 90.044 314.375 89.964 314.375 L 89.964 314.375 L 89.556 314.375 L 89.556 314.375 Q 89.495 314.375 89.47 314.359 L 89.47 314.359 L 89.47 314.359 Q 89.444 314.342 89.42 314.291 L 89.42 314.291 L 89.153 313.634 L 87.859 313.634 L 87.597 314.291 L 87.597 314.291 Q 87.573 314.342 87.548 314.359 L 87.548 314.359 L 87.548 314.359 Q 87.522 314.375 87.461 314.375 L 87.461 314.375 L 87.053 314.375 L 87.053 314.375 Z  M 88.009 313.199 L 89.003 313.199 L 88.506 311.97 L 88.009 313.199 L 88.009 313.199 Z  M 90.677 314.375 L 90.677 314.375 Q 90.583 314.375 90.543 314.333 L 90.543 314.333 L 90.543 314.333 Q 90.503 314.291 90.503 314.206 L 90.503 314.206 L 90.503 311.361 L 90.503 311.361 Q 90.503 311.272 90.543 311.23 L 90.543 311.23 L 90.543 311.23 Q 90.583 311.188 90.677 311.188 L 90.677 311.188 L 92.627 311.188 L 92.627 311.188 Q 92.72 311.188 92.755 311.225 L 92.755 311.225 L 92.755 311.225 Q 92.791 311.263 92.791 311.352 L 92.791 311.352 L 92.791 311.478 L 92.791 311.478 Q 92.791 311.567 92.755 311.607 L 92.755 311.607 L 92.755 311.607 Q 92.72 311.647 92.627 311.647 L 92.627 311.647 L 91.103 311.647 L 91.103 312.552 L 92.209 312.552 L 92.209 312.552 Q 92.303 312.552 92.341 312.589 L 92.341 312.589 L 92.341 312.589 Q 92.378 312.627 92.378 312.716 L 92.378 312.716 L 92.378 312.842 L 92.378 312.842 Q 92.378 312.931 92.341 312.971 L 92.341 312.971 L 92.341 312.971 Q 92.303 313.011 92.209 313.011 L 92.209 313.011 L 91.103 313.011 L 91.103 314.206 L 91.103 314.206 Q 91.103 314.291 91.063 314.333 L 91.063 314.333 L 91.063 314.333 Q 91.023 314.375 90.925 314.375 L 90.925 314.375 L 90.677 314.375 L 90.677 314.375 Z  M 94.131 314.375 L 94.131 314.375 Q 94.037 314.375 93.995 314.333 L 93.995 314.333 L 93.995 314.333 Q 93.953 314.291 93.953 314.206 L 93.953 314.206 L 93.953 311.647 L 93.133 311.647 L 93.133 311.647 Q 93.039 311.647 93.004 311.609 L 93.004 311.609 L 93.004 311.609 Q 92.969 311.572 92.969 311.483 L 92.969 311.483 L 92.969 311.356 L 92.969 311.356 Q 92.969 311.267 93.004 311.227 L 93.004 311.227 L 93.004 311.227 Q 93.039 311.188 93.133 311.188 L 93.133 311.188 L 95.373 311.188 L 95.373 311.188 Q 95.467 311.188 95.505 311.227 L 95.505 311.227 L 95.505 311.227 Q 95.542 311.267 95.542 311.356 L 95.542 311.356 L 95.542 311.483 L 95.542 311.483 Q 95.542 311.572 95.505 311.609 L 95.505 311.609 L 95.505 311.609 Q 95.467 311.647 95.373 311.647 L 95.373 311.647 L 94.553 311.647 L 94.553 314.206 L 94.553 314.206 Q 94.553 314.291 94.513 314.333 L 94.513 314.333 L 94.513 314.333 Q 94.473 314.375 94.375 314.375 L 94.375 314.375 L 94.131 314.375 L 94.131 314.375 Z " fill-rule="evenodd" fill="rgb(255,255,255)"/><path d=" M 123.998 172.727 L 123.998 172.727 Q 123.201 172.727 122.765 172.295 L 122.765 172.295 L 122.765 172.295 Q 122.329 171.864 122.329 171.063 L 122.329 171.063 L 122.329 171.063 Q 122.329 170.261 122.758 169.83 L 122.758 169.83 L 122.758 169.83 Q 123.187 169.398 123.984 169.398 L 123.984 169.398 L 123.984 169.398 Q 124.302 169.398 124.574 169.464 L 124.574 169.464 L 124.574 169.464 Q 124.846 169.53 125.034 169.652 L 125.034 169.652 L 125.034 169.652 Q 125.076 169.68 125.076 169.713 L 125.076 169.713 L 125.076 169.713 Q 125.076 169.741 125.052 169.778 L 125.052 169.778 L 124.921 170.003 L 124.921 170.003 Q 124.893 170.045 124.87 170.045 L 124.87 170.045 L 124.87 170.045 Q 124.851 170.045 124.804 170.022 L 124.804 170.022 L 124.804 170.022 Q 124.509 169.844 124.049 169.844 L 124.049 169.844 L 124.049 169.844 Q 123.52 169.844 123.22 170.148 L 123.22 170.148 L 123.22 170.148 Q 122.92 170.453 122.92 171.063 L 122.92 171.063 L 122.92 171.063 Q 122.92 171.681 123.229 171.984 L 123.229 171.984 L 123.229 171.984 Q 123.538 172.286 124.063 172.286 L 124.063 172.286 L 124.063 172.286 Q 124.551 172.286 124.865 172.103 L 124.865 172.103 L 124.865 172.103 Q 124.912 172.08 124.926 172.08 L 124.926 172.08 L 124.926 172.08 Q 124.954 172.08 124.982 172.122 L 124.982 172.122 L 125.127 172.366 L 125.127 172.366 Q 125.141 172.394 125.141 172.413 L 125.141 172.413 L 125.141 172.413 Q 125.141 172.441 125.09 172.473 L 125.09 172.473 L 125.09 172.473 Q 124.729 172.727 123.998 172.727 L 123.998 172.727 L 123.998 172.727 Z  M 126.89 172.656 L 126.89 172.656 Q 126.824 172.656 126.794 172.633 L 126.794 172.633 L 126.794 172.633 Q 126.763 172.609 126.735 172.539 L 126.735 172.539 L 125.516 169.6 L 125.516 169.6 Q 125.502 169.572 125.502 169.544 L 125.502 169.544 L 125.502 169.544 Q 125.502 169.511 125.523 169.49 L 125.523 169.49 L 125.523 169.49 Q 125.545 169.469 125.582 169.469 L 125.582 169.469 L 125.985 169.469 L 125.985 169.469 Q 126.046 169.469 126.079 169.492 L 126.079 169.492 L 126.079 169.492 Q 126.112 169.516 126.13 169.567 L 126.13 169.567 L 127.016 171.817 L 127.902 169.567 L 127.902 169.567 Q 127.921 169.516 127.954 169.492 L 127.954 169.492 L 127.954 169.492 Q 127.987 169.469 128.048 169.469 L 128.048 169.469 L 128.451 169.469 L 128.451 169.469 Q 128.488 169.469 128.509 169.49 L 128.509 169.49 L 128.509 169.49 Q 128.53 169.511 128.53 169.544 L 128.53 169.544 L 128.53 169.544 Q 128.53 169.572 128.516 169.6 L 128.516 169.6 L 127.302 172.539 L 127.302 172.539 Q 127.274 172.609 127.241 172.633 L 127.241 172.633 L 127.241 172.633 Q 127.209 172.656 127.143 172.656 L 127.143 172.656 L 126.89 172.656 L 126.89 172.656 Z " fill-rule="evenodd" fill="rgb(255,255,255)"/><path d=" M 121.197 219.992 L 121.197 219.992 Q 120.4 219.992 119.964 219.561 L 119.964 219.561 L 119.964 219.561 Q 119.528 219.13 119.528 218.328 L 119.528 218.328 L 119.528 218.328 Q 119.528 217.531 119.966 217.098 L 119.966 217.098 L 119.966 217.098 Q 120.405 216.664 121.197 216.664 L 121.197 216.664 L 121.197 216.664 Q 121.516 216.664 121.792 216.73 L 121.792 216.73 L 121.792 216.73 Q 122.069 216.795 122.252 216.917 L 122.252 216.917 L 122.252 216.917 Q 122.294 216.945 122.294 216.978 L 122.294 216.978 L 122.294 216.978 Q 122.294 217.002 122.275 217.034 L 122.275 217.034 L 122.139 217.269 L 122.139 217.269 Q 122.111 217.311 122.083 217.311 L 122.083 217.311 L 122.083 217.311 Q 122.069 217.311 122.022 217.288 L 122.022 217.288 L 122.022 217.288 Q 121.703 217.109 121.263 217.109 L 121.263 217.109 L 121.263 217.109 Q 120.728 217.109 120.423 217.412 L 120.423 217.412 L 120.423 217.412 Q 120.119 217.714 120.119 218.328 L 120.119 218.328 L 120.119 218.328 Q 120.119 218.947 120.414 219.247 L 120.414 219.247 L 120.414 219.247 Q 120.709 219.547 121.225 219.547 L 121.225 219.547 L 121.225 219.547 Q 121.413 219.547 121.591 219.516 L 121.591 219.516 L 121.591 219.516 Q 121.769 219.486 121.881 219.43 L 121.881 219.43 L 121.881 218.563 L 121.263 218.563 L 121.263 218.563 Q 121.169 218.563 121.131 218.523 L 121.131 218.523 L 121.131 218.523 Q 121.094 218.483 121.094 218.394 L 121.094 218.394 L 121.094 218.272 L 121.094 218.272 Q 121.094 218.183 121.131 218.148 L 121.131 218.148 L 121.131 218.148 Q 121.169 218.113 121.263 218.113 L 121.263 218.113 L 122.252 218.113 L 122.252 218.113 Q 122.355 218.113 122.399 218.162 L 122.399 218.162 L 122.399 218.162 Q 122.444 218.211 122.444 218.314 L 122.444 218.314 L 122.444 219.552 L 122.444 219.552 Q 122.444 219.622 122.43 219.657 L 122.43 219.657 L 122.43 219.657 Q 122.416 219.692 122.369 219.72 L 122.369 219.72 L 122.369 219.72 Q 121.938 219.992 121.197 219.992 L 121.197 219.992 L 121.197 219.992 Z  M 122.889 219.922 L 122.889 219.922 Q 122.809 219.922 122.809 219.852 L 122.809 219.852 L 122.809 219.852 Q 122.809 219.823 122.823 219.791 L 122.823 219.791 L 124.061 216.856 L 124.061 216.856 Q 124.089 216.786 124.122 216.76 L 124.122 216.76 L 124.122 216.76 Q 124.155 216.734 124.216 216.734 L 124.216 216.734 L 124.473 216.734 L 124.473 216.734 Q 124.539 216.734 124.57 216.76 L 124.57 216.76 L 124.57 216.76 Q 124.6 216.786 124.628 216.856 L 124.628 216.856 L 125.866 219.791 L 125.866 219.791 Q 125.88 219.823 125.88 219.852 L 125.88 219.852 L 125.88 219.852 Q 125.88 219.922 125.8 219.922 L 125.8 219.922 L 125.392 219.922 L 125.392 219.922 Q 125.331 219.922 125.305 219.905 L 125.305 219.905 L 125.305 219.905 Q 125.28 219.889 125.256 219.838 L 125.256 219.838 L 124.989 219.181 L 123.695 219.181 L 123.433 219.838 L 123.433 219.838 Q 123.409 219.889 123.384 219.905 L 123.384 219.905 L 123.384 219.905 Q 123.358 219.922 123.297 219.922 L 123.297 219.922 L 122.889 219.922 L 122.889 219.922 Z  M 123.845 218.745 L 124.839 218.745 L 124.342 217.517 L 123.845 218.745 L 123.845 218.745 Z  M 127.314 219.922 L 127.314 219.922 Q 127.22 219.922 127.178 219.88 L 127.178 219.88 L 127.178 219.88 Q 127.136 219.838 127.136 219.753 L 127.136 219.753 L 127.136 217.194 L 126.316 217.194 L 126.316 217.194 Q 126.222 217.194 126.187 217.156 L 126.187 217.156 L 126.187 217.156 Q 126.152 217.119 126.152 217.03 L 126.152 217.03 L 126.152 216.903 L 126.152 216.903 Q 126.152 216.814 126.187 216.774 L 126.187 216.774 L 126.187 216.774 Q 126.222 216.734 126.316 216.734 L 126.316 216.734 L 128.556 216.734 L 128.556 216.734 Q 128.65 216.734 128.688 216.774 L 128.688 216.774 L 128.688 216.774 Q 128.725 216.814 128.725 216.903 L 128.725 216.903 L 128.725 217.03 L 128.725 217.03 Q 128.725 217.119 128.688 217.156 L 128.688 217.156 L 128.688 217.156 Q 128.65 217.194 128.556 217.194 L 128.556 217.194 L 127.736 217.194 L 127.736 219.753 L 127.736 219.753 Q 127.736 219.838 127.696 219.88 L 127.696 219.88 L 127.696 219.88 Q 127.656 219.922 127.558 219.922 L 127.558 219.922 L 127.314 219.922 L 127.314 219.922 Z  M 129.264 219.922 L 129.264 219.922 Q 129.17 219.922 129.13 219.88 L 129.13 219.88 L 129.13 219.88 Q 129.091 219.838 129.091 219.753 L 129.091 219.753 L 129.091 216.908 L 129.091 216.908 Q 129.091 216.819 129.13 216.777 L 129.13 216.777 L 129.13 216.777 Q 129.17 216.734 129.264 216.734 L 129.264 216.734 L 131.214 216.734 L 131.214 216.734 Q 131.308 216.734 131.343 216.772 L 131.343 216.772 L 131.343 216.772 Q 131.378 216.809 131.378 216.898 L 131.378 216.898 L 131.378 217.025 L 131.378 217.025 Q 131.378 217.114 131.343 217.154 L 131.343 217.154 L 131.343 217.154 Q 131.308 217.194 131.214 217.194 L 131.214 217.194 L 129.691 217.194 L 129.691 218.103 L 130.797 218.103 L 130.797 218.103 Q 130.891 218.103 130.928 218.141 L 130.928 218.141 L 130.928 218.141 Q 130.966 218.178 130.966 218.267 L 130.966 218.267 L 130.966 218.384 L 130.966 218.384 Q 130.966 218.473 130.928 218.513 L 130.928 218.513 L 130.928 218.513 Q 130.891 218.553 130.797 218.553 L 130.797 218.553 L 129.691 218.553 L 129.691 219.467 L 131.209 219.467 L 131.209 219.467 Q 131.303 219.467 131.341 219.507 L 131.341 219.507 L 131.341 219.507 Q 131.378 219.547 131.378 219.636 L 131.378 219.636 L 131.378 219.763 L 131.378 219.763 Q 131.378 219.847 131.341 219.884 L 131.341 219.884 L 131.341 219.884 Q 131.303 219.922 131.209 219.922 L 131.209 219.922 L 129.264 219.922 L 129.264 219.922 Z " fill-rule="evenodd" fill="rgb(255,255,255)"/><path d=" M 122.669 267.188 L 122.669 267.188 Q 122.603 267.188 122.573 267.164 L 122.573 267.164 L 122.573 267.164 Q 122.542 267.141 122.514 267.07 L 122.514 267.07 L 121.295 264.131 L 121.295 264.131 Q 121.281 264.103 121.281 264.075 L 121.281 264.075 L 121.281 264.075 Q 121.281 264.042 121.302 264.021 L 121.302 264.021 L 121.302 264.021 Q 121.323 264 121.361 264 L 121.361 264 L 121.764 264 L 121.764 264 Q 121.825 264 121.858 264.023 L 121.858 264.023 L 121.858 264.023 Q 121.891 264.047 121.909 264.098 L 121.909 264.098 L 122.795 266.348 L 123.681 264.098 L 123.681 264.098 Q 123.7 264.047 123.733 264.023 L 123.733 264.023 L 123.733 264.023 Q 123.766 264 123.827 264 L 123.827 264 L 124.23 264 L 124.23 264 Q 124.267 264 124.288 264.021 L 124.288 264.021 L 124.288 264.021 Q 124.309 264.042 124.309 264.075 L 124.309 264.075 L 124.309 264.075 Q 124.309 264.103 124.295 264.131 L 124.295 264.131 L 123.081 267.07 L 123.081 267.07 Q 123.053 267.141 123.02 267.164 L 123.02 267.164 L 123.02 267.164 Q 122.988 267.188 122.922 267.188 L 122.922 267.188 L 122.669 267.188 L 122.669 267.188 Z  M 124.942 267.188 L 124.942 267.188 Q 124.848 267.188 124.809 267.145 L 124.809 267.145 L 124.809 267.145 Q 124.769 267.103 124.769 267.019 L 124.769 267.019 L 124.769 264.173 L 124.769 264.173 Q 124.769 264.084 124.809 264.042 L 124.809 264.042 L 124.809 264.042 Q 124.848 264 124.942 264 L 124.942 264 L 126.892 264 L 126.892 264 Q 126.986 264 127.021 264.038 L 127.021 264.038 L 127.021 264.038 Q 127.056 264.075 127.056 264.164 L 127.056 264.164 L 127.056 264.291 L 127.056 264.291 Q 127.056 264.38 127.021 264.42 L 127.021 264.42 L 127.021 264.42 Q 126.986 264.459 126.892 264.459 L 126.892 264.459 L 125.369 264.459 L 125.369 265.369 L 126.475 265.369 L 126.475 265.369 Q 126.569 265.369 126.606 265.406 L 126.606 265.406 L 126.606 265.406 Q 126.644 265.444 126.644 265.533 L 126.644 265.533 L 126.644 265.65 L 126.644 265.65 Q 126.644 265.739 126.606 265.779 L 126.606 265.779 L 126.606 265.779 Q 126.569 265.819 126.475 265.819 L 126.475 265.819 L 125.369 265.819 L 125.369 266.733 L 126.888 266.733 L 126.888 266.733 Q 126.981 266.733 127.019 266.773 L 127.019 266.773 L 127.019 266.773 Q 127.056 266.813 127.056 266.902 L 127.056 266.902 L 127.056 267.028 L 127.056 267.028 Q 127.056 267.113 127.019 267.15 L 127.019 267.15 L 127.019 267.15 Q 126.981 267.188 126.888 267.188 L 126.888 267.188 L 124.942 267.188 L 124.942 267.188 Z  M 127.642 267.188 L 127.642 267.188 Q 127.548 267.188 127.509 267.145 L 127.509 267.145 L 127.509 267.145 Q 127.469 267.103 127.469 267.019 L 127.469 267.019 L 127.469 264.173 L 127.469 264.173 Q 127.469 264.084 127.509 264.042 L 127.509 264.042 L 127.509 264.042 Q 127.548 264 127.642 264 L 127.642 264 L 127.891 264 L 127.891 264 Q 127.984 264 128.027 264.042 L 128.027 264.042 L 128.027 264.042 Q 128.069 264.084 128.069 264.173 L 128.069 264.173 L 128.069 266.733 L 129.503 266.733 L 129.503 266.733 Q 129.597 266.733 129.634 266.773 L 129.634 266.773 L 129.634 266.773 Q 129.672 266.813 129.672 266.902 L 129.672 266.902 L 129.672 267.028 L 129.672 267.028 Q 129.672 267.113 129.634 267.15 L 129.634 267.15 L 129.634 267.15 Q 129.597 267.188 129.503 267.188 L 129.503 267.188 L 127.642 267.188 L 127.642 267.188 Z " fill-rule="evenodd" fill="rgb(255,255,255)"/><path d=" M 121.272 314.375 L 121.272 314.375 Q 121.192 314.375 121.192 314.305 L 121.192 314.305 L 121.192 314.305 Q 121.192 314.277 121.206 314.244 L 121.206 314.244 L 122.444 311.309 L 122.444 311.309 Q 122.472 311.239 122.505 311.213 L 122.505 311.213 L 122.505 311.213 Q 122.538 311.188 122.598 311.188 L 122.598 311.188 L 122.856 311.188 L 122.856 311.188 Q 122.922 311.188 122.952 311.213 L 122.952 311.213 L 122.952 311.213 Q 122.983 311.239 123.011 311.309 L 123.011 311.309 L 124.248 314.244 L 124.248 314.244 Q 124.263 314.277 124.263 314.305 L 124.263 314.305 L 124.263 314.305 Q 124.263 314.375 124.183 314.375 L 124.183 314.375 L 123.775 314.375 L 123.775 314.375 Q 123.714 314.375 123.688 314.359 L 123.688 314.359 L 123.688 314.359 Q 123.663 314.342 123.639 314.291 L 123.639 314.291 L 123.372 313.634 L 122.078 313.634 L 121.816 314.291 L 121.816 314.291 Q 121.792 314.342 121.766 314.359 L 121.766 314.359 L 121.766 314.359 Q 121.741 314.375 121.68 314.375 L 121.68 314.375 L 121.272 314.375 L 121.272 314.375 Z  M 122.228 313.199 L 123.222 313.199 L 122.725 311.97 L 122.228 313.199 L 122.228 313.199 Z  M 124.895 314.375 L 124.895 314.375 Q 124.802 314.375 124.762 314.333 L 124.762 314.333 L 124.762 314.333 Q 124.722 314.291 124.722 314.206 L 124.722 314.206 L 124.722 311.361 L 124.722 311.361 Q 124.722 311.272 124.762 311.23 L 124.762 311.23 L 124.762 311.23 Q 124.802 311.188 124.895 311.188 L 124.895 311.188 L 126.845 311.188 L 126.845 311.188 Q 126.939 311.188 126.974 311.225 L 126.974 311.225 L 126.974 311.225 Q 127.009 311.263 127.009 311.352 L 127.009 311.352 L 127.009 311.478 L 127.009 311.478 Q 127.009 311.567 126.974 311.607 L 126.974 311.607 L 126.974 311.607 Q 126.939 311.647 126.845 311.647 L 126.845 311.647 L 125.322 311.647 L 125.322 312.552 L 126.428 312.552 L 126.428 312.552 Q 126.522 312.552 126.559 312.589 L 126.559 312.589 L 126.559 312.589 Q 126.597 312.627 126.597 312.716 L 126.597 312.716 L 126.597 312.842 L 126.597 312.842 Q 126.597 312.931 126.559 312.971 L 126.559 312.971 L 126.559 312.971 Q 126.522 313.011 126.428 313.011 L 126.428 313.011 L 125.322 313.011 L 125.322 314.206 L 125.322 314.206 Q 125.322 314.291 125.282 314.333 L 125.282 314.333 L 125.282 314.333 Q 125.242 314.375 125.144 314.375 L 125.144 314.375 L 124.895 314.375 L 124.895 314.375 Z  M 128.35 314.375 L 128.35 314.375 Q 128.256 314.375 128.214 314.333 L 128.214 314.333 L 128.214 314.333 Q 128.172 314.291 128.172 314.206 L 128.172 314.206 L 128.172 311.647 L 127.352 311.647 L 127.352 311.647 Q 127.258 311.647 127.223 311.609 L 127.223 311.609 L 127.223 311.609 Q 127.188 311.572 127.188 311.483 L 127.188 311.483 L 127.188 311.356 L 127.188 311.356 Q 127.188 311.267 127.223 311.227 L 127.223 311.227 L 127.223 311.227 Q 127.258 311.188 127.352 311.188 L 127.352 311.188 L 129.592 311.188 L 129.592 311.188 Q 129.686 311.188 129.723 311.227 L 129.723 311.227 L 129.723 311.227 Q 129.761 311.267 129.761 311.356 L 129.761 311.356 L 129.761 311.483 L 129.761 311.483 Q 129.761 311.572 129.723 311.609 L 129.723 311.609 L 129.723 311.609 Q 129.686 311.647 129.592 311.647 L 129.592 311.647 L 128.772 311.647 L 128.772 314.206 L 128.772 314.206 Q 128.772 314.291 128.732 314.333 L 128.732 314.333 L 128.732 314.333 Q 128.692 314.375 128.594 314.375 L 128.594 314.375 L 128.35 314.375 L 128.35 314.375 Z " fill-rule="evenodd" fill="rgb(255,255,255)"/></g></svg>