<?xml version="1.0" standalone="no"?><!-- Generator: Gravit.io --><svg xmlns="http://www.w3.org/2000/svg" xmlns:xlink="http://www.w3.org/1999/xlink" style="isolation:isolate" viewBox="0 0 150 380" width="150" height="380"><defs><clipPath id="_clipPath_bhXDIYbogdLrKBvBYn7w8sa1l3ARjD60"><rect width="150" height="380"/></clipPath></defs><g clip-path="url(#_clipPath_bhXDIYbogdLrKBvBYn7w8sa1l3ARjD60)"><g id="bg"><rect x="0" y="0" width="150" height="380" transform="matrix(1,0,0,1,0,0)" fill="rgb(240,240,240)"/><path d=" M 69.081618 369.598705 C 68.927026 369.747088 68.783257 369.850659 68.650311 369.909418 C 68.51736 369.968177 68.375138 369.997539 68.223635 369.997539 C 68.072137 369.997539 67.929914 369.969715 67.796964 369.914067 C 67.664013 369.858419 67.548073 369.781099 67.449133 369.682177 C 67.232702 369.465737 67.12449 369.209133 67.12449 368.912298 L 67.12449 363.384743 C 67.12449 363.08172 67.201784 362.846754 67.356376 362.67981 C 67.622277 362.407722 67.874258 362.271678 68.11233 362.271678 C 68.350403 362.271678 68.528179 362.296391 68.64567 362.345887 C 68.763162 362.395348 68.862097 362.457183 68.942485 362.531392 C 69.047611 362.624127 69.126452 362.723084 69.179011 362.828193 C 69.231574 362.933337 69.274857 363.010622 69.308868 363.060083 C 69.342879 363.109544 69.398531 363.134292 69.475829 363.134292 C 69.553123 363.134292 69.619598 363.109544 69.675251 363.060083 L 69.832932 362.902402 C 70.284342 362.481931 70.735744 362.271678 71.187154 362.271678 C 71.984853 362.271678 72.643406 362.599414 73.162834 363.254886 C 73.212304 363.322908 73.274139 363.356919 73.348343 363.356919 C 73.4782 363.356919 73.609604 363.256424 73.742555 363.055434 C 73.875501 362.854479 74.090381 362.673623 74.3872 362.512831 C 74.684018 362.352074 75.030298 362.271678 75.426056 362.271678 C 75.82181 362.271678 76.182006 362.344314 76.506648 362.489656 C 76.831291 362.634963 77.114193 362.83438 77.355355 363.087907 C 77.862418 363.619709 78.115945 364.262808 78.115945 365.017202 L 78.115945 368.912298 C 78.115945 369.382265 77.893335 369.713077 77.448112 369.904769 C 77.312068 369.966604 77.168303 369.997539 77.0168 369.997539 C 76.865302 369.997539 76.723075 369.969715 76.590129 369.914067 C 76.457179 369.858419 76.341238 369.781099 76.242298 369.682177 C 76.03205 369.45955 75.926932 369.202946 75.926932 368.912298 L 75.926932 365.04506 C 75.926932 364.735851 75.849634 364.503961 75.695042 364.34939 C 75.422963 364.077302 75.172525 363.941258 74.943728 363.941258 C 74.714932 363.941258 74.535609 363.970621 74.405752 364.029379 C 74.275891 364.088138 74.158403 364.170072 74.053281 364.275181 C 73.836854 364.491621 73.728638 364.742038 73.728638 365.0265 L 73.728638 368.912298 C 73.728638 369.382265 73.509122 369.713077 73.070081 369.904769 C 72.934037 369.966604 72.790268 369.997539 72.63877 369.997539 C 72.487267 369.997539 72.343502 369.969715 72.207458 369.914067 C 72.071419 369.858419 71.953931 369.781099 71.854992 369.682177 C 71.638561 369.465737 71.530349 369.209133 71.530349 368.912298 L 71.530349 365.04506 C 71.530349 364.735851 71.453051 364.503961 71.298459 364.34939 C 71.02638 364.077302 70.741935 363.941258 70.445117 363.941258 C 69.950419 363.941258 69.607233 364.13295 69.415537 364.516335 C 69.353701 364.640005 69.32278 364.779159 69.32278 364.93373 L 69.32278 368.912298 C 69.32278 369.21532 69.242397 369.4441 69.081618 369.598705 Z  M 80.342682 363.387204 C 80.342682 363.084216 80.419976 362.849215 80.574568 362.682271 C 80.840469 362.410183 81.13419 362.274139 81.455739 362.274139 C 81.764923 362.274139 81.993719 362.354535 82.142128 362.515292 C 82.414208 362.793567 82.550252 363.084216 82.550252 363.387204 L 82.550252 368.914793 C 82.550252 369.211595 82.472958 369.437298 82.318362 369.591902 C 82.046282 369.863956 81.79584 370 81.567044 370 C 81.338247 370 81.155835 369.970638 81.019791 369.911879 C 80.883752 369.853155 80.766264 369.777407 80.667325 369.684638 C 80.450893 369.474385 80.342682 369.217781 80.342682 368.914793 L 80.342682 363.387204 Z  M 81.450791 359.899625 C 81.188513 359.899625 80.975889 359.687013 80.975889 359.424702 C 80.975889 359.162424 81.188513 358.949812 81.450791 358.949812 C 81.713077 358.949812 81.925697 359.162424 81.925697 359.424702 C 81.925697 359.687013 81.713077 359.899625 81.450791 359.899625 Z  M 81.450791 358 C 81.837756 358 82.171943 358.141752 82.453372 358.425291 C 82.7348 358.70883 82.87551 358.99589 82.87551 359.286504 C 82.87551 359.577119 82.836816 359.80747 82.759419 359.977594 C 82.682031 360.147717 82.580016 360.296545 82.453372 360.424146 C 82.171943 360.707685 81.837756 360.849437 81.450791 360.849437 C 81.063835 360.849437 80.729643 360.707685 80.448219 360.424146 C 80.166791 360.140607 80.026081 359.857103 80.026081 359.573564 C 80.026081 359.091565 80.166791 358.70883 80.448219 358.425291 C 80.729643 358.141752 81.063835 358 81.450791 358 Z " fill-rule="evenodd" fill="rgb(10,118,187)"/><path d=" M 94.277 28.1 L 94.277 28.1 Q 93.927 28.1 93.787 27.974 L 93.787 27.974 L 93.787 27.974 Q 93.647 27.848 93.647 27.54 L 93.647 27.54 L 93.647 26.112 L 89.559 26.112 L 89.559 26.112 Q 89.153 26.112 89.153 25.72 L 89.153 25.72 L 89.153 24.908 L 89.153 24.908 Q 89.153 24.67 89.195 24.551 L 89.195 24.551 L 89.195 24.551 Q 89.237 24.432 89.391 24.25 L 89.391 24.25 L 93.801 18.902 L 93.801 18.902 Q 93.969 18.706 94.088 18.643 L 94.088 18.643 L 94.088 18.643 Q 94.207 18.58 94.473 18.58 L 94.473 18.58 L 95.327 18.58 L 95.327 18.58 Q 95.677 18.58 95.817 18.727 L 95.817 18.727 L 95.817 18.727 Q 95.957 18.874 95.957 19.196 L 95.957 19.196 L 95.957 24.418 L 96.797 24.418 L 96.797 24.418 Q 97.133 24.418 97.259 24.558 L 97.259 24.558 L 97.259 24.558 Q 97.385 24.698 97.385 25.02 L 97.385 25.02 L 97.385 25.524 L 97.385 25.524 Q 97.385 25.846 97.259 25.979 L 97.259 25.979 L 97.259 25.979 Q 97.133 26.112 96.797 26.112 L 96.797 26.112 L 95.957 26.112 L 95.957 27.54 L 95.957 27.54 Q 95.957 27.848 95.817 27.974 L 95.817 27.974 L 95.817 27.974 Q 95.677 28.1 95.327 28.1 L 95.327 28.1 L 94.277 28.1 L 94.277 28.1 Z  M 91.491 24.418 L 94.095 24.418 L 94.095 21.156 L 91.491 24.418 L 91.491 24.418 Z  M 76.025 28.1 L 76.025 28.1 Q 75.689 28.1 75.542 27.953 L 75.542 27.953 L 75.542 27.953 Q 75.395 27.806 75.395 27.498 L 75.395 27.498 L 75.395 19.196 L 75.395 19.196 Q 75.395 18.888 75.542 18.734 L 75.542 18.734 L 75.542 18.734 Q 75.689 18.58 76.025 18.58 L 76.025 18.58 L 77.075 18.58 L 77.075 18.58 Q 77.425 18.58 77.565 18.727 L 77.565 18.727 L 77.565 18.727 Q 77.705 18.874 77.705 19.196 L 77.705 19.196 L 77.705 27.498 L 77.705 27.498 Q 77.705 27.806 77.565 27.953 L 77.565 27.953 L 77.565 27.953 Q 77.425 28.1 77.075 28.1 L 77.075 28.1 L 76.025 28.1 L 76.025 28.1 Z  M 81.385 24.74 L 81.385 24.74 Q 81.077 24.74 80.965 24.607 L 80.965 24.607 L 80.965 24.607 Q 80.853 24.474 80.853 24.194 L 80.853 24.194 L 80.853 23.578 L 80.853 23.578 Q 80.853 23.298 80.965 23.165 L 80.965 23.165 L 80.965 23.165 Q 81.077 23.032 81.385 23.032 L 81.385 23.032 L 86.033 23.032 L 86.033 23.032 Q 86.327 23.032 86.446 23.165 L 86.446 23.165 L 86.446 23.165 Q 86.565 23.298 86.565 23.578 L 86.565 23.578 L 86.565 24.194 L 86.565 24.194 Q 86.565 24.474 86.446 24.607 L 86.446 24.607 L 86.446 24.607 Q 86.327 24.74 86.033 24.74 L 86.033 24.74 L 81.385 24.74 L 81.385 24.74 Z  M 51.805 28.1 L 51.805 28.1 Q 51.469 28.1 51.322 27.953 L 51.322 27.953 L 51.322 27.953 Q 51.175 27.806 51.175 27.498 L 51.175 27.498 L 51.175 19.182 L 51.175 19.182 Q 51.175 18.874 51.322 18.727 L 51.322 18.727 L 51.322 18.727 Q 51.469 18.58 51.819 18.58 L 51.819 18.58 L 52.855 18.58 L 52.855 18.58 Q 53.107 18.58 53.247 18.643 L 53.247 18.643 L 53.247 18.643 Q 53.387 18.706 53.471 18.888 L 53.471 18.888 L 55.893 24.6 L 58.329 18.888 L 58.329 18.888 Q 58.413 18.706 58.553 18.643 L 58.553 18.643 L 58.553 18.643 Q 58.693 18.58 58.945 18.58 L 58.945 18.58 L 59.981 18.58 L 59.981 18.58 Q 60.331 18.58 60.478 18.727 L 60.478 18.727 L 60.478 18.727 Q 60.625 18.874 60.625 19.182 L 60.625 19.182 L 60.625 27.498 L 60.625 27.498 Q 60.625 27.806 60.478 27.953 L 60.478 27.953 L 60.478 27.953 Q 60.331 28.1 59.995 28.1 L 59.995 28.1 L 59.141 28.1 L 59.141 28.1 Q 58.791 28.1 58.644 27.953 L 58.644 27.953 L 58.644 27.953 Q 58.497 27.806 58.497 27.498 L 58.497 27.498 L 58.497 22.206 L 56.621 26.392 L 56.621 26.392 Q 56.481 26.686 56.348 26.805 L 56.348 26.805 L 56.348 26.805 Q 56.215 26.924 55.893 26.924 L 55.893 26.924 L 55.893 26.924 Q 55.585 26.924 55.438 26.805 L 55.438 26.805 L 55.438 26.805 Q 55.291 26.686 55.165 26.392 L 55.165 26.392 L 53.303 22.206 L 53.303 27.498 L 53.303 27.498 Q 53.303 27.806 53.156 27.953 L 53.156 27.953 L 53.156 27.953 Q 53.009 28.1 52.659 28.1 L 52.659 28.1 L 51.805 28.1 L 51.805 28.1 Z  M 62.683 28.1 L 62.683 28.1 Q 62.347 28.1 62.2 27.953 L 62.2 27.953 L 62.2 27.953 Q 62.053 27.806 62.053 27.498 L 62.053 27.498 L 62.053 19.196 L 62.053 19.196 Q 62.053 18.888 62.2 18.734 L 62.2 18.734 L 62.2 18.734 Q 62.347 18.58 62.683 18.58 L 62.683 18.58 L 63.733 18.58 L 63.733 18.58 Q 64.083 18.58 64.223 18.727 L 64.223 18.727 L 64.223 18.727 Q 64.363 18.874 64.363 19.196 L 64.363 19.196 L 64.363 27.498 L 64.363 27.498 Q 64.363 27.806 64.223 27.953 L 64.223 27.953 L 64.223 27.953 Q 64.083 28.1 63.733 28.1 L 63.733 28.1 L 62.683 28.1 L 62.683 28.1 Z  M 66.421 28.1 L 66.421 28.1 Q 66.085 28.1 65.938 27.953 L 65.938 27.953 L 65.938 27.953 Q 65.791 27.806 65.791 27.498 L 65.791 27.498 L 65.791 19.196 L 65.791 19.196 Q 65.791 18.888 65.938 18.734 L 65.938 18.734 L 65.938 18.734 Q 66.085 18.58 66.421 18.58 L 66.421 18.58 L 69.361 18.58 L 69.361 18.58 Q 71.755 18.58 73.001 19.728 L 73.001 19.728 L 73.001 19.728 Q 74.247 20.876 74.247 23.34 L 74.247 23.34 L 74.247 23.34 Q 74.247 25.776 72.987 26.938 L 72.987 26.938 L 72.987 26.938 Q 71.727 28.1 69.361 28.1 L 69.361 28.1 L 66.421 28.1 L 66.421 28.1 Z  M 68.101 26.406 L 69.473 26.406 L 69.473 26.406 Q 70.719 26.406 71.335 25.713 L 71.335 25.713 L 71.335 25.713 Q 71.951 25.02 71.951 23.34 L 71.951 23.34 L 71.951 23.34 Q 71.951 21.66 71.335 20.974 L 71.335 20.974 L 71.335 20.974 Q 70.719 20.288 69.473 20.288 L 69.473 20.288 L 68.101 20.288 L 68.101 26.406 L 68.101 26.406 Z " fill-rule="evenodd" fill="rgb(0,0,0)"/><g id="stripes"><path d=" M -150 305 L 150 20 L 150 40 L -150 325 L -150 305 Z " fill="rgb(116,127,134)" fill-opacity="0.05"/><path d=" M -150 345 L 150 60 L 150 80 L -150 365 L -150 345 Z " fill="rgb(116,127,134)" fill-opacity="0.05"/><path d=" M -150 385 L 150 100 L 150 120 L -150 405 L -150 385 Z " fill="rgb(116,127,134)" fill-opacity="0.05"/></g></g><path d=" M 14.375 164.75 L 22.125 162.25 L 30.375 164.25 L 37.125 167.5 L 35.875 182.75 L 38.125 193 L 35.625 201 L 38.125 215.5 L 38.625 223 L 36.625 237 L 38.875 243.75 L 36.625 254.625 L 39.125 261.875 L 37.125 264.875 L 36.875 281.875 L 38.125 291.375 L 36.625 306.875 L 37.625 311.125 L 36.875 333.625 L 37.625 343.125 L 35.625 348.125 L 27.125 347.375 L 23.875 344.625 L 17.375 345.625 L 9.125 346.125 L 9.375 336.875 L 8.125 326.625 L 10.375 315.875 L 9.875 302.125 L 7.625 297.875 L 9.875 282.125 L 11.375 272.125 L 9.375 265.625 L 8.125 256.625 L 11.875 249.125 L 9.875 239.125 L 9.375 219.375 L 6.125 208.375 L 9.625 202.125 L 8.875 187.625 L 9.875 176.875 L 8.375 168.625 L 14.375 164.75 Z " fill="rgb(23,34,41)"/><path d=" M 21.263281 172.726563 L 21.263281 172.726563 Q 20.466406 172.726563 20.030469 172.295313 L 20.030469 172.295313 L 20.030469 172.295313 Q 19.594531 171.864063 19.594531 171.0625 L 19.594531 171.0625 L 19.594531 171.0625 Q 19.594531 170.260938 20.023437 169.829688 L 20.023437 169.829688 L 20.023437 169.829688 Q 20.452344 169.398438 21.249219 169.398438 L 21.249219 169.398438 L 21.249219 169.398438 Q 21.567969 169.398438 21.839844 169.464063 L 21.839844 169.464063 L 21.839844 169.464063 Q 22.111719 169.529688 22.299219 169.651563 L 22.299219 169.651563 L 22.299219 169.651563 Q 22.341406 169.679688 22.341406 169.7125 L 22.341406 169.7125 L 22.341406 169.7125 Q 22.341406 169.740625 22.317969 169.778125 L 22.317969 169.778125 L 22.186719 170.003125 L 22.186719 170.003125 Q 22.158594 170.045313 22.135156 170.045313 L 22.135156 170.045313 L 22.135156 170.045313 Q 22.116406 170.045313 22.069531 170.021875 L 22.069531 170.021875 L 22.069531 170.021875 Q 21.774219 169.84375 21.314844 169.84375 L 21.314844 169.84375 L 21.314844 169.84375 Q 20.785156 169.84375 20.485156 170.148438 L 20.485156 170.148438 L 20.485156 170.148438 Q 20.185156 170.453125 20.185156 171.0625 L 20.185156 171.0625 L 20.185156 171.0625 Q 20.185156 171.68125 20.494531 171.983594 L 20.494531 171.983594 L 20.494531 171.983594 Q 20.803906 172.285938 21.328906 172.285938 L 21.328906 172.285938 L 21.328906 172.285938 Q 21.816406 172.285938 22.130469 172.103125 L 22.130469 172.103125 L 22.130469 172.103125 Q 22.177344 172.079688 22.191406 172.079688 L 22.191406 172.079688 L 22.191406 172.079688 Q 22.219531 172.079688 22.247656 172.121875 L 22.247656 172.121875 L 22.392969 172.365625 L 22.392969 172.365625 Q 22.407031 172.39375 22.407031 172.4125 L 22.407031 172.4125 L 22.407031 172.4125 Q 22.407031 172.440625 22.355469 172.473438 L 22.355469 172.473438 L 22.355469 172.473438 Q 21.994531 172.726563 21.263281 172.726563 L 21.263281 172.726563 L 21.263281 172.726563 Z  M 24.155469 172.65625 L 24.155469 172.65625 Q 24.089844 172.65625 24.059375 172.632813 L 24.059375 172.632813 L 24.059375 172.632813 Q 24.028906 172.609375 24.000781 172.539063 L 24.000781 172.539063 L 22.782031 169.6 L 22.782031 169.6 Q 22.767969 169.571875 22.767969 169.54375 L 22.767969 169.54375 L 22.767969 169.54375 Q 22.767969 169.510938 22.789062 169.489844 L 22.789062 169.489844 L 22.789062 169.489844 Q 22.810156 169.46875 22.847656 169.46875 L 22.847656 169.46875 L 23.250781 169.46875 L 23.250781 169.46875 Q 23.311719 169.46875 23.344531 169.492188 L 23.344531 169.492188 L 23.344531 169.492188 Q 23.377344 169.515625 23.396094 169.567188 L 23.396094 169.567188 L 24.282031 171.817188 L 25.167969 169.567188 L 25.167969 169.567188 Q 25.186719 169.515625 25.219531 169.492188 L 25.219531 169.492188 L 25.219531 169.492188 Q 25.252344 169.46875 25.313281 169.46875 L 25.313281 169.46875 L 25.716406 169.46875 L 25.716406 169.46875 Q 25.753906 169.46875 25.775 169.489844 L 25.775 169.489844 L 25.775 169.489844 Q 25.796094 169.510938 25.796094 169.54375 L 25.796094 169.54375 L 25.796094 169.54375 Q 25.796094 169.571875 25.782031 169.6 L 25.782031 169.6 L 24.567969 172.539063 L 24.567969 172.539063 Q 24.539844 172.609375 24.507031 172.632813 L 24.507031 172.632813 L 24.507031 172.632813 Q 24.474219 172.65625 24.408594 172.65625 L 24.408594 172.65625 L 24.155469 172.65625 L 24.155469 172.65625 Z " fill-rule="evenodd" fill="rgb(255,255,255)"/><path d=" M 50.375 163.5 L 59.875 161.75 L 66.875 166.5 L 73.875 174.75 L 71.625 185 L 72.125 196.25 L 69.375 197.75 L 71.875 218 L 70.125 234.5 L 73.375 236.75 L 70.625 269 L 73.125 284 L 69.375 287.25 L 70.375 307.125 L 73.625 312.875 L 71.875 325.625 L 70.875 335.875 L 72.375 346.875 L 65.125 348.375 L 61.125 344.125 L 48.375 348.125 L 45.125 341.875 L 41.375 336.375 L 43.125 323.875 L 45.125 309.375 L 43.375 306.875 L 45.375 293.625 L 42.875 288.875 L 46 262.125 L 41.5 261.375 L 44.75 253.875 L 46.25 245.375 L 41.75 241.125 L 44.5 236.125 L 45.25 223.375 L 42.5 217.625 L 44.5 211.625 L 44.75 199.625 L 42.75 193.375 L 45.25 185.875 L 44.25 178.875 L 42 170.375 L 45.5 164.625 L 50.375 163.5 Z " fill="rgb(23,34,41)"/><path d=" M 88.5 163.375 L 97.75 162.375 L 101 165.625 L 106.5 166.375 L 105.5 173.875 L 104.625 184.625 L 105.625 188.625 L 106.875 197.375 L 105.125 200.875 L 108.125 210.125 L 106.625 213.375 L 104.375 216.375 L 106.625 226.625 L 106.625 231.375 L 105.375 236.625 L 106.875 247.625 L 104.625 254.625 L 105.875 262.875 L 106.875 277 L 105.125 283.5 L 107.625 302.75 L 105.875 305.25 L 105.875 316.25 L 103.125 321.5 L 104.875 329.25 L 105.875 339.75 L 105.375 349.25 L 100.375 349 L 88.875 347 L 84.875 348.25 L 78.375 342.25 L 76.875 333 L 79.875 324.25 L 77.875 317.75 L 77.625 302.75 L 79.125 292.25 L 77.875 284.5 L 80.375 266.25 L 74.875 262.5 L 76.875 249 L 78.875 238.125 L 79.375 225.625 L 76.875 216.875 L 78.375 210.125 L 79.125 199.625 L 76.625 192.625 L 79.625 187.375 L 78 175.5 L 77.5 166.25 L 80.25 161 L 88.5 163.375 Z " fill="rgb(23,34,41)"/><path d=" M 137.5 166.5 L 141 178 L 140.5 187 L 139.25 200.25 L 142.5 205 L 139.125 212.875 L 141.125 221.375 L 139.625 229.125 L 141.375 240.875 L 139.375 248.125 L 138.75 255.625 L 142 258.625 L 139.25 266.625 L 141.75 276.625 L 139.5 286.375 L 139.5 297.375 L 141.5 303.625 L 139.5 311.375 L 139.5 320.375 L 141.25 323.625 L 139.75 337.875 L 139 345.375 L 132.5 348.125 L 124.75 345.625 L 122.25 348.625 L 118.25 344.375 L 110 344.875 L 112.75 335.375 L 114 325.375 L 112.5 315.125 L 111.25 302.875 L 114.5 294.375 L 112.25 288.125 L 112.375 276.875 L 110.625 273.625 L 113.375 263.625 L 111.875 258.625 L 111.375 247.375 L 111.125 239.625 L 113.625 236.375 L 111.875 228.25 L 112.375 217 L 115.666664 208.5 L 112.625 202.5 L 114.125 191.75 L 110.875 187.25 L 110.375 178.75 L 114.875 174 L 113.875 167.25 L 111.625 162.75 L 118.875 165 L 126.875 163 L 134.625 162.25 L 137.5 166.5 Z " fill="rgb(23,34,41)"/><path d=" M 55.398438 159.244792 L 55.398438 159.244792 Q 55.210938 159.244792 55.128906 159.16276 L 55.128906 159.16276 L 55.128906 159.16276 Q 55.046875 159.080729 55.046875 158.908854 L 55.046875 158.908854 L 55.046875 154.276042 L 55.046875 154.276042 Q 55.046875 154.104167 55.128906 154.018229 L 55.128906 154.018229 L 55.128906 154.018229 Q 55.210938 153.932292 55.398438 153.932292 L 55.398438 153.932292 L 55.984375 153.932292 L 55.984375 153.932292 Q 56.179688 153.932292 56.257813 154.014323 L 56.257813 154.014323 L 56.257813 154.014323 Q 56.335938 154.096354 56.335938 154.276042 L 56.335938 154.276042 L 56.335938 158.908854 L 56.335938 158.908854 Q 56.335938 159.080729 56.257813 159.16276 L 56.257813 159.16276 L 56.257813 159.16276 Q 56.179688 159.244792 55.984375 159.244792 L 55.984375 159.244792 L 55.398438 159.244792 L 55.398438 159.244792 Z  M 57.484375 159.244792 L 57.484375 159.244792 Q 57.296875 159.244792 57.214844 159.16276 L 57.214844 159.16276 L 57.214844 159.16276 Q 57.132813 159.080729 57.132813 158.908854 L 57.132813 158.908854 L 57.132813 154.276042 L 57.132813 154.276042 Q 57.132813 154.104167 57.214844 154.018229 L 57.214844 154.018229 L 57.214844 154.018229 Q 57.296875 153.932292 57.484375 153.932292 L 57.484375 153.932292 L 58.070313 153.932292 L 58.070313 153.932292 Q 58.265625 153.932292 58.34375 154.014323 L 58.34375 154.014323 L 58.34375 154.014323 Q 58.421875 154.096354 58.421875 154.276042 L 58.421875 154.276042 L 58.421875 158.908854 L 58.421875 158.908854 Q 58.421875 159.080729 58.34375 159.16276 L 58.34375 159.16276 L 58.34375 159.16276 Q 58.265625 159.244792 58.070313 159.244792 L 58.070313 159.244792 L 57.484375 159.244792 L 57.484375 159.244792 Z " fill-rule="evenodd" fill="rgb(0,0,0)"/><path d=" M 88.445312 159.244792 L 88.445312 159.244792 Q 88.257812 159.244792 88.175781 159.16276 L 88.175781 159.16276 L 88.175781 159.16276 Q 88.09375 159.080729 88.09375 158.908854 L 88.09375 158.908854 L 88.09375 154.276042 L 88.09375 154.276042 Q 88.09375 154.104167 88.175781 154.018229 L 88.175781 154.018229 L 88.175781 154.018229 Q 88.257812 153.932292 88.445312 153.932292 L 88.445312 153.932292 L 89.03125 153.932292 L 89.03125 153.932292 Q 89.226562 153.932292 89.304687 154.014323 L 89.304687 154.014323 L 89.304687 154.014323 Q 89.382812 154.096354 89.382812 154.276042 L 89.382812 154.276042 L 89.382812 158.908854 L 89.382812 158.908854 Q 89.382812 159.080729 89.304687 159.16276 L 89.304687 159.16276 L 89.304687 159.16276 Q 89.226562 159.244792 89.03125 159.244792 L 89.03125 159.244792 L 88.445312 159.244792 L 88.445312 159.244792 Z  M 90.53125 159.244792 L 90.53125 159.244792 Q 90.34375 159.244792 90.261719 159.16276 L 90.261719 159.16276 L 90.261719 159.16276 Q 90.179687 159.080729 90.179687 158.908854 L 90.179687 158.908854 L 90.179687 154.276042 L 90.179687 154.276042 Q 90.179687 154.104167 90.261719 154.018229 L 90.261719 154.018229 L 90.261719 154.018229 Q 90.34375 153.932292 90.53125 153.932292 L 90.53125 153.932292 L 91.117187 153.932292 L 91.117187 153.932292 Q 91.3125 153.932292 91.390625 154.014323 L 91.390625 154.014323 L 91.390625 154.014323 Q 91.46875 154.096354 91.46875 154.276042 L 91.46875 154.276042 L 91.46875 158.908854 L 91.46875 158.908854 Q 91.46875 159.080729 91.390625 159.16276 L 91.390625 159.16276 L 91.390625 159.16276 Q 91.3125 159.244792 91.117187 159.244792 L 91.117187 159.244792 L 90.53125 159.244792 L 90.53125 159.244792 Z  M 92.617187 159.244792 L 92.617187 159.244792 Q 92.429687 159.244792 92.347656 159.16276 L 92.347656 159.16276 L 92.347656 159.16276 Q 92.265625 159.080729 92.265625 158.908854 L 92.265625 158.908854 L 92.265625 154.276042 L 92.265625 154.276042 Q 92.265625 154.104167 92.347656 154.018229 L 92.347656 154.018229 L 92.347656 154.018229 Q 92.429687 153.932292 92.617187 153.932292 L 92.617187 153.932292 L 93.203125 153.932292 L 93.203125 153.932292 Q 93.398437 153.932292 93.476562 154.014323 L 93.476562 154.014323 L 93.476562 154.014323 Q 93.554687 154.096354 93.554687 154.276042 L 93.554687 154.276042 L 93.554687 158.908854 L 93.554687 158.908854 Q 93.554687 159.080729 93.476562 159.16276 L 93.476562 159.16276 L 93.476562 159.16276 Q 93.398437 159.244792 93.203125 159.244792 L 93.203125 159.244792 L 92.617187 159.244792 L 92.617187 159.244792 Z " fill-rule="evenodd" fill="rgb(0,0,0)"/><path d=" M 122.273438 159.244792 L 122.273438 159.244792 Q 122.085938 159.244792 122.003906 159.16276 L 122.003906 159.16276 L 122.003906 159.16276 Q 121.921875 159.080729 121.921875 158.908854 L 121.921875 158.908854 L 121.921875 154.276042 L 121.921875 154.276042 Q 121.921875 154.104167 122.003906 154.018229 L 122.003906 154.018229 L 122.003906 154.018229 Q 122.085938 153.932292 122.273438 153.932292 L 122.273438 153.932292 L 122.859375 153.932292 L 122.859375 153.932292 Q 123.054688 153.932292 123.132813 154.014323 L 123.132813 154.014323 L 123.132813 154.014323 Q 123.210938 154.096354 123.210938 154.276042 L 123.210938 154.276042 L 123.210938 158.908854 L 123.210938 158.908854 Q 123.210938 159.080729 123.132813 159.16276 L 123.132813 159.16276 L 123.132813 159.16276 Q 123.054688 159.244792 122.859375 159.244792 L 122.859375 159.244792 L 122.273438 159.244792 L 122.273438 159.244792 Z  M 126.164063 159.244792 L 126.164063 159.244792 Q 126.039063 159.244792 125.976563 159.197917 L 125.976563 159.197917 L 125.976563 159.197917 Q 125.914063 159.151042 125.859375 159.018229 L 125.859375 159.018229 L 123.882813 154.190104 L 123.882813 154.190104 Q 123.859375 154.119792 123.859375 154.065104 L 123.859375 154.065104 L 123.859375 154.065104 Q 123.859375 153.932292 124 153.932292 L 124 153.932292 L 124.9375 153.932292 L 124.9375 153.932292 Q 125.046875 153.932292 125.105469 153.979167 L 125.105469 153.979167 L 125.105469 153.979167 Q 125.164063 154.026042 125.195313 154.111979 L 125.195313 154.111979 L 126.445313 157.463542 L 127.695313 154.111979 L 127.695313 154.111979 Q 127.757813 153.932292 127.960938 153.932292 L 127.960938 153.932292 L 128.898438 153.932292 L 128.898438 153.932292 Q 129.039063 153.932292 129.039063 154.065104 L 129.039063 154.065104 L 129.039063 154.065104 Q 129.039063 154.119792 129.015625 154.190104 L 129.015625 154.190104 L 127.046875 159.018229 L 127.046875 159.018229 Q 126.992188 159.151042 126.925781 159.197917 L 126.925781 159.197917 L 126.925781 159.197917 Q 126.859375 159.244792 126.734375 159.244792 L 126.734375 159.244792 L 126.164063 159.244792 L 126.164063 159.244792 Z " fill-rule="evenodd" fill="rgb(0,0,0)"/><path d=" M 22.273437 159.244792 L 22.273437 159.244792 Q 22.085937 159.244792 22.003906 159.16276 L 22.003906 159.16276 L 22.003906 159.16276 Q 21.921875 159.080729 21.921875 158.908854 L 21.921875 158.908854 L 21.921875 154.276042 L 21.921875 154.276042 Q 21.921875 154.104167 22.003906 154.018229 L 22.003906 154.018229 L 22.003906 154.018229 Q 22.085937 153.932292 22.273437 153.932292 L 22.273437 153.932292 L 22.859375 153.932292 L 22.859375 153.932292 Q 23.054687 153.932292 23.132812 154.014323 L 23.132812 154.014323 L 23.132812 154.014323 Q 23.210937 154.096354 23.210937 154.276042 L 23.210937 154.276042 L 23.210937 158.908854 L 23.210937 158.908854 Q 23.210937 159.080729 23.132812 159.16276 L 23.132812 159.16276 L 23.132812 159.16276 Q 23.054687 159.244792 22.859375 159.244792 L 22.859375 159.244792 L 22.273437 159.244792 L 22.273437 159.244792 Z " fill="rgb(0,0,0)"/><path d=" M 18.4625 219.992188 L 18.4625 219.992188 Q 17.665625 219.992188 17.229687 219.560938 L 17.229687 219.560938 L 17.229687 219.560938 Q 16.79375 219.129688 16.79375 218.328125 L 16.79375 218.328125 L 16.79375 218.328125 Q 16.79375 217.53125 17.232031 217.097656 L 17.232031 217.097656 L 17.232031 217.097656 Q 17.670312 216.664063 18.4625 216.664063 L 18.4625 216.664063 L 18.4625 216.664063 Q 18.78125 216.664063 19.057812 216.729688 L 19.057812 216.729688 L 19.057812 216.729688 Q 19.334375 216.795313 19.517187 216.917188 L 19.517187 216.917188 L 19.517187 216.917188 Q 19.559375 216.945313 19.559375 216.978125 L 19.559375 216.978125 L 19.559375 216.978125 Q 19.559375 217.001563 19.540625 217.034375 L 19.540625 217.034375 L 19.404687 217.26875 L 19.404687 217.26875 Q 19.376562 217.310938 19.348437 217.310938 L 19.348437 217.310938 L 19.348437 217.310938 Q 19.334375 217.310938 19.2875 217.2875 L 19.2875 217.2875 L 19.2875 217.2875 Q 18.96875 217.109375 18.528125 217.109375 L 18.528125 217.109375 L 18.528125 217.109375 Q 17.99375 217.109375 17.689062 217.411719 L 17.689062 217.411719 L 17.689062 217.411719 Q 17.384375 217.714063 17.384375 218.328125 L 17.384375 218.328125 L 17.384375 218.328125 Q 17.384375 218.946875 17.679687 219.246875 L 17.679687 219.246875 L 17.679687 219.246875 Q 17.975 219.546875 18.490625 219.546875 L 18.490625 219.546875 L 18.490625 219.546875 Q 18.678125 219.546875 18.85625 219.516406 L 18.85625 219.516406 L 18.85625 219.516406 Q 19.034375 219.485938 19.146875 219.429688 L 19.146875 219.429688 L 19.146875 218.5625 L 18.528125 218.5625 L 18.528125 218.5625 Q 18.434375 218.5625 18.396875 218.522656 L 18.396875 218.522656 L 18.396875 218.522656 Q 18.359375 218.482813 18.359375 218.39375 L 18.359375 218.39375 L 18.359375 218.271875 L 18.359375 218.271875 Q 18.359375 218.182813 18.396875 218.147656 L 18.396875 218.147656 L 18.396875 218.147656 Q 18.434375 218.1125 18.528125 218.1125 L 18.528125 218.1125 L 19.517187 218.1125 L 19.517187 218.1125 Q 19.620312 218.1125 19.664844 218.161719 L 19.664844 218.161719 L 19.664844 218.161719 Q 19.709375 218.210938 19.709375 218.314063 L 19.709375 218.314063 L 19.709375 219.551563 L 19.709375 219.551563 Q 19.709375 219.621875 19.695312 219.657031 L 19.695312 219.657031 L 19.695312 219.657031 Q 19.68125 219.692188 19.634375 219.720313 L 19.634375 219.720313 L 19.634375 219.720313 Q 19.203125 219.992188 18.4625 219.992188 L 18.4625 219.992188 L 18.4625 219.992188 Z  M 20.154687 219.921875 L 20.154687 219.921875 Q 20.075 219.921875 20.075 219.851563 L 20.075 219.851563 L 20.075 219.851563 Q 20.075 219.823438 20.089062 219.790625 L 20.089062 219.790625 L 21.326562 216.85625 L 21.326562 216.85625 Q 21.354687 216.785938 21.3875 216.760156 L 21.3875 216.760156 L 21.3875 216.760156 Q 21.420312 216.734375 21.48125 216.734375 L 21.48125 216.734375 L 21.739062 216.734375 L 21.739062 216.734375 Q 21.804687 216.734375 21.835156 216.760156 L 21.835156 216.760156 L 21.835156 216.760156 Q 21.865625 216.785938 21.89375 216.85625 L 21.89375 216.85625 L 23.13125 219.790625 L 23.13125 219.790625 Q 23.145312 219.823438 23.145312 219.851563 L 23.145312 219.851563 L 23.145312 219.851563 Q 23.145312 219.921875 23.065625 219.921875 L 23.065625 219.921875 L 22.657812 219.921875 L 22.657812 219.921875 Q 22.596875 219.921875 22.571094 219.905469 L 22.571094 219.905469 L 22.571094 219.905469 Q 22.545312 219.889063 22.521875 219.8375 L 22.521875 219.8375 L 22.254687 219.18125 L 20.960937 219.18125 L 20.698437 219.8375 L 20.698437 219.8375 Q 20.675 219.889063 20.649219 219.905469 L 20.649219 219.905469 L 20.649219 219.905469 Q 20.623437 219.921875 20.5625 219.921875 L 20.5625 219.921875 L 20.154687 219.921875 L 20.154687 219.921875 Z  M 21.110937 218.745313 L 22.104687 218.745313 L 21.607812 217.517188 L 21.110937 218.745313 L 21.110937 218.745313 Z  M 24.579687 219.921875 L 24.579687 219.921875 Q 24.485937 219.921875 24.44375 219.879688 L 24.44375 219.879688 L 24.44375 219.879688 Q 24.401562 219.8375 24.401562 219.753125 L 24.401562 219.753125 L 24.401562 217.19375 L 23.58125 217.19375 L 23.58125 217.19375 Q 23.4875 217.19375 23.452344 217.15625 L 23.452344 217.15625 L 23.452344 217.15625 Q 23.417187 217.11875 23.417187 217.029688 L 23.417187 217.029688 L 23.417187 216.903125 L 23.417187 216.903125 Q 23.417187 216.814063 23.452344 216.774219 L 23.452344 216.774219 L 23.452344 216.774219 Q 23.4875 216.734375 23.58125 216.734375 L 23.58125 216.734375 L 25.821875 216.734375 L 25.821875 216.734375 Q 25.915625 216.734375 25.953125 216.774219 L 25.953125 216.774219 L 25.953125 216.774219 Q 25.990625 216.814063 25.990625 216.903125 L 25.990625 216.903125 L 25.990625 217.029688 L 25.990625 217.029688 Q 25.990625 217.11875 25.953125 217.15625 L 25.953125 217.15625 L 25.953125 217.15625 Q 25.915625 217.19375 25.821875 217.19375 L 25.821875 217.19375 L 25.001562 217.19375 L 25.001562 219.753125 L 25.001562 219.753125 Q 25.001562 219.8375 24.961719 219.879688 L 24.961719 219.879688 L 24.961719 219.879688 Q 24.921875 219.921875 24.823437 219.921875 L 24.823437 219.921875 L 24.579687 219.921875 L 24.579687 219.921875 Z  M 26.529687 219.921875 L 26.529687 219.921875 Q 26.435937 219.921875 26.396094 219.879688 L 26.396094 219.879688 L 26.396094 219.879688 Q 26.35625 219.8375 26.35625 219.753125 L 26.35625 219.753125 L 26.35625 216.907813 L 26.35625 216.907813 Q 26.35625 216.81875 26.396094 216.776563 L 26.396094 216.776563 L 26.396094 216.776563 Q 26.435937 216.734375 26.529687 216.734375 L 26.529687 216.734375 L 28.479687 216.734375 L 28.479687 216.734375 Q 28.573437 216.734375 28.608594 216.771875 L 28.608594 216.771875 L 28.608594 216.771875 Q 28.64375 216.809375 28.64375 216.898438 L 28.64375 216.898438 L 28.64375 217.025 L 28.64375 217.025 Q 28.64375 217.114063 28.608594 217.153906 L 28.608594 217.153906 L 28.608594 217.153906 Q 28.573437 217.19375 28.479687 217.19375 L 28.479687 217.19375 L 26.95625 217.19375 L 26.95625 218.103125 L 28.0625 218.103125 L 28.0625 218.103125 Q 28.15625 218.103125 28.19375 218.140625 L 28.19375 218.140625 L 28.19375 218.140625 Q 28.23125 218.178125 28.23125 218.267188 L 28.23125 218.267188 L 28.23125 218.384375 L 28.23125 218.384375 Q 28.23125 218.473438 28.19375 218.513281 L 28.19375 218.513281 L 28.19375 218.513281 Q 28.15625 218.553125 28.0625 218.553125 L 28.0625 218.553125 L 26.95625 218.553125 L 26.95625 219.467188 L 28.475 219.467188 L 28.475 219.467188 Q 28.56875 219.467188 28.60625 219.507031 L 28.60625 219.507031 L 28.60625 219.507031 Q 28.64375 219.546875 28.64375 219.635938 L 28.64375 219.635938 L 28.64375 219.7625 L 28.64375 219.7625 Q 28.64375 219.846875 28.60625 219.884375 L 28.60625 219.884375 L 28.60625 219.884375 Q 28.56875 219.921875 28.475 219.921875 L 28.475 219.921875 L 26.529687 219.921875 L 26.529687 219.921875 Z " fill-rule="evenodd" fill="rgb(255,255,255)"/><path d=" M 19.934375 267.1875 L 19.934375 267.1875 Q 19.86875 267.1875 19.838281 267.164063 L 19.838281 267.164063 L 19.838281 267.164063 Q 19.807812 267.140625 19.779687 267.070313 L 19.779687 267.070313 L 18.560937 264.13125 L 18.560937 264.13125 Q 18.546875 264.103125 18.546875 264.075 L 18.546875 264.075 L 18.546875 264.075 Q 18.546875 264.042188 18.567969 264.021094 L 18.567969 264.021094 L 18.567969 264.021094 Q 18.589062 264 18.626562 264 L 18.626562 264 L 19.029687 264 L 19.029687 264 Q 19.090625 264 19.123437 264.023438 L 19.123437 264.023438 L 19.123437 264.023438 Q 19.15625 264.046875 19.175 264.098438 L 19.175 264.098438 L 20.060937 266.348438 L 20.946875 264.098438 L 20.946875 264.098438 Q 20.965625 264.046875 20.998437 264.023438 L 20.998437 264.023438 L 20.998437 264.023438 Q 21.03125 264 21.092187 264 L 21.092187 264 L 21.495312 264 L 21.495312 264 Q 21.532812 264 21.553906 264.021094 L 21.553906 264.021094 L 21.553906 264.021094 Q 21.575 264.042188 21.575 264.075 L 21.575 264.075 L 21.575 264.075 Q 21.575 264.103125 21.560937 264.13125 L 21.560937 264.13125 L 20.346875 267.070313 L 20.346875 267.070313 Q 20.31875 267.140625 20.285937 267.164063 L 20.285937 267.164063 L 20.285937 267.164063 Q 20.253125 267.1875 20.1875 267.1875 L 20.1875 267.1875 L 19.934375 267.1875 L 19.934375 267.1875 Z  M 22.207812 267.1875 L 22.207812 267.1875 Q 22.114062 267.1875 22.074219 267.145313 L 22.074219 267.145313 L 22.074219 267.145313 Q 22.034375 267.103125 22.034375 267.01875 L 22.034375 267.01875 L 22.034375 264.173437 L 22.034375 264.173437 Q 22.034375 264.084375 22.074219 264.042188 L 22.074219 264.042188 L 22.074219 264.042188 Q 22.114062 264 22.207812 264 L 22.207812 264 L 24.157812 264 L 24.157812 264 Q 24.251562 264 24.286719 264.0375 L 24.286719 264.0375 L 24.286719 264.0375 Q 24.321875 264.075 24.321875 264.164063 L 24.321875 264.164063 L 24.321875 264.290625 L 24.321875 264.290625 Q 24.321875 264.379688 24.286719 264.419531 L 24.286719 264.419531 L 24.286719 264.419531 Q 24.251562 264.459375 24.157812 264.459375 L 24.157812 264.459375 L 22.634375 264.459375 L 22.634375 265.36875 L 23.740625 265.36875 L 23.740625 265.36875 Q 23.834375 265.36875 23.871875 265.40625 L 23.871875 265.40625 L 23.871875 265.40625 Q 23.909375 265.44375 23.909375 265.532812 L 23.909375 265.532812 L 23.909375 265.65 L 23.909375 265.65 Q 23.909375 265.739063 23.871875 265.778906 L 23.871875 265.778906 L 23.871875 265.778906 Q 23.834375 265.81875 23.740625 265.81875 L 23.740625 265.81875 L 22.634375 265.81875 L 22.634375 266.732813 L 24.153125 266.732813 L 24.153125 266.732813 Q 24.246875 266.732813 24.284375 266.772656 L 24.284375 266.772656 L 24.284375 266.772656 Q 24.321875 266.8125 24.321875 266.901563 L 24.321875 266.901563 L 24.321875 267.028125 L 24.321875 267.028125 Q 24.321875 267.1125 24.284375 267.15 L 24.284375 267.15 L 24.284375 267.15 Q 24.246875 267.1875 24.153125 267.1875 L 24.153125 267.1875 L 22.207812 267.1875 L 22.207812 267.1875 Z  M 24.907812 267.1875 L 24.907812 267.1875 Q 24.814062 267.1875 24.774219 267.145313 L 24.774219 267.145313 L 24.774219 267.145313 Q 24.734375 267.103125 24.734375 267.01875 L 24.734375 267.01875 L 24.734375 264.173437 L 24.734375 264.173437 Q 24.734375 264.084375 24.774219 264.042188 L 24.774219 264.042188 L 24.774219 264.042188 Q 24.814062 264 24.907812 264 L 24.907812 264 L 25.15625 264 L 25.15625 264 Q 25.25 264 25.292187 264.042188 L 25.292187 264.042188 L 25.292187 264.042188 Q 25.334375 264.084375 25.334375 264.173437 L 25.334375 264.173437 L 25.334375 266.732813 L 26.76875 266.732813 L 26.76875 266.732813 Q 26.8625 266.732813 26.9 266.772656 L 26.9 266.772656 L 26.9 266.772656 Q 26.9375 266.8125 26.9375 266.901563 L 26.9375 266.901563 L 26.9375 267.028125 L 26.9375 267.028125 Q 26.9375 267.1125 26.9 267.15 L 26.9 267.15 L 26.9 267.15 Q 26.8625 267.1875 26.76875 267.1875 L 26.76875 267.1875 L 24.907812 267.1875 L 24.907812 267.1875 Z " fill-rule="evenodd" fill="rgb(255,255,255)"/><path d=" M 18.5375 314.375109 L 18.5375 314.375109 Q 18.457812 314.375109 18.457812 314.304796 L 18.457812 314.304796 L 18.457812 314.304796 Q 18.457812 314.276671 18.471875 314.243859 L 18.471875 314.243859 L 19.709375 311.309484 L 19.709375 311.309484 Q 19.7375 311.239171 19.770312 311.21339 L 19.770312 311.21339 L 19.770312 311.21339 Q 19.803125 311.187609 19.864062 311.187609 L 19.864062 311.187609 L 20.121875 311.187609 L 20.121875 311.187609 Q 20.1875 311.187609 20.217969 311.21339 L 20.217969 311.21339 L 20.217969 311.21339 Q 20.248437 311.239171 20.276562 311.309484 L 20.276562 311.309484 L 21.514062 314.243859 L 21.514062 314.243859 Q 21.528125 314.276671 21.528125 314.304796 L 21.528125 314.304796 L 21.528125 314.304796 Q 21.528125 314.375109 21.448437 314.375109 L 21.448437 314.375109 L 21.040625 314.375109 L 21.040625 314.375109 Q 20.979687 314.375109 20.953906 314.358703 L 20.953906 314.358703 L 20.953906 314.358703 Q 20.928125 314.342296 20.904687 314.290734 L 20.904687 314.290734 L 20.6375 313.634484 L 19.34375 313.634484 L 19.08125 314.290734 L 19.08125 314.290734 Q 19.057812 314.342296 19.032031 314.358703 L 19.032031 314.358703 L 19.032031 314.358703 Q 19.00625 314.375109 18.945312 314.375109 L 18.945312 314.375109 L 18.5375 314.375109 L 18.5375 314.375109 Z  M 19.49375 313.198546 L 20.4875 313.198546 L 19.990625 311.970421 L 19.49375 313.198546 L 19.49375 313.198546 Z  M 22.160937 314.375109 L 22.160937 314.375109 Q 22.067187 314.375109 22.027344 314.332921 L 22.027344 314.332921 L 22.027344 314.332921 Q 21.9875 314.290734 21.9875 314.206359 L 21.9875 314.206359 L 21.9875 311.361046 L 21.9875 311.361046 Q 21.9875 311.271984 22.027344 311.229796 L 22.027344 311.229796 L 22.027344 311.229796 Q 22.067187 311.187609 22.160937 311.187609 L 22.160937 311.187609 L 24.110937 311.187609 L 24.110937 311.187609 Q 24.204687 311.187609 24.239844 311.225109 L 24.239844 311.225109 L 24.239844 311.225109 Q 24.275 311.262609 24.275 311.351671 L 24.275 311.351671 L 24.275 311.478234 L 24.275 311.478234 Q 24.275 311.567296 24.239844 311.60714 L 24.239844 311.60714 L 24.239844 311.60714 Q 24.204687 311.646984 24.110937 311.646984 L 24.110937 311.646984 L 22.5875 311.646984 L 22.5875 312.551671 L 23.69375 312.551671 L 23.69375 312.551671 Q 23.7875 312.551671 23.825 312.589171 L 23.825 312.589171 L 23.825 312.589171 Q 23.8625 312.626671 23.8625 312.715734 L 23.8625 312.715734 L 23.8625 312.842296 L 23.8625 312.842296 Q 23.8625 312.931359 23.825 312.971203 L 23.825 312.971203 L 23.825 312.971203 Q 23.7875 313.011046 23.69375 313.011046 L 23.69375 313.011046 L 22.5875 313.011046 L 22.5875 314.206359 L 22.5875 314.206359 Q 22.5875 314.290734 22.547656 314.332921 L 22.547656 314.332921 L 22.547656 314.332921 Q 22.507812 314.375109 22.409375 314.375109 L 22.409375 314.375109 L 22.160937 314.375109 L 22.160937 314.375109 Z  M 25.615625 314.375109 L 25.615625 314.375109 Q 25.521875 314.375109 25.479687 314.332921 L 25.479687 314.332921 L 25.479687 314.332921 Q 25.4375 314.290734 25.4375 314.206359 L 25.4375 314.206359 L 25.4375 311.646984 L 24.617187 311.646984 L 24.617187 311.646984 Q 24.523437 311.646984 24.488281 311.609484 L 24.488281 311.609484 L 24.488281 311.609484 Q 24.453125 311.571984 24.453125 311.482921 L 24.453125 311.482921 L 24.453125 311.356359 L 24.453125 311.356359 Q 24.453125 311.267296 24.488281 311.227453 L 24.488281 311.227453 L 24.488281 311.227453 Q 24.523437 311.187609 24.617187 311.187609 L 24.617187 311.187609 L 26.857812 311.187609 L 26.857812 311.187609 Q 26.951562 311.187609 26.989062 311.227453 L 26.989062 311.227453 L 26.989062 311.227453 Q 27.026562 311.267296 27.026562 311.356359 L 27.026562 311.356359 L 27.026562 311.482921 L 27.026562 311.482921 Q 27.026562 311.571984 26.989062 311.609484 L 26.989062 311.609484 L 26.989062 311.609484 Q 26.951562 311.646984 26.857812 311.646984 L 26.857812 311.646984 L 26.0375 311.646984 L 26.0375 314.206359 L 26.0375 314.206359 Q 26.0375 314.290734 25.997656 314.332921 L 25.997656 314.332921 L 25.997656 314.332921 Q 25.957812 314.375109 25.859375 314.375109 L 25.859375 314.375109 L 25.615625 314.375109 L 25.615625 314.375109 Z " fill-rule="evenodd" fill="rgb(255,255,255)"/><path d=" M 55.560156 172.726563 L 55.560156 172.726563 Q 54.763281 172.726563 54.327344 172.295313 L 54.327344 172.295313 L 54.327344 172.295313 Q 53.891406 171.864063 53.891406 171.0625 L 53.891406 171.0625 L 53.891406 171.0625 Q 53.891406 170.260938 54.320313 169.829688 L 54.320313 169.829688 L 54.320313 169.829688 Q 54.749219 169.398438 55.546094 169.398438 L 55.546094 169.398438 L 55.546094 169.398438 Q 55.864844 169.398438 56.136719 169.464063 L 56.136719 169.464063 L 56.136719 169.464063 Q 56.408594 169.529688 56.596094 169.651563 L 56.596094 169.651563 L 56.596094 169.651563 Q 56.638281 169.679688 56.638281 169.7125 L 56.638281 169.7125 L 56.638281 169.7125 Q 56.638281 169.740625 56.614844 169.778125 L 56.614844 169.778125 L 56.483594 170.003125 L 56.483594 170.003125 Q 56.455469 170.045313 56.432031 170.045313 L 56.432031 170.045313 L 56.432031 170.045313 Q 56.413281 170.045313 56.366406 170.021875 L 56.366406 170.021875 L 56.366406 170.021875 Q 56.071094 169.84375 55.611719 169.84375 L 55.611719 169.84375 L 55.611719 169.84375 Q 55.082031 169.84375 54.782031 170.148438 L 54.782031 170.148438 L 54.782031 170.148438 Q 54.482031 170.453125 54.482031 171.0625 L 54.482031 171.0625 L 54.482031 171.0625 Q 54.482031 171.68125 54.791406 171.983594 L 54.791406 171.983594 L 54.791406 171.983594 Q 55.100781 172.285938 55.625781 172.285938 L 55.625781 172.285938 L 55.625781 172.285938 Q 56.113281 172.285938 56.427344 172.103125 L 56.427344 172.103125 L 56.427344 172.103125 Q 56.474219 172.079688 56.488281 172.079688 L 56.488281 172.079688 L 56.488281 172.079688 Q 56.516406 172.079688 56.544531 172.121875 L 56.544531 172.121875 L 56.689844 172.365625 L 56.689844 172.365625 Q 56.703906 172.39375 56.703906 172.4125 L 56.703906 172.4125 L 56.703906 172.4125 Q 56.703906 172.440625 56.652344 172.473438 L 56.652344 172.473438 L 56.652344 172.473438 Q 56.291406 172.726563 55.560156 172.726563 L 55.560156 172.726563 L 55.560156 172.726563 Z  M 58.452344 172.65625 L 58.452344 172.65625 Q 58.386719 172.65625 58.35625 172.632813 L 58.35625 172.632813 L 58.35625 172.632813 Q 58.325781 172.609375 58.297656 172.539063 L 58.297656 172.539063 L 57.078906 169.6 L 57.078906 169.6 Q 57.064844 169.571875 57.064844 169.54375 L 57.064844 169.54375 L 57.064844 169.54375 Q 57.064844 169.510938 57.085938 169.489844 L 57.085938 169.489844 L 57.085938 169.489844 Q 57.107031 169.46875 57.144531 169.46875 L 57.144531 169.46875 L 57.547656 169.46875 L 57.547656 169.46875 Q 57.608594 169.46875 57.641406 169.492188 L 57.641406 169.492188 L 57.641406 169.492188 Q 57.674219 169.515625 57.692969 169.567188 L 57.692969 169.567188 L 58.578906 171.817188 L 59.464844 169.567188 L 59.464844 169.567188 Q 59.483594 169.515625 59.516406 169.492188 L 59.516406 169.492188 L 59.516406 169.492188 Q 59.549219 169.46875 59.610156 169.46875 L 59.610156 169.46875 L 60.013281 169.46875 L 60.013281 169.46875 Q 60.050781 169.46875 60.071875 169.489844 L 60.071875 169.489844 L 60.071875 169.489844 Q 60.092969 169.510938 60.092969 169.54375 L 60.092969 169.54375 L 60.092969 169.54375 Q 60.092969 169.571875 60.078906 169.6 L 60.078906 169.6 L 58.864844 172.539063 L 58.864844 172.539063 Q 58.836719 172.609375 58.803906 172.632813 L 58.803906 172.632813 L 58.803906 172.632813 Q 58.771094 172.65625 58.705469 172.65625 L 58.705469 172.65625 L 58.452344 172.65625 L 58.452344 172.65625 Z " fill-rule="evenodd" fill="rgb(255,255,255)"/><path d=" M 52.759375 219.992188 L 52.759375 219.992188 Q 51.9625 219.992188 51.526563 219.560938 L 51.526563 219.560938 L 51.526563 219.560938 Q 51.090625 219.129688 51.090625 218.328125 L 51.090625 218.328125 L 51.090625 218.328125 Q 51.090625 217.53125 51.528906 217.097656 L 51.528906 217.097656 L 51.528906 217.097656 Q 51.967188 216.664063 52.759375 216.664063 L 52.759375 216.664063 L 52.759375 216.664063 Q 53.078125 216.664063 53.354688 216.729688 L 53.354688 216.729688 L 53.354688 216.729688 Q 53.63125 216.795313 53.814063 216.917188 L 53.814063 216.917188 L 53.814063 216.917188 Q 53.85625 216.945313 53.85625 216.978125 L 53.85625 216.978125 L 53.85625 216.978125 Q 53.85625 217.001563 53.8375 217.034375 L 53.8375 217.034375 L 53.701563 217.26875 L 53.701563 217.26875 Q 53.673438 217.310938 53.645313 217.310938 L 53.645313 217.310938 L 53.645313 217.310938 Q 53.63125 217.310938 53.584375 217.2875 L 53.584375 217.2875 L 53.584375 217.2875 Q 53.265625 217.109375 52.825 217.109375 L 52.825 217.109375 L 52.825 217.109375 Q 52.290625 217.109375 51.985938 217.411719 L 51.985938 217.411719 L 51.985938 217.411719 Q 51.68125 217.714063 51.68125 218.328125 L 51.68125 218.328125 L 51.68125 218.328125 Q 51.68125 218.946875 51.976563 219.246875 L 51.976563 219.246875 L 51.976563 219.246875 Q 52.271875 219.546875 52.7875 219.546875 L 52.7875 219.546875 L 52.7875 219.546875 Q 52.975 219.546875 53.153125 219.516406 L 53.153125 219.516406 L 53.153125 219.516406 Q 53.33125 219.485938 53.44375 219.429688 L 53.44375 219.429688 L 53.44375 218.5625 L 52.825 218.5625 L 52.825 218.5625 Q 52.73125 218.5625 52.69375 218.522656 L 52.69375 218.522656 L 52.69375 218.522656 Q 52.65625 218.482813 52.65625 218.39375 L 52.65625 218.39375 L 52.65625 218.271875 L 52.65625 218.271875 Q 52.65625 218.182813 52.69375 218.147656 L 52.69375 218.147656 L 52.69375 218.147656 Q 52.73125 218.1125 52.825 218.1125 L 52.825 218.1125 L 53.814063 218.1125 L 53.814063 218.1125 Q 53.917188 218.1125 53.961719 218.161719 L 53.961719 218.161719 L 53.961719 218.161719 Q 54.00625 218.210938 54.00625 218.314063 L 54.00625 218.314063 L 54.00625 219.551563 L 54.00625 219.551563 Q 54.00625 219.621875 53.992188 219.657031 L 53.992188 219.657031 L 53.992188 219.657031 Q 53.978125 219.692188 53.93125 219.720313 L 53.93125 219.720313 L 53.93125 219.720313 Q 53.5 219.992188 52.759375 219.992188 L 52.759375 219.992188 L 52.759375 219.992188 Z  M 54.451563 219.921875 L 54.451563 219.921875 Q 54.371875 219.921875 54.371875 219.851563 L 54.371875 219.851563 L 54.371875 219.851563 Q 54.371875 219.823438 54.385938 219.790625 L 54.385938 219.790625 L 55.623438 216.85625 L 55.623438 216.85625 Q 55.651563 216.785938 55.684375 216.760156 L 55.684375 216.760156 L 55.684375 216.760156 Q 55.717188 216.734375 55.778125 216.734375 L 55.778125 216.734375 L 56.035938 216.734375 L 56.035938 216.734375 Q 56.101563 216.734375 56.132031 216.760156 L 56.132031 216.760156 L 56.132031 216.760156 Q 56.1625 216.785938 56.190625 216.85625 L 56.190625 216.85625 L 57.428125 219.790625 L 57.428125 219.790625 Q 57.442188 219.823438 57.442188 219.851563 L 57.442188 219.851563 L 57.442188 219.851563 Q 57.442188 219.921875 57.3625 219.921875 L 57.3625 219.921875 L 56.954688 219.921875 L 56.954688 219.921875 Q 56.89375 219.921875 56.867969 219.905469 L 56.867969 219.905469 L 56.867969 219.905469 Q 56.842188 219.889063 56.81875 219.8375 L 56.81875 219.8375 L 56.551563 219.18125 L 55.257813 219.18125 L 54.995313 219.8375 L 54.995313 219.8375 Q 54.971875 219.889063 54.946094 219.905469 L 54.946094 219.905469 L 54.946094 219.905469 Q 54.920313 219.921875 54.859375 219.921875 L 54.859375 219.921875 L 54.451563 219.921875 L 54.451563 219.921875 Z  M 55.407813 218.745313 L 56.401563 218.745313 L 55.904688 217.517188 L 55.407813 218.745313 L 55.407813 218.745313 Z  M 58.876563 219.921875 L 58.876563 219.921875 Q 58.782813 219.921875 58.740625 219.879688 L 58.740625 219.879688 L 58.740625 219.879688 Q 58.698438 219.8375 58.698438 219.753125 L 58.698438 219.753125 L 58.698438 217.19375 L 57.878125 217.19375 L 57.878125 217.19375 Q 57.784375 217.19375 57.749219 217.15625 L 57.749219 217.15625 L 57.749219 217.15625 Q 57.714063 217.11875 57.714063 217.029688 L 57.714063 217.029688 L 57.714063 216.903125 L 57.714063 216.903125 Q 57.714063 216.814063 57.749219 216.774219 L 57.749219 216.774219 L 57.749219 216.774219 Q 57.784375 216.734375 57.878125 216.734375 L 57.878125 216.734375 L 60.11875 216.734375 L 60.11875 216.734375 Q 60.2125 216.734375 60.25 216.774219 L 60.25 216.774219 L 60.25 216.774219 Q 60.2875 216.814063 60.2875 216.903125 L 60.2875 216.903125 L 60.2875 217.029688 L 60.2875 217.029688 Q 60.2875 217.11875 60.25 217.15625 L 60.25 217.15625 L 60.25 217.15625 Q 60.2125 217.19375 60.11875 217.19375 L 60.11875 217.19375 L 59.298438 217.19375 L 59.298438 219.753125 L 59.298438 219.753125 Q 59.298438 219.8375 59.258594 219.879688 L 59.258594 219.879688 L 59.258594 219.879688 Q 59.21875 219.921875 59.120313 219.921875 L 59.120313 219.921875 L 58.876563 219.921875 L 58.876563 219.921875 Z  M 60.826563 219.921875 L 60.826563 219.921875 Q 60.732813 219.921875 60.692969 219.879688 L 60.692969 219.879688 L 60.692969 219.879688 Q 60.653125 219.8375 60.653125 219.753125 L 60.653125 219.753125 L 60.653125 216.907813 L 60.653125 216.907813 Q 60.653125 216.81875 60.692969 216.776563 L 60.692969 216.776563 L 60.692969 216.776563 Q 60.732813 216.734375 60.826563 216.734375 L 60.826563 216.734375 L 62.776563 216.734375 L 62.776563 216.734375 Q 62.870313 216.734375 62.905469 216.771875 L 62.905469 216.771875 L 62.905469 216.771875 Q 62.940625 216.809375 62.940625 216.898438 L 62.940625 216.898438 L 62.940625 217.025 L 62.940625 217.025 Q 62.940625 217.114063 62.905469 217.153906 L 62.905469 217.153906 L 62.905469 217.153906 Q 62.870313 217.19375 62.776563 217.19375 L 62.776563 217.19375 L 61.253125 217.19375 L 61.253125 218.103125 L 62.359375 218.103125 L 62.359375 218.103125 Q 62.453125 218.103125 62.490625 218.140625 L 62.490625 218.140625 L 62.490625 218.140625 Q 62.528125 218.178125 62.528125 218.267188 L 62.528125 218.267188 L 62.528125 218.384375 L 62.528125 218.384375 Q 62.528125 218.473438 62.490625 218.513281 L 62.490625 218.513281 L 62.490625 218.513281 Q 62.453125 218.553125 62.359375 218.553125 L 62.359375 218.553125 L 61.253125 218.553125 L 61.253125 219.467188 L 62.771875 219.467188 L 62.771875 219.467188 Q 62.865625 219.467188 62.903125 219.507031 L 62.903125 219.507031 L 62.903125 219.507031 Q 62.940625 219.546875 62.940625 219.635938 L 62.940625 219.635938 L 62.940625 219.7625 L 62.940625 219.7625 Q 62.940625 219.846875 62.903125 219.884375 L 62.903125 219.884375 L 62.903125 219.884375 Q 62.865625 219.921875 62.771875 219.921875 L 62.771875 219.921875 L 60.826563 219.921875 L 60.826563 219.921875 Z " fill-rule="evenodd" fill="rgb(255,255,255)"/><path d=" M 54.23125 267.1875 L 54.23125 267.1875 Q 54.165625 267.1875 54.135156 267.164063 L 54.135156 267.164063 L 54.135156 267.164063 Q 54.104688 267.140625 54.076563 267.070313 L 54.076563 267.070313 L 52.857813 264.13125 L 52.857813 264.13125 Q 52.84375 264.103125 52.84375 264.075 L 52.84375 264.075 L 52.84375 264.075 Q 52.84375 264.042188 52.864844 264.021094 L 52.864844 264.021094 L 52.864844 264.021094 Q 52.885938 264 52.923438 264 L 52.923438 264 L 53.326563 264 L 53.326563 264 Q 53.3875 264 53.420313 264.023438 L 53.420313 264.023438 L 53.420313 264.023438 Q 53.453125 264.046875 53.471875 264.098438 L 53.471875 264.098438 L 54.357813 266.348438 L 55.24375 264.098438 L 55.24375 264.098438 Q 55.2625 264.046875 55.295313 264.023438 L 55.295313 264.023438 L 55.295313 264.023438 Q 55.328125 264 55.389063 264 L 55.389063 264 L 55.792188 264 L 55.792188 264 Q 55.829688 264 55.850781 264.021094 L 55.850781 264.021094 L 55.850781 264.021094 Q 55.871875 264.042188 55.871875 264.075 L 55.871875 264.075 L 55.871875 264.075 Q 55.871875 264.103125 55.857813 264.13125 L 55.857813 264.13125 L 54.64375 267.070313 L 54.64375 267.070313 Q 54.615625 267.140625 54.582813 267.164063 L 54.582813 267.164063 L 54.582813 267.164063 Q 54.55 267.1875 54.484375 267.1875 L 54.484375 267.1875 L 54.23125 267.1875 L 54.23125 267.1875 Z  M 56.504688 267.1875 L 56.504688 267.1875 Q 56.410938 267.1875 56.371094 267.145313 L 56.371094 267.145313 L 56.371094 267.145313 Q 56.33125 267.103125 56.33125 267.01875 L 56.33125 267.01875 L 56.33125 264.173437 L 56.33125 264.173437 Q 56.33125 264.084375 56.371094 264.042188 L 56.371094 264.042188 L 56.371094 264.042188 Q 56.410938 264 56.504688 264 L 56.504688 264 L 58.454688 264 L 58.454688 264 Q 58.548438 264 58.583594 264.0375 L 58.583594 264.0375 L 58.583594 264.0375 Q 58.61875 264.075 58.61875 264.164063 L 58.61875 264.164063 L 58.61875 264.290625 L 58.61875 264.290625 Q 58.61875 264.379688 58.583594 264.419531 L 58.583594 264.419531 L 58.583594 264.419531 Q 58.548438 264.459375 58.454688 264.459375 L 58.454688 264.459375 L 56.93125 264.459375 L 56.93125 265.36875 L 58.0375 265.36875 L 58.0375 265.36875 Q 58.13125 265.36875 58.16875 265.40625 L 58.16875 265.40625 L 58.16875 265.40625 Q 58.20625 265.44375 58.20625 265.532812 L 58.20625 265.532812 L 58.20625 265.65 L 58.20625 265.65 Q 58.20625 265.739063 58.16875 265.778906 L 58.16875 265.778906 L 58.16875 265.778906 Q 58.13125 265.81875 58.0375 265.81875 L 58.0375 265.81875 L 56.93125 265.81875 L 56.93125 266.732813 L 58.45 266.732813 L 58.45 266.732813 Q 58.54375 266.732813 58.58125 266.772656 L 58.58125 266.772656 L 58.58125 266.772656 Q 58.61875 266.8125 58.61875 266.901563 L 58.61875 266.901563 L 58.61875 267.028125 L 58.61875 267.028125 Q 58.61875 267.1125 58.58125 267.15 L 58.58125 267.15 L 58.58125 267.15 Q 58.54375 267.1875 58.45 267.1875 L 58.45 267.1875 L 56.504688 267.1875 L 56.504688 267.1875 Z  M 59.204688 267.1875 L 59.204688 267.1875 Q 59.110938 267.1875 59.071094 267.145313 L 59.071094 267.145313 L 59.071094 267.145313 Q 59.03125 267.103125 59.03125 267.01875 L 59.03125 267.01875 L 59.03125 264.173437 L 59.03125 264.173437 Q 59.03125 264.084375 59.071094 264.042188 L 59.071094 264.042188 L 59.071094 264.042188 Q 59.110938 264 59.204688 264 L 59.204688 264 L 59.453125 264 L 59.453125 264 Q 59.546875 264 59.589063 264.042188 L 59.589063 264.042188 L 59.589063 264.042188 Q 59.63125 264.084375 59.63125 264.173437 L 59.63125 264.173437 L 59.63125 266.732813 L 61.065625 266.732813 L 61.065625 266.732813 Q 61.159375 266.732813 61.196875 266.772656 L 61.196875 266.772656 L 61.196875 266.772656 Q 61.234375 266.8125 61.234375 266.901563 L 61.234375 266.901563 L 61.234375 267.028125 L 61.234375 267.028125 Q 61.234375 267.1125 61.196875 267.15 L 61.196875 267.15 L 61.196875 267.15 Q 61.159375 267.1875 61.065625 267.1875 L 61.065625 267.1875 L 59.204688 267.1875 L 59.204688 267.1875 Z " fill-rule="evenodd" fill="rgb(255,255,255)"/><path d=" M 52.834375 314.375109 L 52.834375 314.375109 Q 52.754688 314.375109 52.754688 314.304796 L 52.754688 314.304796 L 52.754688 314.304796 Q 52.754688 314.276671 52.76875 314.243859 L 52.76875 314.243859 L 54.00625 311.309484 L 54.00625 311.309484 Q 54.034375 311.239171 54.067188 311.21339 L 54.067188 311.21339 L 54.067188 311.21339 Q 54.1 311.187609 54.160938 311.187609 L 54.160938 311.187609 L 54.41875 311.187609 L 54.41875 311.187609 Q 54.484375 311.187609 54.514844 311.21339 L 54.514844 311.21339 L 54.514844 311.21339 Q 54.545313 311.239171 54.573438 311.309484 L 54.573438 311.309484 L 55.810938 314.243859 L 55.810938 314.243859 Q 55.825 314.276671 55.825 314.304796 L 55.825 314.304796 L 55.825 314.304796 Q 55.825 314.375109 55.745313 314.375109 L 55.745313 314.375109 L 55.3375 314.375109 L 55.3375 314.375109 Q 55.276563 314.375109 55.250781 314.358703 L 55.250781 314.358703 L 55.250781 314.358703 Q 55.225 314.342296 55.201563 314.290734 L 55.201563 314.290734 L 54.934375 313.634484 L 53.640625 313.634484 L 53.378125 314.290734 L 53.378125 314.290734 Q 53.354688 314.342296 53.328906 314.358703 L 53.328906 314.358703 L 53.328906 314.358703 Q 53.303125 314.375109 53.242188 314.375109 L 53.242188 314.375109 L 52.834375 314.375109 L 52.834375 314.375109 Z  M 53.790625 313.198546 L 54.784375 313.198546 L 54.2875 311.970421 L 53.790625 313.198546 L 53.790625 313.198546 Z  M 56.457813 314.375109 L 56.457813 314.375109 Q 56.364063 314.375109 56.324219 314.332921 L 56.324219 314.332921 L 56.324219 314.332921 Q 56.284375 314.290734 56.284375 314.206359 L 56.284375 314.206359 L 56.284375 311.361046 L 56.284375 311.361046 Q 56.284375 311.271984 56.324219 311.229796 L 56.324219 311.229796 L 56.324219 311.229796 Q 56.364063 311.187609 56.457813 311.187609 L 56.457813 311.187609 L 58.407813 311.187609 L 58.407813 311.187609 Q 58.501563 311.187609 58.536719 311.225109 L 58.536719 311.225109 L 58.536719 311.225109 Q 58.571875 311.262609 58.571875 311.351671 L 58.571875 311.351671 L 58.571875 311.478234 L 58.571875 311.478234 Q 58.571875 311.567296 58.536719 311.60714 L 58.536719 311.60714 L 58.536719 311.60714 Q 58.501563 311.646984 58.407813 311.646984 L 58.407813 311.646984 L 56.884375 311.646984 L 56.884375 312.551671 L 57.990625 312.551671 L 57.990625 312.551671 Q 58.084375 312.551671 58.121875 312.589171 L 58.121875 312.589171 L 58.121875 312.589171 Q 58.159375 312.626671 58.159375 312.715734 L 58.159375 312.715734 L 58.159375 312.842296 L 58.159375 312.842296 Q 58.159375 312.931359 58.121875 312.971203 L 58.121875 312.971203 L 58.121875 312.971203 Q 58.084375 313.011046 57.990625 313.011046 L 57.990625 313.011046 L 56.884375 313.011046 L 56.884375 314.206359 L 56.884375 314.206359 Q 56.884375 314.290734 56.844531 314.332921 L 56.844531 314.332921 L 56.844531 314.332921 Q 56.804688 314.375109 56.70625 314.375109 L 56.70625 314.375109 L 56.457813 314.375109 L 56.457813 314.375109 Z  M 59.9125 314.375109 L 59.9125 314.375109 Q 59.81875 314.375109 59.776563 314.332921 L 59.776563 314.332921 L 59.776563 314.332921 Q 59.734375 314.290734 59.734375 314.206359 L 59.734375 314.206359 L 59.734375 311.646984 L 58.914063 311.646984 L 58.914063 311.646984 Q 58.820313 311.646984 58.785156 311.609484 L 58.785156 311.609484 L 58.785156 311.609484 Q 58.75 311.571984 58.75 311.482921 L 58.75 311.482921 L 58.75 311.356359 L 58.75 311.356359 Q 58.75 311.267296 58.785156 311.227453 L 58.785156 311.227453 L 58.785156 311.227453 Q 58.820313 311.187609 58.914063 311.187609 L 58.914063 311.187609 L 61.154688 311.187609 L 61.154688 311.187609 Q 61.248438 311.187609 61.285938 311.227453 L 61.285938 311.227453 L 61.285938 311.227453 Q 61.323438 311.267296 61.323438 311.356359 L 61.323438 311.356359 L 61.323438 311.482921 L 61.323438 311.482921 Q 61.323438 311.571984 61.285938 311.609484 L 61.285938 311.609484 L 61.285938 311.609484 Q 61.248438 311.646984 61.154688 311.646984 L 61.154688 311.646984 L 60.334375 311.646984 L 60.334375 314.206359 L 60.334375 314.206359 Q 60.334375 314.290734 60.294531 314.332921 L 60.294531 314.332921 L 60.294531 314.332921 Q 60.254687 314.375109 60.15625 314.375109 L 60.15625 314.375109 L 59.9125 314.375109 L 59.9125 314.375109 Z " fill-rule="evenodd" fill="rgb(255,255,255)"/><path d=" M 89.778906 172.726563 L 89.778906 172.726563 Q 88.982031 172.726563 88.546094 172.295313 L 88.546094 172.295313 L 88.546094 172.295313 Q 88.110156 171.864063 88.110156 171.0625 L 88.110156 171.0625 L 88.110156 171.0625 Q 88.110156 170.260938 88.539062 169.829688 L 88.539062 169.829688 L 88.539062 169.829688 Q 88.967969 169.398438 89.764844 169.398438 L 89.764844 169.398438 L 89.764844 169.398438 Q 90.083594 169.398438 90.355469 169.464063 L 90.355469 169.464063 L 90.355469 169.464063 Q 90.627344 169.529688 90.814844 169.651563 L 90.814844 169.651563 L 90.814844 169.651563 Q 90.857031 169.679688 90.857031 169.7125 L 90.857031 169.7125 L 90.857031 169.7125 Q 90.857031 169.740625 90.833594 169.778125 L 90.833594 169.778125 L 90.702344 170.003125 L 90.702344 170.003125 Q 90.674219 170.045313 90.650781 170.045313 L 90.650781 170.045313 L 90.650781 170.045313 Q 90.632031 170.045313 90.585156 170.021875 L 90.585156 170.021875 L 90.585156 170.021875 Q 90.289844 169.84375 89.830469 169.84375 L 89.830469 169.84375 L 89.830469 169.84375 Q 89.300781 169.84375 89.000781 170.148438 L 89.000781 170.148438 L 89.000781 170.148438 Q 88.700781 170.453125 88.700781 171.0625 L 88.700781 171.0625 L 88.700781 171.0625 Q 88.700781 171.68125 89.010156 171.983594 L 89.010156 171.983594 L 89.010156 171.983594 Q 89.319531 172.285938 89.844531 172.285938 L 89.844531 172.285938 L 89.844531 172.285938 Q 90.332031 172.285938 90.646094 172.103125 L 90.646094 172.103125 L 90.646094 172.103125 Q 90.692969 172.079688 90.707031 172.079688 L 90.707031 172.079688 L 90.707031 172.079688 Q 90.735156 172.079688 90.763281 172.121875 L 90.763281 172.121875 L 90.908594 172.365625 L 90.908594 172.365625 Q 90.922656 172.39375 90.922656 172.4125 L 90.922656 172.4125 L 90.922656 172.4125 Q 90.922656 172.440625 90.871094 172.473438 L 90.871094 172.473438 L 90.871094 172.473438 Q 90.510156 172.726563 89.778906 172.726563 L 89.778906 172.726563 L 89.778906 172.726563 Z  M 92.671094 172.65625 L 92.671094 172.65625 Q 92.605469 172.65625 92.575 172.632813 L 92.575 172.632813 L 92.575 172.632813 Q 92.544531 172.609375 92.516406 172.539063 L 92.516406 172.539063 L 91.297656 169.6 L 91.297656 169.6 Q 91.283594 169.571875 91.283594 169.54375 L 91.283594 169.54375 L 91.283594 169.54375 Q 91.283594 169.510938 91.304687 169.489844 L 91.304687 169.489844 L 91.304687 169.489844 Q 91.325781 169.46875 91.363281 169.46875 L 91.363281 169.46875 L 91.766406 169.46875 L 91.766406 169.46875 Q 91.827344 169.46875 91.860156 169.492188 L 91.860156 169.492188 L 91.860156 169.492188 Q 91.892969 169.515625 91.911719 169.567188 L 91.911719 169.567188 L 92.797656 171.817188 L 93.683594 169.567188 L 93.683594 169.567188 Q 93.702344 169.515625 93.735156 169.492188 L 93.735156 169.492188 L 93.735156 169.492188 Q 93.767969 169.46875 93.828906 169.46875 L 93.828906 169.46875 L 94.232031 169.46875 L 94.232031 169.46875 Q 94.269531 169.46875 94.290625 169.489844 L 94.290625 169.489844 L 94.290625 169.489844 Q 94.311719 169.510938 94.311719 169.54375 L 94.311719 169.54375 L 94.311719 169.54375 Q 94.311719 169.571875 94.297656 169.6 L 94.297656 169.6 L 93.083594 172.539063 L 93.083594 172.539063 Q 93.055469 172.609375 93.022656 172.632813 L 93.022656 172.632813 L 93.022656 172.632813 Q 92.989844 172.65625 92.924219 172.65625 L 92.924219 172.65625 L 92.671094 172.65625 L 92.671094 172.65625 Z " fill-rule="evenodd" fill="rgb(255,255,255)"/><path d=" M 86.978125 219.992188 L 86.978125 219.992188 Q 86.18125 219.992188 85.745312 219.560938 L 85.745312 219.560938 L 85.745312 219.560938 Q 85.309375 219.129688 85.309375 218.328125 L 85.309375 218.328125 L 85.309375 218.328125 Q 85.309375 217.53125 85.747656 217.097656 L 85.747656 217.097656 L 85.747656 217.097656 Q 86.185937 216.664063 86.978125 216.664063 L 86.978125 216.664063 L 86.978125 216.664063 Q 87.296875 216.664063 87.573437 216.729688 L 87.573437 216.729688 L 87.573437 216.729688 Q 87.85 216.795313 88.032812 216.917188 L 88.032812 216.917188 L 88.032812 216.917188 Q 88.075 216.945313 88.075 216.978125 L 88.075 216.978125 L 88.075 216.978125 Q 88.075 217.001563 88.05625 217.034375 L 88.05625 217.034375 L 87.920312 217.26875 L 87.920312 217.26875 Q 87.892187 217.310938 87.864062 217.310938 L 87.864062 217.310938 L 87.864062 217.310938 Q 87.85 217.310938 87.803125 217.2875 L 87.803125 217.2875 L 87.803125 217.2875 Q 87.484375 217.109375 87.04375 217.109375 L 87.04375 217.109375 L 87.04375 217.109375 Q 86.509375 217.109375 86.204687 217.411719 L 86.204687 217.411719 L 86.204687 217.411719 Q 85.9 217.714063 85.9 218.328125 L 85.9 218.328125 L 85.9 218.328125 Q 85.9 218.946875 86.195312 219.246875 L 86.195312 219.246875 L 86.195312 219.246875 Q 86.490625 219.546875 87.00625 219.546875 L 87.00625 219.546875 L 87.00625 219.546875 Q 87.19375 219.546875 87.371875 219.516406 L 87.371875 219.516406 L 87.371875 219.516406 Q 87.55 219.485938 87.6625 219.429688 L 87.6625 219.429688 L 87.6625 218.5625 L 87.04375 218.5625 L 87.04375 218.5625 Q 86.95 218.5625 86.9125 218.522656 L 86.9125 218.522656 L 86.9125 218.522656 Q 86.875 218.482813 86.875 218.39375 L 86.875 218.39375 L 86.875 218.271875 L 86.875 218.271875 Q 86.875 218.182813 86.9125 218.147656 L 86.9125 218.147656 L 86.9125 218.147656 Q 86.95 218.1125 87.04375 218.1125 L 87.04375 218.1125 L 88.032812 218.1125 L 88.032812 218.1125 Q 88.135937 218.1125 88.180469 218.161719 L 88.180469 218.161719 L 88.180469 218.161719 Q 88.225 218.210938 88.225 218.314063 L 88.225 218.314063 L 88.225 219.551563 L 88.225 219.551563 Q 88.225 219.621875 88.210937 219.657031 L 88.210937 219.657031 L 88.210937 219.657031 Q 88.196875 219.692188 88.15 219.720313 L 88.15 219.720313 L 88.15 219.720313 Q 87.71875 219.992188 86.978125 219.992188 L 86.978125 219.992188 L 86.978125 219.992188 Z  M 88.670312 219.921875 L 88.670312 219.921875 Q 88.590625 219.921875 88.590625 219.851563 L 88.590625 219.851563 L 88.590625 219.851563 Q 88.590625 219.823438 88.604687 219.790625 L 88.604687 219.790625 L 89.842187 216.85625 L 89.842187 216.85625 Q 89.870312 216.785938 89.903125 216.760156 L 89.903125 216.760156 L 89.903125 216.760156 Q 89.935937 216.734375 89.996875 216.734375 L 89.996875 216.734375 L 90.254687 216.734375 L 90.254687 216.734375 Q 90.320312 216.734375 90.350781 216.760156 L 90.350781 216.760156 L 90.350781 216.760156 Q 90.38125 216.785938 90.409375 216.85625 L 90.409375 216.85625 L 91.646875 219.790625 L 91.646875 219.790625 Q 91.660937 219.823438 91.660937 219.851563 L 91.660937 219.851563 L 91.660937 219.851563 Q 91.660937 219.921875 91.58125 219.921875 L 91.58125 219.921875 L 91.173437 219.921875 L 91.173437 219.921875 Q 91.1125 219.921875 91.086719 219.905469 L 91.086719 219.905469 L 91.086719 219.905469 Q 91.060937 219.889063 91.0375 219.8375 L 91.0375 219.8375 L 90.770312 219.18125 L 89.476562 219.18125 L 89.214062 219.8375 L 89.214062 219.8375 Q 89.190625 219.889063 89.164844 219.905469 L 89.164844 219.905469 L 89.164844 219.905469 Q 89.139062 219.921875 89.078125 219.921875 L 89.078125 219.921875 L 88.670312 219.921875 L 88.670312 219.921875 Z  M 89.626562 218.745313 L 90.620312 218.745313 L 90.123437 217.517188 L 89.626562 218.745313 L 89.626562 218.745313 Z  M 93.095312 219.921875 L 93.095312 219.921875 Q 93.001562 219.921875 92.959375 219.879688 L 92.959375 219.879688 L 92.959375 219.879688 Q 92.917187 219.8375 92.917187 219.753125 L 92.917187 219.753125 L 92.917187 217.19375 L 92.096875 217.19375 L 92.096875 217.19375 Q 92.003125 217.19375 91.967969 217.15625 L 91.967969 217.15625 L 91.967969 217.15625 Q 91.932812 217.11875 91.932812 217.029688 L 91.932812 217.029688 L 91.932812 216.903125 L 91.932812 216.903125 Q 91.932812 216.814063 91.967969 216.774219 L 91.967969 216.774219 L 91.967969 216.774219 Q 92.003125 216.734375 92.096875 216.734375 L 92.096875 216.734375 L 94.3375 216.734375 L 94.3375 216.734375 Q 94.43125 216.734375 94.46875 216.774219 L 94.46875 216.774219 L 94.46875 216.774219 Q 94.50625 216.814063 94.50625 216.903125 L 94.50625 216.903125 L 94.50625 217.029688 L 94.50625 217.029688 Q 94.50625 217.11875 94.46875 217.15625 L 94.46875 217.15625 L 94.46875 217.15625 Q 94.43125 217.19375 94.3375 217.19375 L 94.3375 217.19375 L 93.517187 217.19375 L 93.517187 219.753125 L 93.517187 219.753125 Q 93.517187 219.8375 93.477344 219.879688 L 93.477344 219.879688 L 93.477344 219.879688 Q 93.4375 219.921875 93.339062 219.921875 L 93.339062 219.921875 L 93.095312 219.921875 L 93.095312 219.921875 Z  M 95.045312 219.921875 L 95.045312 219.921875 Q 94.951562 219.921875 94.911719 219.879688 L 94.911719 219.879688 L 94.911719 219.879688 Q 94.871875 219.8375 94.871875 219.753125 L 94.871875 219.753125 L 94.871875 216.907813 L 94.871875 216.907813 Q 94.871875 216.81875 94.911719 216.776563 L 94.911719 216.776563 L 94.911719 216.776563 Q 94.951562 216.734375 95.045312 216.734375 L 95.045312 216.734375 L 96.995312 216.734375 L 96.995312 216.734375 Q 97.089062 216.734375 97.124219 216.771875 L 97.124219 216.771875 L 97.124219 216.771875 Q 97.159375 216.809375 97.159375 216.898438 L 97.159375 216.898438 L 97.159375 217.025 L 97.159375 217.025 Q 97.159375 217.114063 97.124219 217.153906 L 97.124219 217.153906 L 97.124219 217.153906 Q 97.089062 217.19375 96.995312 217.19375 L 96.995312 217.19375 L 95.471875 217.19375 L 95.471875 218.103125 L 96.578125 218.103125 L 96.578125 218.103125 Q 96.671875 218.103125 96.709375 218.140625 L 96.709375 218.140625 L 96.709375 218.140625 Q 96.746875 218.178125 96.746875 218.267188 L 96.746875 218.267188 L 96.746875 218.384375 L 96.746875 218.384375 Q 96.746875 218.473438 96.709375 218.513281 L 96.709375 218.513281 L 96.709375 218.513281 Q 96.671875 218.553125 96.578125 218.553125 L 96.578125 218.553125 L 95.471875 218.553125 L 95.471875 219.467188 L 96.990625 219.467188 L 96.990625 219.467188 Q 97.084375 219.467188 97.121875 219.507031 L 97.121875 219.507031 L 97.121875 219.507031 Q 97.159375 219.546875 97.159375 219.635938 L 97.159375 219.635938 L 97.159375 219.7625 L 97.159375 219.7625 Q 97.159375 219.846875 97.121875 219.884375 L 97.121875 219.884375 L 97.121875 219.884375 Q 97.084375 219.921875 96.990625 219.921875 L 96.990625 219.921875 L 95.045312 219.921875 L 95.045312 219.921875 Z " fill-rule="evenodd" fill="rgb(255,255,255)"/><path d=" M 88.45 267.1875 L 88.45 267.1875 Q 88.384375 267.1875 88.353906 267.164063 L 88.353906 267.164063 L 88.353906 267.164063 Q 88.323437 267.140625 88.295312 267.070313 L 88.295312 267.070313 L 87.076562 264.13125 L 87.076562 264.13125 Q 87.0625 264.103125 87.0625 264.075 L 87.0625 264.075 L 87.0625 264.075 Q 87.0625 264.042188 87.083594 264.021094 L 87.083594 264.021094 L 87.083594 264.021094 Q 87.104687 264 87.142187 264 L 87.142187 264 L 87.545312 264 L 87.545312 264 Q 87.60625 264 87.639062 264.023438 L 87.639062 264.023438 L 87.639062 264.023438 Q 87.671875 264.046875 87.690625 264.098438 L 87.690625 264.098438 L 88.576562 266.348438 L 89.4625 264.098438 L 89.4625 264.098438 Q 89.48125 264.046875 89.514062 264.023438 L 89.514062 264.023438 L 89.514062 264.023438 Q 89.546875 264 89.607812 264 L 89.607812 264 L 90.010937 264 L 90.010937 264 Q 90.048437 264 90.069531 264.021094 L 90.069531 264.021094 L 90.069531 264.021094 Q 90.090625 264.042188 90.090625 264.075 L 90.090625 264.075 L 90.090625 264.075 Q 90.090625 264.103125 90.076562 264.13125 L 90.076562 264.13125 L 88.8625 267.070313 L 88.8625 267.070313 Q 88.834375 267.140625 88.801562 267.164063 L 88.801562 267.164063 L 88.801562 267.164063 Q 88.76875 267.1875 88.703125 267.1875 L 88.703125 267.1875 L 88.45 267.1875 L 88.45 267.1875 Z  M 90.723437 267.1875 L 90.723437 267.1875 Q 90.629687 267.1875 90.589844 267.145313 L 90.589844 267.145313 L 90.589844 267.145313 Q 90.55 267.103125 90.55 267.01875 L 90.55 267.01875 L 90.55 264.173437 L 90.55 264.173437 Q 90.55 264.084375 90.589844 264.042188 L 90.589844 264.042188 L 90.589844 264.042188 Q 90.629687 264 90.723437 264 L 90.723437 264 L 92.673437 264 L 92.673437 264 Q 92.767187 264 92.802344 264.0375 L 92.802344 264.0375 L 92.802344 264.0375 Q 92.8375 264.075 92.8375 264.164063 L 92.8375 264.164063 L 92.8375 264.290625 L 92.8375 264.290625 Q 92.8375 264.379688 92.802344 264.419531 L 92.802344 264.419531 L 92.802344 264.419531 Q 92.767187 264.459375 92.673437 264.459375 L 92.673437 264.459375 L 91.15 264.459375 L 91.15 265.36875 L 92.25625 265.36875 L 92.25625 265.36875 Q 92.35 265.36875 92.3875 265.40625 L 92.3875 265.40625 L 92.3875 265.40625 Q 92.425 265.44375 92.425 265.532812 L 92.425 265.532812 L 92.425 265.65 L 92.425 265.65 Q 92.425 265.739063 92.3875 265.778906 L 92.3875 265.778906 L 92.3875 265.778906 Q 92.35 265.81875 92.25625 265.81875 L 92.25625 265.81875 L 91.15 265.81875 L 91.15 266.732813 L 92.66875 266.732813 L 92.66875 266.732813 Q 92.7625 266.732813 92.8 266.772656 L 92.8 266.772656 L 92.8 266.772656 Q 92.8375 266.8125 92.8375 266.901563 L 92.8375 266.901563 L 92.8375 267.028125 L 92.8375 267.028125 Q 92.8375 267.1125 92.8 267.15 L 92.8 267.15 L 92.8 267.15 Q 92.7625 267.1875 92.66875 267.1875 L 92.66875 267.1875 L 90.723437 267.1875 L 90.723437 267.1875 Z  M 93.423437 267.1875 L 93.423437 267.1875 Q 93.329687 267.1875 93.289844 267.145313 L 93.289844 267.145313 L 93.289844 267.145313 Q 93.25 267.103125 93.25 267.01875 L 93.25 267.01875 L 93.25 264.173437 L 93.25 264.173437 Q 93.25 264.084375 93.289844 264.042188 L 93.289844 264.042188 L 93.289844 264.042188 Q 93.329687 264 93.423437 264 L 93.423437 264 L 93.671875 264 L 93.671875 264 Q 93.765625 264 93.807812 264.042188 L 93.807812 264.042188 L 93.807812 264.042188 Q 93.85 264.084375 93.85 264.173437 L 93.85 264.173437 L 93.85 266.732813 L 95.284375 266.732813 L 95.284375 266.732813 Q 95.378125 266.732813 95.415625 266.772656 L 95.415625 266.772656 L 95.415625 266.772656 Q 95.453125 266.8125 95.453125 266.901563 L 95.453125 266.901563 L 95.453125 267.028125 L 95.453125 267.028125 Q 95.453125 267.1125 95.415625 267.15 L 95.415625 267.15 L 95.415625 267.15 Q 95.378125 267.1875 95.284375 267.1875 L 95.284375 267.1875 L 93.423437 267.1875 L 93.423437 267.1875 Z " fill-rule="evenodd" fill="rgb(255,255,255)"/><path d=" M 87.053125 314.375109 L 87.053125 314.375109 Q 86.973437 314.375109 86.973437 314.304796 L 86.973437 314.304796 L 86.973437 314.304796 Q 86.973437 314.276671 86.9875 314.243859 L 86.9875 314.243859 L 88.225 311.309484 L 88.225 311.309484 Q 88.253125 311.239171 88.285937 311.21339 L 88.285937 311.21339 L 88.285937 311.21339 Q 88.31875 311.187609 88.379687 311.187609 L 88.379687 311.187609 L 88.6375 311.187609 L 88.6375 311.187609 Q 88.703125 311.187609 88.733594 311.21339 L 88.733594 311.21339 L 88.733594 311.21339 Q 88.764062 311.239171 88.792187 311.309484 L 88.792187 311.309484 L 90.029687 314.243859 L 90.029687 314.243859 Q 90.04375 314.276671 90.04375 314.304796 L 90.04375 314.304796 L 90.04375 314.304796 Q 90.04375 314.375109 89.964062 314.375109 L 89.964062 314.375109 L 89.55625 314.375109 L 89.55625 314.375109 Q 89.495312 314.375109 89.469531 314.358703 L 89.469531 314.358703 L 89.469531 314.358703 Q 89.44375 314.342296 89.420312 314.290734 L 89.420312 314.290734 L 89.153125 313.634484 L 87.859375 313.634484 L 87.596875 314.290734 L 87.596875 314.290734 Q 87.573437 314.342296 87.547656 314.358703 L 87.547656 314.358703 L 87.547656 314.358703 Q 87.521875 314.375109 87.460937 314.375109 L 87.460937 314.375109 L 87.053125 314.375109 L 87.053125 314.375109 Z  M 88.009375 313.198546 L 89.003125 313.198546 L 88.50625 311.970421 L 88.009375 313.198546 L 88.009375 313.198546 Z  M 90.676562 314.375109 L 90.676562 314.375109 Q 90.582812 314.375109 90.542969 314.332921 L 90.542969 314.332921 L 90.542969 314.332921 Q 90.503125 314.290734 90.503125 314.206359 L 90.503125 314.206359 L 90.503125 311.361046 L 90.503125 311.361046 Q 90.503125 311.271984 90.542969 311.229796 L 90.542969 311.229796 L 90.542969 311.229796 Q 90.582812 311.187609 90.676562 311.187609 L 90.676562 311.187609 L 92.626562 311.187609 L 92.626562 311.187609 Q 92.720312 311.187609 92.755469 311.225109 L 92.755469 311.225109 L 92.755469 311.225109 Q 92.790625 311.262609 92.790625 311.351671 L 92.790625 311.351671 L 92.790625 311.478234 L 92.790625 311.478234 Q 92.790625 311.567296 92.755469 311.60714 L 92.755469 311.60714 L 92.755469 311.60714 Q 92.720312 311.646984 92.626562 311.646984 L 92.626562 311.646984 L 91.103125 311.646984 L 91.103125 312.551671 L 92.209375 312.551671 L 92.209375 312.551671 Q 92.303125 312.551671 92.340625 312.589171 L 92.340625 312.589171 L 92.340625 312.589171 Q 92.378125 312.626671 92.378125 312.715734 L 92.378125 312.715734 L 92.378125 312.842296 L 92.378125 312.842296 Q 92.378125 312.931359 92.340625 312.971203 L 92.340625 312.971203 L 92.340625 312.971203 Q 92.303125 313.011046 92.209375 313.011046 L 92.209375 313.011046 L 91.103125 313.011046 L 91.103125 314.206359 L 91.103125 314.206359 Q 91.103125 314.290734 91.063281 314.332921 L 91.063281 314.332921 L 91.063281 314.332921 Q 91.023437 314.375109 90.925 314.375109 L 90.925 314.375109 L 90.676562 314.375109 L 90.676562 314.375109 Z  M 94.13125 314.375109 L 94.13125 314.375109 Q 94.0375 314.375109 93.995312 314.332921 L 93.995312 314.332921 L 93.995312 314.332921 Q 93.953125 314.290734 93.953125 314.206359 L 93.953125 314.206359 L 93.953125 311.646984 L 93.132812 311.646984 L 93.132812 311.646984 Q 93.039062 311.646984 93.003906 311.609484 L 93.003906 311.609484 L 93.003906 311.609484 Q 92.96875 311.571984 92.96875 311.482921 L 92.96875 311.482921 L 92.96875 311.356359 L 92.96875 311.356359 Q 92.96875 311.267296 93.003906 311.227453 L 93.003906 311.227453 L 93.003906 311.227453 Q 93.039062 311.187609 93.132812 311.187609 L 93.132812 311.187609 L 95.373437 311.187609 L 95.373437 311.187609 Q 95.467187 311.187609 95.504687 311.227453 L 95.504687 311.227453 L 95.504687 311.227453 Q 95.542187 311.267296 95.542187 311.356359 L 95.542187 311.356359 L 95.542187 311.482921 L 95.542187 311.482921 Q 95.542187 311.571984 95.504687 311.609484 L 95.504687 311.609484 L 95.504687 311.609484 Q 95.467187 311.646984 95.373437 311.646984 L 95.373437 311.646984 L 94.553125 311.646984 L 94.553125 314.206359 L 94.553125 314.206359 Q 94.553125 314.290734 94.513281 314.332921 L 94.513281 314.332921 L 94.513281 314.332921 Q 94.473437 314.375109 94.375 314.375109 L 94.375 314.375109 L 94.13125 314.375109 L 94.13125 314.375109 Z " fill-rule="evenodd" fill="rgb(255,255,255)"/><path d=" M 123.997656 172.726563 L 123.997656 172.726563 Q 123.200781 172.726563 122.764844 172.295313 L 122.764844 172.295313 L 122.764844 172.295313 Q 122.328906 171.864063 122.328906 171.0625 L 122.328906 171.0625 L 122.328906 171.0625 Q 122.328906 170.260938 122.757813 169.829688 L 122.757813 169.829688 L 122.757813 169.829688 Q 123.186719 169.398438 123.983594 169.398438 L 123.983594 169.398438 L 123.983594 169.398438 Q 124.302344 169.398438 124.574219 169.464063 L 124.574219 169.464063 L 124.574219 169.464063 Q 124.846094 169.529688 125.033594 169.651563 L 125.033594 169.651563 L 125.033594 169.651563 Q 125.075781 169.679688 125.075781 169.7125 L 125.075781 169.7125 L 125.075781 169.7125 Q 125.075781 169.740625 125.052344 169.778125 L 125.052344 169.778125 L 124.921094 170.003125 L 124.921094 170.003125 Q 124.892969 170.045313 124.869531 170.045313 L 124.869531 170.045313 L 124.869531 170.045313 Q 124.850781 170.045313 124.803906 170.021875 L 124.803906 170.021875 L 124.803906 170.021875 Q 124.508594 169.84375 124.049219 169.84375 L 124.049219 169.84375 L 124.049219 169.84375 Q 123.519531 169.84375 123.219531 170.148438 L 123.219531 170.148438 L 123.219531 170.148438 Q 122.919531 170.453125 122.919531 171.0625 L 122.919531 171.0625 L 122.919531 171.0625 Q 122.919531 171.68125 123.228906 171.983594 L 123.228906 171.983594 L 123.228906 171.983594 Q 123.538281 172.285938 124.063281 172.285938 L 124.063281 172.285938 L 124.063281 172.285938 Q 124.550781 172.285938 124.864844 172.103125 L 124.864844 172.103125 L 124.864844 172.103125 Q 124.911719 172.079688 124.925781 172.079688 L 124.925781 172.079688 L 124.925781 172.079688 Q 124.953906 172.079688 124.982031 172.121875 L 124.982031 172.121875 L 125.127344 172.365625 L 125.127344 172.365625 Q 125.141406 172.39375 125.141406 172.4125 L 125.141406 172.4125 L 125.141406 172.4125 Q 125.141406 172.440625 125.089844 172.473438 L 125.089844 172.473438 L 125.089844 172.473438 Q 124.728906 172.726563 123.997656 172.726563 L 123.997656 172.726563 L 123.997656 172.726563 Z  M 126.889844 172.65625 L 126.889844 172.65625 Q 126.824219 172.65625 126.79375 172.632813 L 126.79375 172.632813 L 126.79375 172.632813 Q 126.763281 172.609375 126.735156 172.539063 L 126.735156 172.539063 L 125.516406 169.6 L 125.516406 169.6 Q 125.502344 169.571875 125.502344 169.54375 L 125.502344 169.54375 L 125.502344 169.54375 Q 125.502344 169.510938 125.523438 169.489844 L 125.523438 169.489844 L 125.523438 169.489844 Q 125.544531 169.46875 125.582031 169.46875 L 125.582031 169.46875 L 125.985156 169.46875 L 125.985156 169.46875 Q 126.046094 169.46875 126.078906 169.492188 L 126.078906 169.492188 L 126.078906 169.492188 Q 126.111719 169.515625 126.130469 169.567188 L 126.130469 169.567188 L 127.016406 171.817188 L 127.902344 169.567188 L 127.902344 169.567188 Q 127.921094 169.515625 127.953906 169.492188 L 127.953906 169.492188 L 127.953906 169.492188 Q 127.986719 169.46875 128.047656 169.46875 L 128.047656 169.46875 L 128.450781 169.46875 L 128.450781 169.46875 Q 128.488281 169.46875 128.509375 169.489844 L 128.509375 169.489844 L 128.509375 169.489844 Q 128.530469 169.510938 128.530469 169.54375 L 128.530469 169.54375 L 128.530469 169.54375 Q 128.530469 169.571875 128.516406 169.6 L 128.516406 169.6 L 127.302344 172.539063 L 127.302344 172.539063 Q 127.274219 172.609375 127.241406 172.632813 L 127.241406 172.632813 L 127.241406 172.632813 Q 127.208594 172.65625 127.142969 172.65625 L 127.142969 172.65625 L 126.889844 172.65625 L 126.889844 172.65625 Z " fill-rule="evenodd" fill="rgb(255,255,255)"/><path d=" M 121.196875 219.992188 L 121.196875 219.992188 Q 120.4 219.992188 119.964063 219.560938 L 119.964063 219.560938 L 119.964063 219.560938 Q 119.528125 219.129688 119.528125 218.328125 L 119.528125 218.328125 L 119.528125 218.328125 Q 119.528125 217.53125 119.966406 217.097656 L 119.966406 217.097656 L 119.966406 217.097656 Q 120.404688 216.664063 121.196875 216.664063 L 121.196875 216.664063 L 121.196875 216.664063 Q 121.515625 216.664063 121.792188 216.729688 L 121.792188 216.729688 L 121.792188 216.729688 Q 122.06875 216.795313 122.251563 216.917188 L 122.251563 216.917188 L 122.251563 216.917188 Q 122.29375 216.945313 122.29375 216.978125 L 122.29375 216.978125 L 122.29375 216.978125 Q 122.29375 217.001563 122.275 217.034375 L 122.275 217.034375 L 122.139063 217.26875 L 122.139063 217.26875 Q 122.110938 217.310938 122.082813 217.310938 L 122.082813 217.310938 L 122.082813 217.310938 Q 122.06875 217.310938 122.021875 217.2875 L 122.021875 217.2875 L 122.021875 217.2875 Q 121.703125 217.109375 121.2625 217.109375 L 121.2625 217.109375 L 121.2625 217.109375 Q 120.728125 217.109375 120.423438 217.411719 L 120.423438 217.411719 L 120.423438 217.411719 Q 120.11875 217.714063 120.11875 218.328125 L 120.11875 218.328125 L 120.11875 218.328125 Q 120.11875 218.946875 120.414063 219.246875 L 120.414063 219.246875 L 120.414063 219.246875 Q 120.709375 219.546875 121.225 219.546875 L 121.225 219.546875 L 121.225 219.546875 Q 121.4125 219.546875 121.590625 219.516406 L 121.590625 219.516406 L 121.590625 219.516406 Q 121.76875 219.485938 121.88125 219.429688 L 121.88125 219.429688 L 121.88125 218.5625 L 121.2625 218.5625 L 121.2625 218.5625 Q 121.16875 218.5625 121.13125 218.522656 L 121.13125 218.522656 L 121.13125 218.522656 Q 121.09375 218.482813 121.09375 218.39375 L 121.09375 218.39375 L 121.09375 218.271875 L 121.09375 218.271875 Q 121.09375 218.182813 121.13125 218.147656 L 121.13125 218.147656 L 121.13125 218.147656 Q 121.16875 218.1125 121.2625 218.1125 L 121.2625 218.1125 L 122.251563 218.1125 L 122.251563 218.1125 Q 122.354688 218.1125 122.399219 218.161719 L 122.399219 218.161719 L 122.399219 218.161719 Q 122.44375 218.210938 122.44375 218.314063 L 122.44375 218.314063 L 122.44375 219.551563 L 122.44375 219.551563 Q 122.44375 219.621875 122.429688 219.657031 L 122.429688 219.657031 L 122.429688 219.657031 Q 122.415625 219.692188 122.36875 219.720313 L 122.36875 219.720313 L 122.36875 219.720313 Q 121.9375 219.992188 121.196875 219.992188 L 121.196875 219.992188 L 121.196875 219.992188 Z  M 122.889063 219.921875 L 122.889063 219.921875 Q 122.809375 219.921875 122.809375 219.851563 L 122.809375 219.851563 L 122.809375 219.851563 Q 122.809375 219.823438 122.823438 219.790625 L 122.823438 219.790625 L 124.060938 216.85625 L 124.060938 216.85625 Q 124.089063 216.785938 124.121875 216.760156 L 124.121875 216.760156 L 124.121875 216.760156 Q 124.154688 216.734375 124.215625 216.734375 L 124.215625 216.734375 L 124.473438 216.734375 L 124.473438 216.734375 Q 124.539063 216.734375 124.569531 216.760156 L 124.569531 216.760156 L 124.569531 216.760156 Q 124.6 216.785938 124.628125 216.85625 L 124.628125 216.85625 L 125.865625 219.790625 L 125.865625 219.790625 Q 125.879688 219.823438 125.879688 219.851563 L 125.879688 219.851563 L 125.879688 219.851563 Q 125.879688 219.921875 125.8 219.921875 L 125.8 219.921875 L 125.392188 219.921875 L 125.392188 219.921875 Q 125.33125 219.921875 125.305469 219.905469 L 125.305469 219.905469 L 125.305469 219.905469 Q 125.279688 219.889063 125.25625 219.8375 L 125.25625 219.8375 L 124.989063 219.18125 L 123.695313 219.18125 L 123.432813 219.8375 L 123.432813 219.8375 Q 123.409375 219.889063 123.383594 219.905469 L 123.383594 219.905469 L 123.383594 219.905469 Q 123.357813 219.921875 123.296875 219.921875 L 123.296875 219.921875 L 122.889063 219.921875 L 122.889063 219.921875 Z  M 123.845313 218.745313 L 124.839063 218.745313 L 124.342188 217.517188 L 123.845313 218.745313 L 123.845313 218.745313 Z  M 127.314063 219.921875 L 127.314063 219.921875 Q 127.220313 219.921875 127.178125 219.879688 L 127.178125 219.879688 L 127.178125 219.879688 Q 127.135938 219.8375 127.135938 219.753125 L 127.135938 219.753125 L 127.135938 217.19375 L 126.315625 217.19375 L 126.315625 217.19375 Q 126.221875 217.19375 126.186719 217.15625 L 126.186719 217.15625 L 126.186719 217.15625 Q 126.151563 217.11875 126.151563 217.029688 L 126.151563 217.029688 L 126.151563 216.903125 L 126.151563 216.903125 Q 126.151563 216.814063 126.186719 216.774219 L 126.186719 216.774219 L 126.186719 216.774219 Q 126.221875 216.734375 126.315625 216.734375 L 126.315625 216.734375 L 128.55625 216.734375 L 128.55625 216.734375 Q 128.65 216.734375 128.6875 216.774219 L 128.6875 216.774219 L 128.6875 216.774219 Q 128.725 216.814063 128.725 216.903125 L 128.725 216.903125 L 128.725 217.029688 L 128.725 217.029688 Q 128.725 217.11875 128.6875 217.15625 L 128.6875 217.15625 L 128.6875 217.15625 Q 128.65 217.19375 128.55625 217.19375 L 128.55625 217.19375 L 127.735938 217.19375 L 127.735938 219.753125 L 127.735938 219.753125 Q 127.735938 219.8375 127.696094 219.879688 L 127.696094 219.879688 L 127.696094 219.879688 Q 127.65625 219.921875 127.557813 219.921875 L 127.557813 219.921875 L 127.314063 219.921875 L 127.314063 219.921875 Z  M 129.264063 219.921875 L 129.264063 219.921875 Q 129.170313 219.921875 129.130469 219.879688 L 129.130469 219.879688 L 129.130469 219.879688 Q 129.090625 219.8375 129.090625 219.753125 L 129.090625 219.753125 L 129.090625 216.907813 L 129.090625 216.907813 Q 129.090625 216.81875 129.130469 216.776563 L 129.130469 216.776563 L 129.130469 216.776563 Q 129.170313 216.734375 129.264063 216.734375 L 129.264063 216.734375 L 131.214063 216.734375 L 131.214063 216.734375 Q 131.307813 216.734375 131.342969 216.771875 L 131.342969 216.771875 L 131.342969 216.771875 Q 131.378125 216.809375 131.378125 216.898438 L 131.378125 216.898438 L 131.378125 217.025 L 131.378125 217.025 Q 131.378125 217.114063 131.342969 217.153906 L 131.342969 217.153906 L 131.342969 217.153906 Q 131.307813 217.19375 131.214063 217.19375 L 131.214063 217.19375 L 129.690625 217.19375 L 129.690625 218.103125 L 130.796875 218.103125 L 130.796875 218.103125 Q 130.890625 218.103125 130.928125 218.140625 L 130.928125 218.140625 L 130.928125 218.140625 Q 130.965625 218.178125 130.965625 218.267188 L 130.965625 218.267188 L 130.965625 218.384375 L 130.965625 218.384375 Q 130.965625 218.473438 130.928125 218.513281 L 130.928125 218.513281 L 130.928125 218.513281 Q 130.890625 218.553125 130.796875 218.553125 L 130.796875 218.553125 L 129.690625 218.553125 L 129.690625 219.467188 L 131.209375 219.467188 L 131.209375 219.467188 Q 131.303125 219.467188 131.340625 219.507031 L 131.340625 219.507031 L 131.340625 219.507031 Q 131.378125 219.546875 131.378125 219.635938 L 131.378125 219.635938 L 131.378125 219.7625 L 131.378125 219.7625 Q 131.378125 219.846875 131.340625 219.884375 L 131.340625 219.884375 L 131.340625 219.884375 Q 131.303125 219.921875 131.209375 219.921875 L 131.209375 219.921875 L 129.264063 219.921875 L 129.264063 219.921875 Z " fill-rule="evenodd" fill="rgb(255,255,255)"/><path d=" M 122.66875 267.1875 L 122.66875 267.1875 Q 122.603125 267.1875 122.572656 267.164063 L 122.572656 267.164063 L 122.572656 267.164063 Q 122.542188 267.140625 122.514063 267.070313 L 122.514063 267.070313 L 121.295313 264.13125 L 121.295313 264.13125 Q 121.28125 264.103125 121.28125 264.075 L 121.28125 264.075 L 121.28125 264.075 Q 121.28125 264.042188 121.302344 264.021094 L 121.302344 264.021094 L 121.302344 264.021094 Q 121.323438 264 121.360938 264 L 121.360938 264 L 121.764063 264 L 121.764063 264 Q 121.825 264 121.857813 264.023438 L 121.857813 264.023438 L 121.857813 264.023438 Q 121.890625 264.046875 121.909375 264.098438 L 121.909375 264.098438 L 122.795313 266.348438 L 123.68125 264.098438 L 123.68125 264.098438 Q 123.7 264.046875 123.732813 264.023438 L 123.732813 264.023438 L 123.732813 264.023438 Q 123.765625 264 123.826563 264 L 123.826563 264 L 124.229688 264 L 124.229688 264 Q 124.267188 264 124.288281 264.021094 L 124.288281 264.021094 L 124.288281 264.021094 Q 124.309375 264.042188 124.309375 264.075 L 124.309375 264.075 L 124.309375 264.075 Q 124.309375 264.103125 124.295313 264.13125 L 124.295313 264.13125 L 123.08125 267.070313 L 123.08125 267.070313 Q 123.053125 267.140625 123.020313 267.164063 L 123.020313 267.164063 L 123.020313 267.164063 Q 122.9875 267.1875 122.921875 267.1875 L 122.921875 267.1875 L 122.66875 267.1875 L 122.66875 267.1875 Z  M 124.942188 267.1875 L 124.942188 267.1875 Q 124.848438 267.1875 124.808594 267.145313 L 124.808594 267.145313 L 124.808594 267.145313 Q 124.76875 267.103125 124.76875 267.01875 L 124.76875 267.01875 L 124.76875 264.173437 L 124.76875 264.173437 Q 124.76875 264.084375 124.808594 264.042188 L 124.808594 264.042188 L 124.808594 264.042188 Q 124.848438 264 124.942188 264 L 124.942188 264 L 126.892188 264 L 126.892188 264 Q 126.985938 264 127.021094 264.0375 L 127.021094 264.0375 L 127.021094 264.0375 Q 127.05625 264.075 127.05625 264.164063 L 127.05625 264.164063 L 127.05625 264.290625 L 127.05625 264.290625 Q 127.05625 264.379688 127.021094 264.419531 L 127.021094 264.419531 L 127.021094 264.419531 Q 126.985938 264.459375 126.892188 264.459375 L 126.892188 264.459375 L 125.36875 264.459375 L 125.36875 265.36875 L 126.475 265.36875 L 126.475 265.36875 Q 126.56875 265.36875 126.60625 265.40625 L 126.60625 265.40625 L 126.60625 265.40625 Q 126.64375 265.44375 126.64375 265.532812 L 126.64375 265.532812 L 126.64375 265.65 L 126.64375 265.65 Q 126.64375 265.739063 126.60625 265.778906 L 126.60625 265.778906 L 126.60625 265.778906 Q 126.56875 265.81875 126.475 265.81875 L 126.475 265.81875 L 125.36875 265.81875 L 125.36875 266.732813 L 126.8875 266.732813 L 126.8875 266.732813 Q 126.98125 266.732813 127.01875 266.772656 L 127.01875 266.772656 L 127.01875 266.772656 Q 127.05625 266.8125 127.05625 266.901563 L 127.05625 266.901563 L 127.05625 267.028125 L 127.05625 267.028125 Q 127.05625 267.1125 127.01875 267.15 L 127.01875 267.15 L 127.01875 267.15 Q 126.98125 267.1875 126.8875 267.1875 L 126.8875 267.1875 L 124.942188 267.1875 L 124.942188 267.1875 Z  M 127.642188 267.1875 L 127.642188 267.1875 Q 127.548438 267.1875 127.508594 267.145313 L 127.508594 267.145313 L 127.508594 267.145313 Q 127.46875 267.103125 127.46875 267.01875 L 127.46875 267.01875 L 127.46875 264.173437 L 127.46875 264.173437 Q 127.46875 264.084375 127.508594 264.042188 L 127.508594 264.042188 L 127.508594 264.042188 Q 127.548438 264 127.642188 264 L 127.642188 264 L 127.890625 264 L 127.890625 264 Q 127.984375 264 128.026563 264.042188 L 128.026563 264.042188 L 128.026563 264.042188 Q 128.06875 264.084375 128.06875 264.173437 L 128.06875 264.173437 L 128.06875 266.732813 L 129.503125 266.732813 L 129.503125 266.732813 Q 129.596875 266.732813 129.634375 266.772656 L 129.634375 266.772656 L 129.634375 266.772656 Q 129.671875 266.8125 129.671875 266.901563 L 129.671875 266.901563 L 129.671875 267.028125 L 129.671875 267.028125 Q 129.671875 267.1125 129.634375 267.15 L 129.634375 267.15 L 129.634375 267.15 Q 129.596875 267.1875 129.503125 267.1875 L 129.503125 267.1875 L 127.642188 267.1875 L 127.642188 267.1875 Z " fill-rule="evenodd" fill="rgb(255,255,255)"/><path d=" M 121.271875 314.375109 L 121.271875 314.375109 Q 121.192188 314.375109 121.192188 314.304796 L 121.192188 314.304796 L 121.192188 314.304796 Q 121.192188 314.276671 121.20625 314.243859 L 121.20625 314.243859 L 122.44375 311.309484 L 122.44375 311.309484 Q 122.471875 311.239171 122.504688 311.21339 L 122.504688 311.21339 L 122.504688 311.21339 Q 122.5375 311.187609 122.598438 311.187609 L 122.598438 311.187609 L 122.85625 311.187609 L 122.85625 311.187609 Q 122.921875 311.187609 122.952344 311.21339 L 122.952344 311.21339 L 122.952344 311.21339 Q 122.982813 311.239171 123.010938 311.309484 L 123.010938 311.309484 L 124.248438 314.243859 L 124.248438 314.243859 Q 124.2625 314.276671 124.2625 314.304796 L 124.2625 314.304796 L 124.2625 314.304796 Q 124.2625 314.375109 124.182813 314.375109 L 124.182813 314.375109 L 123.775 314.375109 L 123.775 314.375109 Q 123.714063 314.375109 123.688281 314.358703 L 123.688281 314.358703 L 123.688281 314.358703 Q 123.6625 314.342296 123.639063 314.290734 L 123.639063 314.290734 L 123.371875 313.634484 L 122.078125 313.634484 L 121.815625 314.290734 L 121.815625 314.290734 Q 121.792188 314.342296 121.766406 314.358703 L 121.766406 314.358703 L 121.766406 314.358703 Q 121.740625 314.375109 121.679688 314.375109 L 121.679688 314.375109 L 121.271875 314.375109 L 121.271875 314.375109 Z  M 122.228125 313.198546 L 123.221875 313.198546 L 122.725 311.970421 L 122.228125 313.198546 L 122.228125 313.198546 Z  M 124.895313 314.375109 L 124.895313 314.375109 Q 124.801563 314.375109 124.761719 314.332921 L 124.761719 314.332921 L 124.761719 314.332921 Q 124.721875 314.290734 124.721875 314.206359 L 124.721875 314.206359 L 124.721875 311.361046 L 124.721875 311.361046 Q 124.721875 311.271984 124.761719 311.229796 L 124.761719 311.229796 L 124.761719 311.229796 Q 124.801563 311.187609 124.895313 311.187609 L 124.895313 311.187609 L 126.845313 311.187609 L 126.845313 311.187609 Q 126.939063 311.187609 126.974219 311.225109 L 126.974219 311.225109 L 126.974219 311.225109 Q 127.009375 311.262609 127.009375 311.351671 L 127.009375 311.351671 L 127.009375 311.478234 L 127.009375 311.478234 Q 127.009375 311.567296 126.974219 311.60714 L 126.974219 311.60714 L 126.974219 311.60714 Q 126.939063 311.646984 126.845313 311.646984 L 126.845313 311.646984 L 125.321875 311.646984 L 125.321875 312.551671 L 126.428125 312.551671 L 126.428125 312.551671 Q 126.521875 312.551671 126.559375 312.589171 L 126.559375 312.589171 L 126.559375 312.589171 Q 126.596875 312.626671 126.596875 312.715734 L 126.596875 312.715734 L 126.596875 312.842296 L 126.596875 312.842296 Q 126.596875 312.931359 126.559375 312.971203 L 126.559375 312.971203 L 126.559375 312.971203 Q 126.521875 313.011046 126.428125 313.011046 L 126.428125 313.011046 L 125.321875 313.011046 L 125.321875 314.206359 L 125.321875 314.206359 Q 125.321875 314.290734 125.282031 314.332921 L 125.282031 314.332921 L 125.282031 314.332921 Q 125.242188 314.375109 125.14375 314.375109 L 125.14375 314.375109 L 124.895313 314.375109 L 124.895313 314.375109 Z  M 128.35 314.375109 L 128.35 314.375109 Q 128.25625 314.375109 128.214063 314.332921 L 128.214063 314.332921 L 128.214063 314.332921 Q 128.171875 314.290734 128.171875 314.206359 L 128.171875 314.206359 L 128.171875 311.646984 L 127.351563 311.646984 L 127.351563 311.646984 Q 127.257813 311.646984 127.222656 311.609484 L 127.222656 311.609484 L 127.222656 311.609484 Q 127.1875 311.571984 127.1875 311.482921 L 127.1875 311.482921 L 127.1875 311.356359 L 127.1875 311.356359 Q 127.1875 311.267296 127.222656 311.227453 L 127.222656 311.227453 L 127.222656 311.227453 Q 127.257813 311.187609 127.351563 311.187609 L 127.351563 311.187609 L 129.592188 311.187609 L 129.592188 311.187609 Q 129.685938 311.187609 129.723438 311.227453 L 129.723438 311.227453 L 129.723438 311.227453 Q 129.760938 311.267296 129.760938 311.356359 L 129.760938 311.356359 L 129.760938 311.482921 L 129.760938 311.482921 Q 129.760938 311.571984 129.723438 311.609484 L 129.723438 311.609484 L 129.723438 311.609484 Q 129.685938 311.646984 129.592188 311.646984 L 129.592188 311.646984 L 128.771875 311.646984 L 128.771875 314.206359 L 128.771875 314.206359 Q 128.771875 314.290734 128.732031 314.332921 L 128.732031 314.332921 L 128.732031 314.332921 Q 128.692188 314.375109 128.59375 314.375109 L 128.59375 314.375109 L 128.35 314.375109 L 128.35 314.375109 Z " fill-rule="evenodd" fill="rgb(255,255,255)"/></g></svg>