<?xml version="1.0" standalone="no"?><!-- Generator: Gravit.io --><svg xmlns="http://www.w3.org/2000/svg" xmlns:xlink="http://www.w3.org/1999/xlink" style="isolation:isolate" viewBox="0 0 150 380" width="150" height="380"><defs><clipPath id="_clipPath_Y6xxPoLoJ25vOBeoPcTeENGtYXHMxUOB"><rect width="150" height="380"/></clipPath></defs><g clip-path="url(#_clipPath_Y6xxPoLoJ25vOBeoPcTeENGtYXHMxUOB)"><g id="bg"><rect x="0" y="0" width="150" height="380" transform="matrix(1,0,0,1,0,0)" fill="rgb(240,240,240)"/><path d=" M 69.081618 369.598705 C 68.927026 369.747088 68.783257 369.850659 68.650311 369.909418 C 68.51736 369.968177 68.375138 369.997539 68.223635 369.997539 C 68.072137 369.997539 67.929914 369.969715 67.796964 369.914067 C 67.664013 369.858419 67.548073 369.781099 67.449133 369.682177 C 67.232702 369.465737 67.12449 369.209133 67.12449 368.912298 L 67.12449 363.384743 C 67.12449 363.08172 67.201784 362.846754 67.356376 362.67981 C 67.622277 362.407722 67.874258 362.271678 68.11233 362.271678 C 68.350403 362.271678 68.528179 362.296391 68.64567 362.345887 C 68.763162 362.395348 68.862097 362.457183 68.942485 362.531392 C 69.047611 362.624127 69.126452 362.723084 69.179011 362.828193 C 69.231574 362.933337 69.274857 363.010622 69.308868 363.060083 C 69.342879 363.109544 69.398531 363.134292 69.475829 363.134292 C 69.553123 363.134292 69.619598 363.109544 69.675251 363.060083 L 69.832932 362.902402 C 70.284342 362.481931 70.735744 362.271678 71.187154 362.271678 C 71.984853 362.271678 72.643406 362.599414 73.162834 363.254886 C 73.212304 363.322908 73.274139 363.356919 73.348343 363.356919 C 73.4782 363.356919 73.609604 363.256424 73.742555 363.055434 C 73.875501 362.854479 74.090381 362.673623 74.3872 362.512831 C 74.684018 362.352074 75.030298 362.271678 75.426056 362.271678 C 75.82181 362.271678 76.182006 362.344314 76.506648 362.489656 C 76.831291 362.634963 77.114193 362.83438 77.355355 363.087907 C 77.862418 363.619709 78.115945 364.262808 78.115945 365.017202 L 78.115945 368.912298 C 78.115945 369.382265 77.893335 369.713077 77.448112 369.904769 C 77.312068 369.966604 77.168303 369.997539 77.0168 369.997539 C 76.865302 369.997539 76.723075 369.969715 76.590129 369.914067 C 76.457179 369.858419 76.341238 369.781099 76.242298 369.682177 C 76.03205 369.45955 75.926932 369.202946 75.926932 368.912298 L 75.926932 365.04506 C 75.926932 364.735851 75.849634 364.503961 75.695042 364.34939 C 75.422963 364.077302 75.172525 363.941258 74.943728 363.941258 C 74.714932 363.941258 74.535609 363.970621 74.405752 364.029379 C 74.275891 364.088138 74.158403 364.170072 74.053281 364.275181 C 73.836854 364.491621 73.728638 364.742038 73.728638 365.0265 L 73.728638 368.912298 C 73.728638 369.382265 73.509122 369.713077 73.070081 369.904769 C 72.934037 369.966604 72.790268 369.997539 72.63877 369.997539 C 72.487267 369.997539 72.343502 369.969715 72.207458 369.914067 C 72.071419 369.858419 71.953931 369.781099 71.854992 369.682177 C 71.638561 369.465737 71.530349 369.209133 71.530349 368.912298 L 71.530349 365.04506 C 71.530349 364.735851 71.453051 364.503961 71.298459 364.34939 C 71.02638 364.077302 70.741935 363.941258 70.445117 363.941258 C 69.950419 363.941258 69.607233 364.13295 69.415537 364.516335 C 69.353701 364.640005 69.32278 364.779159 69.32278 364.93373 L 69.32278 368.912298 C 69.32278 369.21532 69.242397 369.4441 69.081618 369.598705 Z  M 80.342682 363.387204 C 80.342682 363.084216 80.419976 362.849215 80.574568 362.682271 C 80.840469 362.410183 81.13419 362.274139 81.455739 362.274139 C 81.764923 362.274139 81.993719 362.354535 82.142128 362.515292 C 82.414208 362.793567 82.550252 363.084216 82.550252 363.387204 L 82.550252 368.914793 C 82.550252 369.211595 82.472958 369.437298 82.318362 369.591902 C 82.046282 369.863956 81.79584 370 81.567044 370 C 81.338247 370 81.155835 369.970638 81.019791 369.911879 C 80.883752 369.853155 80.766264 369.777407 80.667325 369.684638 C 80.450893 369.474385 80.342682 369.217781 80.342682 368.914793 L 80.342682 363.387204 Z  M 81.450791 359.899625 C 81.188513 359.899625 80.975889 359.687013 80.975889 359.424702 C 80.975889 359.162424 81.188513 358.949812 81.450791 358.949812 C 81.713077 358.949812 81.925697 359.162424 81.925697 359.424702 C 81.925697 359.687013 81.713077 359.899625 81.450791 359.899625 Z  M 81.450791 358 C 81.837756 358 82.171943 358.141752 82.453372 358.425291 C 82.7348 358.70883 82.87551 358.99589 82.87551 359.286504 C 82.87551 359.577119 82.836816 359.80747 82.759419 359.977594 C 82.682031 360.147717 82.580016 360.296545 82.453372 360.424146 C 82.171943 360.707685 81.837756 360.849437 81.450791 360.849437 C 81.063835 360.849437 80.729643 360.707685 80.448219 360.424146 C 80.166791 360.140607 80.026081 359.857103 80.026081 359.573564 C 80.026081 359.091565 80.166791 358.70883 80.448219 358.425291 C 80.729643 358.141752 81.063835 358 81.450791 358 Z " fill-rule="evenodd" fill="rgb(10,118,187)"/><path d=" M 94.277 28.1 L 94.277 28.1 Q 93.927 28.1 93.787 27.974 L 93.787 27.974 L 93.787 27.974 Q 93.647 27.848 93.647 27.54 L 93.647 27.54 L 93.647 26.112 L 89.559 26.112 L 89.559 26.112 Q 89.153 26.112 89.153 25.72 L 89.153 25.72 L 89.153 24.908 L 89.153 24.908 Q 89.153 24.67 89.195 24.551 L 89.195 24.551 L 89.195 24.551 Q 89.237 24.432 89.391 24.25 L 89.391 24.25 L 93.801 18.902 L 93.801 18.902 Q 93.969 18.706 94.088 18.643 L 94.088 18.643 L 94.088 18.643 Q 94.207 18.58 94.473 18.58 L 94.473 18.58 L 95.327 18.58 L 95.327 18.58 Q 95.677 18.58 95.817 18.727 L 95.817 18.727 L 95.817 18.727 Q 95.957 18.874 95.957 19.196 L 95.957 19.196 L 95.957 24.418 L 96.797 24.418 L 96.797 24.418 Q 97.133 24.418 97.259 24.558 L 97.259 24.558 L 97.259 24.558 Q 97.385 24.698 97.385 25.02 L 97.385 25.02 L 97.385 25.524 L 97.385 25.524 Q 97.385 25.846 97.259 25.979 L 97.259 25.979 L 97.259 25.979 Q 97.133 26.112 96.797 26.112 L 96.797 26.112 L 95.957 26.112 L 95.957 27.54 L 95.957 27.54 Q 95.957 27.848 95.817 27.974 L 95.817 27.974 L 95.817 27.974 Q 95.677 28.1 95.327 28.1 L 95.327 28.1 L 94.277 28.1 L 94.277 28.1 Z  M 91.491 24.418 L 94.095 24.418 L 94.095 21.156 L 91.491 24.418 L 91.491 24.418 Z  M 76.025 28.1 L 76.025 28.1 Q 75.689 28.1 75.542 27.953 L 75.542 27.953 L 75.542 27.953 Q 75.395 27.806 75.395 27.498 L 75.395 27.498 L 75.395 19.196 L 75.395 19.196 Q 75.395 18.888 75.542 18.734 L 75.542 18.734 L 75.542 18.734 Q 75.689 18.58 76.025 18.58 L 76.025 18.58 L 77.075 18.58 L 77.075 18.58 Q 77.425 18.58 77.565 18.727 L 77.565 18.727 L 77.565 18.727 Q 77.705 18.874 77.705 19.196 L 77.705 19.196 L 77.705 27.498 L 77.705 27.498 Q 77.705 27.806 77.565 27.953 L 77.565 27.953 L 77.565 27.953 Q 77.425 28.1 77.075 28.1 L 77.075 28.1 L 76.025 28.1 L 76.025 28.1 Z  M 81.385 24.74 L 81.385 24.74 Q 81.077 24.74 80.965 24.607 L 80.965 24.607 L 80.965 24.607 Q 80.853 24.474 80.853 24.194 L 80.853 24.194 L 80.853 23.578 L 80.853 23.578 Q 80.853 23.298 80.965 23.165 L 80.965 23.165 L 80.965 23.165 Q 81.077 23.032 81.385 23.032 L 81.385 23.032 L 86.033 23.032 L 86.033 23.032 Q 86.327 23.032 86.446 23.165 L 86.446 23.165 L 86.446 23.165 Q 86.565 23.298 86.565 23.578 L 86.565 23.578 L 86.565 24.194 L 86.565 24.194 Q 86.565 24.474 86.446 24.607 L 86.446 24.607 L 86.446 24.607 Q 86.327 24.74 86.033 24.74 L 86.033 24.74 L 81.385 24.74 L 81.385 24.74 Z  M 51.805 28.1 L 51.805 28.1 Q 51.469 28.1 51.322 27.953 L 51.322 27.953 L 51.322 27.953 Q 51.175 27.806 51.175 27.498 L 51.175 27.498 L 51.175 19.182 L 51.175 19.182 Q 51.175 18.874 51.322 18.727 L 51.322 18.727 L 51.322 18.727 Q 51.469 18.58 51.819 18.58 L 51.819 18.58 L 52.855 18.58 L 52.855 18.58 Q 53.107 18.58 53.247 18.643 L 53.247 18.643 L 53.247 18.643 Q 53.387 18.706 53.471 18.888 L 53.471 18.888 L 55.893 24.6 L 58.329 18.888 L 58.329 18.888 Q 58.413 18.706 58.553 18.643 L 58.553 18.643 L 58.553 18.643 Q 58.693 18.58 58.945 18.58 L 58.945 18.58 L 59.981 18.58 L 59.981 18.58 Q 60.331 18.58 60.478 18.727 L 60.478 18.727 L 60.478 18.727 Q 60.625 18.874 60.625 19.182 L 60.625 19.182 L 60.625 27.498 L 60.625 27.498 Q 60.625 27.806 60.478 27.953 L 60.478 27.953 L 60.478 27.953 Q 60.331 28.1 59.995 28.1 L 59.995 28.1 L 59.141 28.1 L 59.141 28.1 Q 58.791 28.1 58.644 27.953 L 58.644 27.953 L 58.644 27.953 Q 58.497 27.806 58.497 27.498 L 58.497 27.498 L 58.497 22.206 L 56.621 26.392 L 56.621 26.392 Q 56.481 26.686 56.348 26.805 L 56.348 26.805 L 56.348 26.805 Q 56.215 26.924 55.893 26.924 L 55.893 26.924 L 55.893 26.924 Q 55.585 26.924 55.438 26.805 L 55.438 26.805 L 55.438 26.805 Q 55.291 26.686 55.165 26.392 L 55.165 26.392 L 53.303 22.206 L 53.303 27.498 L 53.303 27.498 Q 53.303 27.806 53.156 27.953 L 53.156 27.953 L 53.156 27.953 Q 53.009 28.1 52.659 28.1 L 52.659 28.1 L 51.805 28.1 L 51.805 28.1 Z  M 62.683 28.1 L 62.683 28.1 Q 62.347 28.1 62.2 27.953 L 62.2 27.953 L 62.2 27.953 Q 62.053 27.806 62.053 27.498 L 62.053 27.498 L 62.053 19.196 L 62.053 19.196 Q 62.053 18.888 62.2 18.734 L 62.2 18.734 L 62.2 18.734 Q 62.347 18.58 62.683 18.58 L 62.683 18.58 L 63.733 18.58 L 63.733 18.58 Q 64.083 18.58 64.223 18.727 L 64.223 18.727 L 64.223 18.727 Q 64.363 18.874 64.363 19.196 L 64.363 19.196 L 64.363 27.498 L 64.363 27.498 Q 64.363 27.806 64.223 27.953 L 64.223 27.953 L 64.223 27.953 Q 64.083 28.1 63.733 28.1 L 63.733 28.1 L 62.683 28.1 L 62.683 28.1 Z  M 66.421 28.1 L 66.421 28.1 Q 66.085 28.1 65.938 27.953 L 65.938 27.953 L 65.938 27.953 Q 65.791 27.806 65.791 27.498 L 65.791 27.498 L 65.791 19.196 L 65.791 19.196 Q 65.791 18.888 65.938 18.734 L 65.938 18.734 L 65.938 18.734 Q 66.085 18.58 66.421 18.58 L 66.421 18.58 L 69.361 18.58 L 69.361 18.58 Q 71.755 18.58 73.001 19.728 L 73.001 19.728 L 73.001 19.728 Q 74.247 20.876 74.247 23.34 L 74.247 23.34 L 74.247 23.34 Q 74.247 25.776 72.987 26.938 L 72.987 26.938 L 72.987 26.938 Q 71.727 28.1 69.361 28.1 L 69.361 28.1 L 66.421 28.1 L 66.421 28.1 Z  M 68.101 26.406 L 69.473 26.406 L 69.473 26.406 Q 70.719 26.406 71.335 25.713 L 71.335 25.713 L 71.335 25.713 Q 71.951 25.02 71.951 23.34 L 71.951 23.34 L 71.951 23.34 Q 71.951 21.66 71.335 20.974 L 71.335 20.974 L 71.335 20.974 Q 70.719 20.288 69.473 20.288 L 69.473 20.288 L 68.101 20.288 L 68.101 26.406 L 68.101 26.406 Z " fill-rule="evenodd" fill="rgb(23,34,41)"/><g id="stripes"><path d=" M -150 305 L 150 20 L 150 40 L -150 325 L -150 305 Z " fill="rgb(116,127,134)" fill-opacity="0.05"/><path d=" M -150 345 L 150 60 L 150 80 L -150 365 L -150 345 Z " fill="rgb(116,127,134)" fill-opacity="0.05"/><path d=" M -150 385 L 150 100 L 150 120 L -150 405 L -150 385 Z " fill="rgb(116,127,134)" fill-opacity="0.05"/></g></g><path d=" M 14.375 164.75 L 22.125 162.25 L 30.375 164.25 L 37.125 167.5 L 35.875 182.75 L 38.125 193 L 35.625 201 L 38.125 215.5 L 38.625 223 L 36.625 237 L 38.875 243.75 L 36.625 254.625 L 39.125 261.875 L 37.125 264.875 L 36.875 281.875 L 38.125 291.375 L 36.625 306.875 L 37.625 311.125 L 36.875 333.625 L 37.625 343.125 L 35.625 348.125 L 27.125 347.375 L 23.875 344.625 L 17.375 345.625 L 9.125 346.125 L 9.375 336.875 L 8.125 326.625 L 10.375 315.875 L 9.875 302.125 L 7.625 297.875 L 9.875 282.125 L 11.375 272.125 L 9.375 265.625 L 8.125 256.625 L 11.875 249.125 L 9.875 239.125 L 9.375 219.375 L 6.125 208.375 L 9.625 202.125 L 8.875 187.625 L 9.875 176.875 L 8.375 168.625 L 14.375 164.75 Z " fill="rgb(23,34,41)"/><path d=" M 50.375 163.5 L 59.875 161.75 L 66.875 166.5 L 73.875 174.75 L 71.625 185 L 72.125 196.25 L 69.375 197.75 L 71.875 218 L 70.125 234.5 L 73.375 236.75 L 70.625 269 L 73.125 284 L 69.375 287.25 L 70.375 307.125 L 73.625 312.875 L 71.875 325.625 L 70.875 335.875 L 72.375 346.875 L 65.125 348.375 L 61.125 344.125 L 48.375 348.125 L 45.125 341.875 L 41.375 336.375 L 43.125 323.875 L 45.125 309.375 L 43.375 306.875 L 45.375 293.625 L 42.875 288.875 L 46 262.125 L 41.5 261.375 L 44.75 253.875 L 46.25 245.375 L 41.75 241.125 L 44.5 236.125 L 45.25 223.375 L 42.5 217.625 L 44.5 211.625 L 44.75 199.625 L 42.75 193.375 L 45.25 185.875 L 44.25 178.875 L 42 170.375 L 45.5 164.625 L 50.375 163.5 Z " fill="rgb(23,34,41)"/><path d=" M 88.5 163.375 L 97.75 162.375 L 101 165.625 L 106.5 166.375 L 105.5 173.875 L 104.625 184.625 L 105.625 188.625 L 106.875 197.375 L 105.125 200.875 L 108.125 210.125 L 106.625 213.375 L 104.375 216.375 L 106.625 226.625 L 106.625 231.375 L 105.375 236.625 L 106.875 247.625 L 104.625 254.625 L 105.875 262.875 L 106.875 277 L 105.125 283.5 L 107.625 302.75 L 105.875 305.25 L 105.875 316.25 L 103.125 321.5 L 104.875 329.25 L 105.875 339.75 L 105.375 349.25 L 100.375 349 L 88.875 347 L 84.875 348.25 L 78.375 342.25 L 76.875 333 L 79.875 324.25 L 77.875 317.75 L 77.625 302.75 L 79.125 292.25 L 77.875 284.5 L 80.375 266.25 L 74.875 262.5 L 76.875 249 L 78.875 238.125 L 79.375 225.625 L 76.875 216.875 L 78.375 210.125 L 79.125 199.625 L 76.625 192.625 L 79.625 187.375 L 78 175.5 L 77.5 166.25 L 80.25 161 L 88.5 163.375 Z " fill="rgb(23,34,41)"/><path d=" M 137.5 166.5 L 141 178 L 140.5 187 L 139.25 200.25 L 142.5 205 L 139.125 212.875 L 141.125 221.375 L 139.625 229.125 L 141.375 240.875 L 139.375 248.125 L 138.75 255.625 L 142 258.625 L 139.25 266.625 L 141.75 276.625 L 139.5 286.375 L 139.5 297.375 L 141.5 303.625 L 139.5 311.375 L 139.5 320.375 L 141.25 323.625 L 139.75 337.875 L 139 345.375 L 132.5 348.125 L 124.75 345.625 L 122.25 348.625 L 118.25 344.375 L 110 344.875 L 112.75 335.375 L 114 325.375 L 112.5 315.125 L 111.25 302.875 L 114.5 294.375 L 112.25 288.125 L 112.375 276.875 L 110.625 273.625 L 113.375 263.625 L 111.875 258.625 L 111.375 247.375 L 111.125 239.625 L 113.625 236.375 L 111.875 228.25 L 112.375 217 L 115.666664 208.5 L 112.625 202.5 L 114.125 191.75 L 110.875 187.25 L 110.375 178.75 L 114.875 174 L 113.875 167.25 L 111.625 162.75 L 118.875 165 L 126.875 163 L 134.625 162.25 L 137.5 166.5 Z " fill="rgb(23,34,41)"/><path d=" M 56.398438 159.244792 L 56.398438 159.244792 Q 56.210938 159.244792 56.128906 159.16276 L 56.128906 159.16276 L 56.128906 159.16276 Q 56.046875 159.080729 56.046875 158.908854 L 56.046875 158.908854 L 56.046875 154.276042 L 56.046875 154.276042 Q 56.046875 154.104167 56.128906 154.018229 L 56.128906 154.018229 L 56.128906 154.018229 Q 56.210938 153.932292 56.398438 153.932292 L 56.398438 153.932292 L 56.984375 153.932292 L 56.984375 153.932292 Q 57.179688 153.932292 57.257813 154.014323 L 57.257813 154.014323 L 57.257813 154.014323 Q 57.335938 154.096354 57.335938 154.276042 L 57.335938 154.276042 L 57.335938 158.908854 L 57.335938 158.908854 Q 57.335938 159.080729 57.257813 159.16276 L 57.257813 159.16276 L 57.257813 159.16276 Q 57.179688 159.244792 56.984375 159.244792 L 56.984375 159.244792 L 56.398438 159.244792 L 56.398438 159.244792 Z  M 58.875 159.244792 L 58.875 159.244792 Q 58.6875 159.244792 58.605469 159.16276 L 58.605469 159.16276 L 58.605469 159.16276 Q 58.523438 159.080729 58.523438 158.908854 L 58.523438 158.908854 L 58.523438 154.276042 L 58.523438 154.276042 Q 58.523438 154.104167 58.605469 154.018229 L 58.605469 154.018229 L 58.605469 154.018229 Q 58.6875 153.932292 58.875 153.932292 L 58.875 153.932292 L 59.460938 153.932292 L 59.460938 153.932292 Q 59.65625 153.932292 59.734375 154.014323 L 59.734375 154.014323 L 59.734375 154.014323 Q 59.8125 154.096354 59.8125 154.276042 L 59.8125 154.276042 L 59.8125 158.908854 L 59.8125 158.908854 Q 59.8125 159.080729 59.734375 159.16276 L 59.734375 159.16276 L 59.734375 159.16276 Q 59.65625 159.244792 59.460938 159.244792 L 59.460938 159.244792 L 58.875 159.244792 L 58.875 159.244792 Z " fill-rule="evenodd" fill="rgb(0,0,0)"/><path d=" M 89.445312 159.244792 L 89.445312 159.244792 Q 89.257812 159.244792 89.175781 159.16276 L 89.175781 159.16276 L 89.175781 159.16276 Q 89.09375 159.080729 89.09375 158.908854 L 89.09375 158.908854 L 89.09375 154.276042 L 89.09375 154.276042 Q 89.09375 154.104167 89.175781 154.018229 L 89.175781 154.018229 L 89.175781 154.018229 Q 89.257812 153.932292 89.445312 153.932292 L 89.445312 153.932292 L 90.03125 153.932292 L 90.03125 153.932292 Q 90.226562 153.932292 90.304687 154.014323 L 90.304687 154.014323 L 90.304687 154.014323 Q 90.382812 154.096354 90.382812 154.276042 L 90.382812 154.276042 L 90.382812 158.908854 L 90.382812 158.908854 Q 90.382812 159.080729 90.304687 159.16276 L 90.304687 159.16276 L 90.304687 159.16276 Q 90.226562 159.244792 90.03125 159.244792 L 90.03125 159.244792 L 89.445312 159.244792 L 89.445312 159.244792 Z  M 91.921875 159.244792 L 91.921875 159.244792 Q 91.734375 159.244792 91.652344 159.16276 L 91.652344 159.16276 L 91.652344 159.16276 Q 91.570312 159.080729 91.570312 158.908854 L 91.570312 158.908854 L 91.570312 154.276042 L 91.570312 154.276042 Q 91.570312 154.104167 91.652344 154.018229 L 91.652344 154.018229 L 91.652344 154.018229 Q 91.734375 153.932292 91.921875 153.932292 L 91.921875 153.932292 L 92.507812 153.932292 L 92.507812 153.932292 Q 92.703125 153.932292 92.78125 154.014323 L 92.78125 154.014323 L 92.78125 154.014323 Q 92.859375 154.096354 92.859375 154.276042 L 92.859375 154.276042 L 92.859375 158.908854 L 92.859375 158.908854 Q 92.859375 159.080729 92.78125 159.16276 L 92.78125 159.16276 L 92.78125 159.16276 Q 92.703125 159.244792 92.507812 159.244792 L 92.507812 159.244792 L 91.921875 159.244792 L 91.921875 159.244792 Z  M 94.398437 159.244792 L 94.398437 159.244792 Q 94.210937 159.244792 94.128906 159.16276 L 94.128906 159.16276 L 94.128906 159.16276 Q 94.046875 159.080729 94.046875 158.908854 L 94.046875 158.908854 L 94.046875 154.276042 L 94.046875 154.276042 Q 94.046875 154.104167 94.128906 154.018229 L 94.128906 154.018229 L 94.128906 154.018229 Q 94.210937 153.932292 94.398437 153.932292 L 94.398437 153.932292 L 94.984375 153.932292 L 94.984375 153.932292 Q 95.179687 153.932292 95.257812 154.014323 L 95.257812 154.014323 L 95.257812 154.014323 Q 95.335937 154.096354 95.335937 154.276042 L 95.335937 154.276042 L 95.335937 158.908854 L 95.335937 158.908854 Q 95.335937 159.080729 95.257812 159.16276 L 95.257812 159.16276 L 95.257812 159.16276 Q 95.179687 159.244792 94.984375 159.244792 L 94.984375 159.244792 L 94.398437 159.244792 L 94.398437 159.244792 Z " fill-rule="evenodd" fill="rgb(0,0,0)"/><path d=" M 123.273438 159.244792 L 123.273438 159.244792 Q 123.085938 159.244792 123.003906 159.16276 L 123.003906 159.16276 L 123.003906 159.16276 Q 122.921875 159.080729 122.921875 158.908854 L 122.921875 158.908854 L 122.921875 154.276042 L 122.921875 154.276042 Q 122.921875 154.104167 123.003906 154.018229 L 123.003906 154.018229 L 123.003906 154.018229 Q 123.085938 153.932292 123.273438 153.932292 L 123.273438 153.932292 L 123.859375 153.932292 L 123.859375 153.932292 Q 124.054688 153.932292 124.132813 154.014323 L 124.132813 154.014323 L 124.132813 154.014323 Q 124.210938 154.096354 124.210938 154.276042 L 124.210938 154.276042 L 124.210938 158.908854 L 124.210938 158.908854 Q 124.210938 159.080729 124.132813 159.16276 L 124.132813 159.16276 L 124.132813 159.16276 Q 124.054688 159.244792 123.859375 159.244792 L 123.859375 159.244792 L 123.273438 159.244792 L 123.273438 159.244792 Z  M 127.554688 159.244792 L 127.554688 159.244792 Q 127.429688 159.244792 127.367188 159.197917 L 127.367188 159.197917 L 127.367188 159.197917 Q 127.304688 159.151042 127.25 159.018229 L 127.25 159.018229 L 125.273438 154.190104 L 125.273438 154.190104 Q 125.25 154.119792 125.25 154.065104 L 125.25 154.065104 L 125.25 154.065104 Q 125.25 153.932292 125.390625 153.932292 L 125.390625 153.932292 L 126.328125 153.932292 L 126.328125 153.932292 Q 126.4375 153.932292 126.496094 153.979167 L 126.496094 153.979167 L 126.496094 153.979167 Q 126.554688 154.026042 126.585938 154.111979 L 126.585938 154.111979 L 127.835938 157.463542 L 129.085938 154.111979 L 129.085938 154.111979 Q 129.148438 153.932292 129.351563 153.932292 L 129.351563 153.932292 L 130.289063 153.932292 L 130.289063 153.932292 Q 130.429688 153.932292 130.429688 154.065104 L 130.429688 154.065104 L 130.429688 154.065104 Q 130.429688 154.119792 130.40625 154.190104 L 130.40625 154.190104 L 128.4375 159.018229 L 128.4375 159.018229 Q 128.382813 159.151042 128.316406 159.197917 L 128.316406 159.197917 L 128.316406 159.197917 Q 128.25 159.244792 128.125 159.244792 L 128.125 159.244792 L 127.554688 159.244792 L 127.554688 159.244792 Z " fill-rule="evenodd" fill="rgb(0,0,0)"/><path d=" M 23.273437 159.244792 L 23.273437 159.244792 Q 23.085937 159.244792 23.003906 159.16276 L 23.003906 159.16276 L 23.003906 159.16276 Q 22.921875 159.080729 22.921875 158.908854 L 22.921875 158.908854 L 22.921875 154.276042 L 22.921875 154.276042 Q 22.921875 154.104167 23.003906 154.018229 L 23.003906 154.018229 L 23.003906 154.018229 Q 23.085937 153.932292 23.273437 153.932292 L 23.273437 153.932292 L 23.859375 153.932292 L 23.859375 153.932292 Q 24.054687 153.932292 24.132812 154.014323 L 24.132812 154.014323 L 24.132812 154.014323 Q 24.210937 154.096354 24.210937 154.276042 L 24.210937 154.276042 L 24.210937 158.908854 L 24.210937 158.908854 Q 24.210937 159.080729 24.132812 159.16276 L 24.132812 159.16276 L 24.132812 159.16276 Q 24.054687 159.244792 23.859375 159.244792 L 23.859375 159.244792 L 23.273437 159.244792 L 23.273437 159.244792 Z " fill="rgb(0,0,0)"/><path d=" M 17.928 314.400139 L 17.928 314.400139 Q 17.826 314.400139 17.826 314.310139 L 17.826 314.310139 L 17.826 314.310139 Q 17.826 314.274139 17.844 314.232139 L 17.844 314.232139 L 19.428 310.476139 L 19.428 310.476139 Q 19.464 310.386139 19.506 310.353139 L 19.506 310.353139 L 19.506 310.353139 Q 19.548 310.320139 19.626 310.320139 L 19.626 310.320139 L 19.956 310.320139 L 19.956 310.320139 Q 20.04 310.320139 20.079 310.353139 L 20.079 310.353139 L 20.079 310.353139 Q 20.118 310.386139 20.154 310.476139 L 20.154 310.476139 L 21.738 314.232139 L 21.738 314.232139 Q 21.756 314.274139 21.756 314.310139 L 21.756 314.310139 L 21.756 314.310139 Q 21.756 314.400139 21.654 314.400139 L 21.654 314.400139 L 21.132 314.400139 L 21.132 314.400139 Q 21.054 314.400139 21.021 314.379139 L 21.021 314.379139 L 21.021 314.379139 Q 20.988 314.358139 20.958 314.292139 L 20.958 314.292139 L 20.616 313.452139 L 18.96 313.452139 L 18.624 314.292139 L 18.624 314.292139 Q 18.594 314.358139 18.561 314.379139 L 18.561 314.379139 L 18.561 314.379139 Q 18.528 314.400139 18.45 314.400139 L 18.45 314.400139 L 17.928 314.400139 L 17.928 314.400139 Z  M 19.152 312.894139 L 20.424 312.894139 L 19.788 311.322139 L 19.152 312.894139 L 19.152 312.894139 Z  M 23.066 314.400139 L 23.066 314.400139 Q 22.946 314.400139 22.895 314.346139 L 22.895 314.346139 L 22.895 314.346139 Q 22.844 314.292139 22.844 314.184139 L 22.844 314.184139 L 22.844 310.542139 L 22.844 310.542139 Q 22.844 310.428139 22.895 310.374139 L 22.895 310.374139 L 22.895 310.374139 Q 22.946 310.320139 23.066 310.320139 L 23.066 310.320139 L 25.562 310.320139 L 25.562 310.320139 Q 25.682 310.320139 25.727 310.368139 L 25.727 310.368139 L 25.727 310.368139 Q 25.772 310.416139 25.772 310.530139 L 25.772 310.530139 L 25.772 310.692139 L 25.772 310.692139 Q 25.772 310.806139 25.727 310.857139 L 25.727 310.857139 L 25.727 310.857139 Q 25.682 310.908139 25.562 310.908139 L 25.562 310.908139 L 23.612 310.908139 L 23.612 312.066139 L 25.028 312.066139 L 25.028 312.066139 Q 25.148 312.066139 25.196 312.114139 L 25.196 312.114139 L 25.196 312.114139 Q 25.244 312.162139 25.244 312.276139 L 25.244 312.276139 L 25.244 312.438139 L 25.244 312.438139 Q 25.244 312.552139 25.196 312.603139 L 25.196 312.603139 L 25.196 312.603139 Q 25.148 312.654139 25.028 312.654139 L 25.028 312.654139 L 23.612 312.654139 L 23.612 314.184139 L 23.612 314.184139 Q 23.612 314.292139 23.561 314.346139 L 23.561 314.346139 L 23.561 314.346139 Q 23.51 314.400139 23.384 314.400139 L 23.384 314.400139 L 23.066 314.400139 L 23.066 314.400139 Z  M 27.988 314.400139 L 27.988 314.400139 Q 27.868 314.400139 27.814 314.346139 L 27.814 314.346139 L 27.814 314.346139 Q 27.76 314.292139 27.76 314.184139 L 27.76 314.184139 L 27.76 310.908139 L 26.71 310.908139 L 26.71 310.908139 Q 26.59 310.908139 26.545 310.860139 L 26.545 310.860139 L 26.545 310.860139 Q 26.5 310.812139 26.5 310.698139 L 26.5 310.698139 L 26.5 310.536139 L 26.5 310.536139 Q 26.5 310.422139 26.545 310.371139 L 26.545 310.371139 L 26.545 310.371139 Q 26.59 310.320139 26.71 310.320139 L 26.71 310.320139 L 29.578 310.320139 L 29.578 310.320139 Q 29.698 310.320139 29.746 310.371139 L 29.746 310.371139 L 29.746 310.371139 Q 29.794 310.422139 29.794 310.536139 L 29.794 310.536139 L 29.794 310.698139 L 29.794 310.698139 Q 29.794 310.812139 29.746 310.860139 L 29.746 310.860139 L 29.746 310.860139 Q 29.698 310.908139 29.578 310.908139 L 29.578 310.908139 L 28.528 310.908139 L 28.528 314.184139 L 28.528 314.184139 Q 28.528 314.292139 28.477 314.346139 L 28.477 314.346139 L 28.477 314.346139 Q 28.426 314.400139 28.3 314.400139 L 28.3 314.400139 L 27.988 314.400139 L 27.988 314.400139 Z " fill-rule="evenodd" fill="rgb(255,255,255)"/><path d=" M 19.716 267.400139 L 19.716 267.400139 Q 19.632 267.400139 19.593 267.370139 L 19.593 267.370139 L 19.593 267.370139 Q 19.554 267.340139 19.518 267.250139 L 19.518 267.250139 L 17.958 263.488139 L 17.958 263.488139 Q 17.94 263.452139 17.94 263.416139 L 17.94 263.416139 L 17.94 263.416139 Q 17.94 263.374139 17.967 263.347139 L 17.967 263.347139 L 17.967 263.347139 Q 17.994 263.320139 18.042 263.320139 L 18.042 263.320139 L 18.558 263.320139 L 18.558 263.320139 Q 18.636 263.320139 18.678 263.350139 L 18.678 263.350139 L 18.678 263.350139 Q 18.72 263.380139 18.744 263.446139 L 18.744 263.446139 L 19.878 266.326139 L 21.012 263.446139 L 21.012 263.446139 Q 21.036 263.380139 21.078 263.350139 L 21.078 263.350139 L 21.078 263.350139 Q 21.12 263.320139 21.198 263.320139 L 21.198 263.320139 L 21.714 263.320139 L 21.714 263.320139 Q 21.762 263.320139 21.789 263.347139 L 21.789 263.347139 L 21.789 263.347139 Q 21.816 263.374139 21.816 263.416139 L 21.816 263.416139 L 21.816 263.416139 Q 21.816 263.452139 21.798 263.488139 L 21.798 263.488139 L 20.244 267.250139 L 20.244 267.250139 Q 20.208 267.340139 20.166 267.370139 L 20.166 267.370139 L 20.166 267.370139 Q 20.124 267.400139 20.04 267.400139 L 20.04 267.400139 L 19.716 267.400139 L 19.716 267.400139 Z  M 23.126 267.400139 L 23.126 267.400139 Q 23.006 267.400139 22.955 267.346139 L 22.955 267.346139 L 22.955 267.346139 Q 22.904 267.292139 22.904 267.184139 L 22.904 267.184139 L 22.904 263.542139 L 22.904 263.542139 Q 22.904 263.428139 22.955 263.374139 L 22.955 263.374139 L 22.955 263.374139 Q 23.006 263.320139 23.126 263.320139 L 23.126 263.320139 L 25.622 263.320139 L 25.622 263.320139 Q 25.742 263.320139 25.787 263.368139 L 25.787 263.368139 L 25.787 263.368139 Q 25.832 263.416139 25.832 263.530139 L 25.832 263.530139 L 25.832 263.692139 L 25.832 263.692139 Q 25.832 263.806139 25.787 263.857139 L 25.787 263.857139 L 25.787 263.857139 Q 25.742 263.908139 25.622 263.908139 L 25.622 263.908139 L 23.672 263.908139 L 23.672 265.072139 L 25.088 265.072139 L 25.088 265.072139 Q 25.208 265.072139 25.256 265.120139 L 25.256 265.120139 L 25.256 265.120139 Q 25.304 265.168139 25.304 265.282139 L 25.304 265.282139 L 25.304 265.432139 L 25.304 265.432139 Q 25.304 265.546139 25.256 265.597139 L 25.256 265.597139 L 25.256 265.597139 Q 25.208 265.648139 25.088 265.648139 L 25.088 265.648139 L 23.672 265.648139 L 23.672 266.818139 L 25.616 266.818139 L 25.616 266.818139 Q 25.736 266.818139 25.784 266.869139 L 25.784 266.869139 L 25.784 266.869139 Q 25.832 266.920139 25.832 267.034139 L 25.832 267.034139 L 25.832 267.196139 L 25.832 267.196139 Q 25.832 267.304139 25.784 267.352139 L 25.784 267.352139 L 25.784 267.352139 Q 25.736 267.400139 25.616 267.400139 L 25.616 267.400139 L 23.126 267.400139 L 23.126 267.400139 Z  M 27.082 267.400139 L 27.082 267.400139 Q 26.962 267.400139 26.911 267.346139 L 26.911 267.346139 L 26.911 267.346139 Q 26.86 267.292139 26.86 267.184139 L 26.86 267.184139 L 26.86 263.542139 L 26.86 263.542139 Q 26.86 263.428139 26.911 263.374139 L 26.911 263.374139 L 26.911 263.374139 Q 26.962 263.320139 27.082 263.320139 L 27.082 263.320139 L 27.4 263.320139 L 27.4 263.320139 Q 27.52 263.320139 27.574 263.374139 L 27.574 263.374139 L 27.574 263.374139 Q 27.628 263.428139 27.628 263.542139 L 27.628 263.542139 L 27.628 266.818139 L 29.464 266.818139 L 29.464 266.818139 Q 29.584 266.818139 29.632 266.869139 L 29.632 266.869139 L 29.632 266.869139 Q 29.68 266.920139 29.68 267.034139 L 29.68 267.034139 L 29.68 267.196139 L 29.68 267.196139 Q 29.68 267.304139 29.632 267.352139 L 29.632 267.352139 L 29.632 267.352139 Q 29.584 267.400139 29.464 267.400139 L 29.464 267.400139 L 27.082 267.400139 L 27.082 267.400139 Z " fill-rule="evenodd" fill="rgb(255,255,255)"/><path d=" M 18.082 220.490139 L 18.082 220.490139 Q 17.062 220.490139 16.504 219.938139 L 16.504 219.938139 L 16.504 219.938139 Q 15.946 219.386139 15.946 218.360139 L 15.946 218.360139 L 15.946 218.360139 Q 15.946 217.340139 16.507 216.785139 L 16.507 216.785139 L 16.507 216.785139 Q 17.068 216.230139 18.082 216.230139 L 18.082 216.230139 L 18.082 216.230139 Q 18.49 216.230139 18.844 216.314139 L 18.844 216.314139 L 18.844 216.314139 Q 19.198 216.398139 19.432 216.554139 L 19.432 216.554139 L 19.432 216.554139 Q 19.486 216.590139 19.486 216.632139 L 19.486 216.632139 L 19.486 216.632139 Q 19.486 216.662139 19.462 216.704139 L 19.462 216.704139 L 19.288 217.004139 L 19.288 217.004139 Q 19.252 217.058139 19.216 217.058139 L 19.216 217.058139 L 19.216 217.058139 Q 19.198 217.058139 19.138 217.028139 L 19.138 217.028139 L 19.138 217.028139 Q 18.73 216.800139 18.166 216.800139 L 18.166 216.800139 L 18.166 216.800139 Q 17.482 216.800139 17.092 217.187139 L 17.092 217.187139 L 17.092 217.187139 Q 16.702 217.574139 16.702 218.360139 L 16.702 218.360139 L 16.702 218.360139 Q 16.702 219.152139 17.08 219.536139 L 17.08 219.536139 L 17.08 219.536139 Q 17.458 219.920139 18.118 219.920139 L 18.118 219.920139 L 18.118 219.920139 Q 18.358 219.920139 18.586 219.881139 L 18.586 219.881139 L 18.586 219.881139 Q 18.814 219.842139 18.958 219.770139 L 18.958 219.770139 L 18.958 218.660139 L 18.166 218.660139 L 18.166 218.660139 Q 18.046 218.660139 17.998 218.609139 L 17.998 218.609139 L 17.998 218.609139 Q 17.95 218.558139 17.95 218.444139 L 17.95 218.444139 L 17.95 218.288139 L 17.95 218.288139 Q 17.95 218.174139 17.998 218.129139 L 17.998 218.129139 L 17.998 218.129139 Q 18.046 218.084139 18.166 218.084139 L 18.166 218.084139 L 19.432 218.084139 L 19.432 218.084139 Q 19.564 218.084139 19.621 218.147139 L 19.621 218.147139 L 19.621 218.147139 Q 19.678 218.210139 19.678 218.342139 L 19.678 218.342139 L 19.678 219.926139 L 19.678 219.926139 Q 19.678 220.016139 19.66 220.061139 L 19.66 220.061139 L 19.66 220.061139 Q 19.642 220.106139 19.582 220.142139 L 19.582 220.142139 L 19.582 220.142139 Q 19.03 220.490139 18.082 220.490139 L 18.082 220.490139 L 18.082 220.490139 Z  M 20.748 220.400139 L 20.748 220.400139 Q 20.646 220.400139 20.646 220.310139 L 20.646 220.310139 L 20.646 220.310139 Q 20.646 220.274139 20.664 220.232139 L 20.664 220.232139 L 22.248 216.476139 L 22.248 216.476139 Q 22.284 216.386139 22.326 216.353139 L 22.326 216.353139 L 22.326 216.353139 Q 22.368 216.320139 22.446 216.320139 L 22.446 216.320139 L 22.776 216.320139 L 22.776 216.320139 Q 22.86 216.320139 22.899 216.353139 L 22.899 216.353139 L 22.899 216.353139 Q 22.938 216.386139 22.974 216.476139 L 22.974 216.476139 L 24.558 220.232139 L 24.558 220.232139 Q 24.576 220.274139 24.576 220.310139 L 24.576 220.310139 L 24.576 220.310139 Q 24.576 220.400139 24.474 220.400139 L 24.474 220.400139 L 23.952 220.400139 L 23.952 220.400139 Q 23.874 220.400139 23.841 220.379139 L 23.841 220.379139 L 23.841 220.379139 Q 23.808 220.358139 23.778 220.292139 L 23.778 220.292139 L 23.436 219.452139 L 21.78 219.452139 L 21.444 220.292139 L 21.444 220.292139 Q 21.414 220.358139 21.381 220.379139 L 21.381 220.379139 L 21.381 220.379139 Q 21.348 220.400139 21.27 220.400139 L 21.27 220.400139 L 20.748 220.400139 L 20.748 220.400139 Z  M 21.972 218.894139 L 23.244 218.894139 L 22.608 217.322139 L 21.972 218.894139 L 21.972 218.894139 Z  M 26.912 220.400139 L 26.912 220.400139 Q 26.792 220.400139 26.738 220.346139 L 26.738 220.346139 L 26.738 220.346139 Q 26.684 220.292139 26.684 220.184139 L 26.684 220.184139 L 26.684 216.908139 L 25.634 216.908139 L 25.634 216.908139 Q 25.514 216.908139 25.469 216.860139 L 25.469 216.860139 L 25.469 216.860139 Q 25.424 216.812139 25.424 216.698139 L 25.424 216.698139 L 25.424 216.536139 L 25.424 216.536139 Q 25.424 216.422139 25.469 216.371139 L 25.469 216.371139 L 25.469 216.371139 Q 25.514 216.320139 25.634 216.320139 L 25.634 216.320139 L 28.502 216.320139 L 28.502 216.320139 Q 28.622 216.320139 28.67 216.371139 L 28.67 216.371139 L 28.67 216.371139 Q 28.718 216.422139 28.718 216.536139 L 28.718 216.536139 L 28.718 216.698139 L 28.718 216.698139 Q 28.718 216.812139 28.67 216.860139 L 28.67 216.860139 L 28.67 216.860139 Q 28.622 216.908139 28.502 216.908139 L 28.502 216.908139 L 27.452 216.908139 L 27.452 220.184139 L 27.452 220.184139 Q 27.452 220.292139 27.401 220.346139 L 27.401 220.346139 L 27.401 220.346139 Q 27.35 220.400139 27.224 220.400139 L 27.224 220.400139 L 26.912 220.400139 L 26.912 220.400139 Z  M 29.908 220.400139 L 29.908 220.400139 Q 29.788 220.400139 29.737 220.346139 L 29.737 220.346139 L 29.737 220.346139 Q 29.686 220.292139 29.686 220.184139 L 29.686 220.184139 L 29.686 216.542139 L 29.686 216.542139 Q 29.686 216.428139 29.737 216.374139 L 29.737 216.374139 L 29.737 216.374139 Q 29.788 216.320139 29.908 216.320139 L 29.908 216.320139 L 32.404 216.320139 L 32.404 216.320139 Q 32.524 216.320139 32.569 216.368139 L 32.569 216.368139 L 32.569 216.368139 Q 32.614 216.416139 32.614 216.530139 L 32.614 216.530139 L 32.614 216.692139 L 32.614 216.692139 Q 32.614 216.806139 32.569 216.857139 L 32.569 216.857139 L 32.569 216.857139 Q 32.524 216.908139 32.404 216.908139 L 32.404 216.908139 L 30.454 216.908139 L 30.454 218.072139 L 31.87 218.072139 L 31.87 218.072139 Q 31.99 218.072139 32.038 218.120139 L 32.038 218.120139 L 32.038 218.120139 Q 32.086 218.168139 32.086 218.282139 L 32.086 218.282139 L 32.086 218.432139 L 32.086 218.432139 Q 32.086 218.546139 32.038 218.597139 L 32.038 218.597139 L 32.038 218.597139 Q 31.99 218.648139 31.87 218.648139 L 31.87 218.648139 L 30.454 218.648139 L 30.454 219.818139 L 32.398 219.818139 L 32.398 219.818139 Q 32.518 219.818139 32.566 219.869139 L 32.566 219.869139 L 32.566 219.869139 Q 32.614 219.920139 32.614 220.034139 L 32.614 220.034139 L 32.614 220.196139 L 32.614 220.196139 Q 32.614 220.304139 32.566 220.352139 L 32.566 220.352139 L 32.566 220.352139 Q 32.518 220.400139 32.398 220.400139 L 32.398 220.400139 L 29.908 220.400139 L 29.908 220.400139 Z " fill-rule="evenodd" fill="rgb(255,255,255)"/><path d=" M 21.667 172.490139 L 21.667 172.490139 Q 20.647 172.490139 20.089 171.938139 L 20.089 171.938139 L 20.089 171.938139 Q 19.531 171.386139 19.531 170.360139 L 19.531 170.360139 L 19.531 170.360139 Q 19.531 169.334139 20.08 168.782139 L 20.08 168.782139 L 20.08 168.782139 Q 20.629 168.230139 21.649 168.230139 L 21.649 168.230139 L 21.649 168.230139 Q 22.057 168.230139 22.405 168.314139 L 22.405 168.314139 L 22.405 168.314139 Q 22.753 168.398139 22.993 168.554139 L 22.993 168.554139 L 22.993 168.554139 Q 23.047 168.590139 23.047 168.632139 L 23.047 168.632139 L 23.047 168.632139 Q 23.047 168.668139 23.017 168.716139 L 23.017 168.716139 L 22.849 169.004139 L 22.849 169.004139 Q 22.813 169.058139 22.783 169.058139 L 22.783 169.058139 L 22.783 169.058139 Q 22.759 169.058139 22.699 169.028139 L 22.699 169.028139 L 22.699 169.028139 Q 22.321 168.800139 21.733 168.800139 L 21.733 168.800139 L 21.733 168.800139 Q 21.055 168.800139 20.671 169.190139 L 20.671 169.190139 L 20.671 169.190139 Q 20.287 169.580139 20.287 170.360139 L 20.287 170.360139 L 20.287 170.360139 Q 20.287 171.152139 20.683 171.539139 L 20.683 171.539139 L 20.683 171.539139 Q 21.079 171.926139 21.751 171.926139 L 21.751 171.926139 L 21.751 171.926139 Q 22.375 171.926139 22.777 171.692139 L 22.777 171.692139 L 22.777 171.692139 Q 22.837 171.662139 22.855 171.662139 L 22.855 171.662139 L 22.855 171.662139 Q 22.891 171.662139 22.927 171.716139 L 22.927 171.716139 L 23.113 172.028139 L 23.113 172.028139 Q 23.131 172.064139 23.131 172.088139 L 23.131 172.088139 L 23.131 172.088139 Q 23.131 172.124139 23.065 172.166139 L 23.065 172.166139 L 23.065 172.166139 Q 22.603 172.490139 21.667 172.490139 L 21.667 172.490139 L 21.667 172.490139 Z  M 25.869 172.400139 L 25.869 172.400139 Q 25.785 172.400139 25.746 172.370139 L 25.746 172.370139 L 25.746 172.370139 Q 25.707 172.340139 25.671 172.250139 L 25.671 172.250139 L 24.111 168.488139 L 24.111 168.488139 Q 24.093 168.452139 24.093 168.416139 L 24.093 168.416139 L 24.093 168.416139 Q 24.093 168.374139 24.12 168.347139 L 24.12 168.347139 L 24.12 168.347139 Q 24.147 168.320139 24.195 168.320139 L 24.195 168.320139 L 24.711 168.320139 L 24.711 168.320139 Q 24.789 168.320139 24.831 168.350139 L 24.831 168.350139 L 24.831 168.350139 Q 24.873 168.380139 24.897 168.446139 L 24.897 168.446139 L 26.031 171.326139 L 27.165 168.446139 L 27.165 168.446139 Q 27.189 168.380139 27.231 168.350139 L 27.231 168.350139 L 27.231 168.350139 Q 27.273 168.320139 27.351 168.320139 L 27.351 168.320139 L 27.867 168.320139 L 27.867 168.320139 Q 27.915 168.320139 27.942 168.347139 L 27.942 168.347139 L 27.942 168.347139 Q 27.969 168.374139 27.969 168.416139 L 27.969 168.416139 L 27.969 168.416139 Q 27.969 168.452139 27.951 168.488139 L 27.951 168.488139 L 26.397 172.250139 L 26.397 172.250139 Q 26.361 172.340139 26.319 172.370139 L 26.319 172.370139 L 26.319 172.370139 Q 26.277 172.400139 26.193 172.400139 L 26.193 172.400139 L 25.869 172.400139 L 25.869 172.400139 Z " fill-rule="evenodd" fill="rgb(255,255,255)"/><path d=" M 52.428 314.400139 L 52.428 314.400139 Q 52.326 314.400139 52.326 314.310139 L 52.326 314.310139 L 52.326 314.310139 Q 52.326 314.274139 52.344 314.232139 L 52.344 314.232139 L 53.928 310.476139 L 53.928 310.476139 Q 53.964 310.386139 54.006 310.353139 L 54.006 310.353139 L 54.006 310.353139 Q 54.048 310.320139 54.126 310.320139 L 54.126 310.320139 L 54.456 310.320139 L 54.456 310.320139 Q 54.54 310.320139 54.579 310.353139 L 54.579 310.353139 L 54.579 310.353139 Q 54.618 310.386139 54.654 310.476139 L 54.654 310.476139 L 56.238 314.232139 L 56.238 314.232139 Q 56.256 314.274139 56.256 314.310139 L 56.256 314.310139 L 56.256 314.310139 Q 56.256 314.400139 56.154 314.400139 L 56.154 314.400139 L 55.632 314.400139 L 55.632 314.400139 Q 55.554 314.400139 55.521 314.379139 L 55.521 314.379139 L 55.521 314.379139 Q 55.488 314.358139 55.458 314.292139 L 55.458 314.292139 L 55.116 313.452139 L 53.46 313.452139 L 53.124 314.292139 L 53.124 314.292139 Q 53.094 314.358139 53.061 314.379139 L 53.061 314.379139 L 53.061 314.379139 Q 53.028 314.400139 52.95 314.400139 L 52.95 314.400139 L 52.428 314.400139 L 52.428 314.400139 Z  M 53.652 312.894139 L 54.924 312.894139 L 54.288 311.322139 L 53.652 312.894139 L 53.652 312.894139 Z  M 57.566 314.400139 L 57.566 314.400139 Q 57.446 314.400139 57.395 314.346139 L 57.395 314.346139 L 57.395 314.346139 Q 57.344 314.292139 57.344 314.184139 L 57.344 314.184139 L 57.344 310.542139 L 57.344 310.542139 Q 57.344 310.428139 57.395 310.374139 L 57.395 310.374139 L 57.395 310.374139 Q 57.446 310.320139 57.566 310.320139 L 57.566 310.320139 L 60.062 310.320139 L 60.062 310.320139 Q 60.182 310.320139 60.227 310.368139 L 60.227 310.368139 L 60.227 310.368139 Q 60.272 310.416139 60.272 310.530139 L 60.272 310.530139 L 60.272 310.692139 L 60.272 310.692139 Q 60.272 310.806139 60.227 310.857139 L 60.227 310.857139 L 60.227 310.857139 Q 60.182 310.908139 60.062 310.908139 L 60.062 310.908139 L 58.112 310.908139 L 58.112 312.066139 L 59.528 312.066139 L 59.528 312.066139 Q 59.648 312.066139 59.696 312.114139 L 59.696 312.114139 L 59.696 312.114139 Q 59.744 312.162139 59.744 312.276139 L 59.744 312.276139 L 59.744 312.438139 L 59.744 312.438139 Q 59.744 312.552139 59.696 312.603139 L 59.696 312.603139 L 59.696 312.603139 Q 59.648 312.654139 59.528 312.654139 L 59.528 312.654139 L 58.112 312.654139 L 58.112 314.184139 L 58.112 314.184139 Q 58.112 314.292139 58.061 314.346139 L 58.061 314.346139 L 58.061 314.346139 Q 58.01 314.400139 57.884 314.400139 L 57.884 314.400139 L 57.566 314.400139 L 57.566 314.400139 Z  M 62.488 314.400139 L 62.488 314.400139 Q 62.368 314.400139 62.314 314.346139 L 62.314 314.346139 L 62.314 314.346139 Q 62.26 314.292139 62.26 314.184139 L 62.26 314.184139 L 62.26 310.908139 L 61.21 310.908139 L 61.21 310.908139 Q 61.09 310.908139 61.045 310.860139 L 61.045 310.860139 L 61.045 310.860139 Q 61 310.812139 61 310.698139 L 61 310.698139 L 61 310.536139 L 61 310.536139 Q 61 310.422139 61.045 310.371139 L 61.045 310.371139 L 61.045 310.371139 Q 61.09 310.320139 61.21 310.320139 L 61.21 310.320139 L 64.078 310.320139 L 64.078 310.320139 Q 64.198 310.320139 64.246 310.371139 L 64.246 310.371139 L 64.246 310.371139 Q 64.294 310.422139 64.294 310.536139 L 64.294 310.536139 L 64.294 310.698139 L 64.294 310.698139 Q 64.294 310.812139 64.246 310.860139 L 64.246 310.860139 L 64.246 310.860139 Q 64.198 310.908139 64.078 310.908139 L 64.078 310.908139 L 63.028 310.908139 L 63.028 314.184139 L 63.028 314.184139 Q 63.028 314.292139 62.977 314.346139 L 62.977 314.346139 L 62.977 314.346139 Q 62.926 314.400139 62.8 314.400139 L 62.8 314.400139 L 62.488 314.400139 L 62.488 314.400139 Z " fill-rule="evenodd" fill="rgb(255,255,255)"/><path d=" M 54.216 267.400139 L 54.216 267.400139 Q 54.132 267.400139 54.093 267.370139 L 54.093 267.370139 L 54.093 267.370139 Q 54.054 267.340139 54.018 267.250139 L 54.018 267.250139 L 52.458 263.488139 L 52.458 263.488139 Q 52.44 263.452139 52.44 263.416139 L 52.44 263.416139 L 52.44 263.416139 Q 52.44 263.374139 52.467 263.347139 L 52.467 263.347139 L 52.467 263.347139 Q 52.494 263.320139 52.542 263.320139 L 52.542 263.320139 L 53.058 263.320139 L 53.058 263.320139 Q 53.136 263.320139 53.178 263.350139 L 53.178 263.350139 L 53.178 263.350139 Q 53.22 263.380139 53.244 263.446139 L 53.244 263.446139 L 54.378 266.326139 L 55.512 263.446139 L 55.512 263.446139 Q 55.536 263.380139 55.578 263.350139 L 55.578 263.350139 L 55.578 263.350139 Q 55.62 263.320139 55.698 263.320139 L 55.698 263.320139 L 56.214 263.320139 L 56.214 263.320139 Q 56.262 263.320139 56.289 263.347139 L 56.289 263.347139 L 56.289 263.347139 Q 56.316 263.374139 56.316 263.416139 L 56.316 263.416139 L 56.316 263.416139 Q 56.316 263.452139 56.298 263.488139 L 56.298 263.488139 L 54.744 267.250139 L 54.744 267.250139 Q 54.708 267.340139 54.666 267.370139 L 54.666 267.370139 L 54.666 267.370139 Q 54.624 267.400139 54.54 267.400139 L 54.54 267.400139 L 54.216 267.400139 L 54.216 267.400139 Z  M 57.626 267.400139 L 57.626 267.400139 Q 57.506 267.400139 57.455 267.346139 L 57.455 267.346139 L 57.455 267.346139 Q 57.404 267.292139 57.404 267.184139 L 57.404 267.184139 L 57.404 263.542139 L 57.404 263.542139 Q 57.404 263.428139 57.455 263.374139 L 57.455 263.374139 L 57.455 263.374139 Q 57.506 263.320139 57.626 263.320139 L 57.626 263.320139 L 60.122 263.320139 L 60.122 263.320139 Q 60.242 263.320139 60.287 263.368139 L 60.287 263.368139 L 60.287 263.368139 Q 60.332 263.416139 60.332 263.530139 L 60.332 263.530139 L 60.332 263.692139 L 60.332 263.692139 Q 60.332 263.806139 60.287 263.857139 L 60.287 263.857139 L 60.287 263.857139 Q 60.242 263.908139 60.122 263.908139 L 60.122 263.908139 L 58.172 263.908139 L 58.172 265.072139 L 59.588 265.072139 L 59.588 265.072139 Q 59.708 265.072139 59.756 265.120139 L 59.756 265.120139 L 59.756 265.120139 Q 59.804 265.168139 59.804 265.282139 L 59.804 265.282139 L 59.804 265.432139 L 59.804 265.432139 Q 59.804 265.546139 59.756 265.597139 L 59.756 265.597139 L 59.756 265.597139 Q 59.708 265.648139 59.588 265.648139 L 59.588 265.648139 L 58.172 265.648139 L 58.172 266.818139 L 60.116 266.818139 L 60.116 266.818139 Q 60.236 266.818139 60.284 266.869139 L 60.284 266.869139 L 60.284 266.869139 Q 60.332 266.920139 60.332 267.034139 L 60.332 267.034139 L 60.332 267.196139 L 60.332 267.196139 Q 60.332 267.304139 60.284 267.352139 L 60.284 267.352139 L 60.284 267.352139 Q 60.236 267.400139 60.116 267.400139 L 60.116 267.400139 L 57.626 267.400139 L 57.626 267.400139 Z  M 61.582 267.400139 L 61.582 267.400139 Q 61.462 267.400139 61.411 267.346139 L 61.411 267.346139 L 61.411 267.346139 Q 61.36 267.292139 61.36 267.184139 L 61.36 267.184139 L 61.36 263.542139 L 61.36 263.542139 Q 61.36 263.428139 61.411 263.374139 L 61.411 263.374139 L 61.411 263.374139 Q 61.462 263.320139 61.582 263.320139 L 61.582 263.320139 L 61.9 263.320139 L 61.9 263.320139 Q 62.02 263.320139 62.074 263.374139 L 62.074 263.374139 L 62.074 263.374139 Q 62.128 263.428139 62.128 263.542139 L 62.128 263.542139 L 62.128 266.818139 L 63.964 266.818139 L 63.964 266.818139 Q 64.084 266.818139 64.132 266.869139 L 64.132 266.869139 L 64.132 266.869139 Q 64.18 266.920139 64.18 267.034139 L 64.18 267.034139 L 64.18 267.196139 L 64.18 267.196139 Q 64.18 267.304139 64.132 267.352139 L 64.132 267.352139 L 64.132 267.352139 Q 64.084 267.400139 63.964 267.400139 L 63.964 267.400139 L 61.582 267.400139 L 61.582 267.400139 Z " fill-rule="evenodd" fill="rgb(255,255,255)"/><path d=" M 52.582 220.490139 L 52.582 220.490139 Q 51.562 220.490139 51.004 219.938139 L 51.004 219.938139 L 51.004 219.938139 Q 50.446 219.386139 50.446 218.360139 L 50.446 218.360139 L 50.446 218.360139 Q 50.446 217.340139 51.007 216.785139 L 51.007 216.785139 L 51.007 216.785139 Q 51.568 216.230139 52.582 216.230139 L 52.582 216.230139 L 52.582 216.230139 Q 52.99 216.230139 53.344 216.314139 L 53.344 216.314139 L 53.344 216.314139 Q 53.698 216.398139 53.932 216.554139 L 53.932 216.554139 L 53.932 216.554139 Q 53.986 216.590139 53.986 216.632139 L 53.986 216.632139 L 53.986 216.632139 Q 53.986 216.662139 53.962 216.704139 L 53.962 216.704139 L 53.788 217.004139 L 53.788 217.004139 Q 53.752 217.058139 53.716 217.058139 L 53.716 217.058139 L 53.716 217.058139 Q 53.698 217.058139 53.638 217.028139 L 53.638 217.028139 L 53.638 217.028139 Q 53.23 216.800139 52.666 216.800139 L 52.666 216.800139 L 52.666 216.800139 Q 51.982 216.800139 51.592 217.187139 L 51.592 217.187139 L 51.592 217.187139 Q 51.202 217.574139 51.202 218.360139 L 51.202 218.360139 L 51.202 218.360139 Q 51.202 219.152139 51.58 219.536139 L 51.58 219.536139 L 51.58 219.536139 Q 51.958 219.920139 52.618 219.920139 L 52.618 219.920139 L 52.618 219.920139 Q 52.858 219.920139 53.086 219.881139 L 53.086 219.881139 L 53.086 219.881139 Q 53.314 219.842139 53.458 219.770139 L 53.458 219.770139 L 53.458 218.660139 L 52.666 218.660139 L 52.666 218.660139 Q 52.546 218.660139 52.498 218.609139 L 52.498 218.609139 L 52.498 218.609139 Q 52.45 218.558139 52.45 218.444139 L 52.45 218.444139 L 52.45 218.288139 L 52.45 218.288139 Q 52.45 218.174139 52.498 218.129139 L 52.498 218.129139 L 52.498 218.129139 Q 52.546 218.084139 52.666 218.084139 L 52.666 218.084139 L 53.932 218.084139 L 53.932 218.084139 Q 54.064 218.084139 54.121 218.147139 L 54.121 218.147139 L 54.121 218.147139 Q 54.178 218.210139 54.178 218.342139 L 54.178 218.342139 L 54.178 219.926139 L 54.178 219.926139 Q 54.178 220.016139 54.16 220.061139 L 54.16 220.061139 L 54.16 220.061139 Q 54.142 220.106139 54.082 220.142139 L 54.082 220.142139 L 54.082 220.142139 Q 53.53 220.490139 52.582 220.490139 L 52.582 220.490139 L 52.582 220.490139 Z  M 55.248 220.400139 L 55.248 220.400139 Q 55.146 220.400139 55.146 220.310139 L 55.146 220.310139 L 55.146 220.310139 Q 55.146 220.274139 55.164 220.232139 L 55.164 220.232139 L 56.748 216.476139 L 56.748 216.476139 Q 56.784 216.386139 56.826 216.353139 L 56.826 216.353139 L 56.826 216.353139 Q 56.868 216.320139 56.946 216.320139 L 56.946 216.320139 L 57.276 216.320139 L 57.276 216.320139 Q 57.36 216.320139 57.399 216.353139 L 57.399 216.353139 L 57.399 216.353139 Q 57.438 216.386139 57.474 216.476139 L 57.474 216.476139 L 59.058 220.232139 L 59.058 220.232139 Q 59.076 220.274139 59.076 220.310139 L 59.076 220.310139 L 59.076 220.310139 Q 59.076 220.400139 58.974 220.400139 L 58.974 220.400139 L 58.452 220.400139 L 58.452 220.400139 Q 58.374 220.400139 58.341 220.379139 L 58.341 220.379139 L 58.341 220.379139 Q 58.308 220.358139 58.278 220.292139 L 58.278 220.292139 L 57.936 219.452139 L 56.28 219.452139 L 55.944 220.292139 L 55.944 220.292139 Q 55.914 220.358139 55.881 220.379139 L 55.881 220.379139 L 55.881 220.379139 Q 55.848 220.400139 55.77 220.400139 L 55.77 220.400139 L 55.248 220.400139 L 55.248 220.400139 Z  M 56.472 218.894139 L 57.744 218.894139 L 57.108 217.322139 L 56.472 218.894139 L 56.472 218.894139 Z  M 61.412 220.400139 L 61.412 220.400139 Q 61.292 220.400139 61.238 220.346139 L 61.238 220.346139 L 61.238 220.346139 Q 61.184 220.292139 61.184 220.184139 L 61.184 220.184139 L 61.184 216.908139 L 60.134 216.908139 L 60.134 216.908139 Q 60.014 216.908139 59.969 216.860139 L 59.969 216.860139 L 59.969 216.860139 Q 59.924 216.812139 59.924 216.698139 L 59.924 216.698139 L 59.924 216.536139 L 59.924 216.536139 Q 59.924 216.422139 59.969 216.371139 L 59.969 216.371139 L 59.969 216.371139 Q 60.014 216.320139 60.134 216.320139 L 60.134 216.320139 L 63.002 216.320139 L 63.002 216.320139 Q 63.122 216.320139 63.17 216.371139 L 63.17 216.371139 L 63.17 216.371139 Q 63.218 216.422139 63.218 216.536139 L 63.218 216.536139 L 63.218 216.698139 L 63.218 216.698139 Q 63.218 216.812139 63.17 216.860139 L 63.17 216.860139 L 63.17 216.860139 Q 63.122 216.908139 63.002 216.908139 L 63.002 216.908139 L 61.952 216.908139 L 61.952 220.184139 L 61.952 220.184139 Q 61.952 220.292139 61.901 220.346139 L 61.901 220.346139 L 61.901 220.346139 Q 61.85 220.400139 61.724 220.400139 L 61.724 220.400139 L 61.412 220.400139 L 61.412 220.400139 Z  M 64.408 220.400139 L 64.408 220.400139 Q 64.288 220.400139 64.237 220.346139 L 64.237 220.346139 L 64.237 220.346139 Q 64.186 220.292139 64.186 220.184139 L 64.186 220.184139 L 64.186 216.542139 L 64.186 216.542139 Q 64.186 216.428139 64.237 216.374139 L 64.237 216.374139 L 64.237 216.374139 Q 64.288 216.320139 64.408 216.320139 L 64.408 216.320139 L 66.904 216.320139 L 66.904 216.320139 Q 67.024 216.320139 67.069 216.368139 L 67.069 216.368139 L 67.069 216.368139 Q 67.114 216.416139 67.114 216.530139 L 67.114 216.530139 L 67.114 216.692139 L 67.114 216.692139 Q 67.114 216.806139 67.069 216.857139 L 67.069 216.857139 L 67.069 216.857139 Q 67.024 216.908139 66.904 216.908139 L 66.904 216.908139 L 64.954 216.908139 L 64.954 218.072139 L 66.37 218.072139 L 66.37 218.072139 Q 66.49 218.072139 66.538 218.120139 L 66.538 218.120139 L 66.538 218.120139 Q 66.586 218.168139 66.586 218.282139 L 66.586 218.282139 L 66.586 218.432139 L 66.586 218.432139 Q 66.586 218.546139 66.538 218.597139 L 66.538 218.597139 L 66.538 218.597139 Q 66.49 218.648139 66.37 218.648139 L 66.37 218.648139 L 64.954 218.648139 L 64.954 219.818139 L 66.898 219.818139 L 66.898 219.818139 Q 67.018 219.818139 67.066 219.869139 L 67.066 219.869139 L 67.066 219.869139 Q 67.114 219.920139 67.114 220.034139 L 67.114 220.034139 L 67.114 220.196139 L 67.114 220.196139 Q 67.114 220.304139 67.066 220.352139 L 67.066 220.352139 L 67.066 220.352139 Q 67.018 220.400139 66.898 220.400139 L 66.898 220.400139 L 64.408 220.400139 L 64.408 220.400139 Z " fill-rule="evenodd" fill="rgb(255,255,255)"/><path d=" M 56.167 172.490139 L 56.167 172.490139 Q 55.147 172.490139 54.589 171.938139 L 54.589 171.938139 L 54.589 171.938139 Q 54.031 171.386139 54.031 170.360139 L 54.031 170.360139 L 54.031 170.360139 Q 54.031 169.334139 54.58 168.782139 L 54.58 168.782139 L 54.58 168.782139 Q 55.129 168.230139 56.149 168.230139 L 56.149 168.230139 L 56.149 168.230139 Q 56.557 168.230139 56.905 168.314139 L 56.905 168.314139 L 56.905 168.314139 Q 57.253 168.398139 57.493 168.554139 L 57.493 168.554139 L 57.493 168.554139 Q 57.547 168.590139 57.547 168.632139 L 57.547 168.632139 L 57.547 168.632139 Q 57.547 168.668139 57.517 168.716139 L 57.517 168.716139 L 57.349 169.004139 L 57.349 169.004139 Q 57.313 169.058139 57.283 169.058139 L 57.283 169.058139 L 57.283 169.058139 Q 57.259 169.058139 57.199 169.028139 L 57.199 169.028139 L 57.199 169.028139 Q 56.821 168.800139 56.233 168.800139 L 56.233 168.800139 L 56.233 168.800139 Q 55.555 168.800139 55.171 169.190139 L 55.171 169.190139 L 55.171 169.190139 Q 54.787 169.580139 54.787 170.360139 L 54.787 170.360139 L 54.787 170.360139 Q 54.787 171.152139 55.183 171.539139 L 55.183 171.539139 L 55.183 171.539139 Q 55.579 171.926139 56.251 171.926139 L 56.251 171.926139 L 56.251 171.926139 Q 56.875 171.926139 57.277 171.692139 L 57.277 171.692139 L 57.277 171.692139 Q 57.337 171.662139 57.355 171.662139 L 57.355 171.662139 L 57.355 171.662139 Q 57.391 171.662139 57.427 171.716139 L 57.427 171.716139 L 57.613 172.028139 L 57.613 172.028139 Q 57.631 172.064139 57.631 172.088139 L 57.631 172.088139 L 57.631 172.088139 Q 57.631 172.124139 57.565 172.166139 L 57.565 172.166139 L 57.565 172.166139 Q 57.103 172.490139 56.167 172.490139 L 56.167 172.490139 L 56.167 172.490139 Z  M 60.369 172.400139 L 60.369 172.400139 Q 60.285 172.400139 60.246 172.370139 L 60.246 172.370139 L 60.246 172.370139 Q 60.207 172.340139 60.171 172.250139 L 60.171 172.250139 L 58.611 168.488139 L 58.611 168.488139 Q 58.593 168.452139 58.593 168.416139 L 58.593 168.416139 L 58.593 168.416139 Q 58.593 168.374139 58.62 168.347139 L 58.62 168.347139 L 58.62 168.347139 Q 58.647 168.320139 58.695 168.320139 L 58.695 168.320139 L 59.211 168.320139 L 59.211 168.320139 Q 59.289 168.320139 59.331 168.350139 L 59.331 168.350139 L 59.331 168.350139 Q 59.373 168.380139 59.397 168.446139 L 59.397 168.446139 L 60.531 171.326139 L 61.665 168.446139 L 61.665 168.446139 Q 61.689 168.380139 61.731 168.350139 L 61.731 168.350139 L 61.731 168.350139 Q 61.773 168.320139 61.851 168.320139 L 61.851 168.320139 L 62.367 168.320139 L 62.367 168.320139 Q 62.415 168.320139 62.442 168.347139 L 62.442 168.347139 L 62.442 168.347139 Q 62.469 168.374139 62.469 168.416139 L 62.469 168.416139 L 62.469 168.416139 Q 62.469 168.452139 62.451 168.488139 L 62.451 168.488139 L 60.897 172.250139 L 60.897 172.250139 Q 60.861 172.340139 60.819 172.370139 L 60.819 172.370139 L 60.819 172.370139 Q 60.777 172.400139 60.693 172.400139 L 60.693 172.400139 L 60.369 172.400139 L 60.369 172.400139 Z " fill-rule="evenodd" fill="rgb(255,255,255)"/><path d=" M 86.928 314.400139 L 86.928 314.400139 Q 86.826 314.400139 86.826 314.310139 L 86.826 314.310139 L 86.826 314.310139 Q 86.826 314.274139 86.844 314.232139 L 86.844 314.232139 L 88.428 310.476139 L 88.428 310.476139 Q 88.464 310.386139 88.506 310.353139 L 88.506 310.353139 L 88.506 310.353139 Q 88.548 310.320139 88.626 310.320139 L 88.626 310.320139 L 88.956 310.320139 L 88.956 310.320139 Q 89.04 310.320139 89.079 310.353139 L 89.079 310.353139 L 89.079 310.353139 Q 89.118 310.386139 89.154 310.476139 L 89.154 310.476139 L 90.738 314.232139 L 90.738 314.232139 Q 90.756 314.274139 90.756 314.310139 L 90.756 314.310139 L 90.756 314.310139 Q 90.756 314.400139 90.654 314.400139 L 90.654 314.400139 L 90.132 314.400139 L 90.132 314.400139 Q 90.054 314.400139 90.021 314.379139 L 90.021 314.379139 L 90.021 314.379139 Q 89.988 314.358139 89.958 314.292139 L 89.958 314.292139 L 89.616 313.452139 L 87.96 313.452139 L 87.624 314.292139 L 87.624 314.292139 Q 87.594 314.358139 87.561 314.379139 L 87.561 314.379139 L 87.561 314.379139 Q 87.528 314.400139 87.45 314.400139 L 87.45 314.400139 L 86.928 314.400139 L 86.928 314.400139 Z  M 88.152 312.894139 L 89.424 312.894139 L 88.788 311.322139 L 88.152 312.894139 L 88.152 312.894139 Z  M 92.066 314.400139 L 92.066 314.400139 Q 91.946 314.400139 91.895 314.346139 L 91.895 314.346139 L 91.895 314.346139 Q 91.844 314.292139 91.844 314.184139 L 91.844 314.184139 L 91.844 310.542139 L 91.844 310.542139 Q 91.844 310.428139 91.895 310.374139 L 91.895 310.374139 L 91.895 310.374139 Q 91.946 310.320139 92.066 310.320139 L 92.066 310.320139 L 94.562 310.320139 L 94.562 310.320139 Q 94.682 310.320139 94.727 310.368139 L 94.727 310.368139 L 94.727 310.368139 Q 94.772 310.416139 94.772 310.530139 L 94.772 310.530139 L 94.772 310.692139 L 94.772 310.692139 Q 94.772 310.806139 94.727 310.857139 L 94.727 310.857139 L 94.727 310.857139 Q 94.682 310.908139 94.562 310.908139 L 94.562 310.908139 L 92.612 310.908139 L 92.612 312.066139 L 94.028 312.066139 L 94.028 312.066139 Q 94.148 312.066139 94.196 312.114139 L 94.196 312.114139 L 94.196 312.114139 Q 94.244 312.162139 94.244 312.276139 L 94.244 312.276139 L 94.244 312.438139 L 94.244 312.438139 Q 94.244 312.552139 94.196 312.603139 L 94.196 312.603139 L 94.196 312.603139 Q 94.148 312.654139 94.028 312.654139 L 94.028 312.654139 L 92.612 312.654139 L 92.612 314.184139 L 92.612 314.184139 Q 92.612 314.292139 92.561 314.346139 L 92.561 314.346139 L 92.561 314.346139 Q 92.51 314.400139 92.384 314.400139 L 92.384 314.400139 L 92.066 314.400139 L 92.066 314.400139 Z  M 96.988 314.400139 L 96.988 314.400139 Q 96.868 314.400139 96.814 314.346139 L 96.814 314.346139 L 96.814 314.346139 Q 96.76 314.292139 96.76 314.184139 L 96.76 314.184139 L 96.76 310.908139 L 95.71 310.908139 L 95.71 310.908139 Q 95.59 310.908139 95.545 310.860139 L 95.545 310.860139 L 95.545 310.860139 Q 95.5 310.812139 95.5 310.698139 L 95.5 310.698139 L 95.5 310.536139 L 95.5 310.536139 Q 95.5 310.422139 95.545 310.371139 L 95.545 310.371139 L 95.545 310.371139 Q 95.59 310.320139 95.71 310.320139 L 95.71 310.320139 L 98.578 310.320139 L 98.578 310.320139 Q 98.698 310.320139 98.746 310.371139 L 98.746 310.371139 L 98.746 310.371139 Q 98.794 310.422139 98.794 310.536139 L 98.794 310.536139 L 98.794 310.698139 L 98.794 310.698139 Q 98.794 310.812139 98.746 310.860139 L 98.746 310.860139 L 98.746 310.860139 Q 98.698 310.908139 98.578 310.908139 L 98.578 310.908139 L 97.528 310.908139 L 97.528 314.184139 L 97.528 314.184139 Q 97.528 314.292139 97.477 314.346139 L 97.477 314.346139 L 97.477 314.346139 Q 97.426 314.400139 97.3 314.400139 L 97.3 314.400139 L 96.988 314.400139 L 96.988 314.400139 Z " fill-rule="evenodd" fill="rgb(255,255,255)"/><path d=" M 88.716 267.400139 L 88.716 267.400139 Q 88.632 267.400139 88.593 267.370139 L 88.593 267.370139 L 88.593 267.370139 Q 88.554 267.340139 88.518 267.250139 L 88.518 267.250139 L 86.958 263.488139 L 86.958 263.488139 Q 86.94 263.452139 86.94 263.416139 L 86.94 263.416139 L 86.94 263.416139 Q 86.94 263.374139 86.967 263.347139 L 86.967 263.347139 L 86.967 263.347139 Q 86.994 263.320139 87.042 263.320139 L 87.042 263.320139 L 87.558 263.320139 L 87.558 263.320139 Q 87.636 263.320139 87.678 263.350139 L 87.678 263.350139 L 87.678 263.350139 Q 87.72 263.380139 87.744 263.446139 L 87.744 263.446139 L 88.878 266.326139 L 90.012 263.446139 L 90.012 263.446139 Q 90.036 263.380139 90.078 263.350139 L 90.078 263.350139 L 90.078 263.350139 Q 90.12 263.320139 90.198 263.320139 L 90.198 263.320139 L 90.714 263.320139 L 90.714 263.320139 Q 90.762 263.320139 90.789 263.347139 L 90.789 263.347139 L 90.789 263.347139 Q 90.816 263.374139 90.816 263.416139 L 90.816 263.416139 L 90.816 263.416139 Q 90.816 263.452139 90.798 263.488139 L 90.798 263.488139 L 89.244 267.250139 L 89.244 267.250139 Q 89.208 267.340139 89.166 267.370139 L 89.166 267.370139 L 89.166 267.370139 Q 89.124 267.400139 89.04 267.400139 L 89.04 267.400139 L 88.716 267.400139 L 88.716 267.400139 Z  M 92.126 267.400139 L 92.126 267.400139 Q 92.006 267.400139 91.955 267.346139 L 91.955 267.346139 L 91.955 267.346139 Q 91.904 267.292139 91.904 267.184139 L 91.904 267.184139 L 91.904 263.542139 L 91.904 263.542139 Q 91.904 263.428139 91.955 263.374139 L 91.955 263.374139 L 91.955 263.374139 Q 92.006 263.320139 92.126 263.320139 L 92.126 263.320139 L 94.622 263.320139 L 94.622 263.320139 Q 94.742 263.320139 94.787 263.368139 L 94.787 263.368139 L 94.787 263.368139 Q 94.832 263.416139 94.832 263.530139 L 94.832 263.530139 L 94.832 263.692139 L 94.832 263.692139 Q 94.832 263.806139 94.787 263.857139 L 94.787 263.857139 L 94.787 263.857139 Q 94.742 263.908139 94.622 263.908139 L 94.622 263.908139 L 92.672 263.908139 L 92.672 265.072139 L 94.088 265.072139 L 94.088 265.072139 Q 94.208 265.072139 94.256 265.120139 L 94.256 265.120139 L 94.256 265.120139 Q 94.304 265.168139 94.304 265.282139 L 94.304 265.282139 L 94.304 265.432139 L 94.304 265.432139 Q 94.304 265.546139 94.256 265.597139 L 94.256 265.597139 L 94.256 265.597139 Q 94.208 265.648139 94.088 265.648139 L 94.088 265.648139 L 92.672 265.648139 L 92.672 266.818139 L 94.616 266.818139 L 94.616 266.818139 Q 94.736 266.818139 94.784 266.869139 L 94.784 266.869139 L 94.784 266.869139 Q 94.832 266.920139 94.832 267.034139 L 94.832 267.034139 L 94.832 267.196139 L 94.832 267.196139 Q 94.832 267.304139 94.784 267.352139 L 94.784 267.352139 L 94.784 267.352139 Q 94.736 267.400139 94.616 267.400139 L 94.616 267.400139 L 92.126 267.400139 L 92.126 267.400139 Z  M 96.082 267.400139 L 96.082 267.400139 Q 95.962 267.400139 95.911 267.346139 L 95.911 267.346139 L 95.911 267.346139 Q 95.86 267.292139 95.86 267.184139 L 95.86 267.184139 L 95.86 263.542139 L 95.86 263.542139 Q 95.86 263.428139 95.911 263.374139 L 95.911 263.374139 L 95.911 263.374139 Q 95.962 263.320139 96.082 263.320139 L 96.082 263.320139 L 96.4 263.320139 L 96.4 263.320139 Q 96.52 263.320139 96.574 263.374139 L 96.574 263.374139 L 96.574 263.374139 Q 96.628 263.428139 96.628 263.542139 L 96.628 263.542139 L 96.628 266.818139 L 98.464 266.818139 L 98.464 266.818139 Q 98.584 266.818139 98.632 266.869139 L 98.632 266.869139 L 98.632 266.869139 Q 98.68 266.920139 98.68 267.034139 L 98.68 267.034139 L 98.68 267.196139 L 98.68 267.196139 Q 98.68 267.304139 98.632 267.352139 L 98.632 267.352139 L 98.632 267.352139 Q 98.584 267.400139 98.464 267.400139 L 98.464 267.400139 L 96.082 267.400139 L 96.082 267.400139 Z " fill-rule="evenodd" fill="rgb(255,255,255)"/><path d=" M 87.082 220.490139 L 87.082 220.490139 Q 86.062 220.490139 85.504 219.938139 L 85.504 219.938139 L 85.504 219.938139 Q 84.946 219.386139 84.946 218.360139 L 84.946 218.360139 L 84.946 218.360139 Q 84.946 217.340139 85.507 216.785139 L 85.507 216.785139 L 85.507 216.785139 Q 86.068 216.230139 87.082 216.230139 L 87.082 216.230139 L 87.082 216.230139 Q 87.49 216.230139 87.844 216.314139 L 87.844 216.314139 L 87.844 216.314139 Q 88.198 216.398139 88.432 216.554139 L 88.432 216.554139 L 88.432 216.554139 Q 88.486 216.590139 88.486 216.632139 L 88.486 216.632139 L 88.486 216.632139 Q 88.486 216.662139 88.462 216.704139 L 88.462 216.704139 L 88.288 217.004139 L 88.288 217.004139 Q 88.252 217.058139 88.216 217.058139 L 88.216 217.058139 L 88.216 217.058139 Q 88.198 217.058139 88.138 217.028139 L 88.138 217.028139 L 88.138 217.028139 Q 87.73 216.800139 87.166 216.800139 L 87.166 216.800139 L 87.166 216.800139 Q 86.482 216.800139 86.092 217.187139 L 86.092 217.187139 L 86.092 217.187139 Q 85.702 217.574139 85.702 218.360139 L 85.702 218.360139 L 85.702 218.360139 Q 85.702 219.152139 86.08 219.536139 L 86.08 219.536139 L 86.08 219.536139 Q 86.458 219.920139 87.118 219.920139 L 87.118 219.920139 L 87.118 219.920139 Q 87.358 219.920139 87.586 219.881139 L 87.586 219.881139 L 87.586 219.881139 Q 87.814 219.842139 87.958 219.770139 L 87.958 219.770139 L 87.958 218.660139 L 87.166 218.660139 L 87.166 218.660139 Q 87.046 218.660139 86.998 218.609139 L 86.998 218.609139 L 86.998 218.609139 Q 86.95 218.558139 86.95 218.444139 L 86.95 218.444139 L 86.95 218.288139 L 86.95 218.288139 Q 86.95 218.174139 86.998 218.129139 L 86.998 218.129139 L 86.998 218.129139 Q 87.046 218.084139 87.166 218.084139 L 87.166 218.084139 L 88.432 218.084139 L 88.432 218.084139 Q 88.564 218.084139 88.621 218.147139 L 88.621 218.147139 L 88.621 218.147139 Q 88.678 218.210139 88.678 218.342139 L 88.678 218.342139 L 88.678 219.926139 L 88.678 219.926139 Q 88.678 220.016139 88.66 220.061139 L 88.66 220.061139 L 88.66 220.061139 Q 88.642 220.106139 88.582 220.142139 L 88.582 220.142139 L 88.582 220.142139 Q 88.03 220.490139 87.082 220.490139 L 87.082 220.490139 L 87.082 220.490139 Z  M 89.748 220.400139 L 89.748 220.400139 Q 89.646 220.400139 89.646 220.310139 L 89.646 220.310139 L 89.646 220.310139 Q 89.646 220.274139 89.664 220.232139 L 89.664 220.232139 L 91.248 216.476139 L 91.248 216.476139 Q 91.284 216.386139 91.326 216.353139 L 91.326 216.353139 L 91.326 216.353139 Q 91.368 216.320139 91.446 216.320139 L 91.446 216.320139 L 91.776 216.320139 L 91.776 216.320139 Q 91.86 216.320139 91.899 216.353139 L 91.899 216.353139 L 91.899 216.353139 Q 91.938 216.386139 91.974 216.476139 L 91.974 216.476139 L 93.558 220.232139 L 93.558 220.232139 Q 93.576 220.274139 93.576 220.310139 L 93.576 220.310139 L 93.576 220.310139 Q 93.576 220.400139 93.474 220.400139 L 93.474 220.400139 L 92.952 220.400139 L 92.952 220.400139 Q 92.874 220.400139 92.841 220.379139 L 92.841 220.379139 L 92.841 220.379139 Q 92.808 220.358139 92.778 220.292139 L 92.778 220.292139 L 92.436 219.452139 L 90.78 219.452139 L 90.444 220.292139 L 90.444 220.292139 Q 90.414 220.358139 90.381 220.379139 L 90.381 220.379139 L 90.381 220.379139 Q 90.348 220.400139 90.27 220.400139 L 90.27 220.400139 L 89.748 220.400139 L 89.748 220.400139 Z  M 90.972 218.894139 L 92.244 218.894139 L 91.608 217.322139 L 90.972 218.894139 L 90.972 218.894139 Z  M 95.912 220.400139 L 95.912 220.400139 Q 95.792 220.400139 95.738 220.346139 L 95.738 220.346139 L 95.738 220.346139 Q 95.684 220.292139 95.684 220.184139 L 95.684 220.184139 L 95.684 216.908139 L 94.634 216.908139 L 94.634 216.908139 Q 94.514 216.908139 94.469 216.860139 L 94.469 216.860139 L 94.469 216.860139 Q 94.424 216.812139 94.424 216.698139 L 94.424 216.698139 L 94.424 216.536139 L 94.424 216.536139 Q 94.424 216.422139 94.469 216.371139 L 94.469 216.371139 L 94.469 216.371139 Q 94.514 216.320139 94.634 216.320139 L 94.634 216.320139 L 97.502 216.320139 L 97.502 216.320139 Q 97.622 216.320139 97.67 216.371139 L 97.67 216.371139 L 97.67 216.371139 Q 97.718 216.422139 97.718 216.536139 L 97.718 216.536139 L 97.718 216.698139 L 97.718 216.698139 Q 97.718 216.812139 97.67 216.860139 L 97.67 216.860139 L 97.67 216.860139 Q 97.622 216.908139 97.502 216.908139 L 97.502 216.908139 L 96.452 216.908139 L 96.452 220.184139 L 96.452 220.184139 Q 96.452 220.292139 96.401 220.346139 L 96.401 220.346139 L 96.401 220.346139 Q 96.35 220.400139 96.224 220.400139 L 96.224 220.400139 L 95.912 220.400139 L 95.912 220.400139 Z  M 98.908 220.400139 L 98.908 220.400139 Q 98.788 220.400139 98.737 220.346139 L 98.737 220.346139 L 98.737 220.346139 Q 98.686 220.292139 98.686 220.184139 L 98.686 220.184139 L 98.686 216.542139 L 98.686 216.542139 Q 98.686 216.428139 98.737 216.374139 L 98.737 216.374139 L 98.737 216.374139 Q 98.788 216.320139 98.908 216.320139 L 98.908 216.320139 L 101.404 216.320139 L 101.404 216.320139 Q 101.524 216.320139 101.569 216.368139 L 101.569 216.368139 L 101.569 216.368139 Q 101.614 216.416139 101.614 216.530139 L 101.614 216.530139 L 101.614 216.692139 L 101.614 216.692139 Q 101.614 216.806139 101.569 216.857139 L 101.569 216.857139 L 101.569 216.857139 Q 101.524 216.908139 101.404 216.908139 L 101.404 216.908139 L 99.454 216.908139 L 99.454 218.072139 L 100.87 218.072139 L 100.87 218.072139 Q 100.99 218.072139 101.038 218.120139 L 101.038 218.120139 L 101.038 218.120139 Q 101.086 218.168139 101.086 218.282139 L 101.086 218.282139 L 101.086 218.432139 L 101.086 218.432139 Q 101.086 218.546139 101.038 218.597139 L 101.038 218.597139 L 101.038 218.597139 Q 100.99 218.648139 100.87 218.648139 L 100.87 218.648139 L 99.454 218.648139 L 99.454 219.818139 L 101.398 219.818139 L 101.398 219.818139 Q 101.518 219.818139 101.566 219.869139 L 101.566 219.869139 L 101.566 219.869139 Q 101.614 219.920139 101.614 220.034139 L 101.614 220.034139 L 101.614 220.196139 L 101.614 220.196139 Q 101.614 220.304139 101.566 220.352139 L 101.566 220.352139 L 101.566 220.352139 Q 101.518 220.400139 101.398 220.400139 L 101.398 220.400139 L 98.908 220.400139 L 98.908 220.400139 Z " fill-rule="evenodd" fill="rgb(255,255,255)"/><path d=" M 90.667 172.490139 L 90.667 172.490139 Q 89.647 172.490139 89.089 171.938139 L 89.089 171.938139 L 89.089 171.938139 Q 88.531 171.386139 88.531 170.360139 L 88.531 170.360139 L 88.531 170.360139 Q 88.531 169.334139 89.08 168.782139 L 89.08 168.782139 L 89.08 168.782139 Q 89.629 168.230139 90.649 168.230139 L 90.649 168.230139 L 90.649 168.230139 Q 91.057 168.230139 91.405 168.314139 L 91.405 168.314139 L 91.405 168.314139 Q 91.753 168.398139 91.993 168.554139 L 91.993 168.554139 L 91.993 168.554139 Q 92.047 168.590139 92.047 168.632139 L 92.047 168.632139 L 92.047 168.632139 Q 92.047 168.668139 92.017 168.716139 L 92.017 168.716139 L 91.849 169.004139 L 91.849 169.004139 Q 91.813 169.058139 91.783 169.058139 L 91.783 169.058139 L 91.783 169.058139 Q 91.759 169.058139 91.699 169.028139 L 91.699 169.028139 L 91.699 169.028139 Q 91.321 168.800139 90.733 168.800139 L 90.733 168.800139 L 90.733 168.800139 Q 90.055 168.800139 89.671 169.190139 L 89.671 169.190139 L 89.671 169.190139 Q 89.287 169.580139 89.287 170.360139 L 89.287 170.360139 L 89.287 170.360139 Q 89.287 171.152139 89.683 171.539139 L 89.683 171.539139 L 89.683 171.539139 Q 90.079 171.926139 90.751 171.926139 L 90.751 171.926139 L 90.751 171.926139 Q 91.375 171.926139 91.777 171.692139 L 91.777 171.692139 L 91.777 171.692139 Q 91.837 171.662139 91.855 171.662139 L 91.855 171.662139 L 91.855 171.662139 Q 91.891 171.662139 91.927 171.716139 L 91.927 171.716139 L 92.113 172.028139 L 92.113 172.028139 Q 92.131 172.064139 92.131 172.088139 L 92.131 172.088139 L 92.131 172.088139 Q 92.131 172.124139 92.065 172.166139 L 92.065 172.166139 L 92.065 172.166139 Q 91.603 172.490139 90.667 172.490139 L 90.667 172.490139 L 90.667 172.490139 Z  M 94.869 172.400139 L 94.869 172.400139 Q 94.785 172.400139 94.746 172.370139 L 94.746 172.370139 L 94.746 172.370139 Q 94.707 172.340139 94.671 172.250139 L 94.671 172.250139 L 93.111 168.488139 L 93.111 168.488139 Q 93.093 168.452139 93.093 168.416139 L 93.093 168.416139 L 93.093 168.416139 Q 93.093 168.374139 93.12 168.347139 L 93.12 168.347139 L 93.12 168.347139 Q 93.147 168.320139 93.195 168.320139 L 93.195 168.320139 L 93.711 168.320139 L 93.711 168.320139 Q 93.789 168.320139 93.831 168.350139 L 93.831 168.350139 L 93.831 168.350139 Q 93.873 168.380139 93.897 168.446139 L 93.897 168.446139 L 95.031 171.326139 L 96.165 168.446139 L 96.165 168.446139 Q 96.189 168.380139 96.231 168.350139 L 96.231 168.350139 L 96.231 168.350139 Q 96.273 168.320139 96.351 168.320139 L 96.351 168.320139 L 96.867 168.320139 L 96.867 168.320139 Q 96.915 168.320139 96.942 168.347139 L 96.942 168.347139 L 96.942 168.347139 Q 96.969 168.374139 96.969 168.416139 L 96.969 168.416139 L 96.969 168.416139 Q 96.969 168.452139 96.951 168.488139 L 96.951 168.488139 L 95.397 172.250139 L 95.397 172.250139 Q 95.361 172.340139 95.319 172.370139 L 95.319 172.370139 L 95.319 172.370139 Q 95.277 172.400139 95.193 172.400139 L 95.193 172.400139 L 94.869 172.400139 L 94.869 172.400139 Z " fill-rule="evenodd" fill="rgb(255,255,255)"/><path d=" M 120.928 314.400139 L 120.928 314.400139 Q 120.826 314.400139 120.826 314.310139 L 120.826 314.310139 L 120.826 314.310139 Q 120.826 314.274139 120.844 314.232139 L 120.844 314.232139 L 122.428 310.476139 L 122.428 310.476139 Q 122.464 310.386139 122.506 310.353139 L 122.506 310.353139 L 122.506 310.353139 Q 122.548 310.320139 122.626 310.320139 L 122.626 310.320139 L 122.956 310.320139 L 122.956 310.320139 Q 123.04 310.320139 123.079 310.353139 L 123.079 310.353139 L 123.079 310.353139 Q 123.118 310.386139 123.154 310.476139 L 123.154 310.476139 L 124.738 314.232139 L 124.738 314.232139 Q 124.756 314.274139 124.756 314.310139 L 124.756 314.310139 L 124.756 314.310139 Q 124.756 314.400139 124.654 314.400139 L 124.654 314.400139 L 124.132 314.400139 L 124.132 314.400139 Q 124.054 314.400139 124.021 314.379139 L 124.021 314.379139 L 124.021 314.379139 Q 123.988 314.358139 123.958 314.292139 L 123.958 314.292139 L 123.616 313.452139 L 121.96 313.452139 L 121.624 314.292139 L 121.624 314.292139 Q 121.594 314.358139 121.561 314.379139 L 121.561 314.379139 L 121.561 314.379139 Q 121.528 314.400139 121.45 314.400139 L 121.45 314.400139 L 120.928 314.400139 L 120.928 314.400139 Z  M 122.152 312.894139 L 123.424 312.894139 L 122.788 311.322139 L 122.152 312.894139 L 122.152 312.894139 Z  M 126.066 314.400139 L 126.066 314.400139 Q 125.946 314.400139 125.895 314.346139 L 125.895 314.346139 L 125.895 314.346139 Q 125.844 314.292139 125.844 314.184139 L 125.844 314.184139 L 125.844 310.542139 L 125.844 310.542139 Q 125.844 310.428139 125.895 310.374139 L 125.895 310.374139 L 125.895 310.374139 Q 125.946 310.320139 126.066 310.320139 L 126.066 310.320139 L 128.562 310.320139 L 128.562 310.320139 Q 128.682 310.320139 128.727 310.368139 L 128.727 310.368139 L 128.727 310.368139 Q 128.772 310.416139 128.772 310.530139 L 128.772 310.530139 L 128.772 310.692139 L 128.772 310.692139 Q 128.772 310.806139 128.727 310.857139 L 128.727 310.857139 L 128.727 310.857139 Q 128.682 310.908139 128.562 310.908139 L 128.562 310.908139 L 126.612 310.908139 L 126.612 312.066139 L 128.028 312.066139 L 128.028 312.066139 Q 128.148 312.066139 128.196 312.114139 L 128.196 312.114139 L 128.196 312.114139 Q 128.244 312.162139 128.244 312.276139 L 128.244 312.276139 L 128.244 312.438139 L 128.244 312.438139 Q 128.244 312.552139 128.196 312.603139 L 128.196 312.603139 L 128.196 312.603139 Q 128.148 312.654139 128.028 312.654139 L 128.028 312.654139 L 126.612 312.654139 L 126.612 314.184139 L 126.612 314.184139 Q 126.612 314.292139 126.561 314.346139 L 126.561 314.346139 L 126.561 314.346139 Q 126.51 314.400139 126.384 314.400139 L 126.384 314.400139 L 126.066 314.400139 L 126.066 314.400139 Z  M 130.988 314.400139 L 130.988 314.400139 Q 130.868 314.400139 130.814 314.346139 L 130.814 314.346139 L 130.814 314.346139 Q 130.76 314.292139 130.76 314.184139 L 130.76 314.184139 L 130.76 310.908139 L 129.71 310.908139 L 129.71 310.908139 Q 129.59 310.908139 129.545 310.860139 L 129.545 310.860139 L 129.545 310.860139 Q 129.5 310.812139 129.5 310.698139 L 129.5 310.698139 L 129.5 310.536139 L 129.5 310.536139 Q 129.5 310.422139 129.545 310.371139 L 129.545 310.371139 L 129.545 310.371139 Q 129.59 310.320139 129.71 310.320139 L 129.71 310.320139 L 132.578 310.320139 L 132.578 310.320139 Q 132.698 310.320139 132.746 310.371139 L 132.746 310.371139 L 132.746 310.371139 Q 132.794 310.422139 132.794 310.536139 L 132.794 310.536139 L 132.794 310.698139 L 132.794 310.698139 Q 132.794 310.812139 132.746 310.860139 L 132.746 310.860139 L 132.746 310.860139 Q 132.698 310.908139 132.578 310.908139 L 132.578 310.908139 L 131.528 310.908139 L 131.528 314.184139 L 131.528 314.184139 Q 131.528 314.292139 131.477 314.346139 L 131.477 314.346139 L 131.477 314.346139 Q 131.426 314.400139 131.3 314.400139 L 131.3 314.400139 L 130.988 314.400139 L 130.988 314.400139 Z " fill-rule="evenodd" fill="rgb(255,255,255)"/><path d=" M 122.716 267.400139 L 122.716 267.400139 Q 122.632 267.400139 122.593 267.370139 L 122.593 267.370139 L 122.593 267.370139 Q 122.554 267.340139 122.518 267.250139 L 122.518 267.250139 L 120.958 263.488139 L 120.958 263.488139 Q 120.94 263.452139 120.94 263.416139 L 120.94 263.416139 L 120.94 263.416139 Q 120.94 263.374139 120.967 263.347139 L 120.967 263.347139 L 120.967 263.347139 Q 120.994 263.320139 121.042 263.320139 L 121.042 263.320139 L 121.558 263.320139 L 121.558 263.320139 Q 121.636 263.320139 121.678 263.350139 L 121.678 263.350139 L 121.678 263.350139 Q 121.72 263.380139 121.744 263.446139 L 121.744 263.446139 L 122.878 266.326139 L 124.012 263.446139 L 124.012 263.446139 Q 124.036 263.380139 124.078 263.350139 L 124.078 263.350139 L 124.078 263.350139 Q 124.12 263.320139 124.198 263.320139 L 124.198 263.320139 L 124.714 263.320139 L 124.714 263.320139 Q 124.762 263.320139 124.789 263.347139 L 124.789 263.347139 L 124.789 263.347139 Q 124.816 263.374139 124.816 263.416139 L 124.816 263.416139 L 124.816 263.416139 Q 124.816 263.452139 124.798 263.488139 L 124.798 263.488139 L 123.244 267.250139 L 123.244 267.250139 Q 123.208 267.340139 123.166 267.370139 L 123.166 267.370139 L 123.166 267.370139 Q 123.124 267.400139 123.04 267.400139 L 123.04 267.400139 L 122.716 267.400139 L 122.716 267.400139 Z  M 126.126 267.400139 L 126.126 267.400139 Q 126.006 267.400139 125.955 267.346139 L 125.955 267.346139 L 125.955 267.346139 Q 125.904 267.292139 125.904 267.184139 L 125.904 267.184139 L 125.904 263.542139 L 125.904 263.542139 Q 125.904 263.428139 125.955 263.374139 L 125.955 263.374139 L 125.955 263.374139 Q 126.006 263.320139 126.126 263.320139 L 126.126 263.320139 L 128.622 263.320139 L 128.622 263.320139 Q 128.742 263.320139 128.787 263.368139 L 128.787 263.368139 L 128.787 263.368139 Q 128.832 263.416139 128.832 263.530139 L 128.832 263.530139 L 128.832 263.692139 L 128.832 263.692139 Q 128.832 263.806139 128.787 263.857139 L 128.787 263.857139 L 128.787 263.857139 Q 128.742 263.908139 128.622 263.908139 L 128.622 263.908139 L 126.672 263.908139 L 126.672 265.072139 L 128.088 265.072139 L 128.088 265.072139 Q 128.208 265.072139 128.256 265.120139 L 128.256 265.120139 L 128.256 265.120139 Q 128.304 265.168139 128.304 265.282139 L 128.304 265.282139 L 128.304 265.432139 L 128.304 265.432139 Q 128.304 265.546139 128.256 265.597139 L 128.256 265.597139 L 128.256 265.597139 Q 128.208 265.648139 128.088 265.648139 L 128.088 265.648139 L 126.672 265.648139 L 126.672 266.818139 L 128.616 266.818139 L 128.616 266.818139 Q 128.736 266.818139 128.784 266.869139 L 128.784 266.869139 L 128.784 266.869139 Q 128.832 266.920139 128.832 267.034139 L 128.832 267.034139 L 128.832 267.196139 L 128.832 267.196139 Q 128.832 267.304139 128.784 267.352139 L 128.784 267.352139 L 128.784 267.352139 Q 128.736 267.400139 128.616 267.400139 L 128.616 267.400139 L 126.126 267.400139 L 126.126 267.400139 Z  M 130.082 267.400139 L 130.082 267.400139 Q 129.962 267.400139 129.911 267.346139 L 129.911 267.346139 L 129.911 267.346139 Q 129.86 267.292139 129.86 267.184139 L 129.86 267.184139 L 129.86 263.542139 L 129.86 263.542139 Q 129.86 263.428139 129.911 263.374139 L 129.911 263.374139 L 129.911 263.374139 Q 129.962 263.320139 130.082 263.320139 L 130.082 263.320139 L 130.4 263.320139 L 130.4 263.320139 Q 130.52 263.320139 130.574 263.374139 L 130.574 263.374139 L 130.574 263.374139 Q 130.628 263.428139 130.628 263.542139 L 130.628 263.542139 L 130.628 266.818139 L 132.464 266.818139 L 132.464 266.818139 Q 132.584 266.818139 132.632 266.869139 L 132.632 266.869139 L 132.632 266.869139 Q 132.68 266.920139 132.68 267.034139 L 132.68 267.034139 L 132.68 267.196139 L 132.68 267.196139 Q 132.68 267.304139 132.632 267.352139 L 132.632 267.352139 L 132.632 267.352139 Q 132.584 267.400139 132.464 267.400139 L 132.464 267.400139 L 130.082 267.400139 L 130.082 267.400139 Z " fill-rule="evenodd" fill="rgb(255,255,255)"/><path d=" M 121.082 220.490139 L 121.082 220.490139 Q 120.062 220.490139 119.504 219.938139 L 119.504 219.938139 L 119.504 219.938139 Q 118.946 219.386139 118.946 218.360139 L 118.946 218.360139 L 118.946 218.360139 Q 118.946 217.340139 119.507 216.785139 L 119.507 216.785139 L 119.507 216.785139 Q 120.068 216.230139 121.082 216.230139 L 121.082 216.230139 L 121.082 216.230139 Q 121.49 216.230139 121.844 216.314139 L 121.844 216.314139 L 121.844 216.314139 Q 122.198 216.398139 122.432 216.554139 L 122.432 216.554139 L 122.432 216.554139 Q 122.486 216.590139 122.486 216.632139 L 122.486 216.632139 L 122.486 216.632139 Q 122.486 216.662139 122.462 216.704139 L 122.462 216.704139 L 122.288 217.004139 L 122.288 217.004139 Q 122.252 217.058139 122.216 217.058139 L 122.216 217.058139 L 122.216 217.058139 Q 122.198 217.058139 122.138 217.028139 L 122.138 217.028139 L 122.138 217.028139 Q 121.73 216.800139 121.166 216.800139 L 121.166 216.800139 L 121.166 216.800139 Q 120.482 216.800139 120.092 217.187139 L 120.092 217.187139 L 120.092 217.187139 Q 119.702 217.574139 119.702 218.360139 L 119.702 218.360139 L 119.702 218.360139 Q 119.702 219.152139 120.08 219.536139 L 120.08 219.536139 L 120.08 219.536139 Q 120.458 219.920139 121.118 219.920139 L 121.118 219.920139 L 121.118 219.920139 Q 121.358 219.920139 121.586 219.881139 L 121.586 219.881139 L 121.586 219.881139 Q 121.814 219.842139 121.958 219.770139 L 121.958 219.770139 L 121.958 218.660139 L 121.166 218.660139 L 121.166 218.660139 Q 121.046 218.660139 120.998 218.609139 L 120.998 218.609139 L 120.998 218.609139 Q 120.95 218.558139 120.95 218.444139 L 120.95 218.444139 L 120.95 218.288139 L 120.95 218.288139 Q 120.95 218.174139 120.998 218.129139 L 120.998 218.129139 L 120.998 218.129139 Q 121.046 218.084139 121.166 218.084139 L 121.166 218.084139 L 122.432 218.084139 L 122.432 218.084139 Q 122.564 218.084139 122.621 218.147139 L 122.621 218.147139 L 122.621 218.147139 Q 122.678 218.210139 122.678 218.342139 L 122.678 218.342139 L 122.678 219.926139 L 122.678 219.926139 Q 122.678 220.016139 122.66 220.061139 L 122.66 220.061139 L 122.66 220.061139 Q 122.642 220.106139 122.582 220.142139 L 122.582 220.142139 L 122.582 220.142139 Q 122.03 220.490139 121.082 220.490139 L 121.082 220.490139 L 121.082 220.490139 Z  M 123.748 220.400139 L 123.748 220.400139 Q 123.646 220.400139 123.646 220.310139 L 123.646 220.310139 L 123.646 220.310139 Q 123.646 220.274139 123.664 220.232139 L 123.664 220.232139 L 125.248 216.476139 L 125.248 216.476139 Q 125.284 216.386139 125.326 216.353139 L 125.326 216.353139 L 125.326 216.353139 Q 125.368 216.320139 125.446 216.320139 L 125.446 216.320139 L 125.776 216.320139 L 125.776 216.320139 Q 125.86 216.320139 125.899 216.353139 L 125.899 216.353139 L 125.899 216.353139 Q 125.938 216.386139 125.974 216.476139 L 125.974 216.476139 L 127.558 220.232139 L 127.558 220.232139 Q 127.576 220.274139 127.576 220.310139 L 127.576 220.310139 L 127.576 220.310139 Q 127.576 220.400139 127.474 220.400139 L 127.474 220.400139 L 126.952 220.400139 L 126.952 220.400139 Q 126.874 220.400139 126.841 220.379139 L 126.841 220.379139 L 126.841 220.379139 Q 126.808 220.358139 126.778 220.292139 L 126.778 220.292139 L 126.436 219.452139 L 124.78 219.452139 L 124.444 220.292139 L 124.444 220.292139 Q 124.414 220.358139 124.381 220.379139 L 124.381 220.379139 L 124.381 220.379139 Q 124.348 220.400139 124.27 220.400139 L 124.27 220.400139 L 123.748 220.400139 L 123.748 220.400139 Z  M 124.972 218.894139 L 126.244 218.894139 L 125.608 217.322139 L 124.972 218.894139 L 124.972 218.894139 Z  M 129.912 220.400139 L 129.912 220.400139 Q 129.792 220.400139 129.738 220.346139 L 129.738 220.346139 L 129.738 220.346139 Q 129.684 220.292139 129.684 220.184139 L 129.684 220.184139 L 129.684 216.908139 L 128.634 216.908139 L 128.634 216.908139 Q 128.514 216.908139 128.469 216.860139 L 128.469 216.860139 L 128.469 216.860139 Q 128.424 216.812139 128.424 216.698139 L 128.424 216.698139 L 128.424 216.536139 L 128.424 216.536139 Q 128.424 216.422139 128.469 216.371139 L 128.469 216.371139 L 128.469 216.371139 Q 128.514 216.320139 128.634 216.320139 L 128.634 216.320139 L 131.502 216.320139 L 131.502 216.320139 Q 131.622 216.320139 131.67 216.371139 L 131.67 216.371139 L 131.67 216.371139 Q 131.718 216.422139 131.718 216.536139 L 131.718 216.536139 L 131.718 216.698139 L 131.718 216.698139 Q 131.718 216.812139 131.67 216.860139 L 131.67 216.860139 L 131.67 216.860139 Q 131.622 216.908139 131.502 216.908139 L 131.502 216.908139 L 130.452 216.908139 L 130.452 220.184139 L 130.452 220.184139 Q 130.452 220.292139 130.401 220.346139 L 130.401 220.346139 L 130.401 220.346139 Q 130.35 220.400139 130.224 220.400139 L 130.224 220.400139 L 129.912 220.400139 L 129.912 220.400139 Z  M 132.908 220.400139 L 132.908 220.400139 Q 132.788 220.400139 132.737 220.346139 L 132.737 220.346139 L 132.737 220.346139 Q 132.686 220.292139 132.686 220.184139 L 132.686 220.184139 L 132.686 216.542139 L 132.686 216.542139 Q 132.686 216.428139 132.737 216.374139 L 132.737 216.374139 L 132.737 216.374139 Q 132.788 216.320139 132.908 216.320139 L 132.908 216.320139 L 135.404 216.320139 L 135.404 216.320139 Q 135.524 216.320139 135.569 216.368139 L 135.569 216.368139 L 135.569 216.368139 Q 135.614 216.416139 135.614 216.530139 L 135.614 216.530139 L 135.614 216.692139 L 135.614 216.692139 Q 135.614 216.806139 135.569 216.857139 L 135.569 216.857139 L 135.569 216.857139 Q 135.524 216.908139 135.404 216.908139 L 135.404 216.908139 L 133.454 216.908139 L 133.454 218.072139 L 134.87 218.072139 L 134.87 218.072139 Q 134.99 218.072139 135.038 218.120139 L 135.038 218.120139 L 135.038 218.120139 Q 135.086 218.168139 135.086 218.282139 L 135.086 218.282139 L 135.086 218.432139 L 135.086 218.432139 Q 135.086 218.546139 135.038 218.597139 L 135.038 218.597139 L 135.038 218.597139 Q 134.99 218.648139 134.87 218.648139 L 134.87 218.648139 L 133.454 218.648139 L 133.454 219.818139 L 135.398 219.818139 L 135.398 219.818139 Q 135.518 219.818139 135.566 219.869139 L 135.566 219.869139 L 135.566 219.869139 Q 135.614 219.920139 135.614 220.034139 L 135.614 220.034139 L 135.614 220.196139 L 135.614 220.196139 Q 135.614 220.304139 135.566 220.352139 L 135.566 220.352139 L 135.566 220.352139 Q 135.518 220.400139 135.398 220.400139 L 135.398 220.400139 L 132.908 220.400139 L 132.908 220.400139 Z " fill-rule="evenodd" fill="rgb(255,255,255)"/><path d=" M 124.667 172.490139 L 124.667 172.490139 Q 123.647 172.490139 123.089 171.938139 L 123.089 171.938139 L 123.089 171.938139 Q 122.531 171.386139 122.531 170.360139 L 122.531 170.360139 L 122.531 170.360139 Q 122.531 169.334139 123.08 168.782139 L 123.08 168.782139 L 123.08 168.782139 Q 123.629 168.230139 124.649 168.230139 L 124.649 168.230139 L 124.649 168.230139 Q 125.057 168.230139 125.405 168.314139 L 125.405 168.314139 L 125.405 168.314139 Q 125.753 168.398139 125.993 168.554139 L 125.993 168.554139 L 125.993 168.554139 Q 126.047 168.590139 126.047 168.632139 L 126.047 168.632139 L 126.047 168.632139 Q 126.047 168.668139 126.017 168.716139 L 126.017 168.716139 L 125.849 169.004139 L 125.849 169.004139 Q 125.813 169.058139 125.783 169.058139 L 125.783 169.058139 L 125.783 169.058139 Q 125.759 169.058139 125.699 169.028139 L 125.699 169.028139 L 125.699 169.028139 Q 125.321 168.800139 124.733 168.800139 L 124.733 168.800139 L 124.733 168.800139 Q 124.055 168.800139 123.671 169.190139 L 123.671 169.190139 L 123.671 169.190139 Q 123.287 169.580139 123.287 170.360139 L 123.287 170.360139 L 123.287 170.360139 Q 123.287 171.152139 123.683 171.539139 L 123.683 171.539139 L 123.683 171.539139 Q 124.079 171.926139 124.751 171.926139 L 124.751 171.926139 L 124.751 171.926139 Q 125.375 171.926139 125.777 171.692139 L 125.777 171.692139 L 125.777 171.692139 Q 125.837 171.662139 125.855 171.662139 L 125.855 171.662139 L 125.855 171.662139 Q 125.891 171.662139 125.927 171.716139 L 125.927 171.716139 L 126.113 172.028139 L 126.113 172.028139 Q 126.131 172.064139 126.131 172.088139 L 126.131 172.088139 L 126.131 172.088139 Q 126.131 172.124139 126.065 172.166139 L 126.065 172.166139 L 126.065 172.166139 Q 125.603 172.490139 124.667 172.490139 L 124.667 172.490139 L 124.667 172.490139 Z  M 128.869 172.400139 L 128.869 172.400139 Q 128.785 172.400139 128.746 172.370139 L 128.746 172.370139 L 128.746 172.370139 Q 128.707 172.340139 128.671 172.250139 L 128.671 172.250139 L 127.111 168.488139 L 127.111 168.488139 Q 127.093 168.452139 127.093 168.416139 L 127.093 168.416139 L 127.093 168.416139 Q 127.093 168.374139 127.12 168.347139 L 127.12 168.347139 L 127.12 168.347139 Q 127.147 168.320139 127.195 168.320139 L 127.195 168.320139 L 127.711 168.320139 L 127.711 168.320139 Q 127.789 168.320139 127.831 168.350139 L 127.831 168.350139 L 127.831 168.350139 Q 127.873 168.380139 127.897 168.446139 L 127.897 168.446139 L 129.031 171.326139 L 130.165 168.446139 L 130.165 168.446139 Q 130.189 168.380139 130.231 168.350139 L 130.231 168.350139 L 130.231 168.350139 Q 130.273 168.320139 130.351 168.320139 L 130.351 168.320139 L 130.867 168.320139 L 130.867 168.320139 Q 130.915 168.320139 130.942 168.347139 L 130.942 168.347139 L 130.942 168.347139 Q 130.969 168.374139 130.969 168.416139 L 130.969 168.416139 L 130.969 168.416139 Q 130.969 168.452139 130.951 168.488139 L 130.951 168.488139 L 129.397 172.250139 L 129.397 172.250139 Q 129.361 172.340139 129.319 172.370139 L 129.319 172.370139 L 129.319 172.370139 Q 129.277 172.400139 129.193 172.400139 L 129.193 172.400139 L 128.869 172.400139 L 128.869 172.400139 Z " fill-rule="evenodd" fill="rgb(255,255,255)"/></g></svg>